<svg id="Grupo_159109" data-name="Grupo 159109" xmlns="http://www.w3.org/2000/svg" xmlns:xlink="http://www.w3.org/1999/xlink" width="275" height="184" viewBox="0 0 275 184">
  <defs>
    <clipPath id="clip-path">
      <rect id="Rectángulo_38492" data-name="Rectángulo 38492" width="275" height="184" fill="none"/>
    </clipPath>
    <clipPath id="clip-path-3">
      <rect id="Rectángulo_38475" data-name="Rectángulo 38475" width="8.639" height="10.978" transform="translate(125.92 20.943)" fill="none"/>
    </clipPath>
    <clipPath id="clip-path-4">
      <rect id="Rectángulo_38476" data-name="Rectángulo 38476" width="9.124" height="10.151" transform="translate(127.05 24.738)" fill="none"/>
    </clipPath>
    <clipPath id="clip-path-5">
      <rect id="Rectángulo_38477" data-name="Rectángulo 38477" width="15.118" height="19.21" transform="translate(194.509 58.682)" fill="none"/>
    </clipPath>
    <clipPath id="clip-path-6">
      <rect id="Rectángulo_38478" data-name="Rectángulo 38478" width="15.965" height="17.761" transform="translate(191.683 65.324)" fill="none"/>
    </clipPath>
    <clipPath id="clip-path-7">
      <rect id="Rectángulo_38484" data-name="Rectángulo 38484" width="37.915" height="37.115" transform="translate(76.926 55.171)" fill="none"/>
    </clipPath>
    <clipPath id="clip-path-8">
      <rect id="Rectángulo_38485" data-name="Rectángulo 38485" width="32.364" height="37.115" transform="translate(90.89 55.171)" fill="none"/>
    </clipPath>
    <clipPath id="clip-path-9">
      <rect id="Rectángulo_38486" data-name="Rectángulo 38486" width="28.23" height="36.746" transform="translate(113.691 55.171)" fill="none"/>
    </clipPath>
    <clipPath id="clip-path-10">
      <rect id="Rectángulo_38490" data-name="Rectángulo 38490" width="26.233" height="22.67" transform="translate(156.675 68.969)" fill="none"/>
    </clipPath>
    <clipPath id="clip-path-11">
      <path id="Trazado_134831" data-name="Trazado 134831" d="M182.908,83.367a14.324,14.324,0,0,1-2.613,8.272l-23.62-16.471a14.4,14.4,0,0,1,26.233,8.2" fill="none"/>
    </clipPath>
    <linearGradient id="linear-gradient" x1="-5.972" y1="5.074" x2="-5.934" y2="5.074" gradientUnits="objectBoundingBox">
      <stop offset="0" stop-color="#fff"/>
      <stop offset="1" stop-color="#90b193"/>
    </linearGradient>
  </defs>
  <g id="Grupo_159108" data-name="Grupo 159108" clip-path="url(#clip-path)">
    <g id="Grupo_159107" data-name="Grupo 159107">
      <g id="Grupo_159106" data-name="Grupo 159106" clip-path="url(#clip-path)">
        <path id="Trazado_134600" data-name="Trazado 134600" d="M137.5,19.327A72.673,72.673,0,1,1,64.827,92,72.673,72.673,0,0,1,137.5,19.327" fill="#b0c8cb"/>
        <path id="Trazado_134601" data-name="Trazado 134601" d="M105.719,119.026V125.4a1.264,1.264,0,0,1-.021.231,1.327,1.327,0,0,1-1.3,1.095H65.016a1.319,1.319,0,0,1-.936-.389,1.305,1.305,0,0,1-.367-.706,1.264,1.264,0,0,1-.021-.231v-6.376a1.325,1.325,0,0,1,1.324-1.326h39.378a1.326,1.326,0,0,1,1.325,1.326" fill="#ef7e6b"/>
        <path id="Trazado_134602" data-name="Trazado 134602" d="M78.606,126.724H64.817a1.126,1.126,0,0,1-1.126-1.126v-6.772a1.126,1.126,0,0,1,1.126-1.126H78.606v9.024Z" fill="#f49c68"/>
        <path id="Trazado_134603" data-name="Trazado 134603" d="M87.136,126.724H84.363V117.7h2.773v9.024Z" fill="#f49c68"/>
        <rect id="Rectángulo_38465" data-name="Rectángulo 38465" width="4.399" height="9.027" transform="translate(66.837 117.7)" fill="#fbc387"/>
        <path id="Trazado_134604" data-name="Trazado 134604" d="M104.968,126.727h-1.357V117.7h1.357a.751.751,0,0,1,.751.751v7.525a.751.751,0,0,1-.751.751" fill="#f49c68"/>
        <path id="Trazado_134605" data-name="Trazado 134605" d="M105.7,125.633a1.325,1.325,0,0,1-1.3,1.095H64.785a1.1,1.1,0,0,1-1.093-1.095Z" fill="#ec7724"/>
        <path id="Trazado_134606" data-name="Trazado 134606" d="M102.285,110v6.376a1.265,1.265,0,0,1-.022.231,1.327,1.327,0,0,1-1.3,1.095H61.582a1.327,1.327,0,0,1-1.3-1.095,1.264,1.264,0,0,1-.021-.231V110a1.326,1.326,0,0,1,1.325-1.326h39.377A1.328,1.328,0,0,1,102.285,110" fill="#ef7e6b"/>
        <path id="Trazado_134607" data-name="Trazado 134607" d="M75.172,117.7H61.383a1.126,1.126,0,0,1-1.126-1.126V109.8a1.126,1.126,0,0,1,1.126-1.126H75.172V117.7Z" fill="#f49c68"/>
        <path id="Trazado_134608" data-name="Trazado 134608" d="M83.7,117.7H80.929v-9.024H83.7V117.7Z" fill="#f49c68"/>
        <rect id="Rectángulo_38466" data-name="Rectángulo 38466" width="4.399" height="9.027" transform="translate(63.403 108.672)" fill="#fbc387"/>
        <path id="Trazado_134609" data-name="Trazado 134609" d="M101.534,117.7h-1.357v-9.027h1.357a.751.751,0,0,1,.751.751v7.525a.751.751,0,0,1-.751.751" fill="#f49c68"/>
        <path id="Trazado_134610" data-name="Trazado 134610" d="M102.264,116.6a1.324,1.324,0,0,1-1.3,1.1H61.351a1.1,1.1,0,0,1-1.093-1.1Z" fill="#ec7724"/>
        <path id="Trazado_134611" data-name="Trazado 134611" d="M102.285,101.249v6.376a1.265,1.265,0,0,1-.022.231,1.327,1.327,0,0,1-1.3,1.095H61.582a1.327,1.327,0,0,1-1.3-1.095,1.264,1.264,0,0,1-.021-.231v-6.376a1.326,1.326,0,0,1,1.325-1.326h39.377a1.328,1.328,0,0,1,1.326,1.326" fill="#ef7e6b"/>
        <path id="Trazado_134612" data-name="Trazado 134612" d="M75.172,108.947H61.383a1.126,1.126,0,0,1-1.126-1.126v-6.772a1.126,1.126,0,0,1,1.126-1.126H75.172v9.024Z" fill="#f49c68"/>
        <path id="Trazado_134613" data-name="Trazado 134613" d="M83.7,108.947H80.929V99.923H83.7v9.024Z" fill="#f49c68"/>
        <rect id="Rectángulo_38467" data-name="Rectángulo 38467" width="4.399" height="9.027" transform="translate(63.403 99.923)" fill="#fbc387"/>
        <path id="Trazado_134614" data-name="Trazado 134614" d="M101.534,108.95h-1.357V99.923h1.357a.751.751,0,0,1,.751.751V108.2a.751.751,0,0,1-.751.751" fill="#f49c68"/>
        <path id="Trazado_134615" data-name="Trazado 134615" d="M102.264,107.855a1.325,1.325,0,0,1-1.3,1.095H61.351a1.1,1.1,0,0,1-1.093-1.095Z" fill="#ec7724"/>
        <path id="Trazado_134616" data-name="Trazado 134616" d="M102.285,92.5v6.376a1.265,1.265,0,0,1-.022.231,1.327,1.327,0,0,1-1.3,1.095H61.582a1.327,1.327,0,0,1-1.3-1.095,1.264,1.264,0,0,1-.021-.231V92.5a1.326,1.326,0,0,1,1.325-1.326h39.377a1.328,1.328,0,0,1,1.326,1.326" fill="#ef7e6b"/>
        <path id="Trazado_134617" data-name="Trazado 134617" d="M75.172,100.2H61.383a1.126,1.126,0,0,1-1.126-1.126V92.3a1.126,1.126,0,0,1,1.126-1.126H75.172V100.2Z" fill="#f49c68"/>
        <path id="Trazado_134618" data-name="Trazado 134618" d="M83.7,100.2H80.929V91.174H83.7V100.2Z" fill="#f49c68"/>
        <rect id="Rectángulo_38468" data-name="Rectángulo 38468" width="4.399" height="9.027" transform="translate(63.403 91.174)" fill="#fbc387"/>
        <path id="Trazado_134619" data-name="Trazado 134619" d="M101.534,100.2h-1.357V91.174h1.357a.751.751,0,0,1,.751.751V99.45a.751.751,0,0,1-.751.751" fill="#f49c68"/>
        <path id="Trazado_134620" data-name="Trazado 134620" d="M102.264,99.106a1.325,1.325,0,0,1-1.3,1.095H61.351a1.1,1.1,0,0,1-1.093-1.095Z" fill="#ec7724"/>
        <path id="Trazado_134621" data-name="Trazado 134621" d="M102.285,83.75v6.376a1.265,1.265,0,0,1-.022.231,1.327,1.327,0,0,1-1.3,1.1H61.582a1.327,1.327,0,0,1-1.3-1.1,1.264,1.264,0,0,1-.021-.231V83.75a1.326,1.326,0,0,1,1.325-1.326h39.377a1.328,1.328,0,0,1,1.326,1.326" fill="#ef7e6b"/>
        <path id="Trazado_134622" data-name="Trazado 134622" d="M75.172,91.449H61.383a1.126,1.126,0,0,1-1.126-1.126V83.551a1.126,1.126,0,0,1,1.126-1.126H75.172v9.024Z" fill="#f49c68"/>
        <path id="Trazado_134623" data-name="Trazado 134623" d="M83.7,91.449H80.929V82.425H83.7v9.024Z" fill="#f49c68"/>
        <rect id="Rectángulo_38469" data-name="Rectángulo 38469" width="4.399" height="9.027" transform="translate(63.403 82.425)" fill="#fbc387"/>
        <path id="Trazado_134624" data-name="Trazado 134624" d="M101.534,91.452h-1.357V82.425h1.357a.751.751,0,0,1,.751.751V90.7a.751.751,0,0,1-.751.751" fill="#f49c68"/>
        <path id="Trazado_134625" data-name="Trazado 134625" d="M102.264,90.357a1.325,1.325,0,0,1-1.3,1.1H61.351a1.1,1.1,0,0,1-1.093-1.1Z" fill="#ec7724"/>
        <path id="Trazado_134626" data-name="Trazado 134626" d="M102.285,75v6.376a1.265,1.265,0,0,1-.022.231,1.327,1.327,0,0,1-1.3,1.1H61.582a1.327,1.327,0,0,1-1.3-1.1,1.264,1.264,0,0,1-.021-.231V75a1.326,1.326,0,0,1,1.325-1.326h39.377A1.328,1.328,0,0,1,102.285,75" fill="#ef7e6b"/>
        <path id="Trazado_134627" data-name="Trazado 134627" d="M75.172,82.7H61.383a1.126,1.126,0,0,1-1.126-1.126V74.8a1.126,1.126,0,0,1,1.126-1.126H75.172V82.7Z" fill="#f49c68"/>
        <path id="Trazado_134628" data-name="Trazado 134628" d="M83.7,82.7H80.929V73.676H83.7V82.7Z" fill="#f49c68"/>
        <rect id="Rectángulo_38470" data-name="Rectángulo 38470" width="4.399" height="9.027" transform="translate(63.403 73.675)" fill="#fbc387"/>
        <path id="Trazado_134629" data-name="Trazado 134629" d="M101.534,82.7h-1.357V73.675h1.357a.752.752,0,0,1,.751.752v7.524a.75.75,0,0,1-.751.751" fill="#f49c68"/>
        <path id="Trazado_134630" data-name="Trazado 134630" d="M102.264,81.608a1.325,1.325,0,0,1-1.3,1.1H61.351a1.1,1.1,0,0,1-1.093-1.1Z" fill="#ec7724"/>
        <path id="Trazado_134631" data-name="Trazado 134631" d="M106.061,128.054v6.376a1.264,1.264,0,0,1-.021.231,1.327,1.327,0,0,1-1.3,1.1H65.358a1.319,1.319,0,0,1-.936-.389,1.305,1.305,0,0,1-.367-.706,1.264,1.264,0,0,1-.021-.231v-6.376a1.325,1.325,0,0,1,1.324-1.326h39.378a1.326,1.326,0,0,1,1.325,1.326" fill="#ef7e6b"/>
        <path id="Trazado_134632" data-name="Trazado 134632" d="M78.949,135.752H65.16a1.125,1.125,0,0,1-1.126-1.126v-6.772a1.125,1.125,0,0,1,1.126-1.125H78.949v9.023Z" fill="#f49c68"/>
        <path id="Trazado_134633" data-name="Trazado 134633" d="M87.478,135.753H84.705v-9.024h2.773v9.024Z" fill="#f49c68"/>
        <rect id="Rectángulo_38471" data-name="Rectángulo 38471" width="4.399" height="9.027" transform="translate(67.179 126.728)" fill="#fbc387"/>
        <path id="Trazado_134634" data-name="Trazado 134634" d="M105.31,135.755h-1.357v-9.027h1.357a.751.751,0,0,1,.751.751V135a.751.751,0,0,1-.751.751" fill="#f49c68"/>
        <path id="Trazado_134635" data-name="Trazado 134635" d="M106.04,134.661a1.325,1.325,0,0,1-1.3,1.1H65.127a1.1,1.1,0,0,1-1.093-1.1Z" fill="#ec7724"/>
        <path id="Trazado_134636" data-name="Trazado 134636" d="M102.935,137.082v6.376a1.264,1.264,0,0,1-.021.231,1.327,1.327,0,0,1-1.3,1.1H62.232a1.319,1.319,0,0,1-.936-.389,1.305,1.305,0,0,1-.367-.706,1.264,1.264,0,0,1-.021-.231v-6.376a1.325,1.325,0,0,1,1.324-1.326H101.61a1.326,1.326,0,0,1,1.325,1.326" fill="#ef7e6b"/>
        <path id="Trazado_134637" data-name="Trazado 134637" d="M75.823,144.781H62.034a1.126,1.126,0,0,1-1.126-1.126v-6.772a1.126,1.126,0,0,1,1.126-1.126H75.823v9.024Z" fill="#f49c68"/>
        <path id="Trazado_134638" data-name="Trazado 134638" d="M84.353,144.781H81.58v-9.024h2.773v9.024Z" fill="#f49c68"/>
        <rect id="Rectángulo_38472" data-name="Rectángulo 38472" width="4.399" height="9.027" transform="translate(64.054 135.756)" fill="#fbc387"/>
        <path id="Trazado_134639" data-name="Trazado 134639" d="M102.184,144.783h-1.357v-9.027h1.357a.751.751,0,0,1,.751.751v7.525a.751.751,0,0,1-.751.751" fill="#f49c68"/>
        <path id="Trazado_134640" data-name="Trazado 134640" d="M102.914,143.689a1.325,1.325,0,0,1-1.3,1.1H62a1.1,1.1,0,0,1-1.093-1.1Z" fill="#ec7724"/>
        <path id="Trazado_134641" data-name="Trazado 134641" d="M107.105,146.11v6.376a1.264,1.264,0,0,1-.021.231,1.327,1.327,0,0,1-1.3,1.1H66.4a1.319,1.319,0,0,1-.936-.389,1.305,1.305,0,0,1-.367-.706,1.264,1.264,0,0,1-.021-.231V146.11a1.325,1.325,0,0,1,1.324-1.326H105.78a1.326,1.326,0,0,1,1.325,1.326" fill="#ef7e6b"/>
        <path id="Trazado_134642" data-name="Trazado 134642" d="M79.993,153.809H66.2a1.126,1.126,0,0,1-1.126-1.126v-6.772a1.126,1.126,0,0,1,1.126-1.126H79.993v9.024Z" fill="#f49c68"/>
        <path id="Trazado_134643" data-name="Trazado 134643" d="M88.523,153.809H85.75v-9.024h2.773v9.024Z" fill="#f49c68"/>
        <rect id="Rectángulo_38473" data-name="Rectángulo 38473" width="4.399" height="9.027" transform="translate(68.223 144.784)" fill="#fbc387"/>
        <path id="Trazado_134644" data-name="Trazado 134644" d="M106.354,153.811H105v-9.027h1.357a.751.751,0,0,1,.751.751v7.525a.751.751,0,0,1-.751.751" fill="#f49c68"/>
        <path id="Trazado_134645" data-name="Trazado 134645" d="M107.084,152.717a1.325,1.325,0,0,1-1.3,1.1H66.171a1.1,1.1,0,0,1-1.093-1.1Z" fill="#ec7724"/>
        <path id="Trazado_134646" data-name="Trazado 134646" d="M106.061,155.138v6.376a1.264,1.264,0,0,1-.021.231,1.327,1.327,0,0,1-1.3,1.1H65.358a1.319,1.319,0,0,1-.936-.389,1.305,1.305,0,0,1-.367-.706,1.264,1.264,0,0,1-.021-.231v-6.376a1.325,1.325,0,0,1,1.324-1.326h39.378a1.326,1.326,0,0,1,1.325,1.326" fill="#ef7e6b"/>
        <path id="Trazado_134647" data-name="Trazado 134647" d="M78.949,162.837H65.16a1.126,1.126,0,0,1-1.126-1.126v-6.772a1.126,1.126,0,0,1,1.126-1.126H78.949v9.024Z" fill="#f49c68"/>
        <path id="Trazado_134648" data-name="Trazado 134648" d="M87.478,162.837H84.705v-9.024h2.773v9.024Z" fill="#f49c68"/>
        <rect id="Rectángulo_38474" data-name="Rectángulo 38474" width="4.399" height="9.027" transform="translate(67.179 153.812)" fill="#fbc387"/>
        <path id="Trazado_134649" data-name="Trazado 134649" d="M105.31,162.839h-1.357v-9.027h1.357a.751.751,0,0,1,.751.751v7.525a.751.751,0,0,1-.751.751" fill="#f49c68"/>
        <path id="Trazado_134650" data-name="Trazado 134650" d="M106.04,161.745a1.325,1.325,0,0,1-1.3,1.1H65.127a1.1,1.1,0,0,1-1.093-1.1Z" fill="#ec7724"/>
        <path id="Trazado_134651" data-name="Trazado 134651" d="M132.135,41.039l-5.226-3.551-2.858-8.1,1.829-7.212,2.3-.754,6.19,18.885Z" fill="#ef7e6b"/>
        <path id="Trazado_134652" data-name="Trazado 134652" d="M132.549,40.907l-.16.052a4.457,4.457,0,0,1-4.209-.966c-.091-.07-.18-.142-.268-.217-3.6-3.023-5.807-9.89-4.571-14.343a4.354,4.354,0,0,1,3.788-3.581c-3.887,4.109-1.481,13.572,2.973,17.206a5.992,5.992,0,0,0,3.246,1.584c-.344.112-.508.164-.8.265" fill="#f49c68"/>
        <path id="Trazado_134653" data-name="Trazado 134653" d="M135.136,40.171c-2.388.783-5.363-1.486-7.3-5.283a17.484,17.484,0,0,1-.79-1.8c-.093-.245-.181-.5-.265-.751-.046-.141-.09-.281-.132-.421a14.821,14.821,0,0,1-.541-6.874c.385-2.014,1.337-3.492,2.768-3.961a3.173,3.173,0,0,1,1.246-.144,6.88,6.88,0,0,1,4.433,2.894q.34.424.662.9a15.717,15.717,0,0,1,.953,1.628,17.843,17.843,0,0,1,1.057,2.552c1.728,5.27.789,10.308-2.1,11.253" fill="#f49c68"/>
        <path id="Trazado_134654" data-name="Trazado 134654" d="M134.023,23.626c.107.124.214.252.319.383.222.277.44.575.648.884a15.366,15.366,0,0,1,.936,1.6A17.57,17.57,0,0,1,136.967,29a14.8,14.8,0,0,1,.673,7.111c-.377,2.021-1.3,3.368-2.591,3.792a3.352,3.352,0,0,1-2.471-.232,7.916,7.916,0,0,1-2.586-2.045,14.074,14.074,0,0,1-1.9-2.868,17.26,17.26,0,0,1-.777-1.767c-.092-.242-.179-.491-.261-.74-.04-.12-.08-.247-.131-.415a14.555,14.555,0,0,1-.533-6.741c.381-2,1.3-3.329,2.581-3.749a2.905,2.905,0,0,1,1.138-.131,6.273,6.273,0,0,1,3.919,2.407m.209-.182a6.535,6.535,0,0,0-4.106-2.5,3.173,3.173,0,0,0-1.246.144c-1.432.469-2.384,1.947-2.768,3.961a14.828,14.828,0,0,0,.54,6.873c.043.141.087.281.133.421.083.255.172.506.265.752a17.269,17.269,0,0,0,.79,1.8,14.4,14.4,0,0,0,1.942,2.924c1.7,1.946,3.671,2.911,5.354,2.359,2.884-.946,3.822-5.983,2.1-11.253a17.748,17.748,0,0,0-1.057-2.552,15.546,15.546,0,0,0-.954-1.628q-.319-.477-.661-.9c-.108-.134-.217-.265-.327-.391" fill="#d4524c"/>
        <path id="Trazado_134655" data-name="Trazado 134655" d="M133.459,34.344a5.049,5.049,0,0,1-2.1.584l-.643-1.962a6.623,6.623,0,0,0,1.442.005,3.31,3.31,0,0,0,1.082-.268,1.086,1.086,0,0,0,.44-.327.438.438,0,0,0,.035-.4.362.362,0,0,0-.194-.227,1.587,1.587,0,0,0-.447-.11c-.209-.028-.5-.053-.867-.074a3.852,3.852,0,0,1-1.16-.241,2.248,2.248,0,0,1-.85-.571,2.759,2.759,0,0,1-.55-1.013,1.739,1.739,0,0,1,.113-1.594,2.147,2.147,0,0,1,1.412-.774l-.376-1.147h.926l.351,1.07a4.348,4.348,0,0,1,1.622.322l.019,1.329a3.292,3.292,0,0,0-1.569-.177.811.811,0,0,0-.456.186.315.315,0,0,0-.049.326.468.468,0,0,0,.2.261,1.62,1.62,0,0,0,.433.165,7.245,7.245,0,0,0,.746.142,2.9,2.9,0,0,1,1.3.473,1.915,1.915,0,0,1,.631.968,2.375,2.375,0,0,1,.077,1.361,2.269,2.269,0,0,1-.812,1.191l.427,1.3-.745.549Z" fill="#ef7e6b"/>
        <path id="Trazado_134656" data-name="Trazado 134656" d="M132.549,40.907l-.16.052a4.457,4.457,0,0,1-4.209-.966c-.091-.07-.18-.142-.268-.217l2.19-.718c2.017,1.668,3.246,1.584,3.246,1.584s-.508.164-.8.265" fill="#d4524c"/>
        <g id="Grupo_159082" data-name="Grupo 159082" opacity="0.42">
          <g id="Grupo_159081" data-name="Grupo 159081">
            <g id="Grupo_159080" data-name="Grupo 159080" clip-path="url(#clip-path-3)">
              <path id="Trazado_134657" data-name="Trazado 134657" d="M126.653,31.921a14.83,14.83,0,0,1-.541-6.873l4.015-4.1a6.882,6.882,0,0,1,4.432,2.893Z" fill="#fff"/>
            </g>
          </g>
        </g>
        <g id="Grupo_159085" data-name="Grupo 159085" opacity="0.42">
          <g id="Grupo_159084" data-name="Grupo 159084">
            <g id="Grupo_159083" data-name="Grupo 159083" clip-path="url(#clip-path-4)">
              <path id="Trazado_134658" data-name="Trazado 134658" d="M127.84,34.889a17.58,17.58,0,0,1-.79-1.795l8.171-8.355a15.613,15.613,0,0,1,.953,1.628Z" fill="#fff"/>
            </g>
          </g>
        </g>
        <path id="Trazado_134659" data-name="Trazado 134659" d="M132.629,21.348c-1.522.047-1.854.4-1.811,1.922-.043-1.522-.395-1.853-1.917-1.806,1.522-.047,1.854-.4,1.811-1.922.043,1.522.395,1.853,1.917,1.806" fill="#fff"/>
        <path id="Trazado_134660" data-name="Trazado 134660" d="M198.75,93.847l9.145-6.214,5-14.176-3.2-12.618-4.029-1.321L194.835,92.564Z" fill="#ef7e6b"/>
        <path id="Trazado_134661" data-name="Trazado 134661" d="M198.026,93.616l.28.091c2.626.81,5.054.1,7.365-1.691q.237-.183.47-.379c6.291-5.29,10.16-17.305,8-25.1-.91-3.282-2.687-5.674-6.629-6.265,6.8,7.189,2.591,23.748-5.2,30.108-1.785,1.457-3.608,2.62-5.68,2.771.6.2.89.287,1.4.464" fill="#f49c68"/>
        <path id="Trazado_134662" data-name="Trazado 134662" d="M193.5,92.329c4.179,1.37,9.385-2.6,12.767-9.244a30.373,30.373,0,0,0,1.382-3.141c.162-.43.318-.869.464-1.315.081-.246.157-.491.232-.737a25.954,25.954,0,0,0,.946-12.027c-.673-3.524-2.339-6.111-4.844-6.932a5.55,5.55,0,0,0-2.181-.251c-2.587.2-5.361,2.068-7.756,5.063q-.6.744-1.158,1.579a27.456,27.456,0,0,0-1.669,2.849,31.311,31.311,0,0,0-1.849,4.464c-3.023,9.222-1.381,18.038,3.666,19.692" fill="#f49c68"/>
        <path id="Trazado_134663" data-name="Trazado 134663" d="M195.448,63.378c2.215-2.542,4.65-4.038,6.856-4.212a5.073,5.073,0,0,1,1.991.228c2.246.737,3.85,3.067,4.518,6.562a25.478,25.478,0,0,1-.934,11.794c-.089.294-.16.518-.229.727-.143.436-.3.871-.457,1.3a29.975,29.975,0,0,1-1.36,3.091,24.645,24.645,0,0,1-3.332,5.018,13.861,13.861,0,0,1-4.527,3.579,5.858,5.858,0,0,1-4.323.4c-2.265-.742-3.875-3.1-4.533-6.635a25.884,25.884,0,0,1,1.177-12.443,30.861,30.861,0,0,1,1.821-4.4,26.789,26.789,0,0,1,1.639-2.8c.364-.542.745-1.062,1.134-1.547.183-.229.371-.454.559-.67m-.367-.319q-.289.332-.572.685-.6.744-1.158,1.58a27.259,27.259,0,0,0-1.668,2.848,31.209,31.209,0,0,0-1.849,4.465c-3.024,9.222-1.382,18.037,3.665,19.691,2.946.966,6.4-.721,9.368-4.126a25.239,25.239,0,0,0,3.4-5.117,30.612,30.612,0,0,0,1.383-3.142c.162-.429.317-.869.463-1.315q.121-.369.232-.736a25.928,25.928,0,0,0,.946-12.027c-.673-3.525-2.339-6.112-4.843-6.933a5.555,5.555,0,0,0-2.182-.251c-2.383.189-4.926,1.786-7.184,4.378" fill="#d4524c"/>
        <path id="Trazado_134664" data-name="Trazado 134664" d="M196.434,82.133a8.834,8.834,0,0,0,3.671,1.022l1.125-3.432a11.751,11.751,0,0,1-2.522.008,5.793,5.793,0,0,1-1.894-.47,1.9,1.9,0,0,1-.77-.571.771.771,0,0,1-.062-.7.639.639,0,0,1,.339-.4,2.818,2.818,0,0,1,.783-.191c.366-.049.866-.093,1.516-.131a6.721,6.721,0,0,0,2.031-.42,3.955,3.955,0,0,0,1.488-1,4.833,4.833,0,0,0,.962-1.772,3.042,3.042,0,0,0-.2-2.79,3.757,3.757,0,0,0-2.471-1.355l.658-2.006h-1.62l-.613,1.873a7.591,7.591,0,0,0-2.84.564l-.032,2.324a5.772,5.772,0,0,1,2.745-.309,1.411,1.411,0,0,1,.8.325.551.551,0,0,1,.085.571.817.817,0,0,1-.348.457,2.837,2.837,0,0,1-.758.288,12.541,12.541,0,0,1-1.305.248,5.1,5.1,0,0,0-2.282.828,3.37,3.37,0,0,0-1.1,1.694,4.161,4.161,0,0,0-.134,2.382,3.985,3.985,0,0,0,1.421,2.083l-.747,2.28,1.3.959Z" fill="#ef7e6b"/>
        <path id="Trazado_134665" data-name="Trazado 134665" d="M198.026,93.616l.28.091c2.626.81,5.054.1,7.365-1.691q.237-.183.47-.379l-3.834-1.256c-3.529,2.918-5.68,2.771-5.68,2.771s.89.287,1.4.464" fill="#d4524c"/>
        <g id="Grupo_159088" data-name="Grupo 159088" opacity="0.42">
          <g id="Grupo_159087" data-name="Grupo 159087">
            <g id="Grupo_159086" data-name="Grupo 159086" clip-path="url(#clip-path-5)">
              <path id="Trazado_134666" data-name="Trazado 134666" d="M208.344,77.892a25.928,25.928,0,0,0,.946-12.027l-7.025-7.183c-2.587.2-5.36,2.068-7.756,5.063Z" fill="#fff"/>
            </g>
          </g>
        </g>
        <g id="Grupo_159091" data-name="Grupo 159091" opacity="0.42">
          <g id="Grupo_159090" data-name="Grupo 159090">
            <g id="Grupo_159089" data-name="Grupo 159089" clip-path="url(#clip-path-6)">
              <path id="Trazado_134667" data-name="Trazado 134667" d="M206.266,83.085a30.468,30.468,0,0,0,1.382-3.141l-14.3-14.62a27.351,27.351,0,0,0-1.669,2.849Z" fill="#fff"/>
            </g>
          </g>
        </g>
        <path id="Trazado_134668" data-name="Trazado 134668" d="M197.887,59.391c2.664.083,3.245.7,3.17,3.363.075-2.663.69-3.243,3.354-3.161-2.664-.082-3.245-.7-3.17-3.363-.075,2.664-.69,3.244-3.354,3.161" fill="#fff"/>
        <path id="Trazado_134669" data-name="Trazado 134669" d="M116.778,44.536l.094,111.523c0,4.023,3.542,7.235,7.981,7.232l54.727-.038a8.434,8.434,0,0,0,3.709-.813,7.17,7.17,0,0,0,4.249-6.429l-.094-111.524c0-4.02-3.531-7.348-7.97-7.345l-54.727.038a8.315,8.315,0,0,0-6.2,2.723,6.861,6.861,0,0,0-1.768,4.633" fill="#064679"/>
        <path id="Trazado_134670" data-name="Trazado 134670" d="M121.217,44.536l.094,111.523c0,4.023,3.542,7.235,7.981,7.232l54.727-.038a8.434,8.434,0,0,0,3.709-.813,7.17,7.17,0,0,0,4.249-6.429l-.094-111.524c0-4.02-3.531-7.348-7.97-7.345l-54.727.038a8.315,8.315,0,0,0-6.2,2.723,6.861,6.861,0,0,0-1.768,4.633" fill="#6787b2"/>
        <path id="Trazado_134671" data-name="Trazado 134671" d="M125.677,45.928l.013,14.079.08,87.44a2.555,2.555,0,0,0,2.483,2.621l51.513-.032,5.462,0a2.379,2.379,0,0,0,2.31-2.445L187.5,106.9l-.015-16.2-.041-44.813a2.383,2.383,0,0,0-2.315-2.444l-26.018.016-9.711.006-21.415.013a2.379,2.379,0,0,0-2.309,2.446" fill="#28649e"/>
        <path id="Trazado_134672" data-name="Trazado 134672" d="M159.112,43.463,187.486,90.7l-.041-44.813a2.382,2.382,0,0,0-2.314-2.444Z" fill="#4c7bb1"/>
        <path id="Trazado_134673" data-name="Trazado 134673" d="M125.677,45.928l.013,14.079,54.076,90.029,5.462,0a2.379,2.379,0,0,0,2.31-2.445L187.5,106.9,149.4,43.469l-21.415.013a2.379,2.379,0,0,0-2.309,2.446" fill="#4c7bb1"/>
        <path id="Trazado_134674" data-name="Trazado 134674" d="M125.675,50.723h61.768v-5.46a1.831,1.831,0,0,0-1.831-1.831H127.5a1.83,1.83,0,0,0-1.83,1.831Z" fill="#f49c68"/>
        <rect id="Rectángulo_38479" data-name="Rectángulo 38479" width="1.037" height="3.492" transform="translate(127.69 46.21) rotate(-45)" fill="#fff"/>
        <rect id="Rectángulo_38480" data-name="Rectángulo 38480" width="3.492" height="1.037" transform="translate(127.69 47.946) rotate(-45)" fill="#fff"/>
        <path id="Trazado_134675" data-name="Trazado 134675" d="M182.587,46.76a1.286,1.286,0,1,0,1.286-1.286,1.286,1.286,0,0,0-1.286,1.286" fill="#fff"/>
        <path id="Trazado_134676" data-name="Trazado 134676" d="M177.969,46.76a1.287,1.287,0,1,0,1.286-1.286,1.286,1.286,0,0,0-1.286,1.286" fill="#fff"/>
        <path id="Trazado_134677" data-name="Trazado 134677" d="M173.352,46.76a1.286,1.286,0,1,0,1.286-1.286,1.286,1.286,0,0,0-1.286,1.286" fill="#fff"/>
        <path id="Trazado_134678" data-name="Trazado 134678" d="M149.127,159.024h14.94a.763.763,0,0,0,.763-.763v-3a.763.763,0,0,0-.763-.763h-14.94a.763.763,0,0,0-.763.763v3a.763.763,0,0,0,.763.763" fill="#064679"/>
        <path id="Trazado_134679" data-name="Trazado 134679" d="M141.921,57.381V90.075a2.212,2.212,0,0,1-2.212,2.211H79.138a2.211,2.211,0,0,1-2.212-2.211V57.381a2.211,2.211,0,0,1,2.212-2.211h60.571a2.211,2.211,0,0,1,2.212,2.211" fill="#e8edbc"/>
        <path id="Trazado_134680" data-name="Trazado 134680" d="M139.71,92.372H79.138a2.3,2.3,0,0,1-2.3-2.3V57.381a2.3,2.3,0,0,1,2.3-2.3H139.71a2.3,2.3,0,0,1,2.3,2.3V90.075a2.3,2.3,0,0,1-2.3,2.3M79.138,55.256a2.128,2.128,0,0,0-2.126,2.125V90.075A2.129,2.129,0,0,0,79.138,92.2H139.71a2.128,2.128,0,0,0,2.126-2.126V57.381a2.128,2.128,0,0,0-2.126-2.125Z" fill="#6787b2"/>
        <path id="Trazado_134681" data-name="Trazado 134681" d="M118.756,82.4a12.912,12.912,0,1,1-.9-18.238,12.912,12.912,0,0,1,.9,18.238" fill="#6787b2"/>
        <path id="Trazado_134682" data-name="Trazado 134682" d="M105.237,78.2c.022-.114.15-.6.056-.675-.176-.135-.253-.281-.562-.272a4.142,4.142,0,0,1-.64,0c.2-.406.13-.746.373-1.14.191-.313-.6-.172-.7-.141-.18.054-.138.139-.165.306-.019.115-.184.242-.165.337a.851.851,0,0,0-.262,0,.487.487,0,0,1-.352-.045c-.154-.122-.265.064-.375-.138-.067-.124-.058-.324-.133-.443a1.156,1.156,0,0,1-.055-1.061c.157-.233-.1-.474.147-.666a1.027,1.027,0,0,0,.238-.6c.209-.016.6.212.786.225.051.118.33.246.351.061.065.053.128.151.227.082a.133.133,0,0,0-.1-.124.224.224,0,0,0,.02-.186c.133-.077.265.036.35.041a.389.389,0,0,1,.274-.01c.07.017.236-.089.3-.114-.024.161.058.274.15.207.16-.118.191.057.307.168.166.159-.047.512.271.695-.023.137.184.506.256.5.563-.07-.189-1.337-.094-1.674a.618.618,0,0,1,.347-.436c.167-.092-.013-.475.155-.531s.442.031.61-.036c.1-.038.155-.1.04-.155a1.665,1.665,0,0,1,.248-.166c-.008-.13-.207-.346-.187-.433.023.013.092-.039.085-.012.027.074.167-.194.177-.211.1-.171-.156-.272-.116-.415.082.019.318.1.372-.032a1.374,1.374,0,0,0-.171-.755c.214-.242.751.422.95.226.166.013.248.031.247-.145-.067-.075-.178,0-.227-.1.028-.184.165-.26.352-.324.075-.029.083-.144.121-.214a1.078,1.078,0,0,0,.294-.12c.288-.113.088-.084.18-.128.013,0,.48-.041.454-.084.039.083-.333.19-.308.361.038.259.338-.065.5-.1.141-.291.5-.138.8-.2.027-.087-.08-.045-.063-.124a.307.307,0,0,0,.3-.1c.044-.062.022-.123-.118-.106,0-.068-.138-.638-.341-.385-.1.128.075.387.074.53a.725.725,0,0,0-.267-.018,1.061,1.061,0,0,1-.187,0c-.06-.094-.1-.086-.194-.126-.08-.032-.161-.255-.2-.245a.987.987,0,0,0,.1-.186,2.048,2.048,0,0,0-.314-.06c.151.006.581-.089.367-.282-.155-.14-.386.02-.559.077a1.824,1.824,0,0,0-.473.247c-.045.033-.233.015-.32.042,0-.11.306-.318.395-.366.149-.081.248-.02.346-.193a.176.176,0,0,1,.23-.163,5.68,5.68,0,0,1,.612-.095c.321.02.571.152.849.068a.737.737,0,0,0,.309-.269q.186,0,.372-.021c.171-.011.308-.162.257-.289s.016-.518-.3-.351c-.055-.011-.037-.2-.248-.164a.676.676,0,0,0,.165-.1c-.063-.117-.615-.161-.745-.1-.028-.073.071-.211-.08-.327-.077-.058-.316-.055-.291-.205.138.139.32-.09.02-.185-.01-.062.212-.019-.011-.155-.05-.031-.217-.137-.185-.195.065-.119-.434-.575-.567-.076-.018.07-.574.266-.618.173-.07-.149-.107-.069-.18-.046-.051.017-.129-.023-.214-.068-.025-.084.14-.054.093-.27-.043-.2-.062-.127.035-.277.082-.126-.559-.024-.5-.236-.165-.094-.331-.263-.525-.192-.161.059-.283.178-.453.132-.123-.033-.285-.185-.388-.072-.078.085-.083.2.046.238a1.657,1.657,0,0,0-.164.227.186.186,0,0,0,.144.02.214.214,0,0,0,.042.186c-.03.048-.039.14-.092.161-.042.195-.321.187-.043.334.208.111.559.35.433.607-.093.189-.671.324-.893.364-.024.195.1.19.109.379,0,.1.065.222.058.323-.016.237-.111.127-.223.237s-.21-.113-.322-.165a.318.318,0,0,1-.194-.369c.018-.162.067-.44-.112-.476-.316-.063-.708.042-.989-.16-.14-.1-.237-.284-.431-.319-.1-.018-.23.1-.309.124s-.166-.024-.208.041c.06-.093-.027-.466-.234-.456s-.238-.252-.191-.348c.057-.116.428-.238.443-.352.005-.041.391-.34.267-.33.384-.134.308-.139-.042-.227a.375.375,0,0,1,.25-.1c.174.011.352.1.266-.083a.506.506,0,0,0,.6-.332c-.056-.02-.571-.024-.537-.122a.626.626,0,0,0,.607,0c.156-.117.265-.16.074-.225a1.659,1.659,0,0,1,.577-.043.182.182,0,0,0-.186-.123c.091-.081.182.026.264.037a.4.4,0,0,0,.374-.151c.235-.262-.278-.149-.191-.375.025-.026.133-.02.172-.006.057.02.114.04.129-.058.022-.146-.118-.107-.232-.136-.191-.047-.8.121-.414.194a.468.468,0,0,1-.185.082.94.94,0,0,1-.171.247c-.139.146-.263.191-.386,0,.02-.036.272-.368-.032-.26-.12.043-.192.174-.3.24.055-.079-.067-.181.041-.228-.052-.051-.123-.028-.193,0a.336.336,0,0,1-.117.026c-.012-.119.133-.063.165-.145-.07-.1-.2-.026-.168-.168s-.275-.036-.321-.017c-.139.058-.222.2-.356.29a.082.082,0,0,0,.082.021c-.013.057-.191.157,0,.172a.88.88,0,0,0,.232-.024,1.012,1.012,0,0,1,.2-.025c0,.038-.275.134-.289.145.005.059.05.044.1.03a.115.115,0,0,1,.07-.01c-.06.116-.256.157-.347.221-.15.105-.01.1-.085.213-.17.021-.064-.117-.042-.185-.107-.034-.418-.026-.391.145-.116.054-.605.29-.721.228-.257-.137-.592.223-.745.4l0-.008c-.338-.014-.513.28-.824.332.06-.057.122-.112.185-.166-.127-.093-.676.38-.762.477-.391.432-.122-.077-.537-.123-.056.051.086.094.062.165a1.6,1.6,0,0,0-.33.125,1.674,1.674,0,0,0-.363.156l-.086.106-.015.02a12.754,12.754,0,0,0-1.4,2.2,1.07,1.07,0,0,1,.39.042c-.07.2.445.14.431.261.053-.023-.031.24-.029.234a1.617,1.617,0,0,0-.07.268c.1-.039.024-.2.123-.248a2.251,2.251,0,0,1-.018.361c.028.155-.124.593-.073.661.036.049.2.244.156.3-.065.089-.012.407-.034.529a5.138,5.138,0,0,0-.087.523,2.764,2.764,0,0,0-.069.845,7.542,7.542,0,0,0,.257.987c.065.232.182.085.272.282.108.235.173.561.29.814.045.1.368.541.1.5-.018.276.386.284.414.536.033.295.27.382.352.659.227.009-.022-.314-.021-.371-.135-.008-.208-.379-.228-.536-.133-.057-.2-.343-.267-.462a1.082,1.082,0,0,1-.211-.651c.27.071.33.321.423.588a1.49,1.49,0,0,0,.178.4.431.431,0,0,1,.187.371,2.155,2.155,0,0,1,.638.93c.083.171-.045.276.055.437s.273.217.343.384a4.419,4.419,0,0,1,.85.449,1.675,1.675,0,0,0,.472.228c.14.03.241-.094.375-.1.26,0,.5.428.7.567.088,0,.78.292.784.184.034,0,.355.5.456.556.027.118-.087.135.053.236a.574.574,0,0,0,.071.047c.138-.061.282-.112.427-.173a.449.449,0,0,1-.11-.359" fill="#fff"/>
        <path id="Trazado_134683" data-name="Trazado 134683" d="M115.148,82.521c-.064-.233-.459-.018-.617-.128-.137-.1-.285-.266-.467-.251a2.129,2.129,0,0,1-.615-.079c-.158-.03-.212.164-.35.162.031-.213-.2-.293-.457-.252-.08-.114-.245-.1-.384-.014a.446.446,0,0,0,.036-.124c-.112-.1-.228.013-.357,0a.656.656,0,0,1-.427.229c.085-.242.34-.3.466-.508.066-.105-.169-.227-.2-.321-.115-.311-.092-.27-.357-.452a1.293,1.293,0,0,0-.618-.208c-.192-.014-.209.074-.386.009a1.381,1.381,0,0,0-.516-.106c.067-.363-.363-.438-.578-.41a.718.718,0,0,1,.165-.165.3.3,0,0,0-.165-.1c.1-.021.051-.187.082-.248-.177-.028-.265.252-.372.125.032-.041.134,0,.124-.083a.636.636,0,0,0-.585.052c-.189.134-.363-.1-.562-.082-.165.018-.231.059-.317-.082a.277.277,0,0,0-.29-.111c-.054-.042-.071-.243-.181-.17-.063.044-.071.146.036.15-.088.083-.251.042-.33.124-.039,0-.1-.135-.018-.155.334-.085-.115-.183-.181-.294a.4.4,0,0,0-.187-.167,1.886,1.886,0,0,0-.894.042c-.078-.107-.2-.218-.3-.342-.144.061-.289.112-.427.173.06.035.13.063.1-.015.079.183.248.054.249.288.029.071.224.105.268.1a.307.307,0,0,1,.136.021.84.84,0,0,1,.21.128c.108.081.1.059.274.055a.9.9,0,0,0-.084-.206c.177,0,.176-.1.372-.063-.008.077.124.256.083.31-.166.043-.358-.009-.476.13-.05.059-.048.279-.126.288a.258.258,0,0,0-.2.222.207.207,0,0,0-.124-.081c-.074.059.106.111.042.164a.174.174,0,0,0-.124.1c-.01.115.134.214.145.33a1.375,1.375,0,0,1,.016.52c-.027.049-.311.213-.22.223-.138.01-.035.151-.189.159-.11-.025-.147.023-.109.145-.021.094-.279.447-.072.523a.619.619,0,0,0,.206.006c0,.185-.211.155-.288.282-.014.125.252.268.063.269.051.1.177.122.269.164a1.488,1.488,0,0,0,.2.265,1.724,1.724,0,0,1,.383.538c.214.153.28.407.463.561a1.963,1.963,0,0,0,.561.311,3.831,3.831,0,0,1,.609.3c.035.1.147.445.064.536a2.417,2.417,0,0,0-.02.68c-.02.153-.161-.08-.029.166a.092.092,0,0,1,.024.1c0,.013-.118.221-.221.165a.144.144,0,0,0,.079.088,13,13,0,0,0,2.795.076c-.075-.033-.083-.1-.212-.088.339-.058.631.112.951-.053.074-.038.186-.175.279-.23l-.013.012a.952.952,0,0,0,.631-.484c.037-.376.6-.426.767-.686.4-.05.59.087.863-.151a2.646,2.646,0,0,0,.433-.609c.1-.138-.153-.46-.07-.619.187-.052.487-.081.567-.245.352-.163.813-.522.705-.918" fill="#fff"/>
        <path id="Trazado_134684" data-name="Trazado 134684" d="M100.246,64.8c.193.023.179.1.309.228.024-.051.468-.553.514-.5a.341.341,0,0,0-.1.1.056.056,0,0,1,.062,0,.406.406,0,0,0-.144.166,1.216,1.216,0,0,0,.42-.13,2.646,2.646,0,0,0,.528-.347c.134.022.266-.168.43-.18a.718.718,0,0,0,.518-.256c-.07-.071-.163.09-.206.042.093-.087.432-.112.391-.248-.141-.046-.28.083-.412,0,.093-.079.047-.169.04-.269-.256-.018-.312.177-.411.352-.077,0-.01-.1-.042-.1-.139.02-.2.148-.309.228a1.8,1.8,0,0,1-.643.22c-.19-.022-.2-.127-.405-.105-.033,0-.066.008-.1.012-.087.076-.173.153-.257.232a.179.179,0,0,1-.036.1c-.106.166-.114.1-.127.291-.022.07-.224.139-.019.164" fill="#fff"/>
        <path id="Trazado_134685" data-name="Trazado 134685" d="M99.64,65.04c-.043.047-.1.106-.143.16a1.162,1.162,0,0,0,.259-.124c-.019-.031-.062-.04-.116-.036" fill="#fff"/>
        <path id="Trazado_134686" data-name="Trazado 134686" d="M121.448,70.134a.7.7,0,0,0-.064-.351.3.3,0,0,0,.064.351" fill="#fff"/>
        <path id="Trazado_134687" data-name="Trazado 134687" d="M119.314,66.549c-.027-.031-.006-.162.041-.1-.156.16.369.414.352.618a.145.145,0,0,0-.144,0c.026.056.053.111.083.165a.37.37,0,0,1-.1.021c.013.171.219.142.289.268a.541.541,0,0,1-.144-.062c-.1.381-.122.088.165.288a.085.085,0,0,1,.021-.082,1.772,1.772,0,0,0,.433.164,1.352,1.352,0,0,0-.021-.289,3.623,3.623,0,0,0-.356-.515c-.115-.172-.252-.334-.368-.494-.024-.316-.139-.2-.27-.433a.085.085,0,0,0,.083-.062c-.088-.058-.177-.113-.269-.164a.263.263,0,0,0,.042.144.165.165,0,0,1-.042-.021c.011.1.1.536.208.557" fill="#fff"/>
        <path id="Trazado_134688" data-name="Trazado 134688" d="M122,71.973a.346.346,0,0,0-.223-.28c-.158-.03.111-.745-.2-.775-.085.075-.279-.012-.385-.038a.407.407,0,0,0-.42.123c.018.051-.507.144-.621-.087-.071-.143.211-.134.268-.13.236.016.2-.188.3-.336.068-.1,0-.128-.055-.231a1.744,1.744,0,0,0,.1-.289c.329.038.043-.326.185-.413a.821.821,0,0,0,.227.165.413.413,0,0,1,.123-.166,5.065,5.065,0,0,1,.332.722l.006.011a12.838,12.838,0,0,0-1.067-2.653.263.263,0,0,0-.079.23c-.16-.077-.131.122-.208.174s-.1.011-.13-.032a.1.1,0,0,0-.1-.058.745.745,0,0,1,.063.227c-.142-.112-.17-.09-.351-.123-.023.184.369.481.482.645a.881.881,0,0,1,.1.632c-.192-.142-.788-.363-.95-.2a3.029,3.029,0,0,0,.138.6,1.382,1.382,0,0,1-.053.493c.288.164-.077.5.414.411a.5.5,0,0,1-.052.758c-.224.162-.128.275-.256.445s.092.378-.091.591c-.125.146-.317.214-.372.382-.081.244-.313.341-.316.633-.228.108-.172.3-.329.455-.121.119-.019.3-.04.454a.086.086,0,0,1,.083.02,1.9,1.9,0,0,1,.066.562,1.611,1.611,0,0,1-.138.618c-.178.218.028.282-.024.482-.041.158.041.38.245.34-.12.242.354.4.29.721.067.2.4.408.576.559s.314.052.45-.054.257-.2.433-.084c.066.042.624-.429.728-.488.08.08.053.23.084.33a.4.4,0,0,0,.226-.145c.071.4-.216.717-.188,1.09,0,.013,0,.026,0,.039A12.949,12.949,0,0,0,122,71.973" fill="#fff"/>
        <path id="Trazado_134689" data-name="Trazado 134689" d="M118.82,66.984c.395.065.816.287.5-.166.167-.012-.208-.435-.311-.412a.337.337,0,0,0-.1.1.085.085,0,0,1,.083.062c-.075,0-.124-.057-.206-.062-.055.1.292.516.042.475" fill="#fff"/>
        <path id="Trazado_134690" data-name="Trazado 134690" d="M110.134,60.843c-.111-.008-.228.014-.346.011a1.236,1.236,0,0,0-.6.087.532.532,0,0,1,.269.061.5.5,0,0,1-.092,0c-.082-.007-.182-.013-.218.046a.18.18,0,0,0,.1.007c.022-.006.187.112.164.18.536.07.9-.207,1.364.139,0,.025-.211.171-.175.193a.611.611,0,0,1,.32-.029.241.241,0,0,0-.083.042.37.37,0,0,1,.207.082s-.212,0-.185.021a.1.1,0,0,1,.1.02.151.151,0,0,0-.1.062.059.059,0,0,1,.062.021.754.754,0,0,0-.1,0c-.1.046.262.072.409.059q.012-.031.057-.021c.009.011-.016.018-.057.021l0,.021c.141.048.378.034.455.143-.051-.009-.038.008-.026.026s.034.05-.129,0c-.138-.045-.374-.129-.506-.022a.121.121,0,0,1,.083.061c-.131-.02-.211.282-.206.287.1.095.614.043.7-.143a1.388,1.388,0,0,0-.185-.082,2.912,2.912,0,0,1,.289.061.058.058,0,0,0-.062.02c.006.043.044.039.076.034s.044-.007.048.007c.07.257-.343.187-.474.27.11.02-.072.092-.089.147-.04.073-.023.1.052.085a.694.694,0,0,1-.066.036c.077.085.244.012.31.082-.369,0-.136.213.158.258,0,.157-.083.2.07.237-.129,0-.1.069-.044.143a1.026,1.026,0,0,0,.142.143c.035.1,0,.052.1.127.036.025.191.024.214.06a.914.914,0,0,0-.006.391c.166.053.274-.118.347,0a.25.25,0,0,0,.107.067l.007-.007c0,.005,0,.007-.007.007-.137.13.262.13.317.137a.09.09,0,0,0,.09.09c.078,0,.075.027-.007.075a1.347,1.347,0,0,0,.433-.043.058.058,0,0,0-.021.083c.133.031.1-.1.124-.1s.223.018.227.041a.2.2,0,0,0-.123.1c.1.018.206.039.309.061-.127.146.054.081.186.144a.435.435,0,0,1,.2-.024.471.471,0,0,0,.189-.018c.039-.126-.005-.1-.03-.085s-.017.014,0,0,.044-.046.092-.1c-.037-.1-.132-.049-.063-.257.079-.233-.075-.177-.166-.362a.308.308,0,0,0,.124-.02.1.1,0,0,0-.062-.1c.105-.016.209.012.268-.165a1.064,1.064,0,0,1-.207-.144.189.189,0,0,0,.144-.021,1.088,1.088,0,0,0-.144-.144.224.224,0,0,0,.144-.021.159.159,0,0,0-.083-.124,2.1,2.1,0,0,0,.705.234,3.553,3.553,0,0,1-.024-.4.3.3,0,0,0,.185.062c.04-.135-.067-.268.061-.372.09.034.227.1.321.042a1.289,1.289,0,0,0,.3-.069,12.857,12.857,0,0,0-5.954-1.954" fill="#fff"/>
        <path id="Trazado_134691" data-name="Trazado 134691" d="M121.8,70.87c-.009-.01-.019-.013-.037.006a.455.455,0,0,0,.091.243q-.025-.125-.054-.249" fill="#fff"/>
        <path id="Trazado_134692" data-name="Trazado 134692" d="M121.552,70.588c-.013-.225-.04-.328-.166-.433a1.283,1.283,0,0,0,.125.454c0-.038.013-.044.041-.021" fill="#fff"/>
        <path id="Trazado_134693" data-name="Trazado 134693" d="M106.527,61.256a1.4,1.4,0,0,1,.373-.061c-.094.023-.234.038-.373.061-.078.02-.156.041-.235.053a.483.483,0,0,0-.168.087c.026-.017.017.045-.007.064.046-.007.137-.017.062-.057a.968.968,0,0,1,.454,0c-.105,0-.726.05-.743.208.117-.009.428-.1.516-.022-.112.038-1.1.1-1.051.374a5.381,5.381,0,0,0,.567-.133,4.78,4.78,0,0,0,.6-.142c.216-.064.688.045.834-.205-.216-.007-.47.1-.681.043.171-.046.353-.023.524-.069.128-.034.138-.1.265-.114.109-.01.437-.1.489-.212-.118-.017-.258.058-.371.022.212-.074.455-.009.66-.1a.14.14,0,0,1-.124-.02c.134.009.925-.168,1.318-.212a.218.218,0,0,1-.069,0c-.371-.005-.742.006-1.111.034-.338.045-.673.111-1,.188a3.315,3.315,0,0,0-1.053.287c.031,0,.062-.006.093-.011a1.728,1.728,0,0,1,.235-.053" fill="#fff"/>
        <path id="Trazado_134694" data-name="Trazado 134694" d="M106.075,61.361a.15.15,0,0,0,.062-.041c-.028,0-.114.032-.062.041" fill="#fff"/>
        <path id="Trazado_134695" data-name="Trazado 134695" d="M102.326,63.214c.72-.282,1-.538.742-.518a1.51,1.51,0,0,0-.742.518" fill="#fff"/>
        <path id="Trazado_134696" data-name="Trazado 134696" d="M104.863,61.851c.018,0,.033-.011.046-.011a.028.028,0,0,0,.027-.013,2.553,2.553,0,0,1,.6-.118,2.216,2.216,0,0,1,.508-.249.158.158,0,0,1-.116-.038.113.113,0,0,1,.025-.024l-.077.025a2.135,2.135,0,0,0-.227.063h.011s-.022.018-.018.018l.03-.019c.025,0-.078.031-.043.031-.035,0,.068-.031.043-.031-.393.119-.987.3-.96.432a1.08,1.08,0,0,1,.148-.066" fill="#fff"/>
        <path id="Trazado_134697" data-name="Trazado 134697" d="M117.326,63.975c-.078.007-.209-.231-.277-.271-.046-.027-.048-.012-.057,0s-.03.037-.148-.02a1.914,1.914,0,0,0-.406-.123.058.058,0,0,1,.021.083,1.192,1.192,0,0,0-.434-.288c-.025.048.079.067.041.083-.071-.028-.2-.088-.206.021.071.148.34.018.393.184a.217.217,0,0,1-.1-.011c-.065-.016-.134-.033-.152.033.106.065.274.051.351.164-.061-.019-.1,0-.1.062.121.036,1.3.486,1.28.265a1.048,1.048,0,0,0-.056-.093.18.18,0,0,0-.151-.092" fill="#fff"/>
        <path id="Trazado_134698" data-name="Trazado 134698" d="M107.411,76.379c0-.191-.213-.191-.351-.185-.008-.049.064-.061.02-.1a1.862,1.862,0,0,0-.433-.123.326.326,0,0,0-.242-.174c-.177-.052-.333-.208-.5-.2-.223,0-.4-.1-.642-.031-.111.029-.428.2-.329.372.116.026.456-.185.577-.249.034.195.28.153.475.247.166.079.292,0,.365.16.063.143.193.093.317.168-.042.072-.141.053-.124.165.287-.045.58,0,.867-.043" fill="#fff"/>
        <path id="Trazado_134699" data-name="Trazado 134699" d="M106.529,76.872c.019.011.411.092.388-.018-.1-.19-.751-.187-.388.018" fill="#fff"/>
        <path id="Trazado_134700" data-name="Trazado 134700" d="M107.667,76.839a.656.656,0,0,0,.261.014.235.235,0,0,0,.186.123c.046-.4.713.047.722-.249a1.007,1.007,0,0,0-.731-.331c-.116.011-.534-.1-.57.045,0,0,.264.274.248.267-.157.07-.3-.087-.454-.019-.034.24.233.131.338.15" fill="#fff"/>
        <path id="Trazado_134701" data-name="Trazado 134701" d="M109.076,76.812c.008.2.45.094.421-.026-.052-.005-.429-.175-.421.026" fill="#fff"/>
        <path id="Trazado_134702" data-name="Trazado 134702" d="M103.425,62.749c.246.2.422-.131.495-.126-.07-.016-.695-.041-.495.126" fill="#fff"/>
        <path id="Trazado_134703" data-name="Trazado 134703" d="M101.632,63.613c-.082,0-.3-.042-.307.1.151.126.684-.053.639-.27a.272.272,0,0,1-.165-.082.554.554,0,0,0-.31.083c-.05,0,.122.155.143.165" fill="#fff"/>
        <path id="Trazado_134704" data-name="Trazado 134704" d="M104.757,62.355c.395-.043.757-.252,1.146-.257a.434.434,0,0,0,.359-.139c.089.119.27.038.378.014a1.188,1.188,0,0,0,.344-.18,1.851,1.851,0,0,0-1.105.14c-.151.057-.246.041-.4.1-.1.038-.365,0-.435.073.048-.084.17-.052.227-.125a1.566,1.566,0,0,0-.536.146c-.006.088.079.019.082.062-.045.074-.09.061-.061.165" fill="#fff"/>
        <path id="Trazado_134705" data-name="Trazado 134705" d="M107.586,63.194c-.218-.072-.495-.013-.495.249.2.078.519.018.495-.249" fill="#fff"/>
        <path id="Trazado_134706" data-name="Trazado 134706" d="M109.034,62.631a.847.847,0,0,1-.294.044.958.958,0,0,0,.226-.083c-.022-.095-.176-.085-.323-.075-.132.009-.341.122-.36.056.121-.006-.177-.334-.287-.1-.016-.127-.106-.1-.2-.077a.253.253,0,0,1-.134.016.417.417,0,0,0,.186-.1c-.144-.1-.9-.19-.908.1a.186.186,0,0,0-.214-.009.175.175,0,0,1-.178.01.813.813,0,0,0,.144-.186c-.221-.212-.614-.028-.825.1a.1.1,0,0,1,.1.02c-.092,0-.248,0-.268.125a.176.176,0,0,1,.083.062.111.111,0,0,0-.124.082c.027.068.149.005.165.083a.224.224,0,0,1-.226.062.145.145,0,0,0,.123-.062c-.064-.106-.19-.112-.206-.227.1-.111.256-.133.35-.248-.259.032-.993.221-.886.518a.156.156,0,0,0-.145.124.807.807,0,0,0,.163-.01.529.529,0,0,1,.25.009c-.078.066-.278,0-.309.124.082.094.251.049.348.019.114-.036.11-.019.133,0s.056.028.193.011a5.742,5.742,0,0,1,.853-.051c.019-.119.082-.1.167-.078a.312.312,0,0,0,.2,0c.217-.087-.041-.116-.054-.148.09-.058.6.185.681.225a.489.489,0,0,1-.227.042c-.03.182.193.071.281.045.186-.054.156.057.329.094.457.1.079.456-.195.52,0,.075.179.125.144.185-.241.022-.415.059-.646.068-.109,0-.355.114-.322.285.141.009.715-.088.723-.2.005-.064.622.274.7.342a.092.092,0,0,0-.083.083c.174.135.442.111.579.311a3.7,3.7,0,0,1,.722.057c0-.326-.231-.33-.657-.425a5.576,5.576,0,0,0,.677.016c.12.077.109.221.248.223a.717.717,0,0,0,0-.227.127.127,0,0,0,.083.02c.038-.195-.116-.189-.207-.308.038.009.059,0,.062-.042-.106,0-.679-.345-.641-.39a.19.19,0,0,0,.186.041c.02-.1-.092-.064-.1-.145a.639.639,0,0,1,.6.03c.129.1.176.345.333.339.022-.062-.08-.138-.022-.185a2.614,2.614,0,0,1,.289-.042c.064-.038-.069-.07,0-.1.152.015.275-.1.068-.174-.17-.059-.191.013-.275-.093-.1,0-.236.062-.33,0a.12.12,0,0,0,.144-.042c-.147-.232-.706-.162-.95-.307a.1.1,0,0,1,.1-.021c.021-.054-.107-.076-.063-.1a.7.7,0,0,0,.331.04c.014-.1-.063-.1-.142-.1-.062,0-.126,0-.148-.047.406,0,.126-.148-.015-.126" fill="#fff"/>
        <path id="Trazado_134707" data-name="Trazado 134707" d="M105.667,64.521c.085,0,.647.322.64,0a.679.679,0,0,0-.331-.04c.059-.193-.232-.064-.363-.117-.293-.119-.028-.086-.236-.109a.122.122,0,0,0-.1-.144,1.85,1.85,0,0,0-.192.319c-.06.216-.148.149-.24.343.114.016.227-.088.33-.063a.227.227,0,0,0,0,.124c.178-.007.278-.173.453-.187.049-.038-.032-.113.041-.124" fill="#fff"/>
        <path id="Trazado_134708" data-name="Trazado 134708" d="M106.735,63.853c-.076-.024-.208.066-.268.021a.669.669,0,0,0,.268-.186,1.218,1.218,0,0,0-.619.27.086.086,0,0,1,.083.02,1.213,1.213,0,0,0-.412.228c.18.11.963-.008.948-.353" fill="#fff"/>
        <path id="Trazado_134709" data-name="Trazado 134709" d="M104.22,62.17a1,1,0,0,0,.453-.187,1.261,1.261,0,0,0-.453.187" fill="#fff"/>
        <path id="Trazado_134710" data-name="Trazado 134710" d="M103.749,63.657c-.072.007-.253-.093-.351-.1-.064.06-.263.216-.288.289.231-.027.484.038.639-.187" fill="#fff"/>
        <path id="Trazado_134711" data-name="Trazado 134711" d="M105.956,61.4A.337.337,0,0,0,106,61.38a.1.1,0,0,0-.046.018" fill="#fff"/>
        <path id="Trazado_134712" data-name="Trazado 134712" d="M104.213,62.428c.112.066.475-.146.433-.166-.138.068-.313.06-.433.166" fill="#fff"/>
        <path id="Trazado_134713" data-name="Trazado 134713" d="M104.071,62.794c.146.078.3-.027.7-.378.17-.147-.469.165-.7.378" fill="#fff"/>
        <path id="Trazado_134714" data-name="Trazado 134714" d="M104.055,62.253a1.115,1.115,0,0,0-.5.1c.121-.017.467.1.5-.1" fill="#fff"/>
        <path id="Trazado_134715" data-name="Trazado 134715" d="M103.016,63.324a.271.271,0,0,0-.082.083c.173-.018.484-.154.515-.352-.268-.034-.538.257-.433.269" fill="#fff"/>
        <path id="Trazado_134716" data-name="Trazado 134716" d="M111.85,67.837a.418.418,0,0,0-.072.007.485.485,0,0,0-.313.315,1.565,1.565,0,0,1-.195.38l-.021.019a.111.111,0,0,0-.021.168.226.226,0,0,0-.174.116.12.12,0,0,0-.01.061c.009.052.068.072.138.078.023,0,.048,0,.072,0l.068,0h.08l.057,0,.179,0c.071,0,.147,0,.214,0,.051,0,.1,0,.131,0s.07.006.072.014l-.031.014a.472.472,0,0,0-.175.151.2.2,0,0,0,.1.025.282.282,0,0,0,.174-.087l.015-.013a.249.249,0,0,1,.155-.074.145.145,0,0,1,.035,0c-.018.176-.057.171.148.237a.233.233,0,0,0,.07.013c.078,0,.082-.074.108-.166.056-.195-.2-.163-.244-.209-.006-.057.03-.075.069-.091s.1-.035.075-.115a.084.084,0,0,0-.045-.014.149.149,0,0,0-.06.018.149.149,0,0,1-.064.018h-.017c0-.1.16-.221-.029-.264a.364.364,0,0,0-.084-.009.5.5,0,0,0-.1.011.552.552,0,0,1-.089.01.25.25,0,0,1-.174-.077c.237-.07-.06-.084-.157-.084H111.7c.057-.081.191-.234.254-.345a.255.255,0,0,0,.034-.088.5.5,0,0,0-.14-.021" fill="#fff"/>
        <rect id="Rectángulo_38481" data-name="Rectángulo 38481" width="19.554" height="1.657" transform="translate(117.617 59.219)" fill="#fff"/>
        <path id="Trazado_134717" data-name="Trazado 134717" d="M137.256,60.961H117.531V59.133h19.725ZM117.7,60.79h19.383V59.3H117.7Z" fill="#6787b2"/>
        <rect id="Rectángulo_38482" data-name="Rectángulo 38482" width="19.554" height="1.657" transform="translate(117.617 64.448)" fill="#fff"/>
        <path id="Trazado_134718" data-name="Trazado 134718" d="M137.256,66.19H117.531V64.362h19.725ZM117.7,66.019h19.383V64.533H117.7Z" fill="#6787b2"/>
        <rect id="Rectángulo_38483" data-name="Rectángulo 38483" width="11.85" height="6.818" transform="translate(126.185 82.203)" fill="#e8edbc"/>
        <g id="Grupo_159094" data-name="Grupo 159094" opacity="0.43">
          <g id="Grupo_159093" data-name="Grupo 159093">
            <g id="Grupo_159092" data-name="Grupo 159092" clip-path="url(#clip-path-7)">
              <path id="Trazado_134719" data-name="Trazado 134719" d="M114.841,92.286H99.923l-23-31.022V57.381a2.213,2.213,0,0,1,2.212-2.211h8.189Z" fill="#fff"/>
            </g>
          </g>
        </g>
        <g id="Grupo_159097" data-name="Grupo 159097" opacity="0.43">
          <g id="Grupo_159096" data-name="Grupo 159096">
            <g id="Grupo_159095" data-name="Grupo 159095" clip-path="url(#clip-path-8)">
              <path id="Trazado_134720" data-name="Trazado 134720" d="M123.254,92.286H118.4L90.89,55.17h4.85Z" fill="#fff"/>
            </g>
          </g>
        </g>
        <g id="Grupo_159100" data-name="Grupo 159100" opacity="0.43">
          <g id="Grupo_159099" data-name="Grupo 159099">
            <g id="Grupo_159098" data-name="Grupo 159098" clip-path="url(#clip-path-9)">
              <path id="Trazado_134721" data-name="Trazado 134721" d="M141.921,86.71v3.366a2.2,2.2,0,0,1-.989,1.841L113.69,55.171h4.85Z" fill="#fff"/>
            </g>
          </g>
        </g>
        <path id="Trazado_134722" data-name="Trazado 134722" d="M135.244,141.933h43.048a4.7,4.7,0,0,0,4.7-4.7V100.045a4.7,4.7,0,0,0-4.7-4.7H135.244a4.7,4.7,0,0,0-4.7,4.7v37.191a4.7,4.7,0,0,0,4.7,4.7" fill="#e8edbc"/>
        <path id="Trazado_134723" data-name="Trazado 134723" d="M178.292,142.018H135.244a4.788,4.788,0,0,1-4.783-4.782V100.045a4.789,4.789,0,0,1,4.783-4.783h43.048a4.788,4.788,0,0,1,4.782,4.783v37.191a4.787,4.787,0,0,1-4.782,4.782M135.244,95.433a4.617,4.617,0,0,0-4.612,4.612v37.191a4.616,4.616,0,0,0,4.612,4.611h43.048a4.616,4.616,0,0,0,4.611-4.611V100.045a4.616,4.616,0,0,0-4.611-4.612Z" fill="#6787b2"/>
        <path id="Trazado_134724" data-name="Trazado 134724" d="M136.15,113.912h41.235a1.952,1.952,0,0,0,1.952-1.952V110.4a1.951,1.951,0,0,0-1.952-1.951H136.15A1.951,1.951,0,0,0,134.2,110.4v1.563a1.952,1.952,0,0,0,1.952,1.952" fill="#6787b2"/>
        <path id="Trazado_134725" data-name="Trazado 134725" d="M177.385,114H136.15a2.039,2.039,0,0,1-2.037-2.037V110.4a2.04,2.04,0,0,1,2.037-2.037h41.235a2.04,2.04,0,0,1,2.038,2.037v1.563A2.039,2.039,0,0,1,177.385,114m-41.235-5.466a1.868,1.868,0,0,0-1.866,1.866v1.563a1.869,1.869,0,0,0,1.866,1.867h41.235a1.87,1.87,0,0,0,1.867-1.867V110.4a1.869,1.869,0,0,0-1.867-1.866Z" fill="#6787b2"/>
        <path id="Trazado_134726" data-name="Trazado 134726" d="M136.15,124.625h41.235a1.952,1.952,0,0,0,1.952-1.952V121.11a1.951,1.951,0,0,0-1.952-1.951H136.15a1.951,1.951,0,0,0-1.952,1.951v1.563a1.952,1.952,0,0,0,1.952,1.952" fill="#6787b2"/>
        <path id="Trazado_134727" data-name="Trazado 134727" d="M177.385,124.71H136.15a2.039,2.039,0,0,1-2.037-2.037V121.11a2.04,2.04,0,0,1,2.037-2.037h41.235a2.04,2.04,0,0,1,2.038,2.037v1.563a2.039,2.039,0,0,1-2.038,2.037m-41.235-5.466a1.868,1.868,0,0,0-1.866,1.866v1.563a1.869,1.869,0,0,0,1.866,1.867h41.235a1.87,1.87,0,0,0,1.867-1.867V121.11a1.869,1.869,0,0,0-1.867-1.866Z" fill="#6787b2"/>
        <path id="Trazado_134728" data-name="Trazado 134728" d="M149.542,136.921h14.451a1.951,1.951,0,0,0,1.952-1.952v-3.29a1.951,1.951,0,0,0-1.952-1.951H149.542a1.952,1.952,0,0,0-1.953,1.951v3.29a1.953,1.953,0,0,0,1.953,1.952" fill="#6787b2"/>
        <path id="Trazado_134729" data-name="Trazado 134729" d="M163.994,137.006H149.542a2.04,2.04,0,0,1-2.037-2.037v-3.29a2.04,2.04,0,0,1,2.037-2.037h14.452a2.039,2.039,0,0,1,2.037,2.037v3.29a2.039,2.039,0,0,1-2.037,2.037m-14.452-7.193a1.868,1.868,0,0,0-1.866,1.866v3.29a1.868,1.868,0,0,0,1.866,1.866h14.452a1.868,1.868,0,0,0,1.866-1.866v-3.29a1.868,1.868,0,0,0-1.866-1.866Z" fill="#6787b2"/>
        <path id="Trazado_134730" data-name="Trazado 134730" d="M134.722,106.035h.171v1.182h.566v.143h-.737Z" fill="#064679"/>
        <path id="Trazado_134731" data-name="Trazado 134731" d="M136.478,106.876a.466.466,0,0,1-.474.506.453.453,0,0,1-.456-.49.464.464,0,0,1,.472-.5.45.45,0,0,1,.458.489m-.755.01c0,.208.12.366.289.366s.289-.156.289-.37c0-.161-.081-.366-.285-.366s-.293.189-.293.37" fill="#064679"/>
        <path id="Trazado_134732" data-name="Trazado 134732" d="M137.516,106.408c0,.069-.008.146-.008.262v.553a.545.545,0,0,1-.136.434.5.5,0,0,1-.346.114.6.6,0,0,1-.316-.079l.043-.131a.539.539,0,0,0,.279.074c.177,0,.307-.092.307-.332V107.2h0a.34.34,0,0,1-.3.159.425.425,0,0,1-.4-.464.457.457,0,0,1,.429-.5.317.317,0,0,1,.3.165h0l.008-.144Zm-.179.376a.254.254,0,0,0-.252-.262c-.165,0-.283.14-.283.36,0,.187.1.342.281.342a.252.252,0,0,0,.24-.176.3.3,0,0,0,.014-.093Z" fill="#064679"/>
        <path id="Trazado_134733" data-name="Trazado 134733" d="M137.976,106.141a.107.107,0,0,1-.214,0,.105.105,0,0,1,.108-.108.1.1,0,0,1,.106.108m-.193.267h.173v.952h-.173Z" fill="#064679"/>
        <path id="Trazado_134734" data-name="Trazado 134734" d="M138.243,106.666c0-.1,0-.179-.008-.258h.154l.009.158h0a.35.35,0,0,1,.315-.179c.132,0,.336.078.336.4v.568h-.173v-.548c0-.154-.057-.282-.22-.282a.255.255,0,0,0-.244.258v.572h-.173Z" fill="#064679"/>
        <path id="Trazado_134735" data-name="Trazado 134735" d="M134.722,116.833a1.955,1.955,0,0,1,.328-.026.545.545,0,0,1,.372.111.354.354,0,0,1,.116.277.389.389,0,0,1-.1.283.551.551,0,0,1-.4.145.643.643,0,0,1-.138-.011v.531h-.171Zm.171.639a.566.566,0,0,0,.142.014c.206,0,.332-.1.332-.283s-.124-.26-.313-.26a.7.7,0,0,0-.161.014Z" fill="#064679"/>
        <path id="Trazado_134736" data-name="Trazado 134736" d="M136.239,118.143l-.014-.12h-.006a.355.355,0,0,1-.291.141.271.271,0,0,1-.291-.273c0-.23.2-.356.572-.354v-.02a.2.2,0,0,0-.216-.22.477.477,0,0,0-.248.071l-.039-.114a.588.588,0,0,1,.312-.085c.291,0,.362.2.362.39v.356a1.323,1.323,0,0,0,.016.228Zm-.026-.486c-.189,0-.4.03-.4.214a.154.154,0,0,0,.163.166.236.236,0,0,0,.23-.16.172.172,0,0,0,.01-.055Z" fill="#064679"/>
        <path id="Trazado_134737" data-name="Trazado 134737" d="M136.635,117.965a.459.459,0,0,0,.228.069c.126,0,.185-.063.185-.142s-.049-.128-.177-.175c-.171-.061-.252-.155-.252-.269a.294.294,0,0,1,.329-.279.47.47,0,0,1,.234.059l-.044.125a.374.374,0,0,0-.194-.055c-.1,0-.16.059-.16.13s.057.114.181.161c.165.063.25.146.25.288,0,.167-.13.285-.356.285a.546.546,0,0,1-.267-.065Z" fill="#064679"/>
        <path id="Trazado_134738" data-name="Trazado 134738" d="M137.414,117.965a.459.459,0,0,0,.228.069c.126,0,.185-.063.185-.142s-.049-.128-.177-.175c-.171-.061-.252-.155-.252-.269a.294.294,0,0,1,.329-.279.47.47,0,0,1,.234.059l-.044.125a.374.374,0,0,0-.194-.055c-.1,0-.16.059-.16.13s.057.114.181.161c.165.063.25.146.25.288,0,.167-.13.285-.356.285a.546.546,0,0,1-.267-.065Z" fill="#064679"/>
        <path id="Trazado_134739" data-name="Trazado 134739" d="M138.285,117.191l.126.484c.027.106.053.2.071.3h.005c.022-.1.054-.2.085-.3l.155-.486h.146l.147.476c.036.114.063.214.085.311h.006a2.768,2.768,0,0,1,.073-.309l.135-.478h.171l-.306.952h-.158l-.145-.455a3.109,3.109,0,0,1-.085-.312h0a2.76,2.76,0,0,1-.086.314l-.154.453H138.4l-.287-.952Z" fill="#064679"/>
        <path id="Trazado_134740" data-name="Trazado 134740" d="M140.5,117.658a.466.466,0,0,1-.474.506.453.453,0,0,1-.456-.49.464.464,0,0,1,.472-.505.45.45,0,0,1,.458.489m-.755.01c0,.208.12.366.289.366s.289-.156.289-.37c0-.161-.081-.366-.285-.366s-.293.189-.293.37" fill="#064679"/>
        <path id="Trazado_134741" data-name="Trazado 134741" d="M140.722,117.488c0-.112,0-.208-.008-.3h.152l.005.187h.008a.287.287,0,0,1,.264-.209.188.188,0,0,1,.049.006v.164a.255.255,0,0,0-.059-.006.243.243,0,0,0-.232.222.471.471,0,0,0-.008.08v.508h-.171Z" fill="#064679"/>
        <path id="Trazado_134742" data-name="Trazado 134742" d="M142.167,116.746V117.9c0,.084,0,.18.008.245h-.155l-.008-.165h0a.353.353,0,0,1-.325.187.434.434,0,0,1-.407-.484.456.456,0,0,1,.427-.511.32.32,0,0,1,.287.145h0v-.568Zm-.173.832a.3.3,0,0,0-.008-.073.254.254,0,0,0-.25-.2c-.178,0-.285.157-.285.367,0,.193.1.352.282.352a.259.259,0,0,0,.253-.206.3.3,0,0,0,.008-.075Z" fill="#064679"/>
        <rect id="Rectángulo_38487" data-name="Rectángulo 38487" width="0.223" height="1.796" transform="translate(136.383 110.84)" fill="#fff"/>
        <path id="Trazado_134743" data-name="Trazado 134743" d="M138.087,112.013a.6.6,0,0,1-.609.65.581.581,0,0,1-.587-.629.6.6,0,0,1,.607-.65.579.579,0,0,1,.589.629m-.971.013c0,.268.154.47.372.47s.372-.2.372-.475c0-.207-.1-.47-.367-.47s-.377.242-.377.475" fill="#fff"/>
        <path id="Trazado_134744" data-name="Trazado 134744" d="M138.367,111.793c0-.144,0-.268-.01-.382h.2l.007.24h.01a.368.368,0,0,1,.339-.268.235.235,0,0,1,.063.008v.21a.325.325,0,0,0-.075-.008.312.312,0,0,0-.3.286.632.632,0,0,0-.01.1v.652h-.22Z" fill="#fff"/>
        <path id="Trazado_134745" data-name="Trazado 134745" d="M139.293,112.064a.392.392,0,0,0,.419.425.808.808,0,0,0,.339-.063l.038.159a.978.978,0,0,1-.407.076.568.568,0,0,1-.6-.617.6.6,0,0,1,.574-.66.519.519,0,0,1,.506.577.725.725,0,0,1-.008.1Zm.652-.159a.317.317,0,0,0-.309-.362.369.369,0,0,0-.341.362Z" fill="#fff"/>
        <path id="Trazado_134746" data-name="Trazado 134746" d="M140.436,111.743c0-.126,0-.23-.01-.331h.2l.01.2h.007a.423.423,0,0,1,.385-.225.361.361,0,0,1,.346.245h0a.5.5,0,0,1,.137-.159.414.414,0,0,1,.27-.086c.162,0,.4.106.4.531v.721h-.217v-.693c0-.235-.086-.377-.266-.377a.289.289,0,0,0-.263.2.377.377,0,0,0-.017.112v.756H141.2V111.9c0-.194-.086-.336-.255-.336a.3.3,0,0,0-.276.223.314.314,0,0,0-.018.108v.739h-.217Z" fill="#fff"/>
        <path id="Trazado_134747" data-name="Trazado 134747" d="M143.328,111.068a.138.138,0,0,1-.276,0,.135.135,0,0,1,.139-.139.132.132,0,0,1,.137.139m-.248.344h.223v1.224h-.223Z" fill="#fff"/>
        <path id="Trazado_134748" data-name="Trazado 134748" d="M143.672,111.811c0-.157,0-.283-.01-.4h.2l.01.21h.005a.482.482,0,0,1,.435-.238.554.554,0,0,1,.518.622.579.579,0,0,1-.556.658.43.43,0,0,1-.377-.192h-.005v.665h-.22Zm.22.326a.508.508,0,0,0,.01.091.345.345,0,0,0,.334.261c.235,0,.372-.193.372-.473,0-.246-.129-.456-.365-.456a.356.356,0,0,0-.336.276.393.393,0,0,0-.015.091Z" fill="#fff"/>
        <path id="Trazado_134749" data-name="Trazado 134749" d="M145.08,112.408a.583.583,0,0,0,.293.089c.162,0,.238-.081.238-.183s-.063-.164-.227-.225c-.221-.078-.324-.2-.324-.346a.377.377,0,0,1,.422-.359.6.6,0,0,1,.3.076l-.056.162a.468.468,0,0,0-.25-.071c-.131,0-.205.076-.205.167s.074.146.233.207c.212.081.321.187.321.369,0,.215-.167.367-.458.367a.694.694,0,0,1-.344-.084Z" fill="#fff"/>
        <path id="Trazado_134750" data-name="Trazado 134750" d="M147.136,112.3c0,.126,0,.238.01.334h-.2l-.013-.2h-.005a.459.459,0,0,1-.4.228c-.193,0-.423-.107-.423-.536v-.716h.223v.678c0,.232.071.389.273.389a.312.312,0,0,0,.313-.316v-.751h.223Z" fill="#fff"/>
        <path id="Trazado_134751" data-name="Trazado 134751" d="M147.505,111.743c0-.126,0-.23-.011-.331h.195l.01.2h.007a.423.423,0,0,1,.385-.225.363.363,0,0,1,.347.245h0a.5.5,0,0,1,.137-.159.414.414,0,0,1,.27-.086c.162,0,.4.106.4.531v.721h-.216v-.693c0-.235-.087-.377-.267-.377a.289.289,0,0,0-.263.2.376.376,0,0,0-.017.112v.756h-.218V111.9c0-.194-.086-.336-.255-.336a.3.3,0,0,0-.276.223.314.314,0,0,0-.017.108v.739h-.217Z" fill="#fff"/>
        <path id="Trazado_134752" data-name="Trazado 134752" d="M151.289,112.8a.915.915,0,0,1-.45.1.753.753,0,0,1-.766-.789.925.925,0,0,1,.923-.972.7.7,0,0,1,.736.731c0,.38-.213.6-.45.6a.187.187,0,0,1-.188-.222h-.01a.4.4,0,0,1-.356.222.286.286,0,0,1-.273-.318.6.6,0,0,1,.6-.6.666.666,0,0,1,.27.053l-.085.458c-.038.192-.008.281.075.283.129,0,.273-.169.273-.462a.579.579,0,0,0-.611-.63.776.776,0,0,0-.759.839.631.631,0,0,0,.65.683.792.792,0,0,0,.382-.088Zm-.139-1.092a.417.417,0,0,0-.126-.018.434.434,0,0,0-.4.455c0,.112.055.193.166.193.147,0,.281-.187.309-.344Z" fill="#fff"/>
        <path id="Trazado_134753" data-name="Trazado 134753" d="M152.673,112.064a.392.392,0,0,0,.419.425.808.808,0,0,0,.339-.063l.038.159a.977.977,0,0,1-.407.076.568.568,0,0,1-.6-.617.6.6,0,0,1,.574-.66.519.519,0,0,1,.506.577.726.726,0,0,1-.008.1Zm.652-.159a.317.317,0,0,0-.309-.362.369.369,0,0,0-.341.362Z" fill="#fff"/>
        <path id="Trazado_134754" data-name="Trazado 134754" d="M153.815,111.743c0-.126,0-.23-.01-.331h.2l.01.2h.007a.423.423,0,0,1,.385-.225.361.361,0,0,1,.346.245h.005a.5.5,0,0,1,.137-.159.414.414,0,0,1,.27-.086c.162,0,.4.106.4.531v.721h-.217v-.693c0-.235-.086-.377-.266-.377a.289.289,0,0,0-.263.2.377.377,0,0,0-.017.112v.756h-.218V111.9c0-.194-.086-.336-.255-.336a.3.3,0,0,0-.276.223.314.314,0,0,0-.018.108v.739h-.217Z" fill="#fff"/>
        <path id="Trazado_134755" data-name="Trazado 134755" d="M156.6,112.636l-.018-.155h-.007a.458.458,0,0,1-.375.182.349.349,0,0,1-.374-.351c0-.3.263-.458.736-.455v-.026a.252.252,0,0,0-.278-.283.617.617,0,0,0-.319.091l-.05-.146a.755.755,0,0,1,.4-.109c.374,0,.465.255.465.5v.457a1.749,1.749,0,0,0,.02.294Zm-.033-.625c-.243-.005-.518.038-.518.276a.2.2,0,0,0,.209.212.3.3,0,0,0,.3-.205.222.222,0,0,0,.013-.071Z" fill="#fff"/>
        <path id="Trazado_134756" data-name="Trazado 134756" d="M157.39,111.068a.131.131,0,0,1-.142.136.133.133,0,0,1-.134-.136.135.135,0,0,1,.139-.139.132.132,0,0,1,.137.139m-.248.344h.223v1.224h-.223Z" fill="#fff"/>
        <rect id="Rectángulo_38488" data-name="Rectángulo 38488" width="0.223" height="1.796" transform="translate(157.734 110.84)" fill="#fff"/>
        <path id="Trazado_134757" data-name="Trazado 134757" d="M158.252,112.5a.149.149,0,0,1,.152-.159.159.159,0,0,1,0,.318.149.149,0,0,1-.149-.159" fill="#fff"/>
        <path id="Trazado_134758" data-name="Trazado 134758" d="M159.7,112.59a.824.824,0,0,1-.352.071.582.582,0,0,1-.609-.625.622.622,0,0,1,.658-.65.75.75,0,0,1,.308.063l-.051.172a.517.517,0,0,0-.257-.058.462.462,0,0,0-.008.921.629.629,0,0,0,.273-.061Z" fill="#fff"/>
        <path id="Trazado_134759" data-name="Trazado 134759" d="M161.053,112.013a.6.6,0,0,1-.609.65.581.581,0,0,1-.587-.629.6.6,0,0,1,.607-.65.579.579,0,0,1,.589.629m-.971.013c0,.268.154.47.372.47s.372-.2.372-.475c0-.207-.1-.47-.367-.47s-.377.242-.377.475" fill="#fff"/>
        <path id="Trazado_134760" data-name="Trazado 134760" d="M161.334,111.743c0-.126,0-.23-.01-.331h.195l.01.2h.007a.423.423,0,0,1,.385-.225.361.361,0,0,1,.346.245h.005a.5.5,0,0,1,.137-.159.414.414,0,0,1,.27-.086c.162,0,.4.106.4.531v.721h-.217v-.693c0-.235-.086-.377-.266-.377a.289.289,0,0,0-.263.2.376.376,0,0,0-.017.112v.756H162.1V111.9c0-.194-.086-.336-.255-.336a.3.3,0,0,0-.276.223.314.314,0,0,0-.018.108v.739h-.217Z" fill="#fff"/>
        <path id="Trazado_134761" data-name="Trazado 134761" d="M137.03,122.965l-.24.316v0l.382-.05v.172l-.382-.046v0l.243.3-.16.091-.152-.354h-.005l-.164.356-.144-.091.24-.308v0l-.374.048v-.172l.372.048v0l-.238-.309.154-.088.157.351h0l.154-.354Z" fill="#fff"/>
        <path id="Trazado_134762" data-name="Trazado 134762" d="M138.08,122.965l-.24.316v0l.382-.05v.172l-.382-.046v0l.243.3-.16.091-.152-.354h-.005l-.164.356-.144-.091.24-.308v0l-.374.048v-.172l.372.048v0l-.238-.309.154-.088.157.351h0l.154-.354Z" fill="#fff"/>
        <path id="Trazado_134763" data-name="Trazado 134763" d="M139.129,122.965l-.24.316v0l.382-.05v.172l-.382-.046v0l.243.3-.16.091-.152-.354h-.005l-.164.356-.144-.091.24-.308v0l-.374.048v-.172l.372.048v0l-.238-.309.154-.088.157.351h0l.154-.354Z" fill="#fff"/>
        <path id="Trazado_134764" data-name="Trazado 134764" d="M140.178,122.965l-.24.316v0l.382-.05v.172l-.382-.046v0l.243.3-.16.091-.152-.354h-.005l-.164.356-.144-.091.24-.308v0l-.374.048v-.172l.372.048v0l-.238-.309.154-.088.157.351h0l.154-.354Z" fill="#fff"/>
        <path id="Trazado_134765" data-name="Trazado 134765" d="M141.227,122.965l-.24.316v0l.382-.05v.172l-.382-.046v0l.243.3-.16.091-.152-.354h-.005l-.164.356-.144-.091.24-.308v0l-.374.048v-.172l.372.048v0l-.238-.309.154-.088.157.351h0l.154-.354Z" fill="#fff"/>
        <path id="Trazado_134766" data-name="Trazado 134766" d="M142.276,122.965l-.24.316v0l.382-.05v.172l-.382-.046v0l.243.3-.16.091-.152-.354h-.005l-.164.356-.144-.091.24-.308v0l-.374.048v-.172l.372.048v0l-.238-.309.154-.088.157.351h0l.154-.354Z" fill="#fff"/>
        <path id="Trazado_134767" data-name="Trazado 134767" d="M143.326,122.965l-.24.316v0l.382-.05v.172l-.382-.046v0l.243.3-.16.091-.152-.354h-.005l-.164.356-.144-.091.24-.308v0l-.374.048v-.172l.372.048v0l-.238-.309.154-.088.157.351h0l.154-.354Z" fill="#fff"/>
        <path id="Trazado_134768" data-name="Trazado 134768" d="M144.375,122.965l-.24.316v0l.382-.05v.172l-.382-.046v0l.243.3-.16.091-.152-.354h-.005l-.164.356-.144-.091.24-.308v0l-.374.048v-.172l.372.048v0l-.238-.309.154-.088.157.351h0l.154-.354Z" fill="#fff"/>
        <path id="Trazado_134769" data-name="Trazado 134769" d="M145.424,122.965l-.24.316v0l.382-.05v.172l-.382-.046v0l.243.3-.16.091-.152-.354h-.005l-.164.356-.144-.091.24-.308v0l-.374.048v-.172l.372.048v0l-.238-.309.154-.088.157.351h0l.154-.354Z" fill="#fff"/>
        <path id="Trazado_134770" data-name="Trazado 134770" d="M146.473,122.965l-.24.316v0l.382-.05v.172l-.382-.046v0l.243.3-.16.091-.152-.354h-.005l-.164.356-.144-.091.24-.308v0l-.374.048v-.172l.372.048v0l-.238-.309.154-.088.157.351h0l.154-.354Z" fill="#fff"/>
        <path id="Trazado_134771" data-name="Trazado 134771" d="M147.522,122.965l-.24.316v0l.382-.05v.172l-.382-.046v0l.243.3-.16.091-.152-.354h-.005l-.164.356-.144-.091.24-.308v0l-.374.048v-.172l.372.048v0l-.238-.309.154-.088.157.351h0l.154-.354Z" fill="#fff"/>
        <path id="Trazado_134772" data-name="Trazado 134772" d="M148.572,122.965l-.24.316v0l.382-.05v.172l-.382-.046v0l.243.3-.16.091-.152-.354h-.005l-.164.356-.144-.091.24-.308v0l-.374.048v-.172l.372.048v0l-.238-.309.154-.088.157.351h0l.154-.354Z" fill="#fff"/>
        <path id="Trazado_134773" data-name="Trazado 134773" d="M149.621,122.965l-.24.316v0l.382-.05v.172l-.382-.046v0l.243.3-.16.091-.152-.354h-.005l-.164.356-.144-.091.24-.308v0l-.374.048v-.172l.372.048v0L149,122.97l.154-.088.157.351h0l.154-.354Z" fill="#fff"/>
        <path id="Trazado_134774" data-name="Trazado 134774" d="M150.67,122.965l-.24.316v0l.382-.05v.172l-.382-.046v0l.243.3-.16.091-.152-.354h-.005l-.164.356-.144-.091.24-.308v0l-.374.048v-.172l.372.048v0l-.238-.309.154-.088.157.351h0l.154-.354Z" fill="#fff"/>
        <path id="Trazado_134775" data-name="Trazado 134775" d="M151.719,122.965l-.24.316v0l.382-.05v.172l-.382-.046v0l.243.3-.16.091-.152-.354h-.005l-.164.356-.144-.091.24-.308v0l-.374.048v-.172l.372.048v0l-.238-.309.154-.088.157.351h0l.154-.354Z" fill="#fff"/>
        <path id="Trazado_134776" data-name="Trazado 134776" d="M152.768,122.965l-.24.316v0l.382-.05v.172l-.382-.046v0l.243.3-.16.091-.152-.354h-.005l-.164.356-.144-.091.24-.308v0l-.374.048v-.172l.372.048v0l-.238-.309.154-.088.157.351h0l.154-.354Z" fill="#fff"/>
        <path id="Trazado_134777" data-name="Trazado 134777" d="M153.818,122.965l-.24.316v0l.382-.05v.172l-.382-.046v0l.243.3-.16.091-.152-.354H153.5l-.164.356-.144-.091.24-.308v0l-.374.048v-.172l.372.048v0l-.238-.309.154-.088.157.351h0l.154-.354Z" fill="#fff"/>
        <path id="Trazado_134778" data-name="Trazado 134778" d="M154.867,122.965l-.24.316v0l.382-.05v.172l-.382-.046v0l.243.3-.16.091-.152-.354h-.005l-.164.356-.144-.091.24-.308v0l-.374.048v-.172l.372.048v0l-.238-.309.154-.088.157.351h0l.154-.354Z" fill="#fff"/>
        <path id="Trazado_134779" data-name="Trazado 134779" d="M155.916,122.965l-.24.316v0l.382-.05v.172l-.382-.046v0l.243.3-.16.091-.152-.354H155.6l-.164.356-.144-.091.24-.308v0l-.374.048v-.172l.372.048v0l-.238-.309.154-.088.157.351h0l.154-.354Z" fill="#fff"/>
        <path id="Trazado_134780" data-name="Trazado 134780" d="M156.965,122.965l-.24.316v0l.382-.05v.172l-.382-.046v0l.243.3-.16.091-.152-.354h-.005l-.164.356-.144-.091.24-.308v0l-.374.048v-.172l.372.048v0l-.238-.309.154-.088.157.351h0l.154-.354Z" fill="#fff"/>
        <path id="Trazado_134781" data-name="Trazado 134781" d="M158.014,122.965l-.24.316v0l.382-.05v.172l-.382-.046v0l.243.3-.16.091-.152-.354H157.7l-.164.356-.144-.091.24-.308v0l-.374.048v-.172l.372.048v0l-.238-.309.154-.088.157.351h0l.154-.354Z" fill="#fff"/>
        <path id="Trazado_134782" data-name="Trazado 134782" d="M159.064,122.965l-.24.316v0l.382-.05v.172l-.382-.046v0l.243.3-.16.091-.152-.354h-.005l-.164.356-.144-.091.24-.308v0l-.374.048v-.172l.372.048v0l-.238-.309.154-.088.157.351h0l.154-.354Z" fill="#fff"/>
        <path id="Trazado_134783" data-name="Trazado 134783" d="M160.113,122.965l-.24.316v0l.382-.05v.172l-.382-.046v0l.243.3-.16.091-.152-.354H159.8l-.164.356-.144-.091.24-.308v0l-.374.048v-.172l.372.048v0l-.238-.309.154-.088.157.351h0l.154-.354Z" fill="#fff"/>
        <path id="Trazado_134784" data-name="Trazado 134784" d="M161.162,122.965l-.24.316v0l.382-.05v.172l-.382-.046v0l.243.3-.16.091-.152-.354h-.005l-.164.356-.144-.091.24-.308v0l-.374.048v-.172l.372.048v0l-.238-.309.154-.088.157.351h0l.154-.354Z" fill="#fff"/>
        <path id="Trazado_134785" data-name="Trazado 134785" d="M162.211,122.965l-.24.316v0l.382-.05v.172l-.382-.046v0l.243.3-.16.091-.152-.354H161.9l-.164.356-.144-.091.24-.308v0l-.374.048v-.172l.372.048v0l-.238-.309.154-.088.157.351h0l.154-.354Z" fill="#fff"/>
        <path id="Trazado_134786" data-name="Trazado 134786" d="M163.26,122.965l-.24.316v0l.382-.05v.172l-.382-.046v0l.243.3-.16.091-.152-.354h-.005l-.164.356-.144-.091.24-.308v0l-.374.048v-.172l.372.048v0l-.238-.309.154-.088.157.351h0l.154-.354Z" fill="#fff"/>
        <path id="Trazado_134787" data-name="Trazado 134787" d="M164.31,122.965l-.24.316v0l.382-.05v.172l-.382-.046v0l.243.3-.16.091-.152-.354H164l-.164.356-.144-.091.24-.308v0l-.374.048v-.172l.372.048v0l-.238-.309.154-.088.157.351h0l.154-.354Z" fill="#fff"/>
        <path id="Trazado_134788" data-name="Trazado 134788" d="M165.359,122.965l-.24.316v0l.382-.05v.172l-.382-.046v0l.243.3-.16.091-.152-.354h-.005l-.164.356-.144-.091.24-.308v0l-.374.048v-.172l.372.048v0l-.238-.309.154-.088.157.351h0l.154-.354Z" fill="#fff"/>
        <path id="Trazado_134789" data-name="Trazado 134789" d="M166.408,122.965l-.24.316v0l.382-.05v.172l-.382-.046v0l.243.3-.16.091-.152-.354h-.005l-.164.356-.144-.091.24-.308v0l-.374.048v-.172l.372.048v0l-.238-.309.154-.088.157.351h0l.154-.354Z" fill="#fff"/>
        <path id="Trazado_134790" data-name="Trazado 134790" d="M167.457,122.965l-.24.316v0l.382-.05v.172l-.382-.046v0l.243.3-.16.091-.152-.354h-.005l-.164.356-.144-.091.24-.308v0l-.374.048v-.172l.372.048v0l-.238-.309.154-.088.157.351h0l.154-.354Z" fill="#fff"/>
        <path id="Trazado_134791" data-name="Trazado 134791" d="M168.507,122.965l-.24.316v0l.382-.05v.172l-.382-.046v0l.243.3-.16.091-.152-.354h-.005l-.164.356-.144-.091.24-.308v0l-.374.048v-.172l.372.048v0l-.238-.309.154-.088.157.351h0l.154-.354Z" fill="#fff"/>
        <path id="Trazado_134792" data-name="Trazado 134792" d="M169.556,122.965l-.24.316v0l.382-.05v.172l-.382-.046v0l.243.3-.16.091-.152-.354h-.005l-.164.356-.144-.091.24-.308v0l-.374.048v-.172l.372.048v0l-.238-.309.154-.088.157.351h0l.154-.354Z" fill="#fff"/>
        <path id="Trazado_134793" data-name="Trazado 134793" d="M170.6,122.965l-.24.316v0l.382-.05v.172l-.382-.046v0l.243.3-.16.091-.152-.354h-.005l-.164.356-.144-.091.24-.308v0l-.374.048v-.172l.372.048v0l-.238-.309.154-.088.157.351h0l.154-.354Z" fill="#fff"/>
        <path id="Trazado_134794" data-name="Trazado 134794" d="M171.654,122.965l-.24.316v0l.382-.05v.172l-.382-.046v0l.243.3-.16.091-.152-.354h-.005l-.164.356-.144-.091.24-.308v0l-.374.048v-.172l.372.048v0l-.238-.309.154-.088.157.351h0l.154-.354Z" fill="#fff"/>
        <path id="Trazado_134795" data-name="Trazado 134795" d="M151.958,131.609h1.775c.864,0,1.445.481,1.445,1.229,0,.86-.661,1.256-1.472,1.256h-.64v1.345h-1.108Zm1.108,1.7h.458c.317,0,.542-.132.542-.452s-.227-.455-.539-.455h-.461Z" fill="#064679"/>
        <path id="Trazado_134796" data-name="Trazado 134796" d="M156.363,134.7l-.222.745h-1.093l1.21-3.83h1.453l1.258,3.83H157.8l-.232-.745Zm1-.832c-.18-.6-.327-1.137-.414-1.51h-.015c-.089.412-.235.959-.391,1.51Z" fill="#064679"/>
        <path id="Trazado_134797" data-name="Trazado 134797" d="M159.784,135.439v-1.327a.241.241,0,0,0-.039-.145l-1.311-2.358H159.7c.245.54.519,1.162.7,1.6.155-.419.478-1.106.7-1.6h1.17l-1.327,2.353a.245.245,0,0,0-.035.144v1.333Z" fill="#064679"/>
        <path id="Trazado_134798" data-name="Trazado 134798" d="M94.894,158.336a6.322,6.322,0,0,1-2.944.584c-2.231.694-2.736,3.133-3.748,3.966a14.627,14.627,0,0,0,8.1-1.1Z" fill="#f49c68"/>
        <path id="Trazado_134799" data-name="Trazado 134799" d="M91.125,155.681q.738,1.536,1.477,3.072a7.105,7.105,0,0,0-3.863,4.091c-.028.114-.056.228-.085.34l-3.408.956c-1.213.34-2.36,1.138-3.578,1.46a5.947,5.947,0,0,1-3.713-.094,5.544,5.544,0,0,1-2.708-2.548Z" fill="#6787b2"/>
        <path id="Trazado_134800" data-name="Trazado 134800" d="M75.248,162.958l15.878-7.276-.59-1.233L74.643,161.9Z" fill="#6787b2"/>
        <path id="Trazado_134801" data-name="Trazado 134801" d="M114.41,125.416a71.048,71.048,0,0,1,.208,9.609,23.742,23.742,0,0,1-2.357,9.257c-2.193.254-4.407.566-6.613.62.019-.069.039-.234.058-.3l2.407-13.533c.175-1.6.408-3.274.583-4.869a3.969,3.969,0,0,0,2.122-.311,15.907,15.907,0,0,1,3.6-.695c0,.109-.011.117,0,.225" fill="#f49c68"/>
        <path id="Trazado_134802" data-name="Trazado 134802" d="M97.13,113.742a3.573,3.573,0,0,0,2.642,1.911,5.843,5.843,0,0,0,3.594-.37,10.086,10.086,0,0,0,3.014-2.2,7.1,7.1,0,0,1-.893-1.172,9,9,0,0,1-1.014-2.42,13.32,13.32,0,0,1-.392-2.113,10.033,10.033,0,0,1-.01-1.9,6.789,6.789,0,0,1-6.153.316,39.941,39.941,0,0,0-.49,4.147c-.083,1.091-.147,2.168-.243,3.229-.017.191-.035.383-.055.573" fill="#f49c68"/>
        <path id="Trazado_134803" data-name="Trazado 134803" d="M97.5,108a4.181,4.181,0,0,0,1.417,1.548,4.37,4.37,0,0,0,1.5.457,15.387,15.387,0,0,0,4.134.1q-.1-.3-.18-.605c-.1-.363-.179-.726-.246-1.089a15.353,15.353,0,0,1-4.883.007,4.348,4.348,0,0,1-1.5-.457c-.077-.043-.222-.141-.222-.141s0,.021-.012.113c0,.014,0,.04-.007.062,0,0,0,.007,0,.01" fill="#f0836e"/>
        <path id="Trazado_134804" data-name="Trazado 134804" d="M106.461,92.01a5.219,5.219,0,0,1,.929,4.2c-.043.171-.479,1.525-.479,1.525a5.168,5.168,0,0,0-.383-1.222,6.764,6.764,0,0,1-2.273-2.15,14.449,14.449,0,0,1-1.428-2.81,3.628,3.628,0,0,1-.254-.831c-.036-.261-.072-.791.289-.782a3.754,3.754,0,0,1,1.009.209,5.159,5.159,0,0,1,1.805,1.007,4.9,4.9,0,0,1,.785.856" fill="#7d2345"/>
        <path id="Trazado_134805" data-name="Trazado 134805" d="M92.991,100.72c1.56,5.4,5.593,9.481,9.569,8.333s5.419-6.735,4.181-12.218c-1.365-6.049-6.206-9.025-10.181-7.877s-5.129,6.362-3.569,11.762" fill="#f49c68"/>
        <path id="Trazado_134806" data-name="Trazado 134806" d="M106.912,97.733s2.119-6.847-4.1-7.4a15.332,15.332,0,0,1-3.464,3.936,10.2,10.2,0,0,0-2.333,1.907,5.481,5.481,0,0,0-.882,2.8,14.266,14.266,0,0,0,.465,5.07,1.262,1.262,0,0,0-1.08-.522,3.7,3.7,0,0,0-1.257.322c.313.466.756.819,1.1,1.26a5.5,5.5,0,0,1,.849,2,5.289,5.289,0,0,1-2.289-.813,14.9,14.9,0,0,1-1.849-1.478c-1.245-1.11-1.719-2.792-3.024-3.805-1.255-.974-2.84-2.014-3.085-3.588a6.31,6.31,0,0,1,1.084-4.446,8.448,8.448,0,0,1,1.068-1.153,12.44,12.44,0,0,0,1.089-.908c.91-1.065.781-2.713,1.6-3.853a4.734,4.734,0,0,1,3.414-1.586A11.34,11.34,0,0,0,98,84.729c.844-.421,1.523-1.117,2.349-1.575a4.817,4.817,0,0,1,3.628-.407,4.733,4.733,0,0,1,2.383,1.59,5.205,5.205,0,0,1,.742,2.5,20.089,20.089,0,0,0,.1,3.119,17.794,17.794,0,0,0,1.086,2.35,4.654,4.654,0,0,1-1.376,5.427" fill="#7d2345"/>
        <path id="Trazado_134807" data-name="Trazado 134807" d="M96.146,98.989a14.373,14.373,0,0,0,.054,2.925,14.9,14.9,0,0,1,.169-2.051,5.542,5.542,0,0,1,1.1-2.717,10.317,10.317,0,0,1,2.508-1.709,24.06,24.06,0,0,0,4.027-3.82,7.234,7.234,0,0,0-1.308-1.232A15.021,15.021,0,0,1,99.3,94.3,9.994,9.994,0,0,0,97,96.2a5.485,5.485,0,0,0-.859,2.79" fill="#f0836e"/>
        <path id="Trazado_134808" data-name="Trazado 134808" d="M106.968,88.145a5.064,5.064,0,0,0-.06-4.164,4.569,4.569,0,0,0-3.59-2.321,4.283,4.283,0,0,0-2.933,1.089,7.959,7.959,0,0,0-1.873,2.511l.252.13a7.694,7.694,0,0,1,1.8-2.425,4.019,4.019,0,0,1,2.735-1.022,4.269,4.269,0,0,1,3.353,2.168,4.779,4.779,0,0,1,.049,3.928Z" fill="#7d2345"/>
        <path id="Trazado_134809" data-name="Trazado 134809" d="M90.019,100.589l.268-.092A2.421,2.421,0,0,0,88.3,99.174c-.183-.032-.371-.056-.553-.08a4.106,4.106,0,0,1-1.667-.457A2.565,2.565,0,0,1,85,96.931a5.526,5.526,0,0,1,.071-2.129,3.9,3.9,0,0,1,1.177-2.381,4.545,4.545,0,0,1,1.556-.669c.151-.043.3-.087.448-.133a2.642,2.642,0,0,0,1.813-1.365,3.083,3.083,0,0,0,.087-1.561,4.088,4.088,0,0,1-.025-1.119,2.586,2.586,0,0,1,1.731-1.84,7.885,7.885,0,0,1,2.711-.327l3.263-.016v-.284l-3.264.016a8.251,8.251,0,0,0-2.807.345,2.871,2.871,0,0,0-1.913,2.058,4.3,4.3,0,0,0,.024,1.2,2.84,2.84,0,0,1-.068,1.421,2.384,2.384,0,0,1-1.637,1.2c-.145.047-.293.089-.44.132a4.748,4.748,0,0,0-1.652.717,4.151,4.151,0,0,0-1.281,2.552,5.932,5.932,0,0,0-.071,2.237,2.845,2.845,0,0,0,1.216,1.892,4.389,4.389,0,0,0,1.779.5c.18.023.365.048.542.078.545.093,1.5.364,1.765,1.136" fill="#7d2345"/>
        <path id="Trazado_134810" data-name="Trazado 134810" d="M110.472,121.739c.289,7.929,1.753,16.46.862,24.344-10.2.524-20.552,1.056-30.344-1.851,4.2-8.369,9.919-14.442,12.3-22.685Z" fill="#90b193"/>
        <path id="Trazado_134811" data-name="Trazado 134811" d="M97.54,122.021a30.684,30.684,0,0,1-6.139,7.554,13.363,13.363,0,0,1-5.645-2.383,10.119,10.119,0,0,1-1.805-1.747,2.8,2.8,0,0,1-.829-2.677,2.935,2.935,0,0,1,.479-.908,33.446,33.446,0,0,1,5.157-5.829,33.786,33.786,0,0,1,6.5-4.568,6.322,6.322,0,0,1,1.778-.89c.462-.046.519.6.756.936a3.692,3.692,0,0,0,2.927,1.431c3.7.137,4.228-1.84,4.228-1.84s1.4.682,1.9.939c5.451,2.827,7.31,7.241,7.773,13.363-.778.29-1.841.649-2.6.984l-.575-3.966c.854,5.017.568,22.466-.028,28.09L99.55,152.228c-2.722.045-5.6-2.127-8.3-2.462l-5.343-4.355" fill="#e8edbc"/>
        <path id="Trazado_134812" data-name="Trazado 134812" d="M82.132,126.389q-.3.561-.571,1.137a34.707,34.707,0,0,0-1.412,3.446c-.414,1.18-.772,2.387-1.083,3.61a18.069,18.069,0,0,0-.628,3.825,7.967,7.967,0,0,0,.709,3.764,3.541,3.541,0,0,0,2.669,2.175c.695.027,1.393.2,2.091.257.75.058,1.5.073,2.253.087l18.719.355a16.479,16.479,0,0,1,1.023-4.937c-4.437.244-8.025.068-12.219-.008a18.828,18.828,0,0,1-5.283-.631c-1-.323-2.111-.831-2.329-1.792-.271-1.191,3.36-5.894,4.669-8.227A10.041,10.041,0,0,1,89,128.937a11.761,11.761,0,0,1-5.735-4.41l0,0s-.685,1.044-.863,1.365q-.138.248-.271.5" fill="#f49c68"/>
        <path id="Trazado_134813" data-name="Trazado 134813" d="M74.545,142.437a32.362,32.362,0,0,1,7.409,1.339c3.26.927,6.444,2.119,9.74,2.9,5.585,1.33,12.051,1.806,17.6.166,2.944-.87,5.728-2.211,8.646-3.164a16.459,16.459,0,0,1,9.054-.758,11.386,11.386,0,0,1-8.689,13.057c-4.487,1.022-8.632,2.207-13.136,3.152a33.889,33.889,0,0,1-7.758,1.011,22.5,22.5,0,0,1-8.316-2.015c-2.072-.9-3.933-2.1-6.021-2.948a46.252,46.252,0,0,1-6.269-3.006,19.423,19.423,0,0,1-6.767-6.336c-.382-.625-1.739-1.361-1.494-2.051.317-.9,2.438-1.206,3.385-1.293a19.208,19.208,0,0,1,2.616-.058" fill="#064679"/>
        <path id="Trazado_134814" data-name="Trazado 134814" d="M125.123,143.238a5.691,5.691,0,0,1,2.024-.347,4.225,4.225,0,0,1,2.787,1.1,5.091,5.091,0,0,1,1.326,2.83,7.946,7.946,0,0,1-.016,4.037,8.743,8.743,0,0,1-3.244,4.3,24.774,24.774,0,0,1-6.976,3.421,83.8,83.8,0,0,1-26.906,4.65,12.146,12.146,0,0,0-.008-2.807c-.008-.255-.61-3.513-.383-3.489,4.045.43,8.064-.776,11.953-1.969a43.07,43.07,0,0,0,7.188-2.682,30.147,30.147,0,0,0,5.518-3.8c1.61-1.354,3.05-3.034,4.777-4.218a8.538,8.538,0,0,1,1.96-1.02" fill="#064679"/>
        <path id="Trazado_134815" data-name="Trazado 134815" d="M119.428,144.406l-3.11,2.14a36.734,36.734,0,0,1-4.443,2.754c-1.989.986-3.889,1.916-5.89,2.879a51.255,51.255,0,0,1-5.794,2.431c-1.956.656-3.072,1.435-7.083-.094a44.67,44.67,0,0,1-8.323-4.078c-1.206-.741-10.606-6.347-10.68-6.511a16.742,16.742,0,0,0,4.63,5.149q.914.673,1.84,1.33c2.806,1.991,5.691,3.868,8.605,5.7q2.187,1.371,4.392,2.714c.722.441,1.46.863,2.171,1.322a3.126,3.126,0,0,0,1.779.735,3.518,3.518,0,0,0,1.423-.465c8.195-4.055,16.538-8.214,23.074-14.608a1.641,1.641,0,0,0,.661-1.237,1.135,1.135,0,0,0-1.31-.844,5.273,5.273,0,0,0-1.942.687" fill="#064679"/>
        <path id="Trazado_134816" data-name="Trazado 134816" d="M97.733,143.892l3.225-17.486a2.306,2.306,0,0,1,2.066-1.933h23.761a1.33,1.33,0,0,1,1.1.556v.009c.019.027.037.06.054.089l.871,1.35-.717.16-3.183,17.254a2.3,2.3,0,0,1-2.066,1.927H99.086a1.48,1.48,0,0,1-1.353-1.926" fill="#6787b2"/>
        <path id="Trazado_134817" data-name="Trazado 134817" d="M122.847,145.94H99.086a1.444,1.444,0,0,1-1.13-.517,1.876,1.876,0,0,1-.343-1.553l3.224-17.485a2.436,2.436,0,0,1,2.186-2.034h23.762a1.445,1.445,0,0,1,1.2.607l.02.029V125l.026.043.013.022.964,1.494-.809.18-3.169,17.176a2.43,2.43,0,0,1-2.186,2.026M103.023,124.6a2.183,2.183,0,0,0-1.946,1.834l-3.225,17.485a1.64,1.64,0,0,0,.291,1.353,1.2,1.2,0,0,0,.943.43h23.761a2.18,2.18,0,0,0,1.947-1.827l3.2-17.334.625-.14-.793-1.23c-.012-.02-.023-.04-.036-.058l-.021-.036a1.2,1.2,0,0,0-.982-.477Z" fill="#6787b2"/>
        <path id="Trazado_134818" data-name="Trazado 134818" d="M85.654,144.327h14.69v2.927H84.109v-1.382a1.545,1.545,0,0,1,1.545-1.545" fill="#6787b2"/>
        <path id="Trazado_134819" data-name="Trazado 134819" d="M100.466,147.376H83.987v-1.505a1.669,1.669,0,0,1,1.667-1.666h14.812Zm-16.235-.244h15.991v-2.683H85.654a1.424,1.424,0,0,0-1.423,1.422Z" fill="#6787b2"/>
        <path id="Trazado_134820" data-name="Trazado 134820" d="M100.006,147.254h23.762a2.306,2.306,0,0,0,2.066-1.932l3.224-17.484a1.485,1.485,0,0,0-1.353-1.931H103.943a2.306,2.306,0,0,0-2.066,1.931l-3.224,17.484a1.485,1.485,0,0,0,1.353,1.932" fill="#e8edbc"/>
        <path id="Trazado_134821" data-name="Trazado 134821" d="M123.767,147.375H100.006a1.438,1.438,0,0,1-1.128-.517,1.885,1.885,0,0,1-.345-1.559l3.224-17.482a2.435,2.435,0,0,1,2.186-2.032h23.762a1.44,1.44,0,0,1,1.128.518,1.887,1.887,0,0,1,.345,1.558l-3.225,17.484a2.433,2.433,0,0,1-2.186,2.03m-19.824-21.347A2.183,2.183,0,0,0,102,127.861l-3.225,17.484a1.64,1.64,0,0,0,.293,1.356,1.2,1.2,0,0,0,.941.431h23.761a2.181,2.181,0,0,0,1.946-1.833l3.225-17.482a1.644,1.644,0,0,0-.293-1.359,1.2,1.2,0,0,0-.94-.43Z" fill="#6787b2"/>
        <path id="Trazado_134822" data-name="Trazado 134822" d="M111.858,135.251a2.382,2.382,0,1,0,3.26-1.561,2.571,2.571,0,0,0-3.26,1.561" fill="#6787b2"/>
        <path id="Trazado_134823" data-name="Trazado 134823" d="M102.806,158.336a6.322,6.322,0,0,0,2.944.584c2.231.694,2.736,3.133,3.748,3.966a14.627,14.627,0,0,1-8.1-1.1Z" fill="#f49c68"/>
        <path id="Trazado_134824" data-name="Trazado 134824" d="M106.575,155.681l-1.478,3.072a7.105,7.105,0,0,1,3.863,4.091c.028.114.056.228.085.34l3.408.956c1.213.34,2.36,1.138,3.578,1.46a5.947,5.947,0,0,0,3.713-.094,5.544,5.544,0,0,0,2.708-2.548Z" fill="#6787b2"/>
        <path id="Trazado_134825" data-name="Trazado 134825" d="M72.661,143.238a5.691,5.691,0,0,0-2.024-.347,4.225,4.225,0,0,0-2.787,1.1,5.091,5.091,0,0,0-1.326,2.83,7.947,7.947,0,0,0,.016,4.037,8.743,8.743,0,0,0,3.244,4.3,24.774,24.774,0,0,0,6.976,3.421,83.8,83.8,0,0,0,26.906,4.65,37.882,37.882,0,0,1,.438-5.4A37.03,37.03,0,0,1,92.227,156.1a32.917,32.917,0,0,1-8.251-4.179c-2.089-1.561-4.182-3.125-6.111-4.88a31.329,31.329,0,0,0-3.244-2.788,8.518,8.518,0,0,0-1.96-1.02" fill="#064679"/>
        <path id="Trazado_134826" data-name="Trazado 134826" d="M122.452,162.958l-15.878-7.276.59-1.233,15.893,7.453Z" fill="#6787b2"/>
        <path id="Trazado_134827" data-name="Trazado 134827" d="M168.51,57.983A9.5,9.5,0,0,1,178,67.477v10.9H159.016v-10.9a9.5,9.5,0,0,1,9.494-9.494m0-2.257h0a11.751,11.751,0,0,0-11.751,11.751V80.633h23.5V67.477A11.751,11.751,0,0,0,168.51,55.726" fill="#064679"/>
        <path id="Trazado_134828" data-name="Trazado 134828" d="M182.908,83.368a14.4,14.4,0,1,1-14.4-14.4,14.321,14.321,0,0,1,14.4,14.4" fill="#6787b2"/>
        <path id="Trazado_134829" data-name="Trazado 134829" d="M180.414,83.381A11.914,11.914,0,1,1,168.5,71.467a11.914,11.914,0,0,1,11.914,11.914" fill="#064679"/>
        <path id="Trazado_134830" data-name="Trazado 134830" d="M179.285,83.381A10.785,10.785,0,1,1,168.5,72.6a10.786,10.786,0,0,1,10.786,10.786" fill="#4c7bb1"/>
        <g id="Grupo_159105" data-name="Grupo 159105" opacity="0.25">
          <g id="Grupo_159104" data-name="Grupo 159104">
            <g id="Grupo_159103" data-name="Grupo 159103" clip-path="url(#clip-path-10)">
              <g id="Grupo_159102" data-name="Grupo 159102">
                <g id="Grupo_159101" data-name="Grupo 159101" clip-path="url(#clip-path-11)">
                  <rect id="Rectángulo_38489" data-name="Rectángulo 38489" width="26.233" height="22.67" transform="translate(156.675 68.969)" fill="url(#linear-gradient)"/>
                </g>
              </g>
            </g>
          </g>
        </g>
        <path id="Trazado_134832" data-name="Trazado 134832" d="M171.336,82.139a2.763,2.763,0,0,0-2.84-2.679,2.719,2.719,0,0,0-2.789,2.679,2.476,2.476,0,0,0,1.365,2.261v2.373a.5.5,0,0,0,.567.542h1.752c.368,0,.672-.195.672-.542v-2.4a2.375,2.375,0,0,0,1.273-2.236" fill="#064679"/>
        <path id="Trazado_134833" data-name="Trazado 134833" d="M93.864,18.15,77.086,24.933V41.751s.99,11.712,16.778,18.214c15.788-6.5,16.778-18.214,16.778-18.214V24.933Z" fill="#064679"/>
        <path id="Trazado_134834" data-name="Trazado 134834" d="M93.864,22.423l-13.35,5.4V41.2s.788,9.319,13.35,14.493C106.425,50.519,107.213,41.2,107.213,41.2V27.819Z" fill="#064679"/>
        <path id="Trazado_134835" data-name="Trazado 134835" d="M87.338,35.3c.028-3.642,2.331-6.794,5.436-7.3,2.637-.427,4.712.739,6.237,3.239a8.285,8.285,0,0,1,1.168,4.063c.015.4.021.791.021,1.187,0,.231-.175.361-.333.261a.3.3,0,0,1-.119-.294,12.19,12.19,0,0,0-.109-2.066c-.369-2.95-2.544-5.473-5.084-5.9-3.1-.516-6.056,1.943-6.634,5.511a8.1,8.1,0,0,0-.011,2.539c.028.185-.037.313-.174.343s-.248-.064-.268-.247c-.048-.447-.087-.9-.13-1.342" fill="#4c7bb1"/>
        <path id="Trazado_134836" data-name="Trazado 134836" d="M93.731,30.856a4.021,4.021,0,0,1,3.725,3.663q.049.363.09.728c.02.175-.054.3-.186.32s-.233-.077-.261-.257a9.5,9.5,0,0,0-.214-1.264,3.31,3.31,0,0,0-2.709-2.6c-1.947-.3-3.6,1.289-3.794,3.572-.017.193-.116.307-.252.289s-.214-.144-.2-.326a4.294,4.294,0,0,1,3-4c.264-.068.537-.087.806-.129" fill="#4c7bb1"/>
        <path id="Trazado_134837" data-name="Trazado 134837" d="M98.561,36.771a23.818,23.818,0,0,1-.252,3.568c0,.019-.007.039-.011.058-.034.171-.138.264-.266.236s-.2-.158-.177-.331c.045-.351.1-.7.137-1.054a17.217,17.217,0,0,0-.067-4.636,5.5,5.5,0,0,0-1.167-2.747,4.025,4.025,0,0,0-2.609-1.445.258.258,0,0,1-.254-.288.242.242,0,0,1,.293-.231,4.814,4.814,0,0,1,4.047,3.969,13.044,13.044,0,0,1,.326,2.9" fill="#4c7bb1"/>
        <path id="Trazado_134838" data-name="Trazado 134838" d="M93.4,29.888a.246.246,0,0,1,.242.254.251.251,0,0,1-.242.271,3.877,3.877,0,0,0-1.421.425,5.237,5.237,0,0,0-2.523,4.653c.025.465.059.93.067,1.4A6.171,6.171,0,0,1,89,39.568a.477.477,0,0,1-.119.171.183.183,0,0,1-.263-.03.3.3,0,0,1-.043-.33c.114-.318.243-.631.331-.959a6.612,6.612,0,0,0,.145-2.115,7.752,7.752,0,0,1,.036-1.99,5.182,5.182,0,0,1,4.039-4.4c.09-.014.181-.021.271-.031" fill="#4c7bb1"/>
        <path id="Trazado_134839" data-name="Trazado 134839" d="M97.842,31a.316.316,0,0,1-.054.386l-.024.019c-.086.061-.176.022-.247-.057-.137-.153-.266-.316-.408-.462a4.6,4.6,0,0,0-7,.257.34.34,0,0,1-.218.129.244.244,0,0,1-.185-.145.386.386,0,0,1,.04-.285,4.888,4.888,0,0,1,.481-.523,5.024,5.024,0,0,1,7.566.611.5.5,0,0,1,.046.07" fill="#4c7bb1"/>
        <path id="Trazado_134840" data-name="Trazado 134840" d="M95.373,36.868c0-.566.026-1.134-.005-1.7a1.652,1.652,0,0,0-2.264-1.64,1.633,1.633,0,0,0-.978,1.656c.013.174-.079.291-.211.3s-.223-.1-.233-.277a2.139,2.139,0,0,1,.735-1.836,2.048,2.048,0,0,1,3.368,1.449,2.1,2.1,0,0,1,.04.387c0,1.137-.013,2.274-.021,3.411,0,.015,0,.03,0,.045-.013.163-.106.267-.234.261s-.215-.117-.212-.283c.008-.456.02-.911.03-1.367,0-.135,0-.271,0-.406h-.014" fill="#4c7bb1"/>
        <path id="Trazado_134841" data-name="Trazado 134841" d="M90.7,38.719a6.6,6.6,0,0,0,.079-.684c.015-.71.023-1.421.017-2.131a5.375,5.375,0,0,1,.162-1.721,3.135,3.135,0,0,1,2.133-2.218.7.7,0,0,1,.089-.018.228.228,0,0,1,.261.206.265.265,0,0,1-.175.3c-.121.04-.244.07-.361.119a2.9,2.9,0,0,0-1.66,2.728c0,.686.035,1.372.02,2.058-.01.468-.075.935-.123,1.4a.224.224,0,0,1-.239.219.246.246,0,0,1-.2-.264" fill="#4c7bb1"/>
        <path id="Trazado_134842" data-name="Trazado 134842" d="M88.25,38.652a.252.252,0,0,1-.268-.339,6.468,6.468,0,0,0,.212-2.519,7.238,7.238,0,0,1,1.045-4.26l.015-.024c.12-.191.248-.24.367-.142s.119.254,0,.446a6.544,6.544,0,0,0-.984,3.7c.02.659.014,1.322-.023,1.98a4.808,4.808,0,0,1-.211.969c-.024.087-.12.147-.154.186" fill="#4c7bb1"/>
        <path id="Trazado_134843" data-name="Trazado 134843" d="M99.422,37.122c-.016.444-.033.919-.05,1.394,0,.03,0,.06-.006.089-.02.187-.115.294-.247.28s-.209-.136-.2-.323c.017-.61.048-1.221.043-1.831a13.826,13.826,0,0,0-.286-2.916,6.267,6.267,0,0,0-.754-1.882.314.314,0,0,1-.018-.37c.1-.141.274-.117.381.06a6.731,6.731,0,0,1,.757,1.783,11.259,11.259,0,0,1,.333,2.288c.025.465.034.93.051,1.428" fill="#4c7bb1"/>
        <path id="Trazado_134844" data-name="Trazado 134844" d="M94.989,37.119a16.387,16.387,0,0,1-.515,4.042c-.126.454-.32.883-.485,1.323a.566.566,0,0,1-.061.114.2.2,0,0,1-.3.076.277.277,0,0,1-.079-.353,10.67,10.67,0,0,0,.929-4.148c.048-.7.041-1.411.056-2.116,0-.147.046-.255.175-.294a.19.19,0,0,1,.242.118.5.5,0,0,1,.035.2c0,.345,0,.691,0,1.036" fill="#4c7bb1"/>
        <path id="Trazado_134845" data-name="Trazado 134845" d="M93.1,38.083c0,.186-.1.294-.241.284s-.22-.133-.208-.318a11.7,11.7,0,0,0-.091-2.291,2.832,2.832,0,0,1,0-.791,1.257,1.257,0,0,1,1.2-1.082,1.347,1.347,0,0,1,1.209,1.36c.008.194-.065.31-.2.325s-.225-.084-.246-.276c-.069-.629-.508-1.008-.987-.851a.819.819,0,0,0-.55.826c.011.379.068.756.1,1.133.023.3.034.61.05.914,0,.28-.028.513-.034.767" fill="#4c7bb1"/>
        <path id="Trazado_134846" data-name="Trazado 134846" d="M96.316,36.134a7.621,7.621,0,0,0-.231-1.823,2.434,2.434,0,0,0-1.979-1.88c-.056-.011-.112-.012-.167-.025a.252.252,0,0,1-.181-.285c.013-.131.1-.237.22-.224a2.81,2.81,0,0,1,.56.106,3.075,3.075,0,0,1,2.09,2.645,10.866,10.866,0,0,1,.134,1.958c0,.179-.087.289-.219.292s-.224-.112-.227-.3c0-.08,0-.161,0-.241Z" fill="#4c7bb1"/>
        <path id="Trazado_134847" data-name="Trazado 134847" d="M92.184,37a10.881,10.881,0,0,1-.431,3.338c-.168.5-.372.98-.566,1.466-.07.174-.207.227-.328.148a.292.292,0,0,1-.068-.393,9.569,9.569,0,0,0,.784-2.408,15.529,15.529,0,0,0,.167-2.753c0-.085-.007-.17,0-.255a.244.244,0,0,1,.217-.265.224.224,0,0,1,.226.236c.01.3,0,.591,0,.886" fill="#4c7bb1"/>
        <path id="Trazado_134848" data-name="Trazado 134848" d="M97.64,37.7a19.76,19.76,0,0,1-.311,3.423,2.847,2.847,0,0,1-.074.3.21.21,0,0,1-.274.153.258.258,0,0,1-.151-.307,20.014,20.014,0,0,0,.348-4.709c0-.031,0-.061,0-.091a.238.238,0,0,1,.214-.25.219.219,0,0,1,.228.23c.015.264.016.529.021.794,0,.131,0,.261,0,.454" fill="#4c7bb1"/>
        <path id="Trazado_134849" data-name="Trazado 134849" d="M90.364,36.9a6.65,6.65,0,0,1-.29,2.537c-.123.356-.275.7-.421,1.045-.076.177-.207.229-.328.152a.293.293,0,0,1-.067-.4,6.454,6.454,0,0,0,.675-3.248c-.013-.305-.012-.611-.015-.916,0-.2.086-.318.224-.315s.22.118.221.307c0,.28,0,.56,0,.84" fill="#4c7bb1"/>
        <path id="Trazado_134850" data-name="Trazado 134850" d="M96.719,38.038a20.251,20.251,0,0,1-.325,3.094c-.058.3-.137.589-.215.88-.049.183-.178.26-.306.2s-.171-.2-.119-.375a13.9,13.9,0,0,0,.463-2.913c.032-.439.046-.879.07-1.319.011-.194.1-.3.229-.3s.223.125.218.322c0,.135-.01.27-.015.4" fill="#4c7bb1"/>
        <path id="Trazado_134851" data-name="Trazado 134851" d="M93.015,39.058A8.024,8.024,0,0,1,92,42.24a.209.209,0,0,1-.319.076.283.283,0,0,1-.051-.372A7.555,7.555,0,0,0,92.568,39c.02-.16.127-.258.25-.24a.263.263,0,0,1,.2.3" fill="#4c7bb1"/>
        <path id="Trazado_134852" data-name="Trazado 134852" d="M94.042,37.778a16.927,16.927,0,0,1-.317,2.594c0,.025-.012.048-.018.072-.042.167-.154.252-.278.214a.274.274,0,0,1-.158-.343c.042-.235.1-.467.128-.7.074-.678.136-1.359.2-2.039,0-.034,0-.07.005-.1.016-.15.114-.251.235-.243a.25.25,0,0,1,.214.27c0,.094-.009.189-.014.284" fill="#4c7bb1"/>
        <path id="Trazado_134853" data-name="Trazado 134853" d="M95.749,39.6c-.061.323-.1.652-.186.967-.161.611-.343,1.216-.523,1.821-.057.188-.184.253-.314.191s-.167-.213-.1-.393a12.713,12.713,0,0,0,.663-2.631c.023-.166.117-.254.25-.239a.266.266,0,0,1,.211.284" fill="#4c7bb1"/>
        <path id="Trazado_134854" data-name="Trazado 134854" d="M90.2,41.356a.264.264,0,0,1-.255-.381l.564-1.414a.216.216,0,0,1,.276-.153.254.254,0,0,1,.149.307,2.474,2.474,0,0,1-.114.382c-.15.366-.3.73-.464,1.088a.633.633,0,0,1-.156.171" fill="#4c7bb1"/>
        <path id="Trazado_134855" data-name="Trazado 134855" d="M93.5,41.234a.578.578,0,0,1-.023.1c-.154.374-.3.751-.466,1.119-.078.177-.216.218-.333.135s-.129-.234-.046-.42c.149-.332.286-.672.421-1.011.066-.165.167-.239.292-.189a.258.258,0,0,1,.155.268" fill="#4c7bb1"/>
        <path id="Trazado_134856" data-name="Trazado 134856" d="M93.19,43.326h-.1a5.6,5.6,0,0,1-2.038-.355,8.057,8.057,0,0,1-3.316-3.215A.223.223,0,1,1,88.1,39.5a7.733,7.733,0,0,0,3.114,3.053,5.166,5.166,0,0,0,1.877.323,7.581,7.581,0,0,0,4.136-1.123,5.91,5.91,0,0,0,2.538-3.365.224.224,0,1,1,.432.116,6.363,6.363,0,0,1-2.729,3.626,7.9,7.9,0,0,1-4.279,1.194" fill="#4c7bb1"/>
        <path id="Trazado_134857" data-name="Trazado 134857" d="M91.364,43.977h-.018a4.406,4.406,0,0,1-3.751-2.8.224.224,0,1,1,.417-.161,3.962,3.962,0,0,0,3.37,2.518.223.223,0,0,1-.018.446" fill="#4c7bb1"/>
        <path id="Trazado_134858" data-name="Trazado 134858" d="M93.437,44.164a7.534,7.534,0,0,1-1.5-.15.223.223,0,1,1,.089-.438,7.2,7.2,0,0,0,4.127-.389.224.224,0,1,1,.17.414,7.635,7.635,0,0,1-2.886.563" fill="#4c7bb1"/>
        <path id="Trazado_134859" data-name="Trazado 134859" d="M96.951,43.326a.223.223,0,0,1-.125-.409A8.258,8.258,0,0,0,100,40.02a.216.216,0,0,1,.315-.032.237.237,0,0,1,.032.315,9.417,9.417,0,0,1-3.27,2.985.223.223,0,0,1-.125.038" fill="#4c7bb1"/>
        <path id="Trazado_134860" data-name="Trazado 134860" d="M90.254,44.593a.216.216,0,0,1-.062-.009,4.288,4.288,0,0,1-1.975-1.228.223.223,0,1,1,.33-.3,3.852,3.852,0,0,0,1.769,1.1.223.223,0,0,1-.062.438" fill="#4c7bb1"/>
        <path id="Trazado_134861" data-name="Trazado 134861" d="M92.643,44.988a10.438,10.438,0,0,1-1.788-.155.223.223,0,1,1,.077-.44,9.991,9.991,0,0,0,3.376.008.224.224,0,1,1,.075.441,10.5,10.5,0,0,1-1.74.146" fill="#4c7bb1"/>
        <path id="Trazado_134862" data-name="Trazado 134862" d="M95.162,44.7a.224.224,0,0,1-.066-.437,12.824,12.824,0,0,0,4.244-2.274.224.224,0,0,1,.282.347,13.285,13.285,0,0,1-4.394,2.354.216.216,0,0,1-.066.01" fill="#4c7bb1"/>
        <path id="Trazado_134863" data-name="Trazado 134863" d="M92.9,45.9a8.639,8.639,0,0,1-4.237-1.111.223.223,0,0,1,.22-.389A8.185,8.185,0,0,0,93.775,45.4,10.569,10.569,0,0,0,99,43.228a.224.224,0,0,1,.3.332,10.9,10.9,0,0,1-5.475,2.285,8.585,8.585,0,0,1-.921.05" fill="#4c7bb1"/>
        <path id="Trazado_134864" data-name="Trazado 134864" d="M91.963,46.667h0a6.452,6.452,0,0,1-3.037-.788.224.224,0,1,1,.215-.392,6,6,0,0,0,2.826.733.224.224,0,0,1,0,.447" fill="#4c7bb1"/>
        <path id="Trazado_134865" data-name="Trazado 134865" d="M92.763,46.643a.224.224,0,0,1,0-.447,10.026,10.026,0,0,0,2.268-.284.224.224,0,0,1,.106.435,10.513,10.513,0,0,1-2.37.3Z" fill="#4c7bb1"/>
        <path id="Trazado_134866" data-name="Trazado 134866" d="M95.657,46.27a.223.223,0,0,1-.046-.442,5.113,5.113,0,0,0,2.362-1.211.223.223,0,1,1,.3.331A5.554,5.554,0,0,1,95.7,46.265a.259.259,0,0,1-.047.005" fill="#4c7bb1"/>
        <path id="Trazado_134867" data-name="Trazado 134867" d="M93.123,47.761a4.872,4.872,0,0,1-2.226-.5.224.224,0,0,1,.2-.4,4.961,4.961,0,0,0,2.97.374,14.069,14.069,0,0,0,2.988-.917.224.224,0,1,1,.164.416,14.423,14.423,0,0,1-3.085.943,6.785,6.785,0,0,1-1.015.079" fill="#4c7bb1"/>
        <path id="Trazado_134868" data-name="Trazado 134868" d="M93.736,36.847h0a.33.33,0,0,1-.3-.223,2.841,2.841,0,0,1-.2-.967.744.744,0,0,1,.092-.491.487.487,0,0,1,.321-.207.568.568,0,0,1,.425.091.8.8,0,0,1,.309.629,1.379,1.379,0,0,1-.166.679l-.007.015c-.09.178-.24.474-.478.474m-.11-1.22a2.875,2.875,0,0,0,.133.766,2.064,2.064,0,0,0,.109-.195l.008-.015A1.016,1.016,0,0,0,94,35.694a.422.422,0,0,0-.144-.327.183.183,0,0,0-.132-.027.112.112,0,0,0-.071.042A.438.438,0,0,0,93.626,35.627Z" fill="#4c7bb1"/>
      </g>
    </g>
  </g>
</svg>
