<svg id="Grupo_159650" data-name="Grupo 159650" xmlns="http://www.w3.org/2000/svg" xmlns:xlink="http://www.w3.org/1999/xlink" width="275" height="184" viewBox="0 0 275 184">
  <defs>
    <clipPath id="clip-path">
      <rect id="Rectángulo_38413" data-name="Rectángulo 38413" width="275" height="184" fill="none"/>
    </clipPath>
  </defs>
  <g id="Grupo_159062" data-name="Grupo 159062" clip-path="url(#clip-path)">
    <path id="Trazado_134334" data-name="Trazado 134334" d="M137.5,19.327A72.673,72.673,0,1,1,64.827,92,72.673,72.673,0,0,1,137.5,19.327" fill="#b0c8cb"/>
    <path id="Trazado_134335" data-name="Trazado 134335" d="M139.984,49.445l-.091,107.045c0,3.861-3.4,6.944-7.661,6.941L79.7,163.4a8.089,8.089,0,0,1-3.56-.781,6.883,6.883,0,0,1-4.079-6.171L72.155,49.4a7.371,7.371,0,0,1,7.651-7.05l52.529.037A7.983,7.983,0,0,1,138.286,45a6.592,6.592,0,0,1,1.7,4.446" fill="#064679"/>
    <path id="Trazado_134336" data-name="Trazado 134336" d="M135.723,49.445l-.09,107.045c0,3.861-3.4,6.944-7.661,6.941L75.443,163.4a8.085,8.085,0,0,1-3.56-.781,6.883,6.883,0,0,1-4.079-6.171L67.894,49.4a7.371,7.371,0,0,1,7.651-7.05l52.529.037A7.984,7.984,0,0,1,134.026,45a6.586,6.586,0,0,1,1.7,4.446" fill="#6787b2"/>
    <path id="Trazado_134337" data-name="Trazado 134337" d="M131.442,50.782,131.43,64.3l-.078,83.928a2.452,2.452,0,0,1-2.382,2.516l-49.445-.031-5.243,0a2.284,2.284,0,0,1-2.217-2.347l.036-39.053.014-15.546.04-43.014A2.288,2.288,0,0,1,74.376,48.4l24.974.016,9.32.006,20.556.012a2.283,2.283,0,0,1,2.216,2.348" fill="#28649e"/>
    <path id="Trazado_134338" data-name="Trazado 134338" d="M99.35,48.416,72.115,93.76l.039-43.014A2.289,2.289,0,0,1,74.376,48.4Z" fill="#4c7bb1"/>
    <path id="Trazado_134339" data-name="Trazado 134339" d="M131.442,50.782,131.43,64.3l-51.9,86.413-5.243,0a2.284,2.284,0,0,1-2.217-2.347l.036-39.053L108.67,48.422l20.556.012a2.283,2.283,0,0,1,2.216,2.348" fill="#4c7bb1"/>
    <path id="Trazado_134340" data-name="Trazado 134340" d="M131.444,55.384H72.157V50.143a1.757,1.757,0,0,1,1.757-1.757h55.773a1.757,1.757,0,0,1,1.757,1.757Z" fill="#f49c68"/>
    <rect id="Rectángulo_38385" data-name="Rectángulo 38385" width="3.352" height="0.996" transform="matrix(0.707, -0.707, 0.707, 0.707, 126.436, 52.718)" fill="#fff"/>
    <rect id="Rectángulo_38386" data-name="Rectángulo 38386" width="0.996" height="3.352" transform="translate(126.436 51.052) rotate(-45)" fill="#fff"/>
    <path id="Trazado_134341" data-name="Trazado 134341" d="M76.818,51.58a1.235,1.235,0,1,1-1.235-1.235,1.235,1.235,0,0,1,1.235,1.235" fill="#fff"/>
    <path id="Trazado_134342" data-name="Trazado 134342" d="M81.25,51.58a1.235,1.235,0,1,1-1.235-1.235A1.235,1.235,0,0,1,81.25,51.58" fill="#fff"/>
    <path id="Trazado_134343" data-name="Trazado 134343" d="M85.682,51.58a1.235,1.235,0,1,1-1.235-1.235,1.235,1.235,0,0,1,1.235,1.235" fill="#fff"/>
    <path id="Trazado_134344" data-name="Trazado 134344" d="M108.9,159.336H94.624a.764.764,0,0,1-.763-.763v-2.822a.764.764,0,0,1,.763-.763H108.9a.764.764,0,0,1,.763.763v2.822a.764.764,0,0,1-.763.763" fill="#064679"/>
    <path id="Trazado_134345" data-name="Trazado 134345" d="M125.4,85.418h-18.7a1.029,1.029,0,0,1-1.026-1.025v-18.7a1.029,1.029,0,0,1,1.026-1.025h18.7a1.028,1.028,0,0,1,1.025,1.025v18.7a1.028,1.028,0,0,1-1.025,1.025" fill="#e8edbc"/>
    <path id="Trazado_134346" data-name="Trazado 134346" d="M125.4,85.5h-18.7a1.112,1.112,0,0,1-1.111-1.111v-18.7a1.112,1.112,0,0,1,1.111-1.111h18.7a1.112,1.112,0,0,1,1.111,1.111v18.7A1.112,1.112,0,0,1,125.4,85.5m-18.7-20.748a.941.941,0,0,0-.94.94v18.7a.941.941,0,0,0,.94.94h18.7a.941.941,0,0,0,.94-.94v-18.7a.941.941,0,0,0-.94-.94Z" fill="#6787b2"/>
    <path id="Trazado_134347" data-name="Trazado 134347" d="M96.892,85.418h-18.7a1.029,1.029,0,0,1-1.026-1.025v-18.7a1.029,1.029,0,0,1,1.026-1.025h18.7a1.028,1.028,0,0,1,1.025,1.025v18.7a1.028,1.028,0,0,1-1.025,1.025" fill="#e8edbc"/>
    <path id="Trazado_134348" data-name="Trazado 134348" d="M96.892,85.5h-18.7a1.112,1.112,0,0,1-1.111-1.111v-18.7a1.112,1.112,0,0,1,1.111-1.111h18.7A1.112,1.112,0,0,1,98,65.695v18.7A1.112,1.112,0,0,1,96.892,85.5m-18.7-20.748a.941.941,0,0,0-.94.94v18.7a.941.941,0,0,0,.94.94h18.7a.941.941,0,0,0,.94-.94v-18.7a.941.941,0,0,0-.94-.94Z" fill="#6787b2"/>
    <path id="Trazado_134349" data-name="Trazado 134349" d="M125.4,113.264h-18.7a1.029,1.029,0,0,1-1.026-1.025v-18.7a1.029,1.029,0,0,1,1.026-1.025h18.7a1.028,1.028,0,0,1,1.025,1.025v18.7a1.028,1.028,0,0,1-1.025,1.025" fill="#e8edbc"/>
    <path id="Trazado_134350" data-name="Trazado 134350" d="M125.4,113.349h-18.7a1.112,1.112,0,0,1-1.111-1.111v-18.7a1.112,1.112,0,0,1,1.111-1.111h18.7a1.112,1.112,0,0,1,1.111,1.111v18.7a1.112,1.112,0,0,1-1.111,1.111M106.708,92.6a.941.941,0,0,0-.94.94v18.7a.941.941,0,0,0,.94.94h18.7a.941.941,0,0,0,.94-.94v-18.7a.941.941,0,0,0-.94-.94Z" fill="#6787b2"/>
    <path id="Trazado_134351" data-name="Trazado 134351" d="M96.892,113.264h-18.7a1.029,1.029,0,0,1-1.026-1.025v-18.7a1.029,1.029,0,0,1,1.026-1.025h18.7a1.028,1.028,0,0,1,1.025,1.025v18.7a1.028,1.028,0,0,1-1.025,1.025" fill="#e8edbc"/>
    <path id="Trazado_134352" data-name="Trazado 134352" d="M96.892,113.349h-18.7a1.112,1.112,0,0,1-1.111-1.111v-18.7a1.112,1.112,0,0,1,1.111-1.111h18.7A1.112,1.112,0,0,1,98,93.541v18.7a1.112,1.112,0,0,1-1.111,1.111M78.195,92.6a.941.941,0,0,0-.94.94v18.7a.941.941,0,0,0,.94.94h18.7a.941.941,0,0,0,.94-.94v-18.7a.941.941,0,0,0-.94-.94Z" fill="#6787b2"/>
    <path id="Trazado_134353" data-name="Trazado 134353" d="M125.4,141.11h-18.7a1.029,1.029,0,0,1-1.026-1.025v-18.7a1.029,1.029,0,0,1,1.026-1.025h18.7a1.028,1.028,0,0,1,1.025,1.025v18.7a1.028,1.028,0,0,1-1.025,1.025" fill="#e8edbc"/>
    <path id="Trazado_134354" data-name="Trazado 134354" d="M125.4,141.2h-18.7a1.112,1.112,0,0,1-1.111-1.111v-18.7a1.112,1.112,0,0,1,1.111-1.111h18.7a1.112,1.112,0,0,1,1.111,1.111v18.7A1.112,1.112,0,0,1,125.4,141.2m-18.7-20.748a.941.941,0,0,0-.94.94v18.7a.941.941,0,0,0,.94.94h18.7a.941.941,0,0,0,.94-.94v-18.7a.941.941,0,0,0-.94-.94Z" fill="#6787b2"/>
    <path id="Trazado_134355" data-name="Trazado 134355" d="M96.892,141.11h-18.7a1.029,1.029,0,0,1-1.026-1.025v-18.7a1.029,1.029,0,0,1,1.026-1.025h18.7a1.028,1.028,0,0,1,1.025,1.025v18.7a1.028,1.028,0,0,1-1.025,1.025" fill="#e8edbc"/>
    <path id="Trazado_134356" data-name="Trazado 134356" d="M96.892,141.2h-18.7a1.112,1.112,0,0,1-1.111-1.111v-18.7a1.112,1.112,0,0,1,1.111-1.111h18.7A1.112,1.112,0,0,1,98,121.387v18.7a1.112,1.112,0,0,1-1.111,1.111m-18.7-20.748a.941.941,0,0,0-.94.94v18.7a.941.941,0,0,0,.94.94h18.7a.941.941,0,0,0,.94-.94v-18.7a.941.941,0,0,0-.94-.94Z" fill="#6787b2"/>
    <path id="Trazado_134357" data-name="Trazado 134357" d="M120.3,102.89l-7.152-4.129v8.258Z" fill="#fff"/>
    <path id="Trazado_134358" data-name="Trazado 134358" d="M95.03,97.105v11.571a1.37,1.37,0,0,1-1.377,1.363H81.444a1.37,1.37,0,0,1-1.377-1.363V97.105a1.371,1.371,0,0,1,1.377-1.364H93.653a1.37,1.37,0,0,1,1.377,1.364" fill="#064679"/>
    <path id="Trazado_134359" data-name="Trazado 134359" d="M94.96,103.327v5.348a1.364,1.364,0,0,1-1.364,1.364H81.5a1.364,1.364,0,0,1-1.363-1.364v-1.62l2.5-2.5L86,107.906l6.77-6.77Z" fill="#6787b2"/>
    <path id="Trazado_134360" data-name="Trazado 134360" d="M89.386,102.713A1.382,1.382,0,1,1,88,101.33a1.382,1.382,0,0,1,1.382,1.383" fill="#fff"/>
    <path id="Trazado_134361" data-name="Trazado 134361" d="M80.882,70.369a1.084,1.084,0,0,1,.9-.458H93.321a1.088,1.088,0,0,1,.961.57h0a.879.879,0,0,1,.087.388V77.5a.857.857,0,0,1-.1.395,1.057,1.057,0,0,1-.952.554H81.779a1.063,1.063,0,0,1-.956-.552.864.864,0,0,1-.1-.4V70.867a.888.888,0,0,1,.159-.5" fill="#064679"/>
    <path id="Trazado_134362" data-name="Trazado 134362" d="M81.993,77.284l5.719-4.5,5.381,4.5.314-.374-5.685-4.756L81.691,76.9Z" fill="#fff"/>
    <path id="Trazado_134363" data-name="Trazado 134363" d="M81.842,71.262l4.682,3.916a1.366,1.366,0,0,0,1.723.025l5-3.941" fill="#064679"/>
    <path id="Trazado_134364" data-name="Trazado 134364" d="M87.4,75.739a1.6,1.6,0,0,0,1-.344l5-3.941-.3-.384-5,3.941a1.129,1.129,0,0,1-1.416-.02L82,71.075l-.313.375,4.681,3.916a1.616,1.616,0,0,0,1.035.373" fill="#fff"/>
    <path id="Trazado_134365" data-name="Trazado 134365" d="M122.488,75.044a6.431,6.431,0,1,1-6.432-6.431,6.409,6.409,0,0,1,6.432,6.431" fill="#064679"/>
    <path id="Trazado_134366" data-name="Trazado 134366" d="M118.241,73.085a2.184,2.184,0,1,1-2.184-2.184,2.184,2.184,0,0,1,2.184,2.184" fill="#fff"/>
    <path id="Trazado_134367" data-name="Trazado 134367" d="M120.76,79.429a6.429,6.429,0,0,1-9.407,0,4.923,4.923,0,0,1,9.407,0" fill="#fff"/>
    <path id="Trazado_134368" data-name="Trazado 134368" d="M93.325,129.922a6.092,6.092,0,0,0-.936-2.26l.92-.925-1.522-1.518-.918.921a6.085,6.085,0,0,0-2.261-.935v-1.284H86.49v1.284a5.607,5.607,0,0,0-2.276.936l-.948-.92-1.514,1.522.923.919a6.07,6.07,0,0,0-.933,2.26H80.4v2.295h1.373a6.059,6.059,0,0,0,.936,2.26l-.92.924,1.522,1.519.918-.921a6.06,6.06,0,0,0,2.261.934v1.285h2.118v-1.285A5.575,5.575,0,0,0,90.883,136l.948.92,1.515-1.522-.924-.918a6.037,6.037,0,0,0,.933-2.26H94.7v-2.295Z" fill="#064679"/>
    <path id="Trazado_134369" data-name="Trazado 134369" d="M90.894,131.07a3.345,3.345,0,1,1-3.345-3.345,3.345,3.345,0,0,1,3.345,3.345" fill="#fff"/>
    <path id="Trazado_134370" data-name="Trazado 134370" d="M87.549,134.5a3.431,3.431,0,1,1,3.431-3.431,3.435,3.435,0,0,1-3.431,3.431m0-6.691a3.26,3.26,0,1,0,3.26,3.26,3.263,3.263,0,0,0-3.26-3.26" fill="#6787b2"/>
    <path id="Trazado_134371" data-name="Trazado 134371" d="M89.255,131.07a1.706,1.706,0,1,1-1.706-1.706,1.706,1.706,0,0,1,1.706,1.706" fill="#6787b2"/>
    <path id="Trazado_134372" data-name="Trazado 134372" d="M114.172,124.792a.892.892,0,0,1,.534.716c.143.624.278,1.251.413,1.877a1.577,1.577,0,0,1,.028.291.583.583,0,0,1-.419.605c-.2.071-.4.139-.6.2a.49.49,0,0,0-.348.382,1.3,1.3,0,0,0,.031.748,8.045,8.045,0,0,0,2.444,3.547,5.236,5.236,0,0,0,.748.517.9.9,0,0,0,.559.1.44.44,0,0,0,.336-.195c.11-.162.225-.321.336-.481a.623.623,0,0,1,.857-.255c.2.085.387.2.578.3q.539.292,1.075.592c.091.051.181.106.269.164a.871.871,0,0,1,.458.661c-.011.079-.023.158-.034.237-.079.181-.144.369-.239.541a2.527,2.527,0,0,1-1.93,1.354c-.174.025-.352.017-.528.025l-.41-.059c-.162-.05-.326-.1-.486-.152a6.551,6.551,0,0,1-2.108-1.334,17.6,17.6,0,0,1-3.923-5.379,6.213,6.213,0,0,1-.529-1.974c-.015-.2-.01-.4-.015-.606.02-.137.039-.273.059-.41.011-.03.026-.059.034-.09a2.5,2.5,0,0,1,1.909-1.864,5.19,5.19,0,0,1,.662-.089l.237.034" fill="#fff"/>
    <path id="Trazado_134373" data-name="Trazado 134373" d="M205,90.656H171.834a2.2,2.2,0,0,1-2.2-2.2V66.39H207.2V88.456a2.2,2.2,0,0,1-2.2,2.2" fill="#6787b2"/>
    <path id="Trazado_134374" data-name="Trazado 134374" d="M207.2,66.39H169.635V64.813a2.6,2.6,0,0,1,2.6-2.6h32.357a2.6,2.6,0,0,1,2.6,2.6Z" fill="#28649e"/>
    <rect id="Rectángulo_38387" data-name="Rectángulo 38387" width="0.769" height="2.001" transform="matrix(0.707, -0.707, 0.707, 0.707, 203.333, 63.97)" fill="#fff"/>
    <rect id="Rectángulo_38388" data-name="Rectángulo 38388" width="2.001" height="0.769" transform="translate(203.333 64.842) rotate(-45)" fill="#fff"/>
    <path id="Trazado_134375" data-name="Trazado 134375" d="M176.722,64.406a.657.657,0,1,0,.656-.656.656.656,0,0,0-.656.656" fill="#fefefe"/>
    <path id="Trazado_134376" data-name="Trazado 134376" d="M174.232,64.406a.657.657,0,1,0,.656-.656.656.656,0,0,0-.656.656" fill="#fefefe"/>
    <path id="Trazado_134377" data-name="Trazado 134377" d="M171.741,64.406a.657.657,0,1,0,.656-.656.656.656,0,0,0-.656.656" fill="#fefefe"/>
    <path id="Trazado_134378" data-name="Trazado 134378" d="M197.169,78.206l-13.675-7.895V86.1Z" fill="#e8edbc"/>
    <path id="Trazado_134379" data-name="Trazado 134379" d="M149.16,61.66H120.355a1.869,1.869,0,0,1-1.869-1.869V22.031a1.869,1.869,0,0,1,1.869-1.869H149.16a1.869,1.869,0,0,1,1.869,1.869v37.76a1.869,1.869,0,0,1-1.869,1.869" fill="#e8edbc"/>
    <path id="Trazado_134380" data-name="Trazado 134380" d="M149.16,61.745H120.355a1.956,1.956,0,0,1-1.954-1.954V22.031a1.956,1.956,0,0,1,1.954-1.955H149.16a1.957,1.957,0,0,1,1.954,1.955v37.76a1.957,1.957,0,0,1-1.954,1.954m-28.805-41.5a1.786,1.786,0,0,0-1.784,1.784v37.76a1.786,1.786,0,0,0,1.784,1.783H149.16a1.785,1.785,0,0,0,1.783-1.783V22.031a1.785,1.785,0,0,0-1.783-1.784Z" fill="#6787b2"/>
    <path id="Trazado_134381" data-name="Trazado 134381" d="M149.14,20.162H120.374a1.888,1.888,0,0,0-1.888,1.888v2.334h32.542V22.05a1.888,1.888,0,0,0-1.888-1.888" fill="#6787b2"/>
    <path id="Trazado_134382" data-name="Trazado 134382" d="M121.949,22.273a.737.737,0,1,1-.738-.738.738.738,0,0,1,.738.738" fill="#fff"/>
    <path id="Trazado_134383" data-name="Trazado 134383" d="M124.388,22.273a.737.737,0,1,1-.738-.738.738.738,0,0,1,.738.738" fill="#fff"/>
    <path id="Trazado_134384" data-name="Trazado 134384" d="M126.827,22.273a.738.738,0,1,1-.738-.738.738.738,0,0,1,.738.738" fill="#fff"/>
    <rect id="Rectángulo_38389" data-name="Rectángulo 38389" width="22.972" height="22.972" transform="translate(123.272 27.121)" fill="#4c7bb1"/>
    <rect id="Rectángulo_38390" data-name="Rectángulo 38390" width="32.488" height="0.171" transform="translate(123.212 50.033) rotate(-45.004)" fill="#fff"/>
    <rect id="Rectángulo_38391" data-name="Rectángulo 38391" width="0.171" height="32.488" transform="translate(123.211 27.181) rotate(-45)" fill="#fff"/>
    <rect id="Rectángulo_38392" data-name="Rectángulo 38392" width="7.632" height="1.066" transform="translate(122.796 52.479)" fill="#6787b2"/>
    <rect id="Rectángulo_38393" data-name="Rectángulo 38393" width="4.758" height="1.066" transform="translate(135.529 52.479)" fill="#6787b2"/>
    <rect id="Rectángulo_38394" data-name="Rectángulo 38394" width="4.758" height="1.066" transform="translate(135.529 57.923)" fill="#6787b2"/>
    <rect id="Rectángulo_38395" data-name="Rectángulo 38395" width="8.648" height="1.066" transform="translate(135.529 54.293)" fill="#6787b2"/>
    <rect id="Rectángulo_38396" data-name="Rectángulo 38396" width="11.189" height="1.066" transform="translate(135.529 56.108)" fill="#6787b2"/>
    <rect id="Rectángulo_38397" data-name="Rectángulo 38397" width="1.643" height="1.066" transform="translate(141.318 52.479)" fill="#6787b2"/>
    <rect id="Rectángulo_38398" data-name="Rectángulo 38398" width="5.902" height="1.066" transform="translate(122.796 54.293)" fill="#6787b2"/>
    <rect id="Rectángulo_38399" data-name="Rectángulo 38399" width="2.497" height="1.066" transform="translate(129.18 54.293)" fill="#6787b2"/>
    <rect id="Rectángulo_38400" data-name="Rectángulo 38400" width="11.025" height="1.066" transform="translate(122.797 56.108)" fill="#6787b2"/>
    <rect id="Rectángulo_38401" data-name="Rectángulo 38401" width="4.795" height="1.066" transform="translate(122.797 57.923)" fill="#6787b2"/>
    <rect id="Rectángulo_38402" data-name="Rectángulo 38402" width="2.09" height="1.066" transform="translate(128.35 57.923)" fill="#6787b2"/>
    <rect id="Rectángulo_38403" data-name="Rectángulo 38403" width="1.359" height="1.066" transform="translate(140.933 57.923)" fill="#6787b2"/>
    <path id="Trazado_134385" data-name="Trazado 134385" d="M140.174,163.838h53.8a2.152,2.152,0,0,0,2.152-2.152V118.65a2.152,2.152,0,0,0-2.152-2.152h-53.8a2.152,2.152,0,0,0-2.152,2.152v43.036a2.152,2.152,0,0,0,2.152,2.152" fill="#e8edbc"/>
    <path id="Trazado_134386" data-name="Trazado 134386" d="M193.97,163.924h-53.8a2.24,2.24,0,0,1-2.237-2.237V118.65a2.24,2.24,0,0,1,2.237-2.237h53.8a2.24,2.24,0,0,1,2.237,2.237v43.037a2.24,2.24,0,0,1-2.237,2.237m-53.8-47.34a2.069,2.069,0,0,0-2.066,2.066v43.037a2.069,2.069,0,0,0,2.066,2.066h53.8a2.069,2.069,0,0,0,2.066-2.066V118.65a2.069,2.069,0,0,0-2.066-2.066Z" fill="#6787b2"/>
    <path id="Trazado_134387" data-name="Trazado 134387" d="M140.064,116.5h54.011a2.048,2.048,0,0,1,2.047,2.047v5.666h-58.1V118.54a2.042,2.042,0,0,1,2.042-2.042" fill="#6787b2"/>
    <rect id="Rectángulo_38404" data-name="Rectángulo 38404" width="3.311" height="0.855" transform="matrix(0.707, -0.707, 0.707, 0.707, 190.93, 121.548)" fill="#fff"/>
    <rect id="Rectángulo_38405" data-name="Rectángulo 38405" width="0.855" height="3.311" transform="matrix(0.707, -0.707, 0.707, 0.707, 190.93, 119.811)" fill="#fff"/>
    <path id="Trazado_134388" data-name="Trazado 134388" d="M143.835,120.649a1.333,1.333,0,1,1-1.332-1.332,1.332,1.332,0,0,1,1.332,1.332" fill="#fefefe"/>
    <path id="Trazado_134389" data-name="Trazado 134389" d="M148.889,120.649a1.333,1.333,0,1,1-1.332-1.332,1.332,1.332,0,0,1,1.332,1.332" fill="#fefefe"/>
    <path id="Trazado_134390" data-name="Trazado 134390" d="M153.943,120.649a1.332,1.332,0,1,1-1.332-1.332,1.332,1.332,0,0,1,1.332,1.332" fill="#fefefe"/>
    <path id="Trazado_134391" data-name="Trazado 134391" d="M153,142.024l-8.2-3.563v-1.974l8.2-3.547v2.324l-5.716,2.185L153,139.716Z" fill="#4c7bb1"/>
    <path id="Trazado_134392" data-name="Trazado 134392" d="M153.76,143.59l2.96-12.362h1.721l-2.993,12.362Z" fill="#4c7bb1"/>
    <path id="Trazado_134393" data-name="Trazado 134393" d="M159.2,142.032v-2.308l5.724-2.25-5.724-2.226v-2.292l8.2,3.547v1.957Z" fill="#4c7bb1"/>
    <rect id="Rectángulo_38406" data-name="Rectángulo 38406" width="14.119" height="14.119" transform="translate(175.925 130.027)" fill="#4c7bb1"/>
    <path id="Trazado_134394" data-name="Trazado 134394" d="M190.044,143.6v.541h-.5l-6.4-6.413-.6-.547-6.626-6.579v-.58h.616l6.572,6.608Z" fill="#fefeff"/>
    <path id="Trazado_134395" data-name="Trazado 134395" d="M190.044,130.027v.723l-6.393,6.428-.521.555-6.379,6.413h-.826v-.4l6.626-6.57.569-.542,6.632-6.609Z" fill="#fefeff"/>
    <rect id="Rectángulo_38407" data-name="Rectángulo 38407" width="7.579" height="2.428" transform="translate(176.786 150.874)" fill="#6787b2"/>
    <rect id="Rectángulo_38408" data-name="Rectángulo 38408" width="12.397" height="1.332" transform="translate(176.787 155.789)" fill="#6787b2"/>
    <rect id="Rectángulo_38409" data-name="Rectángulo 38409" width="7.579" height="2.428" transform="translate(161.193 150.874)" fill="#6787b2"/>
    <rect id="Rectángulo_38410" data-name="Rectángulo 38410" width="12.397" height="1.332" transform="translate(161.193 155.789)" fill="#6787b2"/>
    <rect id="Rectángulo_38411" data-name="Rectángulo 38411" width="7.579" height="2.428" transform="translate(145.6 150.874)" fill="#6787b2"/>
    <rect id="Rectángulo_38412" data-name="Rectángulo 38412" width="12.397" height="1.332" transform="translate(145.6 155.789)" fill="#6787b2"/>
    <path id="Trazado_134396" data-name="Trazado 134396" d="M177.72,34.84a7.849,7.849,0,0,0-1.923-2.5l.835-1.459-2.4-1.379-.835,1.454a7.832,7.832,0,0,0-3.128-.405l-.431-1.6-2.637.71.431,1.6a7.2,7.2,0,0,0-2.518,1.927l-1.489-.827-1.375,2.4,1.458.833a7.818,7.818,0,0,0-.4,3.128l-1.671.45.769,2.857,1.71-.461a7.831,7.831,0,0,0,1.922,2.5l-.835,1.459,2.4,1.38.835-1.455a7.827,7.827,0,0,0,3.127.406l.43,1.6,2.637-.711-.431-1.6a7.214,7.214,0,0,0,2.52-1.929l1.489.828,1.374-2.4-1.458-.833a7.811,7.811,0,0,0,.4-3.127l1.67-.45-.77-2.856Z" fill="#28649e"/>
    <path id="Trazado_134397" data-name="Trazado 134397" d="M171.847,41.667a3.586,3.586,0,1,1,2.53-4.4,3.585,3.585,0,0,1-2.53,4.4" fill="#6787b2"/>
    <path id="Trazado_134398" data-name="Trazado 134398" d="M127.957,78.614a102.188,102.188,0,0,1,9.479,8.809c1.513-1.627,3.346-3.657,4.651-4.793,2.229,1.146,3.753,3.379,5.818,4.8-2.367,2.992-10.752,5.869-11.188,5.646-.6.121-1.136-.343-1.556-.782-2.695-2.818-7.021-7.313-8.688-10.846.29-.249,1.312-2.7,1.484-2.834" fill="#f49c68"/>
    <path id="Trazado_134399" data-name="Trazado 134399" d="M128.076,75.822a5.061,5.061,0,0,1,.889,2.467,3.182,3.182,0,0,1-.108,1.6,2.415,2.415,0,0,1-1.127,1.174,3.129,3.129,0,0,1-2.493.209,3.813,3.813,0,0,1-1.739-1.4c-.344-.471-1.009-1.355-.65-1.955a1.917,1.917,0,0,1,.645-.573,1.474,1.474,0,0,1,.787-.313c.161,0,.318.059.479.066a.4.4,0,0,0,.407-.2.524.524,0,0,0-.147-.475c-.794-1.054-1.746-1.99-2.443-3.109a.931.931,0,0,1-.164-.921.659.659,0,0,1,.825-.189,1.92,1.92,0,0,1,.676.618l1.923,2.435a3.577,3.577,0,0,0,.508.556,1.124,1.124,0,0,0,.606.28c.209.007.373-.146.555-.233s.442-.206.571-.038" fill="#f49c68"/>
    <path id="Trazado_134400" data-name="Trazado 134400" d="M124.544,80.249h0a.574.574,0,0,1-.8-.134l-1.229-1.72a.575.575,0,0,1,.936-.668l1.229,1.72a.576.576,0,0,1-.134.8" fill="#f0836e"/>
    <path id="Trazado_134401" data-name="Trazado 134401" d="M125.48,79.58h0a.574.574,0,0,1-.8-.134l-1.229-1.72a.575.575,0,0,1,.936-.668l1.229,1.72a.576.576,0,0,1-.134.8" fill="#f0836e"/>
    <path id="Trazado_134402" data-name="Trazado 134402" d="M126.416,78.911h0a.574.574,0,0,1-.8-.134l-1.229-1.72a.575.575,0,1,1,.936-.668l1.229,1.72a.576.576,0,0,1-.134.8" fill="#f0836e"/>
    <path id="Trazado_134403" data-name="Trazado 134403" d="M124.243,79.4l-.38.252a.069.069,0,0,0-.019.1l.141.2a.273.273,0,0,0,.348.046.327.327,0,0,0,.162-.306.539.539,0,0,0-.112-.206l-.044-.067a.071.071,0,0,0-.1-.021" fill="#fff"/>
    <path id="Trazado_134404" data-name="Trazado 134404" d="M125.172,78.723l-.38.251a.069.069,0,0,0-.019.1l.141.205a.273.273,0,0,0,.348.045.325.325,0,0,0,.162-.306.539.539,0,0,0-.112-.206l-.044-.067a.069.069,0,0,0-.1-.02" fill="#fff"/>
    <path id="Trazado_134405" data-name="Trazado 134405" d="M126.207,78.092l-.38.251a.07.07,0,0,0-.019.1l.141.205a.273.273,0,0,0,.348.045.325.325,0,0,0,.162-.306.539.539,0,0,0-.112-.206l-.044-.067a.069.069,0,0,0-.1-.02" fill="#fff"/>
    <path id="Trazado_134406" data-name="Trazado 134406" d="M126.781,78.716l-.464-.215a.335.335,0,0,1-.163-.445l1.1-2.362a.336.336,0,0,1,.445-.164l.464.215a.336.336,0,0,1,.163.446l-1.1,2.362a.335.335,0,0,1-.445.163" fill="#f0836e"/>
    <path id="Trazado_134407" data-name="Trazado 134407" d="M127.134,77.936l-.434-.227a.075.075,0,0,0-.1.033l-.119.24a.292.292,0,0,0,.138.349.349.349,0,0,0,.372-.006.571.571,0,0,0,.135-.212l.04-.076a.073.073,0,0,0-.031-.1" fill="#fff"/>
    <path id="Trazado_134408" data-name="Trazado 134408" d="M136.268,137.806a18.081,18.081,0,0,1-4.168,2.749,7.385,7.385,0,0,1,2.654,4.493l1.541-1.316c.414-.354.829-.709,1.259-1.045.217-.171.437-.336.663-.495a2.237,2.237,0,0,0,.58-.42c.131-.19-.011-.295-.147-.435q-.282-.288-.544-.6a11.991,11.991,0,0,1-1.838-2.935" fill="#f49c68"/>
    <path id="Trazado_134409" data-name="Trazado 134409" d="M122.885,144.806a16.919,16.919,0,0,1-3.913-3.1,8.428,8.428,0,0,1-3.687,4.2l1.744,1.04c.469.279.939.559,1.4.86.23.152.458.308.679.473.172.128.367.361.581.419s.289-.117.389-.3q.2-.378.434-.744a13.787,13.787,0,0,1,1.021-1.417,13.56,13.56,0,0,1,1.357-1.427" fill="#f49c68"/>
    <path id="Trazado_134410" data-name="Trazado 134410" d="M138.927,141.087a7.752,7.752,0,0,1,1.827,2.522,13.742,13.742,0,0,1-3.033,6.282,12.451,12.451,0,0,1-5.544,3.647,1.246,1.246,0,0,1-1.147-.035.892.892,0,0,1-.231-.929,2.988,2.988,0,0,1,.492-.88,14.312,14.312,0,0,0,2.566-8.552,20.167,20.167,0,0,0,5.07-2.055" fill="#e8edbc"/>
    <path id="Trazado_134411" data-name="Trazado 134411" d="M140.558,143.207a2.4,2.4,0,0,1-.143,1.636,15.329,15.329,0,0,1-2.856,5.081,11.194,11.194,0,0,1-5.131,3.323,2.324,2.324,0,0,1-.769.1.8.8,0,0,1-.794-.45c-.028-.115-.035-.338-.054-.356-.142.086-.154.38-.142.49a3.517,3.517,0,0,0,.446,1.091,1.525,1.525,0,0,0,1.719.729,12.338,12.338,0,0,0,1.258-.391,13.293,13.293,0,0,0,2.377-1.142,15.266,15.266,0,0,0,2.171-1.743,7.157,7.157,0,0,0,1.588-2.357l1.674-3.749a5.658,5.658,0,0,0-1.344-2.257" fill="#90b193"/>
    <path id="Trazado_134412" data-name="Trazado 134412" d="M120.072,148.393a7.729,7.729,0,0,1-1.042,2.935,13.742,13.742,0,0,1-6.893,1.065,12.465,12.465,0,0,1-6.148-2.5,1.249,1.249,0,0,1-.622-.964.89.89,0,0,1,.634-.718,2.988,2.988,0,0,1,1-.094,14.311,14.311,0,0,0,8.5-2.736,20.144,20.144,0,0,0,4.567,3.011" fill="#e8edbc"/>
    <path id="Trazado_134413" data-name="Trazado 134413" d="M119.25,150.938a2.4,2.4,0,0,1-1.428.81,15.342,15.342,0,0,1-5.806.529,11.2,11.2,0,0,1-5.646-2.342,2.308,2.308,0,0,1-.514-.579.8.8,0,0,1-.079-.91c.078-.088.258-.22.262-.246-.152-.068-.4.088-.484.161a3.523,3.523,0,0,0-.646.986,1.525,1.525,0,0,0,.374,1.829,12.465,12.465,0,0,0,1.035.815,13.422,13.422,0,0,0,2.289,1.31,15.249,15.249,0,0,0,2.667.8,7.155,7.155,0,0,0,2.842-.029l4.037-.748a5.644,5.644,0,0,0,1.1-2.386" fill="#90b193"/>
    <path id="Trazado_134414" data-name="Trazado 134414" d="M151.051,105.568A119.421,119.421,0,0,0,124.9,109.8a9.283,9.283,0,0,0-4.243,2.065,5.922,5.922,0,0,0-1.53,3.916,12.761,12.761,0,0,0,.7,4.222,61.1,61.1,0,0,0,4.261,9.665,137.853,137.853,0,0,0,7.6,13.578l5.925-4.779c-2.165-3.835-4.395-7.635-6.559-11.47a5.545,5.545,0,0,1-1.014-3.207,4.916,4.916,0,0,1,1.421-2.6,28.517,28.517,0,0,1,10.425-7.085,66.606,66.606,0,0,1,12.206-3.477c-.786-1.209.988-2.743.2-3.955-.517-.795-3.2-.159-3.248-1.109" fill="#064679"/>
    <path id="Trazado_134415" data-name="Trazado 134415" d="M152.967,106.988c-4.917.872-14.734,3.093-18.877,5.879a19.07,19.07,0,0,0-4.628,4.049c-1.916,2.5-2.713,5.654-3.64,8.666a82.731,82.731,0,0,1-7.651,16.6l5.155,3.54a61.541,61.541,0,0,0,8.857-9.254c3.621-4.341,6.013-9.6,9.6-13.962a15.959,15.959,0,0,1,4.29-3.848c3.478-1.983,7.726-1.839,11.726-1.654a28.174,28.174,0,0,0,8.826-.54c1.185-.327,2.619-.67,3.234-1.8a5.479,5.479,0,0,0,.3-4.012c-.421-1.741-1.524-6.443-3.176-7.135-3.179-1.332-12.274,3.152-14.02,3.462" fill="#064679"/>
    <path id="Trazado_134416" data-name="Trazado 134416" d="M163.06,75.255a3.582,3.582,0,0,1-2.649,1.916,5.857,5.857,0,0,1-3.6-.371,10.11,10.11,0,0,1-3.022-2.208,7.176,7.176,0,0,0,.9-1.174,9.048,9.048,0,0,0,1.016-2.427,13.382,13.382,0,0,0,.393-2.118,10.1,10.1,0,0,0,.01-1.9,6.807,6.807,0,0,0,6.169.318,39.831,39.831,0,0,1,.491,4.157c.083,1.094.148,2.174.244,3.237.017.193.035.384.055.575" fill="#f49c68"/>
    <path id="Trazado_134417" data-name="Trazado 134417" d="M162.585,69.493a4.2,4.2,0,0,1-1.421,1.551,4.387,4.387,0,0,1-1.5.458,15.428,15.428,0,0,1-4.145.1q.1-.3.18-.606c.1-.364.179-.728.246-1.092a15.411,15.411,0,0,0,4.9.007,4.364,4.364,0,0,0,1.5-.457c.077-.044.223-.143.223-.143s0,.022.012.114c0,.014.005.04.007.062,0,0,0,.007,0,.011" fill="#f0836e"/>
    <path id="Trazado_134418" data-name="Trazado 134418" d="M171.56,81.116a21.216,21.216,0,0,1-.347,3.347c-.1.588-.663.647-.783,1.231-.358,1.71-.332,3.932-.689,5.642a63.094,63.094,0,0,0-.278,7.344c0,1.733.545,10.735.545,10.735a36.786,36.786,0,0,0-11.571-1.666c-4.223.052-10.326-1.932-11-1.931,0,0,2.43-11.124,2.361-12.422-.018-.33-.038-.666-.06-1.005a23.554,23.554,0,0,1,0-4.207c.06-.5.129-1,.2-1.492a13.137,13.137,0,0,1-2.127,1.545,20.652,20.652,0,0,1-2.32,1.174,34.046,34.046,0,0,1-1.655-9.9c3.135-4.791,11.319-7.05,11.319-7.05a4.363,4.363,0,0,0,1.1,2.172,3.549,3.549,0,0,0,1.789.859,3.769,3.769,0,0,0,2.738-.376,15.623,15.623,0,0,0,2.067-2.522s3.123,1.361,4.449,2.077a19.3,19.3,0,0,1,2.233,1.407,4.206,4.206,0,0,1,1.819,1.993,8.129,8.129,0,0,1,.215,3.048" fill="#e8edbc"/>
    <path id="Trazado_134419" data-name="Trazado 134419" d="M169.97,88.994c.019,1.8-.688,4.014-.431,5.722a22.085,22.085,0,0,0-10.134-.371c-1.517.268-3.1.689-4.563.213-.3-.1-.636-.342-.542-.638a.642.642,0,0,1,.378-.331,14.2,14.2,0,0,1,4.4-1.262c2.576-.3,5.271.089,7.709-.793a.885.885,0,0,0,.481-.318c.2-.334-.069-.75-.336-1.039a74.226,74.226,0,0,1-5.1-7.913c-.081-.17-1.568-2.538-1.095-2.489a4.4,4.4,0,0,1,1.757.474c1.267,1.159,4.038,4.265,5.455,5.234.553.378,1.792,3.5,2.02,3.511" fill="#90b193"/>
    <path id="Trazado_134420" data-name="Trazado 134420" d="M153.38,83.146a76.184,76.184,0,0,0-3.644,9.245,23.649,23.649,0,0,1,0-4.207c.061-.5.129-1,.2-1.492a13.189,13.189,0,0,1-2.128,1.545c.018-.151.122-.268.36-.458a46.552,46.552,0,0,0,5.217-4.633" fill="#90b193"/>
    <path id="Trazado_134421" data-name="Trazado 134421" d="M152.794,81.2a28.126,28.126,0,0,1-5.747,7.733c-3.453-1.314-4.832-1.729-7.189-4.478a31.983,31.983,0,0,1,4.953-6.16" fill="#e8edbc"/>
    <path id="Trazado_134422" data-name="Trazado 134422" d="M175,95.044a2.41,2.41,0,0,1,1.937,1.045,2.264,2.264,0,0,1-.122,1.941,8.155,8.155,0,0,1-3.264,3.361,33.737,33.737,0,0,1-9.192,3.485,45.262,45.262,0,0,1-5.222,1.07,4.009,4.009,0,0,1-1.7-.468c-.379-.2.378.04.408-.385a2.473,2.473,0,0,1,.477-1.172,11.874,11.874,0,0,1,3.825-3.222q3.36-2.058,6.875-3.844a20.976,20.976,0,0,1,2.747-1.478A7.409,7.409,0,0,1,175,95.044" fill="#f49c68"/>
    <path id="Trazado_134423" data-name="Trazado 134423" d="M159.2,102.344a13.047,13.047,0,0,0-2.156.968,5.2,5.2,0,0,0-1.494,1.6,15.706,15.706,0,0,0-1.833,3.771.625.625,0,0,0-.018.5.412.412,0,0,0,.433.167.894.894,0,0,0,.422-.246c.778-.722,1-1.939,1.88-2.539a3.774,3.774,0,0,1,1.778-.485c.934-.093,1.794-.339,2.727-.434,0,0,.246-1.359.271-1.5.1-.557.277-1.092.4-1.643.131-.6.009-1.344-.5-1.151-.557.21-1.315.758-1.909.991" fill="#f49c68"/>
    <path id="Trazado_134424" data-name="Trazado 134424" d="M157.345,106,154.4,90a2.111,2.111,0,0,0-1.889-1.769H130.775a1.216,1.216,0,0,0-1.008.509v.008c-.017.025-.034.055-.05.081l-.8,1.235.656.146L132.487,106a2.1,2.1,0,0,0,1.889,1.762h21.731A1.354,1.354,0,0,0,157.345,106" fill="#ec7724"/>
    <path id="Trazado_134425" data-name="Trazado 134425" d="M168.392,106.392H154.957v2.677H169.8v-1.264a1.413,1.413,0,0,0-1.413-1.413" fill="#ec7724"/>
    <path id="Trazado_134426" data-name="Trazado 134426" d="M155.266,109.069H133.535a2.108,2.108,0,0,1-1.889-1.767L128.7,91.313a1.36,1.36,0,0,1,1.238-1.767h21.731a2.109,2.109,0,0,1,1.89,1.767L156.5,107.3a1.359,1.359,0,0,1-1.238,1.767" fill="#fbc387"/>
    <path id="Trazado_134427" data-name="Trazado 134427" d="M144.427,98.092a2.178,2.178,0,1,1-2.981-1.427,2.35,2.35,0,0,1,2.981,1.427" fill="#f49c68"/>
    <path id="Trazado_134428" data-name="Trazado 134428" d="M173.667,98.5a5.505,5.505,0,0,0-2-2.084c-.393-.281-1.74.353-2.171.183.972-.713,2.006-2.608,2.711-3.066-1.421-1.824-3.215-3.764-4.167-5.294,1.548-2.1,3.791-2.947,5.594-4.834,2.682,2.928,5.356,11.806,5.054,12.216a5.322,5.322,0,0,1-1.2,2.464,18.981,18.981,0,0,1-3.366,2.938c-.164-.308-.225-2.244-.449-2.523" fill="#f49c68"/>
    <path id="Trazado_134429" data-name="Trazado 134429" d="M163.356,80.9a30.131,30.131,0,0,0,4.947,8.955c3.713-1.011,5.183-1.3,7.949-3.972a48.832,48.832,0,0,0-5.3-8.508" fill="#e8edbc"/>
    <path id="Trazado_134430" data-name="Trazado 134430" d="M153.525,63.376a9.159,9.159,0,0,0,1.451,5.1,5.262,5.262,0,0,0,3.748,2.012,5.527,5.527,0,0,0,4.034-1.387,11.263,11.263,0,0,0,2.072-2.834l2.048-3.522a2.832,2.832,0,0,0,.559-2,2.617,2.617,0,0,0-1.016-1.31,18.2,18.2,0,0,0-8.126-3.715,7.18,7.18,0,0,0-3.464.054,3.8,3.8,0,0,0-1.36.769,2.379,2.379,0,0,0-.857,1.3,1.016,1.016,0,0,0,.194.556,4.161,4.161,0,0,1,.281.853,12.535,12.535,0,0,1,.3,1.917c.066.737.092,1.477.136,2.215" fill="#f49c68"/>
    <path id="Trazado_134431" data-name="Trazado 134431" d="M166.213,64.915c.352-.718.821-1.372,1.2-2.077a9.356,9.356,0,0,0,.435-7.792,4.548,4.548,0,0,0-1.78-2.317,8.088,8.088,0,0,0-3.574-.618,11.637,11.637,0,0,1-5.471-1.838,11.37,11.37,0,0,0-2-1.2,4.262,4.262,0,0,0-4.629,1.245,5.131,5.131,0,0,0-.9,4.81,7.089,7.089,0,0,0,3.522,3.851,1.42,1.42,0,0,1,.028-1.32,2.11,2.11,0,0,1,1.277-.687,6.978,6.978,0,0,1,1.48-.1l3.091,0a5.106,5.106,0,0,1,2.632.476,5.461,5.461,0,0,1,1.664,1.966,4.632,4.632,0,0,0,.574.788c.086.09.21.239.338.267a.8.8,0,0,0,.424-.083c.171-.078.292-.246.456-.321a2.7,2.7,0,0,1,.587-.119,1.676,1.676,0,0,1,1.132.1,1.618,1.618,0,0,1,.385,2.09c-.336.706-.931,1.258-1.295,1.949a3.34,3.34,0,0,0-.074,3,5.557,5.557,0,0,1,.493-2.07" fill="#7d2345"/>
    <path id="Trazado_134432" data-name="Trazado 134432" d="M152.795,58.546a2.389,2.389,0,0,1,1.274-.633,7.346,7.346,0,0,1,1.555-.108l3.245,0a5.353,5.353,0,0,1,2.764.5,5.742,5.742,0,0,1,1.748,2.065,4.884,4.884,0,0,0,.6.827c.091.094.221.251.355.28a.828.828,0,0,0,.445-.087c.18-.082.307-.258.479-.337a2.806,2.806,0,0,1,.616-.125,1.761,1.761,0,0,1,1.189.1,1.084,1.084,0,0,1,.288.233,1.343,1.343,0,0,0-.593-1.316,1.7,1.7,0,0,0-1.145-.1,2.712,2.712,0,0,0-.593.12c-.165.076-.288.246-.461.324a.8.8,0,0,1-.429.085c-.129-.029-.254-.179-.342-.271a4.685,4.685,0,0,1-.58-.8,5.527,5.527,0,0,0-1.682-1.988,5.157,5.157,0,0,0-2.662-.481l-3.125,0a7.072,7.072,0,0,0-1.5.1,2.129,2.129,0,0,0-1.29.695,1.317,1.317,0,0,0-.161.905" fill="#f0836e"/>
    <path id="Trazado_134433" data-name="Trazado 134433" d="M164.257,61.185c-.408,1.218-.106,2.417.674,2.678s1.742-.515,2.15-1.733.106-2.416-.674-2.677-1.742.514-2.15,1.732" fill="#f49c68"/>
    <path id="Trazado_134434" data-name="Trazado 134434" d="M150.483,55.9l.048-.163a2.576,2.576,0,0,1-1.622-2.072,4.578,4.578,0,0,1,3.26-4.923,4.382,4.382,0,0,1,2.782.121,8.94,8.94,0,0,1,1.864,1.1c.2.14.4.285.6.42a13.452,13.452,0,0,0,4.889,2.006l.032-.168a13.287,13.287,0,0,1-4.826-1.98c-.2-.134-.4-.278-.6-.417a9.022,9.022,0,0,0-1.9-1.122,4.555,4.555,0,0,0-2.892-.127,4.944,4.944,0,0,0-2.634,1.951,4.282,4.282,0,0,0-.746,3.168,2.709,2.709,0,0,0,1.742,2.2" fill="#7d2345"/>
    <path id="Trazado_134435" data-name="Trazado 134435" d="M167.768,62.06a7.047,7.047,0,0,0,1.313-5.608,6.113,6.113,0,0,0-3.592-3.964l-.062.16a5.933,5.933,0,0,1,3.489,3.851,6.859,6.859,0,0,1-1.284,5.457Z" fill="#7d2345"/>
    <path id="Trazado_134436" data-name="Trazado 134436" d="M151.553,50.623l.1-.06c.063-.041.161-.092.286-.157a4.178,4.178,0,0,1,.464-.195c.091-.034.191-.061.3-.092l.162-.04c.056-.014.114-.023.172-.035a4.159,4.159,0,0,1,.763-.067,3.948,3.948,0,0,1,.849.1c.035.008.073.015.106.024l.11.031c.075.02.146.045.217.069.143.048.287.108.429.17a7.262,7.262,0,0,1,.835.451c.273.167.538.346.8.524s.519.354.774.517a8.552,8.552,0,0,0,.761.436,5.607,5.607,0,0,0,.724.307c.058.02.114.04.17.055s.11.033.164.046l.159.037c.052.012.1.018.151.027a2.761,2.761,0,0,0,.274.036c.043.006.084,0,.123.007l.112,0,.188,0,.04,0,.037,0,.062-.007.115-.012-.115,0-.064,0h-.035l-.04,0c-.055,0-.117,0-.186-.008l-.11-.012c-.039-.005-.08-.007-.121-.015-.083-.015-.174-.026-.267-.051a4.189,4.189,0,0,1-.623-.193,6.427,6.427,0,0,1-.7-.328c-.242-.131-.489-.284-.737-.449s-.5-.347-.765-.527-.528-.363-.8-.533a7.277,7.277,0,0,0-.858-.456,4.31,4.31,0,0,0-.446-.171c-.077-.024-.153-.049-.226-.067l-.112-.029c-.041-.01-.076-.016-.115-.024a3.833,3.833,0,0,0-.879-.077,4.007,4.007,0,0,0-.784.1c-.059.015-.117.026-.173.044l-.165.048c-.1.037-.2.07-.294.11a3.636,3.636,0,0,0-.459.227,3.132,3.132,0,0,0-.275.179l-.093.067" fill="#fff"/>
    <path id="Trazado_134437" data-name="Trazado 134437" d="M165.2,61.715c-.265.792-.184,1.533.18,1.655s.875-.421,1.14-1.213.185-1.533-.18-1.655-.875.421-1.14,1.213" fill="#f0836e"/>
    <path id="Trazado_134438" data-name="Trazado 134438" d="M164.367,52.1a1.013,1.013,0,0,1,.719.292,2.124,2.124,0,0,1,.423.678,8.871,8.871,0,0,1,.549,2.772c.071.88-.157,2.739-.2,3.651-.27.028-.753.023-1,.072a17.149,17.149,0,0,0-.533-5.614,6.227,6.227,0,0,0-.654-1.326,1.029,1.029,0,0,0-.7-.522c.463-.022.9,0,1.389,0" fill="#90b193"/>
    <path id="Trazado_134439" data-name="Trazado 134439" d="M163.974,63.355a1.445,1.445,0,0,0,1.98-.339,2.425,2.425,0,0,0,.323-1.287,8.957,8.957,0,0,0-.184-2.136c-.089-.426-.3-.928-.733-.969a.963.963,0,0,0-.717.341c-.88.851-1.961,3.434-.669,4.39" fill="#90b193"/>
  </g>
</svg>
