<svg id="Grupo_159059" data-name="Grupo 159059" xmlns="http://www.w3.org/2000/svg" xmlns:xlink="http://www.w3.org/1999/xlink" width="275" height="184" viewBox="0 0 275 184">
  <defs>
    <clipPath id="clip-path">
      <rect id="Rectángulo_38332" data-name="Rectángulo 38332" width="275" height="184" fill="none"/>
    </clipPath>
  </defs>
  <g id="Grupo_159058" data-name="Grupo 159058" clip-path="url(#clip-path)">
    <path id="Trazado_134041" data-name="Trazado 134041" d="M137.5,19.327A72.673,72.673,0,1,1,64.827,92,72.673,72.673,0,0,1,137.5,19.327" fill="#b0c8cb"/>
    <path id="Trazado_134042" data-name="Trazado 134042" d="M93.21,75.285h38.313a2.151,2.151,0,0,0,2.152-2.151V58.254a2.151,2.151,0,0,0-2.152-2.152H93.21a2.151,2.151,0,0,0-2.152,2.152v14.88a2.151,2.151,0,0,0,2.152,2.151" fill="#e8edbc"/>
    <path id="Trazado_134043" data-name="Trazado 134043" d="M131.864,75.357H92.869a1.884,1.884,0,0,1-1.882-1.882V57.912a1.885,1.885,0,0,1,1.882-1.883h38.995a1.886,1.886,0,0,1,1.883,1.883V73.475a1.885,1.885,0,0,1-1.883,1.882M92.869,56.173a1.741,1.741,0,0,0-1.739,1.739V73.475a1.741,1.741,0,0,0,1.739,1.738h38.995a1.741,1.741,0,0,0,1.739-1.738V57.912a1.741,1.741,0,0,0-1.739-1.739Z" fill="#6787b2"/>
    <path id="Trazado_134044" data-name="Trazado 134044" d="M92.507,56.1h39.719a1.449,1.449,0,0,1,1.449,1.449v3.467H91.058V57.55A1.449,1.449,0,0,1,92.507,56.1" fill="#90b193"/>
    <path id="Trazado_134045" data-name="Trazado 134045" d="M133.746,61.09H90.986V57.819a1.792,1.792,0,0,1,1.79-1.789h39.176a1.8,1.8,0,0,1,1.794,1.794ZM91.13,60.946H133.6V57.824a1.652,1.652,0,0,0-1.651-1.65H92.776a1.647,1.647,0,0,0-1.646,1.645Z" fill="#6787b2"/>
    <rect id="Rectángulo_38328" data-name="Rectángulo 38328" width="1.84" height="0.431" transform="matrix(0.707, -0.707, 0.707, 0.707, 129.847, 59.058)" fill="#fff"/>
    <rect id="Rectángulo_38329" data-name="Rectángulo 38329" width="0.431" height="1.84" transform="translate(129.847 58.062) rotate(-45)" fill="#fff"/>
    <path id="Trazado_134046" data-name="Trazado 134046" d="M94.127,58.56a.7.7,0,1,1-.7-.7.7.7,0,0,1,.7.7" fill="#fefefe"/>
    <path id="Trazado_134047" data-name="Trazado 134047" d="M96.8,58.56a.7.7,0,1,1-.7-.7.7.7,0,0,1,.7.7" fill="#fefefe"/>
    <path id="Trazado_134048" data-name="Trazado 134048" d="M99.47,58.56a.7.7,0,1,1-.7-.7.7.7,0,0,1,.7.7" fill="#fefefe"/>
    <rect id="Rectángulo_38330" data-name="Rectángulo 38330" width="37.018" height="9.385" transform="translate(93.857 63.205)" fill="#6787b2"/>
    <path id="Trazado_134049" data-name="Trazado 134049" d="M130.875,69.2l-8.186-4.327-12.93,5.578-7.4-1.981-8.5,2.668V72.59h37.018Z" fill="#6787b2"/>
    <path id="Trazado_134050" data-name="Trazado 134050" d="M106.48,66.733a1.575,1.575,0,1,0,1.576-1.576,1.576,1.576,0,0,0-1.576,1.576" fill="#e8edbc"/>
    <path id="Trazado_134051" data-name="Trazado 134051" d="M108.056,68.38a1.647,1.647,0,1,1,1.648-1.647,1.65,1.65,0,0,1-1.648,1.647m0-3.151a1.5,1.5,0,1,0,1.5,1.5,1.506,1.506,0,0,0-1.5-1.5" fill="#6787b2"/>
    <path id="Trazado_134052" data-name="Trazado 134052" d="M171.138,141.042c0,1.995-1.894,3.613-4.233,3.613H71.22c-2.338,0-4.233-1.618-4.233-3.613V80.707c0-2,1.9-3.615,4.233-3.615H166.9c2.339,0,4.233,1.618,4.233,3.615Z" fill="#064679"/>
    <path id="Trazado_134053" data-name="Trazado 134053" d="M125.245,161.195l-1.011-1.606H95.891v3.866l1.551,1.988.683-1.894,26.109-.094v-1.473l1.011.375Z" fill="#064679"/>
    <path id="Trazado_134054" data-name="Trazado 134054" d="M123.929,163.772H105.036a1.294,1.294,0,0,1-1.281-1.508l4.494-36.887a1.682,1.682,0,0,1,1.61-1.511h9.936a1.7,1.7,0,0,1,1.62,1.511l3.821,36.884a1.322,1.322,0,0,1-1.307,1.511" fill="#064679"/>
    <path id="Trazado_134055" data-name="Trazado 134055" d="M126.374,164.263H107.481a1.294,1.294,0,0,1-1.281-1.508l4.494-36.887a1.681,1.681,0,0,1,1.61-1.511h9.936a1.694,1.694,0,0,1,1.62,1.511l3.821,36.884a1.322,1.322,0,0,1-1.307,1.511" fill="#28649e"/>
    <path id="Trazado_134056" data-name="Trazado 134056" d="M174.48,141.042c0,1.995-1.895,3.613-4.233,3.613H74.562c-2.338,0-4.233-1.618-4.233-3.613V80.707c0-2,1.895-3.615,4.233-3.615h95.685c2.338,0,4.233,1.618,4.233,3.615Z" fill="#6787b2"/>
    <rect id="Rectángulo_38331" data-name="Rectángulo 38331" width="39.432" height="3.931" transform="translate(97.442 161.512)" fill="#28649e"/>
    <path id="Trazado_134057" data-name="Trazado 134057" d="M170.357,137.727c0,1.776-1.745,3.216-3.9,3.216H78.35c-2.153,0-3.9-1.44-3.9-3.216V84.02c0-1.777,1.745-3.217,3.9-3.217h88.109c2.153,0,3.9,1.44,3.9,3.217Z" fill="#fff"/>
    <path id="Trazado_134058" data-name="Trazado 134058" d="M166.46,141.013H78.35c-2.189,0-3.969-1.474-3.969-3.286V84.02c0-1.812,1.78-3.286,3.969-3.286h88.11c2.187,0,3.968,1.474,3.968,3.286v53.707c0,1.812-1.781,3.286-3.968,3.286M78.35,80.873c-2.111,0-3.829,1.412-3.829,3.147v53.707c0,1.735,1.718,3.147,3.829,3.147h88.11c2.11,0,3.826-1.412,3.826-3.147V84.02c0-1.735-1.716-3.147-3.826-3.147Z" fill="#fff"/>
    <path id="Trazado_134059" data-name="Trazado 134059" d="M170.012,158.959c-.249-5.564-1.956-24.392-13.448-33.065l.325-.43c4.383,3.308,7.832,8.441,10.25,15.257a64.668,64.668,0,0,1,3.412,18.214Z" fill="#ef7e6b"/>
    <path id="Trazado_134060" data-name="Trazado 134060" d="M164.994,160.355l-.535-.07a128.542,128.542,0,0,1,6.4-26.384,28.446,28.446,0,0,1,3.758-7.242l.441.31a27.9,27.9,0,0,0-3.69,7.111,127.97,127.97,0,0,0-6.371,26.275" fill="#ef7e6b"/>
    <path id="Trazado_134061" data-name="Trazado 134061" d="M171.455,161.869a38.137,38.137,0,0,1-.931-8.5,17.26,17.26,0,0,1,1.815-8.171c2.784-4.982,8.63-7.223,13.045-8.224l.119.527c-4.308.977-10.007,3.151-12.693,7.96-2.943,5.269-1.378,13.8-.828,16.293Z" fill="#ef7e6b"/>
    <path id="Trazado_134062" data-name="Trazado 134062" d="M185.03,145.329a23.225,23.225,0,0,1-2.836-1.1,3.756,3.756,0,0,1-2.014-1.637,2.671,2.671,0,0,1,.182-2.414,4.109,4.109,0,0,1,1.9-1.617,10.019,10.019,0,0,1,2.42-.658c-.018-.094-.035-.174-.052-.249-.036-.16-.07-.3-.108-.5q-1.226.132-2.449.33a3.022,3.022,0,0,1-2.455-.275,1.958,1.958,0,0,1-.576-1.35,4.784,4.784,0,0,1,1.875-3.944,7.723,7.723,0,0,1,4.468-1.6,2.519,2.519,0,0,0-.856,1.313.854.854,0,0,0,.895.983c.466-.075.72-.54.98-.915a3.966,3.966,0,0,1,2.688-1.611,4.108,4.108,0,0,1,3.074.813,5.61,5.61,0,0,0-2.218,1.378,1.685,1.685,0,0,0-.46.7.706.706,0,0,0,.217.75.919.919,0,0,0,1.034-.081,5.973,5.973,0,0,0,.754-.779,3.124,3.124,0,0,1,2.874-.8,3.085,3.085,0,0,1,2.222,1.953,2.36,2.36,0,0,0-2.532,1.509,1.565,1.565,0,0,0,1.47-.068,3.535,3.535,0,0,1,1.372-.545,1.972,1.972,0,0,1,1.522.775,8.831,8.831,0,0,1,.9,1.486,5.122,5.122,0,0,0,1.106,1.306,2.181,2.181,0,0,0-.295-.154,1.622,1.622,0,0,0-1.426,0,7.088,7.088,0,0,0-1.354,1.185,2.071,2.071,0,0,1-1.579.69,3.484,3.484,0,0,1-1.41-.752,1.546,1.546,0,0,0-1.507-.3c-.089.047.592.982.657,1.059a5.17,5.17,0,0,0,.986.765,3.075,3.075,0,0,1-1.962.566,3.791,3.791,0,0,1-2.01-.567,3.9,3.9,0,0,0-.7-.4.776.776,0,0,0-.759.075c-.83.692,1.144,2.106,1.588,2.352a2.063,2.063,0,0,1-2.494,1.1c-.959-.356-1.561-1.41-2.32-2.2a1.576,1.576,0,0,0-.5-.386.639.639,0,0,0-.6.03.773.773,0,0,0-.3.582,2.412,2.412,0,0,0,.074.675q.261,1.265.515,2.529" fill="#ef7e6b"/>
    <path id="Trazado_134063" data-name="Trazado 134063" d="M169.005,124.941a13.3,13.3,0,0,0,.69,3.727,4.723,4.723,0,0,0,2.477,2.746,8.2,8.2,0,0,1,1.359-3.3,1.624,1.624,0,0,1,.163.258,1.82,1.82,0,0,1-.086,1.794c-.2.3-.482.532-.708.811a1.178,1.178,0,0,0-.31.992c.136.527.763.735,1.3.826a14.277,14.277,0,0,0,4.748,0,3.03,3.03,0,0,1-1.423-.877,1.044,1.044,0,0,1,.158-1.49,1.13,1.13,0,0,1,.854-.052c.282.079.546.214.826.3a2.567,2.567,0,0,0,2.813-1.006c.629-.949.39-2.256.277-3.388a3.134,3.134,0,0,1-1.6,1.034,1.015,1.015,0,0,1-1.027-.169.859.859,0,0,1,.175-1.136,4.422,4.422,0,0,1,1.105-.618,3.777,3.777,0,0,0,1.131-5.856,2.48,2.48,0,0,1-2.092,1.429.621.621,0,0,1-.623-.257.63.63,0,0,1,.156-.609c.4-.524.964-.89,1.4-1.378a1.744,1.744,0,0,0,.482-1.8c-.086-.19-.224-.353-.319-.539a.643.643,0,0,1-.038-.6l-.017,0a4.033,4.033,0,0,0-1.983.84,1.124,1.124,0,0,0-.525.946,6.518,6.518,0,0,0,.138,1.014.985.985,0,0,1-.3.928.754.754,0,0,1-.848-.035,1.235,1.235,0,0,1-.458-.756,3.709,3.709,0,0,1-.047-.9A3.752,3.752,0,0,0,174.6,121.9a2.514,2.514,0,0,1,.073.873.6.6,0,0,1-.6.524c-.322-.05-.463-.427-.542-.742q-.319-1.287-.64-2.574c-1.057,1.049-2.262,2.495-1.907,3.941q.289,1.185.579,2.367a1.14,1.14,0,0,1,.05.4.392.392,0,0,1-.215.323c-.216.089-.439-.1-.6-.275-.535-.589-1.26-1.207-1.795-1.8" fill="#fbc387"/>
    <path id="Trazado_134064" data-name="Trazado 134064" d="M168.308,160.268l-.579-9.226a24.256,24.256,0,0,0-.928-6.186,7.891,7.891,0,0,0-3.7-4.7,9.054,9.054,0,0,0-3.739-.829,20.333,20.333,0,0,0-7.753,1.171l-.183-.508a20.9,20.9,0,0,1,7.961-1.2,9.581,9.581,0,0,1,3.958.886,8.431,8.431,0,0,1,3.967,5.008,24.672,24.672,0,0,1,.954,6.324l.579,9.225Z" fill="#ef7e6b"/>
    <path id="Trazado_134065" data-name="Trazado 134065" d="M139.61,143.683a8.735,8.735,0,0,0,2.306,1.62,2.954,2.954,0,0,0,2.717-.1,11.05,11.05,0,0,0,1.108-1.016,1.58,1.58,0,0,1,1.37-.46,1.012,1.012,0,0,1,.415.227,1.348,1.348,0,0,1,.21,1.5,3.95,3.95,0,0,1-1.012,1.247,7.278,7.278,0,0,0,2.228.221,2.457,2.457,0,0,0,1.878-1.081,5.474,5.474,0,0,0,.422-1.231,1.815,1.815,0,0,1,.692-1.071.8.8,0,0,1,1.129.239,1.214,1.214,0,0,1-.008.776q-.266,1.137-.53,2.272a25.809,25.809,0,0,0,3.576-3.025,4.276,4.276,0,0,0,1.111-1.8,1.862,1.862,0,0,0-.569-1.934c-.783-.58-1.634-.2-2.434.081a3.053,3.053,0,0,1-1.888-.277l-.123-.044a9.824,9.824,0,0,0,1.936-.978,2.581,2.581,0,0,0,1.081-1.834,2.849,2.849,0,0,0-1.137-2.2,5.342,5.342,0,0,0-4.391-1.176,3.491,3.491,0,0,1,1.352,1.011,1.194,1.194,0,0,1-.088,1.552,1.29,1.29,0,0,1-1.514-.1,12.3,12.3,0,0,1-1.158-1.148,3.612,3.612,0,0,0-5.927,1.615,4.269,4.269,0,0,1,2.639-.113c.356.1.742.3.825.656a.855.855,0,0,1-.6.9,4.1,4.1,0,0,1-1.169.15,4.253,4.253,0,0,0-2.782,1.356,8.064,8.064,0,0,0-1.617,3.929l-.048.23" fill="#fbc387"/>
    <path id="Trazado_134066" data-name="Trazado 134066" d="M158.58,142.916a4.224,4.224,0,0,0,1.116,2.78,11.008,11.008,0,0,0,2.369,1.928,4.345,4.345,0,0,1,1.445-3.309,2.111,2.111,0,0,1,1.472-.622,1.175,1.175,0,0,1,.645.223,1.585,1.585,0,0,1,.225,1.944,4.824,4.824,0,0,0-.611,1.776,3.306,3.306,0,0,0,1.528,2.323,3.49,3.49,0,0,1,1.588,2.3l.045-.063q.654-.912,1.308-1.821a2.626,2.626,0,0,0,.713-2.1,4.408,4.408,0,0,0-.763-1.2,1.188,1.188,0,0,1-.152-1.329c.358-.48,1.131-.318,1.619.031a3.3,3.3,0,0,1,1.352,2.546,11.056,11.056,0,0,0,2.157-1.2,3.729,3.729,0,0,0,1.4-1.98,2.267,2.267,0,0,0-.641-2.258,6.873,6.873,0,0,0-2.024-.833c-.683-.268-1.364-.9-1.2-1.621a8.58,8.58,0,0,1,4.423,2.045,5.907,5.907,0,0,0-.924-3.4c-.93-1.16-2.536-1.424-4.042-1.544a.423.423,0,0,1-.39-.4v0a.425.425,0,0,1,.5-.437l1.954.34a.562.562,0,0,0,.567-.11.492.492,0,0,0,.108-.4,1.208,1.208,0,0,0-.459-.681,5.773,5.773,0,0,0-2.161-1.4,2.322,2.322,0,0,0-2.395.546,6.55,6.55,0,0,0-.862,2.164c-.089.235-.26.737-.545.836a.316.316,0,0,1-.1.017c-.454,0-.581-.779-.6-1.1a6.365,6.365,0,0,0-.056-1.34,2.218,2.218,0,0,0-1.6-1.457,6.548,6.548,0,0,0-2.249-.1,1.832,1.832,0,0,0-1.371.492.7.7,0,0,0-.128.708c.178.439.718.465,1.16.536.415.066.907.37.8.776s-.644.425-1.049.381a5.459,5.459,0,0,0-3.089.316,2.124,2.124,0,0,0-1.136,2.611l3.747-1.1c.355.425-.014,1.1-.512,1.346s-1.083.233-1.6.427a2.642,2.642,0,0,0-1.581,2.415" fill="#ef7e6b"/>
    <path id="Trazado_134067" data-name="Trazado 134067" d="M173.238,127.967l.075-.14c.047-.089.124-.228.221-.4.2-.341.488-.82.864-1.372s.831-1.18,1.324-1.845,1.018-1.369,1.51-2.1a17.93,17.93,0,0,0,1.306-2.213c.18-.37.342-.735.5-1.08s.309-.672.462-.967a8.853,8.853,0,0,1,.451-.786,5.937,5.937,0,0,1,.41-.565c.124-.149.229-.258.3-.332l.114-.111-.108.116c-.069.077-.169.191-.284.345a6.018,6.018,0,0,0-.381.579,8.643,8.643,0,0,0-.41.8c-.138.3-.273.63-.414.982s-.285.725-.449,1.107a18.224,18.224,0,0,1-1.219,2.305c-.463.757-.96,1.49-1.419,2.177s-.884,1.328-1.226,1.887-.6,1.035-.776,1.371c-.085.168-.15.3-.2.393s-.068.143-.068.143Z" fill="#ec7724"/>
    <path id="Trazado_134068" data-name="Trazado 134068" d="M179.421,116.45a.553.553,0,0,1,0,.067c0,.021,0,.046-.005.073s0,.056-.008.088-.007.066-.011.1-.007.072-.011.11-.008.077-.011.116l-.012.118c-.013.162-.026.324-.036.446,0,.033-.006.063-.009.09l-.008.072c0,.04-.009.066-.009.066a.561.561,0,0,1-.048-.048.647.647,0,0,1-.1-.144.733.733,0,0,1-.045-.106.914.914,0,0,1-.034-.125.857.857,0,0,1-.015-.136,1.122,1.122,0,0,1,0-.142,1.077,1.077,0,0,1,.024-.14.919.919,0,0,1,.04-.132.956.956,0,0,1,.055-.116.943.943,0,0,1,.064-.1.632.632,0,0,1,.121-.125.646.646,0,0,1,.055-.038" fill="#ec7724"/>
    <path id="Trazado_134069" data-name="Trazado 134069" d="M181.148,117.309l0,.023a.593.593,0,0,1-.009.064c-.006.027-.014.061-.026.1a1,1,0,0,1-.049.122,1.108,1.108,0,0,1-.188.271,1.134,1.134,0,0,1-.139.127,1.2,1.2,0,0,1-.344.185,1.25,1.25,0,0,1-.182.047,1.212,1.212,0,0,1-.175.016,1.26,1.26,0,0,1-.156-.009.92.92,0,0,1-.128-.027.7.7,0,0,1-.1-.033.483.483,0,0,1-.058-.027l-.021-.011.084-.021c.053-.013.126-.031.209-.055s.176-.054.272-.09c.048-.018.1-.04.145-.061s.09-.042.147-.072c.042-.023.092-.052.136-.079s.088-.058.13-.088c.084-.06.16-.121.226-.177l.09-.08.07-.064c.039-.037.064-.059.064-.059" fill="#ec7724"/>
    <path id="Trazado_134070" data-name="Trazado 134070" d="M176.607,118.17s-.013.072-.039.195-.066.3-.116.508-.1.451-.152.71c-.025.13-.047.264-.068.4s-.037.274-.049.412-.017.276-.019.413,0,.27.014.4.024.254.044.372.043.228.067.33c.014.051.028.1.04.145s.028.09.041.131c.03.08.054.152.079.21s.044.1.057.134.021.048.021.048-.013-.013-.035-.039a1.4,1.4,0,0,1-.1-.114c-.019-.025-.041-.053-.063-.085s-.043-.068-.068-.1-.046-.081-.07-.125-.046-.093-.069-.143a2.78,2.78,0,0,1-.125-.336,3.158,3.158,0,0,1-.088-.391,3.676,3.676,0,0,1-.041-.427,4.341,4.341,0,0,1,.012-.442c.014-.147.034-.293.06-.436s.06-.28.1-.412.077-.257.12-.375.086-.227.128-.327.083-.191.12-.27.073-.149.1-.205.053-.1.069-.13l.026-.045" fill="#ec7724"/>
    <path id="Trazado_134071" data-name="Trazado 134071" d="M182.054,120.1l-.006.082c-.006.054-.007.133-.024.232-.008.05-.014.106-.025.166s-.025.125-.039.194-.036.142-.055.218-.049.156-.075.239-.06.168-.1.255-.075.177-.122.266a4.382,4.382,0,0,1-.319.548,4.635,4.635,0,0,1-.429.528,4.464,4.464,0,0,1-.531.465l-.145.1c-.045.033-.1.063-.15.094-.1.065-.208.115-.312.169s-.211.1-.319.134-.214.073-.32.1a3.76,3.76,0,0,1-.626.116c-.1.013-.2.015-.294.019s-.186,0-.274-.005-.171-.013-.25-.023l-.223-.038-.193-.046c-.059-.015-.112-.035-.161-.049a2.17,2.17,0,0,1-.219-.083l-.076-.032.081.015c.053.01.129.029.228.042.05.006.1.016.163.022s.124.011.192.017l.218.007.241,0a4.525,4.525,0,0,0,.536-.064,4.285,4.285,0,0,0,.579-.148,4.707,4.707,0,0,0,.589-.245c.095-.052.193-.1.283-.16.046-.028.091-.054.138-.088l.138-.1a4.99,4.99,0,0,0,.5-.426,5.522,5.522,0,0,0,.422-.481,5.2,5.2,0,0,0,.337-.5c.1-.165.182-.327.256-.479l.1-.222.082-.2c.023-.064.043-.126.064-.182s.035-.109.051-.156c.031-.1.05-.172.065-.224l.023-.079" fill="#ec7724"/>
    <path id="Trazado_134072" data-name="Trazado 134072" d="M172.659,120.472l-.022.254c-.007.08-.015.177-.024.289s-.014.237-.023.374-.01.285-.014.441,0,.321,0,.491.011.345.023.523c.005.089.013.179.021.268l.012.134.015.136c.019.178.047.356.08.528.017.086.037.171.057.254s.045.164.072.242a3.032,3.032,0,0,0,.181.441,2.73,2.73,0,0,0,.226.362,2.419,2.419,0,0,0,.24.274,2.055,2.055,0,0,0,.218.184,1.757,1.757,0,0,0,.155.1l.057.034-.064-.019a.671.671,0,0,1-.077-.025,1.026,1.026,0,0,1-.1-.041,1.567,1.567,0,0,1-.26-.147,1.814,1.814,0,0,1-.3-.251,2.138,2.138,0,0,1-.29-.363,2.687,2.687,0,0,1-.237-.46,4.2,4.2,0,0,1-.257-1.083c-.02-.184-.034-.374-.04-.556s-.005-.366,0-.541.023-.344.04-.5.042-.309.067-.446.053-.262.08-.372.055-.205.079-.283.044-.138.058-.179l.022-.063" fill="#ec7724"/>
    <path id="Trazado_134073" data-name="Trazado 134073" d="M169.26,125.681s.026.076.068.209.1.321.178.542c.04.11.086.228.138.35.014.029.027.06.041.09s.029.065.044.094c.03.061.063.124.1.185s.073.123.112.184.083.12.127.178a2.281,2.281,0,0,0,.3.319l.088.07a.889.889,0,0,0,.089.064c.055.039.121.074.183.11a2.325,2.325,0,0,0,.4.158,2.3,2.3,0,0,0,.4.076,2.53,2.53,0,0,0,.365.011l.164-.017.147-.023c.046-.011.089-.022.129-.03s.076-.022.109-.032c.066-.018.116-.04.151-.052l.054-.02-.045.035a1.227,1.227,0,0,1-.136.092c-.03.017-.064.039-.1.058s-.081.038-.126.059-.1.035-.149.055-.112.029-.172.045-.124.024-.191.031a1.747,1.747,0,0,1-.208.013,2.013,2.013,0,0,1-.449-.043,1.778,1.778,0,0,1-.232-.064,1.966,1.966,0,0,1-.23-.092,1.945,1.945,0,0,1-.223-.127,1.115,1.115,0,0,1-.1-.073l-.1-.077a2.245,2.245,0,0,1-.339-.372,2.584,2.584,0,0,1-.243-.414c-.032-.071-.063-.14-.088-.211-.014-.035-.025-.068-.037-.1s-.023-.069-.033-.1c-.04-.134-.069-.262-.092-.381a4.922,4.922,0,0,1-.072-.576c0-.07-.006-.125-.008-.163v-.057" fill="#ec7724"/>
    <path id="Trazado_134074" data-name="Trazado 134074" d="M182.053,126.677l-.041.094c-.026.061-.065.151-.119.263s-.122.247-.211.4a4.168,4.168,0,0,1-.325.489c-.033.044-.067.086-.1.131s-.071.085-.112.129a3.509,3.509,0,0,1-.261.255,2.822,2.822,0,0,1-.664.441c-.062.029-.127.057-.194.082-.034.012-.064.024-.1.036l-.1.03a2.751,2.751,0,0,1-.431.083,4.949,4.949,0,0,1-.869.014c-.286-.021-.566-.052-.846-.081s-.552-.068-.817-.112a6.622,6.622,0,0,1-.757-.171l-.09-.026-.084-.027c-.057-.017-.115-.037-.17-.057-.108-.041-.214-.083-.311-.128a3.583,3.583,0,0,1-.883-.55,2.889,2.889,0,0,1-.209-.2l-.069-.075.081.063c.052.041.132.1.233.165a4.06,4.06,0,0,0,.384.219,4.679,4.679,0,0,0,.525.219,6.026,6.026,0,0,0,.649.182c.233.051.483.091.742.126s.53.058.806.085.56.053.836.07a4.64,4.64,0,0,0,.817,0,3.188,3.188,0,0,0,.385-.063l.1-.027.09-.027c.06-.02.119-.043.177-.067a2.992,2.992,0,0,0,.629-.373c.093-.071.179-.147.261-.222.039-.037.079-.077.118-.116s.074-.076.11-.114a6.778,6.778,0,0,0,.614-.808l.158-.241.054-.086" fill="#ec7724"/>
    <path id="Trazado_134075" data-name="Trazado 134075" d="M173.775,130.342l.02.049c.013.032.03.081.057.138.014.028.027.06.045.093s.037.07.057.108l.073.118.086.124a2.784,2.784,0,0,0,.222.258,2.971,2.971,0,0,0,.277.254,3.623,3.623,0,0,0,.327.234,3.883,3.883,0,0,0,.362.2c.135.065.257.114.389.166s.26.092.388.132.253.075.373.106l.339.09c.212.053.389.1.514.133s.194.056.194.056-.074,0-.2,0c-.065,0-.143,0-.233,0s-.191-.008-.3-.017-.23-.02-.356-.039-.259-.041-.4-.07-.278-.069-.418-.115a3.919,3.919,0,0,1-.416-.167,3.262,3.262,0,0,1-.4-.229,2.772,2.772,0,0,1-.343-.278,2.431,2.431,0,0,1-.274-.308,2.126,2.126,0,0,1-.195-.313c-.025-.051-.049-.1-.069-.148s-.034-.1-.05-.138-.024-.086-.033-.124-.015-.076-.021-.108a1.1,1.1,0,0,1-.017-.149l0-.053" fill="#ec7724"/>
    <path id="Trazado_134076" data-name="Trazado 134076" d="M151.919,140.141l-.137-.07-.075-.037-.043-.022-.043-.018c-.06-.025-.126-.055-.205-.086s-.172-.064-.273-.094-.21-.063-.33-.086-.249-.049-.385-.071-.282-.035-.435-.04a6,6,0,0,0-.99.03,7.042,7.042,0,0,0-1.1.214c-.092.028-.19.053-.281.084s-.2.062-.288.1-.189.067-.284.1l-.144.056-.143.06c-.381.161-.762.346-1.137.544-.751.4-1.482.841-2.179,1.242a19.761,19.761,0,0,1-1.953,1.011c-.295.13-.57.238-.818.321s-.466.148-.647.2-.326.079-.424.1l-.151.03.149-.037c.1-.023.239-.063.418-.117s.393-.129.634-.227.509-.215.8-.357a19.927,19.927,0,0,0,1.888-1.1c.674-.432,1.383-.913,2.126-1.352.371-.219.752-.427,1.138-.612l.144-.069.146-.065c.1-.045.2-.085.294-.126s.194-.076.29-.113.2-.069.295-.1a7.518,7.518,0,0,1,1.159-.284,6.5,6.5,0,0,1,1.075-.085c.169,0,.33.011.484.021s.3.032.435.059.263.053.38.08.223.064.319.092.184.068.26.1l.055.02.044.02.076.034.141.063Z" fill="#ec7724"/>
    <path id="Trazado_134077" data-name="Trazado 134077" d="M140.545,141.024s.034-.013.094-.029a.885.885,0,0,1,.11-.022c.022,0,.045-.006.07-.009s.05,0,.077,0a1.154,1.154,0,0,1,.175,0,1.381,1.381,0,0,1,.193.028,1.451,1.451,0,0,1,.2.057,1.578,1.578,0,0,1,.386.191,1.972,1.972,0,0,1,.167.126,1.628,1.628,0,0,1,.138.137l.059.069c.018.023.034.046.05.068s.03.043.043.064l.034.061a.914.914,0,0,1,.049.1c.024.058.034.092.034.092s-.032-.019-.081-.055c-.023-.019-.055-.039-.089-.063s-.071-.051-.113-.078-.086-.058-.133-.089-.1-.06-.148-.093-.106-.063-.162-.092-.112-.06-.168-.09-.115-.056-.173-.08-.115-.049-.17-.074-.111-.044-.164-.062-.1-.038-.151-.052-.091-.031-.13-.043-.075-.026-.1-.033c-.059-.018-.093-.031-.093-.031" fill="#ec7724"/>
    <path id="Trazado_134078" data-name="Trazado 134078" d="M142.1,139.3l.039-.008c.025,0,.062-.012.11-.019.1-.015.23-.031.394-.042a4.378,4.378,0,0,1,.561,0c.1.007.21.018.318.034s.216.039.325.065.216.061.318.1a2.863,2.863,0,0,1,.3.13,2.242,2.242,0,0,1,.261.154,2.21,2.21,0,0,1,.216.164c.031.028.061.055.088.082s.052.053.075.078a1.46,1.46,0,0,1,.111.135c.03.038.049.072.064.093l.02.034-.125-.084c-.039-.026-.088-.055-.143-.09s-.119-.068-.189-.105-.145-.075-.227-.111-.169-.072-.259-.107-.186-.066-.283-.1-.194-.057-.3-.083c-.4-.1-.822-.164-1.14-.219-.159-.027-.293-.051-.387-.07s-.147-.033-.147-.033" fill="#ec7724"/>
    <path id="Trazado_134079" data-name="Trazado 134079" d="M142.512,136.293s.122-.051.337-.133c.107-.04.238-.09.39-.142s.323-.111.513-.166.4-.114.621-.161a6.4,6.4,0,0,1,.711-.116c.063-.008.126-.012.19-.017l.047,0,.027,0h.023l.1,0c.127,0,.264,0,.395,0a4.291,4.291,0,0,1,.8.116,3.628,3.628,0,0,1,.763.279,3.026,3.026,0,0,1,.656.441,2.846,2.846,0,0,1,.482.558,2.9,2.9,0,0,1,.3.582,3.23,3.23,0,0,1,.207.942,2.563,2.563,0,0,1,0,.269l0,.094-.014-.093c-.007-.061-.024-.15-.046-.262-.013-.055-.025-.117-.044-.183-.009-.033-.019-.067-.028-.1s-.023-.071-.034-.109a4.033,4.033,0,0,0-.2-.486,3.4,3.4,0,0,0-.325-.522,2.868,2.868,0,0,0-.472-.484,3,3,0,0,0-.611-.383,3.626,3.626,0,0,0-.706-.249,4.417,4.417,0,0,0-.746-.117c-.127-.009-.246-.014-.371-.015h-.139l-.046,0c-.061,0-.121,0-.181.008-.24.014-.473.039-.693.071s-.428.069-.62.108-.367.075-.523.11l-.4.089c-.225.05-.354.076-.354.076" fill="#ec7724"/>
    <path id="Trazado_134080" data-name="Trazado 134080" d="M150.449,133.939l.086-.018a1.748,1.748,0,0,1,.248-.027,1.949,1.949,0,0,1,.39.027,2.074,2.074,0,0,1,.491.147,2.707,2.707,0,0,1,.263.133c.044.027.089.054.131.085l.067.048.062.048a2.66,2.66,0,0,1,.476.493,3.144,3.144,0,0,1,.364.633,3.421,3.421,0,0,1,.13.35,3,3,0,0,1,.09.372,2.237,2.237,0,0,1,.007.77c-.011.064-.026.126-.043.188l-.008.027-.007.021-.015.042c-.008.026-.023.06-.034.09a1.84,1.84,0,0,1-.178.328,2.168,2.168,0,0,1-.473.5,2.475,2.475,0,0,1-.26.18c-.047.027-.084.048-.13.072s-.087.044-.13.064a3.3,3.3,0,0,1-.474.178c-.143.044-.27.072-.375.094s-.187.034-.244.044l-.086.013.082-.03.232-.084c.1-.038.218-.086.352-.144a4.751,4.751,0,0,0,.433-.223c.038-.023.077-.047.114-.072s.08-.054.116-.08a2.669,2.669,0,0,0,.226-.183,2.175,2.175,0,0,0,.394-.474,1.812,1.812,0,0,0,.14-.287c.008-.025.017-.045.026-.075l.012-.042.007-.021,0-.016c.014-.053.025-.106.034-.16a2.105,2.105,0,0,0-.016-.671,2.889,2.889,0,0,0-.078-.334c-.035-.113-.071-.221-.115-.327a3.2,3.2,0,0,0-.143-.308c-.052-.1-.109-.193-.169-.284a2.787,2.787,0,0,0-.4-.475,2.4,2.4,0,0,0-.456-.331,2.24,2.24,0,0,0-.808-.269,2.393,2.393,0,0,0-.243-.015h-.088" fill="#ec7724"/>
    <path id="Trazado_134081" data-name="Trazado 134081" d="M141.023,144.663l.035-.007c.022,0,.057-.009.1-.018s.09-.02.146-.033.117-.033.183-.055.135-.048.206-.081a2.108,2.108,0,0,0,.217-.11,2.552,2.552,0,0,0,.214-.142c.034-.027.068-.054.1-.083.017-.014.034-.028.05-.043l.044-.043a2.078,2.078,0,0,0,.177-.2c.052-.07.1-.14.145-.212s.081-.144.113-.215.059-.14.084-.205.041-.127.057-.183.027-.1.035-.146.015-.074.02-.1l.007-.035.01.035a.864.864,0,0,1,.023.1,1.54,1.54,0,0,1,.02.157c0,.03,0,.063,0,.1s0,.071-.005.109a1.644,1.644,0,0,1-.041.243,1.605,1.605,0,0,1-.09.263,1.693,1.693,0,0,1-.145.262,1.933,1.933,0,0,1-.2.236l-.061.056c-.019.018-.04.034-.06.05-.039.034-.082.062-.124.092a1.69,1.69,0,0,1-.264.142,1.58,1.58,0,0,1-.263.086,1.654,1.654,0,0,1-.244.038c-.038,0-.074,0-.109,0l-.1,0a1.142,1.142,0,0,1-.157-.022.68.68,0,0,1-.1-.024l-.034-.01" fill="#ec7724"/>
    <path id="Trazado_134082" data-name="Trazado 134082" d="M142.885,145.415l.05-.028c.032-.017.081-.043.14-.077s.13-.077.211-.125.168-.109.263-.174.193-.142.294-.226.2-.175.307-.272.2-.206.3-.318.189-.231.276-.354.164-.251.239-.38.139-.261.2-.39.11-.258.152-.382.08-.242.112-.353.055-.214.075-.307.035-.173.045-.241.02-.121.026-.157l.009-.057.008.057c0,.036.014.091.017.16s.009.153.009.251c0,.048,0,.1-.005.155s-.009.111-.015.171a3.337,3.337,0,0,1-.064.384,3.53,3.53,0,0,1-.122.418,3.874,3.874,0,0,1-.187.429,4.251,4.251,0,0,1-.25.414,4,4,0,0,1-.3.376,3.762,3.762,0,0,1-.339.321,3.523,3.523,0,0,1-.352.257,3.422,3.422,0,0,1-.339.191c-.054.026-.106.051-.156.073l-.144.057c-.091.033-.172.059-.239.077s-.12.029-.156.038l-.056.012" fill="#ec7724"/>
    <path id="Trazado_134083" data-name="Trazado 134083" d="M147.122,146.593l.087-.022c.029-.007.063-.018.1-.029s.086-.028.136-.048a2.709,2.709,0,0,0,.76-.442c.07-.057.14-.121.209-.189s.139-.144.2-.222a3.921,3.921,0,0,0,.371-.533c.056-.1.11-.2.161-.3.026-.052.05-.106.074-.159l.036-.082.017-.041.009-.02.007-.018c.022-.057.043-.114.065-.172l.033-.086.028-.085.055-.17c.018-.057.032-.116.048-.175a5.945,5.945,0,0,0,.144-.707,6.258,6.258,0,0,0,.055-.7c0-.057,0-.113,0-.169l0-.167c0-.11-.011-.217-.017-.322-.018-.208-.044-.406-.076-.587-.013-.091-.037-.176-.052-.259s-.037-.16-.055-.232c-.036-.147-.078-.271-.109-.375s-.064-.184-.082-.239-.03-.085-.03-.085l.045.078c.028.051.075.124.122.223a3.773,3.773,0,0,1,.162.362,4.268,4.268,0,0,1,.167.489c.023.091.052.186.073.287q.015.075.03.153t.027.159c.014.108.034.219.041.333.005.058.01.115.014.174s0,.117.006.177,0,.12,0,.181,0,.121-.007.183c0,.123-.018.246-.028.372a5.418,5.418,0,0,1-.144.748c-.017.061-.032.123-.052.184s-.041.123-.061.184l-.031.092-.035.086-.069.171-.011.025-.009.021-.019.043c-.013.029-.027.057-.04.085-.028.056-.055.112-.085.166-.058.109-.119.215-.185.316a3.6,3.6,0,0,1-.431.544,2.978,2.978,0,0,1-.235.22c-.081.065-.161.126-.242.179a2.446,2.446,0,0,1-.462.244,2.03,2.03,0,0,1-.382.117,1.843,1.843,0,0,1-.253.037l-.09.005" fill="#ec7724"/>
    <path id="Trazado_134084" data-name="Trazado 134084" d="M147.411,143.618l.086-.127c.027-.04.056-.09.092-.146s.069-.123.106-.193.075-.149.109-.233.068-.173.1-.266.055-.191.077-.292a3.033,3.033,0,0,0,.047-.3c.01-.108.013-.205.013-.308s-.008-.2-.019-.3-.026-.191-.046-.28-.04-.172-.061-.25-.045-.148-.067-.21-.043-.117-.062-.161l-.059-.142.029.028a.8.8,0,0,1,.08.082,1.624,1.624,0,0,1,.113.139l.063.091c.021.033.041.069.063.106a2.056,2.056,0,0,1,.118.253,2.175,2.175,0,0,1,.138.632,2.388,2.388,0,0,1,0,.349,2.436,2.436,0,0,1-.062.343,2.318,2.318,0,0,1-.112.317,2.046,2.046,0,0,1-.147.276,2.281,2.281,0,0,1-.164.226c-.029.032-.055.063-.083.091l-.079.077a1.415,1.415,0,0,1-.138.115.874.874,0,0,1-.094.065l-.034.021" fill="#ec7724"/>
    <path id="Trazado_134085" data-name="Trazado 134085" d="M152.865,145.914l.061-.063c.04-.041.1-.1.169-.18a5.953,5.953,0,0,0,.542-.681,4.332,4.332,0,0,0,.288-.5c.045-.092.085-.184.124-.286s.071-.2.1-.3a2.972,2.972,0,0,0,.1-.659,2.4,2.4,0,0,0-.009-.339,2.1,2.1,0,0,0-.056-.336l-.021-.079-.027-.087c-.019-.056-.035-.1-.058-.157a2.469,2.469,0,0,0-.151-.305,3.2,3.2,0,0,0-.395-.54,4.215,4.215,0,0,0-.461-.44c-.156-.128-.314-.244-.462-.346-.3-.2-.558-.36-.739-.472s-.284-.178-.284-.178.115.043.312.125c.1.041.218.091.352.154s.288.135.449.224a4.868,4.868,0,0,1,.509.316,3.839,3.839,0,0,1,.517.434,2.968,2.968,0,0,1,.239.27,2.538,2.538,0,0,1,.213.3,2.41,2.41,0,0,1,.175.339c.025.057.048.124.069.183l.028.087c.011.037.017.064.025.1a2.494,2.494,0,0,1,.065.762,2.635,2.635,0,0,1-.048.37,2.762,2.762,0,0,1-.092.35,3,3,0,0,1-.128.327c-.047.1-.1.2-.153.292a3.473,3.473,0,0,1-.347.493,4.08,4.08,0,0,1-.346.368c-.108.1-.21.186-.293.253s-.152.116-.2.15l-.072.05" fill="#ec7724"/>
    <path id="Trazado_134086" data-name="Trazado 134086" d="M168.214,138.344l-.1.123a.138.138,0,0,0-.019.028l-.019.028-.043.065a1.978,1.978,0,0,0-.1.192,2.2,2.2,0,0,0-.169.577,3.1,3.1,0,0,0-.037.381,3.784,3.784,0,0,0,.014.433,4.144,4.144,0,0,0,.068.473l.012.062,0,.012,0,.016.008.032c.01.044.02.087.031.131.021.083.042.167.068.255.1.35.226.719.352,1.11a8.212,8.212,0,0,1,.318,1.245c.008.054.017.1.024.16l.019.168c.015.113.018.222.027.333.009.222.014.444,0,.665a11.849,11.849,0,0,1-.123,1.305c-.061.426-.134.841-.2,1.242s-.132.787-.178,1.156-.076.717-.086,1.041a7.754,7.754,0,0,0,.022.883c.015.13.026.253.046.365s.038.216.057.309.043.174.06.245.038.131.053.18l.048.148-.055-.146c-.018-.048-.041-.106-.061-.177s-.051-.151-.072-.244-.051-.194-.072-.307-.043-.235-.064-.366a7.68,7.68,0,0,1-.065-.891c-.006-.327.008-.682.037-1.056s.073-.766.124-1.17.1-.821.142-1.243a11.6,11.6,0,0,0,.061-1.277c0-.213-.016-.425-.034-.635-.014-.1-.022-.21-.04-.31l-.025-.151c-.008-.05-.021-.1-.031-.156a7.782,7.782,0,0,0-.358-1.168c-.142-.377-.29-.745-.411-1.108-.031-.09-.059-.183-.087-.274-.012-.044-.025-.088-.037-.131l-.009-.032-.005-.016,0-.02-.017-.068a4.737,4.737,0,0,1-.1-.527,4.38,4.38,0,0,1-.039-.5,3.558,3.558,0,0,1,.022-.458,2.828,2.828,0,0,1,.181-.742,2.588,2.588,0,0,1,.121-.264c.023-.04.045-.076.065-.109l.029-.048a.423.423,0,0,1,.025-.038l.091-.127Z" fill="#ec7724"/>
    <path id="Trazado_134087" data-name="Trazado 134087" d="M162.367,135.033l.066-.014a1.365,1.365,0,0,1,.188-.032c.041,0,.087-.011.137-.014s.105,0,.163-.005l.185.008c.065.006.133.015.205.024a2.853,2.853,0,0,1,.452.111,3.171,3.171,0,0,1,.48.2l.121.064c.041.022.079.047.119.071.081.047.157.1.236.156a4.354,4.354,0,0,1,.442.372,4.97,4.97,0,0,1,.38.423c.117.147.223.3.32.448s.181.3.255.443.142.282.2.41c.029.065.057.126.081.185l.068.169c.042.107.076.2.1.278s.046.139.06.181.021.064.021.064-.051-.08-.135-.22l-.35-.576c-.073-.118-.154-.245-.24-.377s-.183-.268-.283-.407-.21-.277-.324-.414-.234-.264-.37-.4a5.2,5.2,0,0,0-.4-.35,4.986,4.986,0,0,0-.429-.291,3.949,3.949,0,0,0-.432-.223,4.1,4.1,0,0,0-.411-.151l-.189-.05-.173-.036-.155-.023c-.048-.007-.092-.009-.132-.013-.081-.009-.146-.008-.19-.01l-.067,0" fill="#ec7724"/>
    <path id="Trazado_134088" data-name="Trazado 134088" d="M167.778,147.951l-.024.008c-.015.005-.039.011-.066.021s-.06.022-.1.035-.076.032-.118.052-.086.044-.13.071-.088.058-.132.09-.085.071-.126.109a1.482,1.482,0,0,0-.112.126l-.026.036c-.011.015-.017.024-.024.035s-.029.046-.043.07a1.487,1.487,0,0,0-.074.15,1.581,1.581,0,0,0-.053.15c-.016.049-.026.1-.036.143s-.015.089-.02.128-.009.074-.01.1l0,.094-.015-.02a.421.421,0,0,1-.038-.061.75.75,0,0,1-.047-.1,1.026,1.026,0,0,1-.039-.142.959.959,0,0,1-.013-.175.982.982,0,0,1,.022-.2,1.085,1.085,0,0,1,.068-.2,1.1,1.1,0,0,1,.054-.1c.011-.016.022-.035.031-.047l.031-.045a1.189,1.189,0,0,1,.157-.16,1.036,1.036,0,0,1,.179-.117.967.967,0,0,1,.358-.1.879.879,0,0,1,.146,0,.774.774,0,0,1,.111.02.373.373,0,0,1,.068.021l.023.009" fill="#ec7724"/>
    <path id="Trazado_134089" data-name="Trazado 134089" d="M168.6,148.079s.025.006.065.02a.815.815,0,0,1,.156.077,1.163,1.163,0,0,1,.188.151c.03.033.062.066.09.1s.055.075.081.113.048.081.067.123a1.229,1.229,0,0,1,.051.126,1.085,1.085,0,0,1,.053.235.74.74,0,0,1-.011.241s-.019-.018-.046-.049-.065-.076-.1-.129l-.063-.086c-.021-.032-.045-.062-.066-.1l-.068-.1c-.022-.034-.044-.07-.066-.1s-.044-.07-.065-.106-.043-.07-.062-.1-.038-.069-.056-.1l-.049-.1-.04-.082-.03-.069a.549.549,0,0,1-.024-.064" fill="#ec7724"/>
    <path id="Trazado_134090" data-name="Trazado 134090" d="M168.018,145.487l-.033.009-.094.025c-.039.01-.086.027-.139.043s-.111.041-.173.067-.127.058-.192.1a2.174,2.174,0,0,0-.2.123c-.067.047-.131.1-.2.154a2.159,2.159,0,0,0-.177.181l-.042.051c-.016.019-.026.034-.038.051s-.048.067-.072.1a2.315,2.315,0,0,0-.121.216,2.187,2.187,0,0,0-.09.218c-.027.071-.046.14-.064.2s-.029.126-.039.181-.017.1-.021.145c-.009.082-.014.13-.014.13l-.013-.032a.858.858,0,0,1-.032-.093,1.121,1.121,0,0,1-.035-.15c-.005-.029-.008-.061-.012-.094s0-.069-.006-.106a1.576,1.576,0,0,1,.016-.24,1.594,1.594,0,0,1,.064-.263,1.639,1.639,0,0,1,.118-.266,1.333,1.333,0,0,1,.082-.13c.015-.021.031-.044.045-.061l.046-.058a1.733,1.733,0,0,1,.219-.21,1.591,1.591,0,0,1,.245-.158,1.543,1.543,0,0,1,.25-.1,1.622,1.622,0,0,1,.234-.054c.037,0,.072-.008.105-.01l.095,0a1.255,1.255,0,0,1,.154.011.664.664,0,0,1,.1.017l.034.008" fill="#ec7724"/>
    <path id="Trazado_134091" data-name="Trazado 134091" d="M172.639,147.876l.046-.083c.032-.052.07-.134.118-.235a3.322,3.322,0,0,0,.138-.383,3.021,3.021,0,0,0,.1-.512,3.26,3.26,0,0,0,.008-.612,3.163,3.163,0,0,0-.13-.665c-.019-.055-.035-.114-.057-.166s-.044-.119-.069-.17-.048-.108-.077-.162l-.042-.082-.046-.08a3.658,3.658,0,0,0-.437-.6,4,4,0,0,0-.55-.509,4.2,4.2,0,0,0-.617-.39,4.519,4.519,0,0,0-.629-.269,5.664,5.664,0,0,0-.6-.165c-.189-.04-.364-.069-.521-.088s-.294-.03-.408-.038-.2-.011-.265-.011l-.1,0,.094-.014c.061-.009.15-.021.265-.031s.255-.019.416-.017a4.6,4.6,0,0,1,1.177.153,4.122,4.122,0,0,1,.684.245,3.919,3.919,0,0,1,.671.4,3.837,3.837,0,0,1,.6.542,3.621,3.621,0,0,1,.468.662l.047.088.044.09c.029.059.054.122.08.184s.044.121.065.18.037.126.056.188a3.063,3.063,0,0,1,.1.726,3.024,3.024,0,0,1-.061.65,2.624,2.624,0,0,1-.162.523,2.527,2.527,0,0,1-.193.372,2.133,2.133,0,0,1-.156.218l-.06.073" fill="#ec7724"/>
    <path id="Trazado_134092" data-name="Trazado 134092" d="M176.108,141.4l-.041-.094c-.014-.03-.029-.068-.05-.112s-.049-.09-.077-.145a3.543,3.543,0,0,0-.239-.37,3.792,3.792,0,0,0-.378-.424,4.3,4.3,0,0,0-.518-.423,5.449,5.449,0,0,0-.644-.377c-.116-.058-.236-.111-.359-.162l-.094-.036-.047-.018-.023-.01-.006,0h0s0,0,0,0l-.012,0-.2-.068c-.133-.049-.262-.079-.394-.118-.064-.021-.133-.032-.2-.048s-.135-.031-.2-.045a6.745,6.745,0,0,0-.818-.11c-.068,0-.136-.011-.2-.013l-.2-.006c-.134-.007-.266,0-.4,0s-.257.019-.383.025-.246.028-.366.042l-.344.058-.32.069c-.2.054-.389.1-.551.159l-.119.038-.108.04-.192.071c-.115.046-.2.085-.266.111l-.094.039.087-.054c.057-.034.138-.09.247-.15l.183-.1c.033-.017.068-.036.1-.054l.115-.051c.08-.034.164-.077.256-.11s.188-.071.29-.107l.322-.1.35-.084c.122-.021.247-.046.376-.066.065-.009.13-.017.2-.024s.133-.017.2-.019c.135-.007.272-.021.412-.019l.211,0c.07,0,.141.008.212.011a6.794,6.794,0,0,1,.858.106c.071.014.142.033.212.049s.141.03.211.053c.139.043.284.08.412.13l.2.071.012,0,.007,0h0l.006,0,.024.01.049.021.1.042c.127.058.252.119.371.184a4.573,4.573,0,0,1,.656.433,3.641,3.641,0,0,1,.509.483,3.2,3.2,0,0,1,.349.479,2.868,2.868,0,0,1,.2.409c.022.059.041.112.056.158s.023.086.032.118l.026.1" fill="#ec7724"/>
    <path id="Trazado_134093" data-name="Trazado 134093" d="M173.459,136.057l-.069-.011c-.044-.008-.11-.021-.193-.031-.042-.006-.087-.013-.137-.018l-.161-.017-.184-.012-.2-.006c-.142,0-.294.006-.455.021a4.69,4.69,0,0,0-.5.072,4.325,4.325,0,0,0-1.03.342l-.126.063c-.044.021-.081.044-.121.066-.079.043-.157.093-.234.14a4.733,4.733,0,0,0-.8.661c-.112.116-.21.232-.3.341-.042.057-.083.111-.122.162l-.107.15c-.031.049-.06.1-.088.136s-.051.083-.072.119c-.045.071-.075.13-.1.169l-.034.061s.006-.024.018-.067.029-.109.06-.188c.014-.04.029-.085.048-.133s.043-.1.066-.153.054-.11.084-.171.068-.119.1-.183.08-.128.126-.193.094-.132.148-.2a3.656,3.656,0,0,1,.362-.394,3.818,3.818,0,0,1,.446-.361c.082-.054.162-.11.252-.159.043-.025.088-.052.13-.072l.132-.068a4.249,4.249,0,0,1,.555-.212,3.96,3.96,0,0,1,.561-.12,3.654,3.654,0,0,1,.533-.034c.085,0,.167,0,.247.008s.156.016.229.024.142.021.208.034l.185.041c.058.016.112.03.161.045s.094.032.134.045c.081.026.141.056.183.072l.064.028" fill="#ec7724"/>
    <path id="Trazado_134094" data-name="Trazado 134094" d="M159.119,139.089a.109.109,0,0,1-.021-.012.079.079,0,0,1-.031-.065.219.219,0,0,1,.035-.113.335.335,0,0,1,.045-.06.378.378,0,0,1,.065-.055,2.59,2.59,0,0,1,.349-.226,4.01,4.01,0,0,1,.492-.227l.07-.026.037-.014.036-.012.146-.051c.1-.032.21-.065.32-.092a5.573,5.573,0,0,1,.7-.138,6.14,6.14,0,0,1,.765-.051,5.712,5.712,0,0,1,.792.051,5.954,5.954,0,0,1,.778.157c.122.032.249.072.371.114.061.021.121.043.18.065l.175.07a6.273,6.273,0,0,1,.641.318,6.027,6.027,0,0,1,.537.348,5.333,5.333,0,0,1,.418.339c.06.053.116.1.164.153s.1.093.134.135c.08.082.138.15.178.2l.061.071s-.026-.02-.073-.059l-.087-.071c-.034-.028-.074-.059-.119-.094s-.1-.073-.15-.113l-.086-.063-.093-.066c-.128-.091-.279-.184-.442-.285s-.349-.2-.546-.294-.412-.185-.635-.269l-.17-.06-.174-.056c-.117-.035-.232-.069-.358-.1a6.764,6.764,0,0,0-.743-.14,6.428,6.428,0,0,0-.755-.058,7.076,7.076,0,0,0-.734.025,6.366,6.366,0,0,0-.683.092c-.109.018-.21.044-.312.065l-.151.037-.036.009-.035.009-.07.02a4.857,4.857,0,0,0-.5.167,3.636,3.636,0,0,0-.367.172.279.279,0,0,0-.16.18.069.069,0,0,0,.017.06.087.087,0,0,0,.018.016" fill="#ec7724"/>
    <path id="Trazado_134095" data-name="Trazado 134095" d="M161.755,146.509s-.012-.035-.034-.1-.053-.163-.089-.288-.082-.276-.124-.453a5.735,5.735,0,0,1-.117-.6c-.016-.112-.028-.23-.036-.351a3.726,3.726,0,0,1,0-.382,3,3,0,0,1,.143-.818,2.355,2.355,0,0,1,.176-.41l.051-.094c.02-.032.042-.066.064-.1s.043-.066.066-.1l.072-.09c.046-.062.1-.116.154-.174s.112-.107.168-.161.119-.1.182-.145.125-.093.192-.132a3.571,3.571,0,0,1,.837-.378,3.67,3.67,0,0,1,.872-.155c.069,0,.137-.009.209-.009l.107,0,.1,0c.068,0,.136.006.2.011s.131.01.2.017a6.041,6.041,0,0,1,.717.121c.22.048.417.1.591.157s.323.1.445.147.218.08.283.1l.1.038-.4-.086c-.252-.052-.614-.13-1.051-.192-.218-.03-.453-.054-.7-.067-.063,0-.125-.005-.19-.005s-.127,0-.193,0-.13,0-.2.008-.133.009-.2.016a3.885,3.885,0,0,0-.806.168,3.357,3.357,0,0,0-.764.355c-.062.035-.117.078-.175.118s-.11.086-.166.129-.1.092-.152.142-.1.1-.139.153l-.065.08c-.021.027-.037.054-.057.081s-.039.052-.057.081l-.055.092a2.113,2.113,0,0,0-.17.36,3.177,3.177,0,0,0-.169.747c-.011.123-.017.244-.019.36s0,.231.006.34a10.466,10.466,0,0,0,.128,1.058c.041.257.066.4.066.4" fill="#ec7724"/>
    <path id="Trazado_134096" data-name="Trazado 134096" d="M184.388,137.24l.161-.065c.115-.044.275-.1.484-.166a7.425,7.425,0,0,1,.76-.187,9.537,9.537,0,0,1,1-.139,12.927,12.927,0,0,1,2.489.033c.117.012.224.026.338.04l.344.046c.23.033.462.068.694.106.465.076.935.161,1.4.242s.937.16,1.4.221.92.106,1.363.138.876.054,1.285.078.8.051,1.153.083.684.073.972.114c.143.024.278.044.4.068s.237.044.339.068l.271.063c.079.02.145.039.2.053l.166.046-.167-.038c-.055-.012-.122-.029-.2-.045l-.273-.051c-.1-.019-.217-.034-.341-.053s-.259-.032-.4-.05c-.289-.028-.614-.056-.971-.071s-.743-.026-1.152-.032-.841-.01-1.29-.022-.912-.035-1.383-.078-.945-.1-1.419-.161-.945-.125-1.409-.18q-.348-.042-.689-.075l-.337-.03c-.112-.009-.228-.019-.334-.025a12.328,12.328,0,0,0-2.389.068,8.863,8.863,0,0,0-.93.169c-.272.065-.5.137-.692.2s-.333.125-.425.165l-.154.07Z" fill="#ec7724"/>
    <path id="Trazado_134097" data-name="Trazado 134097" d="M197.819,136.055l-.015.013-.043.035-.061.052-.073.067a2.083,2.083,0,0,0-.158.172c-.026.032-.051.066-.075.1l-.035.054c0,.009-.011.017-.016.027l-.014.024c-.027.049-.039.076-.059.117s-.033.077-.046.116a1.948,1.948,0,0,0-.064.225c-.008.034-.014.067-.019.1s-.01.057-.013.08c-.006.045-.011.074-.011.074l-.013-.015a.365.365,0,0,1-.034-.045.675.675,0,0,1-.044-.076.807.807,0,0,1-.04-.107.825.825,0,0,1-.024-.134.851.851,0,0,1,.035-.316,1.031,1.031,0,0,1,.067-.156l.025-.04c.007-.013.016-.025.024-.037a.677.677,0,0,1,.053-.067.81.81,0,0,1,.121-.114.8.8,0,0,1,.13-.081.9.9,0,0,1,.127-.05.658.658,0,0,1,.112-.021.548.548,0,0,1,.088,0,.233.233,0,0,1,.055.006l.02,0" fill="#ec7724"/>
    <path id="Trazado_134098" data-name="Trazado 134098" d="M197.142,139.356s-.032.008-.087.016a.575.575,0,0,1-.1.006c-.02,0-.041,0-.064,0s-.045,0-.069-.007l-.075-.012-.079-.02a1.218,1.218,0,0,1-.165-.059,1.162,1.162,0,0,1-.165-.091,1.361,1.361,0,0,1-.157-.117,1.273,1.273,0,0,1-.135-.14,1.176,1.176,0,0,1-.111-.152,1.307,1.307,0,0,1-.081-.157c-.01-.026-.02-.051-.029-.076a.667.667,0,0,1-.021-.073c-.006-.023-.012-.045-.016-.067l-.009-.062a.642.642,0,0,1-.006-.1c0-.056.005-.088.005-.088s.021.026.052.07c.014.023.035.049.057.078s.045.062.073.1.056.071.088.108.066.074.1.114.072.077.112.114.079.075.119.113.083.072.126.1.087.065.128.1.084.06.126.085.08.052.118.073.072.043.1.06.06.036.085.047c.049.025.077.043.077.043" fill="#ec7724"/>
    <path id="Trazado_134099" data-name="Trazado 134099" d="M196,133.626l-.065-.039c-.041-.027-.106-.06-.186-.1a2.709,2.709,0,0,0-.3-.125,2.568,2.568,0,0,0-.4-.106,2.942,2.942,0,0,0-.486-.042,2.712,2.712,0,0,0-.535.059c-.045.012-.093.02-.135.034s-.1.026-.141.042-.088.03-.133.049l-.068.027-.066.03a2.86,2.86,0,0,0-.511.3,3.033,3.033,0,0,0-.442.4,3.136,3.136,0,0,0-.351.461,3.517,3.517,0,0,0-.252.481,4.066,4.066,0,0,0-.253.877c-.021.125-.034.235-.044.326s-.014.163-.015.212l0,.075-.012-.074c-.009-.049-.019-.121-.027-.214a3.039,3.039,0,0,1-.011-.335,2.993,2.993,0,0,1,.037-.437,3.145,3.145,0,0,1,.121-.508,3.087,3.087,0,0,1,.233-.541,2.877,2.877,0,0,1,.363-.516,3,3,0,0,1,.481-.445,2.883,2.883,0,0,1,.571-.324c.05-.022.1-.041.151-.059s.1-.034.155-.049.1-.027.15-.039.1-.019.156-.029a2.477,2.477,0,0,1,.592-.021,2.418,2.418,0,0,1,.518.1,2.134,2.134,0,0,1,.408.167,2.091,2.091,0,0,1,.286.179,1.824,1.824,0,0,1,.165.14l.055.052" fill="#ec7724"/>
    <path id="Trazado_134100" data-name="Trazado 134100" d="M194.163,140.91l-.066,0c-.044,0-.107.008-.188.006-.041,0-.086,0-.136,0s-.1-.005-.158-.008l-.181-.018c-.063-.008-.129-.02-.2-.03s-.141-.027-.215-.044-.15-.038-.227-.062a3.869,3.869,0,0,1-.479-.174,4.221,4.221,0,0,1-.486-.25,4.723,4.723,0,0,1-.466-.326,4.627,4.627,0,0,1-.412-.383,4.1,4.1,0,0,1-.348-.422,3.965,3.965,0,0,1-.271-.431c-.04-.07-.075-.141-.108-.209s-.06-.137-.089-.2-.051-.128-.072-.188-.038-.119-.055-.173-.03-.106-.042-.154-.02-.092-.029-.131c-.019-.079-.026-.143-.033-.186s-.01-.066-.01-.066l.026.062c.017.04.04.1.074.172s.074.161.121.261c.025.049.053.1.081.157l.094.17c.069.117.145.242.233.369s.186.256.29.386.224.256.346.382.251.237.4.356.282.213.427.308.3.181.445.258.3.147.439.2.281.106.41.15l.187.055.17.046c.108.025.2.049.281.063s.141.028.184.035l.065.013" fill="#ec7724"/>
    <path id="Trazado_134101" data-name="Trazado 134101" d="M190.237,143.24l-.081-.018c-.053-.012-.131-.029-.229-.059-.049-.013-.1-.03-.161-.049s-.122-.041-.188-.067a4.7,4.7,0,0,1-.439-.19,4.644,4.644,0,0,1-.494-.282,4.971,4.971,0,0,1-.514-.376,5.329,5.329,0,0,1-.493-.473c-.039-.044-.077-.085-.118-.133l-.11-.132-.108-.143c-.036-.048-.069-.1-.1-.145a5.411,5.411,0,0,1-.36-.607,4.987,4.987,0,0,1-.267-.628,5.042,5.042,0,0,1-.173-.613,4.638,4.638,0,0,1-.087-.563,1.942,1.942,0,0,1,0-.487.82.82,0,0,1,.131-.357.575.575,0,0,1,.173-.168.3.3,0,0,1,.055-.029l.02-.009a.565.565,0,0,0-.065.052.577.577,0,0,0-.131.184.81.81,0,0,0-.069.336,2.225,2.225,0,0,0,.06.453c.009.041.018.084.027.127s.022.087.033.132c.022.088.047.18.074.273.054.187.126.379.2.575a5.991,5.991,0,0,0,.277.588,6.159,6.159,0,0,0,.349.572c.063.093.129.182.2.269l.107.135c.032.04.071.083.106.125.146.166.3.323.452.467s.312.275.467.393.307.221.45.314c.072.045.142.089.21.127l.1.058.1.051c.06.035.119.063.173.091s.1.053.149.074c.09.043.163.076.213.1l.076.034" fill="#ec7724"/>
    <path id="Trazado_134102" data-name="Trazado 134102" d="M184.6,144.752l-.081-.037a1.986,1.986,0,0,1-.224-.114c-.047-.028-.1-.057-.157-.094s-.112-.079-.174-.123-.122-.1-.189-.155-.127-.123-.2-.189-.131-.144-.194-.225a3.122,3.122,0,0,1-.184-.259,3.373,3.373,0,0,1-.318-.61l-.062-.171c-.023-.057-.035-.117-.053-.176a3.366,3.366,0,0,1-.082-.367,3.563,3.563,0,0,1-.031-.767l.024-.189a1.734,1.734,0,0,1,.034-.19,3.283,3.283,0,0,1,.1-.373,3.463,3.463,0,0,1,.141-.348c.028-.056.05-.113.081-.166s.06-.106.09-.158a3.409,3.409,0,0,1,.414-.55,2.974,2.974,0,0,1,.224-.225c.076-.07.155-.129.228-.19s.151-.108.223-.154.145-.085.212-.122.133-.066.193-.093.118-.046.169-.066a1.849,1.849,0,0,1,.241-.076l.086-.023-.08.039c-.052.026-.13.059-.222.114-.047.027-.1.054-.154.089s-.111.073-.173.114-.122.092-.188.142-.128.11-.2.168a4.347,4.347,0,0,0-.392.428,3.719,3.719,0,0,0-.353.537,3.918,3.918,0,0,0-.266.629,3.445,3.445,0,0,0-.083.337,1.41,1.41,0,0,0-.03.173l-.021.177a3.644,3.644,0,0,0,.019.7,3.661,3.661,0,0,0,.419,1.252,4.212,4.212,0,0,0,.317.486l.166.2c.057.06.11.118.162.171s.106.1.153.141.094.078.136.112c.081.069.154.115.2.149l.072.052" fill="#ec7724"/>
    <path id="Trazado_134103" data-name="Trazado 134103" d="M191.49,130.8l-.094-.02a1.114,1.114,0,0,0-.112-.022l-.152-.024c-.057,0-.121-.012-.189-.016s-.144-.008-.223,0a3.021,3.021,0,0,0-1.119.239,2.777,2.777,0,0,0-.59.345c-.047.036-.092.076-.138.113s-.093.085-.135.127c-.081.085-.166.177-.243.276a4.314,4.314,0,0,0-.414.641c-.123.227-.232.464-.334.7s-.2.475-.29.7-.172.45-.232.664c-.03.107-.053.212-.074.314-.01.051-.018.1-.026.15s-.013.1-.017.148a2.53,2.53,0,0,0,.007.526,1.982,1.982,0,0,0,.091.4,2.083,2.083,0,0,0,.1.245l.046.084-.06-.075a1.546,1.546,0,0,1-.145-.231,1.756,1.756,0,0,1-.148-.4,2.311,2.311,0,0,1-.049-.26,2.513,2.513,0,0,1-.018-.295,3.1,3.1,0,0,1,.072-.657,5.663,5.663,0,0,1,.2-.7c.083-.238.172-.479.271-.724a7.179,7.179,0,0,1,.339-.732,4.116,4.116,0,0,1,.452-.682,3.009,3.009,0,0,1,.279-.3c.05-.047.092-.083.147-.13s.1-.081.158-.119a2.775,2.775,0,0,1,.666-.339,2.7,2.7,0,0,1,.648-.144,2.655,2.655,0,0,1,.557,0c.082.006.158.022.228.032s.133.031.191.044a2.5,2.5,0,0,1,.257.088l.089.036" fill="#ec7724"/>
    <path id="Trazado_134104" data-name="Trazado 134104" d="M184.2,130.889l-.311.19a9.078,9.078,0,0,0-.78.544,5.472,5.472,0,0,0-.467.419,3.958,3.958,0,0,0-.44.534,3.168,3.168,0,0,0-.344.643,2.97,2.97,0,0,0-.11.352l-.02.1c-.007.032-.01.06-.016.09s-.008.06-.012.091-.007.062-.008.093a2.28,2.28,0,0,0,.062.733,2.224,2.224,0,0,0,.122.338,1.816,1.816,0,0,0,.178.3,2.085,2.085,0,0,0,.48.468,2.839,2.839,0,0,0,.541.3,4.439,4.439,0,0,0,.909.253c.114.02.2.035.265.043l.094.014-.1,0c-.062,0-.154,0-.27,0s-.259-.012-.421-.034a3.244,3.244,0,0,1-.54-.117,2.567,2.567,0,0,1-.606-.271,2.171,2.171,0,0,1-.569-.494,2.071,2.071,0,0,1-.368-.725,2.448,2.448,0,0,1-.081-.831c0-.036.006-.07.011-.1s.007-.07.014-.1.012-.073.019-.106l.021-.1a2.841,2.841,0,0,1,.131-.4,2.773,2.773,0,0,1,.18-.362,2.917,2.917,0,0,1,.218-.328,3.619,3.619,0,0,1,.5-.54,4.243,4.243,0,0,1,.52-.4,5.159,5.159,0,0,1,.474-.276c.144-.076.273-.135.38-.182.213-.093.338-.138.338-.138" fill="#ec7724"/>
    <path id="Trazado_134105" data-name="Trazado 134105" d="M177.581,154.522a3.335,3.335,0,0,0-.448-.922H159.2a3.335,3.335,0,0,0-.448.922,10.149,10.149,0,0,0-.306,2.5,9.791,9.791,0,0,0,4.325,8.074,9.345,9.345,0,0,0,2.055.226h6.678a9.351,9.351,0,0,0,2.055-.226,9.793,9.793,0,0,0,4.324-8.074,10.2,10.2,0,0,0-.305-2.5" fill="#28649e"/>
    <path id="Trazado_134106" data-name="Trazado 134106" d="M169.942,165.324h-5.113a9.351,9.351,0,0,1-2.055-.226,9.793,9.793,0,0,1-4.324-8.074,10.2,10.2,0,0,1,.305-2.5,3.335,3.335,0,0,1,.448-.922h.2a9.709,9.709,0,0,0-.111,1.475,10.457,10.457,0,0,0,10.654,10.249" fill="#064679"/>
    <path id="Trazado_134107" data-name="Trazado 134107" d="M166.394,165.324h5.113a9.351,9.351,0,0,0,2.055-.226,9.793,9.793,0,0,0,4.324-8.074,10.2,10.2,0,0,0-.305-2.5,3.335,3.335,0,0,0-.448-.922h-.2a9.709,9.709,0,0,1,.111,1.475,10.457,10.457,0,0,1-10.654,10.249" fill="#6787b2"/>
    <path id="Trazado_134108" data-name="Trazado 134108" d="M153.65,132.558a14.78,14.78,0,0,0,2.934.15,3.53,3.53,0,0,0,2.36-.764,2.576,2.576,0,0,0,.725-2.116,3.533,3.533,0,0,0-.928-1.939c-.477-.534-1.486-1.556-1.486-1.556a10.2,10.2,0,0,1,2.072.714,2.308,2.308,0,0,0,2.061.464,2.123,2.123,0,0,0,.967-1,4.489,4.489,0,0,0,.141-3.78,5.637,5.637,0,0,0-2.467-2.659,2.325,2.325,0,0,1-.008,1.35c-.179.436-.74.757-1.083.5-.3-.222-.258-.69-.26-1.086a3.077,3.077,0,0,0-1.019-2.3,2.952,2.952,0,0,0-2.389-.656,4.867,4.867,0,0,1,.717,2.037,1.634,1.634,0,0,1-.045.741.738.738,0,0,1-.527.5.648.648,0,0,1-.658-.514,4.788,4.788,0,0,1-.094-.943,2.376,2.376,0,0,0-1.39-1.962,2.58,2.58,0,0,0-2.458.325,2.1,2.1,0,0,1,.739,2.452,1.143,1.143,0,0,1-.907-.818,3.1,3.1,0,0,0-.538-1.141,1.485,1.485,0,0,0-1.372-.289,8.845,8.845,0,0,0-1.427.537,3.817,3.817,0,0,1-1.459.239,1.546,1.546,0,0,1,.27.077,1.339,1.339,0,0,1,.86.876,8.208,8.208,0,0,1,.147,1.661,1.8,1.8,0,0,0,.648,1.431,2.7,2.7,0,0,0,1.4.234,1.313,1.313,0,0,1,1.223.576c.04.084-.953.438-1.044.459a4.061,4.061,0,0,1-1.126.034,2.627,2.627,0,0,0,1.117,1.51,3.113,3.113,0,0,0,1.811.6,3.739,3.739,0,0,1,.734.021.689.689,0,0,1,.547.417c.316.95-1.931,1.146-2.415,1.09a1.909,1.909,0,0,0,1.486,2.117c.969.166,1.95-.437,2.921-.777a1.577,1.577,0,0,1,.583-.116.582.582,0,0,1,.485.262.7.7,0,0,1,0,.6,2.286,2.286,0,0,1-.344.536l-1.5,1.911" fill="#ef7e6b"/>
    <path id="Trazado_134109" data-name="Trazado 134109" d="M157.1,126.365l-.147-.025-.08-.013c-.029-.005-.06-.01-.1-.019l-.258-.057-.305-.087-.17-.057c-.059-.02-.12-.041-.181-.066a6.875,6.875,0,0,1-.8-.368,10,10,0,0,1-1.776-1.25c-.3-.258-.592-.535-.886-.823s-.582-.584-.872-.878a21.9,21.9,0,0,0-1.76-1.654c-.3-.243-.6-.462-.893-.657s-.583-.364-.855-.511a11.046,11.046,0,0,0-1.36-.618c-.169-.064-.3-.111-.4-.141l-.141-.047.143.04c.094.025.23.066.4.121a10.987,10.987,0,0,1,1.4.554,11.2,11.2,0,0,1,1.829,1.094,22.217,22.217,0,0,1,1.861,1.582c.3.28.608.561.91.829s.605.527.9.761a9.489,9.489,0,0,0,1.741,1.1,6.361,6.361,0,0,0,.751.3c.057.021.112.036.166.051l.155.044.275.064.216.037c.03.006.063.009.093.013l.08.009.148.018Z" fill="#ec7724"/>
    <path id="Trazado_134110" data-name="Trazado 134110" d="M148.976,118.484a1.282,1.282,0,0,1,.221.183,1.514,1.514,0,0,1,.182.228,1.351,1.351,0,0,1,.082.146,1.3,1.3,0,0,1,.065.164,1.236,1.236,0,0,1,.04.175,1.036,1.036,0,0,1,.009.175.854.854,0,0,1-.064.3.835.835,0,0,1-.059.109.633.633,0,0,1-.06.073.392.392,0,0,1-.044.042l-.017.013s0-.029.007-.079c0-.024,0-.054,0-.086s0-.068,0-.106a1.868,1.868,0,0,0-.03-.252c-.008-.045-.019-.091-.03-.138s-.023-.089-.039-.139c-.058-.188-.139-.38-.191-.537-.027-.078-.046-.146-.058-.195s-.016-.079-.016-.079" fill="#ec7724"/>
    <path id="Trazado_134111" data-name="Trazado 134111" d="M147.69,122.429s.035-.017.1-.04c.031-.011.066-.028.107-.043s.088-.034.137-.055l.159-.065.173-.075.181-.084c.061-.03.123-.06.184-.093s.121-.064.18-.1.117-.067.173-.1.109-.067.16-.1.1-.062.137-.093a1.015,1.015,0,0,0,.184-.168c.019-.024.035-.044.045-.059l.015-.023v.028a.429.429,0,0,1-.006.079.607.607,0,0,1-.035.119.777.777,0,0,1-.077.143,1.278,1.278,0,0,1-.12.148,1.688,1.688,0,0,1-.149.14.924.924,0,0,1-.084.068,1,1,0,0,1-.091.065,2.224,2.224,0,0,1-.195.116,1.9,1.9,0,0,1-.207.093,1.752,1.752,0,0,1-.209.068,2.006,2.006,0,0,1-.2.042,1.761,1.761,0,0,1-.182.017,1.366,1.366,0,0,1-.274-.012c-.065-.01-.1-.019-.1-.019" fill="#ec7724"/>
    <path id="Trazado_134112" data-name="Trazado 134112" d="M151.327,118.2l.066.019c.042.012.1.031.184.06a2.991,2.991,0,0,1,.278.119,3.209,3.209,0,0,1,.343.193,3.543,3.543,0,0,1,.747.654c.059.07.117.143.172.22.007.01.013.017.022.031l.019.028.039.057c.026.037.052.082.077.123a3.449,3.449,0,0,1,.259.524,3.658,3.658,0,0,1,.169.559,3.443,3.443,0,0,1,.074.56c0,.092.006.182,0,.27,0,.049,0,.086-.007.129s-.008.088-.013.13a2.06,2.06,0,0,1-.11.464,1.543,1.543,0,0,1-.181.359,1.252,1.252,0,0,1-.1.133,1.273,1.273,0,0,1-.1.1l-.046.039-.044.03a.5.5,0,0,1-.071.043l-.06.032.05-.046a.6.6,0,0,0,.058-.057l.034-.037.036-.045a1.265,1.265,0,0,0,.149-.246,1.752,1.752,0,0,0,.115-.35,2.5,2.5,0,0,0,.052-.434c0-.039,0-.076,0-.116s0-.087,0-.123c-.006-.082-.011-.166-.021-.25a4.193,4.193,0,0,0-.092-.517,3.984,3.984,0,0,0-.164-.514,4.043,4.043,0,0,0-.231-.488c-.023-.038-.042-.074-.067-.114l-.036-.058-.018-.029-.016-.026c-.048-.073-.1-.143-.149-.212a4.179,4.179,0,0,0-.318-.377c-.11-.112-.219-.215-.324-.305s-.208-.166-.3-.233-.175-.12-.245-.164-.126-.077-.165-.1l-.059-.034" fill="#ec7724"/>
    <path id="Trazado_134113" data-name="Trazado 134113" d="M148.878,124.734l.031.035a.691.691,0,0,0,.1.082.95.95,0,0,0,.168.093,1.57,1.57,0,0,0,.237.078.628.628,0,0,0,.066.016l.074.017c.05.01.1.026.155.033l.158.028.168.023c.114.013.232.025.352.029l.091,0h.091c.061,0,.122,0,.183,0,.122,0,.244-.012.364-.022l.177-.021.173-.028c.113-.022.224-.041.326-.068s.2-.054.291-.077l.128-.042c.041-.012.08-.024.116-.038.071-.028.137-.047.188-.069.1-.042.165-.063.165-.063s-.048.043-.136.115c-.044.037-.1.075-.166.12s-.144.088-.229.137a3,3,0,0,1-.288.132,3.41,3.41,0,0,1-.337.113l-.182.044c-.063.012-.126.022-.19.033a3.635,3.635,0,0,1-.392.034c-.066,0-.132,0-.2,0l-.1,0-.1-.009c-.064-.006-.129-.012-.191-.024s-.125-.018-.185-.034l-.177-.043-.168-.054c-.055-.017-.1-.038-.15-.058l-.071-.029a.681.681,0,0,1-.071-.032,1.318,1.318,0,0,1-.234-.142.76.76,0,0,1-.151-.148.622.622,0,0,1-.069-.116c-.01-.029-.016-.044-.016-.044" fill="#ec7724"/>
    <path id="Trazado_134114" data-name="Trazado 134114" d="M155.965,118.322s.083.089.223.25c.069.081.154.179.247.295s.2.248.305.4.222.314.329.5a4.843,4.843,0,0,1,.3.6l.066.164.059.168c.017.06.036.119.052.179s.03.12.043.181a3.466,3.466,0,0,1,.074.751,2.847,2.847,0,0,1-.114.752,2.293,2.293,0,0,1-.324.669c-.034.046-.065.091-.106.139l-.058.069c-.019.022-.04.042-.06.063l-.06.061c-.02.019-.041.039-.062.057a1.4,1.4,0,0,1-.125.108,3.358,3.358,0,0,1-.5.337,4.624,4.624,0,0,1-.452.221c-.136.061-.258.106-.358.145-.2.074-.316.112-.316.112l.291-.166c.184-.107.45-.254.744-.458a4.22,4.22,0,0,0,.445-.359c.037-.034.073-.07.108-.107l.053-.057.05-.059c.035-.04.065-.081.1-.122s.062-.088.094-.135a2.233,2.233,0,0,0,.263-.6,2.723,2.723,0,0,0,.093-.677,3.454,3.454,0,0,0-.059-.689c-.01-.056-.024-.112-.035-.167s-.028-.108-.041-.162-.034-.11-.05-.164-.037-.106-.055-.158a5.881,5.881,0,0,0-.255-.588c-.092-.183-.186-.354-.276-.511s-.177-.3-.255-.424l-.2-.325c-.113-.181-.175-.286-.175-.286" fill="#ec7724"/>
    <path id="Trazado_134115" data-name="Trazado 134115" d="M150.222,128.211s.017.023.051.064a.936.936,0,0,0,.169.149,1.288,1.288,0,0,0,.309.153,2.579,2.579,0,0,0,.436.106l.129.02c.043.006.086.009.13.014.088.011.181.017.275.024a5.172,5.172,0,0,0,.6-.007,4.612,4.612,0,0,0,.628-.085,4.855,4.855,0,0,0,.629-.174,4.429,4.429,0,0,0,.6-.261c.051-.025.1-.051.141-.077s.091-.052.136-.08c.091-.054.177-.114.262-.172a5.284,5.284,0,0,0,.464-.373c.034-.033.069-.064.1-.1l.1-.1c.064-.062.122-.127.178-.189s.107-.123.154-.183l.07-.087.063-.084c.042-.055.077-.108.111-.156s.065-.094.09-.136.051-.079.071-.112l.05-.084.042-.07s-.009.027-.027.077a2.263,2.263,0,0,1-.083.217c-.019.046-.042.1-.068.151s-.055.113-.089.174a4.009,4.009,0,0,1-.6.834,4.055,4.055,0,0,1-.462.426c-.086.067-.175.134-.27.2-.046.032-.094.062-.144.092s-.1.061-.148.086a4,4,0,0,1-.635.286,4.326,4.326,0,0,1-1.345.242,4.214,4.214,0,0,1-.627-.036,3.929,3.929,0,0,1-.549-.113,2.209,2.209,0,0,1-.447-.168,1.254,1.254,0,0,1-.3-.213.815.815,0,0,1-.145-.185c-.014-.023-.021-.042-.028-.054l-.009-.019" fill="#ec7724"/>
    <path id="Trazado_134116" data-name="Trazado 134116" d="M160.2,120.4l.054.066c.034.044.087.1.145.192a3.406,3.406,0,0,1,.2.319,3.648,3.648,0,0,1,.208.444,3.869,3.869,0,0,1,.174.556,4.3,4.3,0,0,1,.1.647,4.251,4.251,0,0,1-.015.7c-.017.119-.031.239-.058.358l-.018.089-.022.087c-.015.059-.032.12-.05.178a3.255,3.255,0,0,1-.29.672,2.59,2.59,0,0,1-.434.568c-.039.038-.077.076-.124.115l-.066.056-.068.051-.067.049-.069.044-.068.044-.07.039a2.487,2.487,0,0,1-.547.224,2.381,2.381,0,0,1-.866.079,2.014,2.014,0,0,1-.239-.037l-.083-.019.085,0c.055,0,.136,0,.238,0a2.949,2.949,0,0,0,.362-.05,2.674,2.674,0,0,0,.449-.133,2.822,2.822,0,0,0,.485-.253l.061-.04.059-.044.059-.045.058-.049c.039-.032.075-.066.111-.1A1.5,1.5,0,0,0,160,125.1a2.635,2.635,0,0,0,.37-.524,3.4,3.4,0,0,0,.257-.618c.018-.055.032-.107.047-.162l.021-.083.018-.083c.025-.11.042-.221.06-.332a4.588,4.588,0,0,0-.012-1.271c-.018-.1-.031-.192-.053-.282l-.03-.134c-.011-.043-.023-.086-.034-.128-.046-.167-.1-.317-.149-.45s-.1-.246-.147-.337-.082-.164-.109-.213l-.039-.075" fill="#ec7724"/>
    <path id="Trazado_134117" data-name="Trazado 134117" d="M153.875,132.4l.071-.032.2-.088c.173-.076.421-.183.712-.32.145-.068.3-.146.463-.23s.329-.182.5-.286c.041-.026.085-.053.125-.08s.088-.056.128-.085c.082-.056.166-.117.248-.179a5.212,5.212,0,0,0,.473-.407,4.3,4.3,0,0,0,.414-.463,3.867,3.867,0,0,0,.328-.5,3.449,3.449,0,0,0,.224-.512,3.364,3.364,0,0,0,.125-.49,2.908,2.908,0,0,0,.043-.429,3.139,3.139,0,0,0-.009-.336c-.011-.093-.018-.167-.029-.216l-.012-.077.029.072a1.835,1.835,0,0,1,.07.211,2.247,2.247,0,0,1,.066.341,2.363,2.363,0,0,1,.013.453,2.738,2.738,0,0,1-.081.534,3.143,3.143,0,0,1-.2.572,3.455,3.455,0,0,1-.332.554,3.929,3.929,0,0,1-.437.5,4.652,4.652,0,0,1-.509.426c-.088.065-.178.124-.27.181-.046.03-.09.055-.134.082s-.092.052-.137.077a5.9,5.9,0,0,1-.535.258c-.173.075-.34.136-.5.188s-.3.1-.425.132-.24.063-.332.086c-.185.043-.292.063-.292.063" fill="#ec7724"/>
    <path id="Trazado_134118" data-name="Trazado 134118" d="M93.465,83.611c.1,2.4-.546,10.07-.447,12.473-2.051,3.386-2.379,2.01-4.431,5.4-1.859-2.3-6.252-2.463-7.7-5.044.265-3.579,2.021-10.027,1.84-13.611-.058-1.148-.05-2.331-.088-3.481,2.086,1.861,9.564,4.27,10.827,4.267" fill="#f49c68"/>
    <path id="Trazado_134119" data-name="Trazado 134119" d="M91.581,89.235c.089.37.192.736.312,1.1a4.111,4.111,0,0,0,1.356,2.144c.533.379,1.266.6,1.5,1.208-.04-.108.61.087.654.114a2.788,2.788,0,0,1,.519.47,4.878,4.878,0,0,1,.958,1.63l1.088-1.6,2.337,2.782q.318-1.556.54-3.13c.635-4.5.153-15.09-.1-17.378a27.182,27.182,0,0,0-2.44-8.541,16.157,16.157,0,0,0-2.151-3,18.49,18.49,0,0,0-2.734-2.311s2.585,7.27,2.192,7.873c-1.309,2.007-.735,4.96-2.583,6.561a6.165,6.165,0,0,0-1.77,1.812,2.633,2.633,0,0,0-.207,1.347c.037.584-.042,1.186-.057,1.773q-.048,1.845.087,3.688a21.556,21.556,0,0,0,.5,3.462" fill="#7d2345"/>
    <path id="Trazado_134120" data-name="Trazado 134120" d="M94.449,64.559a19.923,19.923,0,0,1,3.094,9.52,19.725,19.725,0,0,1-1.924,9.773,3.47,3.47,0,0,1-1,1.367,3.562,3.562,0,0,1-2.918.19,24.793,24.793,0,0,1-7.679-3.352A7.09,7.09,0,0,1,81.371,79.4a8.276,8.276,0,0,1-.331-4.538,7.1,7.1,0,0,0,4.4-1.327c1.328-.829-.85-2.819.145-4.026.614-.745,1.362-2.268,1.9-3.067,1.119-1.651,5.135-1.7,5.915-3.538.377.561.694,1.125,1.041,1.659" fill="#f49c68"/>
    <path id="Trazado_134121" data-name="Trazado 134121" d="M82.675,81.048c.01.6.041.988.036,1.3,2.31,1.5,8.64,5.984,8.682,5.993a20.178,20.178,0,0,1-.337-3.1,28.855,28.855,0,0,1-7.033-3.183,12.138,12.138,0,0,1-1.348-1.01" fill="#f0836e"/>
    <path id="Trazado_134122" data-name="Trazado 134122" d="M94.782,63.485a1.581,1.581,0,0,1,.182,1.385,2.368,2.368,0,0,1-1.526,1.313c-.654.23-1.354.311-2.009.54a4.663,4.663,0,0,0-1.115.571c-2.247,1.563-2.141,4.515-2.148,6.976-.006,2.606.215,5.405-.785,7.875a11.849,11.849,0,0,1-2.436,3.935A11.38,11.38,0,0,0,82.768,90.3a27.863,27.863,0,0,0-1.4,5.727c-.217,1.623.04,3.286-.158,4.875-.172,1.362-1.4,2.893-2.047,4.1a10.224,10.224,0,0,1-3.044,3.84,14.541,14.541,0,0,1-4.078,1.576,31.817,31.817,0,0,0-5.328,2.137,4.643,4.643,0,0,1-1.432.554,1.438,1.438,0,0,1-1.38-.5,1.945,1.945,0,0,1-.228-1.232c.249-4.413,2.907-8.351,3.6-12.717.624-3.922-.307-8.24,1.669-11.686,1.226-2.139,3.376-3.55,5.154-5.259a8.854,8.854,0,0,0,2.684-4.3c.262-1.219-.257-1.963-.571-3.078-.776-2.747.827-6.776,2.654-8.809a11.642,11.642,0,0,1,6.7-4.013,13.666,13.666,0,0,1,5.61.107,11.059,11.059,0,0,1,2.057.8,5.807,5.807,0,0,1,1.55,1.063" fill="#7d2345"/>
    <path id="Trazado_134123" data-name="Trazado 134123" d="M95.154,84.439c.316,0,.64,0,.943,0h.42a2.325,2.325,0,0,0,2.063-.94A2.589,2.589,0,0,0,98.6,81.5L97.47,77.652c-.108.522-.241,1.04-.391,1.555-.048.168-.1.335-.151.5l.639,2.087a1.708,1.708,0,0,1,.08,1.181c-.121.215-.429.344-.916.383-.1.008-.206.012-.322.013-.253,0-.534,0-.818,0-.044.112-.088.224-.131.335-.06.15-.119.3-.177.45-.039.1-.082.192-.129.283" fill="#6787b2"/>
    <path id="Trazado_134124" data-name="Trazado 134124" d="M116.11,141.034l1.784.027q-6.034-.1-12.068-.1-9.414-.015-18.828.025-6.936.021-13.873.037a6.931,6.931,0,0,1-.73-5.8c.179-.658,1.67-1.707,1.892-1.968s-.97,1.055-.62,1.044c4.8-.152,10.707-1.059,15.486-.6,1.695.164,9.476-.183,11.147.085,3.92.63.419,1.909,4.364,2.643a38.479,38.479,0,0,1,6.381,1.97l7.053,2.633c-.663.008-1.326.011-1.988,0" fill="#064679"/>
    <path id="Trazado_134125" data-name="Trazado 134125" d="M110.137,103.5a3.56,3.56,0,0,1,1.614-3.282l5.808,1.326c.346.079,1.437.232,1.437.232s.335-.945.51-1.445c1.749-5,4.133-9.855,5.914-14.849.3-1.084,1.285-2.044.584-2.923a2.734,2.734,0,0,1-.6-.9,1.693,1.693,0,0,1,.189-1.14,7.982,7.982,0,0,1,2.854-3.106,3.957,3.957,0,0,1,1.214-.613,1.637,1.637,0,0,1,1.315.173c.062.5-.366.91-.771,1.207s-.864.639-.909,1.139l3.528-3a3.3,3.3,0,0,1,1.013-.667,1.125,1.125,0,0,1,1.145.178c.195.189.314.484.574.557.166.047.369,0,.5.112.248.228-.164.631-.079.958.1.363.67.311.909.6a.744.744,0,0,1-.069.841,1.951,1.951,0,0,0-.4.8,4.182,4.182,0,0,0,.159.844,1.731,1.731,0,0,1-.462,1.211,5.223,5.223,0,0,1-1.85,1.48c-.585.279-1.215.445-1.817.685a3.176,3.176,0,0,0-1.455,1.081,1.338,1.338,0,0,0-.222.48l-.247,1c-2.421,9.65-3.073,17.062-6.329,25.109-4.6-.276-10.538-1.5-14.057-3.631a15.679,15.679,0,0,0,.01-4.455" fill="#f49c68"/>
    <path id="Trazado_134126" data-name="Trazado 134126" d="M110.051,107.954c3.519,2.135,9.457,3.355,14.057,3.632a73.067,73.067,0,0,0,3.651-12.768,65.7,65.7,0,0,1-5.064,9.6c-4.222-1.089-9.459-3.235-12.591-5.81a3.562,3.562,0,0,0-.043.887,15.679,15.679,0,0,1-.01,4.455" fill="#f0836e"/>
    <path id="Trazado_134127" data-name="Trazado 134127" d="M59.347,105.358a3.59,3.59,0,0,0,.421.415l1.54,1.517,4.138,4.076q1.132,1.113,2.26,2.226a51.237,51.237,0,0,1,4.693-3.435c.021-.013.042-.024.063-.036a33.753,33.753,0,0,1,1.569,7.206,43.863,43.863,0,0,1,.2,6.835,48.242,48.242,0,0,1-.687,6.256,29.127,29.127,0,0,1-1.011,4.252c8.219-.161,16.287.018,24.506-.138q2.337-.045,4.673-.071c-.131-2.7-.2-5.4-.313-8.106q-.2-4.532-.1-9.068a49.825,49.825,0,0,1,1.249-8.648,23.977,23.977,0,0,1,10.519,2.051c.33-2.51,1.923-10.483,1.923-10.483s-5.564-2.587-6.739-3.2A55.994,55.994,0,0,0,94.6,92.033c-.672-.15-2.223-.49-2.223-.49s-.118.721-.265,1.255a12.615,12.615,0,0,1-1.094,2.777,4,4,0,0,1-.906,1.14,2.838,2.838,0,0,1-2.252.463,6.394,6.394,0,0,1-2.162-.931,7.788,7.788,0,0,1-2.444-1.953,5.938,5.938,0,0,1-.939-2.528,46.587,46.587,0,0,0-6.337,1.728A41.323,41.323,0,0,0,60.309,104c-.27.29-.536.585-.8.882-.169.193-.313.268-.165.474" fill="#e8edbc"/>
    <path id="Trazado_134128" data-name="Trazado 134128" d="M96.379,136.318l4.467-24.22a3.194,3.194,0,0,1,2.861-2.678H136.62a1.843,1.843,0,0,1,1.528.77v.013c.026.038.051.083.075.123l1.207,1.87-.994.221-4.409,23.9a3.187,3.187,0,0,1-2.861,2.669H98.253a2.051,2.051,0,0,1-1.874-2.668" fill="#90b193"/>
    <path id="Trazado_134129" data-name="Trazado 134129" d="M131.166,139.114H98.253a1.955,1.955,0,0,1-1.533-.7,2.557,2.557,0,0,1-.467-2.116l4.466-24.22a3.332,3.332,0,0,1,2.988-2.783H136.62a1.959,1.959,0,0,1,1.632.823l.022.031v.015c.014.022.027.045.04.067l.019.031,1.3,2.021-1.09.244-4.394,23.816a3.325,3.325,0,0,1-2.988,2.774m-27.459-29.566a3.067,3.067,0,0,0-2.736,2.573L96.5,136.341a2.3,2.3,0,0,0,.412,1.906,1.7,1.7,0,0,0,1.336.611h32.913a3.062,3.062,0,0,0,2.736-2.564l4.425-23.984.9-.2-1.129-1.752c-.016-.028-.033-.057-.05-.082l-.022-.03v-.011a1.708,1.708,0,0,0-1.4-.687Z" fill="#6787b2"/>
    <path id="Trazado_134130" data-name="Trazado 134130" d="M79.648,136.92H100v4.054H77.509v-1.915a2.139,2.139,0,0,1,2.139-2.139" fill="#90b193"/>
    <path id="Trazado_134131" data-name="Trazado 134131" d="M100.124,141.1H77.381V139.06a2.27,2.27,0,0,1,2.267-2.267h20.476Zm-22.487-.256H99.868v-3.8H79.648a2.013,2.013,0,0,0-2.011,2.011Z" fill="#6787b2"/>
    <path id="Trazado_134132" data-name="Trazado 134132" d="M99.528,140.975h32.913A3.194,3.194,0,0,0,135.3,138.3l4.466-24.217a2.058,2.058,0,0,0-1.874-2.676H104.982a3.194,3.194,0,0,0-2.862,2.676L97.654,138.3a2.057,2.057,0,0,0,1.874,2.676" fill="#e8edbc"/>
    <path id="Trazado_134133" data-name="Trazado 134133" d="M132.44,141.1H99.527A1.954,1.954,0,0,1,98,140.4a2.568,2.568,0,0,1-.469-2.124l4.466-24.218a3.33,3.33,0,0,1,2.988-2.78h32.913a1.953,1.953,0,0,1,1.531.7,2.575,2.575,0,0,1,.47,2.125l-4.467,24.217a3.331,3.331,0,0,1-2.988,2.781m-27.459-29.569a3.064,3.064,0,0,0-2.735,2.571l-4.467,24.217a2.316,2.316,0,0,0,.414,1.914,1.7,1.7,0,0,0,1.334.61H132.44a3.066,3.066,0,0,0,2.736-2.57l4.466-24.218a2.318,2.318,0,0,0-.414-1.914,1.7,1.7,0,0,0-1.334-.61Z" fill="#6787b2"/>
    <path id="Trazado_134134" data-name="Trazado 134134" d="M115.944,124.349a3.3,3.3,0,1,0,4.516-2.162,3.561,3.561,0,0,0-4.516,2.162" fill="#90b193"/>
    <path id="Trazado_134135" data-name="Trazado 134135" d="M118.548,129.508a2.976,2.976,0,0,1-1.2-.251,3.694,3.694,0,0,1-1.519-4.96,4.246,4.246,0,0,1,2.019-2.138,3.075,3.075,0,0,1,4.4,1.938,4.243,4.243,0,0,1-.214,2.932,3.958,3.958,0,0,1-3.483,2.479m-2.486-5.108h0a3.172,3.172,0,1,0,5.734,2.526,3.986,3.986,0,0,0,.2-2.755,2.819,2.819,0,0,0-4.043-1.78,3.983,3.983,0,0,0-1.9,2.009" fill="#6787b2"/>
    <path id="Trazado_134136" data-name="Trazado 134136" d="M66.628,112.507a11.852,11.852,0,0,0-3.067,5.186,74.59,74.59,0,0,1,11.053,1.541q2.244.484,4.456,1.109h0c1.3.322,2.339.6,3-.315a2.736,2.736,0,0,1,.7-.823,1.7,1.7,0,0,1,1.148-.127,7.991,7.991,0,0,1,3.764,1.907,3.962,3.962,0,0,1,.918,1,1.63,1.63,0,0,1,.19,1.312,1.457,1.457,0,0,1-1.371-.414,1.808,1.808,0,0,0-1.342-.567c.135-.023.629.423.754.506.265.178.54.346.8.536.152.112.27.255.416.372a3.775,3.775,0,0,0,.654.352,5.486,5.486,0,0,1,2.218,2.148c.13.23.226.559.021.725a.428.428,0,0,1-.515-.042,1.861,1.861,0,0,1-.344-.437,2.52,2.52,0,0,0-1.69-1.045c.045.276.38.372.641.471a3.768,3.768,0,0,1,1.3,1.009,1.7,1.7,0,0,1,.345.45.577.577,0,0,1-.009.546.56.56,0,0,1-.472.229,1.317,1.317,0,0,1-.526-.138,4.33,4.33,0,0,1-1.342-.933.948.948,0,0,0,.454.6,3.338,3.338,0,0,1,.629.452c.3.329.169.645.012.992a.673.673,0,0,1-.9.326,1.949,1.949,0,0,0-.875-.174,4.144,4.144,0,0,0-.77.381,1.726,1.726,0,0,1-1.291-.117,5.2,5.2,0,0,1-1.925-1.38c-.427-.487-.758-1.049-1.152-1.563a3.472,3.472,0,0,0-1.34-1.328,3.535,3.535,0,0,0-.784-.322l-1.316-.162c-2.2-.154-13.039-.791-16.724-.747-1.9.024-3.9.021-5.539-.929a4.03,4.03,0,0,1-2.024-2.7,11.909,11.909,0,0,1,.545-4.6c1.139-2.916,1.438-4.384,3.227-7.423.461-.783.93-1.611,1.428-2.416" fill="#f49c68"/>
    <path id="Trazado_134137" data-name="Trazado 134137" d="M54.887,120.4a4.025,4.025,0,0,0,2.024,2.7c1.641.95,3.643.954,5.539.929,2.606-.031,8.792.278,12.968.517-3.816-.733-8.319-1.558-10.448-1.825-1.882-.234-3.865-.509-5.362-1.673A4.033,4.033,0,0,1,57.97,118.1a11.887,11.887,0,0,1,1.166-4.483,53.646,53.646,0,0,1,3.108-5.424l-2.2-2.163c-.5.8-.928,1.567-1.389,2.351-1.788,3.038-2.088,4.506-3.226,7.422a11.89,11.89,0,0,0-.545,4.6" fill="#f0836e"/>
    <path id="Trazado_134138" data-name="Trazado 134138" d="M72.4,110.157l.063-.036a33.691,33.691,0,0,1,1.568,7.206,31.018,31.018,0,0,1,12.98-5.4c2.077-.345,4.307-.523,5.978-1.8.337-.26.664-.73.408-1.069a.874.874,0,0,0-.638-.255,19.432,19.432,0,0,0-6.242.375c-3.457.781-6.752,2.515-10.3,2.487a1.2,1.2,0,0,1-.764-.19c-.417-.338-.253-1-.041-1.492.857-1.983,1.911-3.881,2.665-5.907a14.579,14.579,0,0,0,.884-3.615c.026-.256.249-1.248-.224-1.167-.216.037-.676,1.274-.788,1.484a49.964,49.964,0,0,1-3.745,5.957,12.046,12.046,0,0,0-1.466,2.316,5.856,5.856,0,0,0-.341,1.1" fill="#90b193"/>
    <path id="Trazado_134139" data-name="Trazado 134139" d="M92.688,84.912h2.7a.251.251,0,0,0,.25-.25V83.154a.251.251,0,0,0-.25-.25h-2.7a.251.251,0,0,0-.25.25v1.508a.251.251,0,0,0,.25.25" fill="#28649e"/>
    <path id="Trazado_134140" data-name="Trazado 134140" d="M93.6,62.382l-5.343.042a7.526,7.526,0,0,0-7.433,7.5L80.8,76.766a.784.784,0,0,0,.782.785h0a.783.783,0,0,0,.782-.78l.022-6.842a5.984,5.984,0,0,1,5.88-5.94l5.336-.042a.783.783,0,1,0-.006-1.565" fill="#6787b2"/>
    <path id="Trazado_134141" data-name="Trazado 134141" d="M78.8,77.877A3.879,3.879,0,1,0,82.675,74,3.879,3.879,0,0,0,78.8,77.877" fill="#6787b2"/>
    <path id="Trazado_134142" data-name="Trazado 134142" d="M80.507,77.877a2.167,2.167,0,1,0,2.168-2.168,2.168,2.168,0,0,0-2.168,2.168" fill="#28649e"/>
    <path id="Trazado_134143" data-name="Trazado 134143" d="M155.064,99.409a34.672,34.672,0,1,1,14.591,14.332l-18.75,3.871Z" fill="#28649e"/>
    <path id="Trazado_134144" data-name="Trazado 134144" d="M155.352,82.928a30.236,30.236,0,1,0,30.236-30.236,30.236,30.236,0,0,0-30.236,30.236" fill="#6787b2"/>
    <path id="Trazado_134145" data-name="Trazado 134145" d="M169.369,85.176c-1.236.57-2.467,1.153-3.686,1.76q-1.039.518-2.067,1.064-.5.264-.984.539c-.3.171-.522.345-.883.249a1.4,1.4,0,0,1-.572-.354,1.887,1.887,0,0,0-.806-.568,1.093,1.093,0,0,0-.8.183,6.039,6.039,0,0,0-.653.534,7.783,7.783,0,0,0-1.863,1.65,2.816,2.816,0,0,0,.178,2.875,5.619,5.619,0,0,0,1.587,1.565c.507.357.774.67,1.431.613.873-.076,1.743-.229,2.6-.387a48.61,48.61,0,0,0,7.009-1.794,15.782,15.782,0,0,0,4.03-1.882c-1.908-2.342-2.331-3.967-4.522-6.047" fill="#f49c68"/>
    <path id="Trazado_134146" data-name="Trazado 134146" d="M174.424,64.162c-.176,2.2.034,4.412-.031,6.617a12.164,12.164,0,0,1-1.638,6.327,4.62,4.62,0,0,0-.966,1.919,3.566,3.566,0,0,0,.421,1.734,13.247,13.247,0,0,0,2.592,4.3c3.109,3.079,10.2,4.838,13.842,4.067.626-2.045-.49-4.216.433-6.145.738-1.54-.968-3.819-.753-5.513.139-1.086-2.5-3.4-2.814-4.447-.448-1.494-1.73-2.589-2.389-4-.666-1.43-.679-3.148-1.6-4.431a7.437,7.437,0,0,0-2.379-1.9c-.646-.384-1.288-.775-1.939-1.152a1.719,1.719,0,0,0-1.375-.367c-1.071.369-1.332,2.048-1.408,3" fill="#7d2345"/>
    <path id="Trazado_134147" data-name="Trazado 134147" d="M175.275,64.933l-.013,0-2.011-.4a.852.852,0,0,0-1.006.7l-1.544,9.32a.943.943,0,0,0,.843,1.094l3.754.347c0-.033,1.8-10.735,1.8-10.735Z" fill="#28649e"/>
    <path id="Trazado_134148" data-name="Trazado 134148" d="M175.794,65.538l-.013-.005L173.8,65.15a.851.851,0,0,0-.993.7l-1.369,8.765a.926.926,0,0,0,.824,1.086l3.692.324c0-.033,1.626-10.177,1.626-10.177Z" fill="#6787b2"/>
    <path id="Trazado_134149" data-name="Trazado 134149" d="M172.808,75.759l-.713.93a54.235,54.235,0,0,0-5.138,8.133c-1.462,2.829-2.8,5.731-4.508,8.425-.454.716-1.09,1.647-1.972,1.836a5.2,5.2,0,0,1-3.107-.424,3.7,3.7,0,0,1-2.1-2.622,4.132,4.132,0,0,1,.545-2.627,12.335,12.335,0,0,1,1.649-2.172q2.229-2.524,4.459-5.048c.913-1.034,1.892-2,2.875-2.955l3.722-3.634c.369-.361.262-.881.276-1.4l.066-2.531a2.245,2.245,0,0,1,.108-.758.758.758,0,0,1,.543-.5,1.737,1.737,0,0,1,.153-.818.762.762,0,0,1,.678-.377.956.956,0,0,1,.632-1.255c.21-.576.374-1.155.584-1.732a5.479,5.479,0,0,1,.9-1.757.431.431,0,0,1,.3-.183.306.306,0,0,1,.268.222.851.851,0,0,0-.769.709L171.786,68c0,.057-.068.1-.023.136a2.114,2.114,0,0,1,.179.143,4.39,4.39,0,0,1,.489.513,1.466,1.466,0,0,1,.3.635.894.894,0,0,1-.14.676.645.645,0,0,1-.618.263,1.237,1.237,0,0,1,.514.723.672.672,0,0,1,0,.4.36.36,0,0,1-.3.247,2.01,2.01,0,0,1,.8,1.6.654.654,0,0,1-.12.422.5.5,0,0,1-.584.092,1.056,1.056,0,0,1-.438-.447c-.109-.182-.194-.379-.319-.549a.816.816,0,0,0-.491-.343l-.009.058s-.172,1.037-.266,1.6a2.54,2.54,0,0,0-.02.275,1.964,1.964,0,0,0,.012.46.73.73,0,0,0,.2.407,1.055,1.055,0,0,0,.417.214,2.659,2.659,0,0,0,.5.14c.333.043.652.032.943.087" fill="#f49c68"/>
    <path id="Trazado_134150" data-name="Trazado 134150" d="M189.929,67.358a6.843,6.843,0,0,1-1.429,5.194,10,10,0,0,1-4.471,3.149,17.522,17.522,0,0,1-3.564.876,2.548,2.548,0,0,1-2.727-1.559,26.776,26.776,0,0,1-2.092-6.532,9.372,9.372,0,0,1,.625-4.965,7.021,7.021,0,0,1,2.581-3.079c.187-.121.625-.469.854-.4s.542.577.709.753q.771.813,1.61,1.559a28.693,28.693,0,0,0,7.9,5.008" fill="#f49c68"/>
    <path id="Trazado_134151" data-name="Trazado 134151" d="M189.941,71.883s-.406,0-1.051,0c-.058.1-.118.19-.182.282a5.464,5.464,0,0,1-1.829,2.2,5.739,5.739,0,0,1-.96.645c-.071.057-.145.112-.22.166a5.538,5.538,0,0,1-2.522,1.2,5.462,5.462,0,0,1-1.911.35q-.435,1.969-.869,3.939a4.075,4.075,0,0,1-.343,1.073c-.178.331-.106.343-.471.435-.111,3.556-1.295,7.421-.3,10.836.027.091.054.182.08.273,3.483-2.822,6.852-5.762,10.335-8.584a57.636,57.636,0,0,1-.532-6.988c.011-2.338-.071-3.652.771-5.833" fill="#f49c68"/>
    <path id="Trazado_134152" data-name="Trazado 134152" d="M188.306,72.716a7.56,7.56,0,0,1-1.179,2.359,10,10,0,0,1-4.471,3.149c-.461.172-1.327.416-1.815.543a9.193,9.193,0,0,0,.284-2.3,16.62,16.62,0,0,0,2.9-.771,9.813,9.813,0,0,0,4.277-2.984" fill="#f0836e"/>
    <path id="Trazado_134153" data-name="Trazado 134153" d="M175.96,105.325a24.576,24.576,0,0,1-.184,3.892c-.043.344-.492,3.668-.746,3.668l19.575.088c.151-2.9.478-5.792.911-8.666.228-1.531.488-3.057.765-4.579.391-2.142.817-4.278,1.253-6.412.015-.077.03-.155.047-.232.387-1.9.261-4.088.925-5.917l-.027.074a3.009,3.009,0,0,0-.008-1.1c-.154-.662.3-1.319-.223-1.754a16.059,16.059,0,0,0-3.4-2.418,29.017,29.017,0,0,0-4.645-2.09,1.205,1.205,0,0,0-.565-.092,1.05,1.05,0,0,0-.6.424c-.6.745-.955,1.718-1.738,2.272a3.44,3.44,0,0,1-1.859.534,5.45,5.45,0,0,1-2.16-.331,3.819,3.819,0,0,1-2.79-3.547c0,.072-9.4,4.529-11.827,5.515a45.721,45.721,0,0,0,2.574,9.22c.7-.148,3.139-1.242,3.848-1.3a.814.814,0,0,1,.026.191c.277,2.685.091,5.442.235,8.139.08,1.5.564,2.953.614,4.416" fill="#e8edbc"/>
    <path id="Trazado_134154" data-name="Trazado 134154" d="M179.247,100.82a.59.59,0,1,0,.616-.564.588.588,0,0,0-.616.564" fill="#e8edbc"/>
    <path id="Trazado_134155" data-name="Trazado 134155" d="M193.293,112.42h-.114c-.615.009-1.23.006-1.845,0q-2.055-.034-4.111-.063l.028-.038-.044.037-1.619-.018c.016-.044.032-.088.05-.132a3.133,3.133,0,0,1,.391-.681,6.157,6.157,0,0,1,1.794-1.423c.063.038.141-.083.142-.156a.283.283,0,0,0-.1-.188,5.266,5.266,0,0,1-.414-.4.56.56,0,0,1-.121-.539.537.537,0,0,1,.394-.292,2.276,2.276,0,0,1,.509-.02,3.476,3.476,0,0,0,1.6-.37,6.169,6.169,0,0,1,2.4.087,65.82,65.82,0,0,1,8.322-7.936c-1.89-1.9-4.205-4.719-5.512-6.342C196.523,91.31,198,90.5,199.8,88.083c3.493,2.989,7.811,12.814,7.522,13.328.119.723-.465,1.353-1.013,1.838a44.259,44.259,0,0,1-12.318,7.927,4.519,4.519,0,0,1-.7,1.244" fill="#f49c68"/>
    <path id="Trazado_134156" data-name="Trazado 134156" d="M185.129,99.879v.007c-.011.138.1.252.211.341a12.41,12.41,0,0,0,4.392,2.343c.8.238,1.634.328,2.443.534a28.655,28.655,0,0,1,2.826.843c.5.184.53.184.624-.349.078-.441.14-.885.213-1.326q.211-1.274.444-2.544c.391-2.142.817-4.278,1.253-6.412a46.83,46.83,0,0,1-5.969-4.154c-.384-.313-.762-.631-1.158-.93-.359-.272-1.407-.872-1.407-.872a13.01,13.01,0,0,0,1.138,2.962c.1.173.254.4.443.682a2.407,2.407,0,0,0,.115.754,11.511,11.511,0,0,0,.986,2.753c.755,1.522,1.734,2.92,2.566,4.4.206.368.388.871.09,1.17-.378.38-1.34.1-1.816.06l-2.277-.172-4.554-.345c-.228-.017-.538.03-.562.255" fill="#90b193"/>
    <path id="Trazado_134157" data-name="Trazado 134157" d="M189.067,87.315a34.907,34.907,0,0,0,7.216,9.39c4.075-1.8,4.773-1.232,7.474-4.775-2.223-3.317-4.23-7.023-7.345-9" fill="#e8edbc"/>
    <path id="Trazado_134158" data-name="Trazado 134158" d="M188.372,81.822c-.641-2.2-1.631-4.288-2.3-6.479a25.935,25.935,0,0,0-1.125-3.623,7.779,7.779,0,0,1-.64-3.325c0-.516.388-4.011-.313-4.06-.25-.017-.762.342-1.011.433a9.024,9.024,0,0,1-.988.294,9.267,9.267,0,0,1-2.045.246,8.993,8.993,0,0,1-3.917-.845c-.906-.429-1.07-1.834-.7-2.768a5.254,5.254,0,0,1,1.975-2.212l.067-.048a11.072,11.072,0,0,1,13.384.451,14.276,14.276,0,0,1,1.163,1.065,5.931,5.931,0,0,1,1.233,1.688,7.243,7.243,0,0,1,.44,3.828,9.522,9.522,0,0,0-.3,1.233,9.4,9.4,0,0,0,.1,1.918,11.356,11.356,0,0,0,3.44,6.3c.777.793,1.9,1.571,2.709,2.337a7.093,7.093,0,0,1,1.616,2.883c.8,2.29-.625,4.289-2.456,5.553a16.742,16.742,0,0,1-5.348,2.79,11.471,11.471,0,0,0-2.225.906,10.554,10.554,0,0,1-1.471.525,12.168,12.168,0,0,0-1.35.279,15.827,15.827,0,0,0,.39-8.12c-.091-.419-.2-.834-.318-1.244" fill="#7d2345"/>
    <path id="Trazado_134159" data-name="Trazado 134159" d="M197.8,111.552h-10.81V113.5h12.39v-.363a1.58,1.58,0,0,0-1.58-1.58" fill="#90b193"/>
    <path id="Trazado_134160" data-name="Trazado 134160" d="M199.5,113.623H186.858v-2.2h10.937a1.711,1.711,0,0,1,1.709,1.709Zm-12.39-.256h12.134v-.234a1.454,1.454,0,0,0-1.453-1.452H187.114Z" fill="#6787b2"/>
    <path id="Trazado_134161" data-name="Trazado 134161" d="M188.389,113.495H164.206l-6.149-16.933H182.24Z" fill="#90b193"/>
    <path id="Trazado_134162" data-name="Trazado 134162" d="M188.572,113.623H164.115l-.03-.084-6.212-17.105h24.456l.031.085Zm-24.277-.256h23.911L182.15,96.69H158.239Z" fill="#6787b2"/>
    <path id="Trazado_134163" data-name="Trazado 134163" d="M187.166,113.495H162.983l-6.149-16.933h24.183Z" fill="#e8edbc"/>
    <path id="Trazado_134164" data-name="Trazado 134164" d="M187.35,113.623H162.893l-.03-.084-6.212-17.105h24.456l.031.085Zm-24.277-.256h23.911L180.928,96.69H157.017Z" fill="#6787b2"/>
    <path id="Trazado_134165" data-name="Trazado 134165" d="M127.212,21.617a10.415,10.415,0,0,0-7.387-3.06h-13.9A10.446,10.446,0,0,0,95.481,29v5.94A10.448,10.448,0,0,0,104.6,45.307a4.413,4.413,0,0,1-.488,1.147c-.9,1.467-2.614,2.181-4.218,2.805a19.677,19.677,0,0,0,5.536.074,9.982,9.982,0,0,0,5.033-2.175,7.34,7.34,0,0,0,1.494-1.767h7.871a10.447,10.447,0,0,0,10.447-10.447V29a10.415,10.415,0,0,0-3.06-7.387" fill="#ec7724"/>
    <path id="Trazado_134166" data-name="Trazado 134166" d="M125.146,21.617a10.415,10.415,0,0,0-7.387-3.06h-13.9A10.446,10.446,0,0,0,93.415,29v5.94a10.448,10.448,0,0,0,9.116,10.363,4.413,4.413,0,0,1-.488,1.147c-.9,1.467-2.614,2.181-4.218,2.805a19.677,19.677,0,0,0,5.536.074,9.982,9.982,0,0,0,5.033-2.175,7.34,7.34,0,0,0,1.494-1.767h7.871a10.447,10.447,0,0,0,10.447-10.447V29a10.415,10.415,0,0,0-3.06-7.387" fill="#f49c68"/>
    <path id="Trazado_134167" data-name="Trazado 134167" d="M105.427,27.784h-3.193V24.591h3.193v3.193Z" fill="#fff"/>
    <path id="Trazado_134168" data-name="Trazado 134168" d="M112.407,27.784h-3.193V24.591h3.193v3.193Z" fill="#fff"/>
    <path id="Trazado_134169" data-name="Trazado 134169" d="M119.387,27.784h-3.193V24.591h3.193v3.193Z" fill="#fff"/>
    <path id="Trazado_134170" data-name="Trazado 134170" d="M126.712,29.811a10.415,10.415,0,0,1,7.387-3.06H148A10.446,10.446,0,0,1,158.443,37.2v5.94A10.448,10.448,0,0,1,149.326,53.5a4.451,4.451,0,0,0,.489,1.147c.9,1.467,2.614,2.181,4.218,2.805a19.677,19.677,0,0,1-5.536.074,9.982,9.982,0,0,1-5.033-2.175,7.34,7.34,0,0,1-1.494-1.767H134.1a10.447,10.447,0,0,1-10.447-10.447V37.2a10.415,10.415,0,0,1,3.06-7.387" fill="#28649e"/>
    <path id="Trazado_134171" data-name="Trazado 134171" d="M128.778,29.811a10.415,10.415,0,0,1,7.387-3.06h13.9A10.446,10.446,0,0,1,160.509,37.2v5.94A10.448,10.448,0,0,1,151.392,53.5a4.451,4.451,0,0,0,.489,1.147c.9,1.467,2.614,2.181,4.218,2.805a19.676,19.676,0,0,1-5.536.074,9.982,9.982,0,0,1-5.033-2.175,7.34,7.34,0,0,1-1.494-1.767h-7.871a10.447,10.447,0,0,1-10.447-10.447V37.2a10.415,10.415,0,0,1,3.06-7.387" fill="#4c7bb1"/>
    <path id="Trazado_134172" data-name="Trazado 134172" d="M148.5,35.978h3.193V32.785H148.5v3.193Z" fill="#fff"/>
    <path id="Trazado_134173" data-name="Trazado 134173" d="M141.517,35.978h3.193V32.785h-3.193v3.193Z" fill="#fff"/>
    <path id="Trazado_134174" data-name="Trazado 134174" d="M134.537,35.978h3.193V32.785h-3.193v3.193Z" fill="#fff"/>
  </g>
</svg>
