<svg id="Grupo_159061" data-name="Grupo 159061" xmlns="http://www.w3.org/2000/svg" xmlns:xlink="http://www.w3.org/1999/xlink" width="275" height="184" viewBox="0 0 275 184">
  <defs>
    <clipPath id="clip-path">
      <rect id="Rectángulo_38384" data-name="Rectángulo 38384" width="275" height="184" fill="none"/>
    </clipPath>
  </defs>
  <g id="Grupo_159060" data-name="Grupo 159060" clip-path="url(#clip-path)">
    <path id="Trazado_134175" data-name="Trazado 134175" d="M137.5,19.327A72.673,72.673,0,1,1,64.827,92,72.673,72.673,0,0,1,137.5,19.327" fill="#b0c8cb"/>
    <path id="Trazado_134176" data-name="Trazado 134176" d="M135.011,94.02H88.4a1.869,1.869,0,0,1-1.869-1.869V31.69A1.869,1.869,0,0,1,88.4,29.821h46.607a1.869,1.869,0,0,1,1.869,1.869V92.151a1.869,1.869,0,0,1-1.869,1.869" fill="#28649e"/>
    <path id="Trazado_134177" data-name="Trazado 134177" d="M135.012,94.106H88.4a1.956,1.956,0,0,1-1.954-1.954V31.691A1.956,1.956,0,0,1,88.4,29.736h46.607a1.957,1.957,0,0,1,1.954,1.955V92.152a1.957,1.957,0,0,1-1.954,1.954M88.4,29.907a1.786,1.786,0,0,0-1.784,1.784V92.152A1.786,1.786,0,0,0,88.4,93.935h46.607a1.785,1.785,0,0,0,1.783-1.783V31.691a1.785,1.785,0,0,0-1.783-1.784Z" fill="#6787b2"/>
    <path id="Trazado_134178" data-name="Trazado 134178" d="M134.992,29.821H88.424a1.888,1.888,0,0,0-1.888,1.888v4.643H136.88V31.709a1.888,1.888,0,0,0-1.888-1.888" fill="#064679"/>
    <path id="Trazado_134179" data-name="Trazado 134179" d="M136.966,36.438H86.45V31.71a1.977,1.977,0,0,1,1.974-1.974h46.568a1.977,1.977,0,0,1,1.974,1.974Zm-50.345-.171h50.174V31.71a1.805,1.805,0,0,0-1.8-1.8H88.424a1.805,1.805,0,0,0-1.8,1.8Z" fill="#6787b2"/>
    <path id="Trazado_134180" data-name="Trazado 134180" d="M91.893,33.087a1.141,1.141,0,1,1-1.141-1.141,1.141,1.141,0,0,1,1.141,1.141" fill="#fff"/>
    <path id="Trazado_134181" data-name="Trazado 134181" d="M95.666,33.087a1.141,1.141,0,1,1-1.141-1.141,1.141,1.141,0,0,1,1.141,1.141" fill="#fff"/>
    <path id="Trazado_134182" data-name="Trazado 134182" d="M99.439,33.087A1.142,1.142,0,1,1,98.3,31.946a1.141,1.141,0,0,1,1.141,1.141" fill="#fff"/>
    <rect id="Rectángulo_38333" data-name="Rectángulo 38333" width="2.916" height="0.855" transform="matrix(0.711, -0.704, 0.704, 0.711, 131.703, 33.809)" fill="#fff"/>
    <rect id="Rectángulo_38334" data-name="Rectángulo 38334" width="0.855" height="2.916" transform="matrix(0.704, -0.711, 0.711, 0.704, 131.703, 32.365)" fill="#fff"/>
    <rect id="Rectángulo_38335" data-name="Rectángulo 38335" width="35.539" height="35.539" transform="translate(93.939 40.587)" fill="#064679"/>
    <path id="Trazado_134183" data-name="Trazado 134183" d="M129.563,76.212H93.853V40.5h35.71Zm-35.539-.171h35.368V40.673H94.024Z" fill="#6787b2"/>
    <rect id="Rectángulo_38336" data-name="Rectángulo 38336" width="50.26" height="0.171" transform="translate(93.878 76.066) rotate(-45.002)" fill="#fff"/>
    <rect id="Rectángulo_38337" data-name="Rectángulo 38337" width="0.171" height="50.26" transform="translate(93.878 40.648) rotate(-45)" fill="#fff"/>
    <rect id="Rectángulo_38338" data-name="Rectángulo 38338" width="11.807" height="1.649" transform="translate(93.204 79.817)" fill="#064679"/>
    <path id="Trazado_134184" data-name="Trazado 134184" d="M105.1,81.551H93.118V79.732H105.1Zm-11.807-.17h11.636V79.9H93.289Z" fill="#6787b2"/>
    <rect id="Rectángulo_38339" data-name="Rectángulo 38339" width="7.36" height="1.649" transform="translate(112.903 79.817)" fill="#064679"/>
    <path id="Trazado_134185" data-name="Trazado 134185" d="M120.348,81.551h-7.531V79.732h7.531Zm-7.36-.17h7.19V79.9h-7.19Z" fill="#6787b2"/>
    <rect id="Rectángulo_38340" data-name="Rectángulo 38340" width="7.36" height="1.649" transform="translate(112.903 88.239)" fill="#064679"/>
    <path id="Trazado_134186" data-name="Trazado 134186" d="M120.348,89.974h-7.531v-1.82h7.531Zm-7.36-.171h7.19V88.325h-7.19Z" fill="#6787b2"/>
    <rect id="Rectángulo_38341" data-name="Rectángulo 38341" width="13.379" height="1.649" transform="translate(112.902 82.624)" fill="#064679"/>
    <path id="Trazado_134187" data-name="Trazado 134187" d="M126.366,84.359h-13.55V82.54h13.55Zm-13.378-.171H126.2V82.71H112.988Z" fill="#6787b2"/>
    <rect id="Rectángulo_38342" data-name="Rectángulo 38342" width="17.31" height="1.649" transform="translate(112.902 85.432)" fill="#064679"/>
    <path id="Trazado_134188" data-name="Trazado 134188" d="M130.3,87.166H112.817v-1.82H130.3ZM112.988,87h17.139V85.517H112.988Z" fill="#6787b2"/>
    <rect id="Rectángulo_38343" data-name="Rectángulo 38343" width="2.542" height="1.649" transform="translate(121.858 79.817)" fill="#064679"/>
    <path id="Trazado_134189" data-name="Trazado 134189" d="M124.485,81.551h-2.712V79.732h2.712Zm-2.541-.17h2.371V79.9h-2.371Z" fill="#6787b2"/>
    <rect id="Rectángulo_38344" data-name="Rectángulo 38344" width="9.131" height="1.649" transform="translate(93.203 82.624)" fill="#064679"/>
    <path id="Trazado_134190" data-name="Trazado 134190" d="M102.42,84.359h-9.3V82.54h9.3Zm-9.131-.171h8.96V82.71h-8.96Z" fill="#6787b2"/>
    <rect id="Rectángulo_38345" data-name="Rectángulo 38345" width="3.862" height="1.649" transform="translate(103.08 82.624)" fill="#064679"/>
    <path id="Trazado_134191" data-name="Trazado 134191" d="M107.027,84.359h-4.033V82.54h4.033Zm-3.862-.171h3.692V82.71h-3.692Z" fill="#6787b2"/>
    <rect id="Rectángulo_38346" data-name="Rectángulo 38346" width="17.056" height="1.649" transform="translate(93.204 85.432)" fill="#064679"/>
    <path id="Trazado_134192" data-name="Trazado 134192" d="M110.346,87.166H93.119v-1.82h17.227ZM93.289,87h16.885V85.517H93.289Z" fill="#6787b2"/>
    <rect id="Rectángulo_38347" data-name="Rectángulo 38347" width="7.419" height="1.649" transform="translate(93.203 88.239)" fill="#064679"/>
    <path id="Trazado_134193" data-name="Trazado 134193" d="M100.708,89.974H93.119v-1.82h7.589ZM93.289,89.8h7.248V88.325H93.289Z" fill="#6787b2"/>
    <rect id="Rectángulo_38348" data-name="Rectángulo 38348" width="3.234" height="1.649" transform="translate(101.795 88.239)" fill="#064679"/>
    <path id="Trazado_134194" data-name="Trazado 134194" d="M105.115,89.974h-3.4v-1.82h3.4Zm-3.234-.171h3.063V88.325h-3.063Z" fill="#6787b2"/>
    <rect id="Rectángulo_38349" data-name="Rectángulo 38349" width="2.103" height="1.649" transform="translate(121.261 88.239)" fill="#064679"/>
    <path id="Trazado_134195" data-name="Trazado 134195" d="M123.45,89.974h-2.274v-1.82h2.274Zm-2.1-.171h1.932V88.325h-1.932Z" fill="#6787b2"/>
    <path id="Trazado_134196" data-name="Trazado 134196" d="M64.915,103.673H94.708a2,2,0,0,0,2-2V57.1a2,2,0,0,0-2-2H64.915a2,2,0,0,0-2,2v44.573a2,2,0,0,0,2,2" fill="#4c7bb1"/>
    <path id="Trazado_134197" data-name="Trazado 134197" d="M94.708,103.758H64.915a2.089,2.089,0,0,1-2.087-2.087V57.1a2.089,2.089,0,0,1,2.087-2.087H94.708A2.089,2.089,0,0,1,96.795,57.1v44.574a2.089,2.089,0,0,1-2.087,2.087M64.915,55.181A1.918,1.918,0,0,0,63,57.1v44.574a1.918,1.918,0,0,0,1.916,1.916H94.708a1.918,1.918,0,0,0,1.917-1.916V57.1a1.919,1.919,0,0,0-1.917-1.916Z" fill="#6787b2"/>
    <path id="Trazado_134198" data-name="Trazado 134198" d="M64.893,55.1H94.725a1.985,1.985,0,0,1,1.985,1.985v2.5h-33.8V57.076a1.98,1.98,0,0,1,1.98-1.98" fill="#6787b2"/>
    <rect id="Rectángulo_38350" data-name="Rectángulo 38350" width="1.926" height="0.854" transform="matrix(0.707, -0.707, 0.707, 0.707, 93.564, 57.907)" fill="#fff"/>
    <rect id="Rectángulo_38351" data-name="Rectángulo 38351" width="0.854" height="1.926" transform="translate(93.564 57.149) rotate(-45)" fill="#fff"/>
    <rect id="Rectángulo_38352" data-name="Rectángulo 38352" width="4.154" height="0.479" transform="translate(69.05 62.049)" fill="#e8edbc"/>
    <rect id="Rectángulo_38353" data-name="Rectángulo 38353" width="2.99" height="0.479" transform="translate(79.791 62.049)" fill="#e8edbc"/>
    <rect id="Rectángulo_38354" data-name="Rectángulo 38354" width="0.772" height="0.479" transform="translate(91.044 62.049)" fill="#e8edbc"/>
    <rect id="Rectángulo_38355" data-name="Rectángulo 38355" width="5.801" height="0.479" transform="translate(67.786 63.799)" fill="#e8edbc"/>
    <rect id="Rectángulo_38356" data-name="Rectángulo 38356" width="1.642" height="0.479" transform="translate(80.749 76.627)" fill="#e8edbc"/>
    <rect id="Rectángulo_38357" data-name="Rectángulo 38357" width="0.604" height="0.479" transform="translate(74.554 80.334)" fill="#e8edbc"/>
    <rect id="Rectángulo_38358" data-name="Rectángulo 38358" width="24.573" height="0.479" transform="translate(65.822 65.579)" fill="#e8edbc"/>
    <rect id="Rectángulo_38359" data-name="Rectángulo 38359" width="12.818" height="0.479" transform="translate(69.509 67.485)" fill="#e8edbc"/>
    <rect id="Rectángulo_38360" data-name="Rectángulo 38360" width="7.765" height="0.479" transform="translate(67.389 71.103)" fill="#e8edbc"/>
    <rect id="Rectángulo_38361" data-name="Rectángulo 38361" width="3.768" height="0.479" transform="translate(72.19 74.593)" fill="#e8edbc"/>
    <rect id="Rectángulo_38362" data-name="Rectángulo 38362" width="16.505" height="0.479" transform="translate(65.822 78.505)" fill="#e8edbc"/>
    <rect id="Rectángulo_38363" data-name="Rectángulo 38363" width="16.302" height="0.479" transform="translate(78.109 80.383)" fill="#e8edbc"/>
    <rect id="Rectángulo_38364" data-name="Rectángulo 38364" width="5.533" height="0.479" transform="translate(82.952 78.505)" fill="#e8edbc"/>
    <rect id="Rectángulo_38365" data-name="Rectángulo 38365" width="13.252" height="0.479" transform="translate(78.981 71.103)" fill="#e8edbc"/>
    <rect id="Rectángulo_38366" data-name="Rectángulo 38366" width="9.337" height="0.479" transform="translate(81.867 63.799)" fill="#e8edbc"/>
    <rect id="Rectángulo_38367" data-name="Rectángulo 38367" width="4.154" height="0.479" transform="translate(80.492 82.291)" fill="#e8edbc"/>
    <rect id="Rectángulo_38368" data-name="Rectángulo 38368" width="7.765" height="0.479" transform="translate(65.822 84.041)" fill="#e8edbc"/>
    <rect id="Rectángulo_38369" data-name="Rectángulo 38369" width="22.937" height="0.479" transform="translate(65.823 89.438)" fill="#e8edbc"/>
    <rect id="Rectángulo_38370" data-name="Rectángulo 38370" width="7.765" height="0.479" transform="translate(65.822 91.344)" fill="#e8edbc"/>
    <rect id="Rectángulo_38371" data-name="Rectángulo 38371" width="3.768" height="0.479" transform="translate(81.068 94.835)" fill="#e8edbc"/>
    <rect id="Rectángulo_38372" data-name="Rectángulo 38372" width="8.987" height="0.479" transform="translate(65.67 95.314)" fill="#e8edbc"/>
    <rect id="Rectángulo_38373" data-name="Rectángulo 38373" width="4.64" height="0.479" transform="translate(65.999 98.746)" fill="#e8edbc"/>
    <rect id="Rectángulo_38374" data-name="Rectángulo 38374" width="2.457" height="0.479" transform="translate(85.307 74.593)" fill="#e8edbc"/>
    <rect id="Rectángulo_38375" data-name="Rectángulo 38375" width="7.765" height="0.479" transform="translate(67.389 100.624)" fill="#e8edbc"/>
    <rect id="Rectángulo_38376" data-name="Rectángulo 38376" width="16.302" height="0.479" transform="translate(78.109 100.624)" fill="#e8edbc"/>
    <rect id="Rectángulo_38377" data-name="Rectángulo 38377" width="5.533" height="0.479" transform="translate(84.085 98.746)" fill="#e8edbc"/>
    <rect id="Rectángulo_38378" data-name="Rectángulo 38378" width="4.38" height="0.479" transform="translate(78.982 91.344)" fill="#e8edbc"/>
    <rect id="Rectángulo_38379" data-name="Rectángulo 38379" width="16.945" height="0.479" transform="translate(69.315 87.252)" fill="#e8edbc"/>
    <rect id="Rectángulo_38380" data-name="Rectángulo 38380" width="2.471" height="0.479" transform="translate(87.779 91.344)" fill="#e8edbc"/>
    <rect id="Rectángulo_38381" data-name="Rectángulo 38381" width="0.377" height="0.479" transform="translate(90.514 91.344)" fill="#e8edbc"/>
    <rect id="Rectángulo_38382" data-name="Rectángulo 38382" width="6.566" height="0.479" transform="translate(74.534 84.041)" fill="#e8edbc"/>
    <rect id="Rectángulo_38383" data-name="Rectángulo 38383" width="9.337" height="0.479" transform="translate(81.867 84.041)" fill="#e8edbc"/>
    <path id="Trazado_134199" data-name="Trazado 134199" d="M66,57.408a.642.642,0,1,1-.642-.642.642.642,0,0,1,.642.642" fill="#fff"/>
    <path id="Trazado_134200" data-name="Trazado 134200" d="M68.563,57.408a.642.642,0,1,1-.642-.642.642.642,0,0,1,.642.642" fill="#fff"/>
    <path id="Trazado_134201" data-name="Trazado 134201" d="M71.129,57.408a.641.641,0,1,1-.642-.642.642.642,0,0,1,.642.642" fill="#fff"/>
    <path id="Trazado_134202" data-name="Trazado 134202" d="M70.142,128.219l1.8-.133a17.411,17.411,0,0,1-4.389-2.929,5.882,5.882,0,0,1-1.864-4.762,3.071,3.071,0,0,0,1.886.08,14.634,14.634,0,0,1-4.032-4.662c-.987-2.162-.859-4.65-.649-7.017a7.558,7.558,0,0,1,.477-2.362,2.65,2.65,0,0,1,1.711-1.587c1.27-.3,2.508.723,3.1,1.887s1.131,2.918,1.752,4.084c.305-1,.376-2.861.785-3.858,2.778,1.462,4.894,3.734,7.017,6.047a3.729,3.729,0,0,1,1.02,1.648,4.006,4.006,0,0,1-.149,1.748q-.646,2.712-1.291,5.425l2.529-3.567a9.169,9.169,0,0,0,.591,1.35q.266.687.471,1.395a17.858,17.858,0,0,1,.6,2.977,18.311,18.311,0,0,1-.32,6.046,17.553,17.553,0,0,1-.93,2.937c-.15.361-.263.878-.733.85-.382-.023-.739-.485-1.007-.712a13.993,13.993,0,0,0-4.134-2.073c-1.582-.615-3.282-1.325-4.238-2.812" fill="#fbc387"/>
    <path id="Trazado_134203" data-name="Trazado 134203" d="M81.566,144.788a96.813,96.813,0,0,0-15.18-35.251l.323-.225a96.645,96.645,0,0,1,9.4,16.931,96.538,96.538,0,0,1,5.84,18.465Z" fill="#ef7e6b"/>
    <path id="Trazado_134204" data-name="Trazado 134204" d="M66.433,114.39a4.768,4.768,0,0,1-2.843-2l.329-.216a4.37,4.37,0,0,0,2.606,1.83Z" fill="#ef7e6b"/>
    <path id="Trazado_134205" data-name="Trazado 134205" d="M68.679,117.212a5.5,5.5,0,0,1-3.155-.99l.226-.321a5.182,5.182,0,0,0,4.305.727l.108.378a5.424,5.424,0,0,1-1.484.206" fill="#ef7e6b"/>
    <path id="Trazado_134206" data-name="Trazado 134206" d="M72.818,118.374l-.341-.2a9.1,9.1,0,0,0,1.213-4.76l.393-.009a9.485,9.485,0,0,1-1.265,4.965" fill="#ef7e6b"/>
    <path id="Trazado_134207" data-name="Trazado 134207" d="M74.359,121.275l-.286-.27a2.735,2.735,0,0,0,.654-2.481l.381-.1a3.137,3.137,0,0,1-.749,2.846" fill="#ef7e6b"/>
    <path id="Trazado_134208" data-name="Trazado 134208" d="M76.018,129.394a3.781,3.781,0,0,1-1.928-.53l.2-.338a3.386,3.386,0,0,0,1.99.464l.032.392c-.1.008-.2.012-.3.012" fill="#ef7e6b"/>
    <path id="Trazado_134209" data-name="Trazado 134209" d="M93.635,124.684l-1.794.214a17.391,17.391,0,0,0,3.747-3.714,5.884,5.884,0,0,0,.919-5.031,3.078,3.078,0,0,1-1.837.439,14.624,14.624,0,0,0,3.066-5.347c.555-2.311-.046-4.728-.706-7.012a7.566,7.566,0,0,0-.919-2.227,2.654,2.654,0,0,0-1.983-1.23c-1.305-.053-2.324,1.189-2.681,2.445s-.551,3.08-.938,4.344c-.491-.926-.916-2.737-1.508-3.637-2.447,1.967-4.089,4.6-5.73,7.278a3.73,3.73,0,0,0-.686,1.812,3.987,3.987,0,0,0,.481,1.688q1.152,2.54,2.305,5.078l-3.165-3.017a9.287,9.287,0,0,1-.322,1.438q-.129.726-.2,1.46a17.884,17.884,0,0,0-.015,3.035,18.3,18.3,0,0,0,1.47,5.873,17.577,17.577,0,0,0,1.475,2.705c.216.326.426.812.882.694.371-.1.633-.617.852-.891a13.99,13.99,0,0,1,3.661-2.825c1.435-.907,2.968-1.93,3.622-3.572" fill="#fbc387"/>
    <path id="Trazado_134210" data-name="Trazado 134210" d="M85.592,143.132l-.393-.005a96.722,96.722,0,0,1,8.187-37.658l.36.159a96.8,96.8,0,0,0-8.154,37.5" fill="#ef7e6b"/>
    <path id="Trazado_134211" data-name="Trazado 134211" d="M94.629,110.4l-.163-.358a4.362,4.362,0,0,0,2.207-2.294l.364.149a4.764,4.764,0,0,1-2.408,2.5" fill="#ef7e6b"/>
    <path id="Trazado_134212" data-name="Trazado 134212" d="M91.924,113.7c-.152,0-.3-.006-.456-.02l.034-.391a5.177,5.177,0,0,0,4.085-1.537l.284.272a5.513,5.513,0,0,1-3.947,1.676" fill="#ef7e6b"/>
    <path id="Trazado_134213" data-name="Trazado 134213" d="M89.124,115.533a9.491,9.491,0,0,1-2.192-4.631l.387-.066a9.108,9.108,0,0,0,2.1,4.439Z" fill="#ef7e6b"/>
    <path id="Trazado_134214" data-name="Trazado 134214" d="M88.167,118.675a3.136,3.136,0,0,1-1.28-2.65l.393.02a2.732,2.732,0,0,0,1.116,2.31Z" fill="#ef7e6b"/>
    <path id="Trazado_134215" data-name="Trazado 134215" d="M87.8,127.007l-.044-.391a3.378,3.378,0,0,0,1.865-.836l.262.293a3.774,3.774,0,0,1-2.083.934" fill="#ef7e6b"/>
    <path id="Trazado_134216" data-name="Trazado 134216" d="M85.768,90.8a10.8,10.8,0,0,0,1.427-2.163,2.269,2.269,0,0,1,2.122-1.225A2.507,2.507,0,0,1,90.735,88.5a18.658,18.658,0,0,1,2.786,6.061,19.1,19.1,0,0,1,.926,6.228,9.244,9.244,0,0,1-2.206,5.795l1.538-.179a15.343,15.343,0,0,1-4.576,10.8c1.145-.347,2.388-.469,3.532-.816a14.869,14.869,0,0,1-3.866,5.972,30.524,30.524,0,0,0-4.615,5.484,19.522,19.522,0,0,1-4.853-8.277,32.273,32.273,0,0,1-1.1-9.547,8.054,8.054,0,0,1,3.626,3.109,10.279,10.279,0,0,0-4.143-7.4A23.32,23.32,0,0,1,83.857,92.99a17.923,17.923,0,0,0,2.054,3.134,10.71,10.71,0,0,0-.143-5.323" fill="#ef7e6b"/>
    <path id="Trazado_134217" data-name="Trazado 134217" d="M86.271,143.571a90.011,90.011,0,0,1-.481-36.645c.258-1.316.55-2.648.832-3.936a73.9,73.9,0,0,0,1.656-9.514l.392.033a74.264,74.264,0,0,1-1.664,9.565c-.282,1.286-.573,2.616-.83,3.927a89.614,89.614,0,0,0,.479,36.484Z" fill="#fbc387"/>
    <path id="Trazado_134218" data-name="Trazado 134218" d="M84.975,122.477l-.079-.385a3.043,3.043,0,0,0,2.23-2.016l.375.118a3.4,3.4,0,0,1-2.526,2.283" fill="#fbc387"/>
    <path id="Trazado_134219" data-name="Trazado 134219" d="M84.866,111.265a5.9,5.9,0,0,1-2.338-3.607l.385-.077a5.507,5.507,0,0,0,2.18,3.364Z" fill="#ef7e6b"/>
    <path id="Trazado_134220" data-name="Trazado 134220" d="M84.563,107.325a13.6,13.6,0,0,1-1.861-4.646l.385-.077a13.229,13.229,0,0,0,1.807,4.512Z" fill="#fbc387"/>
    <path id="Trazado_134221" data-name="Trazado 134221" d="M86.685,104.458l-.019-.393a3.968,3.968,0,0,0,2.755-1.335l.3.258a4.371,4.371,0,0,1-3.033,1.47" fill="#fbc387"/>
    <path id="Trazado_134222" data-name="Trazado 134222" d="M88.739,97.817,88.51,97.5a4.148,4.148,0,0,0,1.6-2.418l.383.088a4.539,4.539,0,0,1-1.759,2.649" fill="#fbc387"/>
    <path id="Trazado_134223" data-name="Trazado 134223" d="M70.345,138.374a4.385,4.385,0,0,1,.587-1.208H94.417A4.385,4.385,0,0,1,95,138.374a13.328,13.328,0,0,1,.4,3.277,12.826,12.826,0,0,1-5.664,10.575,12.183,12.183,0,0,1-2.692.3H78.3a12.183,12.183,0,0,1-2.692-.3,12.826,12.826,0,0,1-5.664-10.575,13.328,13.328,0,0,1,.4-3.277" fill="#064679"/>
    <path id="Trazado_134224" data-name="Trazado 134224" d="M80.351,152.522h6.7a12.243,12.243,0,0,0,2.692-.3A12.828,12.828,0,0,0,95.4,141.65a13.363,13.363,0,0,0-.4-3.276,4.385,4.385,0,0,0-.587-1.208h-.256a12.837,12.837,0,0,1,.144,1.932,13.7,13.7,0,0,1-13.954,13.424" fill="#28649e"/>
    <path id="Trazado_134225" data-name="Trazado 134225" d="M77.922,152.517a11.073,11.073,0,0,1-2.313-.29,12.828,12.828,0,0,1-5.664-10.576,13.331,13.331,0,0,1,.4-3.277,4.369,4.369,0,0,1,.586-1.207H75.99c-1.82.225-7.467,11.279,1.932,15.35" fill="#064679"/>
    <path id="Trazado_134226" data-name="Trazado 134226" d="M209.766,68.049H187.723a2.485,2.485,0,0,0-2.484,2.485V91.622a2.484,2.484,0,0,0,2.484,2.484h22.043a2.484,2.484,0,0,0,2.485-2.484V70.534a2.485,2.485,0,0,0-2.485-2.485" fill="#4c7bb1"/>
    <path id="Trazado_134227" data-name="Trazado 134227" d="M209.735,68.046V89.134a2.485,2.485,0,0,1-2.485,2.484H185.207a2.485,2.485,0,0,1-2.485-2.484V68.046a2.485,2.485,0,0,1,2.485-2.485H207.25a2.485,2.485,0,0,1,2.485,2.485" fill="#e8edbc"/>
    <path id="Trazado_134228" data-name="Trazado 134228" d="M209.735,79.386v9.747a2.485,2.485,0,0,1-2.485,2.485H185.207a2.485,2.485,0,0,1-2.485-2.485V86.182l4.566-4.566,6.117,6.115,12.337-12.337Z" fill="#6787b2"/>
    <path id="Trazado_134229" data-name="Trazado 134229" d="M199.577,78.267a2.52,2.52,0,1,1-2.52-2.52,2.52,2.52,0,0,1,2.52,2.52" fill="#4c7bb1"/>
    <path id="Trazado_134230" data-name="Trazado 134230" d="M162.754,44.916,160.51,32.033l33.508.317-3.75,20.165-25.386-1.592-8.5,4.487Z" fill="#ec7724"/>
    <path id="Trazado_134231" data-name="Trazado 134231" d="M136.778,131.953H104.756a7.84,7.84,0,0,1-7.84-7.84V95.855a7.84,7.84,0,0,1,7.84-7.84h32.022a7.84,7.84,0,0,1,7.84,7.84v28.258a7.84,7.84,0,0,1-7.84,7.84" fill="#e8edbc"/>
    <path id="Trazado_134232" data-name="Trazado 134232" d="M136.778,132.038H104.756a7.934,7.934,0,0,1-7.925-7.925V95.854a7.934,7.934,0,0,1,7.925-7.925h32.022a7.934,7.934,0,0,1,7.925,7.925v28.259a7.934,7.934,0,0,1-7.925,7.925M104.756,88.1A7.763,7.763,0,0,0,97,95.854v28.259a7.762,7.762,0,0,0,7.754,7.754h32.022a7.763,7.763,0,0,0,7.754-7.754V95.854a7.764,7.764,0,0,0-7.754-7.754Z" fill="#6787b2"/>
    <path id="Trazado_134233" data-name="Trazado 134233" d="M152.458,131.953h32.021a7.841,7.841,0,0,0,7.841-7.84V95.855a7.841,7.841,0,0,0-7.841-7.84H152.458a7.841,7.841,0,0,0-7.841,7.84v28.258a7.841,7.841,0,0,0,7.841,7.84" fill="#e8edbc"/>
    <path id="Trazado_134234" data-name="Trazado 134234" d="M184.479,132.038H152.458a7.933,7.933,0,0,1-7.925-7.925V95.854a7.933,7.933,0,0,1,7.925-7.925h32.021a7.933,7.933,0,0,1,7.925,7.925v28.259a7.933,7.933,0,0,1-7.925,7.925M152.458,88.1a7.764,7.764,0,0,0-7.755,7.754v28.259a7.763,7.763,0,0,0,7.755,7.754h32.021a7.763,7.763,0,0,0,7.755-7.754V95.854a7.764,7.764,0,0,0-7.755-7.754Z" fill="#6787b2"/>
    <path id="Trazado_134235" data-name="Trazado 134235" d="M144.618,126.91h-40.79V111.3h32.851a7.939,7.939,0,0,1,7.939,7.939Z" fill="#e8edbc"/>
    <path id="Trazado_134236" data-name="Trazado 134236" d="M144.7,127H103.742V111.215h32.937a8.033,8.033,0,0,1,8.024,8.025Zm-40.79-.171h40.62V119.24a7.863,7.863,0,0,0-7.854-7.854H103.913Z" fill="#6787b2"/>
    <path id="Trazado_134237" data-name="Trazado 134237" d="M144.618,126.91h40.79V111.3H152.557a7.939,7.939,0,0,0-7.939,7.939Z" fill="#e8edbc"/>
    <path id="Trazado_134238" data-name="Trazado 134238" d="M185.493,127H144.532V119.24a8.034,8.034,0,0,1,8.025-8.025h32.936Zm-40.79-.171h40.62V111.386H152.557a7.863,7.863,0,0,0-7.854,7.854Z" fill="#6787b2"/>
    <path id="Trazado_134239" data-name="Trazado 134239" d="M105.3,149.264h-2.931c-2.763,0-4.555-2.566-3.308-4.739l4.628-8.067h12.4l-7.484,11.014a3.79,3.79,0,0,1-3.308,1.792" fill="#6787b2"/>
    <path id="Trazado_134240" data-name="Trazado 134240" d="M105.3,149.35h-2.932a3.866,3.866,0,0,1-3.378-1.828,2.975,2.975,0,0,1,0-3.039l4.653-8.11h12.614l-7.575,11.147a3.852,3.852,0,0,1-3.378,1.83m-1.562-12.806-4.6,8.024a2.806,2.806,0,0,0,0,2.868,3.693,3.693,0,0,0,3.23,1.743H105.3a3.685,3.685,0,0,0,3.234-1.75l7.4-10.885Z" fill="#6787b2"/>
    <path id="Trazado_134241" data-name="Trazado 134241" d="M184.413,149.264h2.931c2.763,0,4.555-2.566,3.308-4.739l-4.628-8.067h-12.4l7.484,11.014a3.79,3.79,0,0,0,3.308,1.792" fill="#6787b2"/>
    <path id="Trazado_134242" data-name="Trazado 134242" d="M187.344,149.35h-2.932a3.856,3.856,0,0,1-3.382-1.836l-7.571-11.141h12.614l4.653,8.11a2.975,2.975,0,0,1,0,3.039,3.865,3.865,0,0,1-3.378,1.828m-13.562-12.806,7.393,10.88a3.687,3.687,0,0,0,3.237,1.755h2.932a3.692,3.692,0,0,0,3.23-1.743,2.806,2.806,0,0,0,0-2.868l-4.6-8.024Z" fill="#6787b2"/>
    <path id="Trazado_134243" data-name="Trazado 134243" d="M196.987,104.427h-9.079a4.85,4.85,0,0,0-4.85,4.85V123.27H106.177V109.277a4.849,4.849,0,0,0-4.849-4.85H92.249a4.849,4.849,0,0,0-4.85,4.85v18.19a10.984,10.984,0,0,0,10.984,10.984l94.985-.29a10.988,10.988,0,0,0,8.469-10.694v-18.19a4.849,4.849,0,0,0-4.85-4.85" fill="#90b193"/>
    <path id="Trazado_134244" data-name="Trazado 134244" d="M98.384,138.536a11.083,11.083,0,0,1-11.07-11.07v-18.19a4.941,4.941,0,0,1,4.935-4.935h9.079a4.941,4.941,0,0,1,4.935,4.935v13.908h76.71V109.276a4.941,4.941,0,0,1,4.935-4.935h9.079a4.942,4.942,0,0,1,4.936,4.935v18.19a11.074,11.074,0,0,1-8.535,10.778l-.019,0Zm-6.135-34.024a4.769,4.769,0,0,0-4.764,4.764v18.19a10.911,10.911,0,0,0,10.9,10.9l94.975-.29a10.851,10.851,0,0,0,8.393-10.609v-18.19a4.77,4.77,0,0,0-4.765-4.764h-9.079a4.769,4.769,0,0,0-4.764,4.764v14.079H106.092V109.276a4.769,4.769,0,0,0-4.764-4.764Z" fill="#6787b2"/>
    <path id="Trazado_134245" data-name="Trazado 134245" d="M148.717,62.626A7.1,7.1,0,0,1,147.238,68a10.36,10.36,0,0,1-4.631,3.26,18.136,18.136,0,0,1-3.692.908,2.636,2.636,0,0,1-2.823-1.614,27.734,27.734,0,0,1-2.166-6.765,9.692,9.692,0,0,1,.646-5.141,7.269,7.269,0,0,1,2.673-3.189c.194-.125.648-.486.885-.418s.561.6.733.779c.533.561,1.091,1.1,1.668,1.614a29.67,29.67,0,0,0,8.186,5.187" fill="#f49c68"/>
    <path id="Trazado_134246" data-name="Trazado 134246" d="M148.73,67.313s-.421,0-1.089,0c-.06.1-.123.2-.189.293a5.648,5.648,0,0,1-1.893,2.28,5.977,5.977,0,0,1-1,.669c-.074.058-.149.116-.227.171a5.748,5.748,0,0,1-2.612,1.244,5.681,5.681,0,0,1-1.98.362q-.45,2.04-.9,4.079a4.205,4.205,0,0,1-.356,1.111c-.185.343-.108.355-.487.45-.116,3.683-1.342,7.685-.306,11.222.028.094.054.188.082.282,3.608-2.922,7.1-5.967,10.7-8.889a60.1,60.1,0,0,1-.552-7.237c.013-2.42-.073-3.782.8-6.04" fill="#f49c68"/>
    <path id="Trazado_134247" data-name="Trazado 134247" d="M128.682,70.745c.008-.037.016-.073.025-.11a11.134,11.134,0,0,1,2.262-3.989,11.192,11.192,0,0,0,2.375-4.529c.309-1.706-.152-3.5.293-5.177a6.4,6.4,0,0,1,3.8-4.02,12.392,12.392,0,0,1,9.621.164,6.564,6.564,0,0,1,4.035,5.1,5.734,5.734,0,0,0,3.467,4.584c1.294.609,2.866.8,3.808,1.877,1.213,1.384.865,3.668,2.083,5.048.823.932,2.192,1.24,3,2.186a3.962,3.962,0,0,1,.727,3.016c-.118,1.057-.476,2.071-.7,3.112a5.19,5.19,0,0,0,.126,3.137c.568,1.3,1.328,2.559,1.037,3.949-.318,1.519-1.754,2.417-2.734,3.513l-1.857,2.077a7.813,7.813,0,0,1-3.3,2.283,9.225,9.225,0,0,1-2.208.485c-.183.018-2.105-.032-2.1-.047a43.781,43.781,0,0,1,2.523-5.366c1.022-1.89,2-4.024.826-5.824-.707-1.087-2.585-.272-3.693-.945-.475-.288-.678-.769-1.064-1.124a9.215,9.215,0,0,1-1.261-1.321c-.723-.982-1.844-1.326-2.218-2.48a24.945,24.945,0,0,1-.839-4.684c-.169-1.721.493-3.687.553-5.415.018-.532.285-1.594-.218-1.971-.439-.33-1.257-.222-1.775-.326a7.95,7.95,0,0,1-3.563-1.779A8.15,8.15,0,0,1,138.936,57a7.012,7.012,0,0,0-3.74,5.157,16.109,16.109,0,0,0,.391,6.513,5.549,5.549,0,0,0,1.245,2.813,3.1,3.1,0,0,0,2.786.583,25.067,25.067,0,0,1-.826,4.746c-.256.183-3.422,4.433-3.491,4.408a10.446,10.446,0,0,1-6.311-5.931,8.188,8.188,0,0,1-.308-4.548" fill="#7d2345"/>
    <path id="Trazado_134248" data-name="Trazado 134248" d="M133.541,60.115l-.013-.005-2.083-.41a.881.881,0,0,0-1.04.72l-1.6,9.653a.977.977,0,0,0,.874,1.132l3.887.359c0-.034,1.861-11.116,1.861-11.116Z" fill="#e8edbc"/>
    <path id="Trazado_134249" data-name="Trazado 134249" d="M134.079,60.742l-.013-.005-2.048-.4a.881.881,0,0,0-1.028.726l-1.418,9.076a.96.96,0,0,0,.853,1.125l3.824.335c0-.034,1.683-10.539,1.683-10.539Z" fill="#fefffc"/>
    <path id="Trazado_134250" data-name="Trazado 134250" d="M134.332,71.7l-.09-.016-3.824-.335a1.026,1.026,0,0,1-.726-.4,1.066,1.066,0,0,1-.2-.827l1.418-9.076a.973.973,0,0,1,.407-.642.945.945,0,0,1,.721-.154l2.068.4,1.928.334-.013.083c-.017.1-1.666,10.4-1.683,10.535Zm-2.478-11.293a.776.776,0,0,0-.443.14.8.8,0,0,0-.336.53l-1.418,9.076a.889.889,0,0,0,.171.694.85.85,0,0,0,.6.332l3.744.328c.116-.745.947-5.94,1.658-10.378l-1.793-.312-2.04-.4a.824.824,0,0,0-.148-.014" fill="#6787b2"/>
    <path id="Trazado_134251" data-name="Trazado 134251" d="M127.425,81.078c-1.28.59-2.555,1.194-3.817,1.822-.718.358-1.433.723-2.14,1.1q-.513.274-1.019.559c-.314.177-.542.357-.915.257a1.441,1.441,0,0,1-.593-.367,1.956,1.956,0,0,0-.834-.588,1.136,1.136,0,0,0-.831.19,6.259,6.259,0,0,0-.677.553,8.075,8.075,0,0,0-1.93,1.709,2.917,2.917,0,0,0,.185,2.977,5.8,5.8,0,0,0,1.643,1.621c.525.369.8.694,1.482.635.9-.079,1.805-.237,2.7-.4a50.261,50.261,0,0,0,7.258-1.858,16.322,16.322,0,0,0,4.174-1.949c-1.976-2.425-2.414-4.108-4.683-6.262" fill="#f49c68"/>
    <path id="Trazado_134252" data-name="Trazado 134252" d="M147.036,68.175a7.825,7.825,0,0,1-1.221,2.443,10.355,10.355,0,0,1-4.63,3.261c-.477.178-1.3.431-1.809.562a9.5,9.5,0,0,0,.223-2.377,17.35,17.35,0,0,0,3.007-.8,10.183,10.183,0,0,0,4.43-3.091" fill="#f0836e"/>
    <path id="Trazado_134253" data-name="Trazado 134253" d="M133.883,76.754a15.629,15.629,0,0,1,1.653-1.12c.359-.176.758-.227,1.125-.386.758-.329,1.478-.794,2.2-1.188,0,0-.019,1.328-.015,1.789,0,.589.086,1.346.145,1.92a13.6,13.6,0,0,0,.258,1.846,8.544,8.544,0,0,0,.877,2.858.941.941,0,0,0,.492.484.92.92,0,0,0,.526-.059,7.874,7.874,0,0,0,4.163-3.275c.352-.565.632-1.173,1-1.725a3.856,3.856,0,0,1,.9-.976,3.929,3.929,0,0,1,.571-.3c.2-.105.274-.281.427-.451a1.612,1.612,0,0,1,.841-.542,2.2,2.2,0,0,1,1.127.153,23.645,23.645,0,0,1,3.929,1.7,14.406,14.406,0,0,1,3.573,2.216c.526.468-.274,1.695-.115,2.38a3.155,3.155,0,0,1,.009,1.135l.028-.077c-.687,1.894-.558,4.164-.959,6.128-.467,2.29-.926,4.581-1.345,6.88a107.5,107.5,0,0,0-1.735,13.717l-20.273-.092c.263,0,.728-3.442.773-3.8a25.5,25.5,0,0,0,.19-4.031c-.052-1.515-.552-3.017-.636-4.573-.15-2.794.043-5.648-.243-8.429a.932.932,0,0,0-.026-.2c-.735.058-3.259,1.191-3.985,1.345a47.306,47.306,0,0,1-2.666-9.548,41.1,41.1,0,0,0,7.188-3.788" fill="#e8edbc"/>
    <path id="Trazado_134254" data-name="Trazado 134254" d="M138.472,73.92l-2,1.089a.8.8,0,0,0-.415.676l-.111,3.448,1.373-.616-1.39,1.406a8.934,8.934,0,0,0,4.489,3.115L138.9,74.126a.29.29,0,0,0-.425-.206" fill="#90b193"/>
    <path id="Trazado_134255" data-name="Trazado 134255" d="M140.782,82.76a28.818,28.818,0,0,0,6.689-8.625,4.432,4.432,0,0,1,3.033,1.9s-1.035,4.45-3.509,5.2l-1.787-.442,1.229,1.3a7.306,7.306,0,0,1-5.655.673" fill="#90b193"/>
    <path id="Trazado_134256" data-name="Trazado 134256" d="M141.208,83.073a.666.666,0,1,1-.635-.695.665.665,0,0,1,.635.695" fill="#90b193"/>
    <path id="Trazado_134257" data-name="Trazado 134257" d="M138.609,89.631a.612.612,0,1,0,.638-.584.611.611,0,0,0-.638.584" fill="#90b193"/>
    <path id="Trazado_134258" data-name="Trazado 134258" d="M137.654,97.279a.612.612,0,1,0,.638-.584.611.611,0,0,0-.638.584" fill="#e8edbc"/>
    <path id="Trazado_134259" data-name="Trazado 134259" d="M155.369,95.209c.122-.706.8-4.2,1.119-5.537a45.081,45.081,0,0,1-6.248-4.5c-.372-.318-.739-.641-1.122-.945-.348-.276-1.363-.886-1.363-.886a13.633,13.633,0,0,0,1.1,3.011,84.71,84.71,0,0,0,6.513,8.859" fill="#90b193"/>
    <path id="Trazado_134260" data-name="Trazado 134260" d="M130.987,71.326l-.738.963a56.086,56.086,0,0,0-5.321,8.422c-1.514,2.93-2.9,5.935-4.669,8.725-.469.741-1.129,1.706-2.042,1.9A5.382,5.382,0,0,1,115,90.9a3.835,3.835,0,0,1-2.179-2.715,4.285,4.285,0,0,1,.565-2.72,12.866,12.866,0,0,1,1.708-2.25l4.617-5.228c.946-1.07,1.96-2.065,2.978-3.06l3.854-3.762c.383-.374.272-.913.286-1.448l.069-2.622a2.322,2.322,0,0,1,.111-.784.784.784,0,0,1,.562-.513,1.818,1.818,0,0,1,.159-.847.79.79,0,0,1,.7-.391.99.99,0,0,1,.654-1.3c.218-.6.388-1.2.606-1.794a5.679,5.679,0,0,1,.926-1.819.441.441,0,0,1,.307-.189.314.314,0,0,1,.277.229.883.883,0,0,0-.8.734l-.477,2.875c0,.059-.07.105-.023.14.065.05.133.1.186.149a4.615,4.615,0,0,1,.506.531,1.541,1.541,0,0,1,.309.658.928.928,0,0,1-.144.7.668.668,0,0,1-.641.272,1.277,1.277,0,0,1,.532.749.7.7,0,0,1,0,.417.375.375,0,0,1-.308.255,2.081,2.081,0,0,1,.826,1.658.673.673,0,0,1-.124.437.52.52,0,0,1-.6.1,1.1,1.1,0,0,1-.454-.462,6.532,6.532,0,0,0-.33-.569.839.839,0,0,0-.508-.355c0,.008-.01.06-.01.06s-.178,1.074-.275,1.657c-.015.094-.015.19-.021.285a2.047,2.047,0,0,0,.013.476.753.753,0,0,0,.206.421,1.108,1.108,0,0,0,.431.222,2.856,2.856,0,0,0,.513.145c.345.044.676.033.977.09" fill="#f49c68"/>
    <path id="Trazado_134261" data-name="Trazado 134261" d="M181.285,104.925a1.835,1.835,0,0,0-.255-.47c-.315-.5-.437-1.1-.708-1.633a3.179,3.179,0,0,0-.461-.67,6.374,6.374,0,0,0-1.972-1.318c-.06.044-.151-.074-.159-.149a.292.292,0,0,1,.087-.2,5.423,5.423,0,0,0,.394-.452.579.579,0,0,0,.079-.567.555.555,0,0,0-.431-.268,2.39,2.39,0,0,0-.527.022,3.614,3.614,0,0,1-1.677-.248,6.392,6.392,0,0,0-2.472.292A66.4,66.4,0,0,0,164.244,92c-.13-.013-2.317-4.019-2.448-4.038-1.663-.2-1.107,3.18-2.444,2.171L158.3,89.079c-.889,2.361-4.086,1.521-3.947,1.726-.062.756,3.274,4.056,3.88,4.511a45.848,45.848,0,0,0,13.381,7.146,5.54,5.54,0,0,0,1.206,1.624,12.175,12.175,0,0,0,2.443,1.605,3.8,3.8,0,0,1,1.885,2.15,2.106,2.106,0,0,0,.117.409.438.438,0,0,0,.315.261c.179.023.278-.031.319-.207a1.412,1.412,0,0,0,.814.772.467.467,0,0,0,.516-.067.554.554,0,0,0,.041-.47l-.288-1.321q.286.4.572.794a.527.527,0,0,0,.3.248.353.353,0,0,0,.368-.279.919.919,0,0,0-.05-.5,1.327,1.327,0,0,1-.094-.5,7.158,7.158,0,0,0-.19-1.92,4.476,4.476,0,0,0-1.218-1.994,5.423,5.423,0,0,1,1.743,1.844,1.4,1.4,0,0,0,.274.4.405.405,0,0,0,.448.082.416.416,0,0,0,.153-.474" fill="#f49c68"/>
    <path id="Trazado_134262" data-name="Trazado 134262" d="M147.824,83.294a36.139,36.139,0,0,0,7.473,9.724c4.22-1.865,4.943-1.276,7.74-4.945-2.3-3.435-3.974-8.248-7.408-9.8" fill="#e8edbc"/>
    <path id="Trazado_134263" data-name="Trazado 134263" d="M122.518,110.625c0,2.138,14.227,8.733,23.3,8.733s9.548-6.6,9.548-8.733-7.006-.7-16.076-.7-16.769-1.439-16.769.7" fill="#064679"/>
    <path id="Trazado_134264" data-name="Trazado 134264" d="M162.557,120.963c-.324-1.437-2.563-1.458-2.563-1.458l-3.753.139c-1.976.045-4.067-.133-4.067-.133l-.966-.193c-.806-.275-1.481-.58-2.474-1.01-.17-.074-3.079-1.485-3.285-1.536-.089.154-1.545,5.58-1.545,5.58,2.5.538,6.031,1.6,8.294,1.9a29.276,29.276,0,0,0,4.041.387c.147,0,.294-.006.441-.015l2.692.69s2.057.481,2.76-.865a4.827,4.827,0,0,0,.608-1.9,3.958,3.958,0,0,0-.183-1.584" fill="#f49c68"/>
    <path id="Trazado_134265" data-name="Trazado 134265" d="M157.156,125.649l-3.616-1.06-3.593-.7,1.6-.03a17.466,17.466,0,0,1,3.969.409l3.742.962s2,.6,2.7-.75a4.819,4.819,0,0,0,.609-1.9,3.957,3.957,0,0,0-.183-1.584c-.323-1.437-2.562-1.458-2.562-1.458l-3.752.139c-1.976.046-4.065-.133-4.065-.133l-1.419-.347,3.551-.121,3.759-.269a22.459,22.459,0,0,1,5.1.23c2.94.411,3.206,2.365,3.206,2.365a5.484,5.484,0,0,1,.049,1.584,4.571,4.571,0,0,1-.425,1.981,3.685,3.685,0,0,1-3.631,1.538,22.489,22.489,0,0,1-5.035-.857" fill="#064679"/>
    <path id="Trazado_134266" data-name="Trazado 134266" d="M144.281,122.489a114.7,114.7,0,0,1-15.038-2.995,30.708,30.708,0,0,1-9.725-4.043,8.486,8.486,0,0,1-2.9-3.1,4.173,4.173,0,0,1,.1-4.077,4.476,4.476,0,0,1,3.633-1.766,11.022,11.022,0,0,1,4.089.891c7.295,2.744,13.773,7.525,21.351,9.387Z" fill="#064679"/>
    <path id="Trazado_134267" data-name="Trazado 134267" d="M145.672,122.219l1.294-4.611a.982.982,0,0,0-.726-1.252l-.678-.145a1.144,1.144,0,0,0-1.307.816l-1.294,4.612a.983.983,0,0,0,.726,1.252l.678.145a1.145,1.145,0,0,0,1.307-.817" fill="#064679"/>
    <path id="Trazado_134268" data-name="Trazado 134268" d="M144.7,135.635a.731.731,0,0,0-.265-.1c-.017.132-.463,1.744-.53,1.916-.289.744-.52,1.307-.781,1.851l-.9,1.358s-1.343,1.612-2.765,2.985l-2.739,2.57s-1.559,1.606-.766,2.847a3.937,3.937,0,0,0,1,1.244,4.823,4.823,0,0,0,1.776.9c1.451.448,2.556-1.353,2.556-1.353l1.4-2.4c.11-.1.218-.2.321-.3a29.647,29.647,0,0,0,2.567-3.145,21.527,21.527,0,0,0,3.366-5.847Z" fill="#f49c68"/>
    <path id="Trazado_134269" data-name="Trazado 134269" d="M143.083,148.515l1.79-3.315,2.027-3.048-1.142,1.112a17.5,17.5,0,0,0-2.5,3.11l-1.948,3.335s-.981,1.84-2.432,1.393a4.831,4.831,0,0,1-1.777-.9,3.96,3.96,0,0,1-1-1.244c-.794-1.241.766-2.847.766-2.847l2.738-2.569c1.422-1.373,2.764-2.984,2.764-2.984l.751-1.251-2.584,2.438-2.835,2.483a22.489,22.489,0,0,0-3.424,3.788c-1.776,2.38-.573,3.943-.573,3.943A5.466,5.466,0,0,0,134.8,153.1,4.583,4.583,0,0,0,136.5,154.2a3.685,3.685,0,0,0,3.647-1.5,22.47,22.47,0,0,0,2.932-4.183" fill="#064679"/>
    <path id="Trazado_134270" data-name="Trazado 134270" d="M144.618,135.5c1.725-7.462,3.738-14.8,5.463-22.266a8.281,8.281,0,0,1,1.349-3.406,4.536,4.536,0,0,1,7.222.263c1.014,1.5.945,3.426.681,5.192-1.2,8.037-5.554,15.29-9.852,22.291-.09-.036-.223-.108-.313-.144Z" fill="#064679"/>
    <path id="Trazado_134271" data-name="Trazado 134271" d="M144.113,136.8l4.373,1.955a.983.983,0,0,0,1.344-.535l.243-.65a1.144,1.144,0,0,0-.617-1.412l-4.373-1.955a.983.983,0,0,0-1.344.535l-.243.65a1.145,1.145,0,0,0,.617,1.412" fill="#064679"/>
    <path id="Trazado_134272" data-name="Trazado 134272" d="M156.464,108.393H145.27V110.4H158.1v-.375a1.637,1.637,0,0,0-1.637-1.637" fill="#90b193"/>
    <path id="Trazado_134273" data-name="Trazado 134273" d="M158.186,110.49h-13v-2.183h11.28a1.725,1.725,0,0,1,1.722,1.722Zm-12.831-.171h12.66v-.29a1.553,1.553,0,0,0-1.551-1.551H145.355Z" fill="#4c7bb1"/>
    <path id="Trazado_134274" data-name="Trazado 134274" d="M146.722,110.4H121.678L115.31,92.869h25.044Z" fill="#90b193"/>
    <path id="Trazado_134275" data-name="Trazado 134275" d="M146.844,110.49H121.618l-.02-.056-6.41-17.65h25.226l.02.056Zm-25.106-.171H146.6l-6.306-17.365H115.432Z" fill="#4c7bb1"/>
    <path id="Trazado_134276" data-name="Trazado 134276" d="M145.856,110.4H120.812l-6.368-17.536h25.044Z" fill="#fefefe"/>
    <path id="Trazado_134277" data-name="Trazado 134277" d="M145.978,110.49H120.752l-.02-.056-6.41-17.65h25.226l.02.056Zm-25.106-.171h24.862l-6.306-17.365H114.566Z" fill="#6787b2"/>
    <path id="Trazado_134278" data-name="Trazado 134278" d="M183.828,131.592a16.075,16.075,0,0,0-.243,4.482c.114.928.322,1.844.388,2.776a18.321,18.321,0,0,1-.26,3.81,17.2,17.2,0,0,1-.784,3.666,3.421,3.421,0,0,0-.232.773.922.922,0,0,0,.216.754.974.974,0,0,0,1.329-.141,3.185,3.185,0,0,0,.6-1.325,23.285,23.285,0,0,1,3.739-6.626l-2.646-6.692c-.677-.127-1.428-1.561-2.111-1.477" fill="#4c7bb1"/>
    <path id="Trazado_134279" data-name="Trazado 134279" d="M183.441,148.144a.8.8,0,0,1-.589-.231,1,1,0,0,1-.24-.824,2.958,2.958,0,0,1,.2-.688l.039-.1a17.246,17.246,0,0,0,.779-3.648,18.344,18.344,0,0,0,.26-3.793c-.04-.557-.132-1.121-.222-1.666-.059-.361-.12-.735-.166-1.1a16.273,16.273,0,0,1,.247-4.521l.017-.05.053-.007c.411-.051.821.368,1.216.773a2.306,2.306,0,0,0,.922.705l.046.009,2.68,6.779-.027.038a23.185,23.185,0,0,0-3.727,6.6l-.04.136a2.892,2.892,0,0,1-.583,1.223,1.229,1.229,0,0,1-.852.374Zm.45-16.47a16.452,16.452,0,0,0-.221,4.39c.045.367.106.739.165,1.1.09.548.183,1.116.223,1.681a18.363,18.363,0,0,1-.261,3.828,17.308,17.308,0,0,1-.788,3.684l-.039.106a2.751,2.751,0,0,0-.188.647.83.83,0,0,0,.192.684.647.647,0,0,0,.477.18,1.051,1.051,0,0,0,.729-.32,2.767,2.767,0,0,0,.543-1.155l.041-.136a23.154,23.154,0,0,1,3.724-6.613l-2.612-6.607a2.531,2.531,0,0,1-.965-.742c-.347-.355-.705-.722-1.02-.726" fill="#6787b2"/>
    <path id="Trazado_134280" data-name="Trazado 134280" d="M165.014,116.577,162.151,114c-.867-.779-1.735-1.559-2.556-2.387a3.941,3.941,0,0,1-.67-.821,1.482,1.482,0,0,1-.188-1.031.943.943,0,0,1,.708-.732,1.057,1.057,0,0,1,.827.273,6.658,6.658,0,0,1,.613.654,7.772,7.772,0,0,0,2.1,1.45l4.1,2.211Z" fill="#4c7bb1"/>
    <path id="Trazado_134281" data-name="Trazado 134281" d="M165.029,116.705l-2.935-2.637c-.854-.768-1.737-1.561-2.559-2.391a3.985,3.985,0,0,1-.684-.839,1.56,1.56,0,0,1-.2-1.092,1.027,1.027,0,0,1,.777-.8,1.155,1.155,0,0,1,.9.291,3.77,3.77,0,0,1,.435.451c.061.071.122.142.186.211a7.717,7.717,0,0,0,2.077,1.433l4.186,2.256Zm-5.452-7.6a.677.677,0,0,0-.117.01.855.855,0,0,0-.64.667,1.39,1.39,0,0,0,.18.97,3.881,3.881,0,0,0,.656.8c.819.826,1.7,1.617,2.551,2.383L165,116.449l1.961-2.8-4.017-2.166a7.83,7.83,0,0,1-2.122-1.467c-.065-.07-.127-.143-.189-.215a3.471,3.471,0,0,0-.415-.431,1.062,1.062,0,0,0-.641-.265" fill="#6787b2"/>
    <path id="Trazado_134282" data-name="Trazado 134282" d="M164.758,116.2A27.9,27.9,0,0,1,158.725,114l-.02-.009a3.192,3.192,0,0,0-.84-.332,1.032,1.032,0,0,0-.861.2,1,1,0,0,0-.261.953,1.947,1.947,0,0,0,.51.877,4.057,4.057,0,0,0,1.286.937,4.566,4.566,0,0,1,.471.258c.291.182.568.387.858.576.949.621,1.927,1.2,2.874,1.823a20.609,20.609,0,0,1,3.029,2.453,30.785,30.785,0,0,1-1.013-5.54" fill="#4c7bb1"/>
    <path id="Trazado_134283" data-name="Trazado 134283" d="M197.548,129.329a7.138,7.138,0,0,1-2.358,2.064,4.962,4.962,0,0,1-.284,4.669,12.65,12.65,0,0,1-1.276,1.884c-.539.683-1.115,1.342-1.639,2.034a18.553,18.553,0,0,0-3.338,7.271,3.486,3.486,0,0,1-.388,1.174,1.1,1.1,0,0,1-1.051.549,1.107,1.107,0,0,1-.814-1.019,3.7,3.7,0,0,1,.238-1.357,13.53,13.53,0,0,0,.516-4.277,30,30,0,0,0-.685-4.007c-.408-2.354-.82-4.835-2.786-6.383a5.338,5.338,0,0,0-2.821-1.5,34.609,34.609,0,0,1-9.531-3.666c-2.689-1.588-5.342-3.684-6.43-6.784a5.894,5.894,0,0,1,.688-5.485c.792-1.023,1.983-1.706,2.677-2.8a5.012,5.012,0,0,1,1.062-1.518,3.048,3.048,0,0,1,1.392-.438l5.031-.723q.417,2.841,1.1,5.634.163.665.342,1.327a9.909,9.909,0,0,0,2.4,4.808,5.844,5.844,0,0,0,.81.633,8.56,8.56,0,0,0,2.221,1.247c1.3.492,2.088.853,3.253,1.186.731.209,1.5.447,2.253.663q.274.078.546.17a12.971,12.971,0,0,1,5.04,3.138l.035.036a2.415,2.415,0,0,0,1.118-1.568,2.285,2.285,0,0,0-.434-1.821,4.722,4.722,0,0,0-1.708-1.193l-2.456-1.219c-.059-.028-.117-.058-.176-.087a11.26,11.26,0,0,1-2.763-1.722,3.681,3.681,0,0,1-1.293-2.847,3.618,3.618,0,0,1,2.812-2.958,9.138,9.138,0,0,1,4.386.1,1.5,1.5,0,0,1,1.113.83,1,1,0,0,1-.689,1.135,4.423,4.423,0,0,1-1.474.149,3.217,3.217,0,0,0-2.16.749,1.6,1.6,0,0,0-.247,2.087,1.641,1.641,0,0,0,.657.457,6.955,6.955,0,0,0,1.094.3,9.853,9.853,0,0,1,5.745,3.812,5.3,5.3,0,0,1,1.033,2.378,4.277,4.277,0,0,1-.763,2.889" fill="#4c7bb1"/>
    <path id="Trazado_134284" data-name="Trazado 134284" d="M180.4,121.423a9.962,9.962,0,0,1-1.743-1.056,1.514,1.514,0,0,0-1.477-.072,7.358,7.358,0,0,0-1.3.843,2.541,2.541,0,0,1-1.42.556,1.13,1.13,0,0,1-1.134-.867c-.074-.5.284-.969.3-1.475a2.4,2.4,0,0,0-.671-1.419,1.837,1.837,0,0,1-.507-1.463,1.367,1.367,0,0,1,1.1-.9,11.238,11.238,0,0,1,1.481-.086,3.2,3.2,0,0,0,1.821-.829q.163.665.342,1.327a9.892,9.892,0,0,0,2.4,4.808,5.654,5.654,0,0,0,.81.633" fill="#28649e"/>
    <path id="Trazado_134285" data-name="Trazado 134285" d="M174.475,121.78h-.008a1.214,1.214,0,0,1-1.219-.94,1.811,1.811,0,0,1,.147-.854,2.17,2.17,0,0,0,.151-.636,2.226,2.226,0,0,0-.619-1.32l-.034-.045a1.912,1.912,0,0,1-.522-1.535,1.45,1.45,0,0,1,1.163-.963,4.739,4.739,0,0,1,.947-.071c.18,0,.366,0,.546-.017a3.089,3.089,0,0,0,1.768-.805l.106-.1.036.143c.108.439.223.885.341,1.326a9.861,9.861,0,0,0,2.375,4.768,5.7,5.7,0,0,0,.8.623l-.079.15a10.315,10.315,0,0,1-1.761-1.066,1.451,1.451,0,0,0-1.392-.062,5.011,5.011,0,0,0-.974.609c-.1.076-.205.152-.309.225a2.64,2.64,0,0,1-1.461.572m2.33-6.965a3.3,3.3,0,0,1-1.765.755c-.186.014-.375.015-.558.017a4.646,4.646,0,0,0-.913.067,1.3,1.3,0,0,0-1.032.837,1.772,1.772,0,0,0,.492,1.391l.034.045a1.774,1.774,0,0,1,.494,2.114,1.654,1.654,0,0,0-.14.774,1.054,1.054,0,0,0,1.051.794,2.462,2.462,0,0,0,1.369-.541c.1-.072.205-.147.307-.222a5.12,5.12,0,0,1,1.008-.629,1.577,1.577,0,0,1,1.56.082c.135.1.462.334.841.57l-.017-.015A10,10,0,0,1,177.113,116c-.106-.395-.21-.795-.308-1.19" fill="#6787b2"/>
    <path id="Trazado_134286" data-name="Trazado 134286" d="M185.642,128.19a1.049,1.049,0,0,0,.825.964,2.224,2.224,0,0,0,1.347-.155c.428-.165.832-.388,1.273-.517a3.183,3.183,0,0,1,1.694-.022,1.249,1.249,0,0,1,.851.581,1.177,1.177,0,0,1-.218,1.141,7.394,7.394,0,0,0-.723.981,1.647,1.647,0,0,0,.662,2.077,1.7,1.7,0,0,0,2.157-.475,2.96,2.96,0,0,0,.18-2.318,4.118,4.118,0,0,1-.093-2.355c.034-.088.076-.177.12-.264a12.955,12.955,0,0,0-5.039-3.138,1.346,1.346,0,0,0-.856.2.55.55,0,0,0-.115.8c.1.091.234.134.323.231a.466.466,0,0,1,.011.563,1.056,1.056,0,0,1-.489.354c-.385.161-.805.239-1.179.423a1.181,1.181,0,0,0-.731.93" fill="#28649e"/>
    <path id="Trazado_134287" data-name="Trazado 134287" d="M192.144,133.528a1.683,1.683,0,0,1-.833-.213,1.726,1.726,0,0,1-.7-2.189,3.225,3.225,0,0,1,.457-.647c.093-.112.19-.227.274-.346a1.13,1.13,0,0,0,.21-1.055,1.186,1.186,0,0,0-.795-.535,3.068,3.068,0,0,0-1.649.022,6.114,6.114,0,0,0-.777.306c-.159.071-.323.144-.488.208a2.275,2.275,0,0,1-1.4.158,1.135,1.135,0,0,1-.889-1.05,1.249,1.249,0,0,1,.778-1,4.7,4.7,0,0,1,.67-.247c.172-.053.349-.108.515-.178a.994.994,0,0,0,.45-.322.383.383,0,0,0,0-.457.653.653,0,0,0-.151-.11.93.93,0,0,1-.168-.118.512.512,0,0,1-.154-.409.716.716,0,0,1,.277-.521,1.418,1.418,0,0,1,.909-.216l.025,0a13.043,13.043,0,0,1,5.073,3.159l.043.044-.028.055a2.687,2.687,0,0,0-.117.256,3.77,3.77,0,0,0,.064,2.159l.033.147a3.026,3.026,0,0,1-.193,2.385,1.755,1.755,0,0,1-1.436.714m-2.171-5.258a3.285,3.285,0,0,1,.829.107,1.314,1.314,0,0,1,.907.627,1.292,1.292,0,0,1-.226,1.228c-.088.124-.187.242-.282.356a3.082,3.082,0,0,0-.434.612,1.571,1.571,0,0,0,.628,1.966,1.624,1.624,0,0,0,2.044-.45,2.879,2.879,0,0,0,.167-2.25l-.032-.148a3.884,3.884,0,0,1-.058-2.257c.027-.067.058-.138.1-.216a12.868,12.868,0,0,0-4.951-3.07,1.26,1.26,0,0,0-.788.182.549.549,0,0,0-.209.394.34.34,0,0,0,.1.276.761.761,0,0,0,.138.1.815.815,0,0,1,.19.141.55.55,0,0,1,.019.668,1.158,1.158,0,0,1-.527.385c-.173.073-.355.129-.53.183a4.571,4.571,0,0,0-.645.238,1.112,1.112,0,0,0-.683.857.971.971,0,0,0,.761.877,2.106,2.106,0,0,0,1.295-.151c.162-.063.323-.135.48-.205a6.314,6.314,0,0,1,.8-.314,3.242,3.242,0,0,1,.911-.131" fill="#6787b2"/>
    <path id="Trazado_134288" data-name="Trazado 134288" d="M186.041,117.406a3.681,3.681,0,0,0,1.293,2.847,11.282,11.282,0,0,0,2.763,1.723l.176.087a.974.974,0,0,0,.092-.078,1.417,1.417,0,0,0,.25-1.309c-.05-.242-.123-.483-.176-.725a1.653,1.653,0,0,1-.657-.458,1.594,1.594,0,0,1,.247-2.086,3.207,3.207,0,0,1,2.16-.749,4.415,4.415,0,0,0,1.473-.15,1,1,0,0,0,.69-1.135,1.5,1.5,0,0,0-1.113-.83,9.125,9.125,0,0,0-4.386-.094,3.616,3.616,0,0,0-2.812,2.957" fill="#28649e"/>
    <path id="Trazado_134289" data-name="Trazado 134289" d="M190.281,122.163l-.222-.11a11.307,11.307,0,0,1-2.783-1.736,3.321,3.321,0,0,1,1.555-5.95,9.154,9.154,0,0,1,4.427.094,1.592,1.592,0,0,1,1.174.885,1.071,1.071,0,0,1-.74,1.243,3.353,3.353,0,0,1-1.2.151c-.1,0-.2,0-.3,0a3.174,3.174,0,0,0-2.1.725,1.516,1.516,0,0,0-.241,1.97,1.567,1.567,0,0,0,.624.434l.041.017.01.043c.024.111.053.223.081.332.034.129.068.262.1.394a1.475,1.475,0,0,1-.274,1.388.825.825,0,0,1-.1.085Zm.41-7.854a7.021,7.021,0,0,0-1.816.223,3.152,3.152,0,0,0-1.483,5.66,11.2,11.2,0,0,0,2.743,1.708l.127.063a.514.514,0,0,0,.042-.038,1.373,1.373,0,0,0,.227-1.231c-.026-.128-.06-.259-.093-.386-.025-.1-.051-.2-.073-.295a1.542,1.542,0,0,1-.4-2.667,3.336,3.336,0,0,1,2.216-.773c.1,0,.2,0,.306,0a3.229,3.229,0,0,0,1.139-.14.912.912,0,0,0,.639-1.028,1.423,1.423,0,0,0-1.051-.774,11.12,11.12,0,0,0-2.528-.318" fill="#6787b2"/>
    <path id="Trazado_134290" data-name="Trazado 134290" d="M157.9,113.637a1.026,1.026,0,0,0-.868.158,1,1,0,0,0-.3.941,1.962,1.962,0,0,0,.472.9,4.072,4.072,0,0,0,1.245.992,4.276,4.276,0,0,1,.459.278,1.654,1.654,0,0,1,.039-.271,1.78,1.78,0,0,0,.135-.955c-.088-.253-.341-.411-.444-.657a1.568,1.568,0,0,1,.109-1.007l-.019-.01a3.173,3.173,0,0,0-.825-.367" fill="#28649e"/>
    <path id="Trazado_134291" data-name="Trazado 134291" d="M158.985,117.059l-.124-.084a4.044,4.044,0,0,0-.45-.273,4.192,4.192,0,0,1-1.271-1.013,2.024,2.024,0,0,1-.491-.938,1.079,1.079,0,0,1,.333-1.022,1.1,1.1,0,0,1,.941-.175,3.1,3.1,0,0,1,.81.354l.116.064-.018.066c-.015.053-.031.106-.047.16a1.178,1.178,0,0,0-.066.79,1.147,1.147,0,0,0,.2.291,1.162,1.162,0,0,1,.244.371,1.224,1.224,0,0,1-.066.763c-.024.079-.048.161-.066.24a1.473,1.473,0,0,0-.037.257Zm-1.359-3.368a.847.847,0,0,0-.536.171.907.907,0,0,0-.272.859,1.855,1.855,0,0,0,.452.858,4.029,4.029,0,0,0,1.219.971c.112.058.225.124.35.2.007-.049.015-.1.026-.141.019-.084.045-.168.07-.25a1.08,1.08,0,0,0,.067-.658,1.029,1.029,0,0,0-.211-.316,1.286,1.286,0,0,1-.231-.336,1.329,1.329,0,0,1,.06-.906c.009-.03.019-.061.028-.092a2.955,2.955,0,0,0-.763-.335,1.171,1.171,0,0,0-.259-.03" fill="#6787b2"/>
    <path id="Trazado_134292" data-name="Trazado 134292" d="M165.621,104.112a6.391,6.391,0,0,0,.184,4.141,4.717,4.717,0,0,0,1.942,1.963,10.43,10.43,0,0,0,3.54,1.32,8.269,8.269,0,0,0,3.519-.175,4.7,4.7,0,0,0,1.773-.946,4.2,4.2,0,0,0,1.6-2.442,3.874,3.874,0,0,0-1.251-2.893,9.406,9.406,0,0,0-2.07-1.933,9.077,9.077,0,0,0-1.06-.623c-.09-.045-.18-.088-.271-.13a9.05,9.05,0,0,0-1.269-.469,9.473,9.473,0,0,0-3.917-.285,3.006,3.006,0,0,0-2.715,2.472" fill="#4c7bb1"/>
    <path id="Trazado_134293" data-name="Trazado 134293" d="M178.2,107.47s1.083-1.553.465-5.229c0,0-1.576.021-3.4,2.107Z" fill="#4c7bb1"/>
    <path id="Trazado_134294" data-name="Trazado 134294" d="M177.733,106.59a6.074,6.074,0,0,0,.346-3.569,4.6,4.6,0,0,0-1.732,1.4,6.964,6.964,0,0,1,1.386,2.173" fill="#4c7bb1"/>
    <path id="Trazado_134295" data-name="Trazado 134295" d="M168.631,98.733a6.914,6.914,0,0,1,1.534,2.835l-3.772,1.017a7.228,7.228,0,0,1,2.238-3.852" fill="#4c7bb1"/>
    <path id="Trazado_134296" data-name="Trazado 134296" d="M168.671,99.387a12.972,12.972,0,0,0,.708,2.071s-1.986.043-2.293.694a5.011,5.011,0,0,1,1.585-2.765" fill="#4c7bb1"/>
    <path id="Trazado_134297" data-name="Trazado 134297" d="M173.824,105.881a1.056,1.056,0,0,0,.6,1.351,1.016,1.016,0,0,0,1.335-.575,1.057,1.057,0,0,0-.6-1.35,1.013,1.013,0,0,0-1.334.574" fill="#fff"/>
    <path id="Trazado_134298" data-name="Trazado 134298" d="M174.038,105.967a.822.822,0,0,0,.358,1,.773.773,0,0,0,.108.053.962.962,0,0,0,.115.037.789.789,0,0,0,.924-.483.821.821,0,0,0-.358-1,.846.846,0,0,0-.109-.053,1.008,1.008,0,0,0-.114-.037.788.788,0,0,0-.924.484" fill="#28649e"/>
    <path id="Trazado_134299" data-name="Trazado 134299" d="M174.962,105.484l-.566,1.481a.983.983,0,0,0,.108.053.847.847,0,0,0,.115.036l.566-1.48a.791.791,0,0,0-.109-.054.834.834,0,0,0-.114-.036" fill="#064679"/>
    <path id="Trazado_134300" data-name="Trazado 134300" d="M167.765,104.333a1.058,1.058,0,0,0,.6,1.351,1.016,1.016,0,0,0,1.335-.575,1.057,1.057,0,0,0-.6-1.35,1.015,1.015,0,0,0-1.335.574" fill="#fff"/>
    <path id="Trazado_134301" data-name="Trazado 134301" d="M167.98,104.419a.821.821,0,0,0,.358,1,.773.773,0,0,0,.108.053.96.96,0,0,0,.115.037.789.789,0,0,0,.924-.483.821.821,0,0,0-.358-1,.844.844,0,0,0-.109-.053,1.009,1.009,0,0,0-.114-.037.788.788,0,0,0-.924.484" fill="#28649e"/>
    <path id="Trazado_134302" data-name="Trazado 134302" d="M168.9,103.936l-.566,1.481a.984.984,0,0,0,.108.053.8.8,0,0,0,.115.036l.566-1.48a.789.789,0,0,0-.109-.054.835.835,0,0,0-.114-.036" fill="#064679"/>
    <path id="Trazado_134303" data-name="Trazado 134303" d="M171.05,106.781c.1-.2.352,0,.462.078a.415.415,0,0,0,.212.087.409.409,0,0,0,.226-.022c.126-.042.424-.162.465.059.029.159-.172.385-.286.464a.612.612,0,0,1-.48.09.632.632,0,0,1-.44-.227c-.09-.109-.227-.385-.159-.529" fill="#28649e"/>
    <path id="Trazado_134304" data-name="Trazado 134304" d="M171.784,107.637a.662.662,0,0,1-.147-.016.718.718,0,0,1-.493-.257c-.1-.124-.258-.433-.171-.62a.222.222,0,0,1,.147-.128c.146-.038.318.084.421.158l.021.015a.33.33,0,0,0,.167.071l.017,0a.333.333,0,0,0,.177-.02l.025-.009a.578.578,0,0,1,.442-.031.229.229,0,0,1,.11.165c.037.2-.191.458-.322.548a.694.694,0,0,1-.394.121m-.656-.82c-.044.1.059.331.147.438a.546.546,0,0,0,.38.2l.014,0a.527.527,0,0,0,.413-.077c.111-.077.268-.274.25-.378-.007-.035-.022-.044-.028-.047-.063-.038-.229.02-.3.045l-.026.009a.486.486,0,0,1-.266.025.493.493,0,0,1-.248-.1l-.023-.016c-.062-.045-.208-.149-.278-.132-.007,0-.021.006-.035.036" fill="#6787b2"/>
    <path id="Trazado_134305" data-name="Trazado 134305" d="M172.424,109.459a.149.149,0,0,1-.036,0,1.451,1.451,0,0,1-1.034-1.735.128.128,0,0,1,.248.067,1.192,1.192,0,0,0,.858,1.422.128.128,0,0,1-.036.251" fill="#064679"/>
    <path id="Trazado_134306" data-name="Trazado 134306" d="M170.269,108.773a1.544,1.544,0,0,1-.428-.062.128.128,0,0,1,.071-.246,1.2,1.2,0,0,0,.932-.1,1.053,1.053,0,0,0,.51-.647l.093-.339a.127.127,0,0,1,.157-.09.128.128,0,0,1,.09.157l-.092.339a1.312,1.312,0,0,1-.633.8,1.422,1.422,0,0,1-.7.182" fill="#064679"/>
    <path id="Trazado_134307" data-name="Trazado 134307" d="M178.5,110.265a.126.126,0,0,1-.093-.04,6.875,6.875,0,0,0-5.208-1.979.128.128,0,1,1-.026-.255,7.158,7.158,0,0,1,5.42,2.057.128.128,0,0,1-.093.217" fill="#064679"/>
    <path id="Trazado_134308" data-name="Trazado 134308" d="M178.05,112.014a.128.128,0,0,1-.109-.061c-1.493-2.415-4.841-3.066-4.875-3.072a.128.128,0,0,1,.047-.252c.142.027,3.494.678,5.046,3.189a.128.128,0,0,1-.042.177.126.126,0,0,1-.067.019" fill="#064679"/>
    <path id="Trazado_134309" data-name="Trazado 134309" d="M176.1,113.094a.128.128,0,0,1-.128-.123c-.062-1.621-3.285-3.776-3.317-3.8a.128.128,0,0,1,.141-.214c.138.091,3.365,2.251,3.432,4a.128.128,0,0,1-.123.133h0" fill="#064679"/>
    <path id="Trazado_134310" data-name="Trazado 134310" d="M169.277,106.7a.132.132,0,0,1-.069-.02c-.037-.024-3.735-2.361-6.445-1.28a.128.128,0,1,1-.1-.238c2.833-1.13,6.523,1.2,6.678,1.3a.128.128,0,0,1-.069.236" fill="#064679"/>
    <path id="Trazado_134311" data-name="Trazado 134311" d="M162.6,107.7a.128.128,0,0,1-.078-.23c2.452-1.894,6.507-.373,6.679-.307a.128.128,0,1,1-.092.239c-.04-.016-4.092-1.534-6.431.271a.127.127,0,0,1-.078.027" fill="#064679"/>
    <path id="Trazado_134312" data-name="Trazado 134312" d="M163.656,109.6a.128.128,0,0,1-.091-.218,6.554,6.554,0,0,1,5.455-1.588.128.128,0,0,1-.049.252,6.288,6.288,0,0,0-5.224,1.516.129.129,0,0,1-.091.038" fill="#064679"/>
    <path id="Trazado_134313" data-name="Trazado 134313" d="M170.826,103.123c-.136.275.035.6.2.867l1.011,1.611a1.07,1.07,0,0,0,.326.373.352.352,0,0,0,.45-.044c.14-.183-.014-.441-.05-.673a.922.922,0,0,1,.485-.86,10.276,10.276,0,0,1,.948-.433,1.1,1.1,0,0,0,.651-.764c0-.018,0-.035,0-.053a9.077,9.077,0,0,0-1.06-.623c-.09-.045-.18-.088-.271-.13a9.177,9.177,0,0,0-1.269-.469c-.011.027-.022.054-.035.081a1.364,1.364,0,0,1-.653.666c-.269.124-.608.185-.739.451" fill="#28649e"/>
    <path id="Trazado_134314" data-name="Trazado 134314" d="M172.581,106.119a.512.512,0,0,1-.261-.072,1.147,1.147,0,0,1-.355-.4l-1.01-1.61a1.01,1.01,0,0,1-.206-.951.959.959,0,0,1,.585-.412c.069-.026.134-.05.2-.079a1.269,1.269,0,0,0,.611-.625c.012-.025.022-.05.032-.075l.029-.073.075.021a9.262,9.262,0,0,1,1.28.474c.092.043.183.086.274.131a9.353,9.353,0,0,1,1.07.629l.039.027,0,.047c0,.019,0,.038-.005.057a1.2,1.2,0,0,1-.7.833c-.13.065-.267.12-.4.172a3.189,3.189,0,0,0-.543.256.849.849,0,0,0-.446.776,1.492,1.492,0,0,0,.048.195.585.585,0,0,1-.015.543.369.369,0,0,1-.3.137m-.279-4.091-.007.014a1.445,1.445,0,0,1-.694.708c-.067.03-.138.057-.206.083a.822.822,0,0,0-.492.328c-.115.231.035.526.2.784l1.011,1.61a1.006,1.006,0,0,0,.3.346.274.274,0,0,0,.339-.023c.072-.1.032-.233-.014-.391a1.635,1.635,0,0,1-.053-.217,1.015,1.015,0,0,1,.523-.946,3.375,3.375,0,0,1,.571-.27c.129-.052.261-.105.385-.167a1.035,1.035,0,0,0,.6-.7,9.252,9.252,0,0,0-1.008-.589c-.09-.044-.179-.087-.269-.129a9.006,9.006,0,0,0-1.184-.443" fill="#6787b2"/>
    <path id="Trazado_134315" data-name="Trazado 134315" d="M188.572,142.185a1.657,1.657,0,0,0,.842.971,1.84,1.84,0,0,0,.562.166,18.467,18.467,0,0,1,2.014-3.342c.524-.692,1.1-1.351,1.639-2.033a1.268,1.268,0,0,1-.707-.257,5.343,5.343,0,0,1-.513-.674,1.109,1.109,0,0,0-.976-.385.9.9,0,0,0-.75.7,5.859,5.859,0,0,0,.094,1,1.946,1.946,0,0,1-.869,1.4,4.324,4.324,0,0,0-1.217,1.177,1.657,1.657,0,0,0-.119,1.279" fill="#28649e"/>
    <path id="Trazado_134316" data-name="Trazado 134316" d="M190.027,143.416l-.062-.009a1.963,1.963,0,0,1-.588-.174,1.721,1.721,0,0,1-.76-2.368,3.36,3.36,0,0,1,.983-1c.086-.066.172-.132.255-.2a1.8,1.8,0,0,0,.837-1.334,2.15,2.15,0,0,0-.052-.4,1.65,1.65,0,0,1-.04-.607.987.987,0,0,1,.821-.77,1.2,1.2,0,0,1,1.053.414,2.54,2.54,0,0,1,.21.293,1.584,1.584,0,0,0,.294.372,1.169,1.169,0,0,0,.66.236l.156.016-.1.123c-.223.282-.456.564-.681.837-.32.388-.65.789-.957,1.194a18.426,18.426,0,0,0-2.005,3.327Zm1.544-6.71a.866.866,0,0,0-.125.009.813.813,0,0,0-.678.63,1.5,1.5,0,0,0,.04.545,2.353,2.353,0,0,1,.055.438,1.956,1.956,0,0,1-.9,1.467c-.084.068-.171.135-.257.2a3.239,3.239,0,0,0-.938.95,1.55,1.55,0,0,0,.685,2.132,1.74,1.74,0,0,0,.474.149,18.587,18.587,0,0,1,2-3.3c.309-.408.64-.81.961-1.2.193-.235.392-.476.585-.718a1.214,1.214,0,0,1-.6-.256,1.751,1.751,0,0,1-.328-.409,2.269,2.269,0,0,0-.195-.274,1.049,1.049,0,0,0-.774-.366" fill="#6787b2"/>
    <path id="Trazado_134317" data-name="Trazado 134317" d="M160.872,46.327l-2.244-12.883,33.508.317-3.75,20.165L163,52.334l-8.5,4.487Z" fill="#f49c68"/>
    <path id="Trazado_134318" data-name="Trazado 134318" d="M154.153,57.15,160.737,46.3l-2.261-12.987,33.814.319-3.8,20.428-25.463-1.6Zm4.628-23.577,2.225,12.779-6.153,10.139,8.119-4.288,25.309,1.587,3.7-19.9Z" fill="#ec7724"/>
    <path id="Trazado_134319" data-name="Trazado 134319" d="M167.22,37.4a1.123,1.123,0,0,1-.708-.24,1,1,0,0,1-.327-.5,5.1,5.1,0,0,1-.685-.064,2.491,2.491,0,0,1-.53-.145.742.742,0,0,1-.151.129.87.87,0,0,1-1.186-.292,1.018,1.018,0,0,1-.063-.808,1.827,1.827,0,0,1,.4-.665.128.128,0,1,1,.192.169,1.61,1.61,0,0,0-.349.572.767.767,0,0,0,.042.605.614.614,0,0,0,.825.2l.046-.034a1,1,0,0,1-.463-.573.435.435,0,1,1,.783-.378.842.842,0,0,1,.132.647.959.959,0,0,1-.065.207,2.291,2.291,0,0,0,.428.11,4.9,4.9,0,0,0,.6.059.894.894,0,0,1,.124-.485.86.86,0,0,1,.6-.385.776.776,0,0,1,.631.163.6.6,0,0,1,.208.415.41.41,0,0,1-.109.307.618.618,0,0,1-.349.156,4.92,4.92,0,0,1-.792.086.731.731,0,0,0,.217.3.944.944,0,0,0,.991.079,1.291,1.291,0,0,0,.639-.84.129.129,0,0,1,.146-.094.127.127,0,0,1,.106.136.758.758,0,0,0,.6.705,2,2,0,0,0,.858-.009,1.249,1.249,0,0,1-.438-.856.83.83,0,0,1,.536-.845.922.922,0,0,1,.9.324.952.952,0,0,1,.213,1.082.912.912,0,0,1-.511.39,2.783,2.783,0,0,0,1.282-.02,1.343,1.343,0,0,0,.481-.172.535.535,0,0,0,.159-.162,1.582,1.582,0,0,1-.292-.515.128.128,0,0,1,.014-.111.13.13,0,0,1,.1-.058.43.43,0,0,1,.321.117.521.521,0,0,1,.172.365.575.575,0,0,1-.015.143,1.492,1.492,0,0,0,1.383.39.128.128,0,1,1,.066.248,1.732,1.732,0,0,1-1.565-.392.8.8,0,0,1-.2.188,1.576,1.576,0,0,1-.572.21,2.894,2.894,0,0,1-1.506-.016,1.618,1.618,0,0,1-.24-.106,2.615,2.615,0,0,1-1.213.052,1.137,1.137,0,0,1-.7-.533,1.476,1.476,0,0,1-.615.608,1.241,1.241,0,0,1-.559.132m3.085-1.934a.43.43,0,0,0-.118.016.58.58,0,0,0-.353.588,1.047,1.047,0,0,0,.514.8.956.956,0,0,0,.656-.354.711.711,0,0,0-.179-.782.769.769,0,0,0-.52-.267m-3.3.311a.659.659,0,0,0-.1.008.6.6,0,0,0-.419.266.633.633,0,0,0-.086.353,4.792,4.792,0,0,0,.8-.083.4.4,0,0,0,.211-.082.148.148,0,0,0,.038-.117.353.353,0,0,0-.119-.233.5.5,0,0,0-.326-.112m-2.383-.382a.114.114,0,0,0-.052.012c-.076.04-.09.174-.059.279a.76.76,0,0,0,.37.438.653.653,0,0,0,.046-.146.585.585,0,0,0-.088-.449.306.306,0,0,0-.217-.134" fill="#fff"/>
    <path id="Trazado_134320" data-name="Trazado 134320" d="M180.11,37.556a2.589,2.589,0,0,1-.639-.079,1.591,1.591,0,0,1-.478-.195,1.488,1.488,0,0,1-2.168-1.584.128.128,0,1,1,.252.046,1.228,1.228,0,0,0,1.7,1.355l-.011-.013a.727.727,0,0,1-.1-.838.56.56,0,0,1,.438-.254.464.464,0,0,1,.4.162.678.678,0,0,1-.159.876c-.033.032-.068.063-.1.092a1.567,1.567,0,0,0,.3.1,2.451,2.451,0,0,0,1.926-.332.129.129,0,0,1,.178.036.127.127,0,0,1-.036.177,2.7,2.7,0,0,1-1.491.446m-.975-1.307h-.02a.305.305,0,0,0-.237.132.479.479,0,0,0,.081.537c.016.019.033.036.051.054a1.1,1.1,0,0,0,.149-.124c.156-.154.252-.4.14-.531a.206.206,0,0,0-.164-.069" fill="#fff"/>
    <path id="Trazado_134321" data-name="Trazado 134321" d="M184.894,37.682a1.119,1.119,0,0,1-.666-.226l-.09.021a.978.978,0,0,1-.952-1.543.128.128,0,0,1,.2.155.757.757,0,0,0,.154,1.027.7.7,0,0,0,.466.12.983.983,0,0,1-.1-.169.809.809,0,0,1-.028-.668.566.566,0,0,1,.612-.336.557.557,0,0,1,.413.444.769.769,0,0,1-.129.562.917.917,0,0,1-.268.262.8.8,0,0,0,.62.055.752.752,0,0,0,.416-.4.711.711,0,0,0,.032-.548.128.128,0,0,1,.235-.1,1.424,1.424,0,0,0,2.455.167.128.128,0,1,1,.212.144,1.677,1.677,0,0,1-2.622.2,1.042,1.042,0,0,1-.642.781.936.936,0,0,1-.322.055m-.5-1.373a.328.328,0,0,0-.28.2.565.565,0,0,0,.026.456.775.775,0,0,0,.141.2.675.675,0,0,0,.281-.237.515.515,0,0,0,.091-.372.3.3,0,0,0-.215-.241.161.161,0,0,0-.044-.005" fill="#fff"/>
    <path id="Trazado_134322" data-name="Trazado 134322" d="M166.714,40.622a1.183,1.183,0,0,1-.729-.25,1.2,1.2,0,0,1-.217.033,1.383,1.383,0,0,1-.939-.286.8.8,0,0,1-.267.1,1.576,1.576,0,0,1-1.228-.427.718.718,0,0,1-.154-.733.129.129,0,0,1,.238.1.47.47,0,0,0,.108.467,1.085,1.085,0,0,0,.495.285,1.062,1.062,0,0,0,.5.058.608.608,0,0,0,.113-.031,1.125,1.125,0,0,1-.188-.323.389.389,0,0,1,.013-.367.35.35,0,0,1,.466-.076.529.529,0,0,1,.181.665.638.638,0,0,1-.074.119,1.136,1.136,0,0,0,.719.2l.023,0a.692.692,0,0,1-.13-.415.5.5,0,0,1,.434-.482.478.478,0,0,1,.476.415.623.623,0,0,1-.246.555l-.042.03a.93.93,0,0,0,.761.059.129.129,0,1,1,.092.24,1.145,1.145,0,0,1-.4.073m-.613-1.116h-.008a.241.241,0,0,0-.194.236.5.5,0,0,0,.147.338.556.556,0,0,0,.1-.063.36.36,0,0,0,.15-.318.223.223,0,0,0-.2-.193m-1.379-.141a.064.064,0,0,0-.051.018.172.172,0,0,0,.014.134.846.846,0,0,0,.155.259.3.3,0,0,0,.032-.055.273.273,0,0,0-.08-.337.142.142,0,0,0-.07-.019" fill="#fff"/>
    <path id="Trazado_134323" data-name="Trazado 134323" d="M174.076,41.226a1.3,1.3,0,0,1-.875-.3.942.942,0,0,1-.295-.531,4.291,4.291,0,0,1-1.27,0,1.017,1.017,0,0,1-.068.141,1.138,1.138,0,0,1-.938.528,1.341,1.341,0,0,1-.984-.417.872.872,0,0,1-.225-.99.129.129,0,0,1,.224.126.616.616,0,0,0,.184.684,1.111,1.111,0,0,0,.775.341h.02a.874.874,0,0,0,.723-.4c.011-.018.021-.037.031-.056l-.035-.007a1.087,1.087,0,0,1-.614-.31.581.581,0,0,1-.138-.43.441.441,0,0,1,.162-.308.566.566,0,0,1,.76.164.941.941,0,0,1,.186.688,4.029,4.029,0,0,0,1.2-.007.715.715,0,0,1,.231-.477.524.524,0,0,1,.461-.137.4.4,0,0,1,.243.183.33.33,0,0,1,.037.258.5.5,0,0,1-.373.3c-.111.033-.223.062-.334.086a.69.69,0,0,0,.211.384,1.2,1.2,0,0,0,1.039.2,1.336,1.336,0,0,0,.6-.276,1.206,1.206,0,0,1-.372-.744.4.4,0,0,1,.135-.375.376.376,0,0,1,.436.027.8.8,0,0,1,.164,1.056,1.313,1.313,0,0,0,.152.084,2.173,2.173,0,0,0,1.123.142,1.492,1.492,0,0,0,.674-.19.577.577,0,0,0,.284-.521.358.358,0,0,0-.168-.248.3.3,0,0,0-.1-.042.132.132,0,0,1-.061.067.126.126,0,0,1-.172-.054l-.037-.068a.125.125,0,0,1,0-.107.123.123,0,0,1,.078-.073.507.507,0,0,1,.433.059.612.612,0,0,1,.286.432.819.819,0,0,1-.4.77,1.722,1.722,0,0,1-.791.231,2.429,2.429,0,0,1-1.255-.166,1.54,1.54,0,0,1-.206-.117,1.509,1.509,0,0,1-.748.364,1.936,1.936,0,0,1-.386.041m.88-1.488a.053.053,0,0,0-.032.008.18.18,0,0,0-.029.146.919.919,0,0,0,.278.566.542.542,0,0,0-.109-.682.208.208,0,0,0-.108-.038m-3.935-.277a.175.175,0,0,0-.111.035.19.19,0,0,0-.064.13.335.335,0,0,0,.077.239.867.867,0,0,0,.476.226l.046.01a.684.684,0,0,0-.132-.484.408.408,0,0,0-.292-.156m2.467.309a.3.3,0,0,0-.19.083.443.443,0,0,0-.136.235c.087-.02.173-.043.259-.068.118-.036.186-.077.2-.124a.07.07,0,0,0-.011-.059.136.136,0,0,0-.082-.062.13.13,0,0,0-.039-.005" fill="#fff"/>
    <path id="Trazado_134324" data-name="Trazado 134324" d="M187.55,41.617a1.42,1.42,0,0,1-.557-.114,2.258,2.258,0,0,1-1.02-.976l-.016-.027c-.079-.133-.16-.271-.279-.314a.615.615,0,0,0-.338.018l-1.1.253a.127.127,0,0,1,0,.088.134.134,0,0,1-.069.075,2.988,2.988,0,0,1-1.248.26c-.288,0-.617-.109-.676-.4a.713.713,0,0,1,.031-.328c.028-.112.043-.182.011-.225s-.141-.054-.219-.052a5.481,5.481,0,0,0-.948.088.785.785,0,0,1-.1.586.754.754,0,0,1-1.021.111,1.938,1.938,0,0,1-.583-.806.127.127,0,0,1,0-.117.129.129,0,0,1,.1-.066l.2-.027a.13.13,0,0,1,.145.11.128.128,0,0,1-.11.144l-.023,0a1.4,1.4,0,0,0,.42.546.5.5,0,0,0,.665-.044.536.536,0,0,0,.057-.389l-.165.04a.128.128,0,0,1-.155-.085.129.129,0,0,1,.078-.159l.289-.107a.13.13,0,0,1,.1.007l.013.008a5.768,5.768,0,0,1,1.033-.1.509.509,0,0,1,.425.154.489.489,0,0,1,.033.444.534.534,0,0,0-.028.213c.027.133.234.194.427.2a2.716,2.716,0,0,0,.835-.123.393.393,0,0,1-.309-.336.129.129,0,0,1,.134-.135.783.783,0,0,1,.484.2l.029-.006,1.178-.272a.676.676,0,0,1,.9.416l.015.026a2.009,2.009,0,0,0,.9.871,1.033,1.033,0,0,0,1.121-.157.128.128,0,0,1,.182.18,1.186,1.186,0,0,1-.847.327" fill="#fff"/>
    <path id="Trazado_134325" data-name="Trazado 134325" d="M167.233,44.219a.767.767,0,0,1-.716-.418.544.544,0,0,1-.044-.241.631.631,0,0,0-.1-.182.581.581,0,0,0-.273-.131,4.546,4.546,0,0,0-.929-.157.165.165,0,0,1-.021.03,2.9,2.9,0,0,1-.569.515,1.1,1.1,0,0,1-.794.177.763.763,0,0,1-.527-.4.576.576,0,0,1-.571.006.483.483,0,0,1-.218-.39.412.412,0,0,1,.162-.357.128.128,0,0,1,.151.207.164.164,0,0,0-.056.14.222.222,0,0,0,.1.181.339.339,0,0,0,.408-.089.127.127,0,0,1,.135-.037.125.125,0,0,1,.088.108.474.474,0,0,0,.383.377.843.843,0,0,0,.606-.143,1.853,1.853,0,0,0,.261-.207.822.822,0,0,1-.378-.13.125.125,0,0,1-.055-.136.131.131,0,0,1,.112-.1,4.927,4.927,0,0,1,1.784.153.805.805,0,0,1,.393.2.162.162,0,0,1,.024.028.484.484,0,0,1,.4-.22h0a.476.476,0,0,1,.122.939.661.661,0,0,0,.212.007,1.248,1.248,0,0,0,.651-.36l.08-.075a1.716,1.716,0,0,1,.389-.3.648.648,0,0,1,.629-.007.343.343,0,0,1,.344-.359.449.449,0,0,1,.34.147.7.7,0,0,1,.145.536.512.512,0,0,1-.008.071h.043a.673.673,0,0,0,.508-.227.128.128,0,0,1,.156-.033l.887.441.686-.571a.125.125,0,0,1,.114-.026.13.13,0,0,1,.088.078l.121.31a.128.128,0,1,1-.239.093l-.057-.144-.614.51a.124.124,0,0,1-.139.015l-.876-.435a.949.949,0,0,1-.629.246,1.041,1.041,0,0,1-.148-.007.322.322,0,0,1-.137.1.43.43,0,0,1-.493-.209c-.026-.039-.049-.08-.072-.121a.612.612,0,0,0-.132-.183.383.383,0,0,0-.4,0,1.467,1.467,0,0,0-.33.261c-.028.026-.055.052-.083.076a1.494,1.494,0,0,1-.788.426.929.929,0,0,1-.119.007m-.5-.7a.461.461,0,0,0,.082.134.223.223,0,1,0,.164-.387h0a.242.242,0,0,0-.191.119.378.378,0,0,0-.054.134m2.685-.41h0a.1.1,0,0,0-.074.032c-.049.061,0,.183.07.261a.6.6,0,0,0,.223.154c0-.012,0-.025,0-.037a.463.463,0,0,0-.081-.349.188.188,0,0,0-.137-.061" fill="#fff"/>
    <path id="Trazado_134326" data-name="Trazado 134326" d="M177.15,44.554h0a.436.436,0,0,1-.3-.168,2.6,2.6,0,0,1-.257-.334.3.3,0,0,0-.048-.063.177.177,0,0,0-.058.054l-.03.048a.515.515,0,0,1-.157.177.382.382,0,0,1-.453-.061.64.64,0,0,1-.178-.356,1.3,1.3,0,0,1,.006-.528.129.129,0,0,1,.251.056,1.017,1.017,0,0,0-.005.422.386.386,0,0,0,.1.218.13.13,0,0,0,.142.032.311.311,0,0,0,.075-.095c.012-.02.025-.04.038-.059a.317.317,0,0,1,.347-.152.36.36,0,0,1,.184.168,2.247,2.247,0,0,0,.231.3c.02.021.078.085.119.086h0c.039,0,.081-.054.14-.135a.484.484,0,0,1,.328-.245.127.127,0,0,1,.14.116.336.336,0,0,0,.138.237.128.128,0,0,1-.151.207.6.6,0,0,1-.193-.236c-.018.022-.037.047-.054.072a.446.446,0,0,1-.348.24" fill="#fff"/>
    <path id="Trazado_134327" data-name="Trazado 134327" d="M184.273,45.2a.83.83,0,0,1-.708-.278,1,1,0,0,1-.146-.549.69.69,0,0,0-.113-.425.414.414,0,0,0-.426-.065l-.008,0a.614.614,0,0,1,.076.623.725.725,0,0,1-.716.393.973.973,0,0,1-.683-.411,1.008,1.008,0,0,1-.061-.094,1.3,1.3,0,0,1-1.206.107.575.575,0,0,1-.216.048h0a.521.521,0,0,1-.507-.423.129.129,0,0,1,.108-.146.124.124,0,0,1,.089.02,1.043,1.043,0,0,1-.115-.664.128.128,0,0,1,.241-.035l.146.3.017-.012a.375.375,0,0,1,.392-.012.492.492,0,0,1,.164.6.571.571,0,0,1-.08.14,1.07,1.07,0,0,0,.86-.153,1.876,1.876,0,0,1-.093-.392.131.131,0,0,1,.036-.108.261.261,0,0,1,.286-.052.342.342,0,0,1,.219.29.459.459,0,0,1-.137.334,1.142,1.142,0,0,0,.067.107.719.719,0,0,0,.5.305.47.47,0,0,0,.461-.244.35.35,0,0,0,.005-.268.321.321,0,0,0-.076-.119c-.044.032-.086.067-.127.1l-.091.08a.129.129,0,0,1-.18-.01.127.127,0,0,1,.01-.181l.091-.082.193-.171a.131.131,0,0,1,.082-.032.934.934,0,0,1,.172-.081.664.664,0,0,1,.7.131.9.9,0,0,1,.182.584.8.8,0,0,0,.1.414.63.63,0,0,0,.5.174h0a.873.873,0,0,0,.643-.207.422.422,0,0,0,.111-.238l-.135-.327a.128.128,0,0,1,.2-.151.513.513,0,0,1,.2.379c0,.018,0,.037,0,.056l.113.273,0,0a.128.128,0,0,1,.18.183A.336.336,0,0,1,185.3,45a.13.13,0,0,1-.1-.078l-.036-.088a.576.576,0,0,1-.067.081,1.112,1.112,0,0,1-.826.284Zm-4.462-1.1a.252.252,0,0,0,.133.165,1.158,1.158,0,0,1-.133-.165m.239-.1a.874.874,0,0,0,.222.211.344.344,0,0,0,.087-.126.247.247,0,0,0-.059-.285.124.124,0,0,0-.121.011c-.012.007-.038.027-.036.052a.127.127,0,0,1-.091.137h0" fill="#fff"/>
    <path id="Trazado_134328" data-name="Trazado 134328" d="M187.777,45.2a.127.127,0,0,1-.07-.021.465.465,0,0,1-.31-.093.716.716,0,0,1-.238-.355c-.023-.07-.04-.14-.056-.207-.012-.048-.023-.1-.037-.142a.561.561,0,0,0-.134-.252.128.128,0,1,1,.176-.186.8.8,0,0,1,.2.366c.015.051.028.1.04.154s.03.126.05.185a.469.469,0,0,0,.148.232.224.224,0,0,0,.123.043,1.443,1.443,0,0,1,.086-.263.131.131,0,0,1,.1-.076.128.128,0,0,1,.116.045.293.293,0,0,1,.063.133l.051-.031a.128.128,0,1,1,.133.219l-.378.23a.126.126,0,0,1-.067.019" fill="#fff"/>
    <path id="Trazado_134329" data-name="Trazado 134329" d="M165.909,47.815a.408.408,0,0,1-.3-.116.583.583,0,0,1-.134-.3.55.55,0,0,0-.049-.15.212.212,0,0,0-.232-.09.244.244,0,0,0-.169.206.128.128,0,0,1-.2.092l-.368-.254a2.573,2.573,0,0,1-.736.383,1.025,1.025,0,0,1-.952-.165.851.851,0,0,1-.266-.8.128.128,0,0,1,.252.049.6.6,0,0,0,.182.555.79.79,0,0,0,.714.112,2.592,2.592,0,0,0,.734-.4.126.126,0,0,1,.146,0l.3.208a.5.5,0,0,1,.3-.238.471.471,0,0,1,.522.208.784.784,0,0,1,.077.222.377.377,0,0,0,.067.172.257.257,0,0,0,.258.01,1.433,1.433,0,0,0,.155-.08,1.422,1.422,0,0,1,.232-.111.526.526,0,0,1,.416.029.128.128,0,0,1,.171.188l-.066.076a.128.128,0,0,1-.2-.013c-.04-.059-.152-.065-.238-.037a1.076,1.076,0,0,0-.187.092,1.68,1.68,0,0,1-.185.093.645.645,0,0,1-.239.049" fill="#fff"/>
    <path id="Trazado_134330" data-name="Trazado 134330" d="M175.658,48.314a.129.129,0,0,1-.073-.023.132.132,0,0,1-.055-.094l-.072-.824a2.4,2.4,0,0,1-1.01.29,1.354,1.354,0,0,1-.749-.2.663.663,0,0,1-.068.2.91.91,0,0,1-.593.43,2.02,2.02,0,0,1-.687.026.705.705,0,0,1-.367-.113.385.385,0,0,1-.111-.129,1.749,1.749,0,0,1-1.776.1.481.481,0,0,1-.325.215.609.609,0,0,1-.547-.248,1.162,1.162,0,0,1-.238-1.025.128.128,0,0,1,.249.063.9.9,0,0,0,.184.795c.037.044.169.185.312.162a.233.233,0,0,0,.15-.1.93.93,0,0,1-.337-.491.616.616,0,0,1,.334-.721.129.129,0,0,1,.16.061,1.768,1.768,0,0,1,.2.774,1.011,1.011,0,0,1-.034.283,1.474,1.474,0,0,0,1.7-.207.128.128,0,0,1,.195.164c-.014.021,0,.077.044.106a.5.5,0,0,0,.239.064,1.808,1.808,0,0,0,.6-.019.661.661,0,0,0,.429-.3.41.41,0,0,0,.027-.315.992.992,0,0,1-.107-.16.128.128,0,0,1,.035-.161.126.126,0,0,1,.164.006.51.51,0,0,1,.129.179,1.069,1.069,0,0,0,.789.309,2.4,2.4,0,0,0,1.065-.349.128.128,0,0,1,.189.1l.075.851a1.07,1.07,0,0,0,.2-.115.713.713,0,0,1-.224-.608.559.559,0,0,1,.278-.394.387.387,0,0,1,.354-.018.451.451,0,0,1,.247.4.753.753,0,0,1-.117.4,1.353,1.353,0,0,1-.135.192.726.726,0,0,0,.178.053,2.019,2.019,0,0,0,1-.206.128.128,0,1,1,.093.239,2.241,2.241,0,0,1-1.133.22.954.954,0,0,1-.331-.118,1.369,1.369,0,0,1-.489.254.141.141,0,0,1-.035.005m.566-1.218a.159.159,0,0,0-.077.022.3.3,0,0,0-.146.206.468.468,0,0,0,.159.4,1.158,1.158,0,0,0,.127-.176.517.517,0,0,0,.083-.265.2.2,0,0,0-.1-.175.113.113,0,0,0-.048-.011m-6.353-.161a.408.408,0,0,0-.078.349.637.637,0,0,0,.18.291.678.678,0,0,0,.006-.11,1.528,1.528,0,0,0-.108-.53" fill="#fff"/>
    <path id="Trazado_134331" data-name="Trazado 134331" d="M182.055,48.621a.607.607,0,0,1-.369-.129.643.643,0,0,1-.108-.107.369.369,0,0,1-.259.06.723.723,0,0,1-.4-.258c-.2-.211-.249-.419-.13-.57a.443.443,0,0,1,.426-.115c.086.007.175.015.2-.019a.128.128,0,0,1,.207.152.436.436,0,0,1-.428.122c-.087-.008-.176-.015-.2.019s.021.137.114.234a.515.515,0,0,0,.255.182.127.127,0,0,0,.1-.038.067.067,0,0,0,.012-.019c0-.01,0-.02,0-.03a.128.128,0,0,1,.252-.042.3.3,0,0,1,.008.052.306.306,0,0,0,.116.174.344.344,0,0,0,.262.072.361.361,0,0,0,.182-.1.9.9,0,0,1-.13-.1.664.664,0,0,1-.1-.874.126.126,0,0,1,.15-.034.791.791,0,0,1,.471.7.687.687,0,0,1-.031.2,1.808,1.808,0,0,0,.321.067A3.754,3.754,0,0,0,184.5,48.1a.128.128,0,0,1,.109-.131l.424-.063a.128.128,0,0,1,.071.244,4.049,4.049,0,0,1-2.165.329,1.964,1.964,0,0,1-.412-.092.639.639,0,0,1-.379.23.582.582,0,0,1-.093.007m.15-1.075a.456.456,0,0,0,.129.432.729.729,0,0,0,.081.066.4.4,0,0,0,.011-.091.529.529,0,0,0-.221-.407" fill="#fff"/>
    <path id="Trazado_134332" data-name="Trazado 134332" d="M169.537,51.322a2.2,2.2,0,0,1-.956-.172,1.214,1.214,0,0,1-.461-.388c-.009.013-.018.025-.028.037a.929.929,0,0,1-.495.292,1.5,1.5,0,0,1-1.376-.344.989.989,0,0,1-.258-.37.8.8,0,0,1-.085.016.747.747,0,0,1-.751-.443.128.128,0,0,1,.237-.1.488.488,0,0,0,.485.286.5.5,0,0,0,.075-.016.5.5,0,0,1,.456-.48.124.124,0,0,1,.1.044.129.129,0,0,1,.03.1.744.744,0,0,1-.312.479.718.718,0,0,0,.2.289,1.239,1.239,0,0,0,1.135.285.72.72,0,0,0,.364-.208.4.4,0,0,0,.083-.176.81.81,0,0,1-.027-.216.128.128,0,0,1,.246-.05.522.522,0,0,1,.041.245.887.887,0,0,0,.454.48,2.12,2.12,0,0,0,.941.146.733.733,0,0,0,.414-.089.235.235,0,0,0,.09-.16.107.107,0,0,0-.026-.087.128.128,0,0,1,.183-.18.358.358,0,0,1,.1.288.487.487,0,0,1-.195.346.953.953,0,0,1-.56.138h-.1" fill="#fff"/>
    <path id="Trazado_134333" data-name="Trazado 134333" d="M175.535,51.561h-.006a.858.858,0,0,1-.553-.248.59.59,0,0,1-.264-.214,2.516,2.516,0,0,1-1.111.1,1.33,1.33,0,0,1-1.148-1.1.128.128,0,1,1,.255-.023,1.088,1.088,0,0,0,.935.866,2.309,2.309,0,0,0,1.02-.1.357.357,0,0,1,.011-.044,1.161,1.161,0,0,1-.04-.485.976.976,0,0,1,.472-.744.7.7,0,0,1,.525-.045.567.567,0,0,1,.34.274.692.692,0,0,1-.158.779,1.118,1.118,0,0,1-.287.212.93.93,0,0,1,.118.363,2.456,2.456,0,0,0,.666-.1.632.632,0,0,0,.34-.194.239.239,0,0,0,.041-.17l0-.018-.071-.09a.129.129,0,0,1,.175-.184.368.368,0,0,1,.121.146,2.706,2.706,0,0,0,.478.5,1.027,1.027,0,0,0,.722.228.575.575,0,0,0,.495-.425.669.669,0,0,1-.493-.569.128.128,0,0,1,.118-.135.563.563,0,0,1,.455.19.681.681,0,0,1,.164.3,1.328,1.328,0,0,0,.474-.09.357.357,0,0,1,0-.142.3.3,0,0,1,.32-.228.232.232,0,0,1,.233.206.285.285,0,0,1-.16.279l.012.007a.994.994,0,0,0,1.361-.409.129.129,0,0,1,.116-.075h0a.128.128,0,0,1,.116.079,1.316,1.316,0,0,0,.479.688.458.458,0,0,0,.413,0,.238.238,0,0,0,.138-.182.128.128,0,0,1,.232-.062,1.024,1.024,0,0,0,1.638.041.128.128,0,0,1,.213.14c0,.005,0,.02.025.038a.147.147,0,0,0,.112.036.628.628,0,0,0,.231-.136c.04-.032.082-.064.127-.094A.974.974,0,0,1,186.24,51a.128.128,0,0,1-.213.141.72.72,0,0,0-.954-.195c-.036.023-.071.051-.109.081a.831.831,0,0,1-.336.185.4.4,0,0,1-.371-.131,1.278,1.278,0,0,1-1.736-.059.54.54,0,0,1-.186.156.716.716,0,0,1-.656-.005,1.264,1.264,0,0,1-.491-.588,1.244,1.244,0,0,1-.618.409,1.2,1.2,0,0,1-.975-.109.713.713,0,0,1-.142-.113,1.72,1.72,0,0,1-.592.12.829.829,0,0,1-.715.638,1.262,1.262,0,0,1-.911-.277,2.347,2.347,0,0,1-.332-.312.535.535,0,0,1-.045.077.863.863,0,0,1-.476.289,2.693,2.693,0,0,1-.719.109v.017a.13.13,0,0,1-.038.095.126.126,0,0,1-.09.037m-.414-.466a.754.754,0,0,0,.145.037l.117.014a.578.578,0,0,0-.093-.245l-.121.046-.128.046q.025.038.054.072l.026.03m-.038-.556a.522.522,0,0,1,.253.064.976.976,0,0,0,.293-.2.444.444,0,0,0,.114-.482.309.309,0,0,0-.189-.148.44.44,0,0,0-.329.027.719.719,0,0,0-.337.552.892.892,0,0,0,0,.225l.022-.008a.518.518,0,0,1,.174-.03" fill="#fff"/>
  </g>
</svg>
