<svg xmlns="http://www.w3.org/2000/svg" xmlns:xlink="http://www.w3.org/1999/xlink" width="1240" height="414" viewBox="0 0 1240 414">
  <defs>
    <linearGradient id="linear-gradient" x1="0.5" x2="0.5" y2="1" gradientUnits="objectBoundingBox">
      <stop offset="0" stop-color="#f5f5f5"/>
      <stop offset="1" stop-color="#fff"/>
    </linearGradient>
    <filter id="Trazado_137053" x="28" y="145" width="364" height="158" filterUnits="userSpaceOnUse">
      <feOffset dy="3" input="SourceAlpha"/>
      <feGaussianBlur stdDeviation="3" result="blur"/>
      <feFlood flood-opacity="0.302"/>
      <feComposite operator="in" in2="blur"/>
      <feComposite in="SourceGraphic"/>
    </filter>
    <filter id="Trazado_137055" x="158" y="103" width="104" height="104" filterUnits="userSpaceOnUse">
      <feOffset dy="3" input="SourceAlpha"/>
      <feGaussianBlur stdDeviation="3" result="blur-2"/>
      <feFlood flood-opacity="0.161"/>
      <feComposite operator="in" in2="blur-2"/>
      <feComposite in="SourceGraphic"/>
    </filter>
    <filter id="Trazado_137056" x="847" y="145" width="363" height="158" filterUnits="userSpaceOnUse">
      <feOffset dy="3" input="SourceAlpha"/>
      <feGaussianBlur stdDeviation="3" result="blur-3"/>
      <feFlood flood-opacity="0.302"/>
      <feComposite operator="in" in2="blur-3"/>
      <feComposite in="SourceGraphic"/>
    </filter>
    <filter id="Trazado_137058" x="977" y="103" width="103" height="104" filterUnits="userSpaceOnUse">
      <feOffset dy="3" input="SourceAlpha"/>
      <feGaussianBlur stdDeviation="3" result="blur-4"/>
      <feFlood flood-opacity="0.161"/>
      <feComposite operator="in" in2="blur-4"/>
      <feComposite in="SourceGraphic"/>
    </filter>
    <filter id="Trazado_137059" x="392" y="145" width="456" height="158" filterUnits="userSpaceOnUse">
      <feOffset dy="3" input="SourceAlpha"/>
      <feGaussianBlur stdDeviation="3" result="blur-5"/>
      <feFlood flood-opacity="0.302"/>
      <feComposite operator="in" in2="blur-5"/>
      <feComposite in="SourceGraphic"/>
    </filter>
    <filter id="Trazado_137061" x="568" y="103" width="104" height="104" filterUnits="userSpaceOnUse">
      <feOffset dy="3" input="SourceAlpha"/>
      <feGaussianBlur stdDeviation="3" result="blur-6"/>
      <feFlood flood-opacity="0.161"/>
      <feComposite operator="in" in2="blur-6"/>
      <feComposite in="SourceGraphic"/>
    </filter>
    <filter id="Trazado_137062" x="849" y="299" width="180" height="115" filterUnits="userSpaceOnUse">
      <feOffset dy="3" input="SourceAlpha"/>
      <feGaussianBlur stdDeviation="3" result="blur-7"/>
      <feFlood flood-opacity="0.102"/>
      <feComposite operator="in" in2="blur-7"/>
      <feComposite in="SourceGraphic"/>
    </filter>
    <filter id="Trazado_137063" x="30" y="299" width="179" height="115" filterUnits="userSpaceOnUse">
      <feOffset dy="3" input="SourceAlpha"/>
      <feGaussianBlur stdDeviation="3" result="blur-8"/>
      <feFlood flood-opacity="0.102"/>
      <feComposite operator="in" in2="blur-8"/>
      <feComposite in="SourceGraphic"/>
    </filter>
    <filter id="Trazado_137064" x="1029" y="299" width="184" height="115" filterUnits="userSpaceOnUse">
      <feOffset dy="3" input="SourceAlpha"/>
      <feGaussianBlur stdDeviation="3" result="blur-9"/>
      <feFlood flood-opacity="0.102"/>
      <feComposite operator="in" in2="blur-9"/>
      <feComposite in="SourceGraphic"/>
    </filter>
    <filter id="Trazado_137065" x="209" y="299" width="184" height="115" filterUnits="userSpaceOnUse">
      <feOffset dy="3" input="SourceAlpha"/>
      <feGaussianBlur stdDeviation="3" result="blur-10"/>
      <feFlood flood-opacity="0.102"/>
      <feComposite operator="in" in2="blur-10"/>
      <feComposite in="SourceGraphic"/>
    </filter>
    <filter id="Trazado_137066" x="546" y="299" width="148" height="115" filterUnits="userSpaceOnUse">
      <feOffset dy="3" input="SourceAlpha"/>
      <feGaussianBlur stdDeviation="3" result="blur-11"/>
      <feFlood flood-opacity="0.102"/>
      <feComposite operator="in" in2="blur-11"/>
      <feComposite in="SourceGraphic"/>
    </filter>
    <filter id="Trazado_137067" x="392" y="299" width="148" height="115" filterUnits="userSpaceOnUse">
      <feOffset dy="3" input="SourceAlpha"/>
      <feGaussianBlur stdDeviation="3" result="blur-12"/>
      <feFlood flood-opacity="0.102"/>
      <feComposite operator="in" in2="blur-12"/>
      <feComposite in="SourceGraphic"/>
    </filter>
    <filter id="Trazado_137068" x="700" y="299" width="148" height="115" filterUnits="userSpaceOnUse">
      <feOffset dy="3" input="SourceAlpha"/>
      <feGaussianBlur stdDeviation="3" result="blur-13"/>
      <feFlood flood-opacity="0.102"/>
      <feComposite operator="in" in2="blur-13"/>
      <feComposite in="SourceGraphic"/>
    </filter>
  </defs>
  <g id="Grupo_159650" data-name="Grupo 159650" transform="translate(-180 -3826)">
    <path id="Trazado_137089" data-name="Trazado 137089" d="M6,0H1234a6,6,0,0,1,6,6V221a6,6,0,0,1-6,6H6a6,6,0,0,1-6-6V6A6,6,0,0,1,6,0Z" transform="translate(180 3826)" fill="url(#linear-gradient)"/>
    <path id="Trazado_137090" data-name="Trazado 137090" d="M53.646,18.452V24H49.7V7.648h6.525a7.6,7.6,0,0,1,3.319.691A5.205,5.205,0,0,1,61.782,10.3a5.367,5.367,0,0,1,.792,2.892,4.731,4.731,0,0,1-1.713,3.824,7.106,7.106,0,0,1-4.7,1.432Zm0-3.043h2.583a2.436,2.436,0,0,0,1.746-.573,2.128,2.128,0,0,0,.6-1.617,2.63,2.63,0,0,0-.618-1.831,2.187,2.187,0,0,0-1.685-.7H53.646ZM68.492,24H64.7V6.75h3.8Zm9.175,0a4.273,4.273,0,0,1-.359-1.089,3.519,3.519,0,0,1-2.92,1.314,4.311,4.311,0,0,1-2.92-1.039,3.307,3.307,0,0,1-1.2-2.611,3.4,3.4,0,0,1,1.46-2.987,7.438,7.438,0,0,1,4.245-1.011H77.14v-.643q0-1.681-1.449-1.681a1.184,1.184,0,0,0-1.348,1.332H70.559a3.393,3.393,0,0,1,1.5-2.86,6.3,6.3,0,0,1,3.824-1.1,5.524,5.524,0,0,1,3.672,1.134,3.944,3.944,0,0,1,1.381,3.111v5.379a5.509,5.509,0,0,0,.517,2.561V24ZM75.3,21.529a2.111,2.111,0,0,0,1.174-.3,1.9,1.9,0,0,0,.668-.685V18.6h-1.1q-1.977,0-1.977,1.774a1.083,1.083,0,0,0,.348.837A1.26,1.26,0,0,0,75.3,21.529Zm11.208-9.681.124,1.426a4.121,4.121,0,0,1,3.47-1.651,3.467,3.467,0,0,1,2.836,1.134,5.4,5.4,0,0,1,.971,3.414V24h-3.8V16.33a2.051,2.051,0,0,0-.371-1.353,1.714,1.714,0,0,0-1.348-.432,1.8,1.8,0,0,0-1.651.876V24H82.957V11.849Zm14.746,5.986a7.423,7.423,0,0,1,1.247-4.548,4.1,4.1,0,0,1,3.481-1.662,3.49,3.49,0,0,1,2.74,1.28V6.75h3.8V24h-3.4l-.191-1.3a3.584,3.584,0,0,1-2.965,1.527,4.1,4.1,0,0,1-3.437-1.662A7.658,7.658,0,0,1,101.251,17.834Zm3.785.236q0,3.234,1.887,3.234a1.863,1.863,0,0,0,1.8-1.056V15.622a1.813,1.813,0,0,0-1.774-1.078q-1.752,0-1.9,2.83Zm15.509,6.154a6.246,6.246,0,0,1-4.526-1.668,5.759,5.759,0,0,1-1.729-4.341V17.9a7.462,7.462,0,0,1,.691-3.291A5.054,5.054,0,0,1,117,12.4a6.086,6.086,0,0,1,3.145-.781,5.26,5.26,0,0,1,4.043,1.589,6.245,6.245,0,0,1,1.482,4.43v1.471h-7.524a2.728,2.728,0,0,0,.887,1.606,2.64,2.64,0,0,0,1.774.584,3.4,3.4,0,0,0,2.808-1.258l1.729,2.044a4.835,4.835,0,0,1-2,1.555A6.774,6.774,0,0,1,120.545,24.225Zm-.427-9.681q-1.662,0-1.977,2.2h3.818v-.292a1.875,1.875,0,0,0-.46-1.409A1.832,1.832,0,0,0,120.119,14.544Zm17.16-2.707-.247,1.46a4.362,4.362,0,0,1,3.549-1.673,3.206,3.206,0,0,1,1.808.517,2.354,2.354,0,0,1,.943,1.314,4.625,4.625,0,0,1,3.695-1.831,2.863,2.863,0,0,1,2.5,1.263,5.261,5.261,0,0,1,.59,3.465L148.846,24H145.14l1.292-7.65.045-.662q0-1.11-1.044-1.144a2.392,2.392,0,0,0-1.819,1L142.142,24h-3.706l1.28-7.628.045-.673q0-1.155-1.044-1.155a2.376,2.376,0,0,0-1.8,1L135.426,24h-3.695l2.111-12.151ZM157.887,24a3.3,3.3,0,0,1-.157-1.1,3.748,3.748,0,0,1-2.976,1.325,3.662,3.662,0,0,1-2.628-1.056,3.173,3.173,0,0,1-.977-2.5,3.564,3.564,0,0,1,1.651-3.038,7.783,7.783,0,0,1,4.357-1.061l1.235.022.135-.685.045-.6a.965.965,0,0,0-1.022-1.056,1.42,1.42,0,0,0-1.494,1.336l-3.706.011a3.52,3.52,0,0,1,.8-2.128,4.726,4.726,0,0,1,2.016-1.393,7.044,7.044,0,0,1,2.712-.455,5.431,5.431,0,0,1,2.42.578,3.6,3.6,0,0,1,1.555,1.516,3.873,3.873,0,0,1,.393,2.24l-.91,5.716-.056.7a3.069,3.069,0,0,0,.213,1.415L161.48,24Zm-2.111-2.448a2.383,2.383,0,0,0,1.988-1l.371-1.954-.955-.011a2.516,2.516,0,0,0-1.527.522,1.981,1.981,0,0,0-.752,1.365,1,1,0,0,0,.174.758A.889.889,0,0,0,155.775,21.552Zm15.981-6.278a10.571,10.571,0,0,0-1.146-.112,2.853,2.853,0,0,0-2.538,1.146L166.7,24h-3.695l2.111-12.151,3.448-.011-.281,1.595a3.373,3.373,0,0,1,2.808-1.842,5.3,5.3,0,0,1,1.146.157Zm5.436,4.245-1.348,1.168L175.271,24h-3.695l3-17.261h3.695l-1.707,9.209.449-.539,3.358-3.56h4.683l-5.166,5.166L183.021,24h-4.054ZM189.9,24.225a5.649,5.649,0,0,1-2.9-.769,4.847,4.847,0,0,1-1.926-2.111,5.673,5.673,0,0,1-.517-2.982l.034-.314a7.448,7.448,0,0,1,2.083-4.745,5.763,5.763,0,0,1,4.363-1.679,4.7,4.7,0,0,1,2.673.793,4.431,4.431,0,0,1,1.628,2.126,6.511,6.511,0,0,1,.337,3.042l-.213,1.541h-7.232a2.369,2.369,0,0,0,.539,1.55,1.98,1.98,0,0,0,1.5.629,3.824,3.824,0,0,0,2.886-1.235l1.55,2.05a4.572,4.572,0,0,1-1.915,1.529,6.725,6.725,0,0,1-2.69.577Zm.9-9.681a1.9,1.9,0,0,0-1.365.492,4.126,4.126,0,0,0-1.005,1.721h3.695l.067-.324a2.465,2.465,0,0,0,.022-.737A1.3,1.3,0,0,0,190.8,14.544Zm12.252-5.716-.528,3.021h1.943l-.46,2.628h-1.943l-.943,5.582a1.488,1.488,0,0,0,.073.865q.152.292.758.314a8.782,8.782,0,0,0,.966-.056l-.27,2.74a5.971,5.971,0,0,1-1.988.281,3.275,3.275,0,0,1-2.572-1.011,3.452,3.452,0,0,1-.7-2.684l.988-6.031h-1.5l.449-2.628h1.5l.528-3.021ZM207.795,24h-3.706L206.2,11.849h3.706ZM206.526,8.783a1.713,1.713,0,0,1,.578-1.37,2.076,2.076,0,0,1,1.454-.55A2.144,2.144,0,0,1,210,7.356a1.684,1.684,0,0,1,.6,1.292,1.717,1.717,0,0,1-.573,1.376,2.083,2.083,0,0,1-1.46.545,2.171,2.171,0,0,1-1.432-.489A1.664,1.664,0,0,1,206.526,8.783Zm9.1,3.055-.258,1.46a4.319,4.319,0,0,1,3.515-1.685,2.9,2.9,0,0,1,2.51,1.252,5.241,5.241,0,0,1,.6,3.487L220.71,24H217l1.292-7.68a3.972,3.972,0,0,0,.022-.72q-.079-1.068-1.258-1.068a2.309,2.309,0,0,0-1.786.866L213.758,24h-3.695l2.111-12.151Zm7.839,6.064a9.233,9.233,0,0,1,1.005-3.313,5.832,5.832,0,0,1,1.982-2.24,4.773,4.773,0,0,1,2.7-.736,3.318,3.318,0,0,1,2.763,1.314l.393-1.089,3.414.011-1.988,11.68a5.708,5.708,0,0,1-2.167,3.9A6.9,6.9,0,0,1,227,28.784a6.51,6.51,0,0,1-2.347-.483,5.057,5.057,0,0,1-1.943-1.393l1.752-2.179A3.181,3.181,0,0,0,227,26a2.97,2.97,0,0,0,3.122-2.617l.09-.371a3.8,3.8,0,0,1-2.774,1.213,3.747,3.747,0,0,1-2.055-.59,3.877,3.877,0,0,1-1.393-1.668,6.486,6.486,0,0,1-.573-2.426A10.546,10.546,0,0,1,223.461,17.9Zm3.65,1.2a2.947,2.947,0,0,0,.371,1.606,1.257,1.257,0,0,0,1.078.6,2.47,2.47,0,0,0,1.9-.809l.955-5.155a1.637,1.637,0,0,0-1.5-.809,2.15,2.15,0,0,0-1.808.915,4.934,4.934,0,0,0-.921,2.465Q227.111,18.621,227.111,19.1ZM242.87,17.93a15.736,15.736,0,0,1,.625-4.471A11.8,11.8,0,0,1,245.341,9.7a6.892,6.892,0,0,1,2.646-2.271l.574,1.6a7.137,7.137,0,0,0-2.338,3.425,15.858,15.858,0,0,0-.841,5.414v.318a16.161,16.161,0,0,0,.831,5.435,7.276,7.276,0,0,0,2.348,3.476l-.574,1.569a6.9,6.9,0,0,1-2.6-2.21,11.6,11.6,0,0,1-1.841-3.656,15.643,15.643,0,0,1-.677-4.327Zm12.315,6.275a5.26,5.26,0,0,1-2.62-.7,4.741,4.741,0,0,1-1.794-1.938,7.177,7.177,0,0,1-.764-2.907,11.685,11.685,0,0,1,.359-3.589,9.577,9.577,0,0,1,1.518-3.353,6.9,6.9,0,0,1,2.456-2.164,6.357,6.357,0,0,1,3.051-.687,5.206,5.206,0,0,1,2.635.713,4.708,4.708,0,0,1,1.774,1.958,7.26,7.26,0,0,1,.738,2.9,12.06,12.06,0,0,1-.39,3.712,9.419,9.419,0,0,1-1.528,3.3,6.845,6.845,0,0,1-2.425,2.092A6.34,6.34,0,0,1,255.185,24.205Zm4.255-8.08.082-.974a4.759,4.759,0,0,0-.487-2.769,2.057,2.057,0,0,0-1.789-.984,3.245,3.245,0,0,0-2.979,1.661,9.785,9.785,0,0,0-1.246,4.819,4.937,4.937,0,0,0,.482,2.794,2.051,2.051,0,0,0,1.815,1.02,3.078,3.078,0,0,0,2.666-1.256,7.6,7.6,0,0,0,1.384-3.758Zm8.306-3.23-.246,1.313a3.992,3.992,0,0,1,3.23-1.507,2.662,2.662,0,0,1,2.317,1.148,4.628,4.628,0,0,1,.543,3.1L272.422,24H269.53l1.189-7.085a3.318,3.318,0,0,0,.021-.728,1.174,1.174,0,0,0-1.312-1.077,2.489,2.489,0,0,0-2.041,1.056L266,24h-2.892l1.928-11.095Zm10.562,8.634h6.337L284.214,24h-9.341l2.594-14.93h3ZM288.879,24h-2.912L287.9,12.905h2.912Zm-.646-13.915a1.444,1.444,0,0,1,.451-1.138,1.736,1.736,0,0,1,2.276-.051,1.438,1.438,0,0,1,.5,1.087,1.485,1.485,0,0,1-.426,1.107,1.6,1.6,0,0,1-1.164.492,1.621,1.621,0,0,1-1.133-.39A1.432,1.432,0,0,1,288.233,10.085Zm7.67,2.81-.246,1.313a3.992,3.992,0,0,1,3.23-1.507,2.662,2.662,0,0,1,2.317,1.148,4.628,4.628,0,0,1,.543,3.1L300.579,24h-2.892l1.189-7.085a3.318,3.318,0,0,0,.021-.728,1.174,1.174,0,0,0-1.312-1.077,2.489,2.489,0,0,0-2.041,1.056L294.16,24h-2.892L293.2,12.905Zm12.212,11.31a4.827,4.827,0,0,1-2.579-.713,4.321,4.321,0,0,1-1.677-1.928,5.373,5.373,0,0,1-.431-2.7l.031-.41a7.173,7.173,0,0,1,.943-2.974,5.7,5.7,0,0,1,2.03-2.087,5.023,5.023,0,0,1,2.748-.692,3.838,3.838,0,0,1,3.245,1.576,5.4,5.4,0,0,1,.836,3.887l-.164,1.263h-6.8a2.381,2.381,0,0,0,.523,1.723,2,2,0,0,0,1.538.667,3.548,3.548,0,0,0,2.769-1.23l1.323,1.641a4.115,4.115,0,0,1-1.8,1.471A5.9,5.9,0,0,1,308.116,24.205Zm.923-9.116a2.055,2.055,0,0,0-1.42.5,4.414,4.414,0,0,0-1.113,1.815h3.979l.062-.267a2.718,2.718,0,0,0,.01-.779,1.488,1.488,0,0,0-.5-.928A1.575,1.575,0,0,0,309.039,15.089Zm15.35,4.717,2.051-6.9h3.179l-4.46,12.817-.246.584a3.382,3.382,0,0,1-3.281,2.174,4.663,4.663,0,0,1-1.312-.195V26.041l.451.01a2.438,2.438,0,0,0,1.256-.256,1.684,1.684,0,0,0,.651-.851l.349-.913-3.886-11.125h3.189Zm16.7,4.4a5.26,5.26,0,0,1-2.62-.7,4.741,4.741,0,0,1-1.794-1.938,7.177,7.177,0,0,1-.764-2.907,11.685,11.685,0,0,1,.359-3.589,9.577,9.577,0,0,1,1.518-3.353,6.9,6.9,0,0,1,2.456-2.164,6.357,6.357,0,0,1,3.051-.687,5.206,5.206,0,0,1,2.635.713,4.708,4.708,0,0,1,1.774,1.958,7.26,7.26,0,0,1,.738,2.9,12.06,12.06,0,0,1-.39,3.712,9.419,9.419,0,0,1-1.528,3.3,6.845,6.845,0,0,1-2.425,2.092A6.34,6.34,0,0,1,341.092,24.205Zm4.255-8.08.082-.974a4.759,4.759,0,0,0-.487-2.769,2.057,2.057,0,0,0-1.789-.984,3.245,3.245,0,0,0-2.979,1.661,9.785,9.785,0,0,0-1.246,4.819,4.937,4.937,0,0,0,.482,2.794,2.051,2.051,0,0,0,1.815,1.02,3.078,3.078,0,0,0,2.666-1.256,7.6,7.6,0,0,0,1.384-3.758ZM349.859,24l1.548-8.931h-1.6l.379-2.164,1.6-.01.144-1.107a4.175,4.175,0,0,1,4.45-3.773,9.621,9.621,0,0,1,1.569.214l-.256,2.3a3.586,3.586,0,0,0-.851-.123,2.12,2.12,0,0,0-1.318.391,1.779,1.779,0,0,0-.682,1.2l-.154.906h2.143l-.379,2.164H354.32L352.771,24Zm7.4,0,1.548-8.931h-1.6l.379-2.164,1.6-.01.144-1.107a4.175,4.175,0,0,1,4.45-3.773,9.621,9.621,0,0,1,1.569.214l-.256,2.3a3.586,3.586,0,0,0-.851-.123,2.12,2.12,0,0,0-1.318.391,1.779,1.779,0,0,0-.682,1.2l-.154.906h2.143l-.379,2.164h-2.133L360.175,24Zm10.244-2.471h6.337L373.413,24h-9.341l2.594-14.93h3ZM378.078,24h-2.912l1.928-11.095h2.912Zm-.646-13.915a1.444,1.444,0,0,1,.451-1.138A1.736,1.736,0,0,1,380.16,8.9a1.438,1.438,0,0,1,.5,1.087,1.485,1.485,0,0,1-.426,1.107,1.6,1.6,0,0,1-1.164.492,1.621,1.621,0,0,1-1.133-.39A1.432,1.432,0,0,1,377.432,10.085Zm7.67,2.81-.246,1.313a3.992,3.992,0,0,1,3.23-1.507,2.662,2.662,0,0,1,2.317,1.148,4.628,4.628,0,0,1,.543,3.1L389.778,24h-2.892l1.189-7.085a3.318,3.318,0,0,0,.021-.728,1.174,1.174,0,0,0-1.312-1.077,2.489,2.489,0,0,0-2.041,1.056L383.359,24h-2.892L382.4,12.905Zm12.212,11.31a4.827,4.827,0,0,1-2.579-.713,4.321,4.321,0,0,1-1.677-1.928,5.373,5.373,0,0,1-.431-2.7l.031-.41a7.173,7.173,0,0,1,.943-2.974,5.7,5.7,0,0,1,2.03-2.087,5.023,5.023,0,0,1,2.748-.692,3.838,3.838,0,0,1,3.245,1.576,5.4,5.4,0,0,1,.836,3.887l-.164,1.263h-6.8a2.381,2.381,0,0,0,.523,1.723,2,2,0,0,0,1.538.667,3.548,3.548,0,0,0,2.769-1.23l1.323,1.641a4.115,4.115,0,0,1-1.8,1.471A5.9,5.9,0,0,1,397.314,24.205Zm.923-9.116a2.055,2.055,0,0,0-1.42.5,4.414,4.414,0,0,0-1.113,1.815h3.979l.062-.267a2.718,2.718,0,0,0,.01-.779,1.488,1.488,0,0,0-.5-.928A1.575,1.575,0,0,0,398.237,15.089Zm11.136,3.076a14.932,14.932,0,0,1-.667,4.46,12.108,12.108,0,0,1-1.917,3.784,6.908,6.908,0,0,1-2.676,2.256l-.574-1.569a7.21,7.21,0,0,0,2.3-3.384,15.669,15.669,0,0,0,.872-5.26v-.543a16.024,16.024,0,0,0-.836-5.4A7.516,7.516,0,0,0,403.539,9l.574-1.569a6.911,6.911,0,0,1,2.63,2.194,11.952,11.952,0,0,1,1.917,3.7,14.826,14.826,0,0,1,.713,4.378Z" transform="translate(571 3868)" fill="#12263f"/>
    <g transform="matrix(1, 0, 0, 1, 180, 3826)" filter="url(#Trazado_137053)">
      <path id="Trazado_137053-2" data-name="Trazado 137053" d="M6,0H340a6,6,0,0,1,6,6V134a6,6,0,0,1-6,6H6a6,6,0,0,1-6-6V6A6,6,0,0,1,6,0Z" transform="translate(37 151)" fill="#0c487b"/>
    </g>
    <path id="Trazado_137054" data-name="Trazado 137054" d="M54,0c29.823,0,54,24.624,54,55s-24.177,55-54,55S0,85.376,0,55,24.177,0,54,0Z" transform="translate(337 3923)" fill="#0c487b"/>
    <g transform="matrix(1, 0, 0, 1, 180, 3826)" filter="url(#Trazado_137055)">
      <path id="Trazado_137055-2" data-name="Trazado 137055" d="M43,0A43,43,0,1,1,0,43,43,43,0,0,1,43,0Z" transform="translate(167 109)" fill="#fff"/>
    </g>
    <g transform="matrix(1, 0, 0, 1, 180, 3826)" filter="url(#Trazado_137056)">
      <path id="Trazado_137056-2" data-name="Trazado 137056" d="M6,0H339a6,6,0,0,1,6,6V134a6,6,0,0,1-6,6H6a6,6,0,0,1-6-6V6A6,6,0,0,1,6,0Z" transform="translate(856 151)" fill="#4d6466"/>
    </g>
    <path id="Trazado_137057" data-name="Trazado 137057" d="M54,0c29.823,0,54,24.624,54,55s-24.177,55-54,55S0,85.376,0,55,24.177,0,54,0Z" transform="translate(1154 3923)" fill="#4d6466"/>
    <g transform="matrix(1, 0, 0, 1, 180, 3826)" filter="url(#Trazado_137058)">
      <path id="Trazado_137058-2" data-name="Trazado 137058" d="M42.5,0C65.972,0,85,19.252,85,43S65.972,86,42.5,86,0,66.748,0,43,19.028,0,42.5,0Z" transform="translate(986 109)" fill="#fff"/>
    </g>
    <g transform="matrix(1, 0, 0, 1, 180, 3826)" filter="url(#Trazado_137059)">
      <path id="Trazado_137059-2" data-name="Trazado 137059" d="M6,0H432a6,6,0,0,1,6,6V134a6,6,0,0,1-6,6H6a6,6,0,0,1-6-6V6A6,6,0,0,1,6,0Z" transform="translate(401 151)" fill="#16746f"/>
    </g>
    <path id="Trazado_137060" data-name="Trazado 137060" d="M55,0A55,55,0,1,1,0,55,55,55,0,0,1,55,0Z" transform="translate(745 3923)" fill="#16746f"/>
    <g transform="matrix(1, 0, 0, 1, 180, 3826)" filter="url(#Trazado_137061)">
      <path id="Trazado_137061-2" data-name="Trazado 137061" d="M43,0A43,43,0,1,1,0,43,43,43,0,0,1,43,0Z" transform="translate(577 109)" fill="#fff"/>
    </g>
    <g transform="matrix(1, 0, 0, 1, 180, 3826)" filter="url(#Trazado_137062)">
      <path id="Trazado_137062-2" data-name="Trazado 137062" d="M6,0H156a6,6,0,0,1,6,6V91a6,6,0,0,1-6,6H6a6,6,0,0,1-6-6V6A6,6,0,0,1,6,0Z" transform="translate(858 305)" fill="#dae4e5"/>
    </g>
    <g transform="matrix(1, 0, 0, 1, 180, 3826)" filter="url(#Trazado_137063)">
      <path id="Trazado_137063-2" data-name="Trazado 137063" d="M6,0H155a6,6,0,0,1,6,6V91a6,6,0,0,1-6,6H6a6,6,0,0,1-6-6V6A6,6,0,0,1,6,0Z" transform="translate(39 305)" fill="#d7e4f6"/>
    </g>
    <g transform="matrix(1, 0, 0, 1, 180, 3826)" filter="url(#Trazado_137064)">
      <path id="Trazado_137064-2" data-name="Trazado 137064" d="M6,0H160a6,6,0,0,1,6,6V91a6,6,0,0,1-6,6H6a6,6,0,0,1-6-6V6A6,6,0,0,1,6,0Z" transform="translate(1038 305)" fill="#dae4e5"/>
    </g>
    <g transform="matrix(1, 0, 0, 1, 180, 3826)" filter="url(#Trazado_137065)">
      <path id="Trazado_137065-2" data-name="Trazado 137065" d="M6,0H160a6,6,0,0,1,6,6V91a6,6,0,0,1-6,6H6a6,6,0,0,1-6-6V6A6,6,0,0,1,6,0Z" transform="translate(218 305)" fill="#d7e4f6"/>
    </g>
    <g transform="matrix(1, 0, 0, 1, 180, 3826)" filter="url(#Trazado_137066)">
      <path id="Trazado_137066-2" data-name="Trazado 137066" d="M6,0H124a6,6,0,0,1,6,6V91a6,6,0,0,1-6,6H6a6,6,0,0,1-6-6V6A6,6,0,0,1,6,0Z" transform="translate(555 305)" fill="#c9f0ee"/>
    </g>
    <g transform="matrix(1, 0, 0, 1, 180, 3826)" filter="url(#Trazado_137067)">
      <path id="Trazado_137067-2" data-name="Trazado 137067" d="M6,0H124a6,6,0,0,1,6,6V91a6,6,0,0,1-6,6H6a6,6,0,0,1-6-6V6A6,6,0,0,1,6,0Z" transform="translate(401 305)" fill="#c9f0ee"/>
    </g>
    <g transform="matrix(1, 0, 0, 1, 180, 3826)" filter="url(#Trazado_137068)">
      <path id="Trazado_137068-2" data-name="Trazado 137068" d="M6,0H124a6,6,0,0,1,6,6V91a6,6,0,0,1-6,6H6a6,6,0,0,1-6-6V6A6,6,0,0,1,6,0Z" transform="translate(709 305)" fill="#c9f0ee"/>
    </g>
    <path id="Trazado_137069" data-name="Trazado 137069" d="M61.432,50.7H48.514L46.259,58H36.188L50.529,18.9h8.862L73.839,58H63.715ZM50.77,43.417h8.406L54.96,29.855Z" transform="translate(334 3943)" fill="#0c487b"/>
    <path id="Trazado_137070" data-name="Trazado 137070" d="M29.216,58V18.9H43.261q7.546,0,11.481,2.766a9.2,9.2,0,0,1,3.934,8.03,9.3,9.3,0,0,1-1.4,5.183,8.138,8.138,0,0,1-4.109,3.169,8.241,8.241,0,0,1,4.7,3.008,8.745,8.745,0,0,1,1.638,5.371q0,5.747-3.639,8.634T45.088,58Zm9.426-16.624v9.373h6.177a5.875,5.875,0,0,0,3.921-1.168,4.089,4.089,0,0,0,1.37-3.29q0-4.888-4.861-4.915Zm0-6.177h4.915a6.982,6.982,0,0,0,4.4-1.131,4.014,4.014,0,0,0,1.316-3.259,4.215,4.215,0,0,0-1.423-3.569,7.619,7.619,0,0,0-4.592-1.091H38.642Z" transform="translate(756 3943)" fill="#16746f"/>
    <path id="Trazado_137071" data-name="Trazado 137071" d="M60.543,44.76a14.28,14.28,0,0,1-2.2,7.211,13.291,13.291,0,0,1-5.653,4.847,19.241,19.241,0,0,1-8.312,1.719q-7.708,0-12.139-5.022t-4.431-14.18V37.4a23.668,23.668,0,0,1,2-10.057,15.16,15.16,0,0,1,5.76-6.66,16.072,16.072,0,0,1,8.7-2.35q7.117,0,11.44,3.746a14.8,14.8,0,0,1,4.915,10.326h-9.4q-.107-3.572-1.8-5.129a7.4,7.4,0,0,0-5.156-1.558,5.631,5.631,0,0,0-5.156,2.632q-1.638,2.632-1.719,8.406v2.766q0,6.257,1.571,8.943t5.411,2.686a7.238,7.238,0,0,0,4.968-1.531A6.5,6.5,0,0,0,51.17,44.76Z" transform="translate(1165 3943)" fill="#4d6466"/>
    <path id="Trazado_137072" data-name="Trazado 137072" d="M91.389,16.74V22H88.313V7.07h5.824a6.738,6.738,0,0,1,2.958.615,4.534,4.534,0,0,1,1.964,1.748,4.875,4.875,0,0,1,.687,2.579,4.287,4.287,0,0,1-1.5,3.461,6.257,6.257,0,0,1-4.158,1.266Zm0-2.492h2.748A2.7,2.7,0,0,0,96,13.674a2.088,2.088,0,0,0,.641-1.641,2.463,2.463,0,0,0-.646-1.774,2.413,2.413,0,0,0-1.784-.7h-2.82ZM104.791,22h-2.974V6.25h2.974Zm8.87,0a3.291,3.291,0,0,1-.3-.995,3.586,3.586,0,0,1-2.8,1.2,3.939,3.939,0,0,1-2.7-.943,3.034,3.034,0,0,1-1.072-2.379,3.135,3.135,0,0,1,1.307-2.707,6.451,6.451,0,0,1,3.779-.954h1.364v-.636a1.828,1.828,0,0,0-.395-1.23,1.553,1.553,0,0,0-1.246-.461,1.766,1.766,0,0,0-1.174.359,1.219,1.219,0,0,0-.426.984h-2.963a2.977,2.977,0,0,1,.595-1.784,3.931,3.931,0,0,1,1.682-1.287,6.129,6.129,0,0,1,2.44-.467,4.842,4.842,0,0,1,3.256,1.031,3.605,3.605,0,0,1,1.2,2.9v4.809a5.3,5.3,0,0,0,.441,2.389V22Zm-2.451-2.061a2.552,2.552,0,0,0,1.21-.292,1.919,1.919,0,0,0,.82-.784V16.955h-1.107q-2.225,0-2.369,1.538l-.01.174a1.186,1.186,0,0,0,.39.913A1.514,1.514,0,0,0,111.21,19.939Zm10.008-9.034.092,1.282A3.874,3.874,0,0,1,124.5,10.7a3.219,3.219,0,0,1,2.625,1.036,4.832,4.832,0,0,1,.882,3.1V22h-2.963V14.9a1.923,1.923,0,0,0-.41-1.369,1.836,1.836,0,0,0-1.364-.426,2.039,2.039,0,0,0-1.876,1.066V22h-2.963V10.905Zm13.8,5.465a6.686,6.686,0,0,1,1.164-4.132,3.776,3.776,0,0,1,3.184-1.538,3.4,3.4,0,0,1,2.676,1.21V6.25h2.974V22h-2.676l-.144-1.179a3.487,3.487,0,0,1-2.851,1.384,3.766,3.766,0,0,1-3.143-1.543A6.9,6.9,0,0,1,135.019,16.371Zm2.963.221a4.38,4.38,0,0,0,.543,2.393,1.77,1.77,0,0,0,1.579.832,1.983,1.983,0,0,0,1.938-1.16V14.27a1.954,1.954,0,0,0-1.917-1.16Q137.983,13.11,137.983,16.591Zm14.438,5.614a5.447,5.447,0,0,1-3.973-1.5,5.321,5.321,0,0,1-1.533-3.989v-.287a6.7,6.7,0,0,1,.646-2.989,4.741,4.741,0,0,1,1.83-2.03,5.137,5.137,0,0,1,2.7-.713,4.6,4.6,0,0,1,3.584,1.436,5.833,5.833,0,0,1,1.307,4.071v1.21h-7.065a2.753,2.753,0,0,0,.866,1.743,2.619,2.619,0,0,0,1.83.656,3.2,3.2,0,0,0,2.676-1.241l1.456,1.63a4.449,4.449,0,0,1-1.8,1.471A5.921,5.921,0,0,1,152.42,22.205Zm-.338-9.116a1.852,1.852,0,0,0-1.43.6,3.093,3.093,0,0,0-.7,1.71h4.122V15.16a2.206,2.206,0,0,0-.533-1.529A1.91,1.91,0,0,0,152.082,13.089Zm14.591-2.184.092,1.241a3.9,3.9,0,0,1,3.189-1.446,2.959,2.959,0,0,1,2.943,1.692A3.809,3.809,0,0,1,176.23,10.7a3.309,3.309,0,0,1,2.687,1.051,4.831,4.831,0,0,1,.882,3.163V22h-2.974V14.925a2.113,2.113,0,0,0-.369-1.379,1.636,1.636,0,0,0-1.3-.436,1.85,1.85,0,0,0-1.846,1.271l.01,7.619h-2.963V14.935a2.087,2.087,0,0,0-.379-1.395,1.652,1.652,0,0,0-1.292-.431,1.92,1.92,0,0,0-1.825,1.046V22h-2.963V10.905Zm20.508,11.3a5.447,5.447,0,0,1-3.973-1.5,5.321,5.321,0,0,1-1.533-3.989v-.287a6.7,6.7,0,0,1,.646-2.989,4.741,4.741,0,0,1,1.83-2.03,5.137,5.137,0,0,1,2.7-.713,4.6,4.6,0,0,1,3.584,1.436,5.833,5.833,0,0,1,1.307,4.071v1.21h-7.065a2.753,2.753,0,0,0,.866,1.743,2.619,2.619,0,0,0,1.83.656,3.2,3.2,0,0,0,2.676-1.241l1.456,1.63a4.449,4.449,0,0,1-1.8,1.471A5.921,5.921,0,0,1,187.181,22.205Zm-.338-9.116a1.852,1.852,0,0,0-1.43.6,3.093,3.093,0,0,0-.7,1.71h4.122V15.16a2.206,2.206,0,0,0-.533-1.529A1.91,1.91,0,0,0,186.843,13.089Zm12.817.595a8.051,8.051,0,0,0-1.066-.082,2.171,2.171,0,0,0-2.2,1.138V22h-2.963V10.905h2.8l.082,1.323a2.746,2.746,0,0,1,2.471-1.528,3.105,3.105,0,0,1,.923.133Zm5.845,6.132a1.944,1.944,0,0,0,1.333-.451,1.581,1.581,0,0,0,.533-1.2h2.779a3.8,3.8,0,0,1-.615,2.066,4.06,4.06,0,0,1-1.656,1.456,5.183,5.183,0,0,1-2.323.518,4.817,4.817,0,0,1-3.753-1.512,5.985,5.985,0,0,1-1.374-4.178v-.195a5.917,5.917,0,0,1,1.364-4.091,4.761,4.761,0,0,1,3.743-1.528,4.667,4.667,0,0,1,3.338,1.184,4.193,4.193,0,0,1,1.277,3.153h-2.779a2.036,2.036,0,0,0-.533-1.407,1.982,1.982,0,0,0-2.917.214,4.374,4.374,0,0,0-.528,2.449V16.6a4.43,4.43,0,0,0,.523,2.465A1.807,1.807,0,0,0,205.5,19.816ZM218.271,22a3.291,3.291,0,0,1-.3-.995,3.586,3.586,0,0,1-2.8,1.2,3.939,3.939,0,0,1-2.7-.943,3.034,3.034,0,0,1-1.072-2.379,3.135,3.135,0,0,1,1.307-2.707,6.451,6.451,0,0,1,3.779-.954h1.364v-.636a1.828,1.828,0,0,0-.395-1.23,1.553,1.553,0,0,0-1.246-.461,1.766,1.766,0,0,0-1.174.359,1.219,1.219,0,0,0-.426.984h-2.963a2.977,2.977,0,0,1,.595-1.784,3.931,3.931,0,0,1,1.682-1.287,6.129,6.129,0,0,1,2.44-.467,4.842,4.842,0,0,1,3.256,1.031,3.605,3.605,0,0,1,1.2,2.9v4.809a5.3,5.3,0,0,0,.441,2.389V22Zm-2.451-2.061a2.552,2.552,0,0,0,1.21-.292,1.919,1.919,0,0,0,.82-.784V16.955h-1.107q-2.225,0-2.369,1.538l-.01.174a1.186,1.186,0,0,0,.39.913A1.514,1.514,0,0,0,215.82,19.939Zm6.819-3.568a6.686,6.686,0,0,1,1.164-4.132,3.776,3.776,0,0,1,3.184-1.538,3.4,3.4,0,0,1,2.676,1.21V6.25h2.974V22H229.96l-.144-1.179a3.487,3.487,0,0,1-2.851,1.384,3.766,3.766,0,0,1-3.143-1.543A6.9,6.9,0,0,1,222.639,16.371Zm2.963.221a4.38,4.38,0,0,0,.543,2.393,1.77,1.77,0,0,0,1.579.832,1.983,1.983,0,0,0,1.938-1.16V14.27a1.954,1.954,0,0,0-1.917-1.16Q225.6,13.11,225.6,16.591Zm14.438,5.614a5.447,5.447,0,0,1-3.973-1.5,5.321,5.321,0,0,1-1.533-3.989v-.287a6.7,6.7,0,0,1,.646-2.989,4.741,4.741,0,0,1,1.83-2.03,5.137,5.137,0,0,1,2.7-.713,4.6,4.6,0,0,1,3.584,1.436,5.833,5.833,0,0,1,1.307,4.071v1.21h-7.065a2.753,2.753,0,0,0,.866,1.743,2.619,2.619,0,0,0,1.83.656,3.2,3.2,0,0,0,2.676-1.241l1.456,1.63a4.449,4.449,0,0,1-1.8,1.471A5.921,5.921,0,0,1,240.04,22.205Zm-.338-9.116a1.852,1.852,0,0,0-1.43.6,3.093,3.093,0,0,0-.7,1.71h4.122V15.16a2.206,2.206,0,0,0-.533-1.529A1.91,1.91,0,0,0,239.7,13.089Zm6.122,3.261a6.58,6.58,0,0,1,.636-2.943,4.654,4.654,0,0,1,1.83-2,5.34,5.34,0,0,1,2.774-.708,5.052,5.052,0,0,1,3.666,1.374,5.514,5.514,0,0,1,1.584,3.732l.021.759a5.8,5.8,0,0,1-1.425,4.1,5.524,5.524,0,0,1-7.655.005,5.9,5.9,0,0,1-1.43-4.184Zm2.963.21a4.147,4.147,0,0,0,.595,2.418,2.137,2.137,0,0,0,3.384.01,4.538,4.538,0,0,0,.6-2.644,4.106,4.106,0,0,0-.6-2.4,1.967,1.967,0,0,0-1.7-.852,1.934,1.934,0,0,0-1.682.847A4.614,4.614,0,0,0,248.786,16.56ZM124.9,50.205a5.447,5.447,0,0,1-3.973-1.5,5.321,5.321,0,0,1-1.533-3.989v-.287a6.7,6.7,0,0,1,.646-2.989,4.741,4.741,0,0,1,1.83-2.03,5.137,5.137,0,0,1,2.7-.713,4.6,4.6,0,0,1,3.584,1.436,5.833,5.833,0,0,1,1.307,4.071v1.21H122.4a2.753,2.753,0,0,0,.866,1.743,2.619,2.619,0,0,0,1.83.656,3.2,3.2,0,0,0,2.676-1.241l1.456,1.63a4.449,4.449,0,0,1-1.8,1.471A5.921,5.921,0,0,1,124.9,50.205Zm-.338-9.116a1.852,1.852,0,0,0-1.43.6,3.093,3.093,0,0,0-.7,1.71h4.122V43.16a2.206,2.206,0,0,0-.533-1.529A1.91,1.91,0,0,0,124.565,41.089Zm12.592,5.845a.955.955,0,0,0-.538-.856,6.115,6.115,0,0,0-1.728-.559q-3.958-.831-3.958-3.363a3.049,3.049,0,0,1,1.225-2.466,4.943,4.943,0,0,1,3.2-.99,5.32,5.32,0,0,1,3.379.995,3.135,3.135,0,0,1,1.266,2.584h-2.963a1.434,1.434,0,0,0-.41-1.051,1.736,1.736,0,0,0-1.282-.415,1.774,1.774,0,0,0-1.159.338,1.068,1.068,0,0,0-.41.861.913.913,0,0,0,.467.795,4.8,4.8,0,0,0,1.574.523,12.856,12.856,0,0,1,1.866.5,3.066,3.066,0,0,1,2.348,2.984,2.894,2.894,0,0,1-1.3,2.456,5.618,5.618,0,0,1-3.363.938,5.867,5.867,0,0,1-2.476-.5,4.155,4.155,0,0,1-1.7-1.364,3.169,3.169,0,0,1-.615-1.871h2.81a1.547,1.547,0,0,0,.584,1.21,2.318,2.318,0,0,0,1.456.42,2.146,2.146,0,0,0,1.287-.323A1,1,0,0,0,137.157,46.934Zm8.336-10.756v2.728h1.9v2.174h-1.9v5.537a1.322,1.322,0,0,0,.236.882,1.184,1.184,0,0,0,.9.267,4.726,4.726,0,0,0,.872-.072v2.246a6.1,6.1,0,0,1-1.794.267q-3.117,0-3.179-3.148V41.079h-1.62V38.905h1.62V36.178Zm9.782,5.506a8.051,8.051,0,0,0-1.066-.082A2.171,2.171,0,0,0,152,42.74V50h-2.963V38.905h2.8l.082,1.323a2.746,2.746,0,0,1,2.471-1.528,3.105,3.105,0,0,1,.923.133ZM162.823,50a3.291,3.291,0,0,1-.3-.995,3.586,3.586,0,0,1-2.8,1.2,3.939,3.939,0,0,1-2.7-.943,3.034,3.034,0,0,1-1.072-2.379,3.135,3.135,0,0,1,1.307-2.707,6.451,6.451,0,0,1,3.779-.954H162.4v-.636a1.828,1.828,0,0,0-.395-1.23,1.553,1.553,0,0,0-1.246-.461,1.766,1.766,0,0,0-1.174.359,1.219,1.219,0,0,0-.426.984H156.2a2.977,2.977,0,0,1,.595-1.784,3.931,3.931,0,0,1,1.682-1.287,6.129,6.129,0,0,1,2.44-.467,4.842,4.842,0,0,1,3.256,1.031,3.605,3.605,0,0,1,1.2,2.9v4.809a5.3,5.3,0,0,0,.441,2.389V50Zm-2.451-2.061a2.552,2.552,0,0,0,1.21-.292,1.919,1.919,0,0,0,.82-.784V44.955h-1.107q-2.225,0-2.369,1.538l-.01.174a1.186,1.186,0,0,0,.39.913A1.514,1.514,0,0,0,160.372,47.939ZM171.2,36.178v2.728h1.9v2.174h-1.9v5.537a1.322,1.322,0,0,0,.236.882,1.184,1.184,0,0,0,.9.267,4.726,4.726,0,0,0,.872-.072v2.246a6.1,6.1,0,0,1-1.794.267q-3.117,0-3.179-3.148V41.079h-1.62V38.905h1.62V36.178Zm8.654,14.027a5.447,5.447,0,0,1-3.973-1.5,5.321,5.321,0,0,1-1.533-3.989v-.287a6.7,6.7,0,0,1,.646-2.989,4.741,4.741,0,0,1,1.83-2.03,5.137,5.137,0,0,1,2.7-.713,4.6,4.6,0,0,1,3.584,1.436,5.833,5.833,0,0,1,1.307,4.071v1.21h-7.065a2.753,2.753,0,0,0,.866,1.743,2.619,2.619,0,0,0,1.83.656,3.2,3.2,0,0,0,2.676-1.241l1.456,1.63a4.449,4.449,0,0,1-1.8,1.471A5.921,5.921,0,0,1,179.854,50.205Zm-.338-9.116a1.852,1.852,0,0,0-1.43.6,3.093,3.093,0,0,0-.7,1.71h4.122V43.16a2.206,2.206,0,0,0-.533-1.529A1.91,1.91,0,0,0,179.516,41.089Zm.267-6.839h3.23l-2.84,3.179h-2.41Zm5.886,10.121a6.5,6.5,0,0,1,1.215-4.112A3.937,3.937,0,0,1,190.16,38.7,3.453,3.453,0,0,1,193,39.951l.123-1.046h2.687V49.631a4.742,4.742,0,0,1-.661,2.533,4.248,4.248,0,0,1-1.861,1.641,6.543,6.543,0,0,1-2.81.564,6.084,6.084,0,0,1-2.379-.487,4.222,4.222,0,0,1-1.753-1.256l1.313-1.8a3.471,3.471,0,0,0,2.687,1.241,2.541,2.541,0,0,0,1.835-.631,2.365,2.365,0,0,0,.656-1.789v-.595a3.428,3.428,0,0,1-2.7,1.159,3.927,3.927,0,0,1-3.235-1.564,6.5,6.5,0,0,1-1.236-4.148Zm2.963.221a4.049,4.049,0,0,0,.6,2.367,1.925,1.925,0,0,0,1.661.857,2.058,2.058,0,0,0,1.938-1.017V42.127a2.053,2.053,0,0,0-1.917-1.017,1.937,1.937,0,0,0-1.677.873A4.563,4.563,0,0,0,188.632,44.591ZM201.213,50H198.24V38.905h2.974Zm-3.148-13.966a1.459,1.459,0,0,1,.446-1.1,1.922,1.922,0,0,1,2.425,0,1.566,1.566,0,0,1-.005,2.2,1.9,1.9,0,0,1-2.41,0A1.455,1.455,0,0,1,198.065,36.034Zm10.2,11.782a1.944,1.944,0,0,0,1.333-.451,1.581,1.581,0,0,0,.533-1.2h2.779a3.8,3.8,0,0,1-.615,2.066,4.06,4.06,0,0,1-1.656,1.456,5.183,5.183,0,0,1-2.323.518,4.817,4.817,0,0,1-3.753-1.512,5.985,5.985,0,0,1-1.374-4.178v-.195a5.917,5.917,0,0,1,1.364-4.091A4.761,4.761,0,0,1,208.3,38.7a4.667,4.667,0,0,1,3.338,1.184,4.193,4.193,0,0,1,1.277,3.153h-2.779a2.036,2.036,0,0,0-.533-1.407,1.982,1.982,0,0,0-2.917.214,4.374,4.374,0,0,0-.528,2.449V44.6a4.43,4.43,0,0,0,.523,2.465A1.807,1.807,0,0,0,208.268,47.816Zm5.875-3.466a6.58,6.58,0,0,1,.636-2.943,4.654,4.654,0,0,1,1.83-2,5.34,5.34,0,0,1,2.774-.708,5.052,5.052,0,0,1,3.666,1.374,5.514,5.514,0,0,1,1.584,3.732l.021.759a5.8,5.8,0,0,1-1.425,4.1,5.524,5.524,0,0,1-7.655.005,5.9,5.9,0,0,1-1.43-4.184Zm2.963.21a4.147,4.147,0,0,0,.595,2.418,2.137,2.137,0,0,0,3.384.01,4.538,4.538,0,0,0,.6-2.644,4.106,4.106,0,0,0-.6-2.4,1.967,1.967,0,0,0-1.7-.852,1.934,1.934,0,0,0-1.682.847A4.614,4.614,0,0,0,217.107,44.56Z" transform="translate(219 4030)" fill="#fff"/>
    <path id="Trazado_137073" data-name="Trazado 137073" d="M56.377,16.74V22H53.3V7.07h5.824a6.738,6.738,0,0,1,2.958.615,4.534,4.534,0,0,1,1.964,1.748,4.875,4.875,0,0,1,.687,2.579,4.287,4.287,0,0,1-1.5,3.461,6.257,6.257,0,0,1-4.158,1.266Zm0-2.492h2.748a2.7,2.7,0,0,0,1.861-.574,2.088,2.088,0,0,0,.641-1.641,2.463,2.463,0,0,0-.646-1.774,2.413,2.413,0,0,0-1.784-.7h-2.82ZM69.779,22H66.805V6.25h2.974Zm8.87,0a3.291,3.291,0,0,1-.3-.995,3.586,3.586,0,0,1-2.8,1.2,3.939,3.939,0,0,1-2.7-.943,3.034,3.034,0,0,1-1.072-2.379,3.135,3.135,0,0,1,1.307-2.707,6.451,6.451,0,0,1,3.779-.954h1.364v-.636a1.828,1.828,0,0,0-.395-1.23,1.553,1.553,0,0,0-1.246-.461,1.766,1.766,0,0,0-1.174.359,1.219,1.219,0,0,0-.426.984H72.024a2.977,2.977,0,0,1,.595-1.784A3.931,3.931,0,0,1,74.3,11.167a6.129,6.129,0,0,1,2.44-.467A4.842,4.842,0,0,1,80,11.731a3.605,3.605,0,0,1,1.2,2.9v4.809a5.3,5.3,0,0,0,.441,2.389V22ZM76.2,19.939a2.552,2.552,0,0,0,1.21-.292,1.919,1.919,0,0,0,.82-.784V16.955H77.121q-2.225,0-2.369,1.538l-.01.174a1.186,1.186,0,0,0,.39.913A1.514,1.514,0,0,0,76.2,19.939Zm10.008-9.034.092,1.282A3.874,3.874,0,0,1,89.487,10.7a3.219,3.219,0,0,1,2.625,1.036,4.832,4.832,0,0,1,.882,3.1V22H90.03V14.9a1.923,1.923,0,0,0-.41-1.369,1.836,1.836,0,0,0-1.364-.426,2.039,2.039,0,0,0-1.876,1.066V22H83.417V10.905Zm13.8,5.465a6.686,6.686,0,0,1,1.164-4.132,3.776,3.776,0,0,1,3.184-1.538,3.4,3.4,0,0,1,2.676,1.21V6.25H110V22h-2.676l-.144-1.179a3.487,3.487,0,0,1-2.851,1.384,3.766,3.766,0,0,1-3.143-1.543A6.9,6.9,0,0,1,100.007,16.371Zm2.963.221a4.38,4.38,0,0,0,.543,2.393,1.77,1.77,0,0,0,1.579.832,1.983,1.983,0,0,0,1.938-1.16V14.27a1.954,1.954,0,0,0-1.917-1.16Q102.971,13.11,102.971,16.591Zm14.438,5.614a5.447,5.447,0,0,1-3.973-1.5,5.321,5.321,0,0,1-1.533-3.989v-.287a6.7,6.7,0,0,1,.646-2.989,4.741,4.741,0,0,1,1.83-2.03,5.137,5.137,0,0,1,2.7-.713,4.6,4.6,0,0,1,3.584,1.436,5.833,5.833,0,0,1,1.307,4.071v1.21h-7.065a2.753,2.753,0,0,0,.866,1.743,2.619,2.619,0,0,0,1.83.656,3.2,3.2,0,0,0,2.676-1.241l1.456,1.63a4.449,4.449,0,0,1-1.8,1.471A5.921,5.921,0,0,1,117.408,22.205Zm-.338-9.116a1.852,1.852,0,0,0-1.43.6,3.093,3.093,0,0,0-.7,1.71h4.122V15.16a2.206,2.206,0,0,0-.533-1.529A1.91,1.91,0,0,0,117.07,13.089Zm14.591-2.184.092,1.241a3.9,3.9,0,0,1,3.189-1.446,2.959,2.959,0,0,1,2.943,1.692,3.809,3.809,0,0,1,3.333-1.692,3.309,3.309,0,0,1,2.687,1.051,4.831,4.831,0,0,1,.882,3.163V22h-2.974V14.925a2.113,2.113,0,0,0-.369-1.379,1.636,1.636,0,0,0-1.3-.436,1.85,1.85,0,0,0-1.846,1.271l.01,7.619h-2.963V14.935a2.087,2.087,0,0,0-.379-1.395,1.652,1.652,0,0,0-1.292-.431,1.92,1.92,0,0,0-1.825,1.046V22h-2.963V10.905Zm20.508,11.3a5.447,5.447,0,0,1-3.973-1.5,5.321,5.321,0,0,1-1.533-3.989v-.287a6.7,6.7,0,0,1,.646-2.989,4.741,4.741,0,0,1,1.83-2.03,5.137,5.137,0,0,1,2.7-.713,4.6,4.6,0,0,1,3.584,1.436,5.833,5.833,0,0,1,1.307,4.071v1.21h-7.065a2.753,2.753,0,0,0,.866,1.743,2.619,2.619,0,0,0,1.83.656,3.2,3.2,0,0,0,2.676-1.241l1.456,1.63a4.449,4.449,0,0,1-1.8,1.471A5.921,5.921,0,0,1,152.169,22.205Zm-.338-9.116a1.852,1.852,0,0,0-1.43.6,3.093,3.093,0,0,0-.7,1.71h4.122V15.16a2.206,2.206,0,0,0-.533-1.529A1.91,1.91,0,0,0,151.831,13.089Zm12.817.595a8.051,8.051,0,0,0-1.066-.082,2.171,2.171,0,0,0-2.2,1.138V22h-2.963V10.905h2.8l.082,1.323a2.746,2.746,0,0,1,2.471-1.528,3.105,3.105,0,0,1,.923.133Zm5.845,6.132a1.944,1.944,0,0,0,1.333-.451,1.581,1.581,0,0,0,.533-1.2h2.779a3.8,3.8,0,0,1-.615,2.066,4.06,4.06,0,0,1-1.656,1.456,5.183,5.183,0,0,1-2.323.518,4.817,4.817,0,0,1-3.753-1.512,5.985,5.985,0,0,1-1.374-4.178v-.195a5.917,5.917,0,0,1,1.364-4.091,4.761,4.761,0,0,1,3.743-1.528,4.667,4.667,0,0,1,3.338,1.184,4.193,4.193,0,0,1,1.277,3.153h-2.779a2.036,2.036,0,0,0-.533-1.407,1.982,1.982,0,0,0-2.917.214,4.374,4.374,0,0,0-.528,2.449V16.6a4.43,4.43,0,0,0,.523,2.465A1.807,1.807,0,0,0,170.493,19.816ZM183.259,22a3.291,3.291,0,0,1-.3-.995,3.586,3.586,0,0,1-2.8,1.2,3.939,3.939,0,0,1-2.7-.943,3.034,3.034,0,0,1-1.072-2.379,3.135,3.135,0,0,1,1.307-2.707,6.451,6.451,0,0,1,3.779-.954h1.364v-.636a1.828,1.828,0,0,0-.395-1.23,1.553,1.553,0,0,0-1.246-.461,1.766,1.766,0,0,0-1.174.359,1.219,1.219,0,0,0-.426.984h-2.963a2.977,2.977,0,0,1,.595-1.784,3.931,3.931,0,0,1,1.682-1.287,6.129,6.129,0,0,1,2.44-.467,4.842,4.842,0,0,1,3.256,1.031,3.605,3.605,0,0,1,1.2,2.9v4.809a5.3,5.3,0,0,0,.441,2.389V22Zm-2.451-2.061a2.552,2.552,0,0,0,1.21-.292,1.919,1.919,0,0,0,.82-.784V16.955h-1.107q-2.225,0-2.369,1.538l-.01.174a1.186,1.186,0,0,0,.39.913A1.514,1.514,0,0,0,180.808,19.939Zm6.819-3.568a6.686,6.686,0,0,1,1.164-4.132,3.776,3.776,0,0,1,3.184-1.538,3.4,3.4,0,0,1,2.676,1.21V6.25h2.974V22h-2.676l-.144-1.179a3.487,3.487,0,0,1-2.851,1.384,3.766,3.766,0,0,1-3.143-1.543A6.9,6.9,0,0,1,187.627,16.371Zm2.963.221a4.38,4.38,0,0,0,.543,2.393,1.77,1.77,0,0,0,1.579.832,1.983,1.983,0,0,0,1.938-1.16V14.27a1.954,1.954,0,0,0-1.917-1.16Q190.59,13.11,190.59,16.591Zm14.438,5.614a5.447,5.447,0,0,1-3.973-1.5,5.321,5.321,0,0,1-1.533-3.989v-.287a6.7,6.7,0,0,1,.646-2.989,4.741,4.741,0,0,1,1.83-2.03,5.137,5.137,0,0,1,2.7-.713,4.6,4.6,0,0,1,3.584,1.436,5.833,5.833,0,0,1,1.307,4.071v1.21h-7.065a2.753,2.753,0,0,0,.866,1.743,2.619,2.619,0,0,0,1.83.656,3.2,3.2,0,0,0,2.676-1.241l1.456,1.63a4.449,4.449,0,0,1-1.8,1.471A5.921,5.921,0,0,1,205.028,22.205Zm-.338-9.116a1.852,1.852,0,0,0-1.43.6,3.093,3.093,0,0,0-.7,1.71h4.122V15.16a2.206,2.206,0,0,0-.533-1.529A1.91,1.91,0,0,0,204.689,13.089Zm6.122,3.261a6.58,6.58,0,0,1,.636-2.943,4.654,4.654,0,0,1,1.83-2,5.34,5.34,0,0,1,2.774-.708,5.052,5.052,0,0,1,3.666,1.374,5.514,5.514,0,0,1,1.584,3.732l.021.759a5.8,5.8,0,0,1-1.425,4.1,5.524,5.524,0,0,1-7.655.005,5.9,5.9,0,0,1-1.43-4.184Zm2.963.21a4.147,4.147,0,0,0,.595,2.418,2.137,2.137,0,0,0,3.384.01,4.538,4.538,0,0,0,.6-2.644,4.106,4.106,0,0,0-.6-2.4,1.967,1.967,0,0,0-1.7-.852,1.934,1.934,0,0,0-1.682.847A4.614,4.614,0,0,0,213.774,16.56Zm18.149-8.383v2.728h1.9v2.174h-1.9v5.537a1.322,1.322,0,0,0,.236.882,1.184,1.184,0,0,0,.9.267,4.726,4.726,0,0,0,.872-.072v2.246a6.1,6.1,0,0,1-1.794.267q-3.117,0-3.179-3.148V13.079h-1.62V10.905h1.62V8.178ZM241.9,22a3.291,3.291,0,0,1-.3-.995,3.586,3.586,0,0,1-2.8,1.2,3.939,3.939,0,0,1-2.7-.943,3.034,3.034,0,0,1-1.072-2.379,3.135,3.135,0,0,1,1.307-2.707,6.451,6.451,0,0,1,3.779-.954h1.364v-.636a1.828,1.828,0,0,0-.395-1.23,1.553,1.553,0,0,0-1.246-.461,1.766,1.766,0,0,0-1.174.359,1.219,1.219,0,0,0-.426.984h-2.963a2.977,2.977,0,0,1,.595-1.784,3.931,3.931,0,0,1,1.682-1.287,6.129,6.129,0,0,1,2.44-.467,4.842,4.842,0,0,1,3.256,1.031,3.605,3.605,0,0,1,1.2,2.9v4.809a5.3,5.3,0,0,0,.441,2.389V22Zm-2.451-2.061a2.552,2.552,0,0,0,1.21-.292,1.919,1.919,0,0,0,.82-.784V16.955h-1.107q-2.225,0-2.369,1.538l-.01.174a1.186,1.186,0,0,0,.39.913A1.514,1.514,0,0,0,239.45,19.939ZM240.578,6.25h3.23l-2.84,3.179h-2.41Zm10.767,13.566a1.944,1.944,0,0,0,1.333-.451,1.581,1.581,0,0,0,.533-1.2h2.779a3.8,3.8,0,0,1-.615,2.066,4.06,4.06,0,0,1-1.656,1.456,5.183,5.183,0,0,1-2.323.518,4.817,4.817,0,0,1-3.753-1.512,5.985,5.985,0,0,1-1.374-4.178v-.195a5.917,5.917,0,0,1,1.364-4.091,4.761,4.761,0,0,1,3.743-1.528,4.667,4.667,0,0,1,3.338,1.184,4.193,4.193,0,0,1,1.277,3.153h-2.779a2.036,2.036,0,0,0-.533-1.407,1.982,1.982,0,0,0-2.917.214,4.374,4.374,0,0,0-.528,2.449V16.6a4.43,4.43,0,0,0,.523,2.465A1.807,1.807,0,0,0,251.345,19.816Zm9.885-11.638v2.728h1.9v2.174h-1.9v5.537a1.322,1.322,0,0,0,.236.882,1.184,1.184,0,0,0,.9.267,4.726,4.726,0,0,0,.872-.072v2.246a6.1,6.1,0,0,1-1.794.267q-3.117,0-3.179-3.148V13.079h-1.62V10.905h1.62V8.178ZM267.9,22h-2.974V10.905H267.9ZM264.757,8.034a1.459,1.459,0,0,1,.446-1.1,1.922,1.922,0,0,1,2.425,0,1.451,1.451,0,0,1,.451,1.1,1.455,1.455,0,0,1-.456,1.107,1.9,1.9,0,0,1-2.41,0A1.455,1.455,0,0,1,264.757,8.034Zm10.2,11.782a1.944,1.944,0,0,0,1.333-.451,1.581,1.581,0,0,0,.533-1.2H279.6a3.8,3.8,0,0,1-.615,2.066,4.06,4.06,0,0,1-1.656,1.456,5.183,5.183,0,0,1-2.323.518,4.817,4.817,0,0,1-3.753-1.512,5.985,5.985,0,0,1-1.374-4.178v-.195a5.917,5.917,0,0,1,1.364-4.091A4.761,4.761,0,0,1,274.99,10.7a4.667,4.667,0,0,1,3.338,1.184,4.193,4.193,0,0,1,1.277,3.153h-2.779a2.036,2.036,0,0,0-.533-1.407,1.982,1.982,0,0,0-2.917.214,4.374,4.374,0,0,0-.528,2.449V16.6a4.43,4.43,0,0,0,.523,2.465A1.807,1.807,0,0,0,274.959,19.816Zm5.875-3.466a6.58,6.58,0,0,1,.636-2.943,4.654,4.654,0,0,1,1.83-2,5.34,5.34,0,0,1,2.774-.708,5.052,5.052,0,0,1,3.666,1.374,5.514,5.514,0,0,1,1.584,3.732l.021.759a5.8,5.8,0,0,1-1.425,4.1,5.524,5.524,0,0,1-7.655.005,5.9,5.9,0,0,1-1.43-4.184Zm2.963.21a4.147,4.147,0,0,0,.595,2.418,2.137,2.137,0,0,0,3.384.01,4.538,4.538,0,0,0,.6-2.644,4.106,4.106,0,0,0-.6-2.4,1.967,1.967,0,0,0-1.7-.852,1.934,1.934,0,0,0-1.682.847A4.614,4.614,0,0,0,283.8,16.56Z" transform="translate(629 4048)" fill="#fff"/>
    <path id="Trazado_137074" data-name="Trazado 137074" d="M118.665,16.74V22h-3.076V7.07h5.824a6.738,6.738,0,0,1,2.958.615,4.534,4.534,0,0,1,1.964,1.748,4.875,4.875,0,0,1,.687,2.579,4.287,4.287,0,0,1-1.5,3.461,6.257,6.257,0,0,1-4.158,1.266Zm0-2.492h2.748a2.7,2.7,0,0,0,1.861-.574,2.088,2.088,0,0,0,.641-1.641,2.463,2.463,0,0,0-.646-1.774,2.413,2.413,0,0,0-1.784-.7h-2.82Zm16.509-.564a8.051,8.051,0,0,0-1.066-.082,2.171,2.171,0,0,0-2.2,1.138V22h-2.963V10.905h2.8l.082,1.323a2.746,2.746,0,0,1,2.471-1.528,3.105,3.105,0,0,1,.923.133Zm6.532,8.521a5.447,5.447,0,0,1-3.973-1.5,5.321,5.321,0,0,1-1.533-3.989v-.287a6.7,6.7,0,0,1,.646-2.989,4.741,4.741,0,0,1,1.83-2.03,5.137,5.137,0,0,1,2.7-.713,4.6,4.6,0,0,1,3.584,1.436,5.833,5.833,0,0,1,1.307,4.071v1.21H139.2a2.753,2.753,0,0,0,.866,1.743,2.619,2.619,0,0,0,1.83.656,3.2,3.2,0,0,0,2.676-1.241l1.456,1.63a4.449,4.449,0,0,1-1.8,1.471A5.921,5.921,0,0,1,141.705,22.205Zm-.338-9.116a1.852,1.852,0,0,0-1.43.6,3.093,3.093,0,0,0-.7,1.71h4.122V15.16a2.206,2.206,0,0,0-.533-1.529A1.91,1.91,0,0,0,141.367,13.089Zm12.592,5.845a.955.955,0,0,0-.538-.856,6.115,6.115,0,0,0-1.728-.559q-3.958-.831-3.958-3.363a3.049,3.049,0,0,1,1.225-2.466,4.943,4.943,0,0,1,3.2-.99,5.32,5.32,0,0,1,3.379.995,3.135,3.135,0,0,1,1.266,2.584h-2.963a1.434,1.434,0,0,0-.41-1.051,1.736,1.736,0,0,0-1.282-.415,1.774,1.774,0,0,0-1.159.338,1.068,1.068,0,0,0-.41.861.913.913,0,0,0,.467.795,4.8,4.8,0,0,0,1.574.523,12.856,12.856,0,0,1,1.866.5,3.066,3.066,0,0,1,2.348,2.984,2.894,2.894,0,0,1-1.3,2.456,5.618,5.618,0,0,1-3.363.938,5.867,5.867,0,0,1-2.476-.5,4.155,4.155,0,0,1-1.7-1.364,3.169,3.169,0,0,1-.615-1.871h2.81a1.547,1.547,0,0,0,.584,1.21,2.318,2.318,0,0,0,1.456.42,2.146,2.146,0,0,0,1.287-.323A1,1,0,0,0,153.959,18.934Zm11.433,1.938a3.716,3.716,0,0,1-3.035,1.333,3.5,3.5,0,0,1-2.722-1.025,4.377,4.377,0,0,1-.959-3v-7.27h2.963v7.176q0,1.735,1.579,1.735a2.14,2.14,0,0,0,2.071-1.047V10.905h2.974V22h-2.789Zm15.094-4.317a6.654,6.654,0,0,1-1.164,4.107,3.731,3.731,0,0,1-3.143,1.543,3.456,3.456,0,0,1-2.717-1.169v5.229H170.5V10.905h2.748l.1,1.087a3.483,3.483,0,0,1,2.81-1.292,3.757,3.757,0,0,1,3.189,1.518,6.834,6.834,0,0,1,1.138,4.184Zm-2.963-.215a4.366,4.366,0,0,0-.549-2.389,1.787,1.787,0,0,0-1.594-.841,1.941,1.941,0,0,0-1.917,1.066v4.542a1.973,1.973,0,0,0,1.938,1.1Q177.522,19.816,177.522,16.34Zm11.443,4.532a3.716,3.716,0,0,1-3.035,1.333,3.5,3.5,0,0,1-2.722-1.025,4.377,4.377,0,0,1-.959-3v-7.27h2.963v7.176q0,1.735,1.579,1.735a2.14,2.14,0,0,0,2.071-1.047V10.905h2.974V22h-2.789Zm10.213,1.333a5.447,5.447,0,0,1-3.973-1.5,5.321,5.321,0,0,1-1.533-3.989v-.287a6.7,6.7,0,0,1,.646-2.989,4.741,4.741,0,0,1,1.83-2.03,5.137,5.137,0,0,1,2.7-.713,4.6,4.6,0,0,1,3.584,1.436,5.833,5.833,0,0,1,1.307,4.071v1.21h-7.065a2.753,2.753,0,0,0,.866,1.743,2.619,2.619,0,0,0,1.83.656,3.2,3.2,0,0,0,2.676-1.241l1.456,1.63a4.449,4.449,0,0,1-1.8,1.471A5.921,5.921,0,0,1,199.178,22.205Zm-.338-9.116a1.852,1.852,0,0,0-1.43.6,3.093,3.093,0,0,0-.7,1.71h4.122V15.16a2.206,2.206,0,0,0-.533-1.529A1.91,1.91,0,0,0,198.84,13.089Zm12.592,5.845a.955.955,0,0,0-.538-.856,6.115,6.115,0,0,0-1.728-.559q-3.958-.831-3.958-3.363a3.049,3.049,0,0,1,1.225-2.466,4.943,4.943,0,0,1,3.2-.99,5.32,5.32,0,0,1,3.379.995,3.135,3.135,0,0,1,1.266,2.584h-2.963a1.434,1.434,0,0,0-.41-1.051,1.736,1.736,0,0,0-1.282-.415,1.774,1.774,0,0,0-1.159.338,1.068,1.068,0,0,0-.41.861.913.913,0,0,0,.467.795,4.8,4.8,0,0,0,1.574.523,12.856,12.856,0,0,1,1.866.5,3.066,3.066,0,0,1,2.348,2.984,2.894,2.894,0,0,1-1.3,2.456,5.618,5.618,0,0,1-3.363.938,5.867,5.867,0,0,1-2.476-.5,4.155,4.155,0,0,1-1.7-1.364,3.169,3.169,0,0,1-.615-1.871h2.81a1.547,1.547,0,0,0,.584,1.21,2.318,2.318,0,0,0,1.456.42A2.146,2.146,0,0,0,211,19.78,1,1,0,0,0,211.432,18.934Zm8.336-10.756v2.728h1.9v2.174h-1.9v5.537A1.322,1.322,0,0,0,220,19.5a1.184,1.184,0,0,0,.9.267,4.726,4.726,0,0,0,.872-.072v2.246a6.1,6.1,0,0,1-1.794.267q-3.117,0-3.179-3.148V13.079h-1.62V10.905h1.62V8.178Zm2.779,8.172a6.58,6.58,0,0,1,.636-2.943,4.654,4.654,0,0,1,1.83-2,5.34,5.34,0,0,1,2.774-.708,5.052,5.052,0,0,1,3.666,1.374,5.514,5.514,0,0,1,1.584,3.732l.021.759a5.8,5.8,0,0,1-1.425,4.1,5.524,5.524,0,0,1-7.655.005,5.9,5.9,0,0,1-1.43-4.184Zm2.963.21a4.147,4.147,0,0,0,.595,2.418,2.137,2.137,0,0,0,3.384.01,4.538,4.538,0,0,0,.6-2.644,4.106,4.106,0,0,0-.6-2.4,1.967,1.967,0,0,0-1.7-.852,1.934,1.934,0,0,0-1.682.847A4.614,4.614,0,0,0,225.51,16.56Z" transform="translate(1036 4048)" fill="#fff"/>
    <path id="Trazado_137075" data-name="Trazado 137075" d="M48.314,15l2.739-9.089h2.772L49.617,18h-2.6L42.827,5.914h2.764Zm9.023,3H54.929V9.019h2.407ZM54.788,6.694a1.181,1.181,0,0,1,.361-.888,1.556,1.556,0,0,1,1.963,0,1.175,1.175,0,0,1,.365.888,1.178,1.178,0,0,1-.369.9,1.539,1.539,0,0,1-1.951,0A1.178,1.178,0,0,1,54.788,6.694Zm4.175,6.749a5.264,5.264,0,0,1,.984-3.329A3.187,3.187,0,0,1,62.6,8.853a2.8,2.8,0,0,1,2.3,1.013l.1-.847h2.175V17.7a3.839,3.839,0,0,1-.535,2.05,3.439,3.439,0,0,1-1.507,1.328,5.3,5.3,0,0,1-2.274.457,4.925,4.925,0,0,1-1.926-.394,3.418,3.418,0,0,1-1.419-1.017l1.063-1.461a2.81,2.81,0,0,0,2.175,1,2.057,2.057,0,0,0,1.486-.51,1.915,1.915,0,0,0,.531-1.448v-.481a2.775,2.775,0,0,1-2.183.938A3.179,3.179,0,0,1,59.964,16.9a5.262,5.262,0,0,1-1-3.358Zm2.4.179a3.278,3.278,0,0,0,.49,1.916,1.558,1.558,0,0,0,1.345.694,1.666,1.666,0,0,0,1.569-.823V11.626a1.662,1.662,0,0,0-1.552-.823,1.568,1.568,0,0,0-1.357.707A3.694,3.694,0,0,0,61.363,13.621ZM71.548,18H69.14V9.019h2.407ZM69,6.694a1.181,1.181,0,0,1,.361-.888,1.556,1.556,0,0,1,1.963,0,1.175,1.175,0,0,1,.365.888,1.178,1.178,0,0,1-.369.9,1.539,1.539,0,0,1-1.951,0A1.178,1.178,0,0,1,69,6.694ZM76.055,18H73.648V5.25h2.407Zm7.18,0a2.664,2.664,0,0,1-.241-.805,2.9,2.9,0,0,1-2.266.971,3.189,3.189,0,0,1-2.187-.764,2.456,2.456,0,0,1-.867-1.926,2.538,2.538,0,0,1,1.058-2.191,5.222,5.222,0,0,1,3.059-.772h1.1V12a1.48,1.48,0,0,0-.32-1,1.257,1.257,0,0,0-1.009-.374,1.429,1.429,0,0,0-.95.291.987.987,0,0,0-.344.8h-2.4a2.41,2.41,0,0,1,.481-1.444A3.182,3.182,0,0,1,79.716,9.23a4.961,4.961,0,0,1,1.976-.378,3.92,3.92,0,0,1,2.635.834,2.918,2.918,0,0,1,.975,2.345v3.893a4.294,4.294,0,0,0,.357,1.934V18Zm-1.984-1.668a2.066,2.066,0,0,0,.979-.237,1.554,1.554,0,0,0,.664-.635V13.916H82q-1.8,0-1.917,1.245l-.008.141a.96.96,0,0,0,.315.739A1.225,1.225,0,0,0,81.251,16.332Zm8.1-7.313.075,1.038a3.136,3.136,0,0,1,2.582-1.2,2.606,2.606,0,0,1,2.125.838,3.912,3.912,0,0,1,.714,2.507V18h-2.4V12.256a1.556,1.556,0,0,0-.332-1.108,1.486,1.486,0,0,0-1.1-.344,1.65,1.65,0,0,0-1.519.863V18h-2.4V9.019ZM100.4,16.232a1.573,1.573,0,0,0,1.079-.365,1.28,1.28,0,0,0,.432-.971h2.25a3.077,3.077,0,0,1-.5,1.673,3.286,3.286,0,0,1-1.341,1.179,4.2,4.2,0,0,1-1.88.419A3.9,3.9,0,0,1,97.4,16.942a4.845,4.845,0,0,1-1.112-3.383V13.4a4.79,4.79,0,0,1,1.1-3.312,3.854,3.854,0,0,1,3.03-1.237,3.778,3.778,0,0,1,2.7.959,3.4,3.4,0,0,1,1.033,2.552h-2.25a1.648,1.648,0,0,0-.432-1.139,1.6,1.6,0,0,0-2.362.173,3.541,3.541,0,0,0-.427,1.983v.249a3.586,3.586,0,0,0,.423,2A1.463,1.463,0,0,0,100.4,16.232ZM108.063,18h-2.407V9.019h2.407ZM105.514,6.694a1.181,1.181,0,0,1,.361-.888,1.556,1.556,0,0,1,1.963,0,1.175,1.175,0,0,1,.365.888,1.178,1.178,0,0,1-.369.9,1.539,1.539,0,0,1-1.951,0A1.178,1.178,0,0,1,105.514,6.694ZM115.243,18a2.664,2.664,0,0,1-.241-.805,2.9,2.9,0,0,1-2.266.971,3.189,3.189,0,0,1-2.187-.764,2.456,2.456,0,0,1-.867-1.926,2.538,2.538,0,0,1,1.058-2.191,5.222,5.222,0,0,1,3.059-.772h1.1V12a1.48,1.48,0,0,0-.32-1,1.257,1.257,0,0,0-1.009-.374,1.429,1.429,0,0,0-.95.291.987.987,0,0,0-.344.8h-2.4a2.41,2.41,0,0,1,.481-1.444,3.182,3.182,0,0,1,1.361-1.042,4.961,4.961,0,0,1,1.976-.378,3.92,3.92,0,0,1,2.635.834,2.918,2.918,0,0,1,.975,2.345v3.893a4.294,4.294,0,0,0,.357,1.934V18Zm-1.984-1.668a2.066,2.066,0,0,0,.979-.237,1.554,1.554,0,0,0,.664-.635V13.916h-.9q-1.8,0-1.917,1.245l-.008.141a.96.96,0,0,0,.315.739A1.225,1.225,0,0,0,113.259,16.332Z" transform="translate(219 4179)" fill="#12263f"/>
    <path id="Trazado_137076" data-name="Trazado 137076" d="M26.408,19.446a8.826,8.826,0,0,1-1.682,5.776,5.813,5.813,0,0,1-4.742,2.031,5.844,5.844,0,0,1-4.773-2.044,8.812,8.812,0,0,1-1.688-5.764V16.069A8.826,8.826,0,0,1,15.2,10.293a5.827,5.827,0,0,1,4.754-2.031,5.83,5.83,0,0,1,4.761,2.044,8.834,8.834,0,0,1,1.688,5.776ZM22.13,15.523a6.593,6.593,0,0,0-.521-2.977,1.74,1.74,0,0,0-1.65-.984,1.7,1.7,0,0,0-1.606.914,6.21,6.21,0,0,0-.54,2.768v4.723a6.642,6.642,0,0,0,.521,3.028,1.746,1.746,0,0,0,1.65.958A1.723,1.723,0,0,0,21.6,23.02a6.341,6.341,0,0,0,.533-2.926ZM38.113,27H33.822V13.34l-4.215,1.231v-3.25L37.72,8.516h.394Z" transform="translate(219 4134)" fill="#0c487b"/>
    <path id="Trazado_137077" data-name="Trazado 137077" d="M26.408,19.446a8.826,8.826,0,0,1-1.682,5.776,5.813,5.813,0,0,1-4.742,2.031,5.844,5.844,0,0,1-4.773-2.044,8.812,8.812,0,0,1-1.688-5.764V16.069A8.826,8.826,0,0,1,15.2,10.293a5.827,5.827,0,0,1,4.754-2.031,5.83,5.83,0,0,1,4.761,2.044,8.834,8.834,0,0,1,1.688,5.776ZM22.13,15.523a6.593,6.593,0,0,0-.521-2.977,1.74,1.74,0,0,0-1.65-.984,1.7,1.7,0,0,0-1.606.914,6.21,6.21,0,0,0-.54,2.768v4.723a6.642,6.642,0,0,0,.521,3.028,1.746,1.746,0,0,0,1.65.958A1.723,1.723,0,0,0,21.6,23.02a6.341,6.341,0,0,0,.533-2.926ZM41.528,27H28.63V24.207l5.941-6.246q2.2-2.5,2.2-3.974a2.764,2.764,0,0,0-.521-1.815,1.858,1.858,0,0,0-1.511-.622,1.882,1.882,0,0,0-1.587.832,3.417,3.417,0,0,0-.609,2.076H28.249a6.07,6.07,0,0,1,.851-3.142,5.965,5.965,0,0,1,2.361-2.253,7.014,7.014,0,0,1,3.377-.812,6.9,6.9,0,0,1,4.615,1.384,4.94,4.94,0,0,1,1.619,3.974,5.77,5.77,0,0,1-.406,2.126A9.325,9.325,0,0,1,39.4,17.9a31.819,31.819,0,0,1-2.761,3.041L34.254,23.7h7.274Z" transform="translate(397 4134)" fill="#0c487b"/>
    <path id="Trazado_137078" data-name="Trazado 137078" d="M26.408,19.446a8.826,8.826,0,0,1-1.682,5.776,5.813,5.813,0,0,1-4.742,2.031,5.844,5.844,0,0,1-4.773-2.044,8.812,8.812,0,0,1-1.688-5.764V16.069A8.826,8.826,0,0,1,15.2,10.293a5.827,5.827,0,0,1,4.754-2.031,5.83,5.83,0,0,1,4.761,2.044,8.834,8.834,0,0,1,1.688,5.776ZM22.13,15.523a6.593,6.593,0,0,0-.521-2.977,1.74,1.74,0,0,0-1.65-.984,1.7,1.7,0,0,0-1.606.914,6.21,6.21,0,0,0-.54,2.768v4.723a6.642,6.642,0,0,0,.521,3.028,1.746,1.746,0,0,0,1.65.958A1.723,1.723,0,0,0,21.6,23.02a6.341,6.341,0,0,0,.533-2.926Zm10.41.444h2.019a2.1,2.1,0,0,0,2.4-2.349,2.031,2.031,0,0,0-.571-1.492,2.166,2.166,0,0,0-1.612-.578,2.319,2.319,0,0,0-1.479.5,1.511,1.511,0,0,0-.628,1.231H28.389a4.38,4.38,0,0,1,.813-2.6A5.366,5.366,0,0,1,31.455,8.89a7.7,7.7,0,0,1,3.167-.641,7.57,7.57,0,0,1,4.85,1.409,4.685,4.685,0,0,1,1.765,3.872,3.9,3.9,0,0,1-.73,2.253A5.2,5.2,0,0,1,38.38,17.5a4.97,4.97,0,0,1,2.311,1.619,4.263,4.263,0,0,1,.838,2.685,4.77,4.77,0,0,1-1.9,3.961,7.9,7.9,0,0,1-5,1.485,8.2,8.2,0,0,1-3.371-.692A5.281,5.281,0,0,1,28.9,24.645a4.984,4.984,0,0,1-.8-2.787h4.3a1.926,1.926,0,0,0,.686,1.473,2.42,2.42,0,0,0,1.688.622,2.535,2.535,0,0,0,1.8-.628,2.1,2.1,0,0,0,.673-1.606,2.456,2.456,0,0,0-.7-1.98,2.919,2.919,0,0,0-1.93-.584H32.54Z" transform="translate(581 4134)" fill="#29c4bb"/>
    <path id="Trazado_137079" data-name="Trazado 137079" d="M26.408,19.446a8.826,8.826,0,0,1-1.682,5.776,5.813,5.813,0,0,1-4.742,2.031,5.844,5.844,0,0,1-4.773-2.044,8.812,8.812,0,0,1-1.688-5.764V16.069A8.826,8.826,0,0,1,15.2,10.293a5.827,5.827,0,0,1,4.754-2.031,5.83,5.83,0,0,1,4.761,2.044,8.834,8.834,0,0,1,1.688,5.776ZM22.13,15.523a6.593,6.593,0,0,0-.521-2.977,1.74,1.74,0,0,0-1.65-.984,1.7,1.7,0,0,0-1.606.914,6.21,6.21,0,0,0-.54,2.768v4.723a6.642,6.642,0,0,0,.521,3.028,1.746,1.746,0,0,0,1.65.958A1.723,1.723,0,0,0,21.6,23.02a6.341,6.341,0,0,0,.533-2.926Zm17.8,4.253h1.879v3.3H39.929V27H35.65V23.077H28.5l-.254-2.615,7.4-11.908V8.516h4.278Zm-7.6,0H35.65V14.089l-.267.432Z" transform="translate(735 4134)" fill="#29c4bb"/>
    <path id="Trazado_137080" data-name="Trazado 137080" d="M26.408,19.446a8.826,8.826,0,0,1-1.682,5.776,5.813,5.813,0,0,1-4.742,2.031,5.844,5.844,0,0,1-4.773-2.044,8.812,8.812,0,0,1-1.688-5.764V16.069A8.826,8.826,0,0,1,15.2,10.293a5.827,5.827,0,0,1,4.754-2.031,5.83,5.83,0,0,1,4.761,2.044,8.834,8.834,0,0,1,1.688,5.776ZM22.13,15.523a6.593,6.593,0,0,0-.521-2.977,1.74,1.74,0,0,0-1.65-.984,1.7,1.7,0,0,0-1.606.914,6.21,6.21,0,0,0-.54,2.768v4.723a6.642,6.642,0,0,0,.521,3.028,1.746,1.746,0,0,0,1.65.958A1.723,1.723,0,0,0,21.6,23.02a6.341,6.341,0,0,0,.533-2.926Zm6.754,2.447,1.13-9.455h10.8v3.326H33.492l-.419,3.672a5.046,5.046,0,0,1,1.2-.472,6.036,6.036,0,0,1,5.688,1.427,6.571,6.571,0,0,1,1.479,4.577,6.56,6.56,0,0,1-.793,3.218,5.454,5.454,0,0,1-2.228,2.215,7.034,7.034,0,0,1-3.39.774,7.569,7.569,0,0,1-3.263-.717,5.853,5.853,0,0,1-2.387-1.966,4.778,4.778,0,0,1-.851-2.822h4.291a2.427,2.427,0,0,0,.647,1.609,2.055,2.055,0,0,0,1.536.6q2.158,0,2.158-3.193,0-2.952-2.641-2.952a2.635,2.635,0,0,0-2.234.963Z" transform="translate(889 4134)" fill="#29c4bb"/>
    <path id="Trazado_137081" data-name="Trazado 137081" d="M26.408,19.446a8.826,8.826,0,0,1-1.682,5.776,5.813,5.813,0,0,1-4.742,2.031,5.844,5.844,0,0,1-4.773-2.044,8.812,8.812,0,0,1-1.688-5.764V16.069A8.826,8.826,0,0,1,15.2,10.293a5.827,5.827,0,0,1,4.754-2.031,5.83,5.83,0,0,1,4.761,2.044,8.834,8.834,0,0,1,1.688,5.776ZM22.13,15.523a6.593,6.593,0,0,0-.521-2.977,1.74,1.74,0,0,0-1.65-.984,1.7,1.7,0,0,0-1.606.914,6.21,6.21,0,0,0-.54,2.768v4.723a6.642,6.642,0,0,0,.521,3.028,1.746,1.746,0,0,0,1.65.958A1.723,1.723,0,0,0,21.6,23.02a6.341,6.341,0,0,0,.533-2.926ZM38.964,8.249v3.364h-.19a6.423,6.423,0,0,0-3.942,1.149,4.851,4.851,0,0,0-1.9,3.193,5,5,0,0,1,3.656-1.422,4.667,4.667,0,0,1,3.821,1.752,7.066,7.066,0,0,1,1.422,4.6A6.471,6.471,0,0,1,41,24.118a5.933,5.933,0,0,1-2.323,2.3,6.676,6.676,0,0,1-3.307.832,6.9,6.9,0,0,1-3.517-.9A6.153,6.153,0,0,1,29.442,23.8a8.424,8.424,0,0,1-.889-3.834V18.253a10.671,10.671,0,0,1,1.225-5.135,8.881,8.881,0,0,1,3.5-3.574,10,10,0,0,1,5.04-1.295ZM35.1,17.809a2.448,2.448,0,0,0-1.422.394,2.5,2.5,0,0,0-.851.965v1.282q0,3.5,2.425,3.5a1.967,1.967,0,0,0,1.631-.876,3.57,3.57,0,0,0,.654-2.2,3.5,3.5,0,0,0-.667-2.215A2.132,2.132,0,0,0,35.1,17.809Z" transform="translate(1038 4134)" fill="#86a6aa"/>
    <path id="Trazado_137082" data-name="Trazado 137082" d="M26.408,19.446a8.826,8.826,0,0,1-1.682,5.776,5.813,5.813,0,0,1-4.742,2.031,5.844,5.844,0,0,1-4.773-2.044,8.812,8.812,0,0,1-1.688-5.764V16.069A8.826,8.826,0,0,1,15.2,10.293a5.827,5.827,0,0,1,4.754-2.031,5.83,5.83,0,0,1,4.761,2.044,8.834,8.834,0,0,1,1.688,5.776ZM22.13,15.523a6.593,6.593,0,0,0-.521-2.977,1.74,1.74,0,0,0-1.65-.984,1.7,1.7,0,0,0-1.606.914,6.21,6.21,0,0,0-.54,2.768v4.723a6.642,6.642,0,0,0,.521,3.028,1.746,1.746,0,0,0,1.65.958A1.723,1.723,0,0,0,21.6,23.02a6.341,6.341,0,0,0,.533-2.926ZM41.478,10.8,34.571,27h-4.52l6.919-15.184H28.16v-3.3H41.478Z" transform="translate(1220 4134)" fill="#86a6aa"/>
    <path id="Trazado_137083" data-name="Trazado 137083" d="M48.808,18h-2.49V5.914h2.49Zm4.358-8.981.075,1.038a3.136,3.136,0,0,1,2.582-1.2,2.606,2.606,0,0,1,2.125.838,3.912,3.912,0,0,1,.714,2.507V18h-2.4V12.256a1.556,1.556,0,0,0-.332-1.108,1.486,1.486,0,0,0-1.1-.344,1.65,1.65,0,0,0-1.519.863V18h-2.4V9.019ZM63.84,15.07l1.668-6.051h2.507L64.986,18H62.695l-3.03-8.981h2.507Zm9.363,3.1a4.409,4.409,0,0,1-3.217-1.212,4.308,4.308,0,0,1-1.241-3.229v-.232a5.426,5.426,0,0,1,.523-2.42,3.838,3.838,0,0,1,1.482-1.644,4.159,4.159,0,0,1,2.187-.577,3.727,3.727,0,0,1,2.9,1.162,4.722,4.722,0,0,1,1.058,3.3v.979H71.178a2.229,2.229,0,0,0,.7,1.411,2.12,2.12,0,0,0,1.482.531,2.589,2.589,0,0,0,2.167-1l1.179,1.32a3.6,3.6,0,0,1-1.461,1.191A4.793,4.793,0,0,1,73.2,18.166Zm-.274-7.379a1.5,1.5,0,0,0-1.158.484,2.5,2.5,0,0,0-.569,1.384H74.54v-.192a1.786,1.786,0,0,0-.432-1.238A1.547,1.547,0,0,0,72.93,10.787Zm10.376.481a6.517,6.517,0,0,0-.863-.066,1.757,1.757,0,0,0-1.785.921V18h-2.4V9.019h2.266l.066,1.071a2.223,2.223,0,0,1,2-1.237,2.514,2.514,0,0,1,.747.108Zm6.018,4.25a.773.773,0,0,0-.436-.693,4.95,4.95,0,0,0-1.4-.452q-3.2-.672-3.2-2.723a2.468,2.468,0,0,1,.992-2,4,4,0,0,1,2.594-.8,4.307,4.307,0,0,1,2.735.805,2.538,2.538,0,0,1,1.025,2.092h-2.4A1.161,1.161,0,0,0,88.9,10.9a1.405,1.405,0,0,0-1.038-.336,1.436,1.436,0,0,0-.938.274.865.865,0,0,0-.332.7.739.739,0,0,0,.378.643,3.885,3.885,0,0,0,1.274.423,10.407,10.407,0,0,1,1.511.4,2.482,2.482,0,0,1,1.9,2.416A2.343,2.343,0,0,1,90.6,17.406a4.548,4.548,0,0,1-2.723.76,4.75,4.75,0,0,1-2-.4,3.363,3.363,0,0,1-1.374-1.1,2.565,2.565,0,0,1-.5-1.515h2.274a1.252,1.252,0,0,0,.473.979,1.877,1.877,0,0,0,1.179.34,1.737,1.737,0,0,0,1.042-.261A.814.814,0,0,0,89.324,15.518ZM95.732,18H93.325V9.019h2.407ZM93.184,6.694a1.181,1.181,0,0,1,.361-.888,1.556,1.556,0,0,1,1.963,0,1.175,1.175,0,0,1,.365.888,1.178,1.178,0,0,1-.369.9,1.539,1.539,0,0,1-1.951,0A1.178,1.178,0,0,1,93.184,6.694Zm4.15,6.732a5.326,5.326,0,0,1,.515-2.382A3.768,3.768,0,0,1,99.33,9.425a4.323,4.323,0,0,1,2.245-.573,4.09,4.09,0,0,1,2.968,1.112,4.464,4.464,0,0,1,1.282,3.021l.017.614a4.694,4.694,0,0,1-1.154,3.316,4.472,4.472,0,0,1-6.2,0,4.777,4.777,0,0,1-1.158-3.387Zm2.4.17a3.357,3.357,0,0,0,.481,1.958,1.73,1.73,0,0,0,2.739.008,3.674,3.674,0,0,0,.49-2.141,3.324,3.324,0,0,0-.49-1.945,1.592,1.592,0,0,0-1.378-.69,1.566,1.566,0,0,0-1.361.686A3.736,3.736,0,0,0,99.733,13.6Zm2.316-8.347h2.615l-2.3,2.573h-1.951Zm7.479,3.769.075,1.038a3.136,3.136,0,0,1,2.582-1.2,2.606,2.606,0,0,1,2.125.838,3.912,3.912,0,0,1,.714,2.507V18h-2.4V12.256a1.556,1.556,0,0,0-.332-1.108,1.486,1.486,0,0,0-1.1-.344,1.65,1.65,0,0,0-1.519.863V18h-2.4V9.019Z" transform="translate(1040 4179)" fill="#12263f"/>
    <path id="Trazado_137084" data-name="Trazado 137084" d="M60.563,15.51H56.2L55.367,18H52.719l4.5-12.086h2.308L64.049,18H61.4Zm-3.694-2.017h3.021L58.372,8.969ZM66.83,9.019l.075,1.038a3.136,3.136,0,0,1,2.582-1.2,2.606,2.606,0,0,1,2.125.838,3.912,3.912,0,0,1,.714,2.507V18h-2.4V12.256a1.556,1.556,0,0,0-.332-1.108,1.486,1.486,0,0,0-1.1-.344,1.65,1.65,0,0,0-1.519.863V18h-2.4V9.019ZM79.348,18a2.664,2.664,0,0,1-.241-.805,2.9,2.9,0,0,1-2.266.971,3.189,3.189,0,0,1-2.187-.764,2.456,2.456,0,0,1-.867-1.926,2.538,2.538,0,0,1,1.058-2.191,5.222,5.222,0,0,1,3.059-.772h1.1V12a1.48,1.48,0,0,0-.32-1,1.257,1.257,0,0,0-1.009-.374,1.429,1.429,0,0,0-.95.291.987.987,0,0,0-.344.8h-2.4a2.41,2.41,0,0,1,.481-1.444A3.182,3.182,0,0,1,75.828,9.23,4.961,4.961,0,0,1,77.8,8.853a3.92,3.92,0,0,1,2.635.834,2.918,2.918,0,0,1,.975,2.345v3.893a4.294,4.294,0,0,0,.357,1.934V18Zm-1.984-1.668a2.066,2.066,0,0,0,.979-.237,1.554,1.554,0,0,0,.664-.635V13.916h-.9q-1.8,0-1.917,1.245l-.008.141a.96.96,0,0,0,.315.739A1.225,1.225,0,0,0,77.364,16.332ZM78.277,5.25h2.615l-2.3,2.573H76.642ZM85.789,18H83.382V5.25h2.407ZM90.3,18H87.889V9.019H90.3ZM87.748,6.694a1.181,1.181,0,0,1,.361-.888,1.556,1.556,0,0,1,1.963,0,1.175,1.175,0,0,1,.365.888,1.178,1.178,0,0,1-.369.9,1.539,1.539,0,0,1-1.951,0A1.178,1.178,0,0,1,87.748,6.694Zm9.388,8.824a.773.773,0,0,0-.436-.693,4.95,4.95,0,0,0-1.4-.452q-3.2-.672-3.2-2.723a2.468,2.468,0,0,1,.992-2,4,4,0,0,1,2.594-.8,4.307,4.307,0,0,1,2.735.805,2.538,2.538,0,0,1,1.025,2.092h-2.4a1.161,1.161,0,0,0-.332-.851,1.405,1.405,0,0,0-1.038-.336,1.436,1.436,0,0,0-.938.274.865.865,0,0,0-.332.7.739.739,0,0,0,.378.643,3.885,3.885,0,0,0,1.274.423,10.407,10.407,0,0,1,1.511.4,2.482,2.482,0,0,1,1.9,2.416,2.343,2.343,0,0,1-1.054,1.988,4.548,4.548,0,0,1-2.723.76,4.75,4.75,0,0,1-2-.4,3.363,3.363,0,0,1-1.374-1.1,2.565,2.565,0,0,1-.5-1.515H94.09a1.252,1.252,0,0,0,.473.979,1.877,1.877,0,0,0,1.179.34,1.737,1.737,0,0,0,1.042-.261A.814.814,0,0,0,97.136,15.518ZM103.544,18h-2.407V9.019h2.407ZM101,6.694a1.181,1.181,0,0,1,.361-.888,1.556,1.556,0,0,1,1.963,0,1.175,1.175,0,0,1,.365.888,1.178,1.178,0,0,1-.369.9,1.539,1.539,0,0,1-1.951,0A1.178,1.178,0,0,1,101,6.694Zm9.388,8.824a.773.773,0,0,0-.436-.693,4.95,4.95,0,0,0-1.4-.452q-3.2-.672-3.2-2.723a2.468,2.468,0,0,1,.992-2,4,4,0,0,1,2.594-.8,4.307,4.307,0,0,1,2.735.805,2.538,2.538,0,0,1,1.025,2.092h-2.4a1.161,1.161,0,0,0-.332-.851,1.405,1.405,0,0,0-1.038-.336,1.436,1.436,0,0,0-.938.274.865.865,0,0,0-.332.7.739.739,0,0,0,.378.643,3.885,3.885,0,0,0,1.274.423,10.407,10.407,0,0,1,1.511.4,2.482,2.482,0,0,1,1.9,2.416,2.343,2.343,0,0,1-1.054,1.988,4.548,4.548,0,0,1-2.723.76,4.75,4.75,0,0,1-2-.4,3.363,3.363,0,0,1-1.374-1.1,2.565,2.565,0,0,1-.5-1.515h2.274a1.252,1.252,0,0,0,.473.979,1.877,1.877,0,0,0,1.179.34,1.737,1.737,0,0,0,1.042-.261A.814.814,0,0,0,110.384,15.518Z" transform="translate(398 4179)" fill="#12263f"/>
    <path id="Trazado_137085" data-name="Trazado 137085" d="M42.144,14.829a1.278,1.278,0,0,0-.5-1.083,6.533,6.533,0,0,0-1.793-.8,12.71,12.71,0,0,1-2.05-.826,3.35,3.35,0,0,1-2.059-3A2.919,2.919,0,0,1,36.3,7.379a3.6,3.6,0,0,1,1.585-1.2,5.967,5.967,0,0,1,2.32-.432,5.432,5.432,0,0,1,2.308.469,3.674,3.674,0,0,1,1.573,1.324,3.464,3.464,0,0,1,.56,1.942h-2.49a1.63,1.63,0,0,0-.523-1.291,2.15,2.15,0,0,0-1.469-.461,2.3,2.3,0,0,0-1.419.386,1.217,1.217,0,0,0-.506,1.017,1.166,1.166,0,0,0,.594.988,6.705,6.705,0,0,0,1.747.747,7.55,7.55,0,0,1,3.1,1.585,3.157,3.157,0,0,1,.971,2.357,2.909,2.909,0,0,1-1.187,2.461,5.2,5.2,0,0,1-3.2.892,6.171,6.171,0,0,1-2.54-.51,4.019,4.019,0,0,1-1.747-1.4,3.582,3.582,0,0,1-.6-2.059h2.5q0,2,2.391,2a2.326,2.326,0,0,0,1.386-.361A1.175,1.175,0,0,0,42.144,14.829Zm8.16,3.337a4.409,4.409,0,0,1-3.217-1.212,4.308,4.308,0,0,1-1.241-3.229v-.232a5.426,5.426,0,0,1,.523-2.42A3.838,3.838,0,0,1,47.85,9.429a4.159,4.159,0,0,1,2.187-.577,3.727,3.727,0,0,1,2.9,1.162A4.722,4.722,0,0,1,54,13.31v.979H48.278a2.229,2.229,0,0,0,.7,1.411,2.12,2.12,0,0,0,1.482.531,2.589,2.589,0,0,0,2.167-1l1.179,1.32a3.6,3.6,0,0,1-1.461,1.191A4.793,4.793,0,0,1,50.3,18.166Zm-.274-7.379a1.5,1.5,0,0,0-1.158.484,2.5,2.5,0,0,0-.569,1.384H51.64v-.192a1.786,1.786,0,0,0-.432-1.238A1.547,1.547,0,0,0,50.029,10.787Zm4.98,2.656a5.264,5.264,0,0,1,.984-3.329,3.187,3.187,0,0,1,2.652-1.262,2.8,2.8,0,0,1,2.3,1.013l.1-.847h2.175V17.7a3.839,3.839,0,0,1-.535,2.05,3.439,3.439,0,0,1-1.507,1.328,5.3,5.3,0,0,1-2.274.457,4.925,4.925,0,0,1-1.926-.394,3.418,3.418,0,0,1-1.419-1.017l1.063-1.461a2.81,2.81,0,0,0,2.175,1,2.057,2.057,0,0,0,1.486-.51,1.915,1.915,0,0,0,.531-1.448v-.481a2.775,2.775,0,0,1-2.183.938A3.179,3.179,0,0,1,56.01,16.9a5.262,5.262,0,0,1-1-3.358Zm2.4.179a3.278,3.278,0,0,0,.49,1.916,1.558,1.558,0,0,0,1.345.694,1.666,1.666,0,0,0,1.569-.823V11.626A1.662,1.662,0,0,0,59.26,10.8a1.568,1.568,0,0,0-1.357.707A3.694,3.694,0,0,0,57.409,13.621Zm13.032,3.465a3.008,3.008,0,0,1-2.457,1.079,2.837,2.837,0,0,1-2.2-.83A3.543,3.543,0,0,1,65,14.9V9.019h2.4v5.809q0,1.4,1.278,1.4a1.732,1.732,0,0,0,1.677-.848V9.019h2.407V18H70.507ZM77.106,18H74.7V9.019h2.407ZM74.558,6.694a1.181,1.181,0,0,1,.361-.888,1.556,1.556,0,0,1,1.963,0,1.175,1.175,0,0,1,.365.888,1.178,1.178,0,0,1-.369.9,1.539,1.539,0,0,1-1.951,0A1.178,1.178,0,0,1,74.558,6.694Zm6.773,2.324.075,1a3.156,3.156,0,0,1,2.582-1.17,2.4,2.4,0,0,1,2.382,1.37,3.084,3.084,0,0,1,2.7-1.37,2.679,2.679,0,0,1,2.175.851,3.911,3.911,0,0,1,.714,2.561V18H89.549V12.272a1.71,1.71,0,0,0-.3-1.116A1.324,1.324,0,0,0,88.2,10.8,1.5,1.5,0,0,0,86.7,11.833L86.71,18h-2.4V12.281A1.689,1.689,0,0,0,84,11.152a1.337,1.337,0,0,0-1.046-.349,1.555,1.555,0,0,0-1.478.847V18h-2.4V9.019Zm15,8.981H93.924V9.019h2.407ZM93.783,6.694a1.181,1.181,0,0,1,.361-.888,1.556,1.556,0,0,1,1.963,0,1.175,1.175,0,0,1,.365.888,1.178,1.178,0,0,1-.369.9,1.539,1.539,0,0,1-1.951,0A1.178,1.178,0,0,1,93.783,6.694Zm8.658,11.472a4.409,4.409,0,0,1-3.217-1.212,4.308,4.308,0,0,1-1.241-3.229v-.232a5.426,5.426,0,0,1,.523-2.42,3.838,3.838,0,0,1,1.482-1.644,4.159,4.159,0,0,1,2.187-.577,3.727,3.727,0,0,1,2.9,1.162,4.722,4.722,0,0,1,1.058,3.3v.979h-5.719a2.229,2.229,0,0,0,.7,1.411,2.12,2.12,0,0,0,1.482.531,2.589,2.589,0,0,0,2.167-1l1.179,1.32a3.6,3.6,0,0,1-1.461,1.191A4.793,4.793,0,0,1,102.44,18.166Zm-.274-7.379a1.5,1.5,0,0,0-1.158.484,2.5,2.5,0,0,0-.569,1.384h3.337v-.192a1.786,1.786,0,0,0-.432-1.238A1.547,1.547,0,0,0,102.167,10.787ZM109.7,9.019l.075,1.038a3.136,3.136,0,0,1,2.582-1.2,2.606,2.606,0,0,1,2.125.838A3.912,3.912,0,0,1,115.2,12.2V18h-2.4V12.256a1.556,1.556,0,0,0-.332-1.108,1.486,1.486,0,0,0-1.1-.344,1.65,1.65,0,0,0-1.519.863V18h-2.4V9.019Zm10.185-2.208V9.019h1.536v1.76h-1.536v4.482a1.07,1.07,0,0,0,.191.714.959.959,0,0,0,.73.216,3.826,3.826,0,0,0,.706-.058V17.95a4.938,4.938,0,0,1-1.453.216,2.29,2.29,0,0,1-2.573-2.548V10.778h-1.312V9.019h1.312V6.811Zm2.25,6.616a5.326,5.326,0,0,1,.515-2.382,3.768,3.768,0,0,1,1.482-1.619,4.323,4.323,0,0,1,2.245-.573,4.09,4.09,0,0,1,2.968,1.112,4.464,4.464,0,0,1,1.282,3.021l.017.614a4.694,4.694,0,0,1-1.154,3.316,4.472,4.472,0,0,1-6.2,0,4.777,4.777,0,0,1-1.158-3.387Zm2.4.17a3.357,3.357,0,0,0,.481,1.958,1.73,1.73,0,0,0,2.739.008,3.674,3.674,0,0,0,.49-2.141,3.324,3.324,0,0,0-.49-1.945,1.592,1.592,0,0,0-1.378-.69,1.566,1.566,0,0,0-1.361.686A3.736,3.736,0,0,0,124.537,13.6Z" transform="translate(1219 4179)" fill="#12263f"/>
    <path id="Trazado_137086" data-name="Trazado 137086" d="M35.331,15.51H30.965L30.135,18H27.487l4.5-12.086h2.308L38.817,18H36.169Zm-3.694-2.017h3.021L33.139,8.969Zm13.439,3.594a3.008,3.008,0,0,1-2.457,1.079,2.837,2.837,0,0,1-2.2-.83,3.543,3.543,0,0,1-.776-2.432V9.019h2.4v5.809q0,1.4,1.278,1.4a1.732,1.732,0,0,0,1.677-.848V9.019H47.4V18H45.142Zm3.76-3.644a5.413,5.413,0,0,1,.942-3.345,3.057,3.057,0,0,1,2.577-1.245,2.751,2.751,0,0,1,2.167.979V5.25h2.407V18H54.763l-.116-.955a2.823,2.823,0,0,1-2.308,1.121,3.049,3.049,0,0,1-2.544-1.249A5.587,5.587,0,0,1,48.836,13.443Zm2.4.179a3.546,3.546,0,0,0,.44,1.937,1.433,1.433,0,0,0,1.278.673,1.605,1.605,0,0,0,1.569-.939v-3.55A1.582,1.582,0,0,0,52.97,10.8Q51.235,10.8,51.235,13.621ZM61.321,18H58.913V9.019h2.407ZM58.772,6.694a1.181,1.181,0,0,1,.361-.888,1.556,1.556,0,0,1,1.963,0,1.175,1.175,0,0,1,.365.888,1.178,1.178,0,0,1-.369.9,1.539,1.539,0,0,1-1.951,0A1.178,1.178,0,0,1,58.772,6.694ZM67.43,18.166a4.409,4.409,0,0,1-3.217-1.212,4.308,4.308,0,0,1-1.241-3.229v-.232a5.426,5.426,0,0,1,.523-2.42,3.838,3.838,0,0,1,1.482-1.644,4.159,4.159,0,0,1,2.187-.577,3.727,3.727,0,0,1,2.9,1.162,4.722,4.722,0,0,1,1.058,3.3v.979H65.4a2.229,2.229,0,0,0,.7,1.411,2.12,2.12,0,0,0,1.482.531,2.589,2.589,0,0,0,2.167-1l1.179,1.32a3.6,3.6,0,0,1-1.461,1.191A4.793,4.793,0,0,1,67.43,18.166Zm-.274-7.379A1.5,1.5,0,0,0,66,11.27a2.5,2.5,0,0,0-.569,1.384h3.337v-.192a1.786,1.786,0,0,0-.432-1.238A1.547,1.547,0,0,0,67.156,10.787Zm7.537-1.768.075,1.038a3.136,3.136,0,0,1,2.582-1.2,2.606,2.606,0,0,1,2.125.838,3.912,3.912,0,0,1,.714,2.507V18h-2.4V12.256a1.556,1.556,0,0,0-.332-1.108,1.486,1.486,0,0,0-1.1-.344,1.65,1.65,0,0,0-1.519.863V18h-2.4V9.019Zm11.048,7.213a1.573,1.573,0,0,0,1.079-.365,1.28,1.28,0,0,0,.432-.971H89.5a3.077,3.077,0,0,1-.5,1.673,3.286,3.286,0,0,1-1.341,1.179,4.2,4.2,0,0,1-1.88.419,3.9,3.9,0,0,1-3.038-1.224,4.845,4.845,0,0,1-1.112-3.383V13.4a4.79,4.79,0,0,1,1.1-3.312,3.854,3.854,0,0,1,3.03-1.237,3.778,3.778,0,0,1,2.7.959A3.4,3.4,0,0,1,89.5,12.364h-2.25a1.648,1.648,0,0,0-.432-1.139,1.6,1.6,0,0,0-2.362.173,3.541,3.541,0,0,0-.427,1.983v.249a3.586,3.586,0,0,0,.423,2A1.463,1.463,0,0,0,85.741,16.232ZM93.4,18H91V9.019H93.4ZM90.855,6.694a1.181,1.181,0,0,1,.361-.888,1.556,1.556,0,0,1,1.963,0,1.175,1.175,0,0,1,.365.888,1.178,1.178,0,0,1-.369.9,1.539,1.539,0,0,1-1.951,0A1.178,1.178,0,0,1,90.855,6.694ZM100.583,18a2.664,2.664,0,0,1-.241-.805,2.9,2.9,0,0,1-2.266.971,3.189,3.189,0,0,1-2.187-.764,2.456,2.456,0,0,1-.867-1.926,2.538,2.538,0,0,1,1.058-2.191,5.222,5.222,0,0,1,3.059-.772h1.1V12a1.48,1.48,0,0,0-.32-1,1.257,1.257,0,0,0-1.009-.374,1.429,1.429,0,0,0-.95.291.987.987,0,0,0-.344.8h-2.4a2.41,2.41,0,0,1,.481-1.444A3.182,3.182,0,0,1,97.064,9.23a4.961,4.961,0,0,1,1.976-.378,3.92,3.92,0,0,1,2.635.834,2.918,2.918,0,0,1,.975,2.345v3.893a4.294,4.294,0,0,0,.357,1.934V18ZM98.6,16.332a2.066,2.066,0,0,0,.979-.237,1.554,1.554,0,0,0,.664-.635V13.916h-.9q-1.8,0-1.917,1.245l-.008.141a.96.96,0,0,0,.315.739A1.225,1.225,0,0,0,98.6,16.332Z" transform="translate(580 4179)" fill="#12263f"/>
    <path id="Trazado_137087" data-name="Trazado 137087" d="M36.207,5.914l3.1,8.766L42.4,5.914h3.271V18h-2.5V14.7l.249-5.7L40.158,18h-1.71L35.194,9l.249,5.694V18h-2.49V5.914ZM51.82,18.166A4.409,4.409,0,0,1,48.6,16.954a4.308,4.308,0,0,1-1.241-3.229v-.232a5.426,5.426,0,0,1,.523-2.42,3.838,3.838,0,0,1,1.482-1.644,4.159,4.159,0,0,1,2.187-.577,3.727,3.727,0,0,1,2.9,1.162,4.722,4.722,0,0,1,1.058,3.3v.979H49.795a2.229,2.229,0,0,0,.7,1.411,2.12,2.12,0,0,0,1.482.531,2.589,2.589,0,0,0,2.167-1l1.179,1.32a3.6,3.6,0,0,1-1.461,1.191A4.793,4.793,0,0,1,51.82,18.166Zm-.274-7.379a1.5,1.5,0,0,0-1.158.484,2.5,2.5,0,0,0-.569,1.384h3.337v-.192a1.786,1.786,0,0,0-.432-1.238A1.547,1.547,0,0,0,51.546,10.787Zm.216-5.537h2.615l-2.3,2.573H50.127Zm7.985,1.561V9.019h1.536v1.76H59.748v4.482a1.07,1.07,0,0,0,.191.714.959.959,0,0,0,.73.216,3.826,3.826,0,0,0,.706-.058V17.95a4.939,4.939,0,0,1-1.453.216,2.29,2.29,0,0,1-2.573-2.548V10.778H56.037V9.019h1.312V6.811Zm7.919,4.458A6.517,6.517,0,0,0,66.8,11.2a1.757,1.757,0,0,0-1.785.921V18h-2.4V9.019h2.266l.066,1.071a2.223,2.223,0,0,1,2-1.237,2.514,2.514,0,0,1,.747.108ZM71.352,18H68.945V9.019h2.407ZM68.8,6.694a1.181,1.181,0,0,1,.361-.888,1.556,1.556,0,0,1,1.963,0,1.175,1.175,0,0,1,.365.888,1.178,1.178,0,0,1-.369.9,1.539,1.539,0,0,1-1.951,0A1.178,1.178,0,0,1,68.8,6.694Zm8.259,9.538a1.573,1.573,0,0,0,1.079-.365,1.28,1.28,0,0,0,.432-.971h2.25a3.077,3.077,0,0,1-.5,1.673,3.286,3.286,0,0,1-1.341,1.179,4.2,4.2,0,0,1-1.88.419,3.9,3.9,0,0,1-3.038-1.224,4.845,4.845,0,0,1-1.112-3.383V13.4a4.79,4.79,0,0,1,1.1-3.312,3.854,3.854,0,0,1,3.03-1.237,3.778,3.778,0,0,1,2.7.959,3.4,3.4,0,0,1,1.033,2.552h-2.25a1.648,1.648,0,0,0-.432-1.139,1.6,1.6,0,0,0-2.362.173,3.541,3.541,0,0,0-.427,1.983v.249a3.586,3.586,0,0,0,.423,2A1.463,1.463,0,0,0,77.063,16.232ZM87.4,18a2.664,2.664,0,0,1-.241-.805,2.9,2.9,0,0,1-2.266.971A3.189,3.189,0,0,1,82.7,17.4a2.456,2.456,0,0,1-.867-1.926,2.538,2.538,0,0,1,1.058-2.191,5.222,5.222,0,0,1,3.059-.772h1.1V12a1.48,1.48,0,0,0-.32-1,1.257,1.257,0,0,0-1.009-.374,1.429,1.429,0,0,0-.95.291.987.987,0,0,0-.344.8h-2.4a2.41,2.41,0,0,1,.481-1.444A3.182,3.182,0,0,1,83.878,9.23a4.961,4.961,0,0,1,1.976-.378,3.92,3.92,0,0,1,2.635.834,2.918,2.918,0,0,1,.975,2.345v3.893a4.294,4.294,0,0,0,.357,1.934V18Zm-1.984-1.668a2.066,2.066,0,0,0,.979-.237,1.554,1.554,0,0,0,.664-.635V13.916h-.9q-1.8,0-1.917,1.245l-.008.141a.96.96,0,0,0,.315.739A1.225,1.225,0,0,0,85.414,16.332Zm10.758-.813a.773.773,0,0,0-.436-.693,4.95,4.95,0,0,0-1.4-.452q-3.2-.672-3.2-2.723a2.468,2.468,0,0,1,.992-2,4,4,0,0,1,2.594-.8,4.307,4.307,0,0,1,2.735.805,2.538,2.538,0,0,1,1.025,2.092h-2.4a1.161,1.161,0,0,0-.332-.851,1.405,1.405,0,0,0-1.038-.336,1.436,1.436,0,0,0-.938.274.865.865,0,0,0-.332.7.739.739,0,0,0,.378.643,3.885,3.885,0,0,0,1.274.423A10.407,10.407,0,0,1,96.6,13a2.482,2.482,0,0,1,1.9,2.416,2.343,2.343,0,0,1-1.054,1.988,4.548,4.548,0,0,1-2.723.76,4.75,4.75,0,0,1-2-.4,3.363,3.363,0,0,1-1.374-1.1,2.565,2.565,0,0,1-.5-1.515h2.274a1.252,1.252,0,0,0,.473.979,1.877,1.877,0,0,0,1.179.34,1.737,1.737,0,0,0,1.042-.261A.814.814,0,0,0,96.171,15.518Z" transform="translate(889 4179)" fill="#12263f"/>
    <path id="Trazado_137088" data-name="Trazado 137088" d="M30.294,12.762H25.513V16h5.611v2h-8.1V5.914h8.085V7.931H25.513v2.88h4.781Zm7,2.756a.773.773,0,0,0-.436-.693,4.95,4.95,0,0,0-1.4-.452q-3.2-.672-3.2-2.723a2.468,2.468,0,0,1,.992-2,4,4,0,0,1,2.594-.8,4.307,4.307,0,0,1,2.735.805A2.538,2.538,0,0,1,39.6,11.75H37.2a1.161,1.161,0,0,0-.332-.851,1.405,1.405,0,0,0-1.038-.336,1.436,1.436,0,0,0-.938.274.865.865,0,0,0-.332.7.739.739,0,0,0,.378.643,3.885,3.885,0,0,0,1.274.423,10.407,10.407,0,0,1,1.511.4,2.482,2.482,0,0,1,1.9,2.416,2.343,2.343,0,0,1-1.054,1.988,4.548,4.548,0,0,1-2.723.76,4.75,4.75,0,0,1-2-.4,3.363,3.363,0,0,1-1.374-1.1,2.565,2.565,0,0,1-.5-1.515h2.274a1.252,1.252,0,0,0,.473.979,1.877,1.877,0,0,0,1.179.34,1.737,1.737,0,0,0,1.042-.261A.814.814,0,0,0,37.292,15.518Zm6.749-8.708V9.019h1.536v1.76H44.041v4.482a1.07,1.07,0,0,0,.191.714.959.959,0,0,0,.73.216,3.826,3.826,0,0,0,.706-.058V17.95a4.939,4.939,0,0,1-1.453.216,2.29,2.29,0,0,1-2.573-2.548V10.778H40.33V9.019h1.312V6.811Zm7.919,4.458A6.517,6.517,0,0,0,51.1,11.2a1.757,1.757,0,0,0-1.785.921V18h-2.4V9.019h2.266l.066,1.071a2.223,2.223,0,0,1,2-1.237,2.514,2.514,0,0,1,.747.108ZM58.069,18a2.664,2.664,0,0,1-.241-.805,2.9,2.9,0,0,1-2.266.971,3.189,3.189,0,0,1-2.187-.764,2.456,2.456,0,0,1-.867-1.926,2.538,2.538,0,0,1,1.058-2.191,5.222,5.222,0,0,1,3.059-.772h1.1V12a1.48,1.48,0,0,0-.32-1,1.257,1.257,0,0,0-1.009-.374,1.429,1.429,0,0,0-.95.291.987.987,0,0,0-.344.8h-2.4a2.41,2.41,0,0,1,.481-1.444A3.182,3.182,0,0,1,54.549,9.23a4.961,4.961,0,0,1,1.976-.378,3.92,3.92,0,0,1,2.635.834,2.918,2.918,0,0,1,.975,2.345v3.893a4.294,4.294,0,0,0,.357,1.934V18Zm-1.984-1.668a2.066,2.066,0,0,0,.979-.237,1.554,1.554,0,0,0,.664-.635V13.916h-.9q-1.8,0-1.917,1.245l-.008.141a.96.96,0,0,0,.315.739A1.225,1.225,0,0,0,56.085,16.332Zm8.766-9.521V9.019h1.536v1.76H64.851v4.482a1.07,1.07,0,0,0,.191.714.959.959,0,0,0,.73.216,3.826,3.826,0,0,0,.706-.058V17.95a4.938,4.938,0,0,1-1.453.216,2.29,2.29,0,0,1-2.573-2.548V10.778H61.14V9.019h1.312V6.811Zm7.006,11.355a4.409,4.409,0,0,1-3.217-1.212A4.308,4.308,0,0,1,67.4,13.725v-.232a5.426,5.426,0,0,1,.523-2.42A3.838,3.838,0,0,1,69.4,9.429a4.159,4.159,0,0,1,2.187-.577,3.727,3.727,0,0,1,2.9,1.162,4.722,4.722,0,0,1,1.058,3.3v.979H69.831a2.229,2.229,0,0,0,.7,1.411,2.12,2.12,0,0,0,1.482.531,2.589,2.589,0,0,0,2.167-1l1.179,1.32A3.6,3.6,0,0,1,73.9,17.739,4.793,4.793,0,0,1,71.856,18.166Zm-.274-7.379a1.5,1.5,0,0,0-1.158.484,2.5,2.5,0,0,0-.569,1.384h3.337v-.192a1.786,1.786,0,0,0-.432-1.238A1.547,1.547,0,0,0,71.583,10.787Zm4.98,2.656a5.264,5.264,0,0,1,.984-3.329A3.187,3.187,0,0,1,80.2,8.853a2.8,2.8,0,0,1,2.3,1.013l.1-.847h2.175V17.7a3.839,3.839,0,0,1-.535,2.05A3.439,3.439,0,0,1,82.73,21.08a5.3,5.3,0,0,1-2.274.457,4.925,4.925,0,0,1-1.926-.394,3.418,3.418,0,0,1-1.419-1.017l1.063-1.461a2.81,2.81,0,0,0,2.175,1,2.057,2.057,0,0,0,1.486-.51,1.915,1.915,0,0,0,.531-1.448v-.481a2.775,2.775,0,0,1-2.183.938A3.179,3.179,0,0,1,77.563,16.9a5.262,5.262,0,0,1-1-3.358Zm2.4.179a3.278,3.278,0,0,0,.49,1.916,1.558,1.558,0,0,0,1.345.694,1.666,1.666,0,0,0,1.569-.823V11.626a1.662,1.662,0,0,0-1.552-.823,1.568,1.568,0,0,0-1.357.707A3.694,3.694,0,0,0,78.962,13.621ZM89.147,18H86.74V9.019h2.407ZM86.6,6.694a1.181,1.181,0,0,1,.361-.888,1.556,1.556,0,0,1,1.963,0,1.175,1.175,0,0,1,.365.888,1.178,1.178,0,0,1-.369.9,1.539,1.539,0,0,1-1.951,0A1.178,1.178,0,0,1,86.6,6.694ZM96.327,18a2.664,2.664,0,0,1-.241-.805,2.9,2.9,0,0,1-2.266.971,3.189,3.189,0,0,1-2.187-.764,2.456,2.456,0,0,1-.867-1.926,2.538,2.538,0,0,1,1.058-2.191,5.222,5.222,0,0,1,3.059-.772h1.1V12a1.48,1.48,0,0,0-.32-1,1.257,1.257,0,0,0-1.009-.374,1.429,1.429,0,0,0-.95.291.987.987,0,0,0-.344.8h-2.4a2.41,2.41,0,0,1,.481-1.444A3.182,3.182,0,0,1,92.808,9.23a4.961,4.961,0,0,1,1.976-.378,3.92,3.92,0,0,1,2.635.834,2.918,2.918,0,0,1,.975,2.345v3.893a4.294,4.294,0,0,0,.357,1.934V18Zm-1.984-1.668a2.066,2.066,0,0,0,.979-.237,1.554,1.554,0,0,0,.664-.635V13.916h-.9q-1.8,0-1.917,1.245l-.008.141a.96.96,0,0,0,.315.739A1.225,1.225,0,0,0,94.343,16.332Zm10.758-.813a.773.773,0,0,0-.436-.693,4.95,4.95,0,0,0-1.4-.452q-3.2-.672-3.2-2.723a2.468,2.468,0,0,1,.992-2,4,4,0,0,1,2.594-.8,4.307,4.307,0,0,1,2.735.805,2.538,2.538,0,0,1,1.025,2.092h-2.4a1.161,1.161,0,0,0-.332-.851,1.405,1.405,0,0,0-1.038-.336,1.436,1.436,0,0,0-.938.274.865.865,0,0,0-.332.7.739.739,0,0,0,.378.643,3.885,3.885,0,0,0,1.274.423,10.407,10.407,0,0,1,1.511.4,2.482,2.482,0,0,1,1.9,2.416,2.343,2.343,0,0,1-1.054,1.988,4.548,4.548,0,0,1-2.723.76,4.75,4.75,0,0,1-2-.4,3.363,3.363,0,0,1-1.374-1.1,2.565,2.565,0,0,1-.5-1.515h2.274a1.252,1.252,0,0,0,.473.979,1.877,1.877,0,0,0,1.179.34,1.737,1.737,0,0,0,1.042-.261A.814.814,0,0,0,105.1,15.518ZM32.544,34.6l1.66-5.586h2.573L33.167,39.395l-.2.473a2.738,2.738,0,0,1-2.656,1.76,3.774,3.774,0,0,1-1.062-.158V39.652l.365.008a1.973,1.973,0,0,0,1.017-.208,1.363,1.363,0,0,0,.527-.689l.282-.739-3.146-9.006h2.582Zm12.285-7.794v2.208h1.536v1.76H44.829v4.482a1.07,1.07,0,0,0,.191.714.959.959,0,0,0,.73.216,3.826,3.826,0,0,0,.706-.058V37.95A4.939,4.939,0,0,1,45,38.166a2.29,2.29,0,0,1-2.573-2.548V30.778H41.119v-1.76H42.43V26.811ZM52.906,38a2.664,2.664,0,0,1-.241-.805,2.9,2.9,0,0,1-2.266.971,3.189,3.189,0,0,1-2.187-.764,2.456,2.456,0,0,1-.867-1.926A2.538,2.538,0,0,1,48.4,33.285a5.222,5.222,0,0,1,3.059-.772h1.1V32a1.48,1.48,0,0,0-.32-1,1.257,1.257,0,0,0-1.009-.374,1.429,1.429,0,0,0-.95.291.987.987,0,0,0-.344.8h-2.4a2.41,2.41,0,0,1,.481-1.444,3.182,3.182,0,0,1,1.361-1.042,4.961,4.961,0,0,1,1.976-.378A3.92,3.92,0,0,1,54,29.687a2.918,2.918,0,0,1,.975,2.345v3.893a4.294,4.294,0,0,0,.357,1.934V38Zm-1.984-1.668a2.066,2.066,0,0,0,.979-.237,1.554,1.554,0,0,0,.664-.635V33.916h-.9q-1.8,0-1.917,1.245l-.008.141a.96.96,0,0,0,.315.739A1.225,1.225,0,0,0,50.922,36.332Zm.913-11.082H54.45l-2.3,2.573H50.2Zm8.716,10.982a1.573,1.573,0,0,0,1.079-.365,1.28,1.28,0,0,0,.432-.971h2.25a3.077,3.077,0,0,1-.5,1.673,3.286,3.286,0,0,1-1.341,1.179,4.2,4.2,0,0,1-1.88.419,3.9,3.9,0,0,1-3.038-1.224,4.845,4.845,0,0,1-1.112-3.383V33.4a4.79,4.79,0,0,1,1.1-3.312,3.854,3.854,0,0,1,3.03-1.237,3.778,3.778,0,0,1,2.7.959,3.4,3.4,0,0,1,1.033,2.552h-2.25a1.648,1.648,0,0,0-.432-1.139,1.6,1.6,0,0,0-2.362.173,3.541,3.541,0,0,0-.427,1.983v.249a3.586,3.586,0,0,0,.423,2A1.463,1.463,0,0,0,60.551,36.232Zm8-9.421v2.208h1.536v1.76H68.553v4.482a1.07,1.07,0,0,0,.191.714.959.959,0,0,0,.73.216,3.825,3.825,0,0,0,.706-.058V37.95a4.939,4.939,0,0,1-1.453.216,2.29,2.29,0,0,1-2.573-2.548V30.778H64.842v-1.76h1.312V26.811ZM73.957,38H71.549V29.019h2.407ZM71.408,26.694a1.181,1.181,0,0,1,.361-.888,1.556,1.556,0,0,1,1.963,0,1.268,1.268,0,0,1,0,1.785,1.539,1.539,0,0,1-1.951,0A1.178,1.178,0,0,1,71.408,26.694Zm8.259,9.538a1.573,1.573,0,0,0,1.079-.365,1.28,1.28,0,0,0,.432-.971h2.25a3.077,3.077,0,0,1-.5,1.673,3.286,3.286,0,0,1-1.341,1.179,4.2,4.2,0,0,1-1.88.419,3.9,3.9,0,0,1-3.038-1.224,4.845,4.845,0,0,1-1.112-3.383V33.4a4.79,4.79,0,0,1,1.1-3.312,3.854,3.854,0,0,1,3.03-1.237,3.778,3.778,0,0,1,2.7.959,3.4,3.4,0,0,1,1.033,2.552h-2.25a1.648,1.648,0,0,0-.432-1.139,1.6,1.6,0,0,0-2.362.173,3.541,3.541,0,0,0-.427,1.983v.249a3.586,3.586,0,0,0,.423,2A1.463,1.463,0,0,0,79.667,36.232ZM90,38a2.664,2.664,0,0,1-.241-.805,2.9,2.9,0,0,1-2.266.971,3.189,3.189,0,0,1-2.187-.764,2.456,2.456,0,0,1-.867-1.926A2.538,2.538,0,0,1,85.5,33.285a5.222,5.222,0,0,1,3.059-.772h1.1V32a1.48,1.48,0,0,0-.32-1,1.257,1.257,0,0,0-1.009-.374,1.429,1.429,0,0,0-.95.291.987.987,0,0,0-.344.8h-2.4a2.41,2.41,0,0,1,.481-1.444,3.182,3.182,0,0,1,1.361-1.042,4.961,4.961,0,0,1,1.976-.378,3.92,3.92,0,0,1,2.635.834,2.918,2.918,0,0,1,.975,2.345v3.893a4.294,4.294,0,0,0,.357,1.934V38Zm-1.984-1.668A2.066,2.066,0,0,0,89,36.095a1.554,1.554,0,0,0,.664-.635V33.916h-.9q-1.8,0-1.917,1.245l-.008.141a.96.96,0,0,0,.315.739A1.225,1.225,0,0,0,88.018,36.332Zm10.758-.813a.773.773,0,0,0-.436-.693,4.95,4.95,0,0,0-1.4-.452q-3.2-.672-3.2-2.723a2.468,2.468,0,0,1,.992-2,4,4,0,0,1,2.594-.8,4.307,4.307,0,0,1,2.735.805,2.538,2.538,0,0,1,1.025,2.092h-2.4a1.161,1.161,0,0,0-.332-.851,1.405,1.405,0,0,0-1.038-.336,1.436,1.436,0,0,0-.938.274.865.865,0,0,0-.332.7.739.739,0,0,0,.378.643A3.885,3.885,0,0,0,97.7,32.6a10.407,10.407,0,0,1,1.511.4,2.482,2.482,0,0,1,1.9,2.416,2.343,2.343,0,0,1-1.054,1.988,4.548,4.548,0,0,1-2.723.76,4.75,4.75,0,0,1-2-.4,3.363,3.363,0,0,1-1.374-1.1,2.565,2.565,0,0,1-.5-1.515h2.274a1.252,1.252,0,0,0,.473.979,1.877,1.877,0,0,0,1.179.34,1.737,1.737,0,0,0,1.042-.261A.814.814,0,0,0,98.776,35.518Z" transform="translate(735 4169)" fill="#12263f"/>
  </g>
</svg>
