<svg id="Grupo_159079" data-name="Grupo 159079" xmlns="http://www.w3.org/2000/svg" xmlns:xlink="http://www.w3.org/1999/xlink" width="275" height="184" viewBox="0 0 275 184">
  <defs>
    <clipPath id="clip-path">
      <rect id="Rectángulo_38464" data-name="Rectángulo 38464" width="275" height="184" fill="none"/>
    </clipPath>
    <clipPath id="clip-path-3">
      <rect id="Rectángulo_38459" data-name="Rectángulo 38459" width="23.583" height="24.066" transform="translate(147.771 125.522)" fill="none"/>
    </clipPath>
    <clipPath id="clip-path-4">
      <rect id="Rectángulo_38460" data-name="Rectángulo 38460" width="24.562" height="25.248" transform="translate(144.373 127.671)" fill="none"/>
    </clipPath>
    <clipPath id="clip-path-5">
      <rect id="Rectángulo_38461" data-name="Rectángulo 38461" width="18.844" height="19.231" transform="translate(96.029 62.318)" fill="none"/>
    </clipPath>
    <clipPath id="clip-path-6">
      <rect id="Rectángulo_38462" data-name="Rectángulo 38462" width="19.627" height="20.175" transform="translate(93.313 64.035)" fill="none"/>
    </clipPath>
  </defs>
  <g id="Grupo_159078" data-name="Grupo 159078" clip-path="url(#clip-path)">
    <g id="Grupo_159077" data-name="Grupo 159077">
      <g id="Grupo_159076" data-name="Grupo 159076" clip-path="url(#clip-path)">
        <path id="Trazado_134440" data-name="Trazado 134440" d="M137.5,19.327A72.673,72.673,0,1,1,64.827,92,72.673,72.673,0,0,1,137.5,19.327" fill="#b0c8cb"/>
        <path id="Trazado_134441" data-name="Trazado 134441" d="M92,92.044H192.709a2.659,2.659,0,0,0,2.659-2.659V27.9a2.658,2.658,0,0,0-2.659-2.659H92A2.658,2.658,0,0,0,89.339,27.9V89.385A2.659,2.659,0,0,0,92,92.044" fill="#e8edbc"/>
        <path id="Trazado_134442" data-name="Trazado 134442" d="M192.709,92.129H92a2.748,2.748,0,0,1-2.745-2.744V27.9A2.748,2.748,0,0,1,92,25.158H192.709a2.748,2.748,0,0,1,2.745,2.745V89.385a2.748,2.748,0,0,1-2.745,2.744M92,25.329A2.577,2.577,0,0,0,89.424,27.9V89.385A2.577,2.577,0,0,0,92,91.959H192.709a2.577,2.577,0,0,0,2.574-2.574V27.9a2.577,2.577,0,0,0-2.574-2.574Z" fill="#6787b2"/>
        <path id="Trazado_134443" data-name="Trazado 134443" d="M91.976,25.244H192.725a2.643,2.643,0,0,1,2.643,2.643v9.735H89.339V27.881a2.637,2.637,0,0,1,2.637-2.637" fill="#6787b2"/>
        <path id="Trazado_134444" data-name="Trazado 134444" d="M195.453,37.708H89.253V27.881a2.725,2.725,0,0,1,2.723-2.722H192.725a2.731,2.731,0,0,1,2.728,2.728ZM89.424,37.536H195.283V27.887a2.561,2.561,0,0,0-2.558-2.557H91.976a2.554,2.554,0,0,0-2.552,2.551Z" fill="#6787b2"/>
        <rect id="Rectángulo_38414" data-name="Rectángulo 38414" width="6.262" height="0.598" transform="translate(95.025 33.986) rotate(-45.001)" fill="#fff"/>
        <rect id="Rectángulo_38415" data-name="Rectángulo 38415" width="0.598" height="6.262" transform="matrix(0.707, -0.707, 0.707, 0.707, 95.025, 29.981)" fill="#fff"/>
        <path id="Trazado_134445" data-name="Trazado 134445" d="M174.5,31.984a2.132,2.132,0,1,1-2.131-2.131,2.131,2.131,0,0,1,2.131,2.131" fill="#fefefe"/>
        <path id="Trazado_134446" data-name="Trazado 134446" d="M182.585,31.984a2.132,2.132,0,1,1-2.131-2.131,2.131,2.131,0,0,1,2.131,2.131" fill="#fefefe"/>
        <path id="Trazado_134447" data-name="Trazado 134447" d="M190.671,31.984a2.132,2.132,0,1,1-2.131-2.131,2.131,2.131,0,0,1,2.131,2.131" fill="#fefefe"/>
        <rect id="Rectángulo_38416" data-name="Rectángulo 38416" width="93.573" height="0.171" transform="translate(94.318 48.983)" fill="#4c7bb1"/>
        <rect id="Rectángulo_38417" data-name="Rectángulo 38417" width="93.573" height="0.171" transform="translate(94.318 56.047)" fill="#4c7bb1"/>
        <rect id="Rectángulo_38418" data-name="Rectángulo 38418" width="93.573" height="0.171" transform="translate(94.318 63.112)" fill="#4c7bb1"/>
        <rect id="Rectángulo_38419" data-name="Rectángulo 38419" width="93.573" height="0.171" transform="translate(94.318 70.176)" fill="#4c7bb1"/>
        <rect id="Rectángulo_38420" data-name="Rectángulo 38420" width="0.171" height="32.982" transform="translate(183.817 43.174)" fill="#4c7bb1"/>
        <rect id="Rectángulo_38421" data-name="Rectángulo 38421" width="0.171" height="32.982" transform="translate(177.233 43.174)" fill="#4c7bb1"/>
        <rect id="Rectángulo_38422" data-name="Rectángulo 38422" width="0.171" height="32.982" transform="translate(170.649 43.174)" fill="#4c7bb1"/>
        <rect id="Rectángulo_38423" data-name="Rectángulo 38423" width="0.171" height="32.982" transform="translate(164.064 43.174)" fill="#4c7bb1"/>
        <rect id="Rectángulo_38424" data-name="Rectángulo 38424" width="0.171" height="32.982" transform="translate(157.48 43.174)" fill="#4c7bb1"/>
        <rect id="Rectángulo_38425" data-name="Rectángulo 38425" width="0.171" height="32.982" transform="translate(150.895 43.174)" fill="#4c7bb1"/>
        <rect id="Rectángulo_38426" data-name="Rectángulo 38426" width="0.171" height="32.982" transform="translate(144.311 43.174)" fill="#4c7bb1"/>
        <rect id="Rectángulo_38427" data-name="Rectángulo 38427" width="0.171" height="32.982" transform="translate(137.727 43.174)" fill="#4c7bb1"/>
        <rect id="Rectángulo_38428" data-name="Rectángulo 38428" width="0.171" height="32.982" transform="translate(131.142 43.174)" fill="#4c7bb1"/>
        <rect id="Rectángulo_38429" data-name="Rectángulo 38429" width="0.171" height="32.982" transform="translate(124.558 43.174)" fill="#4c7bb1"/>
        <rect id="Rectángulo_38430" data-name="Rectángulo 38430" width="0.171" height="32.982" transform="translate(117.973 43.174)" fill="#4c7bb1"/>
        <rect id="Rectángulo_38431" data-name="Rectángulo 38431" width="0.171" height="32.982" transform="translate(111.389 43.174)" fill="#4c7bb1"/>
        <rect id="Rectángulo_38432" data-name="Rectángulo 38432" width="0.171" height="32.982" transform="translate(104.805 43.174)" fill="#4c7bb1"/>
        <rect id="Rectángulo_38433" data-name="Rectángulo 38433" width="0.171" height="32.982" transform="translate(98.22 43.174)" fill="#4c7bb1"/>
        <rect id="Rectángulo_38434" data-name="Rectángulo 38434" width="3.659" height="1.274" transform="translate(150.723 86.455)" fill="#6787b2"/>
        <path id="Trazado_134448" data-name="Trazado 134448" d="M154.468,87.814h-3.83V86.369h3.83Zm-3.659-.171H154.3v-1.1h-3.488Z" fill="#6787b2"/>
        <rect id="Rectángulo_38435" data-name="Rectángulo 38435" width="3.164" height="1.274" transform="translate(171.746 83.641)" fill="#6787b2"/>
        <path id="Trazado_134449" data-name="Trazado 134449" d="M175,85h-3.335V83.555H175Zm-3.165-.171h2.993v-1.1h-2.993Z" fill="#6787b2"/>
        <rect id="Rectángulo_38436" data-name="Rectángulo 38436" width="10.233" height="1.274" transform="translate(177.387 83.641)" fill="#6787b2"/>
        <path id="Trazado_134450" data-name="Trazado 134450" d="M187.706,85H177.3V83.555h10.4Zm-10.234-.171h10.062v-1.1H177.472Z" fill="#6787b2"/>
        <rect id="Rectángulo_38437" data-name="Rectángulo 38437" width="22.772" height="1.274" transform="translate(157.089 86.455)" fill="#6787b2"/>
        <path id="Trazado_134451" data-name="Trazado 134451" d="M179.946,87.814H157V86.369h22.943Zm-22.772-.171h22.6v-1.1h-22.6Z" fill="#6787b2"/>
        <rect id="Rectángulo_38438" data-name="Rectángulo 38438" width="25.047" height="1.274" transform="translate(144.474 83.641)" fill="#6787b2"/>
        <path id="Trazado_134452" data-name="Trazado 134452" d="M169.606,85H144.388V83.555h25.218Zm-25.047-.171h24.876v-1.1H144.559Z" fill="#6787b2"/>
        <rect id="Rectángulo_38439" data-name="Rectángulo 38439" width="35.889" height="1.274" transform="translate(148.177 81.001)" fill="#6787b2"/>
        <path id="Trazado_134453" data-name="Trazado 134453" d="M184.151,82.36h-36.06V80.915h36.06Zm-35.889-.171H183.98v-1.1H148.262Z" fill="#6787b2"/>
        <rect id="Rectángulo_38440" data-name="Rectángulo 38440" width="3.659" height="1.274" transform="translate(128.739 81)" fill="#6787b2"/>
        <path id="Trazado_134454" data-name="Trazado 134454" d="M132.483,82.36h-3.83V80.915h3.83Zm-3.658-.171h3.488v-1.1h-3.488Z" fill="#6787b2"/>
        <rect id="Rectángulo_38441" data-name="Rectángulo 38441" width="3.164" height="1.274" transform="translate(108.211 83.814)" fill="#6787b2"/>
        <path id="Trazado_134455" data-name="Trazado 134455" d="M111.461,85.174h-3.335V83.729h3.335ZM108.3,85h2.993V83.9H108.3Z" fill="#6787b2"/>
        <rect id="Rectángulo_38442" data-name="Rectángulo 38442" width="10.233" height="1.274" transform="translate(95.501 83.814)" fill="#6787b2"/>
        <path id="Trazado_134456" data-name="Trazado 134456" d="M105.82,85.174h-10.4V83.729h10.4ZM95.587,85h10.062V83.9H95.587Z" fill="#6787b2"/>
        <rect id="Rectángulo_38443" data-name="Rectángulo 38443" width="22.772" height="1.274" transform="translate(103.26 81)" fill="#6787b2"/>
        <path id="Trazado_134457" data-name="Trazado 134457" d="M126.118,82.36H103.175V80.915h22.943Zm-22.772-.171h22.6v-1.1h-22.6Z" fill="#6787b2"/>
        <rect id="Rectángulo_38444" data-name="Rectángulo 38444" width="25.047" height="1.274" transform="translate(113.6 83.815)" fill="#6787b2"/>
        <path id="Trazado_134458" data-name="Trazado 134458" d="M138.733,85.174H113.515V83.729h25.218ZM113.686,85h24.876V83.9H113.686Z" fill="#6787b2"/>
        <rect id="Rectángulo_38445" data-name="Rectángulo 38445" width="35.889" height="1.274" transform="translate(99.056 86.455)" fill="#6787b2"/>
        <path id="Trazado_134459" data-name="Trazado 134459" d="M135.03,87.814H98.97V86.369h36.06Zm-35.889-.171h35.718v-1.1H99.141Z" fill="#6787b2"/>
        <path id="Trazado_134460" data-name="Trazado 134460" d="M109.793,77.679a1.111,1.111,0,0,1-.786-1.9l15.275-15.275a1.11,1.11,0,0,1,1.4-.137l11.617,7.8,14.723-17.2a1.111,1.111,0,0,1,1.582-.108l12.985,11.535,10.478-18.185a1.111,1.111,0,0,1,1.579-.37l11.846,7.9L203.57,35.226h-6.81a1.111,1.111,0,0,1,0-2.222h9.106a1.111,1.111,0,0,1,.871,1.8L191.6,53.915a1.112,1.112,0,0,1-1.487.235L178.4,46.342l-10.566,18.34a1.112,1.112,0,0,1-1.7.276l-13.159-11.69-14.63,17.1a1.109,1.109,0,0,1-1.463.2l-11.679-7.839L110.579,77.354a1.108,1.108,0,0,1-.786.325" fill="#4c7bb1"/>
        <path id="Trazado_134461" data-name="Trazado 134461" d="M207.822,43.242a1.111,1.111,0,0,1-1.078-.848l-1.956-8.016a1.111,1.111,0,0,1,2.158-.527l1.956,8.017a1.11,1.11,0,0,1-.816,1.342,1.089,1.089,0,0,1-.264.032" fill="#4c7bb1"/>
        <path id="Trazado_134462" data-name="Trazado 134462" d="M174.091,131.042l2.028-.15a19.6,19.6,0,0,1-4.94-3.3,6.627,6.627,0,0,1-2.1-5.359,3.473,3.473,0,0,0,2.124.09,16.47,16.47,0,0,1-4.538-5.247c-1.111-2.434-.968-5.233-.731-7.9a8.52,8.52,0,0,1,.536-2.658,2.989,2.989,0,0,1,1.926-1.786c1.43-.34,2.823.814,3.487,2.124s1.273,3.284,1.972,4.6c.344-1.128.423-3.22.883-4.342,3.127,1.646,5.508,4.2,7.9,6.806a4.2,4.2,0,0,1,1.147,1.854,4.49,4.49,0,0,1-.168,1.968l-1.452,6.106,2.846-4.015a10.494,10.494,0,0,0,.665,1.52q.3.772.531,1.57a20.107,20.107,0,0,1,.671,3.349,20.616,20.616,0,0,1-.36,6.8,19.8,19.8,0,0,1-1.046,3.305c-.169.406-.3.989-.825.957-.43-.025-.832-.545-1.134-.8a15.733,15.733,0,0,0-4.652-2.333c-1.781-.692-3.694-1.492-4.77-3.165" fill="#90b193"/>
        <path id="Trazado_134463" data-name="Trazado 134463" d="M186.949,149.69a108.938,108.938,0,0,0-17.084-39.673l.363-.253A108.816,108.816,0,0,1,187.382,149.6Z" fill="#6787b2"/>
        <path id="Trazado_134464" data-name="Trazado 134464" d="M169.917,115.478a5.363,5.363,0,0,1-3.2-2.246l.37-.244a4.913,4.913,0,0,0,2.932,2.06Z" fill="#6787b2"/>
        <path id="Trazado_134465" data-name="Trazado 134465" d="M172.446,118.655a6.188,6.188,0,0,1-3.55-1.114l.254-.362a5.826,5.826,0,0,0,4.844.818l.122.426a6.07,6.07,0,0,1-1.67.232" fill="#6787b2"/>
        <path id="Trazado_134466" data-name="Trazado 134466" d="M177.1,119.962l-.383-.221a10.25,10.25,0,0,0,1.365-5.357l.442-.01a10.687,10.687,0,0,1-1.424,5.588" fill="#6787b2"/>
        <path id="Trazado_134467" data-name="Trazado 134467" d="M178.837,123.228l-.321-.3a3.078,3.078,0,0,0,.735-2.792l.429-.107a3.53,3.53,0,0,1-.843,3.2" fill="#6787b2"/>
        <path id="Trazado_134468" data-name="Trazado 134468" d="M180.705,132.365a4.245,4.245,0,0,1-2.169-.6l.227-.38a3.8,3.8,0,0,0,2.24.523l.035.441c-.111.008-.222.013-.333.013" fill="#6787b2"/>
        <path id="Trazado_134469" data-name="Trazado 134469" d="M200.532,127.064l-2.019.241a19.651,19.651,0,0,0,4.218-4.18,6.623,6.623,0,0,0,1.033-5.662,3.457,3.457,0,0,1-2.067.494,16.476,16.476,0,0,0,3.451-6.018c.624-2.6-.052-5.321-.795-7.891a8.481,8.481,0,0,0-1.035-2.506,2.986,2.986,0,0,0-2.231-1.386c-1.469-.059-2.615,1.339-3.017,2.753s-.621,3.466-1.056,4.888c-.553-1.042-1.031-3.08-1.7-4.093-2.755,2.214-4.6,5.179-6.45,8.192a4.19,4.19,0,0,0-.771,2.039,4.47,4.47,0,0,0,.541,1.9q1.3,2.857,2.594,5.716l-3.562-3.4a10.384,10.384,0,0,1-.362,1.618c-.1.544-.17,1.093-.22,1.643a20.087,20.087,0,0,0-.018,3.416,20.588,20.588,0,0,0,1.655,6.61,19.759,19.759,0,0,0,1.66,3.044c.243.367.479.914.993.782.417-.108.712-.695.959-1a15.719,15.719,0,0,1,4.12-3.179c1.615-1.021,3.34-2.172,4.076-4.02" fill="#90b193"/>
        <path id="Trazado_134470" data-name="Trazado 134470" d="M191.48,147.827l-.442-.006a108.822,108.822,0,0,1,9.214-42.382l.4.179a108.951,108.951,0,0,0-9.177,42.209" fill="#6787b2"/>
        <path id="Trazado_134471" data-name="Trazado 134471" d="M201.65,110.988l-.184-.4A4.916,4.916,0,0,0,203.951,108l.409.168a5.362,5.362,0,0,1-2.71,2.817" fill="#6787b2"/>
        <path id="Trazado_134472" data-name="Trazado 134472" d="M198.606,114.7c-.171,0-.342-.007-.513-.022l.038-.441a5.825,5.825,0,0,0,4.6-1.73l.319.307a6.2,6.2,0,0,1-4.442,1.886" fill="#6787b2"/>
        <path id="Trazado_134473" data-name="Trazado 134473" d="M195.456,116.765a10.69,10.69,0,0,1-2.468-5.212l.436-.075a10.234,10.234,0,0,0,2.366,5Z" fill="#6787b2"/>
        <path id="Trazado_134474" data-name="Trazado 134474" d="M194.378,120.3a3.532,3.532,0,0,1-1.441-2.982l.442.022a3.079,3.079,0,0,0,1.256,2.6Z" fill="#6787b2"/>
        <path id="Trazado_134475" data-name="Trazado 134475" d="M193.964,129.678l-.049-.44a3.8,3.8,0,0,0,2.1-.941l.3.33a4.249,4.249,0,0,1-2.345,1.051" fill="#6787b2"/>
        <path id="Trazado_134476" data-name="Trazado 134476" d="M191.678,88.931a12.137,12.137,0,0,0,1.606-2.435,2.555,2.555,0,0,1,2.388-1.378,2.823,2.823,0,0,1,1.6,1.226,20.993,20.993,0,0,1,3.136,6.82,21.5,21.5,0,0,1,1.042,7.01,10.409,10.409,0,0,1-2.483,6.523l1.731-.2a17.268,17.268,0,0,1-5.15,12.158c1.288-.39,2.688-.528,3.975-.919a16.732,16.732,0,0,1-4.351,6.721,34.4,34.4,0,0,0-5.194,6.173,21.968,21.968,0,0,1-5.461-9.315,36.27,36.27,0,0,1-1.234-10.745,9.069,9.069,0,0,1,4.081,3.5,11.572,11.572,0,0,0-4.663-8.333,26.241,26.241,0,0,1,6.831-14.34,20.1,20.1,0,0,0,2.31,3.527,12.045,12.045,0,0,0-.16-5.99" fill="#6787b2"/>
        <path id="Trazado_134477" data-name="Trazado 134477" d="M192.244,148.32a101.329,101.329,0,0,1-.542-41.242c.291-1.481.619-2.98.937-4.43A83.223,83.223,0,0,0,194.5,91.941l.441.037a83.843,83.843,0,0,1-1.872,10.765c-.318,1.447-.646,2.944-.935,4.42a100.852,100.852,0,0,0,.539,41.061Z" fill="#90b193"/>
        <path id="Trazado_134478" data-name="Trazado 134478" d="M190.786,124.58l-.089-.433a3.43,3.43,0,0,0,2.51-2.269l.422.132a3.829,3.829,0,0,1-2.843,2.57" fill="#90b193"/>
        <path id="Trazado_134479" data-name="Trazado 134479" d="M190.662,111.962a6.645,6.645,0,0,1-2.631-4.059l.434-.087a6.2,6.2,0,0,0,2.454,3.786Z" fill="#6787b2"/>
        <path id="Trazado_134480" data-name="Trazado 134480" d="M190.321,107.528a15.326,15.326,0,0,1-2.094-5.229l.434-.086a14.875,14.875,0,0,0,2.034,5.078Z" fill="#90b193"/>
        <path id="Trazado_134481" data-name="Trazado 134481" d="M192.71,104.3l-.021-.442a4.465,4.465,0,0,0,3.1-1.5l.334.29a4.916,4.916,0,0,1-3.413,1.655" fill="#90b193"/>
        <path id="Trazado_134482" data-name="Trazado 134482" d="M195.022,96.826l-.258-.358a4.666,4.666,0,0,0,1.807-2.721l.431.1a5.106,5.106,0,0,1-1.98,2.981" fill="#90b193"/>
        <path id="Trazado_134483" data-name="Trazado 134483" d="M174.321,142.471a4.909,4.909,0,0,1,.66-1.359h26.432a4.909,4.909,0,0,1,.66,1.359,14.983,14.983,0,0,1,.45,3.688,14.435,14.435,0,0,1-6.374,11.9,13.739,13.739,0,0,1-3.03.333h-9.844a13.746,13.746,0,0,1-3.03-.333,14.435,14.435,0,0,1-6.374-11.9,14.983,14.983,0,0,1,.45-3.688" fill="#064679"/>
        <path id="Trazado_134484" data-name="Trazado 134484" d="M185.582,158.4h7.537a13.806,13.806,0,0,0,3.03-.333,14.436,14.436,0,0,0,6.374-11.9,15.025,15.025,0,0,0-.45-3.688,4.926,4.926,0,0,0-.66-1.359h-.289a14.43,14.43,0,0,1,.163,2.174c0,8.344-7.03,15.108-15.705,15.108" fill="#28649e"/>
        <path id="Trazado_134485" data-name="Trazado 134485" d="M182.848,158.388a12.5,12.5,0,0,1-2.6-.327,14.435,14.435,0,0,1-6.374-11.9,15.031,15.031,0,0,1,.45-3.688,4.927,4.927,0,0,1,.66-1.359h5.693c-2.049.254-8.4,12.694,2.174,17.276" fill="#064679"/>
        <path id="Trazado_134486" data-name="Trazado 134486" d="M94.562,130.243v5.18a1.049,1.049,0,0,0,.016.187,1.076,1.076,0,0,0,1.06.89H127.63l.069,0a1.074,1.074,0,0,0,.989-.888.892.892,0,0,0,.017-.187v-5.18a1.075,1.075,0,0,0-1.075-1.077H95.638a1.075,1.075,0,0,0-1.076,1.077" fill="#ef7e6b"/>
        <path id="Trazado_134487" data-name="Trazado 134487" d="M116.588,129.166V136.5h11.2a.914.914,0,0,0,.914-.888v-5.529a.914.914,0,0,0-.915-.915Z" fill="#f49c68"/>
        <path id="Trazado_134488" data-name="Trazado 134488" d="M109.659,136.5h2.253v-7.332h-2.253V136.5Z" fill="#f49c68"/>
        <rect id="Rectángulo_38446" data-name="Rectángulo 38446" width="3.574" height="7.334" transform="translate(122.577 129.166)" fill="#fbc387"/>
        <path id="Trazado_134489" data-name="Trazado 134489" d="M95.219,136.5h1.055v-7.334H95.219a.659.659,0,0,0-.658.658v6.018a.658.658,0,0,0,.658.658" fill="#f49c68"/>
        <path id="Trazado_134490" data-name="Trazado 134490" d="M94.578,135.61a1.078,1.078,0,0,0,1.06.89h32.179a.888.888,0,0,0,.888-.89Z" fill="#ec7724"/>
        <path id="Trazado_134491" data-name="Trazado 134491" d="M97.1,137.577v5.18a1.08,1.08,0,0,0,1.021,1.077h32.047c.028,0,.055,0,.083,0a1.076,1.076,0,0,0,.976-.887.981.981,0,0,0,.017-.188v-5.18a1.075,1.075,0,0,0-1.076-1.077H98.178a1.077,1.077,0,0,0-1.077,1.077" fill="#ef7e6b"/>
        <path id="Trazado_134492" data-name="Trazado 134492" d="M119.127,136.5v7.332h11.2a.914.914,0,0,0,.914-.887v-5.53a.915.915,0,0,0-.915-.915Z" fill="#f49c68"/>
        <path id="Trazado_134493" data-name="Trazado 134493" d="M112.2,143.832h2.253V136.5H112.2v7.332Z" fill="#f49c68"/>
        <rect id="Rectángulo_38447" data-name="Rectángulo 38447" width="3.574" height="7.334" transform="translate(125.116 136.5)" fill="#fbc387"/>
        <path id="Trazado_134494" data-name="Trazado 134494" d="M97.759,143.834h1.055V136.5H97.759a.659.659,0,0,0-.658.658v6.018a.658.658,0,0,0,.658.658" fill="#f49c68"/>
        <path id="Trazado_134495" data-name="Trazado 134495" d="M97.118,142.945a1.082,1.082,0,0,0,1,.889h32.235a.891.891,0,0,0,.888-.89Z" fill="#ec7724"/>
        <path id="Trazado_134496" data-name="Trazado 134496" d="M93.713,144.912v5.18a1.049,1.049,0,0,0,.017.187,1.076,1.076,0,0,0,1.06.89h31.991l.069,0a1.074,1.074,0,0,0,.99-.888.964.964,0,0,0,.017-.187v-5.18a1.075,1.075,0,0,0-1.076-1.077H94.79a1.077,1.077,0,0,0-1.077,1.077" fill="#ef7e6b"/>
        <path id="Trazado_134497" data-name="Trazado 134497" d="M115.74,143.835v7.332h11.2a.914.914,0,0,0,.914-.888V144.75a.914.914,0,0,0-.915-.915Z" fill="#f49c68"/>
        <path id="Trazado_134498" data-name="Trazado 134498" d="M108.81,151.167h2.253v-7.332H108.81v7.332Z" fill="#f49c68"/>
        <rect id="Rectángulo_38448" data-name="Rectángulo 38448" width="3.574" height="7.334" transform="translate(121.728 143.835)" fill="#fbc387"/>
        <path id="Trazado_134499" data-name="Trazado 134499" d="M94.371,151.169h1.055v-7.334H94.371a.659.659,0,0,0-.658.658v6.018a.658.658,0,0,0,.658.658" fill="#f49c68"/>
        <path id="Trazado_134500" data-name="Trazado 134500" d="M93.73,150.279a1.078,1.078,0,0,0,1.06.89h32.179a.888.888,0,0,0,.888-.89Z" fill="#ec7724"/>
        <path id="Trazado_134501" data-name="Trazado 134501" d="M94.562,152.246v5.18a1.078,1.078,0,0,0,1.02,1.077H127.63c.028,0,.055,0,.083,0a1.077,1.077,0,0,0,.975-.887.907.907,0,0,0,.017-.188v-5.18a1.075,1.075,0,0,0-1.075-1.077H95.638a1.075,1.075,0,0,0-1.076,1.077" fill="#ef7e6b"/>
        <path id="Trazado_134502" data-name="Trazado 134502" d="M116.588,151.169V158.5h11.2a.914.914,0,0,0,.914-.887v-5.53a.915.915,0,0,0-.915-.915Z" fill="#f49c68"/>
        <path id="Trazado_134503" data-name="Trazado 134503" d="M109.659,158.5h2.253v-7.332h-2.253V158.5Z" fill="#f49c68"/>
        <rect id="Rectángulo_38449" data-name="Rectángulo 38449" width="3.574" height="7.334" transform="translate(122.576 151.169)" fill="#fbc387"/>
        <path id="Trazado_134504" data-name="Trazado 134504" d="M95.219,158.5h1.055v-7.334H95.219a.659.659,0,0,0-.658.658v6.018a.658.658,0,0,0,.658.658" fill="#f49c68"/>
        <path id="Trazado_134505" data-name="Trazado 134505" d="M94.578,157.614a1.082,1.082,0,0,0,1,.889h32.235a.891.891,0,0,0,.888-.89Z" fill="#ec7724"/>
        <path id="Trazado_134506" data-name="Trazado 134506" d="M120.417,144.765v5.474c0,.014,0,.027,0,.04a.93.93,0,0,0,.87.888l.059,0h.849a.93.93,0,0,0-.93.93v5.474c0,.014,0,.028,0,.042a.928.928,0,0,0,.869.886l.06,0H130.9a.891.891,0,0,0,.888-.889h0v-5.531a.916.916,0,0,0-.916-.915h-.821a.888.888,0,0,0,.888-.89h0V144.75a.914.914,0,0,0-.915-.915h3.415a.889.889,0,0,0,.888-.89h0v-5.53a.915.915,0,0,0-.915-.915H130.9a.889.889,0,0,0,.888-.89h0v-5.529a.915.915,0,0,0-.916-.915H122.2a.929.929,0,0,0-.93.93v5.474c0,.014,0,.027,0,.04a.929.929,0,0,0,.869.888l.06,0h2.539a.93.93,0,0,0-.93.93V142.9c0,.014,0,.027,0,.041a.93.93,0,0,0,.869.887l.06,0h-3.388a.93.93,0,0,0-.93.93" fill="#d4524c"/>
        <path id="Trazado_134507" data-name="Trazado 134507" d="M143.664,137.577v5.18a1.077,1.077,0,0,0,1.076,1.077h31.992a1.08,1.08,0,0,0,1.076-1.077v-5.18a1.075,1.075,0,0,0-1.076-1.077H144.74a1.077,1.077,0,0,0-1.076,1.077" fill="#ef7e6b"/>
        <path id="Trazado_134508" data-name="Trazado 134508" d="M165.691,143.832h11.2a.915.915,0,0,0,.915-.915v-5.5a.915.915,0,0,0-.915-.915h-11.2v7.332Z" fill="#f49c68"/>
        <path id="Trazado_134509" data-name="Trazado 134509" d="M158.761,143.832h2.253V136.5h-2.253v7.332Z" fill="#f49c68"/>
        <rect id="Rectángulo_38450" data-name="Rectángulo 38450" width="3.574" height="7.334" transform="translate(171.679 136.5)" fill="#fbc387"/>
        <path id="Trazado_134510" data-name="Trazado 134510" d="M144.322,143.834h1.055V136.5h-1.055a.659.659,0,0,0-.658.658v6.018a.658.658,0,0,0,.658.658" fill="#f49c68"/>
        <path id="Trazado_134511" data-name="Trazado 134511" d="M143.681,142.945a1.078,1.078,0,0,0,1.059.89h32.18a.891.891,0,0,0,.888-.89Z" fill="#ec7724"/>
        <path id="Trazado_134512" data-name="Trazado 134512" d="M148.619,144.912v5.18a1.077,1.077,0,0,0,1.076,1.077h31.992a1.08,1.08,0,0,0,1.076-1.077v-5.18a1.075,1.075,0,0,0-1.076-1.077H149.7a1.077,1.077,0,0,0-1.076,1.077" fill="#ef7e6b"/>
        <path id="Trazado_134513" data-name="Trazado 134513" d="M170.646,151.167h11.2a.915.915,0,0,0,.915-.915v-5.5a.915.915,0,0,0-.915-.915h-11.2v7.332Z" fill="#f49c68"/>
        <path id="Trazado_134514" data-name="Trazado 134514" d="M163.716,151.167h2.253v-7.332h-2.253v7.332Z" fill="#f49c68"/>
        <rect id="Rectángulo_38451" data-name="Rectángulo 38451" width="3.574" height="7.334" transform="translate(176.634 143.835)" fill="#fbc387"/>
        <path id="Trazado_134515" data-name="Trazado 134515" d="M149.277,151.169h1.055v-7.334h-1.055a.659.659,0,0,0-.658.658v6.018a.658.658,0,0,0,.658.658" fill="#f49c68"/>
        <path id="Trazado_134516" data-name="Trazado 134516" d="M148.636,150.279a1.078,1.078,0,0,0,1.059.89h32.18a.891.891,0,0,0,.888-.89Z" fill="#ec7724"/>
        <path id="Trazado_134517" data-name="Trazado 134517" d="M147.068,152.247v5.18a1.076,1.076,0,0,0,1.076,1.076h31.992a1.079,1.079,0,0,0,1.076-1.076v-5.18a1.075,1.075,0,0,0-1.076-1.077H148.144a1.077,1.077,0,0,0-1.076,1.077" fill="#ef7e6b"/>
        <path id="Trazado_134518" data-name="Trazado 134518" d="M169.1,158.5h11.2a.915.915,0,0,0,.915-.915v-5.5a.915.915,0,0,0-.915-.915H169.1V158.5Z" fill="#f49c68"/>
        <path id="Trazado_134519" data-name="Trazado 134519" d="M162.165,158.5h2.253v-7.332h-2.253V158.5Z" fill="#f49c68"/>
        <rect id="Rectángulo_38452" data-name="Rectángulo 38452" width="3.574" height="7.334" transform="translate(175.083 151.169)" fill="#fbc387"/>
        <path id="Trazado_134520" data-name="Trazado 134520" d="M147.726,158.5h1.055v-7.334h-1.055a.659.659,0,0,0-.658.658v6.018a.658.658,0,0,0,.658.658" fill="#f49c68"/>
        <path id="Trazado_134521" data-name="Trazado 134521" d="M147.085,157.614a1.078,1.078,0,0,0,1.059.89h32.18a.891.891,0,0,0,.888-.89Z" fill="#ec7724"/>
        <path id="Trazado_134522" data-name="Trazado 134522" d="M124.082,122.908v5.18a1.077,1.077,0,0,0,1.076,1.077H157.15a1.08,1.08,0,0,0,1.076-1.077v-5.18a1.075,1.075,0,0,0-1.076-1.077H125.158a1.077,1.077,0,0,0-1.076,1.077" fill="#ef7e6b"/>
        <path id="Trazado_134523" data-name="Trazado 134523" d="M146.109,129.162h11.2a.915.915,0,0,0,.915-.914v-5.5a.915.915,0,0,0-.915-.914h-11.2v7.331Z" fill="#f49c68"/>
        <path id="Trazado_134524" data-name="Trazado 134524" d="M139.179,129.163h2.253v-7.332h-2.253v7.332Z" fill="#f49c68"/>
        <rect id="Rectángulo_38453" data-name="Rectángulo 38453" width="3.574" height="7.334" transform="translate(152.097 121.831)" fill="#fbc387"/>
        <path id="Trazado_134525" data-name="Trazado 134525" d="M124.74,129.165h1.054v-7.334H124.74a.659.659,0,0,0-.659.658v6.018a.658.658,0,0,0,.659.658" fill="#f49c68"/>
        <path id="Trazado_134526" data-name="Trazado 134526" d="M124.1,128.275a1.078,1.078,0,0,0,1.059.89h32.18a.891.891,0,0,0,.888-.89Z" fill="#ec7724"/>
        <path id="Trazado_134527" data-name="Trazado 134527" d="M126.872,115.573v5.18a1.077,1.077,0,0,0,1.076,1.077H159.94a1.08,1.08,0,0,0,1.076-1.077v-5.18a1.077,1.077,0,0,0-1.076-1.077H127.948a1.077,1.077,0,0,0-1.076,1.077" fill="#ef7e6b"/>
        <path id="Trazado_134528" data-name="Trazado 134528" d="M148.9,121.828h11.2a.915.915,0,0,0,.915-.915v-5.5a.915.915,0,0,0-.915-.915H148.9v7.332Z" fill="#f49c68"/>
        <path id="Trazado_134529" data-name="Trazado 134529" d="M141.969,121.828h2.253V114.5h-2.253v7.332Z" fill="#f49c68"/>
        <rect id="Rectángulo_38454" data-name="Rectángulo 38454" width="3.574" height="7.334" transform="translate(154.886 114.496)" fill="#fbc387"/>
        <path id="Trazado_134530" data-name="Trazado 134530" d="M127.529,121.83h1.055V114.5h-1.055a.659.659,0,0,0-.658.658v6.018a.658.658,0,0,0,.658.658" fill="#f49c68"/>
        <path id="Trazado_134531" data-name="Trazado 134531" d="M126.889,120.941a1.078,1.078,0,0,0,1.059.89h32.18a.891.891,0,0,0,.888-.89Z" fill="#ec7724"/>
        <path id="Trazado_134532" data-name="Trazado 134532" d="M123.8,130.243v5.18a1.077,1.077,0,0,0,1.076,1.077h31.992a1.08,1.08,0,0,0,1.076-1.077v-5.18a1.075,1.075,0,0,0-1.076-1.077H124.88a1.077,1.077,0,0,0-1.076,1.077" fill="#ef7e6b"/>
        <path id="Trazado_134533" data-name="Trazado 134533" d="M145.831,136.5h11.2a.915.915,0,0,0,.915-.915v-5.5a.915.915,0,0,0-.915-.915h-11.2V136.5Z" fill="#f49c68"/>
        <path id="Trazado_134534" data-name="Trazado 134534" d="M138.9,136.5h2.253v-7.332H138.9V136.5Z" fill="#f49c68"/>
        <rect id="Rectángulo_38455" data-name="Rectángulo 38455" width="3.574" height="7.334" transform="translate(151.818 129.165)" fill="#fbc387"/>
        <path id="Trazado_134535" data-name="Trazado 134535" d="M124.461,136.5h1.055v-7.334h-1.055a.659.659,0,0,0-.658.658v6.018a.658.658,0,0,0,.658.658" fill="#f49c68"/>
        <path id="Trazado_134536" data-name="Trazado 134536" d="M123.821,135.61a1.078,1.078,0,0,0,1.059.89h32.18a.891.891,0,0,0,.888-.89Z" fill="#ec7724"/>
        <path id="Trazado_134537" data-name="Trazado 134537" d="M126.343,137.577v5.18a1.077,1.077,0,0,0,1.076,1.077h31.992a1.08,1.08,0,0,0,1.076-1.077v-5.18a1.075,1.075,0,0,0-1.076-1.077H127.419a1.077,1.077,0,0,0-1.076,1.077" fill="#ef7e6b"/>
        <path id="Trazado_134538" data-name="Trazado 134538" d="M148.37,143.832h11.2a.915.915,0,0,0,.915-.915v-5.5a.915.915,0,0,0-.915-.915h-11.2v7.332Z" fill="#f49c68"/>
        <path id="Trazado_134539" data-name="Trazado 134539" d="M141.44,143.832h2.253V136.5H141.44v7.332Z" fill="#f49c68"/>
        <rect id="Rectángulo_38456" data-name="Rectángulo 38456" width="3.574" height="7.334" transform="translate(154.358 136.5)" fill="#fbc387"/>
        <path id="Trazado_134540" data-name="Trazado 134540" d="M127,143.834h1.055V136.5H127a.659.659,0,0,0-.658.658v6.018a.658.658,0,0,0,.658.658" fill="#f49c68"/>
        <path id="Trazado_134541" data-name="Trazado 134541" d="M126.36,142.945a1.078,1.078,0,0,0,1.059.89H159.6a.891.891,0,0,0,.888-.89Z" fill="#ec7724"/>
        <path id="Trazado_134542" data-name="Trazado 134542" d="M122.955,144.912v5.18a1.077,1.077,0,0,0,1.076,1.077h31.992a1.08,1.08,0,0,0,1.076-1.077v-5.18a1.077,1.077,0,0,0-1.076-1.077H124.031a1.077,1.077,0,0,0-1.076,1.077" fill="#ef7e6b"/>
        <path id="Trazado_134543" data-name="Trazado 134543" d="M144.982,151.167h11.2a.915.915,0,0,0,.915-.915v-5.5a.915.915,0,0,0-.915-.915h-11.2v7.332Z" fill="#f49c68"/>
        <path id="Trazado_134544" data-name="Trazado 134544" d="M138.052,151.167h2.253v-7.332h-2.253v7.332Z" fill="#f49c68"/>
        <rect id="Rectángulo_38457" data-name="Rectángulo 38457" width="3.574" height="7.334" transform="translate(150.97 143.835)" fill="#fbc387"/>
        <path id="Trazado_134545" data-name="Trazado 134545" d="M123.613,151.169h1.055v-7.334h-1.055a.659.659,0,0,0-.658.658v6.018a.658.658,0,0,0,.658.658" fill="#f49c68"/>
        <path id="Trazado_134546" data-name="Trazado 134546" d="M122.973,150.279a1.076,1.076,0,0,0,1.059.89h32.18a.891.891,0,0,0,.888-.89Z" fill="#ec7724"/>
        <path id="Trazado_134547" data-name="Trazado 134547" d="M123.8,152.247v5.18a1.075,1.075,0,0,0,1.076,1.076h31.992a1.079,1.079,0,0,0,1.076-1.076v-5.18a1.075,1.075,0,0,0-1.076-1.077H124.88a1.077,1.077,0,0,0-1.076,1.077" fill="#ef7e6b"/>
        <path id="Trazado_134548" data-name="Trazado 134548" d="M145.831,158.5h11.2a.915.915,0,0,0,.915-.915v-5.5a.915.915,0,0,0-.915-.915h-11.2V158.5Z" fill="#f49c68"/>
        <path id="Trazado_134549" data-name="Trazado 134549" d="M138.9,158.5h2.253v-7.332H138.9V158.5Z" fill="#f49c68"/>
        <rect id="Rectángulo_38458" data-name="Rectángulo 38458" width="3.574" height="7.334" transform="translate(151.818 151.169)" fill="#fbc387"/>
        <path id="Trazado_134550" data-name="Trazado 134550" d="M124.461,158.5h1.055v-7.334h-1.055a.659.659,0,0,0-.658.658v6.018a.658.658,0,0,0,.658.658" fill="#f49c68"/>
        <path id="Trazado_134551" data-name="Trazado 134551" d="M123.821,157.614a1.078,1.078,0,0,0,1.059.89h32.18a.891.891,0,0,0,.888-.89Z" fill="#ec7724"/>
        <path id="Trazado_134552" data-name="Trazado 134552" d="M135.384,143.173a16.37,16.37,0,1,0,15.653-17.057,16.369,16.369,0,0,0-15.653,17.057" fill="#d4524c"/>
        <path id="Trazado_134553" data-name="Trazado 134553" d="M137.881,141.993c.228,22.141,32.6,22.522,33.469.534-.187-22.02-32.52-22.656-33.469-.534" fill="#fbc387"/>
        <path id="Trazado_134554" data-name="Trazado 134554" d="M138.571,142c.023,21.1,31.4,21.6,32.09.512-.024-21.1-31.4-21.594-32.09-.512" fill="#f49c68"/>
        <path id="Trazado_134555" data-name="Trazado 134555" d="M159.013,142.641c-1.231-1.839-4.965-1.944-6.586-2.862-1.827-2.626,4.429-3.213,4.217-.421.061.868,1.7.413,2.216.5a.581.581,0,0,0,.634-.611c-.132-3.023-2.411-4.716-5.369-4.642-3.961-.292-6.524,4.554-3.745,7.347.928,1.219,4.9,1.689,6.088,2.4,2.214,2.241-2.212,3.705-3.832,2.238-1.715-1.4.28-2.649-3.1-2.294a.621.621,0,0,0-.46.177c-.97,8.788,14.737,6.549,9.935-1.838" fill="#ef7e6b"/>
        <path id="Trazado_134556" data-name="Trazado 134556" d="M155.215,132.833c-2.655-.051-1.7.058-1.831,2.324l2.173-.035c-.1-.273.235-2.366-.342-2.289" fill="#ef7e6b"/>
        <path id="Trazado_134557" data-name="Trazado 134557" d="M153.953,151.679c2.655.051,1.7-.058,1.831-2.324l-2.173.035c.1.273-.235,2.366.342,2.289" fill="#ef7e6b"/>
        <g id="Grupo_159066" data-name="Grupo 159066" opacity="0.42">
          <g id="Grupo_159065" data-name="Grupo 159065">
            <g id="Grupo_159064" data-name="Grupo 159064" clip-path="url(#clip-path-3)">
              <path id="Trazado_134558" data-name="Trazado 134558" d="M147.771,126.982l21.9,22.606a16.787,16.787,0,0,0,1.666-8.133l-15.38-15.878a16.774,16.774,0,0,0-8.182,1.4" fill="#fff"/>
            </g>
          </g>
        </g>
        <g id="Grupo_159069" data-name="Grupo 159069" opacity="0.42">
          <g id="Grupo_159068" data-name="Grupo 159068">
            <g id="Grupo_159067" data-name="Grupo 159067" clip-path="url(#clip-path-4)">
              <path id="Trazado_134559" data-name="Trazado 134559" d="M144.373,129.023l23.145,23.9a16.729,16.729,0,0,0,1.417-1.991l-22.526-23.257a16.681,16.681,0,0,0-2.036,1.352" fill="#fff"/>
            </g>
          </g>
        </g>
        <path id="Trazado_134560" data-name="Trazado 134560" d="M141.235,129.248c2.783.065,3.4.705,3.338,3.487.057-2.782.7-3.393,3.478-3.328-2.783-.065-3.395-.7-3.338-3.487-.057,2.783-.695,3.393-3.478,3.328" fill="#fff"/>
        <path id="Trazado_134561" data-name="Trazado 134561" d="M102.494,133.014a16.4,16.4,0,0,0,4.528.179,6.7,6.7,0,0,0,.048,4.737l-1.815-.3c-.489-.081-.977-.162-1.469-.222-.248-.03-.5-.055-.747-.072a2.09,2.09,0,0,1-.648-.054c-.191-.086-.13-.235-.09-.407q.084-.357.142-.719a10.85,10.85,0,0,0,.051-3.143" fill="#f49c68"/>
        <path id="Trazado_134562" data-name="Trazado 134562" d="M101.968,136.811a7.028,7.028,0,0,0-.235,2.817,12.468,12.468,0,0,0,5.305,3.457,11.3,11.3,0,0,0,6.019.232c.353-.084.749-.226.875-.566a.807.807,0,0,0-.256-.83,2.7,2.7,0,0,0-.8-.454,13,13,0,0,1-6.009-5.439,18.287,18.287,0,0,1-4.9.783" fill="#064679"/>
        <path id="Trazado_134563" data-name="Trazado 134563" d="M101.7,139.224a2.182,2.182,0,0,0,.879,1.2,13.909,13.909,0,0,0,4.6,2.607,10.155,10.155,0,0,0,5.546.173,2.1,2.1,0,0,0,.643-.287.73.73,0,0,0,.4-.722c-.032-.1-.131-.279-.125-.3.151,0,.3.222.34.314a3.188,3.188,0,0,1,.166,1.057,1.383,1.383,0,0,1-.993,1.373,10.82,10.82,0,0,1-1.161.287,12.094,12.094,0,0,1-2.383.228,13.763,13.763,0,0,1-2.5-.335,6.486,6.486,0,0,1-2.34-1.085l-3.061-2.128a5.132,5.132,0,0,1-.015-2.384" fill="#064679"/>
        <path id="Trazado_134564" data-name="Trazado 134564" d="M120.549,96.7a9.437,9.437,0,0,1-.38,2.327l-11.763,36.449a24.528,24.528,0,0,1-6.414-1.467c-.194-5.284,3.565-24.024,6.044-28.694a64.024,64.024,0,0,1-8.377,3.1c-2.389.76-4.95,1.623-8.423,2.453-.112.026-.551.135-1.148.286-1.253.318-3.2.82-4.243,1.134h0a4.325,4.325,0,0,0-.7.247l1.3-15.317a34.058,34.058,0,0,1,5.626-1.454l.233-.05c1.072-.237,1.984-.44,2.792-.617a83.549,83.549,0,0,1,8.611-1.521c3.693-.487,6.283-.938,8.612-1.02a16.967,16.967,0,0,1,5.116.557,5.4,5.4,0,0,1,2.353,1.408,3.189,3.189,0,0,1,.766,2.178" fill="#064679"/>
        <path id="Trazado_134565" data-name="Trazado 134565" d="M66.685,144.495a17.7,17.7,0,0,0,4.858-.507,7.225,7.225,0,0,0,.782,5.045l-1.983-.039c-.533-.011-1.067-.022-1.6-.01-.269.006-.539.018-.808.038a2.238,2.238,0,0,1-.7.042c-.217-.062-.174-.23-.158-.42.023-.262.036-.525.041-.788a11.819,11.819,0,0,0-.081-1.6,11.653,11.653,0,0,0-.35-1.765" fill="#f49c68"/>
        <path id="Trazado_134566" data-name="Trazado 134566" d="M78.19,87.567a43.912,43.912,0,0,0-2.68,10.444c-.4,3.552-.195,8.388-3.122,17.52-2.711,9.233-4.8,23.424-6.322,29.61,4.448.975,6.717.345,6.717.345s7.3-20.156,8.519-22.873c4.551-9.45,11.053-26.79,11.9-29.453.723-1.706-2.64-4.708-4.415-6.654-3.067.76-7.483,1.733-10.6,1.061" fill="#064679"/>
        <path id="Trazado_134567" data-name="Trazado 134567" d="M95.125,94.985l-.034.108c-.6,1.914-2.5,8.8-5,16.057-1.254.317-3.2.82-4.244,1.134,2-5.972,5.277-13.965,6.221-16.524.093-.25.163-.448.207-.588.632-1.489-.055-5.5-1.419-7.786.1-.02.205-.039.306-.056a2.859,2.859,0,0,1,1.682.027,11.928,11.928,0,0,1,2.309,3.827,7.625,7.625,0,0,1-.025,3.8" fill="#064679"/>
        <path id="Trazado_134568" data-name="Trazado 134568" d="M78.423,98.389c.014-.111.468-3.128.483-3.239a4.914,4.914,0,0,1-1.492-.3,10.552,10.552,0,0,1-1.335-.445c-.049.324-.57,3.246-.611,3.57-.4,3.551-.194,8.387-3.122,17.52-.563,1.918-2.981,13.5-3,14.059,2.563-1.248,5.161-10.952,5.95-13.64,2.928-9.134,2.726-13.97,3.122-17.521" fill="#064679"/>
        <path id="Trazado_134569" data-name="Trazado 134569" d="M66.632,148.457a7.568,7.568,0,0,0-.06,3.046,13.442,13.442,0,0,0,5.943,3.355,12.173,12.173,0,0,0,6.49-.164c.374-.114.79-.294.9-.668a.868.868,0,0,0-.332-.875,2.918,2.918,0,0,0-.887-.434,14.007,14.007,0,0,1-6.836-5.439,19.719,19.719,0,0,1-5.22,1.179" fill="#064679"/>
        <path id="Trazado_134570" data-name="Trazado 134570" d="M66.506,151.07a2.355,2.355,0,0,0,1.028,1.236,15.009,15.009,0,0,0,5.131,2.488,10.948,10.948,0,0,0,5.977-.194,2.3,2.3,0,0,0,.672-.353.784.784,0,0,0,.386-.8c-.042-.109-.16-.291-.155-.318.162-.008.336.221.387.316a3.411,3.411,0,0,1,.251,1.125,1.491,1.491,0,0,1-.974,1.545,11.924,11.924,0,0,1-1.229.389,13.127,13.127,0,0,1-2.548.409,14.818,14.818,0,0,1-2.717-.19,6.969,6.969,0,0,1-2.591-1.007l-3.438-2.078a5.525,5.525,0,0,1-.18-2.564" fill="#064679"/>
        <path id="Trazado_134571" data-name="Trazado 134571" d="M82.086,63.453a3.7,3.7,0,0,0,2.737,1.979,6.044,6.044,0,0,0,3.722-.383,10.449,10.449,0,0,0,3.122-2.281,7.4,7.4,0,0,1-.925-1.213,9.379,9.379,0,0,1-1.051-2.507,13.821,13.821,0,0,1-.4-2.189,10.333,10.333,0,0,1-.01-1.967,7.031,7.031,0,0,1-6.374.328,41.157,41.157,0,0,0-.507,4.295c-.086,1.13-.153,2.245-.252,3.344q-.027.3-.057.594" fill="#f49c68"/>
        <path id="Trazado_134572" data-name="Trazado 134572" d="M82.585,57.46a4.121,4.121,0,0,0,1.438,1.555,5.68,5.68,0,0,0,1.682.671,14.98,14.98,0,0,0,4.152-.1q-.1-.31-.186-.626c-.1-.377-.229-1.025-.3-1.4a15.725,15.725,0,0,1-5.015.28,4.516,4.516,0,0,1-1.552-.473.922.922,0,0,1-.191-.2s-.032.293-.03.3" fill="#f0836e"/>
        <path id="Trazado_134573" data-name="Trazado 134573" d="M102.281,65.837c1.825-.362,5.026-.967,7.406-1.183-.474-2.649-1.069-14.287-1.084-14.444a18.1,18.1,0,0,0,3.9.209c.031.256,3.195,12.005,3.733,15.582a1.987,1.987,0,0,1-.36,1.838c-.1.518-9.306,5.543-13.408,5.587.15-2.692-.675-4.938-.183-7.589" fill="#f49c68"/>
        <path id="Trazado_134574" data-name="Trazado 134574" d="M110.714,70.9c-2.066.97-5.887,2.6-8.249,2.626h-.111l.006-.11a19.677,19.677,0,0,0-.164-3.271,14.376,14.376,0,0,1-.017-4.331l.013-.07.069-.013c3.088-.613,5.544-1.008,7.305-1.174-.193-1.171-.525-4.537-1.036-13.795-.016-.306-.029-.527-.03-.547l-.013-.134.133.022a17.938,17.938,0,0,0,3.871.208l.1-.006.014.1c.01.066.2.786.455,1.783.93,3.585,2.864,11.046,3.277,13.8a2.1,2.1,0,0,1-.378,1.918,11.094,11.094,0,0,1-2.639,1.694c-.817.438-1.731.9-2.6,1.306m-2-20.571c.005.089.013.225.023.423.527,9.56.863,12.825,1.052,13.88l.02.111-.113.011c-1.747.158-4.212.551-7.326,1.167a14.351,14.351,0,0,0,.033,4.2,20.521,20.521,0,0,1,.17,3.193c4.091-.131,12.962-4.98,13.2-5.5l.006-.036.028-.024a1.915,1.915,0,0,0,.324-1.744c-.411-2.74-2.344-10.194-3.273-13.776-.255-.986-.39-1.507-.439-1.712a18.3,18.3,0,0,1-3.7-.2" fill="#f49c68"/>
        <path id="Trazado_134575" data-name="Trazado 134575" d="M95.649,75.269l.091.08a7.018,7.018,0,0,1,.019-1.381l.461-1.8a6.987,6.987,0,0,1,3.725-3.791,5.222,5.222,0,0,1,2.393-.5c.009-.224.014-.443.013-.657-2.817-3.345-12.066-6.672-12.066-6.672a4.624,4.624,0,0,1-1.163,2.268,3.664,3.664,0,0,1-1.849.887A5.667,5.667,0,0,1,84,63.135,4.964,4.964,0,0,1,82.24,60.7s-3.157,1.41-4.527,2.151A19.778,19.778,0,0,0,75.406,64.3a4.355,4.355,0,0,0-1.88,2.059,8.414,8.414,0,0,0-.222,3.149,21.913,21.913,0,0,0,.359,3.458c.1.607.346,1.39.47,1.993.37,1.767.682,3.341,1.051,5.107a65.245,65.245,0,0,1,.287,7.587c0,1.791-.012,8.694-.012,8.694a107.756,107.756,0,0,0,11.4.676c4.363.053,8.089-1.276,8.787-1.275,0,0,.068-12.212.139-13.553.018-.341.039-.688.062-1.039a24.359,24.359,0,0,0,0-4.346c-.063-.517-.133-1.03-.2-1.542" fill="#e8edbc"/>
        <path id="Trazado_134576" data-name="Trazado 134576" d="M75.252,77.314a1.7,1.7,0,0,0-.284.509,7.376,7.376,0,0,0,.292,2.556,9.282,9.282,0,0,1,.083,2.583,21.3,21.3,0,0,1,6.877-.787c2.044.088,4.12.659,6.163.659a1.8,1.8,0,0,0,1.43-.234,1.548,1.548,0,0,0,.22-1.6,13.449,13.449,0,0,0-1.971-3.439,23.355,23.355,0,0,1-3.319-7.57c-.413-1.722-.736-3.672-2.167-4.715A1.177,1.177,0,0,0,81.691,65a1.338,1.338,0,0,0-.733.575c-1.93,2.55-2.508,5.783-3.766,8.662a14.215,14.215,0,0,1-1.07,2.037c-.213.33-.6.68-.87,1.041" fill="#90b193"/>
        <path id="Trazado_134577" data-name="Trazado 134577" d="M90.972,43.695a4.574,4.574,0,0,1,.814,3.678c-.038.15-.419,1.336-.419,1.336a4.494,4.494,0,0,0-.337-1.07,5.948,5.948,0,0,1-1.991-1.884,12.7,12.7,0,0,1-1.251-2.462,3.171,3.171,0,0,1-.222-.728c-.032-.228-.064-.693.253-.686a3.345,3.345,0,0,1,.884.183,4.526,4.526,0,0,1,1.581.883,4.332,4.332,0,0,1,.688.75" fill="#7d2345"/>
        <path id="Trazado_134578" data-name="Trazado 134578" d="M79.17,51.326c1.367,4.731,4.9,8.307,8.384,7.3s4.748-5.9,3.663-10.7c-1.2-5.3-5.437-7.907-8.92-6.9S77.8,46.6,79.17,51.326" fill="#f49c68"/>
        <path id="Trazado_134579" data-name="Trazado 134579" d="M91.366,48.709s1.857-6-3.595-6.485a13.422,13.422,0,0,1-3.035,3.448,8.926,8.926,0,0,0-2.044,1.671,4.8,4.8,0,0,0-.772,2.451,12.469,12.469,0,0,0,.407,4.442,1.107,1.107,0,0,0-.946-.458,3.238,3.238,0,0,0-1.1.283c.275.408.662.717.967,1.1a4.785,4.785,0,0,1,.744,1.748,4.629,4.629,0,0,1-2-.712,12.988,12.988,0,0,1-1.62-1.3c-1.091-.973-1.507-2.446-2.65-3.333-1.1-.854-2.488-1.765-2.7-3.144a5.527,5.527,0,0,1,.95-3.9,7.4,7.4,0,0,1,.936-1.011,11.1,11.1,0,0,0,.954-.795c.8-.933.684-2.377,1.4-3.376a4.15,4.15,0,0,1,2.991-1.39,9.938,9.938,0,0,0,3.316-.645c.741-.369,1.336-.979,2.059-1.38a4.215,4.215,0,0,1,3.178-.357,4.151,4.151,0,0,1,2.089,1.393,4.56,4.56,0,0,1,.649,2.191A17.6,17.6,0,0,0,91.62,41.9a15.548,15.548,0,0,0,.951,2.059,4.077,4.077,0,0,1-1.205,4.755" fill="#7d2345"/>
        <path id="Trazado_134580" data-name="Trazado 134580" d="M81.888,49.805a12.433,12.433,0,0,0,.036,2.566,13.041,13.041,0,0,1,.159-1.8,4.857,4.857,0,0,1,.994-2.387,9.336,9.336,0,0,1,2.24-1.51,21.617,21.617,0,0,0,3.6-3.368,5.782,5.782,0,0,0-1.142-1.082l-.072.1a12.821,12.821,0,0,1-2.99,3.357,8.97,8.97,0,0,0-2.05,1.674,4.789,4.789,0,0,0-.776,2.451" fill="#f0836e"/>
        <path id="Trazado_134581" data-name="Trazado 134581" d="M91.416,40.308a4.433,4.433,0,0,0-.053-3.649,4,4,0,0,0-3.145-2.033,3.758,3.758,0,0,0-2.57.954,7,7,0,0,0-1.641,2.2l.221.114a6.732,6.732,0,0,1,1.581-2.124,3.519,3.519,0,0,1,2.4-.9,3.741,3.741,0,0,1,2.938,1.9,4.187,4.187,0,0,1,.043,3.441Z" fill="#7d2345"/>
        <path id="Trazado_134582" data-name="Trazado 134582" d="M76.565,51.211l.235-.081a2.125,2.125,0,0,0-1.739-1.159c-.161-.027-.325-.049-.484-.07a3.61,3.61,0,0,1-1.462-.4,2.251,2.251,0,0,1-.952-1.495,4.822,4.822,0,0,1,.063-1.865,3.417,3.417,0,0,1,1.031-2.087,3.959,3.959,0,0,1,1.363-.585c.132-.038.263-.076.392-.118a2.312,2.312,0,0,0,1.589-1.2,2.712,2.712,0,0,0,.077-1.368,3.555,3.555,0,0,1-.023-.981A2.268,2.268,0,0,1,78.172,38.2a6.91,6.91,0,0,1,2.375-.287l2.859-.014v-.248l-2.859.014a7.208,7.208,0,0,0-2.46.3,2.514,2.514,0,0,0-1.676,1.8,3.737,3.737,0,0,0,.021,1.051,2.5,2.5,0,0,1-.059,1.244,2.094,2.094,0,0,1-1.435,1.054c-.127.04-.256.078-.386.115a4.144,4.144,0,0,0-1.447.629A3.635,3.635,0,0,0,71.982,46.1a5.166,5.166,0,0,0-.062,1.959,2.49,2.49,0,0,0,1.065,1.658,3.823,3.823,0,0,0,1.559.435c.157.021.319.042.475.069.477.081,1.313.319,1.546.995" fill="#7d2345"/>
        <path id="Trazado_134583" data-name="Trazado 134583" d="M112.754,51.432c-.1-.309-.206-.921-.315-1.227a11.826,11.826,0,0,1,.927-7.409,10.27,10.27,0,0,0,.672-1.775,1.818,1.818,0,0,0,.116-.981.306.306,0,0,0-.561-.093,22.529,22.529,0,0,0-.936,2.082.176.176,0,0,1-.333-.1,6.682,6.682,0,0,1,.378-1.166,10.7,10.7,0,0,0,.48-1.875,2.518,2.518,0,0,0-.027-1.023.325.325,0,0,0-.629-.007q-.519,1.9-1.2,3.74a.176.176,0,0,1-.34-.058,2.936,2.936,0,0,1,.182-1.086c.189-.547.309-1.173.5-1.72a5.843,5.843,0,0,0,.348-1.637.371.371,0,0,0-.7-.18,11.6,11.6,0,0,0-.736,2.587c-.18.761-.319,1.243-.631,2.211-.02.061-.049.136-.084.215a.178.178,0,0,1-.341-.077c.035-.728.24-1.723.284-2.263a5.74,5.74,0,0,0,.011-1.691.411.411,0,0,0-.758-.114,3.355,3.355,0,0,0-.33,1.206l-.705,5.609c-.054.43-.2.962-.645,1.009a.636.636,0,0,1-.407-.109,3.1,3.1,0,0,1-.617-.705,3.792,3.792,0,0,0-1.269-1,.279.279,0,0,0-.359.378,9.5,9.5,0,0,0,2.013,2.5,5.675,5.675,0,0,1,1.564,2.029c.116.3.14.729.233,1.1h0c.111.575.071,1.246.152,1.853" fill="#f49c68"/>
        <path id="Trazado_134584" data-name="Trazado 134584" d="M112.853,51.4c-.047-.142-.1-.359-.144-.57-.055-.238-.111-.485-.169-.651a11.63,11.63,0,0,1,.92-7.336,10.353,10.353,0,0,0,.679-1.793l.027-.095a1.763,1.763,0,0,0,.091-.935.4.4,0,0,0-.329-.318.411.411,0,0,0-.423.192,8.587,8.587,0,0,0-.6,1.293c-.106.265-.215.539-.339.8a.068.068,0,0,1-.087.038.067.067,0,0,1-.05-.08,4.777,4.777,0,0,1,.279-.9c.032-.083.064-.166.094-.249a10.734,10.734,0,0,0,.484-1.894,2.6,2.6,0,0,0-.027-1.065.43.43,0,0,0-.831-.009c-.343,1.255-.747,2.511-1.2,3.731a.065.065,0,0,1-.076.045.071.071,0,0,1-.063-.072,2.849,2.849,0,0,1,.176-1.047c.1-.282.178-.588.255-.883s.15-.573.241-.838a5.905,5.905,0,0,0,.353-1.667.458.458,0,0,0-.351-.469.466.466,0,0,0-.544.239,8.14,8.14,0,0,0-.608,2c-.044.205-.088.41-.136.614-.179.752-.314,1.226-.629,2.2-.018.055-.045.125-.08.207a.072.072,0,0,1-.086.043.07.07,0,0,1-.057-.075c.02-.419.1-.937.168-1.393.05-.328.1-.638.116-.866.007-.09.014-.178.022-.263a4.706,4.706,0,0,0-.013-1.46.515.515,0,0,0-.429-.4.5.5,0,0,0-.52.254,3.4,3.4,0,0,0-.343,1.244l-.705,5.609c-.073.578-.259.888-.554.918a.529.529,0,0,1-.339-.092,1.655,1.655,0,0,1-.417-.451c-.056-.078-.113-.158-.176-.234a3.939,3.939,0,0,0-1.309-1.027.382.382,0,0,0-.492.519,9.64,9.64,0,0,0,2.036,2.536,5.587,5.587,0,0,1,1.537,1.99,3.363,3.363,0,0,1,.138.613c.025.155.051.316.089.469v0a7.075,7.075,0,0,1,.09,1.009c.012.278.025.565.061.838l.205-.027c-.035-.264-.047-.547-.059-.82a8.594,8.594,0,0,0-.066-.872l.015,0-.044-.177c-.036-.148-.062-.307-.088-.462a3.414,3.414,0,0,0-.149-.653,5.781,5.781,0,0,0-1.59-2.069,9.449,9.449,0,0,1-1.99-2.474.172.172,0,0,1,.031-.2.17.17,0,0,1,.194-.041,3.7,3.7,0,0,1,1.23.969c.059.07.112.144.168.222a1.842,1.842,0,0,0,.472.5.736.736,0,0,0,.474.126c.4-.043.651-.412.737-1.1L108.828,39a3.239,3.239,0,0,1,.317-1.168.3.3,0,0,1,.31-.151.305.305,0,0,1,.257.237,4.539,4.539,0,0,1,.008,1.4c-.007.085-.015.174-.022.264-.018.221-.064.527-.114.851-.07.462-.149.985-.17,1.415a.282.282,0,0,0,.54.124c.038-.088.067-.164.087-.225.317-.983.454-1.46.634-2.219.048-.2.093-.411.137-.618a7.808,7.808,0,0,1,.59-1.944.259.259,0,0,1,.306-.134.254.254,0,0,1,.2.261,5.725,5.725,0,0,1-.343,1.608c-.092.273-.17.567-.244.852s-.156.593-.251.868a3.031,3.031,0,0,0-.187,1.125.28.28,0,0,0,.238.267.271.271,0,0,0,.3-.178c.455-1.226.861-2.487,1.206-3.749a.223.223,0,0,1,.43.005,2.413,2.413,0,0,1,.024.98,10.579,10.579,0,0,1-.474,1.857c-.03.082-.062.165-.094.247a4.77,4.77,0,0,0-.289.938.279.279,0,0,0,.528.164c.127-.265.237-.542.345-.81A8.449,8.449,0,0,1,113.682,40a.2.2,0,0,1,.211-.1.194.194,0,0,1,.161.155,1.553,1.553,0,0,1-.087.836l-.028.1a10.063,10.063,0,0,1-.665,1.758,11.831,11.831,0,0,0-.936,7.473l0,.016a6.44,6.44,0,0,1,.164.636c.052.225.1.438.15.589Z" fill="#f49c68"/>
        <path id="Trazado_134585" data-name="Trazado 134585" d="M95.727,85.73c.263-3.508.2-8.047.345-12.985a69.754,69.754,0,0,0,7.914.852,24.629,24.629,0,0,0,1.191-7.542c-3.629-2.271-9.583-5.371-13.857-5.122" fill="#e8edbc"/>
        <path id="Trazado_134586" data-name="Trazado 134586" d="M86.13,76.422a13.081,13.081,0,1,0,12.508-13.63A13.081,13.081,0,0,0,86.13,76.422" fill="#d4524c"/>
        <path id="Trazado_134587" data-name="Trazado 134587" d="M88.126,75.479c.182,17.692,26.052,18,26.743.427-.147-17.6-25.986-18.1-26.743-.427" fill="#fbc387"/>
        <path id="Trazado_134588" data-name="Trazado 134588" d="M88.676,75.488c.019,16.858,25.088,17.256,25.643.409-.019-16.859-25.089-17.255-25.643-.409" fill="#f49c68"/>
        <path id="Trazado_134589" data-name="Trazado 134589" d="M105.011,76c-.984-1.469-3.967-1.553-5.263-2.287-1.46-2.1,3.54-2.567,3.37-.336.049.693,1.358.33,1.771.4a.463.463,0,0,0,.506-.487c-.1-2.416-1.927-3.769-4.29-3.71-3.165-.233-5.213,3.639-2.993,5.871.742.974,3.918,1.35,4.866,1.921,1.769,1.791-1.768,2.961-3.062,1.789-1.371-1.118.223-2.117-2.477-1.833a.493.493,0,0,0-.367.141C96.3,84.488,108.848,82.7,105.011,76" fill="#ef7e6b"/>
        <path id="Trazado_134590" data-name="Trazado 134590" d="M101.977,68.16c-2.122-.041-1.356.046-1.464,1.857l1.737-.028c-.083-.218.188-1.89-.273-1.829" fill="#ef7e6b"/>
        <path id="Trazado_134591" data-name="Trazado 134591" d="M100.968,83.219c2.122.041,1.356-.046,1.463-1.857l-1.736.028c.083.218-.188,1.89.273,1.829" fill="#ef7e6b"/>
        <g id="Grupo_159072" data-name="Grupo 159072" opacity="0.42">
          <g id="Grupo_159071" data-name="Grupo 159071">
            <g id="Grupo_159070" data-name="Grupo 159070" clip-path="url(#clip-path-5)">
              <path id="Trazado_134592" data-name="Trazado 134592" d="M96.029,63.484l17.5,18.065a13.416,13.416,0,0,0,1.331-6.5l-12.29-12.688a13.393,13.393,0,0,0-6.538,1.122" fill="#fff"/>
            </g>
          </g>
        </g>
        <g id="Grupo_159075" data-name="Grupo 159075" opacity="0.42">
          <g id="Grupo_159074" data-name="Grupo 159074">
            <g id="Grupo_159073" data-name="Grupo 159073" clip-path="url(#clip-path-6)">
              <path id="Trazado_134593" data-name="Trazado 134593" d="M93.313,65.115l18.495,19.1a13.207,13.207,0,0,0,1.132-1.591l-18-18.585a13.39,13.39,0,0,0-1.627,1.081" fill="#fff"/>
            </g>
          </g>
        </g>
        <path id="Trazado_134594" data-name="Trazado 134594" d="M90.805,65.295c2.224.052,2.713.563,2.667,2.786.046-2.223.556-2.711,2.779-2.659-2.223-.052-2.713-.563-2.667-2.787-.046,2.224-.555,2.712-2.779,2.66" fill="#fff"/>
        <path id="Trazado_134595" data-name="Trazado 134595" d="M82.582,90.4c-.551-.073-5.511-8.877-5.788-13.2,2.844.007,4.284-.647,7.1-.277.484,1.9,1.3,5.24,1.663,7.736A120.629,120.629,0,0,1,98.21,82.71a23.341,23.341,0,0,1,2.825-.342,7.028,7.028,0,0,0,1.188,1.379,7.244,7.244,0,0,0,1,1.049l-4.357,1.785S88.6,89.842,84.539,90.674a2.1,2.1,0,0,1-1.957-.275" fill="#f0836e"/>
        <path id="Trazado_134596" data-name="Trazado 134596" d="M98.9,86.685c-.1.032-10.329,3.272-14.344,4.1a2.215,2.215,0,0,1-2.042-.291c-.453-.232-1.9-2.735-3.032-5.049-.977-2-2.642-5.732-2.8-8.232l-.007-.117h.116a23.671,23.671,0,0,0,2.973-.208,15.287,15.287,0,0,1,4.146-.069l.073.01L84,76.9c.819,3.219,1.373,5.785,1.648,7.629A121.437,121.437,0,0,1,98.191,82.6a23.293,23.293,0,0,1,2.838-.343l.063,0,.034.052a7.018,7.018,0,0,0,1.169,1.358l.014.014a7.116,7.116,0,0,0,.989,1.033l.136.116Zm2.074-4.2a23.516,23.516,0,0,0-2.758.339,119.758,119.758,0,0,0-12.635,1.948l-.116.027-.017-.118c-.265-1.831-.818-4.4-1.642-7.652a15.2,15.2,0,0,0-4.019.078,24.078,24.078,0,0,1-2.88.209c.2,2.438,1.79,6.015,2.731,7.95a23.327,23.327,0,0,0,2.959,5.03l.033,0,.026.028a2.022,2.022,0,0,0,1.856.244c4-.822,14.219-4.058,14.313-4.088l4.193-1.717a7.4,7.4,0,0,1-.88-.94,7.171,7.171,0,0,1-1.164-1.342M82.6,90.292Z" fill="#f0836e"/>
        <path id="Trazado_134597" data-name="Trazado 134597" d="M81.327,64.912a39.782,39.782,0,0,1,3.2,11.518c-3.445,1.984-4.725,2.853-8.7,2.929a50.432,50.432,0,0,1-2.372-10.081" fill="#e8edbc"/>
        <path id="Trazado_134598" data-name="Trazado 134598" d="M99.509,82.465c.529-.1,1.657-1.267,2.034-1.637A2.993,2.993,0,0,1,102.868,80a2.268,2.268,0,0,0-.221.612.75.75,0,0,0,.15.613c.259.291.719.235,1.1.156l4.413-.923a1.439,1.439,0,0,1,.568-.041.49.49,0,0,1,.4.358c.051.285-.255.518-.543.554L105.1,82.5a.724.724,0,0,0,.585.131,11.6,11.6,0,0,1,1.972-.317l2.039-.244c.162-.034.424.213.367.369a.624.624,0,0,1-.37.31,6.39,6.39,0,0,1-.79.257l-2.734.761,2.881.019a.361.361,0,0,1,.263.071.246.246,0,0,1-.015.324.672.672,0,0,1-.308.17,6.169,6.169,0,0,1-2.439.281c0,.046,0,.091,0,.137.115.091.281.04.422,0s.328-.046.4.084a.237.237,0,0,1-.069.271.655.655,0,0,1-.269.13,14.016,14.016,0,0,1-4.655.592,5.641,5.641,0,0,0-1.667.012" fill="#f0836e"/>
        <path id="Trazado_134599" data-name="Trazado 134599" d="M109.425,84.17a.331.331,0,0,0-.043-.384.462.462,0,0,0-.335-.1l-2.141-.013,2.02-.563a6.538,6.538,0,0,0,.8-.262.717.717,0,0,0,.427-.37.335.335,0,0,0-.093-.329.452.452,0,0,0-.393-.176l-2.02.241a3.964,3.964,0,0,0-1.2.165,5.829,5.829,0,0,1-.777.153,1.06,1.06,0,0,1-.3-.006l3.394-1.1a.807.807,0,0,0,.528-.3.477.477,0,0,0,.094-.374.594.594,0,0,0-.486-.441,1.535,1.535,0,0,0-.608.042l-4.413.922c-.372.078-.782.124-1-.123a.642.642,0,0,1-.125-.529,2.156,2.156,0,0,1,.212-.582l.1-.2-.213.054a3.029,3.029,0,0,0-1.374.857l-.119.118a6.881,6.881,0,0,1-1.861,1.491l.039.2a6.1,6.1,0,0,0,1.968-1.548l.119-.118a3.127,3.127,0,0,1,1.061-.735,1.709,1.709,0,0,0-.132.427.848.848,0,0,0,.175.7,1.233,1.233,0,0,0,1.2.188l4.413-.922a1.332,1.332,0,0,1,.526-.041.392.392,0,0,1,.322.274.27.27,0,0,1-.057.214.609.609,0,0,1-.4.219l-.019,0-3.809,1.23.127.12a.832.832,0,0,0,.667.158,5.815,5.815,0,0,0,.805-.157,3.7,3.7,0,0,1,1.149-.159h.02l2.039-.244a.261.261,0,0,1,.2.108.164.164,0,0,1,.055.122.531.531,0,0,1-.313.25,6.289,6.289,0,0,1-.777.253l-3.448.96,3.622.024a.3.3,0,0,1,.191.04.15.15,0,0,1-.021.183.6.6,0,0,1-.262.14,6.108,6.108,0,0,1-2.4.276l-.115-.01.006.3.038.03a.544.544,0,0,0,.5.021l.012,0c.109-.031.241-.034.275.031a.137.137,0,0,1-.046.148.594.594,0,0,1-.229.107,13.819,13.819,0,0,1-4.621.587c-.145-.006-.288-.017-.426-.028a3.832,3.832,0,0,0-1.27.043l.049.2a3.665,3.665,0,0,1,1.2-.039c.14.011.285.023.435.029a14.015,14.015,0,0,0,4.689-.6.759.759,0,0,0,.309-.152.343.343,0,0,0,.09-.4.24.24,0,0,0-.038-.056,6.3,6.3,0,0,0,1.6-.3.775.775,0,0,0,.355-.2.453.453,0,0,0,.053-.081" fill="#f0836e"/>
      </g>
    </g>
  </g>
</svg>
