<svg xmlns="http://www.w3.org/2000/svg" xmlns:xlink="http://www.w3.org/1999/xlink" width="514.744" height="264.134" viewBox="0 0 514.744 264.134">
  <defs>
    <linearGradient id="linear-gradient" x1="0.5" y1="-1.495" x2="0.512" y2="0.701" gradientUnits="objectBoundingBox">
      <stop offset="0" stop-color="#0f0f0f"/>
      <stop offset="1" stop-color="#939393" stop-opacity="0"/>
    </linearGradient>
    <linearGradient id="linear-gradient-3" y1="-0.931" x2="0.554" y2="1" xlink:href="#linear-gradient"/>
    <clipPath id="clip-path">
      <rect id="Rectángulo_38701" data-name="Rectángulo 38701" width="216.312" height="205.077" fill="none"/>
    </clipPath>
    <clipPath id="clip-path-2">
      <rect id="Rectángulo_38702" data-name="Rectángulo 38702" width="252.866" height="15.389" fill="url(#linear-gradient)"/>
    </clipPath>
    <clipPath id="clip-path-4">
      <rect id="Rectángulo_38702-3" data-name="Rectángulo 38702" width="122.667" height="15.389" fill="url(#linear-gradient-3)"/>
    </clipPath>
    <linearGradient id="linear-gradient-9" x1="0.5" y1="-0.063" x2="0.5" y2="1.121" gradientUnits="objectBoundingBox">
      <stop offset="0" stop-color="#f2f2f2"/>
      <stop offset="0.475" stop-color="#fff"/>
      <stop offset="1" stop-color="#bbb"/>
    </linearGradient>
    <filter id="Trazado_137057" x="177.5" y="53.8" width="164" height="164" filterUnits="userSpaceOnUse">
      <feOffset dy="3" input="SourceAlpha"/>
      <feGaussianBlur stdDeviation="3" result="blur"/>
      <feFlood flood-opacity="0.161"/>
      <feComposite operator="in" in2="blur"/>
      <feComposite in="SourceGraphic"/>
    </filter>
  </defs>
  <g id="Grupo_159650" data-name="Grupo 159650" transform="translate(10775.5 4543.8)">
    <path id="Trazado_137053" data-name="Trazado 137053" d="M.7,12V4.18H3.1a3.654,3.654,0,0,1,1.845.465A3.24,3.24,0,0,1,6.22,5.966a4.075,4.075,0,0,1,.457,1.947v.36a4.087,4.087,0,0,1-.448,1.939,3.212,3.212,0,0,1-1.265,1.316A3.682,3.682,0,0,1,3.121,12ZM2.31,5.485v5.221h.779a1.75,1.75,0,0,0,1.445-.618,2.791,2.791,0,0,0,.51-1.767V7.907A2.836,2.836,0,0,0,4.549,6.1,1.744,1.744,0,0,0,3.1,5.485Zm8.11,6.623a2.853,2.853,0,0,1-2.081-.784,2.787,2.787,0,0,1-.8-2.089v-.15a3.511,3.511,0,0,1,.338-1.566,2.483,2.483,0,0,1,.959-1.063,2.691,2.691,0,0,1,1.415-.373,2.412,2.412,0,0,1,1.877.752,3.056,3.056,0,0,1,.685,2.132V9.6h-3.7a1.442,1.442,0,0,0,.454.913,1.372,1.372,0,0,0,.959.344,1.675,1.675,0,0,0,1.4-.65l.763.854a2.33,2.33,0,0,1-.945.771A3.1,3.1,0,0,1,10.42,12.107Zm-.177-4.775a.97.97,0,0,0-.749.313,1.62,1.62,0,0,0-.368.9h2.159V8.417a1.156,1.156,0,0,0-.279-.8A1,1,0,0,0,10.243,7.333Zm8.685,1.815a3.519,3.519,0,0,1-.6,2.178,1.975,1.975,0,0,1-1.665.781,1.814,1.814,0,0,1-1.509-.725l-.07.618h-1.4V3.75h1.552V6.709a1.768,1.768,0,0,1,1.413-.628,1.991,1.991,0,0,1,1.668.781,3.524,3.524,0,0,1,.6,2.2Zm-1.552-.113A2.312,2.312,0,0,0,17.1,7.749a.944.944,0,0,0-.833-.406,1.024,1.024,0,0,0-1.021.607v2.293a1.038,1.038,0,0,0,1.031.612.958.958,0,0,0,.988-.741A3.824,3.824,0,0,0,17.375,9.035ZM21.522,12H19.964V6.188h1.558ZM19.873,4.685a.764.764,0,0,1,.234-.575,1.007,1.007,0,0,1,1.27,0,.76.76,0,0,1,.236.575.762.762,0,0,1-.239.58,1,1,0,0,1-1.262,0A.762.762,0,0,1,19.873,4.685ZM24.438,12H22.881V3.75h1.558Zm2.917,0H25.8V6.188h1.558ZM25.706,4.685a.764.764,0,0,1,.234-.575,1.007,1.007,0,0,1,1.27,0,.76.76,0,0,1,.236.575.762.762,0,0,1-.239.58,1,1,0,0,1-1.262,0A.762.762,0,0,1,25.706,4.685Zm2.686,4.367A3.5,3.5,0,0,1,29,6.887a1.978,1.978,0,0,1,1.668-.806,1.78,1.78,0,0,1,1.4.634V3.75h1.558V12h-1.4l-.075-.618a1.827,1.827,0,0,1-1.493.725,1.973,1.973,0,0,1-1.646-.808A3.615,3.615,0,0,1,28.392,9.051Zm1.552.116a2.294,2.294,0,0,0,.285,1.253.927.927,0,0,0,.827.436,1.039,1.039,0,0,0,1.015-.608v-2.3a1.024,1.024,0,0,0-1-.608Q29.944,7.343,29.944,9.167ZM38.2,12a1.724,1.724,0,0,1-.156-.521,1.878,1.878,0,0,1-1.466.628,2.063,2.063,0,0,1-1.415-.494,1.589,1.589,0,0,1-.561-1.246,1.642,1.642,0,0,1,.685-1.418,3.379,3.379,0,0,1,1.979-.5h.714V8.117a.958.958,0,0,0-.207-.645.813.813,0,0,0-.653-.242.925.925,0,0,0-.615.188.639.639,0,0,0-.223.516H34.729A1.559,1.559,0,0,1,35.041,7a2.059,2.059,0,0,1,.881-.674A3.21,3.21,0,0,1,37.2,6.081a2.536,2.536,0,0,1,1.705.54,1.888,1.888,0,0,1,.631,1.517v2.519a2.778,2.778,0,0,0,.231,1.251V12Zm-1.284-1.08a1.337,1.337,0,0,0,.634-.153,1,1,0,0,0,.43-.411v-1H37.4q-1.166,0-1.241.806l-.005.091a.621.621,0,0,0,.2.478A.793.793,0,0,0,36.916,10.92Zm3.572-1.869a3.5,3.5,0,0,1,.61-2.165,1.978,1.978,0,0,1,1.668-.806,1.78,1.78,0,0,1,1.4.634V3.75h1.558V12h-1.4l-.075-.618a1.827,1.827,0,0,1-1.493.725,1.973,1.973,0,0,1-1.646-.808A3.615,3.615,0,0,1,40.487,9.051Zm1.552.116a2.294,2.294,0,0,0,.285,1.253.927.927,0,0,0,.827.436,1.039,1.039,0,0,0,1.015-.608v-2.3a1.024,1.024,0,0,0-1-.608Q42.04,7.343,42.04,9.167ZM49.6,12.107a2.853,2.853,0,0,1-2.081-.784,2.787,2.787,0,0,1-.8-2.089v-.15a3.511,3.511,0,0,1,.338-1.566,2.483,2.483,0,0,1,.959-1.063,2.691,2.691,0,0,1,1.415-.373,2.412,2.412,0,0,1,1.877.752,3.056,3.056,0,0,1,.685,2.132V9.6h-3.7a1.442,1.442,0,0,0,.454.913,1.372,1.372,0,0,0,.959.344,1.675,1.675,0,0,0,1.4-.65l.763.854a2.33,2.33,0,0,1-.945.771A3.1,3.1,0,0,1,49.6,12.107Zm-.177-4.775a.97.97,0,0,0-.749.313,1.62,1.62,0,0,0-.368.9h2.159V8.417a1.156,1.156,0,0,0-.279-.8A1,1,0,0,0,49.425,7.333Zm6.6,3.062a.5.5,0,0,0-.282-.448,3.2,3.2,0,0,0-.905-.293Q52.76,9.218,52.76,7.891A1.6,1.6,0,0,1,53.4,6.6a2.589,2.589,0,0,1,1.678-.518,2.787,2.787,0,0,1,1.77.521,1.642,1.642,0,0,1,.663,1.354H55.961a.751.751,0,0,0-.215-.551.909.909,0,0,0-.671-.218.929.929,0,0,0-.607.177.56.56,0,0,0-.215.451.478.478,0,0,0,.244.416,2.514,2.514,0,0,0,.824.274,6.734,6.734,0,0,1,.978.26,1.606,1.606,0,0,1,1.23,1.563,1.516,1.516,0,0,1-.682,1.286,2.943,2.943,0,0,1-1.762.491,3.073,3.073,0,0,1-1.3-.26,2.176,2.176,0,0,1-.889-.714,1.66,1.66,0,0,1-.322-.98h1.472a.81.81,0,0,0,.306.634,1.214,1.214,0,0,0,.763.22,1.124,1.124,0,0,0,.674-.169A.526.526,0,0,0,56.021,10.394ZM1.944,23.157H5.65V24H.908V16.18H1.944ZM7.75,24H6.757V18.188H7.75ZM6.676,16.647a.593.593,0,0,1,.148-.408.555.555,0,0,1,.438-.167.563.563,0,0,1,.44.167.587.587,0,0,1,.15.408.568.568,0,0,1-.15.4.573.573,0,0,1-.44.161.565.565,0,0,1-.438-.161A.573.573,0,0,1,6.676,16.647Zm6.048,5.812a.731.731,0,0,0-.3-.626,2.921,2.921,0,0,0-1.058-.384,5,5,0,0,1-1.2-.387,1.7,1.7,0,0,1-.655-.537,1.285,1.285,0,0,1-.212-.741,1.508,1.508,0,0,1,.6-1.208,2.36,2.36,0,0,1,1.544-.494,2.428,2.428,0,0,1,1.6.51,1.621,1.621,0,0,1,.615,1.305h-1a.9.9,0,0,0-.346-.7,1.3,1.3,0,0,0-.873-.3,1.358,1.358,0,0,0-.849.236.744.744,0,0,0-.306.618.6.6,0,0,0,.285.542,3.5,3.5,0,0,0,1.029.349,5.359,5.359,0,0,1,1.206.4,1.759,1.759,0,0,1,.685.556,1.367,1.367,0,0,1,.223.792,1.487,1.487,0,0,1-.623,1.249,2.613,2.613,0,0,1-1.617.47,2.926,2.926,0,0,1-1.235-.247,2.009,2.009,0,0,1-.841-.69,1.664,1.664,0,0,1-.3-.959h.994a1.029,1.029,0,0,0,.4.792,1.552,1.552,0,0,0,.986.293,1.6,1.6,0,0,0,.905-.228A.7.7,0,0,0,12.724,22.458Zm3.636-5.677v1.407h1.085v.768H16.36v3.609a.807.807,0,0,0,.145.524.61.61,0,0,0,.494.175,2.406,2.406,0,0,0,.473-.064V24a2.9,2.9,0,0,1-.763.107,1.237,1.237,0,0,1-1-.4,1.731,1.731,0,0,1-.338-1.144v-3.6H14.309v-.768h1.058V16.781ZM22.193,24a2.087,2.087,0,0,1-.14-.612,2.217,2.217,0,0,1-1.654.72,2.051,2.051,0,0,1-1.41-.486,1.573,1.573,0,0,1-.551-1.233,1.643,1.643,0,0,1,.69-1.41,3.254,3.254,0,0,1,1.942-.5h.967V20.02a1.116,1.116,0,0,0-.312-.83,1.252,1.252,0,0,0-.918-.309,1.449,1.449,0,0,0-.892.269.791.791,0,0,0-.36.65h-1a1.371,1.371,0,0,1,.309-.841,2.108,2.108,0,0,1,.838-.642,2.819,2.819,0,0,1,1.163-.236,2.3,2.3,0,0,1,1.574.5,1.812,1.812,0,0,1,.591,1.383v2.675a3.27,3.27,0,0,0,.2,1.273V24Zm-1.649-.757A1.746,1.746,0,0,0,21.431,23a1.462,1.462,0,0,0,.607-.628V21.18h-.779q-1.826,0-1.826,1.069a.9.9,0,0,0,.312.73A1.2,1.2,0,0,0,20.544,23.243Zm3.8-2.2a3.4,3.4,0,0,1,.634-2.151,2.156,2.156,0,0,1,3.276-.115V15.75h.994V24h-.913l-.048-.623a2.024,2.024,0,0,1-1.66.73,1.985,1.985,0,0,1-1.646-.827,3.443,3.443,0,0,1-.636-2.159Zm.994.113a2.578,2.578,0,0,0,.408,1.547,1.32,1.32,0,0,0,1.128.559,1.45,1.45,0,0,0,1.38-.849V19.746a1.461,1.461,0,0,0-1.37-.822,1.326,1.326,0,0,0-1.139.564A2.838,2.838,0,0,0,25.341,21.159Zm5.188-.118a3.433,3.433,0,0,1,.336-1.536,2.5,2.5,0,0,1,.935-1.053,2.544,2.544,0,0,1,1.367-.371,2.451,2.451,0,0,1,1.92.822,3.162,3.162,0,0,1,.733,2.186v.07a3.463,3.463,0,0,1-.325,1.523,2.467,2.467,0,0,1-.929,1.05,2.573,2.573,0,0,1-1.388.376,2.445,2.445,0,0,1-1.915-.822,3.146,3.146,0,0,1-.733-2.175Zm1,.118a2.486,2.486,0,0,0,.448,1.552,1.52,1.52,0,0,0,2.4-.008,2.719,2.719,0,0,0,.446-1.662,2.482,2.482,0,0,0-.454-1.55,1.443,1.443,0,0,0-1.206-.594,1.427,1.427,0,0,0-1.187.585A2.7,2.7,0,0,0,31.528,21.159Zm8.019-.113a3.4,3.4,0,0,1,.634-2.151,2.156,2.156,0,0,1,3.276-.115V15.75h.994V24h-.913l-.048-.623a2.024,2.024,0,0,1-1.66.73,1.985,1.985,0,0,1-1.646-.827,3.443,3.443,0,0,1-.636-2.159Zm.994.113a2.578,2.578,0,0,0,.408,1.547,1.32,1.32,0,0,0,1.128.559,1.45,1.45,0,0,0,1.38-.849V19.746a1.461,1.461,0,0,0-1.37-.822,1.326,1.326,0,0,0-1.139.564A2.838,2.838,0,0,0,40.541,21.159ZM48.4,24.107a2.539,2.539,0,0,1-1.923-.776,2.881,2.881,0,0,1-.741-2.076v-.183a3.487,3.487,0,0,1,.33-1.544,2.577,2.577,0,0,1,.924-1.063,2.323,2.323,0,0,1,1.286-.384,2.177,2.177,0,0,1,1.762.747,3.232,3.232,0,0,1,.628,2.138v.414H46.734a2.066,2.066,0,0,0,.5,1.388,1.579,1.579,0,0,0,1.222.529,1.731,1.731,0,0,0,.892-.215,2.24,2.24,0,0,0,.639-.569l.607.473A2.44,2.44,0,0,1,48.4,24.107Zm-.124-5.21a1.325,1.325,0,0,0-1.01.438,2.128,2.128,0,0,0-.5,1.227h2.911v-.075a1.893,1.893,0,0,0-.408-1.174A1.248,1.248,0,0,0,48.281,18.9ZM54.3,21.046a3.4,3.4,0,0,1,.634-2.151,2.156,2.156,0,0,1,3.276-.115V15.75h.994V24h-.913l-.048-.623a2.024,2.024,0,0,1-1.66.73,1.985,1.985,0,0,1-1.646-.827,3.443,3.443,0,0,1-.636-2.159Zm.994.113a2.578,2.578,0,0,0,.408,1.547,1.32,1.32,0,0,0,1.128.559,1.45,1.45,0,0,0,1.38-.849V19.746a1.461,1.461,0,0,0-1.37-.822,1.326,1.326,0,0,0-1.139.564A2.838,2.838,0,0,0,55.3,21.159Zm7.863,2.949a2.539,2.539,0,0,1-1.923-.776,2.881,2.881,0,0,1-.741-2.076v-.183a3.487,3.487,0,0,1,.33-1.544,2.577,2.577,0,0,1,.924-1.063,2.323,2.323,0,0,1,1.286-.384,2.177,2.177,0,0,1,1.762.747,3.232,3.232,0,0,1,.628,2.138v.414H61.488a2.066,2.066,0,0,0,.5,1.388,1.579,1.579,0,0,0,1.222.529,1.731,1.731,0,0,0,.892-.215,2.24,2.24,0,0,0,.639-.569l.607.473A2.44,2.44,0,0,1,63.159,24.107Zm-.124-5.21a1.325,1.325,0,0,0-1.01.438,2.128,2.128,0,0,0-.5,1.227h2.911v-.075a1.893,1.893,0,0,0-.408-1.174A1.248,1.248,0,0,0,63.035,18.9Zm8.459,2.261a3.455,3.455,0,0,1-.612,2.14,1.956,1.956,0,0,1-1.644.808,2.026,2.026,0,0,1-1.7-.779L67.488,24h-.913V15.75h.994v3.078a2.014,2.014,0,0,1,1.66-.747,1.968,1.968,0,0,1,1.662.8,3.559,3.559,0,0,1,.6,2.191Zm-.994-.113a2.685,2.685,0,0,0-.392-1.568,1.3,1.3,0,0,0-1.128-.553,1.459,1.459,0,0,0-1.413.913v2.514a1.5,1.5,0,0,0,1.423.913,1.291,1.291,0,0,0,1.112-.553A2.855,2.855,0,0,0,70.5,21.046ZM73.826,24h-.994V18.188h.994Zm-1.074-7.353a.593.593,0,0,1,.148-.408.555.555,0,0,1,.438-.167.563.563,0,0,1,.44.167.587.587,0,0,1,.15.408.568.568,0,0,1-.15.4.573.573,0,0,1-.44.161.565.565,0,0,1-.438-.161A.573.573,0,0,1,72.751,16.647ZM76.5,24H75.5V15.75H76.5Zm2.669,0h-.994V18.188h.994ZM78.09,16.647a.593.593,0,0,1,.148-.408.555.555,0,0,1,.438-.167.563.563,0,0,1,.44.167.587.587,0,0,1,.15.408.568.568,0,0,1-.15.4.573.573,0,0,1-.44.161.565.565,0,0,1-.438-.161A.573.573,0,0,1,78.09,16.647Zm2.422,4.4a3.4,3.4,0,0,1,.634-2.151,2.156,2.156,0,0,1,3.276-.115V15.75h.994V24H84.5l-.048-.623a2.024,2.024,0,0,1-1.66.73,1.985,1.985,0,0,1-1.646-.827,3.443,3.443,0,0,1-.636-2.159Zm.994.113a2.578,2.578,0,0,0,.408,1.547,1.32,1.32,0,0,0,1.128.559,1.45,1.45,0,0,0,1.38-.849V19.746a1.461,1.461,0,0,0-1.37-.822,1.326,1.326,0,0,0-1.139.564A2.838,2.838,0,0,0,81.506,21.159ZM90.546,24a2.087,2.087,0,0,1-.14-.612,2.217,2.217,0,0,1-1.654.72,2.051,2.051,0,0,1-1.41-.486,1.573,1.573,0,0,1-.551-1.233,1.643,1.643,0,0,1,.69-1.41,3.254,3.254,0,0,1,1.942-.5h.967V20.02a1.116,1.116,0,0,0-.312-.83,1.252,1.252,0,0,0-.918-.309,1.449,1.449,0,0,0-.892.269.791.791,0,0,0-.36.65h-1a1.371,1.371,0,0,1,.309-.841,2.108,2.108,0,0,1,.838-.642,2.819,2.819,0,0,1,1.163-.236,2.3,2.3,0,0,1,1.574.5,1.812,1.812,0,0,1,.591,1.383v2.675a3.27,3.27,0,0,0,.2,1.273V24ZM88.9,23.243A1.746,1.746,0,0,0,89.783,23a1.462,1.462,0,0,0,.607-.628V21.18h-.779q-1.826,0-1.826,1.069a.9.9,0,0,0,.312.73A1.2,1.2,0,0,0,88.9,23.243Zm3.8-2.2a3.4,3.4,0,0,1,.634-2.151,2.156,2.156,0,0,1,3.276-.115V15.75H97.6V24H96.69l-.048-.623a2.024,2.024,0,0,1-1.66.73,1.985,1.985,0,0,1-1.646-.827,3.443,3.443,0,0,1-.636-2.159Zm.994.113a2.578,2.578,0,0,0,.408,1.547,1.32,1.32,0,0,0,1.128.559,1.45,1.45,0,0,0,1.38-.849V19.746a1.461,1.461,0,0,0-1.37-.822,1.326,1.326,0,0,0-1.139.564A2.838,2.838,0,0,0,93.693,21.159Zm7.863,2.949a2.539,2.539,0,0,1-1.923-.776,2.881,2.881,0,0,1-.741-2.076v-.183a3.487,3.487,0,0,1,.33-1.544,2.577,2.577,0,0,1,.924-1.063,2.323,2.323,0,0,1,1.286-.384,2.177,2.177,0,0,1,1.762.747,3.232,3.232,0,0,1,.628,2.138v.414H99.886a2.066,2.066,0,0,0,.5,1.388,1.579,1.579,0,0,0,1.222.529,1.731,1.731,0,0,0,.892-.215,2.24,2.24,0,0,0,.639-.569l.607.473A2.44,2.44,0,0,1,101.557,24.107Zm-.124-5.21a1.325,1.325,0,0,0-1.01.438,2.128,2.128,0,0,0-.5,1.227h2.911v-.075a1.893,1.893,0,0,0-.408-1.174A1.248,1.248,0,0,0,101.433,18.9Zm6.923,3.561a.732.732,0,0,0-.3-.626,2.921,2.921,0,0,0-1.058-.384,5,5,0,0,1-1.2-.387,1.7,1.7,0,0,1-.655-.537,1.285,1.285,0,0,1-.212-.741,1.508,1.508,0,0,1,.6-1.208,2.36,2.36,0,0,1,1.544-.494,2.428,2.428,0,0,1,1.6.51A1.621,1.621,0,0,1,109.3,19.9h-1a.9.9,0,0,0-.346-.7,1.3,1.3,0,0,0-.873-.3,1.358,1.358,0,0,0-.849.236.744.744,0,0,0-.306.618.6.6,0,0,0,.285.542,3.5,3.5,0,0,0,1.029.349,5.359,5.359,0,0,1,1.206.4,1.759,1.759,0,0,1,.685.556,1.367,1.367,0,0,1,.223.792,1.487,1.487,0,0,1-.623,1.249,2.613,2.613,0,0,1-1.617.47,2.926,2.926,0,0,1-1.235-.247,2.009,2.009,0,0,1-.841-.69,1.664,1.664,0,0,1-.3-.959h.994a1.029,1.029,0,0,0,.4.792,1.552,1.552,0,0,0,.986.293,1.6,1.6,0,0,0,.905-.228A.7.7,0,0,0,108.356,22.458Zm4.77-1.413a3.4,3.4,0,0,1,.634-2.151,2.156,2.156,0,0,1,3.276-.115V15.75h.994V24h-.913l-.048-.623a2.024,2.024,0,0,1-1.66.73,1.985,1.985,0,0,1-1.646-.827,3.443,3.443,0,0,1-.636-2.159Zm.994.113a2.578,2.578,0,0,0,.408,1.547,1.32,1.32,0,0,0,1.128.559,1.45,1.45,0,0,0,1.38-.849V19.746a1.461,1.461,0,0,0-1.37-.822,1.326,1.326,0,0,0-1.139.564A2.838,2.838,0,0,0,114.12,21.159Zm7.863,2.949a2.539,2.539,0,0,1-1.923-.776,2.881,2.881,0,0,1-.741-2.076v-.183a3.487,3.487,0,0,1,.33-1.544,2.577,2.577,0,0,1,.924-1.063,2.323,2.323,0,0,1,1.286-.384,2.177,2.177,0,0,1,1.762.747,3.232,3.232,0,0,1,.628,2.138v.414h-3.937a2.066,2.066,0,0,0,.5,1.388,1.579,1.579,0,0,0,1.222.529,1.731,1.731,0,0,0,.892-.215,2.24,2.24,0,0,0,.639-.569l.607.473A2.44,2.44,0,0,1,121.983,24.107Zm-.124-5.21a1.325,1.325,0,0,0-1.01.438,2.128,2.128,0,0,0-.5,1.227h2.911v-.075a1.893,1.893,0,0,0-.408-1.174A1.248,1.248,0,0,0,121.859,18.9ZM129.2,24h-.994V15.75h.994Zm5.178,0a2.087,2.087,0,0,1-.14-.612,2.217,2.217,0,0,1-1.654.72,2.051,2.051,0,0,1-1.41-.486,1.573,1.573,0,0,1-.551-1.233,1.643,1.643,0,0,1,.69-1.41,3.254,3.254,0,0,1,1.942-.5h.967V20.02a1.116,1.116,0,0,0-.312-.83,1.252,1.252,0,0,0-.918-.309,1.449,1.449,0,0,0-.892.269.791.791,0,0,0-.36.65h-1a1.371,1.371,0,0,1,.309-.841,2.108,2.108,0,0,1,.838-.642,2.819,2.819,0,0,1,1.163-.236,2.3,2.3,0,0,1,1.574.5,1.812,1.812,0,0,1,.591,1.383v2.675a3.27,3.27,0,0,0,.2,1.273V24Zm-1.649-.757a1.746,1.746,0,0,0,.886-.242,1.462,1.462,0,0,0,.607-.628V21.18h-.779q-1.826,0-1.826,1.069a.9.9,0,0,0,.312.73A1.2,1.2,0,0,0,132.73,23.243ZM3.164,36.107a2.539,2.539,0,0,1-1.923-.776A2.881,2.881,0,0,1,.5,33.255v-.183a3.487,3.487,0,0,1,.33-1.544,2.577,2.577,0,0,1,.924-1.063,2.323,2.323,0,0,1,1.286-.384,2.177,2.177,0,0,1,1.762.747,3.232,3.232,0,0,1,.628,2.138v.414H1.493A2.066,2.066,0,0,0,2,34.767a1.579,1.579,0,0,0,1.222.529,1.731,1.731,0,0,0,.892-.215,2.24,2.24,0,0,0,.639-.569l.607.473A2.44,2.44,0,0,1,3.164,36.107ZM3.04,30.9a1.325,1.325,0,0,0-1.01.438,2.128,2.128,0,0,0-.5,1.227H4.437v-.075a1.893,1.893,0,0,0-.408-1.174A1.248,1.248,0,0,0,3.04,30.9Zm4.474-.709.027.645a2.146,2.146,0,0,1,1.724-.752,1.662,1.662,0,0,1,1.66.935,2.2,2.2,0,0,1,.755-.677,2.229,2.229,0,0,1,1.1-.258q1.912,0,1.944,2.025V36h-.994V32.165a1.334,1.334,0,0,0-.285-.932,1.254,1.254,0,0,0-.956-.309,1.318,1.318,0,0,0-.918.33,1.34,1.34,0,0,0-.424.889V36h-1V32.192a1.109,1.109,0,0,0-1.241-1.268,1.329,1.329,0,0,0-1.337.833V36H6.574V30.188Zm13.616,2.97a3.48,3.48,0,0,1-.607,2.138,1.945,1.945,0,0,1-1.644.811,2.131,2.131,0,0,1-1.665-.671v2.8h-.994V30.188h.908l.048.645a2.047,2.047,0,0,1,1.687-.752,1.982,1.982,0,0,1,1.657.79,3.518,3.518,0,0,1,.61,2.2Zm-.994-.113a2.568,2.568,0,0,0-.419-1.552,1.35,1.35,0,0,0-1.149-.569,1.461,1.461,0,0,0-1.354.8V34.5a1.464,1.464,0,0,0,1.364.795,1.343,1.343,0,0,0,1.136-.567A2.8,2.8,0,0,0,20.136,33.046ZM25.2,31.08a2.978,2.978,0,0,0-.489-.038,1.309,1.309,0,0,0-1.327.833V36h-.994V30.188h.967l.016.671a1.547,1.547,0,0,1,1.386-.779,1.015,1.015,0,0,1,.44.075Zm3.325,5.027a2.539,2.539,0,0,1-1.923-.776,2.881,2.881,0,0,1-.741-2.076v-.183a3.487,3.487,0,0,1,.33-1.544,2.577,2.577,0,0,1,.924-1.063,2.323,2.323,0,0,1,1.286-.384,2.177,2.177,0,0,1,1.762.747,3.232,3.232,0,0,1,.628,2.138v.414H26.855a2.066,2.066,0,0,0,.5,1.388,1.579,1.579,0,0,0,1.222.529,1.731,1.731,0,0,0,.892-.215,2.24,2.24,0,0,0,.639-.569l.607.473A2.44,2.44,0,0,1,28.526,36.107ZM28.4,30.9a1.325,1.325,0,0,0-1.01.438,2.128,2.128,0,0,0-.5,1.227H29.8v-.075a1.893,1.893,0,0,0-.408-1.174A1.248,1.248,0,0,0,28.4,30.9Zm6.923,3.561a.731.731,0,0,0-.3-.626,2.921,2.921,0,0,0-1.058-.384,5,5,0,0,1-1.2-.387,1.7,1.7,0,0,1-.655-.537,1.285,1.285,0,0,1-.212-.741,1.508,1.508,0,0,1,.6-1.208,2.36,2.36,0,0,1,1.544-.494,2.428,2.428,0,0,1,1.6.51,1.621,1.621,0,0,1,.615,1.305h-1a.9.9,0,0,0-.346-.7,1.3,1.3,0,0,0-.873-.3,1.358,1.358,0,0,0-.849.236.744.744,0,0,0-.306.618.6.6,0,0,0,.285.542,3.5,3.5,0,0,0,1.029.349,5.359,5.359,0,0,1,1.206.4,1.759,1.759,0,0,1,.685.556,1.367,1.367,0,0,1,.223.792,1.487,1.487,0,0,1-.623,1.249,2.613,2.613,0,0,1-1.617.47,2.926,2.926,0,0,1-1.235-.247A2.009,2.009,0,0,1,32,35.17a1.664,1.664,0,0,1-.3-.959h.994a1.029,1.029,0,0,0,.4.792,1.552,1.552,0,0,0,.986.293,1.6,1.6,0,0,0,.905-.228A.7.7,0,0,0,35.326,34.458ZM41.2,36a2.087,2.087,0,0,1-.14-.612,2.217,2.217,0,0,1-1.654.72A2.051,2.051,0,0,1,38,35.621a1.573,1.573,0,0,1-.551-1.233,1.643,1.643,0,0,1,.69-1.41,3.254,3.254,0,0,1,1.942-.5h.967V32.02a1.116,1.116,0,0,0-.312-.83,1.252,1.252,0,0,0-.918-.309,1.449,1.449,0,0,0-.892.269.791.791,0,0,0-.36.65h-1a1.371,1.371,0,0,1,.309-.841,2.108,2.108,0,0,1,.838-.642,2.819,2.819,0,0,1,1.163-.236,2.3,2.3,0,0,1,1.574.5,1.812,1.812,0,0,1,.591,1.383v2.675a3.27,3.27,0,0,0,.2,1.273V36Zm-1.649-.757A1.746,1.746,0,0,0,40.439,35a1.462,1.462,0,0,0,.607-.628V33.18h-.779q-1.826,0-1.826,1.069a.9.9,0,0,0,.312.73A1.2,1.2,0,0,0,39.553,35.243Zm6.73-2.417a8.3,8.3,0,0,1,.325-2.331,6.772,6.772,0,0,1,.969-2.03,4.124,4.124,0,0,1,1.337-1.289l.2.655a4.278,4.278,0,0,0-1.286,1.837,7.963,7.963,0,0,0-.551,2.766l-.005.457a8,8,0,0,0,.757,3.6,4.3,4.3,0,0,0,1.085,1.429l-.2.607a4.257,4.257,0,0,1-1.364-1.332A7.466,7.466,0,0,1,46.283,32.826ZM51.16,36h-.994V30.188h.994Zm-1.074-7.353a.593.593,0,0,1,.148-.408.555.555,0,0,1,.438-.167.563.563,0,0,1,.44.167.587.587,0,0,1,.15.408.568.568,0,0,1-.15.4.573.573,0,0,1-.44.161.565.565,0,0,1-.438-.161A.573.573,0,0,1,50.085,28.647Zm3.6,1.542.032.73a2.118,2.118,0,0,1,1.74-.838q1.842,0,1.858,2.079V36h-.994V32.154a1.338,1.338,0,0,0-.287-.929,1.152,1.152,0,0,0-.878-.3,1.434,1.434,0,0,0-.849.258,1.751,1.751,0,0,0-.569.677V36H52.75V30.188Zm6.478-1.407v1.407h1.085v.768H60.167v3.609a.807.807,0,0,0,.145.524.61.61,0,0,0,.494.175,2.406,2.406,0,0,0,.473-.064V36a2.9,2.9,0,0,1-.763.107,1.237,1.237,0,0,1-1-.4,1.731,1.731,0,0,1-.338-1.144v-3.6H58.115v-.768h1.058V28.781Zm4.657,7.326a2.539,2.539,0,0,1-1.923-.776,2.881,2.881,0,0,1-.741-2.076v-.183a3.487,3.487,0,0,1,.33-1.544,2.577,2.577,0,0,1,.924-1.063,2.323,2.323,0,0,1,1.286-.384,2.177,2.177,0,0,1,1.762.747,3.232,3.232,0,0,1,.628,2.138v.414H63.153a2.066,2.066,0,0,0,.5,1.388,1.579,1.579,0,0,0,1.222.529,1.731,1.731,0,0,0,.892-.215,2.24,2.24,0,0,0,.639-.569l.607.473A2.44,2.44,0,0,1,64.824,36.107ZM64.7,30.9a1.325,1.325,0,0,0-1.01.438,2.128,2.128,0,0,0-.5,1.227H66.1v-.075a1.893,1.893,0,0,0-.408-1.174A1.248,1.248,0,0,0,64.7,30.9Zm6.349.183a2.978,2.978,0,0,0-.489-.038,1.309,1.309,0,0,0-1.327.833V36H68.24V30.188h.967l.016.671a1.547,1.547,0,0,1,1.386-.779,1.015,1.015,0,0,1,.44.075Zm1.853-.892.032.73a2.118,2.118,0,0,1,1.74-.838q1.842,0,1.858,2.079V36h-.994V32.154a1.338,1.338,0,0,0-.287-.929,1.152,1.152,0,0,0-.878-.3,1.434,1.434,0,0,0-.849.258,1.751,1.751,0,0,0-.569.677V36h-.994V30.188Zm4.866,2.852A3.433,3.433,0,0,1,78.1,31.5a2.5,2.5,0,0,1,.935-1.053,2.544,2.544,0,0,1,1.367-.371,2.451,2.451,0,0,1,1.92.822,3.162,3.162,0,0,1,.733,2.186v.07a3.462,3.462,0,0,1-.325,1.523,2.467,2.467,0,0,1-.929,1.05,2.573,2.573,0,0,1-1.388.376,2.445,2.445,0,0,1-1.915-.822,3.146,3.146,0,0,1-.733-2.175Zm1,.118a2.486,2.486,0,0,0,.448,1.552,1.52,1.52,0,0,0,2.4-.008,2.719,2.719,0,0,0,.446-1.662,2.482,2.482,0,0,0-.454-1.55,1.443,1.443,0,0,0-1.206-.594,1.427,1.427,0,0,0-1.187.585A2.7,2.7,0,0,0,78.767,33.159Zm7.831-.279a8.308,8.308,0,0,1-.314,2.3,6.79,6.79,0,0,1-.961,2.028,4.212,4.212,0,0,1-1.356,1.321l-.209-.607a4.318,4.318,0,0,0,1.329-1.969,8.516,8.516,0,0,0,.513-2.962v-.172a8.842,8.842,0,0,0-.236-2.1A7.079,7.079,0,0,0,84.7,28.98a4.013,4.013,0,0,0-.948-1.2l.209-.607a4.2,4.2,0,0,1,1.351,1.311,6.8,6.8,0,0,1,.961,2.025A8.5,8.5,0,0,1,86.6,32.879Zm1.552,2.6a.622.622,0,0,1,.153-.43.583.583,0,0,1,.459-.172.6.6,0,0,1,.465.172.61.61,0,0,1,.158.43.577.577,0,0,1-.158.414.612.612,0,0,1-.465.167.552.552,0,0,1-.612-.58Z" transform="translate(-10776 -4490)" fill="#12263f"/>
    <path id="Trazado_137054" data-name="Trazado 137054" d="M7.122,8.267a4.721,4.721,0,0,1-.408,2.025,3.074,3.074,0,0,1-1.168,1.343,3.232,3.232,0,0,1-1.743.473,3.253,3.253,0,0,1-1.735-.467A3.1,3.1,0,0,1,.886,10.305a4.586,4.586,0,0,1-.424-2V7.923A4.7,4.7,0,0,1,.878,5.89,3.1,3.1,0,0,1,2.054,4.542a3.236,3.236,0,0,1,1.738-.47,3.236,3.236,0,0,1,1.738.47A3.1,3.1,0,0,1,6.706,5.89a4.683,4.683,0,0,1,.416,2.028ZM5.489,7.913a3.291,3.291,0,0,0-.44-1.869A1.435,1.435,0,0,0,3.792,5.4a1.436,1.436,0,0,0-1.251.631,3.253,3.253,0,0,0-.446,1.85v.381a3.332,3.332,0,0,0,.44,1.858,1.432,1.432,0,0,0,1.268.661,1.419,1.419,0,0,0,1.246-.636,3.313,3.313,0,0,0,.44-1.856Zm7.933,1.235a3.485,3.485,0,0,1-.61,2.151,1.955,1.955,0,0,1-1.646.808A1.811,1.811,0,0,1,9.743,11.5v2.739H8.191V6.188H9.63l.054.569a1.824,1.824,0,0,1,1.472-.677,1.968,1.968,0,0,1,1.67.795,3.58,3.58,0,0,1,.6,2.191ZM11.87,9.035a2.287,2.287,0,0,0-.287-1.251.936.936,0,0,0-.835-.44,1.016,1.016,0,0,0-1,.559v2.379a1.034,1.034,0,0,0,1.015.575Q11.87,10.856,11.87,9.035Zm2.272.005A3.447,3.447,0,0,1,14.475,7.5a2.438,2.438,0,0,1,.959-1.047,2.8,2.8,0,0,1,1.453-.371,2.646,2.646,0,0,1,1.92.72,2.889,2.889,0,0,1,.83,1.955l.011.4A3.038,3.038,0,0,1,18.9,11.3a2.6,2.6,0,0,1-2,.808,2.608,2.608,0,0,1-2.006-.806,3.091,3.091,0,0,1-.749-2.191Zm1.552.11a2.172,2.172,0,0,0,.312,1.267,1.119,1.119,0,0,0,1.772.005A2.377,2.377,0,0,0,18.1,9.038a2.151,2.151,0,0,0-.317-1.259,1.03,1.03,0,0,0-.892-.446,1.013,1.013,0,0,0-.881.444A2.417,2.417,0,0,0,15.694,9.151Zm8.175-1.507a4.217,4.217,0,0,0-.559-.043,1.137,1.137,0,0,0-1.155.6V12H20.6V6.188H22.07l.043.693a1.438,1.438,0,0,1,1.294-.8,1.626,1.626,0,0,1,.483.07ZM26.743,4.76V6.188h.994V7.327h-.994v2.9a.693.693,0,0,0,.124.462.62.62,0,0,0,.473.14,2.475,2.475,0,0,0,.457-.038v1.176a3.2,3.2,0,0,1-.94.14,1.482,1.482,0,0,1-1.665-1.649V7.327h-.849V6.188h.849V4.76Zm5.339,6.649a1.947,1.947,0,0,1-1.59.7,1.836,1.836,0,0,1-1.426-.537,2.293,2.293,0,0,1-.5-1.574V6.188h1.552V9.947q0,.909.827.909a1.121,1.121,0,0,0,1.085-.549V6.188h1.558V12H32.125Zm4.1-5.221.048.671a2.029,2.029,0,0,1,1.67-.779,1.686,1.686,0,0,1,1.375.542,2.531,2.531,0,0,1,.462,1.622V12H38.188V8.283a1.007,1.007,0,0,0-.215-.717.962.962,0,0,0-.714-.223,1.068,1.068,0,0,0-.983.559V12H34.724V6.188ZM42.555,12H41V6.188h1.558ZM40.906,4.685a.764.764,0,0,1,.234-.575,1.007,1.007,0,0,1,1.27,0,.76.76,0,0,1,.236.575.762.762,0,0,1-.239.58,1,1,0,0,1-1.262,0A.762.762,0,0,1,40.906,4.685Zm2.686,4.367a3.5,3.5,0,0,1,.61-2.165,1.978,1.978,0,0,1,1.668-.806,1.78,1.78,0,0,1,1.4.634V3.75h1.558V12h-1.4l-.075-.618a1.827,1.827,0,0,1-1.493.725,1.973,1.973,0,0,1-1.646-.808A3.615,3.615,0,0,1,43.592,9.051Zm1.552.116a2.294,2.294,0,0,0,.285,1.253.927.927,0,0,0,.827.436,1.039,1.039,0,0,0,1.015-.608v-2.3a1.024,1.024,0,0,0-1-.608Q45.144,7.343,45.144,9.167ZM53.4,12a1.724,1.724,0,0,1-.156-.521,1.878,1.878,0,0,1-1.466.628,2.063,2.063,0,0,1-1.415-.494,1.589,1.589,0,0,1-.561-1.246,1.642,1.642,0,0,1,.685-1.418,3.379,3.379,0,0,1,1.979-.5h.714V8.117a.958.958,0,0,0-.207-.645.813.813,0,0,0-.653-.242.925.925,0,0,0-.615.188.639.639,0,0,0-.223.516H49.93A1.559,1.559,0,0,1,50.241,7a2.059,2.059,0,0,1,.881-.674A3.21,3.21,0,0,1,52.4,6.081a2.536,2.536,0,0,1,1.705.54,1.888,1.888,0,0,1,.631,1.517v2.519a2.778,2.778,0,0,0,.231,1.251V12Zm-1.284-1.08a1.337,1.337,0,0,0,.634-.153,1,1,0,0,0,.43-.411v-1H52.6q-1.166,0-1.241.806l-.005.091a.621.621,0,0,0,.2.478A.793.793,0,0,0,52.116,10.92Zm3.572-1.869a3.5,3.5,0,0,1,.61-2.165,1.978,1.978,0,0,1,1.668-.806,1.78,1.78,0,0,1,1.4.634V3.75h1.558V12h-1.4l-.075-.618a1.827,1.827,0,0,1-1.493.725,1.973,1.973,0,0,1-1.646-.808A3.615,3.615,0,0,1,55.688,9.051Zm1.552.116a2.294,2.294,0,0,0,.285,1.253.927.927,0,0,0,.827.436,1.039,1.039,0,0,0,1.015-.608v-2.3a1.024,1.024,0,0,0-1-.608Q57.24,7.343,57.24,9.167ZM64.8,12.107a2.853,2.853,0,0,1-2.081-.784,2.787,2.787,0,0,1-.8-2.089v-.15a3.511,3.511,0,0,1,.338-1.566,2.483,2.483,0,0,1,.959-1.063,2.691,2.691,0,0,1,1.415-.373,2.412,2.412,0,0,1,1.877.752,3.056,3.056,0,0,1,.685,2.132V9.6h-3.7a1.442,1.442,0,0,0,.454.913,1.372,1.372,0,0,0,.959.344,1.675,1.675,0,0,0,1.4-.65l.763.854a2.33,2.33,0,0,1-.945.771A3.1,3.1,0,0,1,64.8,12.107Zm-.177-4.775a.97.97,0,0,0-.749.313,1.62,1.62,0,0,0-.368.9h2.159V8.417a1.156,1.156,0,0,0-.279-.8A1,1,0,0,0,64.625,7.333Zm6.6,3.062a.5.5,0,0,0-.282-.448,3.2,3.2,0,0,0-.905-.293Q67.96,9.218,67.96,7.891A1.6,1.6,0,0,1,68.6,6.6a2.589,2.589,0,0,1,1.678-.518,2.787,2.787,0,0,1,1.77.521,1.642,1.642,0,0,1,.663,1.354H71.162a.751.751,0,0,0-.215-.551.909.909,0,0,0-.671-.218.929.929,0,0,0-.607.177.56.56,0,0,0-.215.451.478.478,0,0,0,.244.416,2.514,2.514,0,0,0,.824.274,6.734,6.734,0,0,1,.978.26,1.606,1.606,0,0,1,1.23,1.563,1.516,1.516,0,0,1-.682,1.286,2.943,2.943,0,0,1-1.762.491,3.073,3.073,0,0,1-1.3-.26,2.176,2.176,0,0,1-.889-.714,1.66,1.66,0,0,1-.322-.98H69.25a.81.81,0,0,0,.306.634,1.214,1.214,0,0,0,.763.22,1.124,1.124,0,0,0,.674-.169A.526.526,0,0,0,71.221,10.394ZM1.944,23.157H5.65V24H.908V16.18H1.944ZM7.75,24H6.757V18.188H7.75ZM6.676,16.647a.593.593,0,0,1,.148-.408.555.555,0,0,1,.438-.167.563.563,0,0,1,.44.167.587.587,0,0,1,.15.408.568.568,0,0,1-.15.4.573.573,0,0,1-.44.161.565.565,0,0,1-.438-.161A.573.573,0,0,1,6.676,16.647Zm6.048,5.812a.731.731,0,0,0-.3-.626,2.921,2.921,0,0,0-1.058-.384,5,5,0,0,1-1.2-.387,1.7,1.7,0,0,1-.655-.537,1.285,1.285,0,0,1-.212-.741,1.508,1.508,0,0,1,.6-1.208,2.36,2.36,0,0,1,1.544-.494,2.428,2.428,0,0,1,1.6.51,1.621,1.621,0,0,1,.615,1.305h-1a.9.9,0,0,0-.346-.7,1.3,1.3,0,0,0-.873-.3,1.358,1.358,0,0,0-.849.236.744.744,0,0,0-.306.618.6.6,0,0,0,.285.542,3.5,3.5,0,0,0,1.029.349,5.359,5.359,0,0,1,1.206.4,1.759,1.759,0,0,1,.685.556,1.367,1.367,0,0,1,.223.792,1.487,1.487,0,0,1-.623,1.249,2.613,2.613,0,0,1-1.617.47,2.926,2.926,0,0,1-1.235-.247,2.009,2.009,0,0,1-.841-.69,1.664,1.664,0,0,1-.3-.959h.994a1.029,1.029,0,0,0,.4.792,1.552,1.552,0,0,0,.986.293,1.6,1.6,0,0,0,.905-.228A.7.7,0,0,0,12.724,22.458Zm3.636-5.677v1.407h1.085v.768H16.36v3.609a.807.807,0,0,0,.145.524.61.61,0,0,0,.494.175,2.406,2.406,0,0,0,.473-.064V24a2.9,2.9,0,0,1-.763.107,1.237,1.237,0,0,1-1-.4,1.731,1.731,0,0,1-.338-1.144v-3.6H14.309v-.768h1.058V16.781ZM22.193,24a2.087,2.087,0,0,1-.14-.612,2.217,2.217,0,0,1-1.654.72,2.051,2.051,0,0,1-1.41-.486,1.573,1.573,0,0,1-.551-1.233,1.643,1.643,0,0,1,.69-1.41,3.254,3.254,0,0,1,1.942-.5h.967V20.02a1.116,1.116,0,0,0-.312-.83,1.252,1.252,0,0,0-.918-.309,1.449,1.449,0,0,0-.892.269.791.791,0,0,0-.36.65h-1a1.371,1.371,0,0,1,.309-.841,2.108,2.108,0,0,1,.838-.642,2.819,2.819,0,0,1,1.163-.236,2.3,2.3,0,0,1,1.574.5,1.812,1.812,0,0,1,.591,1.383v2.675a3.27,3.27,0,0,0,.2,1.273V24Zm-1.649-.757A1.746,1.746,0,0,0,21.431,23a1.462,1.462,0,0,0,.607-.628V21.18h-.779q-1.826,0-1.826,1.069a.9.9,0,0,0,.312.73A1.2,1.2,0,0,0,20.544,23.243Zm3.8-2.2a3.4,3.4,0,0,1,.634-2.151,2.156,2.156,0,0,1,3.276-.115V15.75h.994V24h-.913l-.048-.623a2.024,2.024,0,0,1-1.66.73,1.985,1.985,0,0,1-1.646-.827,3.443,3.443,0,0,1-.636-2.159Zm.994.113a2.578,2.578,0,0,0,.408,1.547,1.32,1.32,0,0,0,1.128.559,1.45,1.45,0,0,0,1.38-.849V19.746a1.461,1.461,0,0,0-1.37-.822,1.326,1.326,0,0,0-1.139.564A2.838,2.838,0,0,0,25.341,21.159Zm5.188-.118a3.433,3.433,0,0,1,.336-1.536,2.5,2.5,0,0,1,.935-1.053,2.544,2.544,0,0,1,1.367-.371,2.451,2.451,0,0,1,1.92.822,3.162,3.162,0,0,1,.733,2.186v.07a3.463,3.463,0,0,1-.325,1.523,2.467,2.467,0,0,1-.929,1.05,2.573,2.573,0,0,1-1.388.376,2.445,2.445,0,0,1-1.915-.822,3.146,3.146,0,0,1-.733-2.175Zm1,.118a2.486,2.486,0,0,0,.448,1.552,1.52,1.52,0,0,0,2.4-.008,2.719,2.719,0,0,0,.446-1.662,2.482,2.482,0,0,0-.454-1.55,1.443,1.443,0,0,0-1.206-.594,1.427,1.427,0,0,0-1.187.585A2.7,2.7,0,0,0,31.528,21.159Zm8.019-.113a3.4,3.4,0,0,1,.634-2.151,2.156,2.156,0,0,1,3.276-.115V15.75h.994V24h-.913l-.048-.623a2.024,2.024,0,0,1-1.66.73,1.985,1.985,0,0,1-1.646-.827,3.443,3.443,0,0,1-.636-2.159Zm.994.113a2.578,2.578,0,0,0,.408,1.547,1.32,1.32,0,0,0,1.128.559,1.45,1.45,0,0,0,1.38-.849V19.746a1.461,1.461,0,0,0-1.37-.822,1.326,1.326,0,0,0-1.139.564A2.838,2.838,0,0,0,40.541,21.159ZM48.4,24.107a2.539,2.539,0,0,1-1.923-.776,2.881,2.881,0,0,1-.741-2.076v-.183a3.487,3.487,0,0,1,.33-1.544,2.577,2.577,0,0,1,.924-1.063,2.323,2.323,0,0,1,1.286-.384,2.177,2.177,0,0,1,1.762.747,3.232,3.232,0,0,1,.628,2.138v.414H46.734a2.066,2.066,0,0,0,.5,1.388,1.579,1.579,0,0,0,1.222.529,1.731,1.731,0,0,0,.892-.215,2.24,2.24,0,0,0,.639-.569l.607.473A2.44,2.44,0,0,1,48.4,24.107Zm-.124-5.21a1.325,1.325,0,0,0-1.01.438,2.128,2.128,0,0,0-.5,1.227h2.911v-.075a1.893,1.893,0,0,0-.408-1.174A1.248,1.248,0,0,0,48.281,18.9Zm6,2.143a3.433,3.433,0,0,1,.336-1.536,2.5,2.5,0,0,1,.935-1.053,2.544,2.544,0,0,1,1.367-.371,2.451,2.451,0,0,1,1.92.822,3.162,3.162,0,0,1,.733,2.186v.07a3.463,3.463,0,0,1-.325,1.523,2.467,2.467,0,0,1-.929,1.05,2.573,2.573,0,0,1-1.388.376,2.445,2.445,0,0,1-1.915-.822,3.146,3.146,0,0,1-.733-2.175Zm1,.118a2.486,2.486,0,0,0,.448,1.552,1.52,1.52,0,0,0,2.4-.008,2.719,2.719,0,0,0,.446-1.662,2.482,2.482,0,0,0-.454-1.55,1.443,1.443,0,0,0-1.206-.594,1.427,1.427,0,0,0-1.187.585A2.7,2.7,0,0,0,55.279,21.159Zm10.447,0a3.48,3.48,0,0,1-.607,2.138,1.945,1.945,0,0,1-1.644.811,2.131,2.131,0,0,1-1.665-.671v2.8h-.994V18.188h.908l.048.645a2.047,2.047,0,0,1,1.687-.752,1.982,1.982,0,0,1,1.657.79,3.518,3.518,0,0,1,.61,2.2Zm-.994-.113a2.568,2.568,0,0,0-.419-1.552,1.35,1.35,0,0,0-1.149-.569,1.461,1.461,0,0,0-1.354.8V22.5a1.464,1.464,0,0,0,1.364.795,1.343,1.343,0,0,0,1.136-.567A2.8,2.8,0,0,0,64.732,21.046Zm1.993-.005a3.433,3.433,0,0,1,.336-1.536A2.5,2.5,0,0,1,68,18.452a2.544,2.544,0,0,1,1.367-.371,2.451,2.451,0,0,1,1.92.822,3.162,3.162,0,0,1,.733,2.186v.07a3.462,3.462,0,0,1-.325,1.523,2.467,2.467,0,0,1-.929,1.05,2.573,2.573,0,0,1-1.388.376,2.445,2.445,0,0,1-1.915-.822,3.146,3.146,0,0,1-.733-2.175Zm1,.118a2.486,2.486,0,0,0,.448,1.552,1.52,1.52,0,0,0,2.4-.008,2.719,2.719,0,0,0,.446-1.662,2.482,2.482,0,0,0-.454-1.55,1.443,1.443,0,0,0-1.206-.594,1.427,1.427,0,0,0-1.187.585A2.7,2.7,0,0,0,67.724,21.159Zm8.347-2.079a2.978,2.978,0,0,0-.489-.038,1.309,1.309,0,0,0-1.327.833V24h-.994V18.188h.967l.016.671a1.547,1.547,0,0,1,1.386-.779,1.015,1.015,0,0,1,.44.075Zm2.53-2.3v1.407h1.085v.768H78.6v3.609a.807.807,0,0,0,.145.524.61.61,0,0,0,.494.175,2.406,2.406,0,0,0,.473-.064V24a2.9,2.9,0,0,1-.763.107,1.237,1.237,0,0,1-1-.4,1.731,1.731,0,0,1-.338-1.144v-3.6H76.549v-.768h1.058V16.781Zm5.833,6.644a2.111,2.111,0,0,1-1.7.682,1.807,1.807,0,0,1-1.415-.54,2.336,2.336,0,0,1-.491-1.6V18.188h.994v3.754q0,1.321,1.074,1.321a1.487,1.487,0,0,0,1.515-.849V18.188H85.4V24h-.945Zm3.416-5.237.032.73a2.118,2.118,0,0,1,1.74-.838q1.842,0,1.858,2.079V24h-.994V20.154a1.338,1.338,0,0,0-.287-.929,1.152,1.152,0,0,0-.878-.3,1.434,1.434,0,0,0-.849.258,1.751,1.751,0,0,0-.569.677V24H86.91V18.188ZM94.059,24h-.994V18.188h.994Zm-1.074-7.353a.593.593,0,0,1,.148-.408.555.555,0,0,1,.438-.167.563.563,0,0,1,.44.167.587.587,0,0,1,.15.408.568.568,0,0,1-.15.4.573.573,0,0,1-.44.161.565.565,0,0,1-.438-.161A.573.573,0,0,1,92.984,16.647Zm2.422,4.4a3.4,3.4,0,0,1,.634-2.151,2.156,2.156,0,0,1,3.276-.115V15.75h.994V24H99.4l-.048-.623a2.024,2.024,0,0,1-1.66.73,1.985,1.985,0,0,1-1.646-.827,3.443,3.443,0,0,1-.636-2.159Zm.994.113a2.578,2.578,0,0,0,.408,1.547,1.32,1.32,0,0,0,1.128.559,1.45,1.45,0,0,0,1.38-.849V19.746a1.461,1.461,0,0,0-1.37-.822,1.326,1.326,0,0,0-1.139.564A2.838,2.838,0,0,0,96.4,21.159ZM105.44,24a2.087,2.087,0,0,1-.14-.612,2.217,2.217,0,0,1-1.654.72,2.051,2.051,0,0,1-1.41-.486,1.573,1.573,0,0,1-.551-1.233,1.643,1.643,0,0,1,.69-1.41,3.254,3.254,0,0,1,1.942-.5h.967V20.02a1.116,1.116,0,0,0-.312-.83,1.252,1.252,0,0,0-.918-.309,1.449,1.449,0,0,0-.892.269.791.791,0,0,0-.36.65h-1a1.371,1.371,0,0,1,.309-.841,2.108,2.108,0,0,1,.838-.642,2.819,2.819,0,0,1,1.163-.236,2.3,2.3,0,0,1,1.574.5,1.812,1.812,0,0,1,.591,1.383v2.675a3.27,3.27,0,0,0,.2,1.273V24Zm-1.649-.757a1.746,1.746,0,0,0,.886-.242,1.462,1.462,0,0,0,.607-.628V21.18h-.779q-1.826,0-1.826,1.069a.9.9,0,0,0,.312.73A1.2,1.2,0,0,0,103.791,23.243Zm3.8-2.2a3.4,3.4,0,0,1,.634-2.151,2.156,2.156,0,0,1,3.276-.115V15.75h.994V24h-.913l-.048-.623a2.024,2.024,0,0,1-1.66.73,1.985,1.985,0,0,1-1.646-.827,3.443,3.443,0,0,1-.636-2.159Zm.994.113A2.578,2.578,0,0,0,109,22.706a1.32,1.32,0,0,0,1.128.559,1.45,1.45,0,0,0,1.38-.849V19.746a1.461,1.461,0,0,0-1.37-.822,1.326,1.326,0,0,0-1.139.564A2.838,2.838,0,0,0,108.587,21.159Zm7.863,2.949a2.539,2.539,0,0,1-1.923-.776,2.881,2.881,0,0,1-.741-2.076v-.183a3.487,3.487,0,0,1,.33-1.544,2.577,2.577,0,0,1,.924-1.063,2.323,2.323,0,0,1,1.286-.384,2.177,2.177,0,0,1,1.762.747,3.232,3.232,0,0,1,.628,2.138v.414H114.78a2.066,2.066,0,0,0,.5,1.388,1.579,1.579,0,0,0,1.222.529,1.731,1.731,0,0,0,.892-.215,2.24,2.24,0,0,0,.639-.569l.607.473A2.44,2.44,0,0,1,116.451,24.107Zm-.124-5.21a1.325,1.325,0,0,0-1.01.438,2.128,2.128,0,0,0-.5,1.227h2.911v-.075a1.893,1.893,0,0,0-.408-1.174A1.248,1.248,0,0,0,116.327,18.9Zm6.923,3.561a.732.732,0,0,0-.3-.626,2.921,2.921,0,0,0-1.058-.384,5,5,0,0,1-1.2-.387,1.7,1.7,0,0,1-.655-.537,1.285,1.285,0,0,1-.212-.741,1.508,1.508,0,0,1,.6-1.208,2.36,2.36,0,0,1,1.544-.494,2.428,2.428,0,0,1,1.6.51,1.621,1.621,0,0,1,.615,1.305h-1a.9.9,0,0,0-.346-.7,1.3,1.3,0,0,0-.873-.3,1.358,1.358,0,0,0-.849.236.744.744,0,0,0-.306.618.6.6,0,0,0,.285.542,3.5,3.5,0,0,0,1.029.349,5.359,5.359,0,0,1,1.206.4,1.759,1.759,0,0,1,.685.556,1.367,1.367,0,0,1,.223.792,1.487,1.487,0,0,1-.623,1.249,2.613,2.613,0,0,1-1.617.47,2.926,2.926,0,0,1-1.235-.247,2.009,2.009,0,0,1-.841-.69,1.664,1.664,0,0,1-.3-.959h.994a1.029,1.029,0,0,0,.4.792A1.552,1.552,0,0,0,122,23.3a1.6,1.6,0,0,0,.905-.228A.7.7,0,0,0,123.25,22.458ZM.714,32.826a8.3,8.3,0,0,1,.325-2.331,6.772,6.772,0,0,1,.969-2.03,4.124,4.124,0,0,1,1.337-1.289l.2.655a4.278,4.278,0,0,0-1.286,1.837,7.963,7.963,0,0,0-.551,2.766l-.005.457a8,8,0,0,0,.757,3.6A4.3,4.3,0,0,0,3.55,37.917l-.2.607a4.257,4.257,0,0,1-1.364-1.332A7.466,7.466,0,0,1,.714,32.826Zm6.209,3.282A2.539,2.539,0,0,1,5,35.331a2.881,2.881,0,0,1-.741-2.076v-.183a3.487,3.487,0,0,1,.33-1.544,2.577,2.577,0,0,1,.924-1.063A2.323,2.323,0,0,1,6.8,30.081a2.177,2.177,0,0,1,1.762.747,3.232,3.232,0,0,1,.628,2.138v.414H5.253a2.066,2.066,0,0,0,.5,1.388,1.579,1.579,0,0,0,1.222.529,1.731,1.731,0,0,0,.892-.215,2.24,2.24,0,0,0,.639-.569l.607.473A2.44,2.44,0,0,1,6.923,36.107ZM6.8,30.9a1.325,1.325,0,0,0-1.01.438,2.128,2.128,0,0,0-.5,1.227H8.2v-.075a1.893,1.893,0,0,0-.408-1.174A1.248,1.248,0,0,0,6.8,30.9Zm5.489,1.413,1.289-2.122h1.16l-1.9,2.874L14.8,36H13.648l-1.343-2.175L10.962,36H9.808l1.96-2.938-1.9-2.874h1.149Zm4.85-3.529v1.407h1.085v.768H17.139v3.609a.807.807,0,0,0,.145.524.61.61,0,0,0,.494.175,2.406,2.406,0,0,0,.473-.064V36a2.9,2.9,0,0,1-.763.107,1.237,1.237,0,0,1-1-.4,1.731,1.731,0,0,1-.338-1.144v-3.6H15.087v-.768h1.058V28.781ZM21.8,36.107a2.539,2.539,0,0,1-1.923-.776,2.881,2.881,0,0,1-.741-2.076v-.183a3.487,3.487,0,0,1,.33-1.544,2.577,2.577,0,0,1,.924-1.063,2.323,2.323,0,0,1,1.286-.384,2.177,2.177,0,0,1,1.762.747,3.232,3.232,0,0,1,.628,2.138v.414H20.125a2.066,2.066,0,0,0,.5,1.388,1.579,1.579,0,0,0,1.222.529,1.731,1.731,0,0,0,.892-.215,2.24,2.24,0,0,0,.639-.569l.607.473A2.44,2.44,0,0,1,21.8,36.107Zm-.124-5.21a1.325,1.325,0,0,0-1.01.438,2.128,2.128,0,0,0-.5,1.227h2.911v-.075a1.893,1.893,0,0,0-.408-1.174A1.248,1.248,0,0,0,21.672,30.9Zm6.349.183a2.978,2.978,0,0,0-.489-.038,1.309,1.309,0,0,0-1.327.833V36h-.994V30.188h.967l.016.671a1.547,1.547,0,0,1,1.386-.779,1.015,1.015,0,0,1,.44.075Zm1.853-.892.032.73a2.118,2.118,0,0,1,1.74-.838q1.842,0,1.858,2.079V36h-.994V32.154a1.338,1.338,0,0,0-.287-.929,1.152,1.152,0,0,0-.878-.3,1.434,1.434,0,0,0-.849.258,1.751,1.751,0,0,0-.569.677V36h-.994V30.188Zm4.866,2.852a3.433,3.433,0,0,1,.336-1.536,2.5,2.5,0,0,1,.935-1.053,2.544,2.544,0,0,1,1.367-.371,2.451,2.451,0,0,1,1.92.822,3.162,3.162,0,0,1,.733,2.186v.07a3.463,3.463,0,0,1-.325,1.523,2.467,2.467,0,0,1-.929,1.05,2.573,2.573,0,0,1-1.388.376,2.445,2.445,0,0,1-1.915-.822,3.146,3.146,0,0,1-.733-2.175Zm1,.118a2.486,2.486,0,0,0,.448,1.552,1.52,1.52,0,0,0,2.4-.008,2.719,2.719,0,0,0,.446-1.662,2.482,2.482,0,0,0-.454-1.55,1.443,1.443,0,0,0-1.206-.594,1.427,1.427,0,0,0-1.187.585A2.7,2.7,0,0,0,35.739,33.159Zm7.831-.279a8.308,8.308,0,0,1-.314,2.3,6.79,6.79,0,0,1-.961,2.028,4.212,4.212,0,0,1-1.356,1.321l-.209-.607a4.318,4.318,0,0,0,1.329-1.969,8.516,8.516,0,0,0,.513-2.962v-.172a8.842,8.842,0,0,0-.236-2.1,7.079,7.079,0,0,0-.658-1.738,4.013,4.013,0,0,0-.948-1.2l.209-.607a4.2,4.2,0,0,1,1.351,1.311,6.8,6.8,0,0,1,.961,2.025A8.5,8.5,0,0,1,43.57,32.879Zm1.552,2.6a.622.622,0,0,1,.153-.43.583.583,0,0,1,.459-.172.6.6,0,0,1,.465.172.61.61,0,0,1,.158.43.577.577,0,0,1-.158.414.612.612,0,0,1-.465.167.552.552,0,0,1-.612-.58Z" transform="translate(-10385 -4490)" fill="#12263f"/>
    <path id="Trazado_137055" data-name="Trazado 137055" d="M5.4,8.8H2.31V12H.7V4.18H5.79V5.485H2.31V7.5H5.4Zm.865.236A3.447,3.447,0,0,1,6.6,7.5,2.438,2.438,0,0,1,7.56,6.452a2.8,2.8,0,0,1,1.453-.371,2.646,2.646,0,0,1,1.92.72,2.889,2.889,0,0,1,.83,1.955l.011.4a3.038,3.038,0,0,1-.747,2.146,2.6,2.6,0,0,1-2,.808A2.608,2.608,0,0,1,7.017,11.3,3.091,3.091,0,0,1,6.268,9.11Zm1.552.11a2.172,2.172,0,0,0,.312,1.267,1.119,1.119,0,0,0,1.772.005,2.377,2.377,0,0,0,.317-1.385A2.151,2.151,0,0,0,9.9,7.779a1.03,1.03,0,0,0-.892-.446,1.013,1.013,0,0,0-.881.444A2.417,2.417,0,0,0,7.82,9.151ZM16,7.644a4.217,4.217,0,0,0-.559-.043,1.137,1.137,0,0,0-1.155.6V12H12.729V6.188H14.2l.043.693a1.438,1.438,0,0,1,1.294-.8,1.626,1.626,0,0,1,.483.07ZM18.869,4.76V6.188h.994V7.327h-.994v2.9a.693.693,0,0,0,.124.462.62.62,0,0,0,.473.14,2.475,2.475,0,0,0,.457-.038v1.176a3.2,3.2,0,0,1-.94.14,1.482,1.482,0,0,1-1.665-1.649V7.327h-.849V6.188h.849V4.76ZM24.095,12a1.724,1.724,0,0,1-.156-.521,1.878,1.878,0,0,1-1.466.628,2.063,2.063,0,0,1-1.415-.494,1.589,1.589,0,0,1-.561-1.246,1.642,1.642,0,0,1,.685-1.418,3.379,3.379,0,0,1,1.979-.5h.714V8.117a.958.958,0,0,0-.207-.645.813.813,0,0,0-.653-.242.925.925,0,0,0-.615.188.639.639,0,0,0-.223.516H20.625A1.559,1.559,0,0,1,20.937,7a2.059,2.059,0,0,1,.881-.674A3.21,3.21,0,0,1,23.1,6.081a2.536,2.536,0,0,1,1.705.54,1.888,1.888,0,0,1,.631,1.517v2.519a2.778,2.778,0,0,0,.231,1.251V12Zm-1.284-1.08a1.337,1.337,0,0,0,.634-.153,1,1,0,0,0,.43-.411v-1h-.58q-1.166,0-1.241.806l-.005.091a.621.621,0,0,0,.2.478A.793.793,0,0,0,22.811,10.92ZM28.263,12H26.705V3.75h1.558Zm3.953.107a2.853,2.853,0,0,1-2.081-.784,2.787,2.787,0,0,1-.8-2.089v-.15a3.511,3.511,0,0,1,.338-1.566,2.483,2.483,0,0,1,.959-1.063,2.691,2.691,0,0,1,1.415-.373,2.412,2.412,0,0,1,1.877.752,3.056,3.056,0,0,1,.685,2.132V9.6h-3.7a1.442,1.442,0,0,0,.454.913,1.372,1.372,0,0,0,.959.344,1.675,1.675,0,0,0,1.4-.65l.763.854a2.33,2.33,0,0,1-.945.771A3.1,3.1,0,0,1,32.216,12.107Zm-.177-4.775a.97.97,0,0,0-.749.313,1.62,1.62,0,0,0-.368.9h2.159V8.417a1.156,1.156,0,0,0-.279-.8A1,1,0,0,0,32.039,7.333Zm5.231,3.416h2.841V12H35.288v-.945L38.022,7.44H35.369V6.188h4.657V7.1ZM44.451,12a1.724,1.724,0,0,1-.156-.521,1.878,1.878,0,0,1-1.466.628,2.063,2.063,0,0,1-1.415-.494,1.589,1.589,0,0,1-.561-1.246,1.642,1.642,0,0,1,.685-1.418,3.379,3.379,0,0,1,1.979-.5h.714V8.117a.958.958,0,0,0-.207-.645.813.813,0,0,0-.653-.242.925.925,0,0,0-.615.188.639.639,0,0,0-.223.516H40.981A1.559,1.559,0,0,1,41.293,7a2.059,2.059,0,0,1,.881-.674,3.21,3.21,0,0,1,1.278-.244,2.536,2.536,0,0,1,1.705.54,1.888,1.888,0,0,1,.631,1.517v2.519a2.778,2.778,0,0,0,.231,1.251V12Zm-1.284-1.08a1.337,1.337,0,0,0,.634-.153,1,1,0,0,0,.43-.411v-1h-.58q-1.166,0-1.241.806l-.005.091a.621.621,0,0,0,.2.478A.793.793,0,0,0,43.167,10.92Zm6.961-.526a.5.5,0,0,0-.282-.448,3.2,3.2,0,0,0-.905-.293q-2.073-.435-2.073-1.762A1.6,1.6,0,0,1,47.51,6.6a2.589,2.589,0,0,1,1.678-.518,2.787,2.787,0,0,1,1.77.521,1.642,1.642,0,0,1,.663,1.354H50.069a.751.751,0,0,0-.215-.551.909.909,0,0,0-.671-.218.929.929,0,0,0-.607.177.56.56,0,0,0-.215.451.478.478,0,0,0,.244.416,2.514,2.514,0,0,0,.824.274,6.734,6.734,0,0,1,.978.26,1.606,1.606,0,0,1,1.23,1.563,1.516,1.516,0,0,1-.682,1.286,2.943,2.943,0,0,1-1.762.491,3.073,3.073,0,0,1-1.3-.26,2.176,2.176,0,0,1-.889-.714,1.66,1.66,0,0,1-.322-.98h1.472a.81.81,0,0,0,.306.634,1.214,1.214,0,0,0,.763.22,1.124,1.124,0,0,0,.674-.169A.526.526,0,0,0,50.128,10.394ZM1.944,23.157H5.65V24H.908V16.18H1.944ZM7.75,24H6.757V18.188H7.75ZM6.676,16.647a.593.593,0,0,1,.148-.408.555.555,0,0,1,.438-.167.563.563,0,0,1,.44.167.587.587,0,0,1,.15.408.568.568,0,0,1-.15.4.573.573,0,0,1-.44.161.565.565,0,0,1-.438-.161A.573.573,0,0,1,6.676,16.647Zm6.048,5.812a.731.731,0,0,0-.3-.626,2.921,2.921,0,0,0-1.058-.384,5,5,0,0,1-1.2-.387,1.7,1.7,0,0,1-.655-.537,1.285,1.285,0,0,1-.212-.741,1.508,1.508,0,0,1,.6-1.208,2.36,2.36,0,0,1,1.544-.494,2.428,2.428,0,0,1,1.6.51,1.621,1.621,0,0,1,.615,1.305h-1a.9.9,0,0,0-.346-.7,1.3,1.3,0,0,0-.873-.3,1.358,1.358,0,0,0-.849.236.744.744,0,0,0-.306.618.6.6,0,0,0,.285.542,3.5,3.5,0,0,0,1.029.349,5.359,5.359,0,0,1,1.206.4,1.759,1.759,0,0,1,.685.556,1.367,1.367,0,0,1,.223.792,1.487,1.487,0,0,1-.623,1.249,2.613,2.613,0,0,1-1.617.47,2.926,2.926,0,0,1-1.235-.247,2.009,2.009,0,0,1-.841-.69,1.664,1.664,0,0,1-.3-.959h.994a1.029,1.029,0,0,0,.4.792,1.552,1.552,0,0,0,.986.293,1.6,1.6,0,0,0,.905-.228A.7.7,0,0,0,12.724,22.458Zm3.636-5.677v1.407h1.085v.768H16.36v3.609a.807.807,0,0,0,.145.524.61.61,0,0,0,.494.175,2.406,2.406,0,0,0,.473-.064V24a2.9,2.9,0,0,1-.763.107,1.237,1.237,0,0,1-1-.4,1.731,1.731,0,0,1-.338-1.144v-3.6H14.309v-.768h1.058V16.781ZM22.193,24a2.087,2.087,0,0,1-.14-.612,2.217,2.217,0,0,1-1.654.72,2.051,2.051,0,0,1-1.41-.486,1.573,1.573,0,0,1-.551-1.233,1.643,1.643,0,0,1,.69-1.41,3.254,3.254,0,0,1,1.942-.5h.967V20.02a1.116,1.116,0,0,0-.312-.83,1.252,1.252,0,0,0-.918-.309,1.449,1.449,0,0,0-.892.269.791.791,0,0,0-.36.65h-1a1.371,1.371,0,0,1,.309-.841,2.108,2.108,0,0,1,.838-.642,2.819,2.819,0,0,1,1.163-.236,2.3,2.3,0,0,1,1.574.5,1.812,1.812,0,0,1,.591,1.383v2.675a3.27,3.27,0,0,0,.2,1.273V24Zm-1.649-.757A1.746,1.746,0,0,0,21.431,23a1.462,1.462,0,0,0,.607-.628V21.18h-.779q-1.826,0-1.826,1.069a.9.9,0,0,0,.312.73A1.2,1.2,0,0,0,20.544,23.243Zm3.8-2.2a3.4,3.4,0,0,1,.634-2.151,2.156,2.156,0,0,1,3.276-.115V15.75h.994V24h-.913l-.048-.623a2.024,2.024,0,0,1-1.66.73,1.985,1.985,0,0,1-1.646-.827,3.443,3.443,0,0,1-.636-2.159Zm.994.113a2.578,2.578,0,0,0,.408,1.547,1.32,1.32,0,0,0,1.128.559,1.45,1.45,0,0,0,1.38-.849V19.746a1.461,1.461,0,0,0-1.37-.822,1.326,1.326,0,0,0-1.139.564A2.838,2.838,0,0,0,25.341,21.159Zm5.188-.118a3.433,3.433,0,0,1,.336-1.536,2.5,2.5,0,0,1,.935-1.053,2.544,2.544,0,0,1,1.367-.371,2.451,2.451,0,0,1,1.92.822,3.162,3.162,0,0,1,.733,2.186v.07a3.463,3.463,0,0,1-.325,1.523,2.467,2.467,0,0,1-.929,1.05,2.573,2.573,0,0,1-1.388.376,2.445,2.445,0,0,1-1.915-.822,3.146,3.146,0,0,1-.733-2.175Zm1,.118a2.486,2.486,0,0,0,.448,1.552,1.52,1.52,0,0,0,2.4-.008,2.719,2.719,0,0,0,.446-1.662,2.482,2.482,0,0,0-.454-1.55,1.443,1.443,0,0,0-1.206-.594,1.427,1.427,0,0,0-1.187.585A2.7,2.7,0,0,0,31.528,21.159Zm8.019-.113a3.4,3.4,0,0,1,.634-2.151,2.156,2.156,0,0,1,3.276-.115V15.75h.994V24h-.913l-.048-.623a2.024,2.024,0,0,1-1.66.73,1.985,1.985,0,0,1-1.646-.827,3.443,3.443,0,0,1-.636-2.159Zm.994.113a2.578,2.578,0,0,0,.408,1.547,1.32,1.32,0,0,0,1.128.559,1.45,1.45,0,0,0,1.38-.849V19.746a1.461,1.461,0,0,0-1.37-.822,1.326,1.326,0,0,0-1.139.564A2.838,2.838,0,0,0,40.541,21.159ZM48.4,24.107a2.539,2.539,0,0,1-1.923-.776,2.881,2.881,0,0,1-.741-2.076v-.183a3.487,3.487,0,0,1,.33-1.544,2.577,2.577,0,0,1,.924-1.063,2.323,2.323,0,0,1,1.286-.384,2.177,2.177,0,0,1,1.762.747,3.232,3.232,0,0,1,.628,2.138v.414H46.734a2.066,2.066,0,0,0,.5,1.388,1.579,1.579,0,0,0,1.222.529,1.731,1.731,0,0,0,.892-.215,2.24,2.24,0,0,0,.639-.569l.607.473A2.44,2.44,0,0,1,48.4,24.107Zm-.124-5.21a1.325,1.325,0,0,0-1.01.438,2.128,2.128,0,0,0-.5,1.227h2.911v-.075a1.893,1.893,0,0,0-.408-1.174A1.248,1.248,0,0,0,48.281,18.9ZM55.032,24V18.957h-.918v-.768h.918v-.6a1.979,1.979,0,0,1,.5-1.445,1.887,1.887,0,0,1,1.413-.51,2.624,2.624,0,0,1,.682.091l-.054.8a2.854,2.854,0,0,0-.537-.048.97.97,0,0,0-.747.283,1.147,1.147,0,0,0-.263.811v.614h1.241v.768H56.026V24ZM58.1,21.041a3.433,3.433,0,0,1,.336-1.536,2.5,2.5,0,0,1,.935-1.053,2.544,2.544,0,0,1,1.367-.371,2.451,2.451,0,0,1,1.92.822,3.162,3.162,0,0,1,.733,2.186v.07a3.463,3.463,0,0,1-.325,1.523,2.467,2.467,0,0,1-.929,1.05,2.573,2.573,0,0,1-1.388.376,2.445,2.445,0,0,1-1.915-.822A3.146,3.146,0,0,1,58.1,21.11Zm1,.118a2.486,2.486,0,0,0,.448,1.552,1.52,1.52,0,0,0,2.4-.008,2.719,2.719,0,0,0,.446-1.662,2.482,2.482,0,0,0-.454-1.55,1.443,1.443,0,0,0-1.206-.594,1.427,1.427,0,0,0-1.187.585A2.7,2.7,0,0,0,59.1,21.159Zm8.347-2.079a2.978,2.978,0,0,0-.489-.038,1.309,1.309,0,0,0-1.327.833V24h-.994V18.188H65.6l.016.671A1.547,1.547,0,0,1,67,18.081a1.015,1.015,0,0,1,.44.075Zm2.53-2.3v1.407H71.06v.768H69.975v3.609a.807.807,0,0,0,.145.524.61.61,0,0,0,.494.175,2.406,2.406,0,0,0,.473-.064V24a2.9,2.9,0,0,1-.763.107,1.237,1.237,0,0,1-1-.4,1.731,1.731,0,0,1-.338-1.144v-3.6H67.923v-.768h1.058V16.781ZM75.808,24a2.087,2.087,0,0,1-.14-.612,2.217,2.217,0,0,1-1.654.72,2.051,2.051,0,0,1-1.41-.486,1.573,1.573,0,0,1-.551-1.233,1.643,1.643,0,0,1,.69-1.41,3.254,3.254,0,0,1,1.942-.5h.967V20.02a1.116,1.116,0,0,0-.312-.83,1.252,1.252,0,0,0-.918-.309,1.449,1.449,0,0,0-.892.269.791.791,0,0,0-.36.65h-1a1.371,1.371,0,0,1,.309-.841,2.108,2.108,0,0,1,.838-.642,2.819,2.819,0,0,1,1.163-.236,2.3,2.3,0,0,1,1.574.5,1.812,1.812,0,0,1,.591,1.383v2.675a3.27,3.27,0,0,0,.2,1.273V24Zm-1.649-.757A1.746,1.746,0,0,0,75.045,23a1.462,1.462,0,0,0,.607-.628V21.18h-.779q-1.826,0-1.826,1.069a.9.9,0,0,0,.312.73A1.2,1.2,0,0,0,74.159,23.243ZM79.283,24h-.994V15.75h.994Zm4,.107a2.539,2.539,0,0,1-1.923-.776,2.881,2.881,0,0,1-.741-2.076v-.183a3.487,3.487,0,0,1,.33-1.544,2.577,2.577,0,0,1,.924-1.063,2.323,2.323,0,0,1,1.286-.384,2.177,2.177,0,0,1,1.762.747,3.232,3.232,0,0,1,.628,2.138v.414H81.614a2.066,2.066,0,0,0,.5,1.388,1.579,1.579,0,0,0,1.222.529,1.731,1.731,0,0,0,.892-.215,2.24,2.24,0,0,0,.639-.569l.607.473A2.44,2.44,0,0,1,83.284,24.107Zm-.124-5.21a1.325,1.325,0,0,0-1.01.438,2.128,2.128,0,0,0-.5,1.227h2.911v-.075a1.893,1.893,0,0,0-.408-1.174A1.248,1.248,0,0,0,83.161,18.9Zm4.474,4.292h3.4V24H86.421v-.73l3.207-4.259H86.469v-.822h4.4v.7Zm8.1.811a2.087,2.087,0,0,1-.14-.612,2.217,2.217,0,0,1-1.654.72,2.051,2.051,0,0,1-1.41-.486,1.573,1.573,0,0,1-.551-1.233,1.643,1.643,0,0,1,.69-1.41,3.254,3.254,0,0,1,1.942-.5h.967V20.02a1.116,1.116,0,0,0-.312-.83,1.252,1.252,0,0,0-.918-.309,1.449,1.449,0,0,0-.892.269.791.791,0,0,0-.36.65h-1a1.371,1.371,0,0,1,.309-.841,2.108,2.108,0,0,1,.838-.642,2.819,2.819,0,0,1,1.163-.236,2.3,2.3,0,0,1,1.574.5,1.812,1.812,0,0,1,.591,1.383v2.675a3.27,3.27,0,0,0,.2,1.273V24Zm-1.649-.757A1.746,1.746,0,0,0,94.977,23a1.462,1.462,0,0,0,.607-.628V21.18h-.779q-1.826,0-1.826,1.069a.9.9,0,0,0,.312.73A1.2,1.2,0,0,0,94.091,23.243Zm7.428-.784a.732.732,0,0,0-.3-.626,2.921,2.921,0,0,0-1.058-.384,5,5,0,0,1-1.2-.387,1.7,1.7,0,0,1-.655-.537,1.285,1.285,0,0,1-.212-.741,1.508,1.508,0,0,1,.6-1.208,2.36,2.36,0,0,1,1.544-.494,2.428,2.428,0,0,1,1.6.51,1.621,1.621,0,0,1,.615,1.305h-1a.9.9,0,0,0-.346-.7,1.3,1.3,0,0,0-.873-.3,1.358,1.358,0,0,0-.849.236.744.744,0,0,0-.306.618.6.6,0,0,0,.285.542,3.5,3.5,0,0,0,1.029.349,5.359,5.359,0,0,1,1.206.4,1.759,1.759,0,0,1,.685.556,1.367,1.367,0,0,1,.223.792,1.487,1.487,0,0,1-.623,1.249,2.613,2.613,0,0,1-1.617.47,2.926,2.926,0,0,1-1.235-.247,2.009,2.009,0,0,1-.841-.69,1.664,1.664,0,0,1-.3-.959h.994a1.029,1.029,0,0,0,.4.792,1.552,1.552,0,0,0,.986.293,1.6,1.6,0,0,0,.905-.228A.7.7,0,0,0,101.519,22.458ZM.714,32.826a8.3,8.3,0,0,1,.325-2.331,6.772,6.772,0,0,1,.969-2.03,4.124,4.124,0,0,1,1.337-1.289l.2.655a4.278,4.278,0,0,0-1.286,1.837,7.963,7.963,0,0,0-.551,2.766l-.005.457a8,8,0,0,0,.757,3.6A4.3,4.3,0,0,0,3.55,37.917l-.2.607a4.257,4.257,0,0,1-1.364-1.332A7.466,7.466,0,0,1,.714,32.826ZM5.591,36H4.6V30.188h.994ZM4.517,28.647a.593.593,0,0,1,.148-.408.555.555,0,0,1,.438-.167.563.563,0,0,1,.44.167.587.587,0,0,1,.15.408.568.568,0,0,1-.15.4.573.573,0,0,1-.44.161.565.565,0,0,1-.438-.161A.573.573,0,0,1,4.517,28.647Zm3.6,1.542.032.73a2.118,2.118,0,0,1,1.74-.838q1.842,0,1.858,2.079V36h-.994V32.154a1.338,1.338,0,0,0-.287-.929,1.152,1.152,0,0,0-.878-.3,1.434,1.434,0,0,0-.849.258,1.751,1.751,0,0,0-.569.677V36H7.181V30.188ZM14.6,28.781v1.407h1.085v.768H14.6v3.609a.807.807,0,0,0,.145.524.61.61,0,0,0,.494.175,2.406,2.406,0,0,0,.473-.064V36a2.9,2.9,0,0,1-.763.107,1.237,1.237,0,0,1-1-.4,1.731,1.731,0,0,1-.338-1.144v-3.6H12.547v-.768H13.6V28.781Zm4.657,7.326a2.539,2.539,0,0,1-1.923-.776,2.881,2.881,0,0,1-.741-2.076v-.183a3.487,3.487,0,0,1,.33-1.544,2.577,2.577,0,0,1,.924-1.063,2.323,2.323,0,0,1,1.286-.384,2.177,2.177,0,0,1,1.762.747,3.232,3.232,0,0,1,.628,2.138v.414H17.585a2.066,2.066,0,0,0,.5,1.388,1.579,1.579,0,0,0,1.222.529,1.731,1.731,0,0,0,.892-.215,2.24,2.24,0,0,0,.639-.569l.607.473A2.44,2.44,0,0,1,19.255,36.107Zm-.124-5.21a1.325,1.325,0,0,0-1.01.438,2.128,2.128,0,0,0-.5,1.227h2.911v-.075a1.893,1.893,0,0,0-.408-1.174A1.248,1.248,0,0,0,19.132,30.9Zm6.349.183a2.978,2.978,0,0,0-.489-.038,1.309,1.309,0,0,0-1.327.833V36h-.994V30.188h.967l.016.671a1.547,1.547,0,0,1,1.386-.779,1.015,1.015,0,0,1,.44.075Zm1.853-.892.032.73a2.118,2.118,0,0,1,1.74-.838q1.842,0,1.858,2.079V36h-.994V32.154a1.338,1.338,0,0,0-.287-.929,1.152,1.152,0,0,0-.878-.3,1.434,1.434,0,0,0-.849.258,1.751,1.751,0,0,0-.569.677V36h-.994V30.188ZM32.2,33.041a3.433,3.433,0,0,1,.336-1.536,2.5,2.5,0,0,1,.935-1.053,2.544,2.544,0,0,1,1.367-.371,2.451,2.451,0,0,1,1.92.822,3.162,3.162,0,0,1,.733,2.186v.07a3.463,3.463,0,0,1-.325,1.523,2.467,2.467,0,0,1-.929,1.05,2.573,2.573,0,0,1-1.388.376,2.445,2.445,0,0,1-1.915-.822A3.146,3.146,0,0,1,32.2,33.11Zm1,.118a2.486,2.486,0,0,0,.448,1.552,1.52,1.52,0,0,0,2.4-.008,2.719,2.719,0,0,0,.446-1.662,2.482,2.482,0,0,0-.454-1.55,1.443,1.443,0,0,0-1.206-.594,1.427,1.427,0,0,0-1.187.585A2.7,2.7,0,0,0,33.2,33.159Zm7.831-.279a8.308,8.308,0,0,1-.314,2.3,6.79,6.79,0,0,1-.961,2.028A4.212,4.212,0,0,1,38.4,38.524l-.209-.607a4.318,4.318,0,0,0,1.329-1.969,8.516,8.516,0,0,0,.513-2.962v-.172a8.842,8.842,0,0,0-.236-2.1,7.079,7.079,0,0,0-.658-1.738,4.013,4.013,0,0,0-.948-1.2l.209-.607a4.2,4.2,0,0,1,1.351,1.311,6.8,6.8,0,0,1,.961,2.025A8.5,8.5,0,0,1,41.03,32.879Zm1.552,2.6a.622.622,0,0,1,.153-.43.583.583,0,0,1,.459-.172.6.6,0,0,1,.465.172.61.61,0,0,1,.158.43.577.577,0,0,1-.158.414.612.612,0,0,1-.465.167.552.552,0,0,1-.612-.58Z" transform="translate(-10776 -4362)" fill="#12263f"/>
    <path id="Trazado_137056" data-name="Trazado 137056" d="M5.113,10.389H2.288L1.751,12H.038L2.949,4.18H4.442L7.369,12H5.656ZM2.723,9.083H4.678L3.7,6.156Zm6.73-2.9.048.65a2.042,2.042,0,0,1,1.67-.757,1.55,1.55,0,0,1,1.542.886,2,2,0,0,1,1.746-.886,1.733,1.733,0,0,1,1.407.551,2.531,2.531,0,0,1,.462,1.657V12H14.771V8.294a1.107,1.107,0,0,0-.193-.722.857.857,0,0,0-.682-.228.969.969,0,0,0-.967.666L12.934,12H11.381V8.3a1.093,1.093,0,0,0-.2-.73.865.865,0,0,0-.677-.226,1.006,1.006,0,0,0-.956.548V12H8V6.188ZM20.2,12.107a2.853,2.853,0,0,1-2.081-.784,2.787,2.787,0,0,1-.8-2.089v-.15a3.511,3.511,0,0,1,.338-1.566,2.483,2.483,0,0,1,.959-1.063,2.691,2.691,0,0,1,1.415-.373,2.412,2.412,0,0,1,1.877.752,3.056,3.056,0,0,1,.685,2.132V9.6h-3.7a1.442,1.442,0,0,0,.454.913,1.372,1.372,0,0,0,.959.344,1.675,1.675,0,0,0,1.4-.65l.763.854a2.33,2.33,0,0,1-.945.771A3.1,3.1,0,0,1,20.2,12.107Zm-.177-4.775a.97.97,0,0,0-.749.313,1.62,1.62,0,0,0-.368.9H21.06V8.417a1.156,1.156,0,0,0-.279-.8A1,1,0,0,0,20.018,7.333ZM24.9,6.188l.048.671a2.029,2.029,0,0,1,1.67-.779,1.686,1.686,0,0,1,1.375.542,2.531,2.531,0,0,1,.462,1.622V12H26.9V8.283a1.007,1.007,0,0,0-.215-.717.962.962,0,0,0-.714-.223,1.068,1.068,0,0,0-.983.559V12H23.434V6.188ZM32.995,12a1.724,1.724,0,0,1-.156-.521,1.878,1.878,0,0,1-1.466.628,2.063,2.063,0,0,1-1.415-.494,1.589,1.589,0,0,1-.561-1.246,1.642,1.642,0,0,1,.685-1.418,3.379,3.379,0,0,1,1.979-.5h.714V8.117a.958.958,0,0,0-.207-.645.813.813,0,0,0-.653-.242.925.925,0,0,0-.615.188.639.639,0,0,0-.223.516H29.525A1.559,1.559,0,0,1,29.836,7a2.059,2.059,0,0,1,.881-.674A3.21,3.21,0,0,1,32,6.081a2.536,2.536,0,0,1,1.705.54,1.888,1.888,0,0,1,.631,1.517v2.519a2.778,2.778,0,0,0,.231,1.251V12Zm-1.284-1.08a1.337,1.337,0,0,0,.634-.153,1,1,0,0,0,.43-.411v-1h-.58q-1.166,0-1.241.806l-.005.091a.621.621,0,0,0,.2.478A.793.793,0,0,0,31.711,10.92Zm5.6-.172h2.841V12H35.326v-.945L38.06,7.44H35.406V6.188h4.657V7.1ZM44.489,12a1.724,1.724,0,0,1-.156-.521,1.878,1.878,0,0,1-1.466.628,2.063,2.063,0,0,1-1.415-.494,1.589,1.589,0,0,1-.561-1.246,1.642,1.642,0,0,1,.685-1.418,3.379,3.379,0,0,1,1.979-.5h.714V8.117a.958.958,0,0,0-.207-.645.813.813,0,0,0-.653-.242.925.925,0,0,0-.615.188.639.639,0,0,0-.223.516H41.019A1.559,1.559,0,0,1,41.331,7a2.059,2.059,0,0,1,.881-.674,3.21,3.21,0,0,1,1.278-.244,2.536,2.536,0,0,1,1.705.54,1.888,1.888,0,0,1,.631,1.517v2.519a2.778,2.778,0,0,0,.231,1.251V12Zm-1.284-1.08a1.337,1.337,0,0,0,.634-.153,1,1,0,0,0,.43-.411v-1h-.58q-1.166,0-1.241.806l-.005.091a.621.621,0,0,0,.2.478A.793.793,0,0,0,43.205,10.92Zm6.961-.526a.5.5,0,0,0-.282-.448,3.2,3.2,0,0,0-.905-.293q-2.073-.435-2.073-1.762A1.6,1.6,0,0,1,47.548,6.6a2.589,2.589,0,0,1,1.678-.518A2.787,2.787,0,0,1,51,6.6a1.642,1.642,0,0,1,.663,1.354H50.107a.751.751,0,0,0-.215-.551.909.909,0,0,0-.671-.218.929.929,0,0,0-.607.177.56.56,0,0,0-.215.451.478.478,0,0,0,.244.416,2.514,2.514,0,0,0,.824.274,6.734,6.734,0,0,1,.978.26,1.606,1.606,0,0,1,1.23,1.563,1.516,1.516,0,0,1-.682,1.286,2.943,2.943,0,0,1-1.762.491,3.073,3.073,0,0,1-1.3-.26,2.176,2.176,0,0,1-.889-.714,1.66,1.66,0,0,1-.322-.98h1.472a.81.81,0,0,0,.306.634,1.214,1.214,0,0,0,.763.22,1.124,1.124,0,0,0,.674-.169A.526.526,0,0,0,50.166,10.394ZM1.944,23.157H5.65V24H.908V16.18H1.944ZM7.75,24H6.757V18.188H7.75ZM6.676,16.647a.593.593,0,0,1,.148-.408.555.555,0,0,1,.438-.167.563.563,0,0,1,.44.167.587.587,0,0,1,.15.408.568.568,0,0,1-.15.4.573.573,0,0,1-.44.161.565.565,0,0,1-.438-.161A.573.573,0,0,1,6.676,16.647Zm6.048,5.812a.731.731,0,0,0-.3-.626,2.921,2.921,0,0,0-1.058-.384,5,5,0,0,1-1.2-.387,1.7,1.7,0,0,1-.655-.537,1.285,1.285,0,0,1-.212-.741,1.508,1.508,0,0,1,.6-1.208,2.36,2.36,0,0,1,1.544-.494,2.428,2.428,0,0,1,1.6.51,1.621,1.621,0,0,1,.615,1.305h-1a.9.9,0,0,0-.346-.7,1.3,1.3,0,0,0-.873-.3,1.358,1.358,0,0,0-.849.236.744.744,0,0,0-.306.618.6.6,0,0,0,.285.542,3.5,3.5,0,0,0,1.029.349,5.359,5.359,0,0,1,1.206.4,1.759,1.759,0,0,1,.685.556,1.367,1.367,0,0,1,.223.792,1.487,1.487,0,0,1-.623,1.249,2.613,2.613,0,0,1-1.617.47,2.926,2.926,0,0,1-1.235-.247,2.009,2.009,0,0,1-.841-.69,1.664,1.664,0,0,1-.3-.959h.994a1.029,1.029,0,0,0,.4.792,1.552,1.552,0,0,0,.986.293,1.6,1.6,0,0,0,.905-.228A.7.7,0,0,0,12.724,22.458Zm3.636-5.677v1.407h1.085v.768H16.36v3.609a.807.807,0,0,0,.145.524.61.61,0,0,0,.494.175,2.406,2.406,0,0,0,.473-.064V24a2.9,2.9,0,0,1-.763.107,1.237,1.237,0,0,1-1-.4,1.731,1.731,0,0,1-.338-1.144v-3.6H14.309v-.768h1.058V16.781ZM22.193,24a2.087,2.087,0,0,1-.14-.612,2.217,2.217,0,0,1-1.654.72,2.051,2.051,0,0,1-1.41-.486,1.573,1.573,0,0,1-.551-1.233,1.643,1.643,0,0,1,.69-1.41,3.254,3.254,0,0,1,1.942-.5h.967V20.02a1.116,1.116,0,0,0-.312-.83,1.252,1.252,0,0,0-.918-.309,1.449,1.449,0,0,0-.892.269.791.791,0,0,0-.36.65h-1a1.371,1.371,0,0,1,.309-.841,2.108,2.108,0,0,1,.838-.642,2.819,2.819,0,0,1,1.163-.236,2.3,2.3,0,0,1,1.574.5,1.812,1.812,0,0,1,.591,1.383v2.675a3.27,3.27,0,0,0,.2,1.273V24Zm-1.649-.757A1.746,1.746,0,0,0,21.431,23a1.462,1.462,0,0,0,.607-.628V21.18h-.779q-1.826,0-1.826,1.069a.9.9,0,0,0,.312.73A1.2,1.2,0,0,0,20.544,23.243Zm3.8-2.2a3.4,3.4,0,0,1,.634-2.151,2.156,2.156,0,0,1,3.276-.115V15.75h.994V24h-.913l-.048-.623a2.024,2.024,0,0,1-1.66.73,1.985,1.985,0,0,1-1.646-.827,3.443,3.443,0,0,1-.636-2.159Zm.994.113a2.578,2.578,0,0,0,.408,1.547,1.32,1.32,0,0,0,1.128.559,1.45,1.45,0,0,0,1.38-.849V19.746a1.461,1.461,0,0,0-1.37-.822,1.326,1.326,0,0,0-1.139.564A2.838,2.838,0,0,0,25.341,21.159Zm5.188-.118a3.433,3.433,0,0,1,.336-1.536,2.5,2.5,0,0,1,.935-1.053,2.544,2.544,0,0,1,1.367-.371,2.451,2.451,0,0,1,1.92.822,3.162,3.162,0,0,1,.733,2.186v.07a3.463,3.463,0,0,1-.325,1.523,2.467,2.467,0,0,1-.929,1.05,2.573,2.573,0,0,1-1.388.376,2.445,2.445,0,0,1-1.915-.822,3.146,3.146,0,0,1-.733-2.175Zm1,.118a2.486,2.486,0,0,0,.448,1.552,1.52,1.52,0,0,0,2.4-.008,2.719,2.719,0,0,0,.446-1.662,2.482,2.482,0,0,0-.454-1.55,1.443,1.443,0,0,0-1.206-.594,1.427,1.427,0,0,0-1.187.585A2.7,2.7,0,0,0,31.528,21.159Zm8.019-.113a3.4,3.4,0,0,1,.634-2.151,2.156,2.156,0,0,1,3.276-.115V15.75h.994V24h-.913l-.048-.623a2.024,2.024,0,0,1-1.66.73,1.985,1.985,0,0,1-1.646-.827,3.443,3.443,0,0,1-.636-2.159Zm.994.113a2.578,2.578,0,0,0,.408,1.547,1.32,1.32,0,0,0,1.128.559,1.45,1.45,0,0,0,1.38-.849V19.746a1.461,1.461,0,0,0-1.37-.822,1.326,1.326,0,0,0-1.139.564A2.838,2.838,0,0,0,40.541,21.159ZM48.4,24.107a2.539,2.539,0,0,1-1.923-.776,2.881,2.881,0,0,1-.741-2.076v-.183a3.487,3.487,0,0,1,.33-1.544,2.577,2.577,0,0,1,.924-1.063,2.323,2.323,0,0,1,1.286-.384,2.177,2.177,0,0,1,1.762.747,3.232,3.232,0,0,1,.628,2.138v.414H46.734a2.066,2.066,0,0,0,.5,1.388,1.579,1.579,0,0,0,1.222.529,1.731,1.731,0,0,0,.892-.215,2.24,2.24,0,0,0,.639-.569l.607.473A2.44,2.44,0,0,1,48.4,24.107Zm-.124-5.21a1.325,1.325,0,0,0-1.01.438,2.128,2.128,0,0,0-.5,1.227h2.911v-.075a1.893,1.893,0,0,0-.408-1.174A1.248,1.248,0,0,0,48.281,18.9ZM58.131,24a2.087,2.087,0,0,1-.14-.612,2.217,2.217,0,0,1-1.654.72,2.051,2.051,0,0,1-1.41-.486,1.573,1.573,0,0,1-.551-1.233,1.643,1.643,0,0,1,.69-1.41,3.254,3.254,0,0,1,1.942-.5h.967V20.02a1.116,1.116,0,0,0-.312-.83,1.252,1.252,0,0,0-.918-.309,1.449,1.449,0,0,0-.892.269.791.791,0,0,0-.36.65h-1a1.371,1.371,0,0,1,.309-.841,2.108,2.108,0,0,1,.838-.642,2.819,2.819,0,0,1,1.163-.236,2.3,2.3,0,0,1,1.574.5,1.812,1.812,0,0,1,.591,1.383v2.675a3.27,3.27,0,0,0,.2,1.273V24Zm-1.649-.757A1.746,1.746,0,0,0,57.369,23a1.462,1.462,0,0,0,.607-.628V21.18H57.2q-1.826,0-1.826,1.069a.9.9,0,0,0,.312.73A1.2,1.2,0,0,0,56.482,23.243Zm4.979-5.054.027.645a2.146,2.146,0,0,1,1.724-.752,1.661,1.661,0,0,1,1.66.935,2.2,2.2,0,0,1,.755-.677,2.229,2.229,0,0,1,1.1-.258q1.912,0,1.944,2.025V24h-.994V20.165a1.334,1.334,0,0,0-.285-.932,1.254,1.254,0,0,0-.956-.309,1.318,1.318,0,0,0-.918.33,1.34,1.34,0,0,0-.424.889V24h-1V20.192a1.109,1.109,0,0,0-1.241-1.268,1.329,1.329,0,0,0-1.337.833V24h-.994V18.188ZM72.58,24.107a2.539,2.539,0,0,1-1.923-.776,2.881,2.881,0,0,1-.741-2.076v-.183a3.487,3.487,0,0,1,.33-1.544,2.577,2.577,0,0,1,.924-1.063,2.323,2.323,0,0,1,1.286-.384,2.177,2.177,0,0,1,1.762.747,3.232,3.232,0,0,1,.628,2.138v.414H70.909a2.066,2.066,0,0,0,.5,1.388,1.579,1.579,0,0,0,1.222.529,1.731,1.731,0,0,0,.892-.215,2.24,2.24,0,0,0,.639-.569l.607.473A2.44,2.44,0,0,1,72.58,24.107Zm-.124-5.21a1.325,1.325,0,0,0-1.01.438,2.128,2.128,0,0,0-.5,1.227h2.911v-.075a1.893,1.893,0,0,0-.408-1.174A1.248,1.248,0,0,0,72.456,18.9Zm4.479-.709.032.73a2.118,2.118,0,0,1,1.74-.838q1.842,0,1.858,2.079V24h-.994V20.154a1.338,1.338,0,0,0-.287-.929,1.152,1.152,0,0,0-.878-.3,1.434,1.434,0,0,0-.849.258,1.751,1.751,0,0,0-.569.677V24H76V18.188ZM85.653,24a2.087,2.087,0,0,1-.14-.612,2.217,2.217,0,0,1-1.654.72,2.051,2.051,0,0,1-1.41-.486,1.573,1.573,0,0,1-.551-1.233,1.643,1.643,0,0,1,.69-1.41,3.254,3.254,0,0,1,1.942-.5H85.5V20.02a1.116,1.116,0,0,0-.312-.83,1.252,1.252,0,0,0-.918-.309,1.449,1.449,0,0,0-.892.269.791.791,0,0,0-.36.65h-1a1.371,1.371,0,0,1,.309-.841,2.108,2.108,0,0,1,.838-.642,2.819,2.819,0,0,1,1.163-.236,2.3,2.3,0,0,1,1.574.5,1.812,1.812,0,0,1,.591,1.383v2.675a3.27,3.27,0,0,0,.2,1.273V24ZM84,23.243A1.746,1.746,0,0,0,84.89,23a1.462,1.462,0,0,0,.607-.628V21.18h-.779q-1.826,0-1.826,1.069a.9.9,0,0,0,.312.73A1.2,1.2,0,0,0,84,23.243Zm4.979-.054h3.4V24H87.769v-.73l3.207-4.259H87.817v-.822h4.4v.7Zm8.1.811a2.087,2.087,0,0,1-.14-.612,2.217,2.217,0,0,1-1.654.72,2.051,2.051,0,0,1-1.41-.486,1.573,1.573,0,0,1-.551-1.233,1.643,1.643,0,0,1,.69-1.41,3.254,3.254,0,0,1,1.942-.5h.967V20.02a1.116,1.116,0,0,0-.312-.83,1.252,1.252,0,0,0-.918-.309,1.449,1.449,0,0,0-.892.269.791.791,0,0,0-.36.65h-1a1.371,1.371,0,0,1,.309-.841,2.108,2.108,0,0,1,.838-.642,2.819,2.819,0,0,1,1.163-.236,2.3,2.3,0,0,1,1.574.5,1.812,1.812,0,0,1,.591,1.383v2.675a3.27,3.27,0,0,0,.2,1.273V24Zm-1.649-.757A1.746,1.746,0,0,0,96.325,23a1.462,1.462,0,0,0,.607-.628V21.18h-.779q-1.826,0-1.826,1.069a.9.9,0,0,0,.312.73A1.2,1.2,0,0,0,95.439,23.243Zm7.428-.784a.732.732,0,0,0-.3-.626,2.921,2.921,0,0,0-1.058-.384,5,5,0,0,1-1.2-.387,1.7,1.7,0,0,1-.655-.537,1.285,1.285,0,0,1-.212-.741,1.508,1.508,0,0,1,.6-1.208,2.36,2.36,0,0,1,1.544-.494,2.428,2.428,0,0,1,1.6.51,1.621,1.621,0,0,1,.615,1.305h-1a.9.9,0,0,0-.346-.7,1.3,1.3,0,0,0-.873-.3,1.358,1.358,0,0,0-.849.236.744.744,0,0,0-.306.618.6.6,0,0,0,.285.542,3.5,3.5,0,0,0,1.029.349,5.359,5.359,0,0,1,1.206.4,1.759,1.759,0,0,1,.685.556,1.367,1.367,0,0,1,.223.792,1.487,1.487,0,0,1-.623,1.249,2.613,2.613,0,0,1-1.617.47,2.926,2.926,0,0,1-1.235-.247,2.009,2.009,0,0,1-.841-.69,1.664,1.664,0,0,1-.3-.959h.994a1.029,1.029,0,0,0,.4.792,1.552,1.552,0,0,0,.986.293,1.6,1.6,0,0,0,.905-.228A.7.7,0,0,0,102.867,22.458ZM.714,32.826a8.3,8.3,0,0,1,.325-2.331,6.772,6.772,0,0,1,.969-2.03,4.124,4.124,0,0,1,1.337-1.289l.2.655a4.278,4.278,0,0,0-1.286,1.837,7.963,7.963,0,0,0-.551,2.766l-.005.457a8,8,0,0,0,.757,3.6A4.3,4.3,0,0,0,3.55,37.917l-.2.607a4.257,4.257,0,0,1-1.364-1.332A7.466,7.466,0,0,1,.714,32.826Zm6.209,3.282A2.539,2.539,0,0,1,5,35.331a2.881,2.881,0,0,1-.741-2.076v-.183a3.487,3.487,0,0,1,.33-1.544,2.577,2.577,0,0,1,.924-1.063A2.323,2.323,0,0,1,6.8,30.081a2.177,2.177,0,0,1,1.762.747,3.232,3.232,0,0,1,.628,2.138v.414H5.253a2.066,2.066,0,0,0,.5,1.388,1.579,1.579,0,0,0,1.222.529,1.731,1.731,0,0,0,.892-.215,2.24,2.24,0,0,0,.639-.569l.607.473A2.44,2.44,0,0,1,6.923,36.107ZM6.8,30.9a1.325,1.325,0,0,0-1.01.438,2.128,2.128,0,0,0-.5,1.227H8.2v-.075a1.893,1.893,0,0,0-.408-1.174A1.248,1.248,0,0,0,6.8,30.9Zm5.489,1.413,1.289-2.122h1.16l-1.9,2.874L14.8,36H13.648l-1.343-2.175L10.962,36H9.808l1.96-2.938-1.9-2.874h1.149Zm4.85-3.529v1.407h1.085v.768H17.139v3.609a.807.807,0,0,0,.145.524.61.61,0,0,0,.494.175,2.406,2.406,0,0,0,.473-.064V36a2.9,2.9,0,0,1-.763.107,1.237,1.237,0,0,1-1-.4,1.731,1.731,0,0,1-.338-1.144v-3.6H15.087v-.768h1.058V28.781ZM21.8,36.107a2.539,2.539,0,0,1-1.923-.776,2.881,2.881,0,0,1-.741-2.076v-.183a3.487,3.487,0,0,1,.33-1.544,2.577,2.577,0,0,1,.924-1.063,2.323,2.323,0,0,1,1.286-.384,2.177,2.177,0,0,1,1.762.747,3.232,3.232,0,0,1,.628,2.138v.414H20.125a2.066,2.066,0,0,0,.5,1.388,1.579,1.579,0,0,0,1.222.529,1.731,1.731,0,0,0,.892-.215,2.24,2.24,0,0,0,.639-.569l.607.473A2.44,2.44,0,0,1,21.8,36.107Zm-.124-5.21a1.325,1.325,0,0,0-1.01.438,2.128,2.128,0,0,0-.5,1.227h2.911v-.075a1.893,1.893,0,0,0-.408-1.174A1.248,1.248,0,0,0,21.672,30.9Zm6.349.183a2.978,2.978,0,0,0-.489-.038,1.309,1.309,0,0,0-1.327.833V36h-.994V30.188h.967l.016.671a1.547,1.547,0,0,1,1.386-.779,1.015,1.015,0,0,1,.44.075Zm1.853-.892.032.73a2.118,2.118,0,0,1,1.74-.838q1.842,0,1.858,2.079V36h-.994V32.154a1.338,1.338,0,0,0-.287-.929,1.152,1.152,0,0,0-.878-.3,1.434,1.434,0,0,0-.849.258,1.751,1.751,0,0,0-.569.677V36h-.994V30.188Zm4.866,2.852a3.433,3.433,0,0,1,.336-1.536,2.5,2.5,0,0,1,.935-1.053,2.544,2.544,0,0,1,1.367-.371,2.451,2.451,0,0,1,1.92.822,3.162,3.162,0,0,1,.733,2.186v.07a3.463,3.463,0,0,1-.325,1.523,2.467,2.467,0,0,1-.929,1.05,2.573,2.573,0,0,1-1.388.376,2.445,2.445,0,0,1-1.915-.822,3.146,3.146,0,0,1-.733-2.175Zm1,.118a2.486,2.486,0,0,0,.448,1.552,1.52,1.52,0,0,0,2.4-.008,2.719,2.719,0,0,0,.446-1.662,2.482,2.482,0,0,0-.454-1.55,1.443,1.443,0,0,0-1.206-.594,1.427,1.427,0,0,0-1.187.585A2.7,2.7,0,0,0,35.739,33.159Zm7.831-.279a8.308,8.308,0,0,1-.314,2.3,6.79,6.79,0,0,1-.961,2.028,4.212,4.212,0,0,1-1.356,1.321l-.209-.607a4.318,4.318,0,0,0,1.329-1.969,8.516,8.516,0,0,0,.513-2.962v-.172a8.842,8.842,0,0,0-.236-2.1,7.079,7.079,0,0,0-.658-1.738,4.013,4.013,0,0,0-.948-1.2l.209-.607a4.2,4.2,0,0,1,1.351,1.311,6.8,6.8,0,0,1,.961,2.025A8.5,8.5,0,0,1,43.57,32.879Zm1.552,2.6a.622.622,0,0,1,.153-.43.583.583,0,0,1,.459-.172.6.6,0,0,1,.465.172.61.61,0,0,1,.158.43.577.577,0,0,1-.158.414.612.612,0,0,1-.465.167.552.552,0,0,1-.612-.58Z" transform="translate(-10385 -4362)" fill="#12263f"/>
    <g id="Grupo_159317" data-name="Grupo 159317" transform="translate(-10624 -4514)">
      <g id="Grupo_159316" data-name="Grupo 159316" clip-path="url(#clip-path)">
        <path id="Trazado_135763" data-name="Trazado 135763" d="M105.652,6.72V100.7H11.669c0-.165,0-.332,0-.5A93.486,93.486,0,0,1,105.151,6.716c.167,0,.336,0,.5,0" transform="translate(3.004 1.73)" fill="#29c4bb"/>
        <path id="Trazado_135764" data-name="Trazado 135764" d="M179.39,100.2c0,.167,0,.335,0,.5H86.4V6.719A93.482,93.482,0,0,1,179.39,100.2" transform="translate(22.253 1.73)" fill="#b0c8cb"/>
        <path id="Trazado_135765" data-name="Trazado 135765" d="M105.651,81.453v92.983c-.165,0-.333,0-.5,0A93.484,93.484,0,0,1,11.668,81.453Z" transform="translate(3.005 20.978)" fill="#0c487b"/>
        <path id="Trazado_135766" data-name="Trazado 135766" d="M179.386,81.453A93.478,93.478,0,0,1,86.4,174.436V81.453Z" transform="translate(22.253 20.978)" fill="#1169e3"/>
        <path id="Trazado_135767" data-name="Trazado 135767" d="M28.712,57.426A28.713,28.713,0,0,1,8.409,8.41,28.713,28.713,0,0,1,49.015,49.017a28.528,28.528,0,0,1-20.3,8.409" fill="#29c4bb"/>
        <path id="Trazado_135768" data-name="Trazado 135768" d="M154.978,57.7a28.852,28.852,0,0,1-20.4-49.253,28.852,28.852,0,1,1,40.8,40.8,28.659,28.659,0,0,1-20.4,8.451" transform="translate(32.483 0)" fill="#b0c8cb"/>
        <path id="Trazado_135769" data-name="Trazado 135769" d="M20.959,20.9a4.361,4.361,0,0,1,3.092,1.28c.039.039.07.08.109.121l-1.309,1.308c-.036-.041-.063-.087-.1-.127a2.527,2.527,0,0,0-3.578,0l-5.533,5.533a2.531,2.531,0,1,0,3.579,3.58l5.412-5.414,1.3,1.3-5.411,5.412a4.372,4.372,0,1,1-6.183-6.183l5.531-5.533a4.362,4.362,0,0,1,3.094-1.28m0-.75a5.087,5.087,0,0,0-3.622,1.5L11.8,27.18a5.121,5.121,0,0,0,7.243,7.242l5.411-5.412a.745.745,0,0,0,0-1.06l-1.3-1.3a.748.748,0,0,0-1.058,0l-5.415,5.414a1.782,1.782,0,0,1-2.519-2.521L19.7,24.008A1.782,1.782,0,0,1,22.205,24L22.21,24c.02.025.047.059.078.1a.749.749,0,0,0,.538.254h.025a.756.756,0,0,0,.531-.22l1.307-1.308a.749.749,0,0,0,.019-1.039c-.01-.01-.019-.021-.028-.031-.026-.03-.058-.068-.1-.109a5.084,5.084,0,0,0-3.62-1.5" transform="translate(2.654 5.189)" fill="#fff"/>
        <path id="Trazado_135770" data-name="Trazado 135770" d="M20.959,20.9a4.361,4.361,0,0,1,3.092,1.28c.039.039.07.08.109.121l-1.309,1.308c-.036-.041-.063-.087-.1-.127a2.527,2.527,0,0,0-3.578,0l-5.533,5.533a2.531,2.531,0,1,0,3.579,3.58l5.412-5.414,1.3,1.3-5.411,5.412a4.372,4.372,0,1,1-6.183-6.183l5.531-5.533A4.362,4.362,0,0,1,20.959,20.9Zm0-.75a5.087,5.087,0,0,0-3.622,1.5L11.8,27.18a5.121,5.121,0,0,0,7.243,7.242l5.411-5.412a.745.745,0,0,0,0-1.06l-1.3-1.3a.748.748,0,0,0-1.058,0l-5.415,5.414a1.782,1.782,0,0,1-2.519-2.521L19.7,24.008A1.782,1.782,0,0,1,22.205,24L22.21,24c.02.025.047.059.078.1a.749.749,0,0,0,.538.254h.025a.756.756,0,0,0,.531-.22l1.307-1.308a.749.749,0,0,0,.019-1.039c-.01-.01-.019-.021-.028-.031-.026-.03-.058-.068-.1-.109A5.084,5.084,0,0,0,20.959,20.147Z" transform="translate(2.654 5.189)" fill="none" stroke="#fff" stroke-miterlimit="10" stroke-width="0.298"/>
        <path id="Trazado_135771" data-name="Trazado 135771" d="M31.735,13.942a4.372,4.372,0,0,1,3.092,7.464l-5.533,5.533a4.373,4.373,0,0,1-6.183,0c-.1-.1-.2-.207-.287-.316l1.424-1.187c.055.067.1.138.165.2a2.53,2.53,0,0,0,3.58,0L33.525,20.1a2.531,2.531,0,1,0-3.579-3.58l-4.493,4.493-1.3-1.3,4.492-4.492a4.359,4.359,0,0,1,3.092-1.28m0-.749a5.089,5.089,0,0,0-3.622,1.5l-4.492,4.492a.748.748,0,0,0,0,1.059l1.3,1.3a.75.75,0,0,0,1.059,0l4.493-4.493A1.782,1.782,0,0,1,33,19.575l-5.533,5.533a1.782,1.782,0,0,1-2.52,0c-.008-.009-.03-.038-.045-.059s-.044-.057-.067-.086a.756.756,0,0,0-.509-.273.69.69,0,0,0-.073,0,.749.749,0,0,0-.479.175l-1.424,1.186a.747.747,0,0,0-.1,1.051c.111.135.22.255.335.37a5.12,5.12,0,0,0,7.242,0l5.533-5.533a5.121,5.121,0,0,0-3.622-8.742" transform="translate(5.685 3.398)" fill="#fff"/>
        <path id="Trazado_135772" data-name="Trazado 135772" d="M31.735,13.942a4.372,4.372,0,0,1,3.092,7.464l-5.533,5.533a4.373,4.373,0,0,1-6.183,0c-.1-.1-.2-.207-.287-.316l1.424-1.187c.055.067.1.138.165.2a2.53,2.53,0,0,0,3.58,0L33.525,20.1a2.531,2.531,0,1,0-3.579-3.58l-4.493,4.493-1.3-1.3,4.492-4.492A4.359,4.359,0,0,1,31.735,13.942Zm0-.749a5.089,5.089,0,0,0-3.622,1.5l-4.492,4.492a.748.748,0,0,0,0,1.059l1.3,1.3a.75.75,0,0,0,1.059,0l4.493-4.493A1.782,1.782,0,0,1,33,19.575l-5.533,5.533a1.782,1.782,0,0,1-2.52,0c-.008-.009-.03-.038-.045-.059s-.044-.057-.067-.086a.756.756,0,0,0-.509-.273.69.69,0,0,0-.073,0,.749.749,0,0,0-.479.175l-1.424,1.186a.747.747,0,0,0-.1,1.051c.111.135.22.255.335.37a5.12,5.12,0,0,0,7.242,0l5.533-5.533a5.121,5.121,0,0,0-3.622-8.742Z" transform="translate(5.685 3.398)" fill="none" stroke="#fff" stroke-miterlimit="10" stroke-width="0.298"/>
        <path id="Trazado_135773" data-name="Trazado 135773" d="M22.208,16.382h0a.691.691,0,0,1-.69-.69V12.469a.69.69,0,0,1,1.381,0v3.222a.691.691,0,0,1-.69.69" transform="translate(5.542 3.034)" fill="#fff"/>
        <path id="Trazado_135774" data-name="Trazado 135774" d="M22.247,16.607a.879.879,0,0,1-.878-.878V12.508a.878.878,0,1,1,1.756,0V15.73a.879.879,0,0,1-.878.878m0-4.6a.5.5,0,0,0-.5.5V15.73a.5.5,0,0,0,1.006,0V12.508a.5.5,0,0,0-.5-.5" transform="translate(5.504 2.995)" fill="#fff"/>
        <path id="Trazado_135775" data-name="Trazado 135775" d="M18.857,17.28h0a.69.69,0,0,1-.943-.253L16.3,14.237a.69.69,0,1,1,1.2-.69l1.611,2.79a.69.69,0,0,1-.253.943" transform="translate(4.175 3.4)" fill="#fff"/>
        <path id="Trazado_135776" data-name="Trazado 135776" d="M18.552,17.6a.877.877,0,0,1-.762-.439l-1.611-2.79a.878.878,0,0,1,1.52-.878l1.611,2.79a.88.88,0,0,1-.322,1.2.871.871,0,0,1-.436.117m-1.613-4.171a.5.5,0,0,0-.435.755l1.611,2.79a.5.5,0,1,0,.871-.5l-1.611-2.79a.5.5,0,0,0-.306-.234.512.512,0,0,0-.131-.018" transform="translate(4.137 3.362)" fill="#fff"/>
        <path id="Trazado_135777" data-name="Trazado 135777" d="M16.4,19.733h0a.69.69,0,0,1-.943.253l-2.79-1.611a.69.69,0,0,1,.69-1.2l2.79,1.611a.69.69,0,0,1,.253.943" transform="translate(3.174 4.4)" fill="#fff"/>
        <path id="Trazado_135778" data-name="Trazado 135778" d="M15.843,20.3a.879.879,0,0,1-.438-.117l-2.79-1.612a.877.877,0,1,1,.878-1.519l2.79,1.611a.878.878,0,0,1-.44,1.637m-2.788-2.992a.5.5,0,0,0-.436.252.5.5,0,0,0-.05.382.5.5,0,0,0,.234.306l2.79,1.611a.5.5,0,1,0,.5-.871l-2.79-1.611a.487.487,0,0,0-.25-.068" transform="translate(3.136 4.362)" fill="#fff"/>
        <path id="Trazado_135779" data-name="Trazado 135779" d="M22.208,30.446h0a.691.691,0,0,1,.69.69v3.222a.69.69,0,0,1-1.381,0V31.136a.691.691,0,0,1,.69-.69" transform="translate(5.542 7.841)" fill="#fff"/>
        <path id="Trazado_135780" data-name="Trazado 135780" d="M22.247,35.274a.879.879,0,0,1-.878-.878V31.175a.878.878,0,1,1,1.756,0V34.4a.879.879,0,0,1-.878.878m0-4.6a.5.5,0,0,0-.5.5V34.4a.5.5,0,1,0,1.006,0V31.175a.5.5,0,0,0-.5-.5" transform="translate(5.504 7.803)" fill="#fff"/>
        <path id="Trazado_135781" data-name="Trazado 135781" d="M25.889,29.459h0a.69.69,0,0,1,.943.253L28.443,32.5a.69.69,0,0,1-1.2.69L25.636,30.4a.69.69,0,0,1,.253-.943" transform="translate(6.579 7.563)" fill="#fff"/>
        <path id="Trazado_135782" data-name="Trazado 135782" d="M27.885,33.764a.881.881,0,0,1-.762-.439l-1.611-2.791a.878.878,0,0,1,1.52-.878l1.611,2.79a.878.878,0,0,1-.321,1.2.868.868,0,0,1-.438.118m-1.613-4.171a.487.487,0,0,0-.25.068.5.5,0,0,0-.185.687l1.611,2.79a.5.5,0,0,0,.688.184.5.5,0,0,0,.184-.687l-1.611-2.79a.5.5,0,0,0-.436-.252" transform="translate(6.54 7.525)" fill="#fff"/>
        <path id="Trazado_135783" data-name="Trazado 135783" d="M28.584,26.765h0a.69.69,0,0,1,.943-.253l2.79,1.611a.69.69,0,1,1-.69,1.2l-2.79-1.611a.69.69,0,0,1-.253-.943" transform="translate(7.338 6.804)" fill="#fff"/>
        <path id="Trazado_135784" data-name="Trazado 135784" d="M32.009,29.636a.875.875,0,0,1-.438-.117l-2.79-1.611a.878.878,0,0,1,.878-1.52L32.449,28a.878.878,0,0,1-.211,1.607.887.887,0,0,1-.229.03m-2.788-2.992a.512.512,0,0,0-.131.018.5.5,0,0,0-.306.234.5.5,0,0,0,.184.688l2.79,1.611a.5.5,0,1,0,.5-.871l-2.79-1.611a.492.492,0,0,0-.25-.068" transform="translate(7.299 6.766)" fill="#fff"/>
        <path id="Trazado_135785" data-name="Trazado 135785" d="M28.856,174.895a28.853,28.853,0,1,1,20.4-8.451,28.659,28.659,0,0,1-20.4,8.451" transform="translate(0.001 30.182)" fill="#0c487b"/>
        <path id="Trazado_135786" data-name="Trazado 135786" d="M149.738,23.285a.373.373,0,0,1-.21-.683l13.8-9.351a.374.374,0,1,1,.42.619l-13.8,9.352a.379.379,0,0,1-.21.063" transform="translate(38.468 3.396)" fill="#fff"/>
        <path id="Trazado_135787" data-name="Trazado 135787" d="M149.776,23.512a.561.561,0,0,1-.465-.248.561.561,0,0,1,.15-.78l13.8-9.351a.56.56,0,0,1,.78.151.552.552,0,0,1,.087.42.558.558,0,0,1-.236.36l-13.8,9.351a.562.562,0,0,1-.314.1m13.8-10.1a.186.186,0,0,0-.1.033l-13.8,9.351a.186.186,0,0,0-.05.259.192.192,0,0,0,.26.05l13.8-9.351a.187.187,0,0,0-.07-.338.167.167,0,0,0-.035,0" transform="translate(38.43 3.358)" fill="#fff"/>
        <path id="Trazado_135788" data-name="Trazado 135788" d="M155.4,18.752a.383.383,0,0,1-.221-.07.377.377,0,0,1-.14-.406l.89-3.117a.371.371,0,0,1,.146-.2l4.453-3.117a.375.375,0,0,1,.589.3l.057,2.648a.372.372,0,0,1-.167.319l-5.4,3.587a.363.363,0,0,1-.206.062m1.214-3.261-.575,2.012,4.381-2.909-.036-1.74Z" transform="translate(39.927 3.031)" fill="#fff"/>
        <path id="Trazado_135789" data-name="Trazado 135789" d="M155.4,18.752a.383.383,0,0,1-.221-.07.377.377,0,0,1-.14-.406l.89-3.117a.371.371,0,0,1,.146-.2l4.453-3.117a.375.375,0,0,1,.589.3l.057,2.648a.372.372,0,0,1-.167.319l-5.4,3.587A.363.363,0,0,1,155.4,18.752Zm1.214-3.261-.575,2.012,4.381-2.909-.036-1.74Z" transform="translate(39.927 3.031)" fill="none" stroke="#fff" stroke-miterlimit="10" stroke-width="0.298"/>
        <path id="Trazado_135790" data-name="Trazado 135790" d="M158.519,18.65a.373.373,0,0,1-.053,0l-3.117-.445a.374.374,0,0,1-.155-.682l5.343-3.563a.377.377,0,0,1,.3-.05l2.7.721a.374.374,0,0,1,.112.673l-4.932,3.287a.372.372,0,0,1-.207.063M156.425,17.6l2,.287,4.122-2.749-1.739-.463Z" transform="translate(39.927 3.578)" fill="#fff"/>
        <path id="Trazado_135791" data-name="Trazado 135791" d="M158.519,18.65a.373.373,0,0,1-.053,0l-3.117-.445a.374.374,0,0,1-.155-.682l5.343-3.563a.377.377,0,0,1,.3-.05l2.7.721a.374.374,0,0,1,.112.673l-4.932,3.287A.372.372,0,0,1,158.519,18.65ZM156.425,17.6l2,.287,4.122-2.749-1.739-.463Z" transform="translate(39.927 3.578)" fill="none" stroke="#fff" stroke-miterlimit="10" stroke-width="0.298"/>
        <path id="Trazado_135792" data-name="Trazado 135792" d="M151.055,27.9a5.941,5.941,0,1,1,3.026-11.054.375.375,0,1,1-.381.645,5.192,5.192,0,1,0,2.547,4.468,5.252,5.252,0,0,0-.057-.772.374.374,0,1,1,.741-.111,6.066,6.066,0,0,1,.065.883,5.946,5.946,0,0,1-5.941,5.941" transform="translate(37.374 4.125)" fill="#fff"/>
        <path id="Trazado_135793" data-name="Trazado 135793" d="M151.093,28.126a6.128,6.128,0,1,1,3.121-11.4.563.563,0,0,1,.2.77.562.562,0,0,1-.771.2A5,5,0,1,0,156.1,22a4.942,4.942,0,0,0-.055-.747.562.562,0,0,1,1.112-.166,6.131,6.131,0,0,1-6.06,7.041m0-11.881a5.752,5.752,0,1,0,5.689,4.9.178.178,0,0,0-.073-.122.184.184,0,0,0-.14-.035.187.187,0,0,0-.157.213,5.515,5.515,0,0,1,.059.8,5.374,5.374,0,1,1-2.638-4.63.18.18,0,0,0,.141.021.188.188,0,0,0,.049-.343,5.739,5.739,0,0,0-2.93-.8" transform="translate(37.335 4.087)" fill="#fff"/>
        <path id="Trazado_135794" data-name="Trazado 135794" d="M151.784,32.191a9.5,9.5,0,1,1,4.84-17.682.375.375,0,0,1-.382.645,8.754,8.754,0,1,0,4.3,7.535,8.851,8.851,0,0,0-.1-1.305.374.374,0,1,1,.741-.111,9.513,9.513,0,0,1-9.4,10.918" transform="translate(36.644 3.396)" fill="#fff"/>
        <path id="Trazado_135795" data-name="Trazado 135795" d="M151.822,32.417a9.69,9.69,0,1,1,4.936-18.029.562.562,0,0,1-.147,1.027.562.562,0,0,1-.426-.062,8.568,8.568,0,1,0,4.2,7.374,8.662,8.662,0,0,0-.094-1.278.562.562,0,0,1,.473-.639.566.566,0,0,1,.639.473,9.853,9.853,0,0,1,.106,1.444,9.7,9.7,0,0,1-9.689,9.689m0-19.005a9.315,9.315,0,1,0,9.316,9.316,9.462,9.462,0,0,0-.1-1.388.188.188,0,0,0-.371.055,9.054,9.054,0,0,1,.1,1.333,8.938,8.938,0,1,1-4.388-7.7.187.187,0,0,0,.142.02.186.186,0,0,0,.135-.228.18.18,0,0,0-.086-.114,9.305,9.305,0,0,0-4.745-1.3" transform="translate(36.606 3.358)" fill="#fff"/>
        <path id="Trazado_135796" data-name="Trazado 135796" d="M152.6,37.02a13.51,13.51,0,1,1,7.528-24.731.375.375,0,1,1-.419.621,12.741,12.741,0,1,0,5.259,7.445.375.375,0,0,1,.727-.185A13.525,13.525,0,0,1,152.6,37.02" transform="translate(35.824 2.575)" fill="#fff"/>
        <path id="Trazado_135797" data-name="Trazado 135797" d="M152.643,37.246a13.7,13.7,0,1,1,7.632-25.074.561.561,0,0,1,.152.78.561.561,0,0,1-.78.152,12.552,12.552,0,1,0,5.182,7.337.562.562,0,1,1,1.089-.278,13.711,13.711,0,0,1-13.276,17.084m0-27.021a13.308,13.308,0,1,0,12.913,10.03.187.187,0,1,0-.362.092,12.951,12.951,0,1,1-12.55-9.747,12.885,12.885,0,0,1,7.213,2.193.181.181,0,0,0,.141.029.187.187,0,0,0,.119-.079.192.192,0,0,0,.029-.141.187.187,0,0,0-.079-.119,13.267,13.267,0,0,0-7.423-2.257" transform="translate(35.785 2.537)" fill="#fff"/>
        <path id="Trazado_135798" data-name="Trazado 135798" d="M154.978,174.895a28.853,28.853,0,1,1,20.4-8.451,28.659,28.659,0,0,1-20.4,8.451" transform="translate(32.483 30.182)" fill="#1169e3"/>
        <path id="Trazado_135799" data-name="Trazado 135799" d="M152.059,157.5a1.406,1.406,0,0,1-1-.412l-13.009-13.009a1.408,1.408,0,0,1,0-1.991l13.009-13.011a1.412,1.412,0,0,1,1.992,0l13.009,13.011a1.41,1.41,0,0,1,0,1.991l-13.009,13.009a1.41,1.41,0,0,1-1,.412m-.467-.942a.66.66,0,0,0,.932,0l13.009-13.009a.658.658,0,0,0,0-.932l-13.009-13.009a.658.658,0,0,0-.932,0l-13.009,13.009a.66.66,0,0,0,0,.932Z" transform="translate(35.449 33.139)" fill="#fff"/>
        <path id="Trazado_135800" data-name="Trazado 135800" d="M152.059,157.5a1.406,1.406,0,0,1-1-.412l-13.009-13.009a1.408,1.408,0,0,1,0-1.991l13.009-13.011a1.412,1.412,0,0,1,1.992,0l13.009,13.011a1.41,1.41,0,0,1,0,1.991l-13.009,13.009A1.41,1.41,0,0,1,152.059,157.5Zm-.467-.942a.66.66,0,0,0,.932,0l13.009-13.009a.658.658,0,0,0,0-.932l-13.009-13.009a.658.658,0,0,0-.932,0l-13.009,13.009a.66.66,0,0,0,0,.932Z" transform="translate(35.449 33.139)" fill="none" stroke="#fff" stroke-miterlimit="10" stroke-width="0.298"/>
        <path id="Trazado_135801" data-name="Trazado 135801" d="M145.9,146.539a.38.38,0,0,1-.267-.109l-4.58-4.581a.839.839,0,0,1,0-1.188l4.767-4.766a.374.374,0,0,1,.528.529l-4.766,4.766a.093.093,0,0,0,0,.13l4.583,4.581a.375.375,0,0,1,0,.529.382.382,0,0,1-.265.109" transform="translate(36.265 34.971)" fill="#fff"/>
        <path id="Trazado_135802" data-name="Trazado 135802" d="M145.941,146.763a.557.557,0,0,1-.4-.165l-4.58-4.58a1.029,1.029,0,0,1,0-1.454l4.766-4.766a.578.578,0,0,1,.795,0,.563.563,0,0,1,0,.795l-4.7,4.7,4.512,4.513a.561.561,0,0,1-.4.958m.186-10.755a.186.186,0,0,0-.132.055l-4.767,4.766a.654.654,0,0,0,0,.924l4.581,4.58a.191.191,0,0,0,.264,0,.187.187,0,0,0,0-.265l-4.58-4.58a.279.279,0,0,1,0-.395l4.766-4.766a.187.187,0,0,0-.132-.319m-4.369,5.351h0" transform="translate(36.227 34.934)" fill="#fff"/>
        <path id="Trazado_135803" data-name="Trazado 135803" d="M153.559,146.632a.374.374,0,0,1-.265-.639l4.581-4.581a.09.09,0,0,0,.026-.064.094.094,0,0,0-.026-.065l-5.223-5.221a.374.374,0,0,1,.529-.529l5.223,5.221a.842.842,0,0,1,0,1.188l-4.58,4.581a.377.377,0,0,1-.265.109" transform="translate(39.287 34.877)" fill="#fff"/>
        <path id="Trazado_135804" data-name="Trazado 135804" d="M153.6,146.858a.56.56,0,0,1-.562-.562.557.557,0,0,1,.165-.4l4.512-4.512-5.155-5.155a.563.563,0,0,1,0-.795.576.576,0,0,1,.795,0l5.223,5.223a1.029,1.029,0,0,1,0,1.452l-4.581,4.581a.558.558,0,0,1-.4.165m-.643-11.211a.186.186,0,0,0-.132.055.185.185,0,0,0,0,.264l5.223,5.223a.281.281,0,0,1,.082.2.275.275,0,0,1-.082.2l-4.581,4.581a.188.188,0,0,0,0,.264.191.191,0,0,0,.265,0l4.58-4.58a.654.654,0,0,0,0-.924l-5.223-5.221a.186.186,0,0,0-.132-.055" transform="translate(39.249 34.84)" fill="#fff"/>
        <path id="Trazado_135805" data-name="Trazado 135805" d="M150.906,144.964h-2.584a.375.375,0,0,1-.372-.338l-.806-8.063a2.441,2.441,0,0,1,2.43-2.685h.083a2.441,2.441,0,0,1,2.43,2.685l-.806,8.063a.376.376,0,0,1-.374.338m-2.245-.749h1.906l.772-7.726a1.692,1.692,0,0,0-1.684-1.861h-.083a1.692,1.692,0,0,0-1.684,1.861Z" transform="translate(37.893 34.48)" fill="#fff"/>
        <path id="Trazado_135806" data-name="Trazado 135806" d="M150.906,144.964h-2.584a.375.375,0,0,1-.372-.338l-.806-8.063a2.441,2.441,0,0,1,2.43-2.685h.083a2.441,2.441,0,0,1,2.43,2.685l-.806,8.063A.376.376,0,0,1,150.906,144.964Zm-2.245-.749h1.906l.772-7.726a1.692,1.692,0,0,0-1.684-1.861h-.083a1.692,1.692,0,0,0-1.684,1.861Z" transform="translate(37.893 34.48)" fill="none" stroke="#fff" stroke-miterlimit="10" stroke-width="0.298"/>
        <path id="Trazado_135807" data-name="Trazado 135807" d="M149.705,147.074h-.517a1.41,1.41,0,0,1-1.408-1.408v-.517a1.411,1.411,0,0,1,1.408-1.408h.517a1.411,1.411,0,0,1,1.408,1.408v.517a1.41,1.41,0,0,1-1.408,1.408m-.517-2.584a.66.66,0,0,0-.659.659v.517a.66.66,0,0,0,.659.659h.517a.66.66,0,0,0,.659-.659v-.517a.66.66,0,0,0-.659-.659Z" transform="translate(38.06 37.02)" fill="#fff"/>
        <path id="Trazado_135808" data-name="Trazado 135808" d="M149.705,147.074h-.517a1.41,1.41,0,0,1-1.408-1.408v-.517a1.411,1.411,0,0,1,1.408-1.408h.517a1.411,1.411,0,0,1,1.408,1.408v.517A1.41,1.41,0,0,1,149.705,147.074Zm-.517-2.584a.66.66,0,0,0-.659.659v.517a.66.66,0,0,0,.659.659h.517a.66.66,0,0,0,.659-.659v-.517a.66.66,0,0,0-.659-.659Z" transform="translate(38.06 37.02)" fill="none" stroke="#fff" stroke-miterlimit="10" stroke-width="0.298"/>
        <path id="Trazado_135809" data-name="Trazado 135809" d="M15.575,148.076h-.915a1.29,1.29,0,0,1-1.29-1.289V146.7h-.543a1.29,1.29,0,0,1-1.289-1.289v-5.957a1.291,1.291,0,0,1,1.289-1.289h.543v-.086a1.291,1.291,0,0,1,1.29-1.289h.915a.374.374,0,0,1,.373.373V147.7a.372.372,0,0,1-.373.372m-2.749-9.164a.544.544,0,0,0-.543.543v5.957a.544.544,0,0,0,.543.545h.917a.372.372,0,0,1,.372.372v.458a.545.545,0,0,0,.545.545H15.2v-9.794h-.543a.544.544,0,0,0-.545.543v.459a.373.373,0,0,1-.372.372Z" transform="translate(2.971 35.23)" fill="#fff"/>
        <path id="Trazado_135810" data-name="Trazado 135810" d="M15.575,148.076h-.915a1.29,1.29,0,0,1-1.29-1.289V146.7h-.543a1.29,1.29,0,0,1-1.289-1.289v-5.957a1.291,1.291,0,0,1,1.289-1.289h.543v-.086a1.291,1.291,0,0,1,1.29-1.289h.915a.374.374,0,0,1,.373.373V147.7A.372.372,0,0,1,15.575,148.076Zm-2.749-9.164a.544.544,0,0,0-.543.543v5.957a.544.544,0,0,0,.543.545h.917a.372.372,0,0,1,.372.372v.458a.545.545,0,0,0,.545.545H15.2v-9.794h-.543a.544.544,0,0,0-.545.543v.459a.373.373,0,0,1-.372.372Z" transform="translate(2.971 35.23)" fill="none" stroke="#fff" stroke-miterlimit="10" stroke-width="0.296"/>
        <path id="Trazado_135811" data-name="Trazado 135811" d="M17.117,152.492H15.283a.832.832,0,0,1-.831-.83V134.708a.833.833,0,0,1,.831-.831h1.834a.832.832,0,0,1,.83.831v16.954a.831.831,0,0,1-.83.83m-1.834-17.87a.086.086,0,0,0-.086.085v16.954a.086.086,0,0,0,.086.085h1.834a.086.086,0,0,0,.086-.085V134.708a.086.086,0,0,0-.086-.085Z" transform="translate(3.722 34.48)" fill="#fff"/>
        <path id="Trazado_135812" data-name="Trazado 135812" d="M17.117,152.492H15.283a.832.832,0,0,1-.831-.83V134.708a.833.833,0,0,1,.831-.831h1.834a.832.832,0,0,1,.83.831v16.954A.831.831,0,0,1,17.117,152.492Zm-1.834-17.87a.086.086,0,0,0-.086.085v16.954a.086.086,0,0,0,.086.085h1.834a.086.086,0,0,0,.086-.085V134.708a.086.086,0,0,0-.086-.085Z" transform="translate(3.722 34.48)" fill="none" stroke="#fff" stroke-miterlimit="10" stroke-width="0.296"/>
        <path id="Trazado_135813" data-name="Trazado 135813" d="M19.3,152.492H17.469a.832.832,0,0,1-.831-.83V134.708a.833.833,0,0,1,.831-.831H19.3a.832.832,0,0,1,.831.831v16.954a.831.831,0,0,1-.831.83m-1.832-17.87a.086.086,0,0,0-.086.085v16.954a.086.086,0,0,0,.086.085H19.3a.087.087,0,0,0,.087-.085V134.708a.087.087,0,0,0-.087-.085Z" transform="translate(4.285 34.48)" fill="#fff"/>
        <path id="Trazado_135814" data-name="Trazado 135814" d="M19.3,152.492H17.469a.832.832,0,0,1-.831-.83V134.708a.833.833,0,0,1,.831-.831H19.3a.832.832,0,0,1,.831.831v16.954A.831.831,0,0,1,19.3,152.492Zm-1.832-17.87a.086.086,0,0,0-.086.085v16.954a.086.086,0,0,0,.086.085H19.3a.087.087,0,0,0,.087-.085V134.708a.087.087,0,0,0-.087-.085Z" transform="translate(4.285 34.48)" fill="none" stroke="#fff" stroke-miterlimit="10" stroke-width="0.296"/>
        <path id="Trazado_135815" data-name="Trazado 135815" d="M32.138,148.077h-.915a.374.374,0,0,1-.373-.374V137.165a.374.374,0,0,1,.373-.373h.915a1.29,1.29,0,0,1,1.289,1.29v.086h.545a1.29,1.29,0,0,1,1.289,1.289v5.956a1.291,1.291,0,0,1-1.289,1.29h-.545v.086a1.29,1.29,0,0,1-1.289,1.289m-.543-.746h.543a.544.544,0,0,0,.545-.543v-.459a.372.372,0,0,1,.372-.372h.917a.544.544,0,0,0,.543-.545v-5.956a.544.544,0,0,0-.543-.545h-.917a.371.371,0,0,1-.372-.372v-.458a.545.545,0,0,0-.545-.545h-.543Z" transform="translate(7.945 35.23)" fill="#fff"/>
        <path id="Trazado_135816" data-name="Trazado 135816" d="M32.138,148.077h-.915a.374.374,0,0,1-.373-.374V137.165a.374.374,0,0,1,.373-.373h.915a1.29,1.29,0,0,1,1.289,1.29v.086h.545a1.29,1.29,0,0,1,1.289,1.289v5.956a1.291,1.291,0,0,1-1.289,1.29h-.545v.086A1.29,1.29,0,0,1,32.138,148.077Zm-.543-.746h.543a.544.544,0,0,0,.545-.543v-.459a.372.372,0,0,1,.372-.372h.917a.544.544,0,0,0,.543-.545v-5.956a.544.544,0,0,0-.543-.545h-.917a.371.371,0,0,1-.372-.372v-.458a.545.545,0,0,0-.545-.545h-.543Z" transform="translate(7.945 35.23)" fill="none" stroke="#fff" stroke-miterlimit="10" stroke-width="0.296"/>
        <path id="Trazado_135817" data-name="Trazado 135817" d="M31.327,152.492H29.493a.832.832,0,0,1-.831-.83V134.708a.833.833,0,0,1,.831-.831h1.834a.832.832,0,0,1,.83.831v16.954a.831.831,0,0,1-.83.83m-1.834-17.87a.086.086,0,0,0-.086.085v16.954a.086.086,0,0,0,.086.085h1.834a.086.086,0,0,0,.086-.085V134.708a.086.086,0,0,0-.086-.085Z" transform="translate(7.382 34.48)" fill="#fff"/>
        <path id="Trazado_135818" data-name="Trazado 135818" d="M31.327,152.492H29.493a.832.832,0,0,1-.831-.83V134.708a.833.833,0,0,1,.831-.831h1.834a.832.832,0,0,1,.83.831v16.954A.831.831,0,0,1,31.327,152.492Zm-1.834-17.87a.086.086,0,0,0-.086.085v16.954a.086.086,0,0,0,.086.085h1.834a.086.086,0,0,0,.086-.085V134.708a.086.086,0,0,0-.086-.085Z" transform="translate(7.382 34.48)" fill="none" stroke="#fff" stroke-miterlimit="10" stroke-width="0.296"/>
        <path id="Trazado_135819" data-name="Trazado 135819" d="M29.139,152.492H27.307a.832.832,0,0,1-.831-.83V134.708a.833.833,0,0,1,.831-.831h1.832a.832.832,0,0,1,.831.831v16.954a.831.831,0,0,1-.831.83m-1.832-17.87a.086.086,0,0,0-.086.085v16.954a.086.086,0,0,0,.086.085h1.832a.086.086,0,0,0,.086-.085V134.708a.086.086,0,0,0-.086-.085Z" transform="translate(6.819 34.48)" fill="#fff"/>
        <path id="Trazado_135820" data-name="Trazado 135820" d="M29.139,152.492H27.307a.832.832,0,0,1-.831-.83V134.708a.833.833,0,0,1,.831-.831h1.832a.832.832,0,0,1,.831.831v16.954A.831.831,0,0,1,29.139,152.492Zm-1.832-17.87a.086.086,0,0,0-.086.085v16.954a.086.086,0,0,0,.086.085h1.832a.086.086,0,0,0,.086-.085V134.708a.086.086,0,0,0-.086-.085Z" transform="translate(6.819 34.48)" fill="none" stroke="#fff" stroke-miterlimit="10" stroke-width="0.296"/>
        <path id="Trazado_135821" data-name="Trazado 135821" d="M28.82,143.659H19.2a.371.371,0,0,1-.372-.372V140.08a.372.372,0,0,1,.372-.373H28.82a.373.373,0,0,1,.372.373v3.207a.372.372,0,0,1-.372.372m-9.251-.744h8.877v-2.462H19.569Z" transform="translate(4.848 35.981)" fill="#fff"/>
        <path id="Trazado_135822" data-name="Trazado 135822" d="M28.82,143.659H19.2a.371.371,0,0,1-.372-.372V140.08a.372.372,0,0,1,.372-.373H28.82a.373.373,0,0,1,.372.373v3.207A.372.372,0,0,1,28.82,143.659Zm-9.251-.744h8.877v-2.462H19.569Z" transform="translate(4.848 35.981)" fill="none" stroke="#fff" stroke-miterlimit="10" stroke-width="0.296"/>
      </g>
    </g>
    <g id="Grupo_159319" data-name="Grupo 159319" transform="translate(-10514 -4411.461)">
      <g id="Grupo_159318" data-name="Grupo 159318" transform="translate(0 0)" clip-path="url(#clip-path-2)">
        <path id="Trazado_135823" data-name="Trazado 135823" d="M126.433,15.389C196.261,15.389,252.866,8.5,252.866,0H0C0,8.5,56.606,15.389,126.433,15.389" transform="translate(0 0)" fill="url(#linear-gradient)"/>
      </g>
    </g>
    <g id="Grupo_159320" data-name="Grupo 159320" transform="translate(-10514 -4410.767) rotate(180)">
      <g id="Grupo_159318-2" data-name="Grupo 159318" transform="translate(0 0)" clip-path="url(#clip-path-2)">
        <path id="Trazado_135823-2" data-name="Trazado 135823" d="M126.433,15.389C196.261,15.389,252.866,8.5,252.866,0H0C0,8.5,56.606,15.389,126.433,15.389" transform="translate(0 0)" fill="url(#linear-gradient)"/>
      </g>
    </g>
    <g id="Grupo_159321" data-name="Grupo 159321" transform="translate(-10516 -4421.133) rotate(-90)">
      <g id="Grupo_159318-3" data-name="Grupo 159318" transform="translate(0 0)" clip-path="url(#clip-path-4)">
        <path id="Trazado_135823-3" data-name="Trazado 135823" d="M61.333,15.389c33.874,0,61.333-6.89,61.333-15.389H0C0,8.5,27.46,15.389,61.333,15.389" transform="translate(0 0)" fill="url(#linear-gradient-3)"/>
      </g>
    </g>
    <g id="Grupo_159322" data-name="Grupo 159322" transform="translate(-10515.672 -4402.333) rotate(90)">
      <g id="Grupo_159318-4" data-name="Grupo 159318" transform="translate(0 0)" clip-path="url(#clip-path-4)">
        <path id="Trazado_135823-4" data-name="Trazado 135823" d="M61.333,15.389c33.874,0,61.333-6.89,61.333-15.389H0C0,8.5,27.46,15.389,61.333,15.389" transform="translate(0 0)" fill="url(#linear-gradient-3)"/>
      </g>
    </g>
    <g transform="matrix(1, 0, 0, 1, -10775.5, -4543.8)" filter="url(#Trazado_137057)">
      <path id="Trazado_137057-2" data-name="Trazado 137057" d="M73,0A73,73,0,1,1,0,73,73,73,0,0,1,73,0Z" transform="translate(186.5 59.8)" fill="url(#linear-gradient-9)"/>
    </g>
    <path id="Trazado_137058" data-name="Trazado 137058" d="M1.88,0V-24.883H9.9a11.79,11.79,0,0,1,5.93,1.5,10.511,10.511,0,0,1,4.11,4.221,12.745,12.745,0,0,1,1.5,6.11v1.145a12.818,12.818,0,0,1-1.444,6.127,10.556,10.556,0,0,1-4.067,4.238A11.531,11.531,0,0,1,10.066,0Zm6-20.251V-4.614H9.963a4.666,4.666,0,0,0,3.965-1.837,9,9,0,0,0,1.384-5.46v-1.077a8.929,8.929,0,0,0-1.384-5.435A4.748,4.748,0,0,0,9.9-20.251Zm39.8,8.323a14.673,14.673,0,0,1-1.35,6.443,9.978,9.978,0,0,1-3.837,4.315A10.683,10.683,0,0,1,36.827.342a10.834,10.834,0,0,1-5.64-1.461A9.961,9.961,0,0,1,27.35-5.3a14.251,14.251,0,0,1-1.444-6.238v-1.4a14.738,14.738,0,0,1,1.342-6.451A9.954,9.954,0,0,1,31.093-23.7a10.758,10.758,0,0,1,5.7-1.521,10.653,10.653,0,0,1,5.64,1.5,10.133,10.133,0,0,1,3.854,4.281,14.315,14.315,0,0,1,1.393,6.366Zm-6.1-1.042A10.464,10.464,0,0,0,40.339-18.6a3.974,3.974,0,0,0-3.546-1.923q-4.512,0-4.768,6.768l-.017,1.829a10.762,10.762,0,0,0,1.213,5.623,3.968,3.968,0,0,0,3.606,1.965,3.921,3.921,0,0,0,3.5-1.931,10.468,10.468,0,0,0,1.248-5.554ZM68.543-9.912H58.87V0h-6V-24.883H69.517v4.631H58.87v5.725h9.673ZM84.965-4.648h-8.22L75.309,0H68.9l9.126-24.883h5.64L92.86,0H86.417ZM78.18-9.28h5.349l-2.683-8.63Z" transform="translate(-10565 -4399)" fill="#0c487b"/>
  </g>
</svg>
