<svg xmlns="http://www.w3.org/2000/svg" xmlns:xlink="http://www.w3.org/1999/xlink" width="1048" height="259" viewBox="0 0 1048 259">
  <defs>
    <filter id="Trazado_137098" x="0" y="0" width="208" height="259" filterUnits="userSpaceOnUse">
      <feOffset dy="3" input="SourceAlpha"/>
      <feGaussianBlur stdDeviation="3" result="blur"/>
      <feFlood flood-opacity="0.161"/>
      <feComposite operator="in" in2="blur"/>
      <feComposite in="SourceGraphic"/>
    </filter>
    <filter id="Trazado_137100" x="420" y="0" width="208" height="259" filterUnits="userSpaceOnUse">
      <feOffset dy="3" input="SourceAlpha"/>
      <feGaussianBlur stdDeviation="3" result="blur-2"/>
      <feFlood flood-opacity="0.161"/>
      <feComposite operator="in" in2="blur-2"/>
      <feComposite in="SourceGraphic"/>
    </filter>
    <filter id="Trazado_137102" x="625" y="0" width="208" height="259" filterUnits="userSpaceOnUse">
      <feOffset dy="3" input="SourceAlpha"/>
      <feGaussianBlur stdDeviation="3" result="blur-3"/>
      <feFlood flood-opacity="0.161"/>
      <feComposite operator="in" in2="blur-3"/>
      <feComposite in="SourceGraphic"/>
    </filter>
    <filter id="Trazado_137104" x="210" y="0" width="208" height="259" filterUnits="userSpaceOnUse">
      <feOffset dy="3" input="SourceAlpha"/>
      <feGaussianBlur stdDeviation="3" result="blur-4"/>
      <feFlood flood-opacity="0.161"/>
      <feComposite operator="in" in2="blur-4"/>
      <feComposite in="SourceGraphic"/>
    </filter>
    <filter id="Trazado_137106" x="840" y="0" width="208" height="259" filterUnits="userSpaceOnUse">
      <feOffset dy="3" input="SourceAlpha"/>
      <feGaussianBlur stdDeviation="3" result="blur-5"/>
      <feFlood flood-opacity="0.161"/>
      <feComposite operator="in" in2="blur-5"/>
      <feComposite in="SourceGraphic"/>
    </filter>
    <filter id="Trazado_137108" x="26.001" y="166.998" width="995.998" height="73.102" filterUnits="userSpaceOnUse">
      <feOffset dy="3" input="SourceAlpha"/>
      <feGaussianBlur stdDeviation="3" result="blur-6"/>
      <feFlood flood-opacity="0.161"/>
      <feComposite operator="in" in2="blur-6"/>
      <feComposite in="SourceGraphic"/>
    </filter>
    <clipPath id="clip-path">
      <rect id="Rectángulo_38790" data-name="Rectángulo 38790" width="63.962" height="66.293" fill="none"/>
    </clipPath>
    <clipPath id="clip-path-4">
      <rect id="Rectángulo_38795" data-name="Rectángulo 38795" width="66.293" height="64.351" transform="translate(0 0)" fill="none"/>
    </clipPath>
    <clipPath id="clip-path-7">
      <rect id="Rectángulo_38799" data-name="Rectángulo 38799" width="66.293" height="57.359" transform="translate(0 0)" fill="none"/>
    </clipPath>
    <clipPath id="clip-path-10">
      <rect id="Rectángulo_38803" data-name="Rectángulo 38803" width="63.216" height="66.293" fill="none"/>
    </clipPath>
    <clipPath id="clip-path-11">
      <rect id="Rectángulo_38805" data-name="Rectángulo 38805" width="61.66" height="66.293" fill="none"/>
    </clipPath>
  </defs>
  <g id="Grupo_159658" data-name="Grupo 159658" transform="translate(-276 -3909)">
    <g transform="matrix(1, 0, 0, 1, 276, 3909)" filter="url(#Trazado_137098)">
      <g id="Trazado_137098-2" data-name="Trazado 137098" transform="translate(9 6)" fill="#c9f0ee">
        <path d="M 182 240 L 8 240 C 4.14018726348877 240 1 236.8598175048828 1 233 L 1 8 C 1 4.14018726348877 4.14018726348877 1 8 1 L 182 1 C 185.8598175048828 1 189 4.14018726348877 189 8 L 189 233 C 189 236.8598175048828 185.8598175048828 240 182 240 Z" stroke="none"/>
        <path d="M 8 2 C 4.69158935546875 2 2 4.69158935546875 2 8 L 2 233 C 2 236.3084106445312 4.69158935546875 239 8 239 L 182 239 C 185.3084106445312 239 188 236.3084106445312 188 233 L 188 8 C 188 4.69158935546875 185.3084106445312 2 182 2 L 8 2 M 8 0 L 182 0 C 186.4182739257812 0 190 3.58172607421875 190 8 L 190 233 C 190 237.4182739257812 186.4182739257812 241 182 241 L 8 241 C 3.58172607421875 241 0 237.4182739257812 0 233 L 0 8 C 0 3.58172607421875 3.58172607421875 0 8 0 Z" stroke="none" fill="#fff"/>
      </g>
    </g>
    <path id="Trazado_137099" data-name="Trazado 137099" d="M47.633,12.836H45.766V17H43.422V5.625h4.227a4.778,4.778,0,0,1,3.109.9,3.1,3.1,0,0,1,1.094,2.539,3.5,3.5,0,0,1-.5,1.941,3.437,3.437,0,0,1-1.527,1.238l2.461,4.648V17H49.766Zm-1.867-1.9h1.891a1.936,1.936,0,0,0,1.367-.449,1.606,1.606,0,0,0,.484-1.238,1.719,1.719,0,0,0-.457-1.266,1.9,1.9,0,0,0-1.4-.461H45.766Zm11.609,6.219a4.15,4.15,0,0,1-3.027-1.141,4.054,4.054,0,0,1-1.168-3.039v-.219a5.106,5.106,0,0,1,.492-2.277,3.612,3.612,0,0,1,1.395-1.547,3.914,3.914,0,0,1,2.059-.543,3.508,3.508,0,0,1,2.73,1.094,4.444,4.444,0,0,1,1,3.1v.922H55.469a2.1,2.1,0,0,0,.66,1.328,2,2,0,0,0,1.395.5,2.437,2.437,0,0,0,2.039-.945l1.109,1.242A3.389,3.389,0,0,1,59.3,16.754,4.511,4.511,0,0,1,57.375,17.156Zm-.258-6.945a1.411,1.411,0,0,0-1.09.455,2.357,2.357,0,0,0-.535,1.3h3.141v-.181a1.681,1.681,0,0,0-.406-1.165A1.456,1.456,0,0,0,57.117,10.211Zm12.625,2.641a5.07,5.07,0,0,1-.887,3.129,2.843,2.843,0,0,1-2.395,1.176,2.633,2.633,0,0,1-2.07-.891V20.25H62.133V8.547h2.094l.078.828a2.654,2.654,0,0,1,2.141-.984,2.862,2.862,0,0,1,2.43,1.156,5.207,5.207,0,0,1,.867,3.188Zm-2.258-.164a3.327,3.327,0,0,0-.418-1.82,1.361,1.361,0,0,0-1.215-.641,1.478,1.478,0,0,0-1.461.813V14.5a1.5,1.5,0,0,0,1.477.836Q67.484,15.336,67.484,12.688Zm8.406-2.023a6.134,6.134,0,0,0-.812-.062,1.654,1.654,0,0,0-1.68.867V17H71.141V8.547h2.133l.063,1.008a2.092,2.092,0,0,1,1.883-1.164,2.366,2.366,0,0,1,.7.1Zm4.977,6.492a4.15,4.15,0,0,1-3.027-1.141,4.054,4.054,0,0,1-1.168-3.039v-.219a5.106,5.106,0,0,1,.492-2.277,3.612,3.612,0,0,1,1.395-1.547,3.914,3.914,0,0,1,2.059-.543,3.508,3.508,0,0,1,2.73,1.094,4.444,4.444,0,0,1,1,3.1v.922H78.961a2.1,2.1,0,0,0,.66,1.328,2,2,0,0,0,1.395.5,2.437,2.437,0,0,0,2.039-.945l1.109,1.242a3.389,3.389,0,0,1-1.375,1.121A4.511,4.511,0,0,1,80.867,17.156Zm-.258-6.945a1.411,1.411,0,0,0-1.09.455,2.357,2.357,0,0,0-.535,1.3h3.141v-.181a1.681,1.681,0,0,0-.406-1.165A1.456,1.456,0,0,0,80.609,10.211ZM90.2,14.664a.727.727,0,0,0-.41-.652,4.659,4.659,0,0,0-1.316-.426q-3.016-.633-3.016-2.562a2.323,2.323,0,0,1,.934-1.879,3.766,3.766,0,0,1,2.441-.754,4.053,4.053,0,0,1,2.574.758,2.388,2.388,0,0,1,.965,1.969H90.117a1.092,1.092,0,0,0-.312-.8A1.322,1.322,0,0,0,88.828,10a1.351,1.351,0,0,0-.883.258.814.814,0,0,0-.312.656.7.7,0,0,0,.355.605,3.657,3.657,0,0,0,1.2.4,9.8,9.8,0,0,1,1.422.379A2.336,2.336,0,0,1,92.4,14.57a2.2,2.2,0,0,1-.992,1.871,4.28,4.28,0,0,1-2.562.715,4.47,4.47,0,0,1-1.887-.379,3.166,3.166,0,0,1-1.293-1.039,2.414,2.414,0,0,1-.469-1.426h2.141a1.179,1.179,0,0,0,.445.922,1.766,1.766,0,0,0,1.109.32,1.635,1.635,0,0,0,.98-.246A.766.766,0,0,0,90.2,14.664Zm7.539,2.492a4.15,4.15,0,0,1-3.027-1.141,4.054,4.054,0,0,1-1.168-3.039v-.219a5.106,5.106,0,0,1,.492-2.277,3.612,3.612,0,0,1,1.395-1.547,3.914,3.914,0,0,1,2.059-.543,3.508,3.508,0,0,1,2.73,1.094,4.444,4.444,0,0,1,1,3.1v.922H95.836a2.1,2.1,0,0,0,.66,1.328,2,2,0,0,0,1.395.5,2.437,2.437,0,0,0,2.039-.945l1.109,1.242a3.389,3.389,0,0,1-1.375,1.121A4.511,4.511,0,0,1,97.742,17.156Zm-.258-6.945a1.411,1.411,0,0,0-1.09.455,2.357,2.357,0,0,0-.535,1.3H99v-.181a1.681,1.681,0,0,0-.406-1.165A1.456,1.456,0,0,0,97.484,10.211Zm7.094-1.664.07.977a2.951,2.951,0,0,1,2.43-1.133,2.453,2.453,0,0,1,2,.789,3.682,3.682,0,0,1,.672,2.359V17h-2.258V11.594a1.465,1.465,0,0,0-.312-1.043,1.4,1.4,0,0,0-1.039-.324,1.553,1.553,0,0,0-1.43.813V17h-2.258V8.547Zm9.586-2.078V8.547h1.445V10.2h-1.445v4.219a1.007,1.007,0,0,0,.18.672.9.9,0,0,0,.688.2,3.6,3.6,0,0,0,.664-.055v1.711a4.648,4.648,0,0,1-1.367.2,2.156,2.156,0,0,1-2.422-2.4V10.2h-1.234V8.547h1.234V6.469ZM121.766,17a2.507,2.507,0,0,1-.227-.758,2.732,2.732,0,0,1-2.133.914,3,3,0,0,1-2.059-.719,2.312,2.312,0,0,1-.816-1.812,2.389,2.389,0,0,1,1-2.062,4.915,4.915,0,0,1,2.879-.727h1.039v-.484a1.393,1.393,0,0,0-.3-.937,1.183,1.183,0,0,0-.949-.352,1.345,1.345,0,0,0-.895.273.929.929,0,0,0-.324.75h-2.258a2.268,2.268,0,0,1,.453-1.359,3,3,0,0,1,1.281-.98,4.669,4.669,0,0,1,1.859-.355,3.689,3.689,0,0,1,2.48.785,2.747,2.747,0,0,1,.918,2.207v3.664a4.041,4.041,0,0,0,.336,1.82V17ZM119.9,15.43a1.945,1.945,0,0,0,.922-.223,1.462,1.462,0,0,0,.625-.6V13.156H120.6q-1.7,0-1.8,1.172l-.008.133a.9.9,0,0,0,.3.7A1.153,1.153,0,0,0,119.9,15.43Zm7.625-6.883.07.977a2.951,2.951,0,0,1,2.43-1.133,2.453,2.453,0,0,1,2,.789,3.682,3.682,0,0,1,.672,2.359V17h-2.258V11.594a1.465,1.465,0,0,0-.312-1.043,1.4,1.4,0,0,0-1.039-.324,1.553,1.553,0,0,0-1.43.813V17H125.4V8.547Zm9.586-2.078V8.547h1.445V10.2h-1.445v4.219a1.007,1.007,0,0,0,.18.672.9.9,0,0,0,.688.2,3.6,3.6,0,0,0,.664-.055v1.711a4.648,4.648,0,0,1-1.367.2,2.156,2.156,0,0,1-2.422-2.4V10.2h-1.234V8.547h1.234V6.469ZM143.7,17.156a4.15,4.15,0,0,1-3.027-1.141,4.054,4.054,0,0,1-1.168-3.039v-.219A5.106,5.106,0,0,1,140,10.48a3.612,3.612,0,0,1,1.395-1.547,3.914,3.914,0,0,1,2.059-.543,3.508,3.508,0,0,1,2.73,1.094,4.444,4.444,0,0,1,1,3.1v.922H141.8a2.1,2.1,0,0,0,.66,1.328,2,2,0,0,0,1.395.5,2.437,2.437,0,0,0,2.039-.945L147,15.633a3.389,3.389,0,0,1-1.375,1.121A4.511,4.511,0,0,1,143.7,17.156Zm-.258-6.945a1.411,1.411,0,0,0-1.09.455,2.357,2.357,0,0,0-.535,1.3h3.141v-.181a1.681,1.681,0,0,0-.406-1.165A1.456,1.456,0,0,0,143.445,10.211Zm-82.707,19.5a5.094,5.094,0,0,1,.887-3.148,2.877,2.877,0,0,1,2.426-1.172,2.589,2.589,0,0,1,2.039.922V22h2.266V34H66.316l-.109-.9a2.657,2.657,0,0,1-2.172,1.055,2.869,2.869,0,0,1-2.395-1.176A5.258,5.258,0,0,1,60.738,29.711ZM63,29.879A3.337,3.337,0,0,0,63.41,31.7a1.349,1.349,0,0,0,1.2.634,1.511,1.511,0,0,0,1.477-.884V28.111a1.489,1.489,0,0,0-1.461-.884Q63,27.227,63,29.879Zm11,4.277a4.15,4.15,0,0,1-3.027-1.141A4.054,4.054,0,0,1,69.8,29.977v-.219a5.106,5.106,0,0,1,.492-2.277,3.612,3.612,0,0,1,1.395-1.547,3.914,3.914,0,0,1,2.059-.543,3.508,3.508,0,0,1,2.73,1.094,4.444,4.444,0,0,1,1,3.1v.922H72.09a2.1,2.1,0,0,0,.66,1.328,2,2,0,0,0,1.395.5,2.437,2.437,0,0,0,2.039-.945l1.109,1.242a3.389,3.389,0,0,1-1.375,1.121A4.511,4.511,0,0,1,74,34.156Zm-.258-6.945a1.411,1.411,0,0,0-1.09.455,2.357,2.357,0,0,0-.535,1.3h3.141v-.181a1.681,1.681,0,0,0-.406-1.165A1.456,1.456,0,0,0,73.738,27.211ZM85.9,31.242l1.57-5.7h2.359L86.98,34H84.824l-2.852-8.453h2.359Zm8.813,2.914a4.15,4.15,0,0,1-3.027-1.141,4.054,4.054,0,0,1-1.168-3.039v-.219a5.106,5.106,0,0,1,.492-2.277,3.612,3.612,0,0,1,1.395-1.547,3.914,3.914,0,0,1,2.059-.543,3.508,3.508,0,0,1,2.73,1.094,4.444,4.444,0,0,1,1,3.1v.922H92.809a2.1,2.1,0,0,0,.66,1.328,2,2,0,0,0,1.395.5,2.437,2.437,0,0,0,2.039-.945l1.109,1.242a3.389,3.389,0,0,1-1.375,1.121A4.511,4.511,0,0,1,94.715,34.156Zm-.258-6.945a1.411,1.411,0,0,0-1.09.455,2.357,2.357,0,0,0-.535,1.3h3.141v-.181a1.681,1.681,0,0,0-.406-1.165A1.456,1.456,0,0,0,94.457,27.211Zm7.094-1.664.07.977a2.951,2.951,0,0,1,2.43-1.133,2.453,2.453,0,0,1,2,.789,3.682,3.682,0,0,1,.672,2.359V34h-2.258V28.594a1.465,1.465,0,0,0-.312-1.043,1.4,1.4,0,0,0-1.039-.324,1.553,1.553,0,0,0-1.43.813V34H99.426V25.547Zm9.586-2.078v2.078h1.445V27.2h-1.445v4.219a1.007,1.007,0,0,0,.18.672.9.9,0,0,0,.688.2,3.6,3.6,0,0,0,.664-.055v1.711a4.648,4.648,0,0,1-1.367.2,2.156,2.156,0,0,1-2.422-2.4V27.2h-1.234V25.547h1.234V23.469ZM118.738,34a2.507,2.507,0,0,1-.227-.758,2.732,2.732,0,0,1-2.133.914,3,3,0,0,1-2.059-.719,2.312,2.312,0,0,1-.816-1.812,2.389,2.389,0,0,1,1-2.062,4.915,4.915,0,0,1,2.879-.727h1.039v-.484a1.393,1.393,0,0,0-.3-.937,1.183,1.183,0,0,0-.949-.352,1.345,1.345,0,0,0-.895.273.929.929,0,0,0-.324.75h-2.258a2.268,2.268,0,0,1,.453-1.359,3,3,0,0,1,1.281-.98,4.669,4.669,0,0,1,1.859-.355,3.689,3.689,0,0,1,2.48.785,2.747,2.747,0,0,1,.918,2.207v3.664a4.041,4.041,0,0,0,.336,1.82V34Zm-1.867-1.57a1.945,1.945,0,0,0,.922-.223,1.462,1.462,0,0,0,.625-.6V30.156h-.844q-1.7,0-1.8,1.172l-.008.133a.9.9,0,0,0,.3.7A1.153,1.153,0,0,0,116.871,32.43ZM127,31.664a.727.727,0,0,0-.41-.652,4.659,4.659,0,0,0-1.316-.426q-3.016-.633-3.016-2.562a2.323,2.323,0,0,1,.934-1.879,3.766,3.766,0,0,1,2.441-.754,4.053,4.053,0,0,1,2.574.758,2.388,2.388,0,0,1,.965,1.969H126.91a1.092,1.092,0,0,0-.312-.8,1.322,1.322,0,0,0-.977-.316,1.351,1.351,0,0,0-.883.258.814.814,0,0,0-.312.656.7.7,0,0,0,.355.605,3.657,3.657,0,0,0,1.2.4,9.8,9.8,0,0,1,1.422.379,2.336,2.336,0,0,1,1.789,2.273,2.205,2.205,0,0,1-.992,1.871,4.28,4.28,0,0,1-2.562.715,4.47,4.47,0,0,1-1.887-.379,3.166,3.166,0,0,1-1.293-1.039,2.414,2.414,0,0,1-.469-1.426h2.141a1.179,1.179,0,0,0,.445.922,1.766,1.766,0,0,0,1.109.32,1.635,1.635,0,0,0,.98-.246A.766.766,0,0,0,127,31.664Z" transform="translate(285 4035)" fill="#12263f"/>
    <g transform="matrix(1, 0, 0, 1, 276, 3909)" filter="url(#Trazado_137100)">
      <g id="Trazado_137100-2" data-name="Trazado 137100" transform="translate(429 6)" fill="#0c487b">
        <path d="M 182 240 L 8 240 C 4.14018726348877 240 1 236.8598175048828 1 233 L 1 8 C 1 4.14018726348877 4.14018726348877 1 8 1 L 182 1 C 185.8598175048828 1 189 4.14018726348877 189 8 L 189 233 C 189 236.8598175048828 185.8598175048828 240 182 240 Z" stroke="none"/>
        <path d="M 8 2 C 4.69158935546875 2 2 4.69158935546875 2 8 L 2 233 C 2 236.3084106445312 4.69158935546875 239 8 239 L 182 239 C 185.3084106445312 239 188 236.3084106445312 188 233 L 188 8 C 188 4.69158935546875 185.3084106445312 2 182 2 L 8 2 M 8 0 L 182 0 C 186.4182739257812 0 190 3.58172607421875 190 8 L 190 233 C 190 237.4182739257812 186.4182739257812 241 182 241 L 8 241 C 3.58172607421875 241 0 237.4182739257812 0 233 L 0 8 C 0 3.58172607421875 3.58172607421875 0 8 0 Z" stroke="none" fill="#fff"/>
      </g>
    </g>
    <path id="Trazado_137101" data-name="Trazado 137101" d="M63.215,12.07h-4.5v3.047H64V17H56.371V5.625H63.98v1.9H58.715v2.711h4.5ZM67.3,8.547l.07.977A2.951,2.951,0,0,1,69.8,8.391a2.453,2.453,0,0,1,2,.789,3.682,3.682,0,0,1,.672,2.359V17H70.215V11.594a1.465,1.465,0,0,0-.312-1.043,1.4,1.4,0,0,0-1.039-.324,1.553,1.553,0,0,0-1.43.813V17H65.176V8.547Zm9.586-2.078V8.547h1.445V10.2H76.887v4.219a1.007,1.007,0,0,0,.18.672.9.9,0,0,0,.688.2,3.6,3.6,0,0,0,.664-.055v1.711a4.648,4.648,0,0,1-1.367.2,2.156,2.156,0,0,1-2.422-2.4V10.2H73.395V8.547h1.234V6.469Zm7.453,4.2a6.134,6.134,0,0,0-.812-.062,1.654,1.654,0,0,0-1.68.867V17H79.59V8.547h2.133l.063,1.008a2.092,2.092,0,0,1,1.883-1.164,2.366,2.366,0,0,1,.7.1Zm4.977,6.492a4.15,4.15,0,0,1-3.027-1.141,4.054,4.054,0,0,1-1.168-3.039v-.219a5.106,5.106,0,0,1,.492-2.277,3.612,3.612,0,0,1,1.395-1.547,3.914,3.914,0,0,1,2.059-.543A3.508,3.508,0,0,1,91.8,9.484a4.444,4.444,0,0,1,1,3.1v.922H87.41a2.1,2.1,0,0,0,.66,1.328,2,2,0,0,0,1.395.5,2.437,2.437,0,0,0,2.039-.945l1.109,1.242a3.389,3.389,0,0,1-1.375,1.121A4.511,4.511,0,0,1,89.316,17.156Zm-.258-6.945a1.411,1.411,0,0,0-1.09.455,2.357,2.357,0,0,0-.535,1.3h3.141v-.181a1.681,1.681,0,0,0-.406-1.165A1.456,1.456,0,0,0,89.059,10.211Zm7.094-1.664.07.977a2.951,2.951,0,0,1,2.43-1.133,2.453,2.453,0,0,1,2,.789,3.682,3.682,0,0,1,.672,2.359V17H99.066V11.594a1.465,1.465,0,0,0-.312-1.043,1.4,1.4,0,0,0-1.039-.324,1.553,1.553,0,0,0-1.43.813V17H94.027V8.547ZM107.934,17a2.507,2.507,0,0,1-.227-.758,2.732,2.732,0,0,1-2.133.914,3,3,0,0,1-2.059-.719,2.312,2.312,0,0,1-.816-1.812,2.389,2.389,0,0,1,1-2.062,4.915,4.915,0,0,1,2.879-.727h1.039v-.484a1.393,1.393,0,0,0-.3-.937,1.183,1.183,0,0,0-.949-.352,1.345,1.345,0,0,0-.895.273.929.929,0,0,0-.324.75h-2.258a2.268,2.268,0,0,1,.453-1.359,3,3,0,0,1,1.281-.98,4.669,4.669,0,0,1,1.859-.355,3.689,3.689,0,0,1,2.48.785,2.747,2.747,0,0,1,.918,2.207v3.664a4.041,4.041,0,0,0,.336,1.82V17Zm-1.867-1.57a1.945,1.945,0,0,0,.922-.223,1.462,1.462,0,0,0,.625-.6V13.156h-.844q-1.7,0-1.8,1.172l-.008.133a.9.9,0,0,0,.3.7A1.153,1.153,0,0,0,106.066,15.43Zm5.2-2.719a5.094,5.094,0,0,1,.887-3.148,2.877,2.877,0,0,1,2.426-1.172,2.589,2.589,0,0,1,2.039.922V5h2.266V17H116.84l-.109-.9a2.657,2.657,0,0,1-2.172,1.055,2.869,2.869,0,0,1-2.395-1.176A5.258,5.258,0,0,1,111.262,12.711Zm2.258.168a3.337,3.337,0,0,0,.414,1.823,1.349,1.349,0,0,0,1.2.634,1.511,1.511,0,0,0,1.477-.884V11.111a1.489,1.489,0,0,0-1.461-.884Q113.52,10.227,113.52,12.879Zm6.758-.184a5.013,5.013,0,0,1,.484-2.242,3.546,3.546,0,0,1,1.395-1.523,4.069,4.069,0,0,1,2.113-.539,3.849,3.849,0,0,1,2.793,1.047,4.2,4.2,0,0,1,1.207,2.844l.016.578A4.418,4.418,0,0,1,127.2,15.98a4.209,4.209,0,0,1-5.832,0,4.5,4.5,0,0,1-1.09-3.187Zm2.258.16a3.16,3.16,0,0,0,.453,1.843,1.628,1.628,0,0,0,2.578.008,3.457,3.457,0,0,0,.461-2.015,3.128,3.128,0,0,0-.461-1.831,1.5,1.5,0,0,0-1.3-.649,1.474,1.474,0,0,0-1.281.646A3.516,3.516,0,0,0,122.535,12.856Zm11.891-2.192a6.134,6.134,0,0,0-.812-.062,1.654,1.654,0,0,0-1.68.867V17h-2.258V8.547h2.133l.063,1.008a2.092,2.092,0,0,1,1.883-1.164,2.366,2.366,0,0,1,.7.1ZM65.008,34.156a4.15,4.15,0,0,1-3.027-1.141,4.054,4.054,0,0,1-1.168-3.039v-.219A5.106,5.106,0,0,1,61.3,27.48,3.612,3.612,0,0,1,62.7,25.934a3.914,3.914,0,0,1,2.059-.543,3.508,3.508,0,0,1,2.73,1.094,4.444,4.444,0,0,1,1,3.1v.922H63.1a2.1,2.1,0,0,0,.66,1.328,2,2,0,0,0,1.395.5,2.437,2.437,0,0,0,2.039-.945L68.3,32.633a3.389,3.389,0,0,1-1.375,1.121A4.511,4.511,0,0,1,65.008,34.156Zm-.258-6.945a1.411,1.411,0,0,0-1.09.455,2.357,2.357,0,0,0-.535,1.3h3.141v-.181a1.681,1.681,0,0,0-.406-1.165A1.456,1.456,0,0,0,64.75,27.211Zm7.094-1.664.07.977a2.951,2.951,0,0,1,2.43-1.133,2.453,2.453,0,0,1,2,.789,3.682,3.682,0,0,1,.672,2.359V34H74.758V28.594a1.465,1.465,0,0,0-.312-1.043,1.4,1.4,0,0,0-1.039-.324,1.553,1.553,0,0,0-1.43.813V34H69.719V25.547Zm14.031,5.7,1.57-5.7H89.8L86.953,34H84.8l-2.852-8.453H84.3Zm8.813,2.914a4.15,4.15,0,0,1-3.027-1.141,4.054,4.054,0,0,1-1.168-3.039v-.219a5.106,5.106,0,0,1,.492-2.277,3.612,3.612,0,0,1,1.395-1.547,3.914,3.914,0,0,1,2.059-.543,3.508,3.508,0,0,1,2.73,1.094,4.444,4.444,0,0,1,1,3.1v.922H92.781a2.1,2.1,0,0,0,.66,1.328,2,2,0,0,0,1.395.5,2.437,2.437,0,0,0,2.039-.945l1.109,1.242a3.389,3.389,0,0,1-1.375,1.121A4.511,4.511,0,0,1,94.688,34.156Zm-.258-6.945a1.411,1.411,0,0,0-1.09.455,2.357,2.357,0,0,0-.535,1.3h3.141v-.181a1.681,1.681,0,0,0-.406-1.165A1.456,1.456,0,0,0,94.43,27.211Zm7.094-1.664.07.977a2.951,2.951,0,0,1,2.43-1.133,2.453,2.453,0,0,1,2,.789,3.682,3.682,0,0,1,.672,2.359V34h-2.258V28.594a1.465,1.465,0,0,0-.312-1.043,1.4,1.4,0,0,0-1.039-.324,1.553,1.553,0,0,0-1.43.813V34H99.4V25.547Zm9.586-2.078v2.078h1.445V27.2h-1.445v4.219a1.007,1.007,0,0,0,.18.672.9.9,0,0,0,.688.2,3.6,3.6,0,0,0,.664-.055v1.711a4.648,4.648,0,0,1-1.367.2,2.156,2.156,0,0,1-2.422-2.4V27.2h-1.234V25.547h1.234V23.469ZM118.711,34a2.507,2.507,0,0,1-.227-.758,2.732,2.732,0,0,1-2.133.914,3,3,0,0,1-2.059-.719,2.312,2.312,0,0,1-.816-1.812,2.389,2.389,0,0,1,1-2.062,4.915,4.915,0,0,1,2.879-.727h1.039v-.484a1.393,1.393,0,0,0-.3-.937,1.183,1.183,0,0,0-.949-.352,1.345,1.345,0,0,0-.895.273.929.929,0,0,0-.324.75h-2.258a2.268,2.268,0,0,1,.453-1.359,3,3,0,0,1,1.281-.98,4.669,4.669,0,0,1,1.859-.355,3.689,3.689,0,0,1,2.48.785,2.747,2.747,0,0,1,.918,2.207v3.664a4.041,4.041,0,0,0,.336,1.82V34Zm-1.867-1.57a1.945,1.945,0,0,0,.922-.223,1.462,1.462,0,0,0,.625-.6V30.156h-.844q-1.7,0-1.8,1.172l-.008.133a.9.9,0,0,0,.3.7A1.153,1.153,0,0,0,116.844,32.43Zm10.125-.766a.727.727,0,0,0-.41-.652,4.659,4.659,0,0,0-1.316-.426q-3.016-.633-3.016-2.562a2.323,2.323,0,0,1,.934-1.879,3.766,3.766,0,0,1,2.441-.754,4.053,4.053,0,0,1,2.574.758,2.388,2.388,0,0,1,.965,1.969h-2.258a1.092,1.092,0,0,0-.312-.8,1.322,1.322,0,0,0-.977-.316,1.351,1.351,0,0,0-.883.258.814.814,0,0,0-.312.656.7.7,0,0,0,.355.605,3.657,3.657,0,0,0,1.2.4,9.8,9.8,0,0,1,1.422.379,2.336,2.336,0,0,1,1.789,2.273,2.205,2.205,0,0,1-.992,1.871,4.28,4.28,0,0,1-2.562.715,4.47,4.47,0,0,1-1.887-.379,3.166,3.166,0,0,1-1.293-1.039,2.414,2.414,0,0,1-.469-1.426H124.1a1.179,1.179,0,0,0,.445.922,1.766,1.766,0,0,0,1.109.32,1.635,1.635,0,0,0,.98-.246A.766.766,0,0,0,126.969,31.664Z" transform="translate(705 4035)" fill="#fff"/>
    <g transform="matrix(1, 0, 0, 1, 276, 3909)" filter="url(#Trazado_137102)">
      <g id="Trazado_137102-2" data-name="Trazado 137102" transform="translate(634 6)" fill="#b0c8cb">
        <path d="M 182 240 L 8 240 C 4.14018726348877 240 1 236.8598175048828 1 233 L 1 8 C 1 4.14018726348877 4.14018726348877 1 8 1 L 182 1 C 185.8598175048828 1 189 4.14018726348877 189 8 L 189 233 C 189 236.8598175048828 185.8598175048828 240 182 240 Z" stroke="none"/>
        <path d="M 8 2 C 4.69158935546875 2 2 4.69158935546875 2 8 L 2 233 C 2 236.3084106445312 4.69158935546875 239 8 239 L 182 239 C 185.3084106445312 239 188 236.3084106445312 188 233 L 188 8 C 188 4.69158935546875 185.3084106445312 2 182 2 L 8 2 M 8 0 L 182 0 C 186.4182739257812 0 190 3.58172607421875 190 8 L 190 233 C 190 237.4182739257812 186.4182739257812 241 182 241 L 8 241 C 3.58172607421875 241 0 237.4182739257812 0 233 L 0 8 C 0 3.58172607421875 3.58172607421875 0 8 0 Z" stroke="none" fill="#fff"/>
      </g>
    </g>
    <path id="Trazado_137103" data-name="Trazado 137103" d="M66.238,14.656H62.129L61.348,17H58.855L63.09,5.625h2.172L69.52,17H67.027Zm-3.477-1.9h2.844L64.176,8.5Zm12.25,1.906a.727.727,0,0,0-.41-.652,4.659,4.659,0,0,0-1.316-.426q-3.016-.633-3.016-2.562A2.323,2.323,0,0,1,71.2,9.145a3.766,3.766,0,0,1,2.441-.754,4.053,4.053,0,0,1,2.574.758,2.388,2.388,0,0,1,.965,1.969H74.926a1.092,1.092,0,0,0-.312-.8A1.322,1.322,0,0,0,73.637,10a1.351,1.351,0,0,0-.883.258.814.814,0,0,0-.312.656.7.7,0,0,0,.355.605,3.657,3.657,0,0,0,1.2.4,9.8,9.8,0,0,1,1.422.379,2.336,2.336,0,0,1,1.789,2.273,2.2,2.2,0,0,1-.992,1.871,4.28,4.28,0,0,1-2.562.715,4.47,4.47,0,0,1-1.887-.379,3.166,3.166,0,0,1-1.293-1.039A2.414,2.414,0,0,1,70,14.313h2.141a1.179,1.179,0,0,0,.445.922,1.766,1.766,0,0,0,1.109.32,1.635,1.635,0,0,0,.98-.246A.766.766,0,0,0,75.012,14.664Zm7.539,2.492a4.15,4.15,0,0,1-3.027-1.141,4.054,4.054,0,0,1-1.168-3.039v-.219a5.106,5.106,0,0,1,.492-2.277,3.612,3.612,0,0,1,1.395-1.547A3.914,3.914,0,0,1,82.3,8.391a3.508,3.508,0,0,1,2.73,1.094,4.444,4.444,0,0,1,1,3.1v.922H80.645a2.1,2.1,0,0,0,.66,1.328,2,2,0,0,0,1.395.5,2.437,2.437,0,0,0,2.039-.945l1.109,1.242a3.389,3.389,0,0,1-1.375,1.121A4.511,4.511,0,0,1,82.551,17.156Zm-.258-6.945a1.411,1.411,0,0,0-1.09.455,2.357,2.357,0,0,0-.535,1.3h3.141v-.181a1.681,1.681,0,0,0-.406-1.165A1.456,1.456,0,0,0,82.293,10.211Zm9.594,4.453a.727.727,0,0,0-.41-.652,4.659,4.659,0,0,0-1.316-.426q-3.016-.633-3.016-2.562a2.323,2.323,0,0,1,.934-1.879,3.766,3.766,0,0,1,2.441-.754,4.053,4.053,0,0,1,2.574.758,2.388,2.388,0,0,1,.965,1.969H91.8a1.092,1.092,0,0,0-.312-.8A1.322,1.322,0,0,0,90.512,10a1.351,1.351,0,0,0-.883.258.814.814,0,0,0-.312.656.7.7,0,0,0,.355.605,3.657,3.657,0,0,0,1.2.4,9.8,9.8,0,0,1,1.422.379,2.336,2.336,0,0,1,1.789,2.273,2.2,2.2,0,0,1-.992,1.871,4.28,4.28,0,0,1-2.562.715,4.47,4.47,0,0,1-1.887-.379,3.166,3.166,0,0,1-1.293-1.039,2.414,2.414,0,0,1-.469-1.426H89.02a1.179,1.179,0,0,0,.445.922,1.766,1.766,0,0,0,1.109.32,1.635,1.635,0,0,0,.98-.246A.766.766,0,0,0,91.887,14.664Zm3.3-1.969a5.013,5.013,0,0,1,.484-2.242A3.546,3.546,0,0,1,97.063,8.93a4.069,4.069,0,0,1,2.113-.539,3.849,3.849,0,0,1,2.793,1.047,4.2,4.2,0,0,1,1.207,2.844l.016.578a4.418,4.418,0,0,1-1.086,3.121,4.209,4.209,0,0,1-5.832,0,4.5,4.5,0,0,1-1.09-3.187Zm2.258.16a3.16,3.16,0,0,0,.453,1.843,1.628,1.628,0,0,0,2.578.008,3.457,3.457,0,0,0,.461-2.015,3.128,3.128,0,0,0-.461-1.831,1.5,1.5,0,0,0-1.3-.649,1.474,1.474,0,0,0-1.281.646A3.516,3.516,0,0,0,97.441,12.856Zm11.891-2.192a6.134,6.134,0,0,0-.812-.062,1.654,1.654,0,0,0-1.68.867V17h-2.258V8.547h2.133l.063,1.008a2.092,2.092,0,0,1,1.883-1.164,2.366,2.366,0,0,1,.7.1Zm4.719,2.047a5.094,5.094,0,0,1,.887-3.148,2.877,2.877,0,0,1,2.426-1.172,2.589,2.589,0,0,1,2.039.922V5h2.266V17h-2.039l-.109-.9a2.657,2.657,0,0,1-2.172,1.055,2.869,2.869,0,0,1-2.395-1.176A5.258,5.258,0,0,1,114.051,12.711Zm2.258.168a3.337,3.337,0,0,0,.414,1.823,1.349,1.349,0,0,0,1.2.634,1.511,1.511,0,0,0,1.477-.884V11.111a1.489,1.489,0,0,0-1.461-.884Q116.309,10.227,116.309,12.879Zm11,4.277a4.15,4.15,0,0,1-3.027-1.141,4.054,4.054,0,0,1-1.168-3.039v-.219a5.106,5.106,0,0,1,.492-2.277A3.612,3.612,0,0,1,125,8.934a3.914,3.914,0,0,1,2.059-.543,3.508,3.508,0,0,1,2.73,1.094,4.444,4.444,0,0,1,1,3.1v.922H125.4a2.1,2.1,0,0,0,.66,1.328,2,2,0,0,0,1.395.5,2.437,2.437,0,0,0,2.039-.945l1.109,1.242a3.389,3.389,0,0,1-1.375,1.121A4.511,4.511,0,0,1,127.309,17.156Zm-.258-6.945a1.411,1.411,0,0,0-1.09.455,2.357,2.357,0,0,0-.535,1.3h3.141v-.181a1.681,1.681,0,0,0-.406-1.165A1.456,1.456,0,0,0,127.051,10.211ZM60.68,25.547l.07.945a2.971,2.971,0,0,1,2.43-1.1,2.255,2.255,0,0,1,2.242,1.289,2.9,2.9,0,0,1,2.539-1.289,2.521,2.521,0,0,1,2.047.8,3.681,3.681,0,0,1,.672,2.41V34H68.414V28.609a1.61,1.61,0,0,0-.281-1.051,1.246,1.246,0,0,0-.992-.332,1.409,1.409,0,0,0-1.406.969l.008,5.8H63.484V28.617a1.59,1.59,0,0,0-.289-1.062,1.259,1.259,0,0,0-.984-.328,1.463,1.463,0,0,0-1.391.8V34H58.563V25.547ZM72.063,29.7a5.013,5.013,0,0,1,.484-2.242,3.546,3.546,0,0,1,1.395-1.523,4.069,4.069,0,0,1,2.113-.539,3.849,3.849,0,0,1,2.793,1.047,4.2,4.2,0,0,1,1.207,2.844l.016.578a4.418,4.418,0,0,1-1.086,3.121,4.209,4.209,0,0,1-5.832,0,4.5,4.5,0,0,1-1.09-3.187Zm2.258.16a3.16,3.16,0,0,0,.453,1.843,1.628,1.628,0,0,0,2.578.008,3.457,3.457,0,0,0,.461-2.015,3.128,3.128,0,0,0-.461-1.831,1.5,1.5,0,0,0-1.3-.649,1.474,1.474,0,0,0-1.281.646A3.516,3.516,0,0,0,74.32,29.856Zm11.719,1.808a.727.727,0,0,0-.41-.652,4.659,4.659,0,0,0-1.316-.426Q81.3,29.953,81.3,28.023a2.323,2.323,0,0,1,.934-1.879,3.766,3.766,0,0,1,2.441-.754,4.053,4.053,0,0,1,2.574.758,2.388,2.388,0,0,1,.965,1.969H85.953a1.092,1.092,0,0,0-.312-.8A1.322,1.322,0,0,0,84.664,27a1.351,1.351,0,0,0-.883.258.814.814,0,0,0-.312.656.7.7,0,0,0,.355.605,3.657,3.657,0,0,0,1.2.4,9.8,9.8,0,0,1,1.422.379,2.336,2.336,0,0,1,1.789,2.273,2.2,2.2,0,0,1-.992,1.871,4.28,4.28,0,0,1-2.562.715,4.47,4.47,0,0,1-1.887-.379A3.166,3.166,0,0,1,81.5,32.738a2.414,2.414,0,0,1-.469-1.426h2.141a1.179,1.179,0,0,0,.445.922,1.766,1.766,0,0,0,1.109.32,1.635,1.635,0,0,0,.98-.246A.766.766,0,0,0,86.039,31.664Zm6.352-8.2v2.078h1.445V27.2H92.391v4.219a1.007,1.007,0,0,0,.18.672.9.9,0,0,0,.688.2,3.6,3.6,0,0,0,.664-.055v1.711a4.648,4.648,0,0,1-1.367.2,2.156,2.156,0,0,1-2.422-2.4V27.2H88.9V25.547h1.234V23.469Zm7.453,4.2a6.134,6.134,0,0,0-.812-.062,1.654,1.654,0,0,0-1.68.867V34H95.094V25.547h2.133l.063,1.008a2.092,2.092,0,0,1,1.883-1.164,2.366,2.366,0,0,1,.7.1ZM105.594,34a2.507,2.507,0,0,1-.227-.758,2.732,2.732,0,0,1-2.133.914,3,3,0,0,1-2.059-.719,2.312,2.312,0,0,1-.816-1.812,2.389,2.389,0,0,1,1-2.062,4.915,4.915,0,0,1,2.879-.727h1.039v-.484a1.393,1.393,0,0,0-.3-.937,1.183,1.183,0,0,0-.949-.352,1.345,1.345,0,0,0-.895.273.929.929,0,0,0-.324.75h-2.258A2.268,2.268,0,0,1,101,26.727a3,3,0,0,1,1.281-.98,4.669,4.669,0,0,1,1.859-.355,3.689,3.689,0,0,1,2.48.785,2.747,2.747,0,0,1,.918,2.207v3.664a4.041,4.041,0,0,0,.336,1.82V34Zm-1.867-1.57a1.945,1.945,0,0,0,.922-.223,1.462,1.462,0,0,0,.625-.6V30.156h-.844q-1.7,0-1.8,1.172l-.008.133a.9.9,0,0,0,.3.7A1.153,1.153,0,0,0,103.727,32.43Zm5.2-2.719a5.094,5.094,0,0,1,.887-3.148,2.877,2.877,0,0,1,2.426-1.172,2.589,2.589,0,0,1,2.039.922V22h2.266V34H114.5l-.109-.9a2.657,2.657,0,0,1-2.172,1.055,2.869,2.869,0,0,1-2.395-1.176A5.258,5.258,0,0,1,108.922,29.711Zm2.258.168a3.337,3.337,0,0,0,.414,1.823,1.349,1.349,0,0,0,1.2.634,1.511,1.511,0,0,0,1.477-.884V28.111a1.489,1.489,0,0,0-1.461-.884Q111.18,27.227,111.18,29.879Zm6.758-.184a5.013,5.013,0,0,1,.484-2.242,3.546,3.546,0,0,1,1.395-1.523,4.069,4.069,0,0,1,2.113-.539,3.849,3.849,0,0,1,2.793,1.047,4.2,4.2,0,0,1,1.207,2.844l.016.578a4.418,4.418,0,0,1-1.086,3.121,4.209,4.209,0,0,1-5.832,0,4.5,4.5,0,0,1-1.09-3.187Zm2.258.16a3.16,3.16,0,0,0,.453,1.843,1.628,1.628,0,0,0,2.578.008,3.457,3.457,0,0,0,.461-2.015,3.128,3.128,0,0,0-.461-1.831,1.5,1.5,0,0,0-1.3-.649,1.474,1.474,0,0,0-1.281.646A3.516,3.516,0,0,0,120.2,29.856Zm11.891-2.192a6.134,6.134,0,0,0-.812-.062,1.654,1.654,0,0,0-1.68.867V34h-2.258V25.547h2.133l.063,1.008a2.092,2.092,0,0,1,1.883-1.164,2.366,2.366,0,0,1,.7.1Z" transform="translate(910 4035)" fill="#12263f"/>
    <g transform="matrix(1, 0, 0, 1, 276, 3909)" filter="url(#Trazado_137104)">
      <g id="Trazado_137104-2" data-name="Trazado 137104" transform="translate(219 6)" fill="#b0c8cb">
        <path d="M 182 240 L 8 240 C 4.14018726348877 240 1 236.8598175048828 1 233 L 1 8 C 1 4.14018726348877 4.14018726348877 1 8 1 L 182 1 C 185.8598175048828 1 189 4.14018726348877 189 8 L 189 233 C 189 236.8598175048828 185.8598175048828 240 182 240 Z" stroke="none"/>
        <path d="M 8 2 C 4.69158935546875 2 2 4.69158935546875 2 8 L 2 233 C 2 236.3084106445312 4.69158935546875 239 8 239 L 182 239 C 185.3084106445312 239 188 236.3084106445312 188 233 L 188 8 C 188 4.69158935546875 185.3084106445312 2 182 2 L 8 2 M 8 0 L 182 0 C 186.4182739257812 0 190 3.58172607421875 190 8 L 190 233 C 190 237.4182739257812 186.4182739257812 241 182 241 L 8 241 C 3.58172607421875 241 0 237.4182739257812 0 233 L 0 8 C 0 3.58172607421875 3.58172607421875 0 8 0 Z" stroke="none" fill="#fff"/>
      </g>
    </g>
    <path id="Trazado_137105" data-name="Trazado 137105" d="M64.422,12.992V17H62.078V5.625h4.438a5.134,5.134,0,0,1,2.254.469,3.454,3.454,0,0,1,1.5,1.332,3.714,3.714,0,0,1,.523,1.965,3.266,3.266,0,0,1-1.145,2.637,4.767,4.767,0,0,1-3.168.965Zm0-1.9h2.094a2.059,2.059,0,0,0,1.418-.437,1.591,1.591,0,0,0,.488-1.25,1.876,1.876,0,0,0-.492-1.352,1.839,1.839,0,0,0-1.359-.531H64.422ZM77,10.664a6.134,6.134,0,0,0-.812-.062,1.654,1.654,0,0,0-1.68.867V17H72.25V8.547h2.133l.063,1.008a2.092,2.092,0,0,1,1.883-1.164,2.366,2.366,0,0,1,.7.1Zm.453,2.031a5.013,5.013,0,0,1,.484-2.242A3.546,3.546,0,0,1,79.332,8.93a4.069,4.069,0,0,1,2.113-.539,3.849,3.849,0,0,1,2.793,1.047,4.2,4.2,0,0,1,1.207,2.844l.016.578a4.418,4.418,0,0,1-1.086,3.121,4.209,4.209,0,0,1-5.832,0,4.5,4.5,0,0,1-1.09-3.187Zm2.258.16a3.16,3.16,0,0,0,.453,1.843,1.628,1.628,0,0,0,2.578.008,3.457,3.457,0,0,0,.461-2.015,3.128,3.128,0,0,0-.461-1.831,1.5,1.5,0,0,0-1.3-.649,1.474,1.474,0,0,0-1.281.646A3.516,3.516,0,0,0,79.711,12.856Zm9.258-4.309.07.945a2.971,2.971,0,0,1,2.43-1.1A2.255,2.255,0,0,1,93.711,9.68,2.9,2.9,0,0,1,96.25,8.391a2.521,2.521,0,0,1,2.047.8,3.681,3.681,0,0,1,.672,2.41V17H96.7V11.609a1.61,1.61,0,0,0-.281-1.051,1.246,1.246,0,0,0-.992-.332,1.409,1.409,0,0,0-1.406.969l.008,5.8H91.773V11.617a1.59,1.59,0,0,0-.289-1.062,1.259,1.259,0,0,0-.984-.328,1.463,1.463,0,0,0-1.391.8V17H86.852V8.547ZM100.352,12.7a5.013,5.013,0,0,1,.484-2.242A3.546,3.546,0,0,1,102.23,8.93a4.069,4.069,0,0,1,2.113-.539,3.849,3.849,0,0,1,2.793,1.047,4.2,4.2,0,0,1,1.207,2.844l.016.578a4.418,4.418,0,0,1-1.086,3.121,4.209,4.209,0,0,1-5.832,0,4.5,4.5,0,0,1-1.09-3.187Zm2.258.16a3.16,3.16,0,0,0,.453,1.843,1.628,1.628,0,0,0,2.578.008,3.457,3.457,0,0,0,.461-2.015,3.128,3.128,0,0,0-.461-1.831,1.5,1.5,0,0,0-1.3-.649,1.474,1.474,0,0,0-1.281.646A3.516,3.516,0,0,0,102.609,12.856Zm9.844-6.387V8.547H113.9V10.2h-1.445v4.219a1.007,1.007,0,0,0,.18.672.9.9,0,0,0,.688.2,3.6,3.6,0,0,0,.664-.055v1.711a4.648,4.648,0,0,1-1.367.2,2.156,2.156,0,0,1-2.422-2.4V10.2h-1.234V8.547H110.2V6.469ZM114.57,12.7a5.013,5.013,0,0,1,.484-2.242,3.546,3.546,0,0,1,1.395-1.523,4.069,4.069,0,0,1,2.113-.539,3.849,3.849,0,0,1,2.793,1.047,4.2,4.2,0,0,1,1.207,2.844l.016.578a4.418,4.418,0,0,1-1.086,3.121,4.209,4.209,0,0,1-5.832,0,4.5,4.5,0,0,1-1.09-3.187Zm2.258.16a3.16,3.16,0,0,0,.453,1.843,1.628,1.628,0,0,0,2.578.008,3.457,3.457,0,0,0,.461-2.015,3.128,3.128,0,0,0-.461-1.831,1.5,1.5,0,0,0-1.3-.649,1.474,1.474,0,0,0-1.281.646A3.516,3.516,0,0,0,116.828,12.856Zm11.891-2.192a6.134,6.134,0,0,0-.812-.062,1.654,1.654,0,0,0-1.68.867V17h-2.258V8.547H126.1l.063,1.008a2.092,2.092,0,0,1,1.883-1.164,2.366,2.366,0,0,1,.7.1ZM60.738,29.711a5.094,5.094,0,0,1,.887-3.148,2.877,2.877,0,0,1,2.426-1.172,2.589,2.589,0,0,1,2.039.922V22h2.266V34H66.316l-.109-.9a2.657,2.657,0,0,1-2.172,1.055,2.869,2.869,0,0,1-2.395-1.176A5.258,5.258,0,0,1,60.738,29.711ZM63,29.879A3.337,3.337,0,0,0,63.41,31.7a1.349,1.349,0,0,0,1.2.634,1.511,1.511,0,0,0,1.477-.884V28.111a1.489,1.489,0,0,0-1.461-.884Q63,27.227,63,29.879Zm11,4.277a4.15,4.15,0,0,1-3.027-1.141A4.054,4.054,0,0,1,69.8,29.977v-.219a5.106,5.106,0,0,1,.492-2.277,3.612,3.612,0,0,1,1.395-1.547,3.914,3.914,0,0,1,2.059-.543,3.508,3.508,0,0,1,2.73,1.094,4.444,4.444,0,0,1,1,3.1v.922H72.09a2.1,2.1,0,0,0,.66,1.328,2,2,0,0,0,1.395.5,2.437,2.437,0,0,0,2.039-.945l1.109,1.242a3.389,3.389,0,0,1-1.375,1.121A4.511,4.511,0,0,1,74,34.156Zm-.258-6.945a1.411,1.411,0,0,0-1.09.455,2.357,2.357,0,0,0-.535,1.3h3.141v-.181a1.681,1.681,0,0,0-.406-1.165A1.456,1.456,0,0,0,73.738,27.211ZM85.9,31.242l1.57-5.7h2.359L86.98,34H84.824l-2.852-8.453h2.359Zm8.813,2.914a4.15,4.15,0,0,1-3.027-1.141,4.054,4.054,0,0,1-1.168-3.039v-.219a5.106,5.106,0,0,1,.492-2.277,3.612,3.612,0,0,1,1.395-1.547,3.914,3.914,0,0,1,2.059-.543,3.508,3.508,0,0,1,2.73,1.094,4.444,4.444,0,0,1,1,3.1v.922H92.809a2.1,2.1,0,0,0,.66,1.328,2,2,0,0,0,1.395.5,2.437,2.437,0,0,0,2.039-.945l1.109,1.242a3.389,3.389,0,0,1-1.375,1.121A4.511,4.511,0,0,1,94.715,34.156Zm-.258-6.945a1.411,1.411,0,0,0-1.09.455,2.357,2.357,0,0,0-.535,1.3h3.141v-.181a1.681,1.681,0,0,0-.406-1.165A1.456,1.456,0,0,0,94.457,27.211Zm7.094-1.664.07.977a2.951,2.951,0,0,1,2.43-1.133,2.453,2.453,0,0,1,2,.789,3.682,3.682,0,0,1,.672,2.359V34h-2.258V28.594a1.465,1.465,0,0,0-.312-1.043,1.4,1.4,0,0,0-1.039-.324,1.553,1.553,0,0,0-1.43.813V34H99.426V25.547Zm9.586-2.078v2.078h1.445V27.2h-1.445v4.219a1.007,1.007,0,0,0,.18.672.9.9,0,0,0,.688.2,3.6,3.6,0,0,0,.664-.055v1.711a4.648,4.648,0,0,1-1.367.2,2.156,2.156,0,0,1-2.422-2.4V27.2h-1.234V25.547h1.234V23.469ZM118.738,34a2.507,2.507,0,0,1-.227-.758,2.732,2.732,0,0,1-2.133.914,3,3,0,0,1-2.059-.719,2.312,2.312,0,0,1-.816-1.812,2.389,2.389,0,0,1,1-2.062,4.915,4.915,0,0,1,2.879-.727h1.039v-.484a1.393,1.393,0,0,0-.3-.937,1.183,1.183,0,0,0-.949-.352,1.345,1.345,0,0,0-.895.273.929.929,0,0,0-.324.75h-2.258a2.268,2.268,0,0,1,.453-1.359,3,3,0,0,1,1.281-.98,4.669,4.669,0,0,1,1.859-.355,3.689,3.689,0,0,1,2.48.785,2.747,2.747,0,0,1,.918,2.207v3.664a4.041,4.041,0,0,0,.336,1.82V34Zm-1.867-1.57a1.945,1.945,0,0,0,.922-.223,1.462,1.462,0,0,0,.625-.6V30.156h-.844q-1.7,0-1.8,1.172l-.008.133a.9.9,0,0,0,.3.7A1.153,1.153,0,0,0,116.871,32.43ZM127,31.664a.727.727,0,0,0-.41-.652,4.659,4.659,0,0,0-1.316-.426q-3.016-.633-3.016-2.562a2.323,2.323,0,0,1,.934-1.879,3.766,3.766,0,0,1,2.441-.754,4.053,4.053,0,0,1,2.574.758,2.388,2.388,0,0,1,.965,1.969H126.91a1.092,1.092,0,0,0-.312-.8,1.322,1.322,0,0,0-.977-.316,1.351,1.351,0,0,0-.883.258.814.814,0,0,0-.312.656.7.7,0,0,0,.355.605,3.657,3.657,0,0,0,1.2.4,9.8,9.8,0,0,1,1.422.379,2.336,2.336,0,0,1,1.789,2.273,2.205,2.205,0,0,1-.992,1.871,4.28,4.28,0,0,1-2.562.715,4.47,4.47,0,0,1-1.887-.379,3.166,3.166,0,0,1-1.293-1.039,2.414,2.414,0,0,1-.469-1.426h2.141a1.179,1.179,0,0,0,.445.922,1.766,1.766,0,0,0,1.109.32,1.635,1.635,0,0,0,.98-.246A.766.766,0,0,0,127,31.664Z" transform="translate(495 4035)" fill="#12263f"/>
    <g transform="matrix(1, 0, 0, 1, 276, 3909)" filter="url(#Trazado_137106)">
      <g id="Trazado_137106-2" data-name="Trazado 137106" transform="translate(849 6)" fill="#c9f0ee">
        <path d="M 182 240 L 8 240 C 4.14018726348877 240 1 236.8598175048828 1 233 L 1 8 C 1 4.14018726348877 4.14018726348877 1 8 1 L 182 1 C 185.8598175048828 1 189 4.14018726348877 189 8 L 189 233 C 189 236.8598175048828 185.8598175048828 240 182 240 Z" stroke="none"/>
        <path d="M 8 2 C 4.69158935546875 2 2 4.69158935546875 2 8 L 2 233 C 2 236.3084106445312 4.69158935546875 239 8 239 L 182 239 C 185.3084106445312 239 188 236.3084106445312 188 233 L 188 8 C 188 4.69158935546875 185.3084106445312 2 182 2 L 8 2 M 8 0 L 182 0 C 186.4182739257812 0 190 3.58172607421875 190 8 L 190 233 C 190 237.4182739257812 186.4182739257812 241 182 241 L 8 241 C 3.58172607421875 241 0 237.4182739257812 0 233 L 0 8 C 0 3.58172607421875 3.58172607421875 0 8 0 Z" stroke="none" fill="#fff"/>
      </g>
    </g>
    <path id="Trazado_137107" data-name="Trazado 137107" d="M57.8,17H55.453V5.625H57.8Zm4.141-8.453.07.945a2.971,2.971,0,0,1,2.43-1.1A2.255,2.255,0,0,1,66.68,9.68a2.9,2.9,0,0,1,2.539-1.289,2.521,2.521,0,0,1,2.047.8,3.681,3.681,0,0,1,.672,2.41V17H69.672V11.609a1.61,1.61,0,0,0-.281-1.051,1.246,1.246,0,0,0-.992-.332,1.409,1.409,0,0,0-1.406.969L67,17H64.742V11.617a1.59,1.59,0,0,0-.289-1.062,1.259,1.259,0,0,0-.984-.328,1.463,1.463,0,0,0-1.391.8V17H59.82V8.547Zm19.344,4.3a5.07,5.07,0,0,1-.887,3.129A2.843,2.843,0,0,1,78,17.156a2.633,2.633,0,0,1-2.07-.891V20.25H73.672V8.547h2.094l.078.828a2.654,2.654,0,0,1,2.141-.984,2.862,2.862,0,0,1,2.43,1.156,5.207,5.207,0,0,1,.867,3.188Zm-2.258-.164a3.327,3.327,0,0,0-.418-1.82,1.361,1.361,0,0,0-1.215-.641,1.478,1.478,0,0,0-1.461.813V14.5a1.5,1.5,0,0,0,1.477.836Q79.023,15.336,79.023,12.688Zm8.719,3.453a2.831,2.831,0,0,1-2.312,1.016,2.67,2.67,0,0,1-2.074-.781,3.335,3.335,0,0,1-.73-2.289V8.547h2.258v5.467q0,1.322,1.2,1.322a1.63,1.63,0,0,0,1.578-.8V8.547H89.93V17H87.8ZM94.016,17H91.75V5h2.266Zm6.438-2.336a.727.727,0,0,0-.41-.652,4.659,4.659,0,0,0-1.316-.426q-3.016-.633-3.016-2.562a2.323,2.323,0,0,1,.934-1.879,3.766,3.766,0,0,1,2.441-.754,4.053,4.053,0,0,1,2.574.758,2.388,2.388,0,0,1,.965,1.969h-2.258a1.092,1.092,0,0,0-.312-.8A1.322,1.322,0,0,0,99.078,10a1.351,1.351,0,0,0-.883.258.814.814,0,0,0-.312.656.7.7,0,0,0,.355.605,3.657,3.657,0,0,0,1.2.4,9.8,9.8,0,0,1,1.422.379,2.336,2.336,0,0,1,1.789,2.273,2.2,2.2,0,0,1-.992,1.871,4.28,4.28,0,0,1-2.562.715,4.47,4.47,0,0,1-1.887-.379,3.166,3.166,0,0,1-1.293-1.039,2.414,2.414,0,0,1-.469-1.426h2.141a1.179,1.179,0,0,0,.445.922,1.766,1.766,0,0,0,1.109.32,1.635,1.635,0,0,0,.98-.246A.766.766,0,0,0,100.453,14.664ZM109,17a2.507,2.507,0,0,1-.227-.758,2.732,2.732,0,0,1-2.133.914,3,3,0,0,1-2.059-.719,2.312,2.312,0,0,1-.816-1.812,2.389,2.389,0,0,1,1-2.062,4.915,4.915,0,0,1,2.879-.727h1.039v-.484a1.393,1.393,0,0,0-.3-.937,1.183,1.183,0,0,0-.949-.352,1.345,1.345,0,0,0-.895.273.929.929,0,0,0-.324.75h-2.258a2.268,2.268,0,0,1,.453-1.359,3,3,0,0,1,1.281-.98,4.669,4.669,0,0,1,1.859-.355,3.689,3.689,0,0,1,2.48.785,2.747,2.747,0,0,1,.918,2.207v3.664a4.041,4.041,0,0,0,.336,1.82V17Zm-1.867-1.57a1.945,1.945,0,0,0,.922-.223,1.462,1.462,0,0,0,.625-.6V13.156h-.844q-1.7,0-1.8,1.172l-.008.133a.9.9,0,0,0,.3.7A1.153,1.153,0,0,0,107.133,15.43Zm5.2-2.719a5.094,5.094,0,0,1,.887-3.148,2.877,2.877,0,0,1,2.426-1.172,2.589,2.589,0,0,1,2.039.922V5h2.266V17h-2.039l-.109-.9a2.657,2.657,0,0,1-2.172,1.055,2.869,2.869,0,0,1-2.395-1.176A5.258,5.258,0,0,1,112.328,12.711Zm2.258.168A3.337,3.337,0,0,0,115,14.7a1.349,1.349,0,0,0,1.2.634,1.511,1.511,0,0,0,1.477-.884V11.111a1.489,1.489,0,0,0-1.461-.884Q114.586,10.227,114.586,12.879Zm6.758-.184a5.013,5.013,0,0,1,.484-2.242,3.546,3.546,0,0,1,1.395-1.523,4.069,4.069,0,0,1,2.113-.539,3.849,3.849,0,0,1,2.793,1.047,4.2,4.2,0,0,1,1.207,2.844l.016.578a4.418,4.418,0,0,1-1.086,3.121,4.209,4.209,0,0,1-5.832,0,4.5,4.5,0,0,1-1.09-3.187Zm2.258.16a3.16,3.16,0,0,0,.453,1.843,1.628,1.628,0,0,0,2.578.008,3.457,3.457,0,0,0,.461-2.015,3.128,3.128,0,0,0-.461-1.831,1.5,1.5,0,0,0-1.3-.649,1.474,1.474,0,0,0-1.281.646A3.516,3.516,0,0,0,123.6,12.856Zm11.891-2.192a6.134,6.134,0,0,0-.812-.062,1.654,1.654,0,0,0-1.68.867V17h-2.258V8.547h2.133l.063,1.008a2.092,2.092,0,0,1,1.883-1.164,2.366,2.366,0,0,1,.7.1ZM60.738,29.711a5.094,5.094,0,0,1,.887-3.148,2.877,2.877,0,0,1,2.426-1.172,2.589,2.589,0,0,1,2.039.922V22h2.266V34H66.316l-.109-.9a2.657,2.657,0,0,1-2.172,1.055,2.869,2.869,0,0,1-2.395-1.176A5.258,5.258,0,0,1,60.738,29.711ZM63,29.879A3.337,3.337,0,0,0,63.41,31.7a1.349,1.349,0,0,0,1.2.634,1.511,1.511,0,0,0,1.477-.884V28.111a1.489,1.489,0,0,0-1.461-.884Q63,27.227,63,29.879Zm11,4.277a4.15,4.15,0,0,1-3.027-1.141A4.054,4.054,0,0,1,69.8,29.977v-.219a5.106,5.106,0,0,1,.492-2.277,3.612,3.612,0,0,1,1.395-1.547,3.914,3.914,0,0,1,2.059-.543,3.508,3.508,0,0,1,2.73,1.094,4.444,4.444,0,0,1,1,3.1v.922H72.09a2.1,2.1,0,0,0,.66,1.328,2,2,0,0,0,1.395.5,2.437,2.437,0,0,0,2.039-.945l1.109,1.242a3.389,3.389,0,0,1-1.375,1.121A4.511,4.511,0,0,1,74,34.156Zm-.258-6.945a1.411,1.411,0,0,0-1.09.455,2.357,2.357,0,0,0-.535,1.3h3.141v-.181a1.681,1.681,0,0,0-.406-1.165A1.456,1.456,0,0,0,73.738,27.211ZM85.9,31.242l1.57-5.7h2.359L86.98,34H84.824l-2.852-8.453h2.359Zm8.813,2.914a4.15,4.15,0,0,1-3.027-1.141,4.054,4.054,0,0,1-1.168-3.039v-.219a5.106,5.106,0,0,1,.492-2.277,3.612,3.612,0,0,1,1.395-1.547,3.914,3.914,0,0,1,2.059-.543,3.508,3.508,0,0,1,2.73,1.094,4.444,4.444,0,0,1,1,3.1v.922H92.809a2.1,2.1,0,0,0,.66,1.328,2,2,0,0,0,1.395.5,2.437,2.437,0,0,0,2.039-.945l1.109,1.242a3.389,3.389,0,0,1-1.375,1.121A4.511,4.511,0,0,1,94.715,34.156Zm-.258-6.945a1.411,1.411,0,0,0-1.09.455,2.357,2.357,0,0,0-.535,1.3h3.141v-.181a1.681,1.681,0,0,0-.406-1.165A1.456,1.456,0,0,0,94.457,27.211Zm7.094-1.664.07.977a2.951,2.951,0,0,1,2.43-1.133,2.453,2.453,0,0,1,2,.789,3.682,3.682,0,0,1,.672,2.359V34h-2.258V28.594a1.465,1.465,0,0,0-.312-1.043,1.4,1.4,0,0,0-1.039-.324,1.553,1.553,0,0,0-1.43.813V34H99.426V25.547Zm9.586-2.078v2.078h1.445V27.2h-1.445v4.219a1.007,1.007,0,0,0,.18.672.9.9,0,0,0,.688.2,3.6,3.6,0,0,0,.664-.055v1.711a4.648,4.648,0,0,1-1.367.2,2.156,2.156,0,0,1-2.422-2.4V27.2h-1.234V25.547h1.234V23.469ZM118.738,34a2.507,2.507,0,0,1-.227-.758,2.732,2.732,0,0,1-2.133.914,3,3,0,0,1-2.059-.719,2.312,2.312,0,0,1-.816-1.812,2.389,2.389,0,0,1,1-2.062,4.915,4.915,0,0,1,2.879-.727h1.039v-.484a1.393,1.393,0,0,0-.3-.937,1.183,1.183,0,0,0-.949-.352,1.345,1.345,0,0,0-.895.273.929.929,0,0,0-.324.75h-2.258a2.268,2.268,0,0,1,.453-1.359,3,3,0,0,1,1.281-.98,4.669,4.669,0,0,1,1.859-.355,3.689,3.689,0,0,1,2.48.785,2.747,2.747,0,0,1,.918,2.207v3.664a4.041,4.041,0,0,0,.336,1.82V34Zm-1.867-1.57a1.945,1.945,0,0,0,.922-.223,1.462,1.462,0,0,0,.625-.6V30.156h-.844q-1.7,0-1.8,1.172l-.008.133a.9.9,0,0,0,.3.7A1.153,1.153,0,0,0,116.871,32.43ZM127,31.664a.727.727,0,0,0-.41-.652,4.659,4.659,0,0,0-1.316-.426q-3.016-.633-3.016-2.562a2.323,2.323,0,0,1,.934-1.879,3.766,3.766,0,0,1,2.441-.754,4.053,4.053,0,0,1,2.574.758,2.388,2.388,0,0,1,.965,1.969H126.91a1.092,1.092,0,0,0-.312-.8,1.322,1.322,0,0,0-.977-.316,1.351,1.351,0,0,0-.883.258.814.814,0,0,0-.312.656.7.7,0,0,0,.355.605,3.657,3.657,0,0,0,1.2.4,9.8,9.8,0,0,1,1.422.379,2.336,2.336,0,0,1,1.789,2.273,2.205,2.205,0,0,1-.992,1.871,4.28,4.28,0,0,1-2.562.715,4.47,4.47,0,0,1-1.887-.379,3.166,3.166,0,0,1-1.293-1.039,2.414,2.414,0,0,1-.469-1.426h2.141a1.179,1.179,0,0,0,.445.922,1.766,1.766,0,0,0,1.109.32,1.635,1.635,0,0,0,.98-.246A.766.766,0,0,0,127,31.664Z" transform="translate(1125 4035)" fill="#12263f"/>
    <g transform="matrix(1, 0, 0, 1, 276, 3909)" filter="url(#Trazado_137108)">
      <g id="Trazado_137108-2" data-name="Trazado 137108" transform="translate(-7126 -11527)" fill="#b9e7ff">
        <path d="M 7193.23193359375 11752.9716796875 L 7162.568359375 11727.55078125 L 7193.23193359375 11702.1259765625 L 7193.23193359375 11712.69140625 L 7193.23193359375 11713.69140625 L 7194.23193359375 11713.69140625 L 8105.7685546875 11713.69140625 L 8106.7685546875 11713.69140625 L 8106.7685546875 11712.69140625 L 8106.7685546875 11702.1259765625 L 8137.43212890625 11727.55078125 L 8106.7685546875 11752.9716796875 L 8106.7685546875 11741.2421875 L 8106.7685546875 11740.2421875 L 8105.7685546875 11740.2421875 L 7194.23193359375 11740.2421875 L 7193.23193359375 11740.2421875 L 7193.23193359375 11741.2421875 L 7193.23193359375 11752.9716796875 Z" stroke="none"/>
        <path d="M 7192.23193359375 11750.84375 L 7192.23193359375 11739.2421875 L 8107.7685546875 11739.2421875 L 8107.7685546875 11750.84375 L 8135.865234375 11727.55078125 L 8107.7685546875 11704.25390625 L 8107.7685546875 11714.69140625 L 7192.23193359375 11714.69140625 L 7192.23193359375 11704.25390625 L 7164.13525390625 11727.55078125 L 7192.23193359375 11750.84375 M 8105.7685546875 11755.099609375 L 8105.7685546875 11741.2421875 L 7194.23193359375 11741.2421875 L 7194.23193359375 11755.099609375 L 7161.00146484375 11727.55078125 L 7194.23193359375 11699.998046875 L 7194.23193359375 11712.69140625 L 8105.7685546875 11712.69140625 L 8105.7685546875 11699.998046875 L 8138.9990234375 11727.55078125 L 8105.7685546875 11755.099609375 Z" stroke="none" fill="#fff"/>
      </g>
    </g>
    <path id="Trazado_137109" data-name="Trazado 137109" d="M102.762,14.656H98.652L97.871,17H95.379L99.613,5.625h2.172L106.043,17h-2.492Zm-3.477-1.9h2.844L100.7,8.5Zm15.281.094a5.07,5.07,0,0,1-.887,3.129,2.843,2.843,0,0,1-2.395,1.176,2.633,2.633,0,0,1-2.07-.891V20.25h-2.258V8.547h2.094l.078.828a2.654,2.654,0,0,1,2.141-.984,2.862,2.862,0,0,1,2.43,1.156,5.207,5.207,0,0,1,.867,3.188Zm-2.258-.164a3.327,3.327,0,0,0-.418-1.82,1.361,1.361,0,0,0-1.215-.641,1.478,1.478,0,0,0-1.461.813V14.5a1.5,1.5,0,0,0,1.477.836Q112.309,15.336,112.309,12.688Zm3.3.008a5.013,5.013,0,0,1,.484-2.242,3.546,3.546,0,0,1,1.395-1.523,4.069,4.069,0,0,1,2.113-.539A3.849,3.849,0,0,1,122.4,9.438a4.2,4.2,0,0,1,1.207,2.844l.016.578a4.418,4.418,0,0,1-1.086,3.121,4.209,4.209,0,0,1-5.832,0,4.5,4.5,0,0,1-1.09-3.187Zm2.258.16a3.16,3.16,0,0,0,.453,1.843,1.628,1.628,0,0,0,2.578.008,3.457,3.457,0,0,0,.461-2.015,3.128,3.128,0,0,0-.461-1.831,1.5,1.5,0,0,0-1.3-.649,1.474,1.474,0,0,0-1.281.646A3.516,3.516,0,0,0,117.871,12.856Zm10.3.949,1.563-5.258h2.422l-3.4,9.766-.187.445a2.577,2.577,0,0,1-2.5,1.656,3.552,3.552,0,0,1-1-.148V18.555l.344.008a1.857,1.857,0,0,0,.957-.2,1.283,1.283,0,0,0,.5-.648l.266-.7-2.961-8.477h2.43Zm4.523-1.109a5.013,5.013,0,0,1,.484-2.242A3.546,3.546,0,0,1,134.57,8.93a4.069,4.069,0,0,1,2.113-.539,3.849,3.849,0,0,1,2.793,1.047,4.2,4.2,0,0,1,1.207,2.844l.016.578a4.418,4.418,0,0,1-1.086,3.121,4.209,4.209,0,0,1-5.832,0,4.5,4.5,0,0,1-1.09-3.187Zm2.258.16A3.16,3.16,0,0,0,135.4,14.7a1.628,1.628,0,0,0,2.578.008,3.457,3.457,0,0,0,.461-2.015,3.128,3.128,0,0,0-.461-1.831,1.5,1.5,0,0,0-1.3-.649,1.474,1.474,0,0,0-1.281.646A3.516,3.516,0,0,0,134.949,12.856ZM150.973,17a2.507,2.507,0,0,1-.227-.758,2.732,2.732,0,0,1-2.133.914,3,3,0,0,1-2.059-.719,2.312,2.312,0,0,1-.816-1.812,2.389,2.389,0,0,1,1-2.062,4.915,4.915,0,0,1,2.879-.727h1.039v-.484a1.393,1.393,0,0,0-.3-.937,1.183,1.183,0,0,0-.949-.352,1.345,1.345,0,0,0-.895.273.929.929,0,0,0-.324.75h-2.258a2.268,2.268,0,0,1,.453-1.359,3,3,0,0,1,1.281-.98,4.669,4.669,0,0,1,1.859-.355,3.689,3.689,0,0,1,2.48.785,2.747,2.747,0,0,1,.918,2.207v3.664a4.041,4.041,0,0,0,.336,1.82V17Zm-1.867-1.57a1.945,1.945,0,0,0,.922-.223,1.462,1.462,0,0,0,.625-.6V13.156h-.844q-1.7,0-1.8,1.172l-.008.133a.9.9,0,0,0,.3.7A1.153,1.153,0,0,0,149.105,15.43Zm12.7-1.187,1.57-5.7h2.359L162.879,17h-2.156l-2.852-8.453h2.359Zm8.813,2.914a4.15,4.15,0,0,1-3.027-1.141,4.054,4.054,0,0,1-1.168-3.039v-.219a5.106,5.106,0,0,1,.492-2.277A3.612,3.612,0,0,1,168.3,8.934a3.914,3.914,0,0,1,2.059-.543,3.508,3.508,0,0,1,2.73,1.094,4.444,4.444,0,0,1,1,3.1v.922h-5.383a2.1,2.1,0,0,0,.66,1.328,2,2,0,0,0,1.395.5,2.437,2.437,0,0,0,2.039-.945l1.109,1.242a3.389,3.389,0,0,1-1.375,1.121A4.511,4.511,0,0,1,170.613,17.156Zm-.258-6.945a1.411,1.411,0,0,0-1.09.455,2.357,2.357,0,0,0-.535,1.3h3.141v-.181a1.681,1.681,0,0,0-.406-1.165A1.456,1.456,0,0,0,170.355,10.211Zm7.094-1.664.07.977a2.951,2.951,0,0,1,2.43-1.133,2.453,2.453,0,0,1,2,.789,3.682,3.682,0,0,1,.672,2.359V17h-2.258V11.594a1.465,1.465,0,0,0-.312-1.043,1.4,1.4,0,0,0-1.039-.324,1.553,1.553,0,0,0-1.43.813V17h-2.258V8.547Zm9.586-2.078V8.547h1.445V10.2h-1.445v4.219a1.007,1.007,0,0,0,.18.672.9.9,0,0,0,.688.2,3.6,3.6,0,0,0,.664-.055v1.711a4.648,4.648,0,0,1-1.367.2,2.156,2.156,0,0,1-2.422-2.4V10.2h-1.234V8.547h1.234V6.469ZM194.637,17a2.507,2.507,0,0,1-.227-.758,2.732,2.732,0,0,1-2.133.914,3,3,0,0,1-2.059-.719,2.312,2.312,0,0,1-.816-1.812,2.389,2.389,0,0,1,1-2.062,4.915,4.915,0,0,1,2.879-.727h1.039v-.484a1.393,1.393,0,0,0-.3-.937,1.183,1.183,0,0,0-.949-.352,1.345,1.345,0,0,0-.895.273.929.929,0,0,0-.324.75H189.59a2.268,2.268,0,0,1,.453-1.359,3,3,0,0,1,1.281-.98,4.669,4.669,0,0,1,1.859-.355,3.689,3.689,0,0,1,2.48.785,2.747,2.747,0,0,1,.918,2.207v3.664a4.041,4.041,0,0,0,.336,1.82V17Zm-1.867-1.57a1.945,1.945,0,0,0,.922-.223,1.462,1.462,0,0,0,.625-.6V13.156h-.844q-1.7,0-1.8,1.172l-.008.133a.9.9,0,0,0,.3.7A1.153,1.153,0,0,0,192.77,15.43Zm10.125-.766a.727.727,0,0,0-.41-.652,4.659,4.659,0,0,0-1.316-.426q-3.016-.633-3.016-2.562a2.323,2.323,0,0,1,.934-1.879,3.766,3.766,0,0,1,2.441-.754,4.053,4.053,0,0,1,2.574.758,2.388,2.388,0,0,1,.965,1.969h-2.258a1.092,1.092,0,0,0-.312-.8A1.322,1.322,0,0,0,201.52,10a1.351,1.351,0,0,0-.883.258.814.814,0,0,0-.312.656.7.7,0,0,0,.355.605,3.657,3.657,0,0,0,1.2.4,9.8,9.8,0,0,1,1.422.379,2.336,2.336,0,0,1,1.789,2.273,2.205,2.205,0,0,1-.992,1.871,4.28,4.28,0,0,1-2.562.715,4.47,4.47,0,0,1-1.887-.379,3.166,3.166,0,0,1-1.293-1.039,2.414,2.414,0,0,1-.469-1.426h2.141a1.179,1.179,0,0,0,.445.922,1.766,1.766,0,0,0,1.109.32,1.635,1.635,0,0,0,.98-.246A.766.766,0,0,0,202.895,14.664Z" transform="translate(650 4099)" fill="#12263f"/>
    <path id="Trazado_137110" data-name="Trazado 137110" d="M42.5,0A42.5,42.5,0,1,1,0,42.5,42.5,42.5,0,0,1,42.5,0Z" transform="translate(339 3937)" fill="#fff" opacity="0.25"/>
    <g id="Grupo_159409" data-name="Grupo 159409" transform="translate(354 3946)">
      <g id="Grupo_159404" data-name="Grupo 159404">
        <g id="Grupo_159403" data-name="Grupo 159403" clip-path="url(#clip-path)">
          <path id="Trazado_136557" data-name="Trazado 136557" d="M28.173,38.664,22.7,35.219a1.118,1.118,0,0,0-1.1,0L16.14,38.664c-.3.19-.548.055-.548-.3v2.061H16a.649.649,0,0,1,.647.649v1.055l5.51,7.17,6.565-8.541V38.363c0,.356-.247.491-.548.3" fill="#fff"/>
          <path id="Trazado_136558" data-name="Trazado 136558" d="M33.407,59.172V43.055h-.151a.648.648,0,0,1-.647-.647v-5.07a.649.649,0,0,1,.647-.648h1.6V35.371l0-.022H33.8a.646.646,0,0,1-.644-.614H28.721v6.023L22.156,49.3l-5.509-7.17V61.611a.65.65,0,0,1-.648.647H8.158v2.3a.761.761,0,0,0,.759.763H35.4a.761.761,0,0,0,.758-.763V62.142a2.98,2.98,0,0,1-2.747-2.97" fill="#009fe3"/>
          <path id="Trazado_136559" data-name="Trazado 136559" d="M11.169,37.9a.828.828,0,0,1,.826.829v1.692h3.6V34.734H11.2a3.048,3.048,0,0,0-3.039,3.051V37.9Z" fill="#009fe3"/>
          <path id="Trazado_136560" data-name="Trazado 136560" d="M25.527,37,22.7,35.218a1.125,1.125,0,0,0-1.1,0L18.785,37l2.235,2.244-1.044,7.221,2.18,2.835,2.183-2.839L23.3,39.235Z" fill="#e07c3e"/>
          <path id="Trazado_136561" data-name="Trazado 136561" d="M23.976,33.694H20.335a8.526,8.526,0,0,1-4.744-1.436v6.1c0,.356.246.492.548.3l5.469-3.446a1.123,1.123,0,0,1,1.095,0l5.469,3.446c.3.191.548.054.548-.3v-6.1a8.526,8.526,0,0,1-4.744,1.436" fill="#bae2f5"/>
          <path id="Trazado_136562" data-name="Trazado 136562" d="M10.181,17.582H11.73v-5.67a.648.648,0,0,1,.648-.647H31.934a.648.648,0,0,1,.648.647v5.67h1.549a2.436,2.436,0,0,1,.781.129V8.327A4.545,4.545,0,0,0,30.381,3.8H26.95A3.9,3.9,0,0,0,23.215.971H13.283A3.9,3.9,0,0,0,9.4,4.856V17.711a2.442,2.442,0,0,1,.782-.129" fill="#fec700"/>
          <path id="Trazado_136563" data-name="Trazado 136563" d="M34.131,17.582H32.582v-5.67a.647.647,0,0,0-.647-.647H12.378a.647.647,0,0,0-.647.647v5.67h-1.55A2.494,2.494,0,0,0,7.7,20.074v2.99a2.5,2.5,0,0,0,2.482,2.492h1.565a8.629,8.629,0,0,0,8.59,8.138h3.641a8.63,8.63,0,0,0,8.59-8.138h1.564a2.5,2.5,0,0,0,2.482-2.492v-2.99a2.494,2.494,0,0,0-2.482-2.492" fill="#ffef9b"/>
          <path id="Trazado_136564" data-name="Trazado 136564" d="M22.156,30.289A4.166,4.166,0,0,1,18,26.12a.729.729,0,0,1,.728-.731h6.85a.729.729,0,0,1,.728.731,4.166,4.166,0,0,1-4.153,4.169" fill="#e07c3e"/>
          <path id="Trazado_136565" data-name="Trazado 136565" d="M16,40.425h-4v1.27a.828.828,0,0,1-.826.83H6.449a.828.828,0,0,1-.826-.83v-1.27h-4a.65.65,0,0,0-.648.647V61.611a.65.65,0,0,0,.648.647H16a.649.649,0,0,0,.647-.647V41.072A.649.649,0,0,0,16,40.425" fill="#c9dc92"/>
          <path id="Trazado_136566" data-name="Trazado 136566" d="M11.995,41.695a.828.828,0,0,1-.826.83H6.448a.828.828,0,0,1-.826-.83V38.733a.828.828,0,0,1,.826-.829h4.721a.828.828,0,0,1,.826.829Z" fill="#ffef9b"/>
          <path id="Trazado_136567" data-name="Trazado 136567" d="M7.545,48.412A1.411,1.411,0,1,1,6.134,47a1.411,1.411,0,0,1,1.411,1.411" fill="#fff"/>
          <path id="Trazado_136568" data-name="Trazado 136568" d="M12.894,54.783a1.411,1.411,0,1,1-1.411-1.411,1.411,1.411,0,0,1,1.411,1.411" fill="#fff"/>
          <path id="Trazado_136569" data-name="Trazado 136569" d="M38.482,44.007h-.194a1.289,1.289,0,0,1-.234-.023v.391a.65.65,0,0,1-.648.647h-1.9a.649.649,0,0,1-.647-.647V43.056H33.407V59.172a2.982,2.982,0,0,0,5.964,0V43.649a1.288,1.288,0,0,1-.889.358" fill="#009fe3"/>
          <path id="Trazado_136570" data-name="Trazado 136570" d="M34.862,36.69H33.256a.649.649,0,0,0-.647.647v5.071a.649.649,0,0,0,.647.647h1.606Z" fill="#ffef9b"/>
          <path id="Trazado_136571" data-name="Trazado 136571" d="M36.993,42.712V42.52a1.3,1.3,0,0,1,1.06-1.272V41.2a1.3,1.3,0,0,1-1.06-1.273v-.191a1.3,1.3,0,0,1,1.06-1.272v-.046a1.3,1.3,0,0,1-1.06-1.272v-.192a1.3,1.3,0,0,1,1.06-1.272v-.314l0-.022H34.863l0,.022v9a.649.649,0,0,0,.647.647h1.9a.649.649,0,0,0,.647-.647v-.39a1.3,1.3,0,0,1-1.06-1.272" fill="#a58abf"/>
          <path id="Trazado_136572" data-name="Trazado 136572" d="M55.823,27.724H52.832V35.35h2.991a.65.65,0,0,0,.647-.648V28.371a.649.649,0,0,0-.647-.647" fill="#a58abf"/>
          <path id="Trazado_136573" data-name="Trazado 136573" d="M52.294,20.923,40.1,29.032v5.01l12.194,8.109c.3.2.539.067.539-.289V21.212c0-.356-.243-.486-.539-.289" fill="#e07c3e"/>
          <path id="Trazado_136574" data-name="Trazado 136574" d="M40.1,34.7a.649.649,0,0,1-.647.647H33.8a.649.649,0,0,1-.647-.647V28.371a.649.649,0,0,1,.647-.647h5.656a.65.65,0,0,1,.648.647V34.7Z" fill="#e30613"/>
          <path id="Trazado_136575" data-name="Trazado 136575" d="M39.777,37.15v-.192a1.3,1.3,0,0,0-1.3-1.294h-.193a1.3,1.3,0,0,0-1.3,1.294v.192a1.3,1.3,0,0,0,1.3,1.295,1.3,1.3,0,0,0-1.3,1.3v.191a1.3,1.3,0,0,0,1.3,1.3,1.3,1.3,0,0,0-1.3,1.295v.192a1.3,1.3,0,0,0,1.3,1.294h.193a1.3,1.3,0,0,0,1.3-1.294v-.192a1.3,1.3,0,0,0-1.3-1.295,1.3,1.3,0,0,0,1.3-1.3V39.74a1.3,1.3,0,0,0-1.3-1.3,1.3,1.3,0,0,0,1.3-1.295" fill="#ffef9b"/>
          <path id="Trazado_136576" data-name="Trazado 136576" d="M18,19.81V17.817a.971.971,0,0,0-1.942,0V19.81a.971.971,0,1,0,1.942,0"/>
          <path id="Trazado_136577" data-name="Trazado 136577" d="M27.286,16.846a.971.971,0,0,0-.971.971V19.81a.971.971,0,1,0,1.942,0V17.817a.971.971,0,0,0-.971-.971"/>
          <path id="Trazado_136578" data-name="Trazado 136578" d="M22.307,23.2h1.339a.971.971,0,0,0,0-1.942H22.631V18.579a.971.971,0,0,0-1.942,0v3.007A1.62,1.62,0,0,0,22.307,23.2"/>
          <path id="Trazado_136579" data-name="Trazado 136579" d="M25.581,24.418h-6.85a1.7,1.7,0,0,0-1.7,1.7,5.125,5.125,0,1,0,10.249,0,1.7,1.7,0,0,0-1.7-1.7m-3.425,4.9a3.192,3.192,0,0,1-3.173-2.958h6.346a3.192,3.192,0,0,1-3.173,2.958"/>
          <path id="Trazado_136580" data-name="Trazado 136580" d="M16.957,15.473a2.073,2.073,0,0,1,1.475.611.971.971,0,1,0,1.373-1.373,4.032,4.032,0,0,0-5.7,0,.971.971,0,0,0,1.374,1.373,2.073,2.073,0,0,1,1.475-.611"/>
          <path id="Trazado_136581" data-name="Trazado 136581" d="M25.879,16.084a2.086,2.086,0,0,1,2.95,0A.971.971,0,1,0,30.2,14.711a4.032,4.032,0,0,0-5.7,0,.971.971,0,0,0,1.373,1.373"/>
          <path id="Trazado_136582" data-name="Trazado 136582" d="M8.516,48.412a2.382,2.382,0,1,0-2.382,2.382,2.385,2.385,0,0,0,2.382-2.382m-2.822,0a.44.44,0,1,1,.44.44.441.441,0,0,1-.44-.44"/>
          <path id="Trazado_136583" data-name="Trazado 136583" d="M11.483,52.4a2.382,2.382,0,1,0,2.382,2.382A2.385,2.385,0,0,0,11.483,52.4m0,2.822a.44.44,0,1,1,.44-.44.44.44,0,0,1-.44.44"/>
          <path id="Trazado_136584" data-name="Trazado 136584" d="M11.992,46.16a.972.972,0,0,0-1.327.356L5.358,55.709a.971.971,0,0,0,1.682.971l5.308-9.193a.971.971,0,0,0-.356-1.327"/>
        </g>
      </g>
      <g id="Grupo_159406" data-name="Grupo 159406">
        <g id="Grupo_159405" data-name="Grupo 159405" clip-path="url(#clip-path)">
          <path id="Trazado_136585" data-name="Trazado 136585" d="M55.823,26.753H53.8V21.212a1.276,1.276,0,0,0-2.048-1.1l-10.992,7.31a1.619,1.619,0,0,0-1.311-.672H33.8a1.6,1.6,0,0,0-.406.054c.017-.094.035-.186.05-.28h.69a3.462,3.462,0,0,0,3.453-3.463v-2.99a3.464,3.464,0,0,0-1.7-2.981V8.327a5.51,5.51,0,0,0-5.5-5.5H27.623A4.862,4.862,0,0,0,23.215,0H13.283A4.861,4.861,0,0,0,8.428,4.856V17.092a3.465,3.465,0,0,0-1.7,2.982v2.99a3.461,3.461,0,0,0,3.453,3.462h.69A9.618,9.618,0,0,0,14.62,32.76v1H11.2a4.02,4.02,0,0,0-3.919,3.171H6.448a1.8,1.8,0,0,0-1.8,1.8v.72H1.618A1.619,1.619,0,0,0,0,41.072V61.611A1.62,1.62,0,0,0,1.618,63.23H7.186v1.33a1.733,1.733,0,0,0,1.73,1.733H35.4a1.734,1.734,0,0,0,1.731-1.733V63.053a3.958,3.958,0,0,0,3.216-3.881v-7.51a.971.971,0,0,0-1.942,0v7.511a2.012,2.012,0,0,1-4.023,0V45.53a1.611,1.611,0,0,0,1.132.464h1.9a1.606,1.606,0,0,0,.994-.345V47a.971.971,0,1,0,1.942,0V44a2.244,2.244,0,0,0,.406-1.291v-.192a2.249,2.249,0,0,0-.406-1.29v-.01a2.253,2.253,0,0,0,.406-1.29v-.192a2.254,2.254,0,0,0-.409-1.295,2.249,2.249,0,0,0,.409-1.294v-.192a2.247,2.247,0,0,0-.248-1.024,1.616,1.616,0,0,0,.262-.286l10.994,7.311a1.443,1.443,0,0,0,.8.254,1.211,1.211,0,0,0,.576-.143,1.328,1.328,0,0,0,.672-1.208V36.321h2.019A1.621,1.621,0,0,0,57.441,34.7V28.371a1.62,1.62,0,0,0-1.618-1.618M33.579,37.662h.311v4.423h-.311Zm2.063-17.588v2.99a1.518,1.518,0,0,1-1.511,1.52h-.579V18.553h.579a1.518,1.518,0,0,1,1.511,1.521M30.381,4.766a3.565,3.565,0,0,1,3.56,3.561v8.284h-.388v-4.7a1.62,1.62,0,0,0-1.619-1.618H28.07V4.856c0-.03,0-.06,0-.09Zm1.8,25.244v3.753H29.691v-1a9.683,9.683,0,0,0,2.487-2.75M10.759,24.584h-.578a1.517,1.517,0,0,1-1.511-1.52v-2.99a1.518,1.518,0,0,1,1.511-1.521h.578Zm0-12.672v4.7H10.37V4.856a2.917,2.917,0,0,1,2.913-2.913h9.932a2.917,2.917,0,0,1,2.913,2.913v5.438H12.378a1.62,1.62,0,0,0-1.619,1.618M12.7,25.057V12.236h18.91V25.057a7.659,7.659,0,0,1-7.635,7.666H20.335A7.659,7.659,0,0,1,12.7,25.057m10.946,9.609h.329a9.5,9.5,0,0,0,3.773-.778V37.25Zm4.1,4.876v.885l-2.778,3.615-.643-4.465,1.338-1.344,1.989,1.254c.031.019.062.038.094.055m-5.593-.537-1.827-1.833,1.778-1.119a.315.315,0,0,1,.1,0l1.778,1.119Zm1.163,7.186-1.163,1.514L21,46.195l.717-4.951a.961.961,0,0,0,.893,0Zm-6.757-6.633v-.016c.032-.017.064-.036.094-.055l1.989-1.254,1.345,1.35-.646,4.464L17.617,41.8v-.726a1.619,1.619,0,0,0-1.055-1.515m0-2.308V33.888a9.5,9.5,0,0,0,3.773.778h.329ZM11.2,35.706H14.62v3.748H12.966v-.72a1.8,1.8,0,0,0-1.8-1.8H9.311A2.069,2.069,0,0,1,11.2,35.706m-4.6,3.17h4.431v2.678H6.593Zm28.59,24.059v1.416H9.128V63.23H16a1.62,1.62,0,0,0,1.618-1.619v-4.9a.971.971,0,1,0-1.942,0v4.576H1.942V41.4H4.651v.3a1.8,1.8,0,0,0,1.8,1.8h4.721a1.8,1.8,0,0,0,1.8-1.8v-.3h2.709V52.051a.971.971,0,1,0,1.942,0V44.986l3.769,4.9a.972.972,0,0,0,1.54,0l6.565-8.541a.974.974,0,0,0,.2-.592V35.706h2.838a1.641,1.641,0,0,0,.118.134,1.619,1.619,0,0,0-1.01,1.5v5.071a1.62,1.62,0,0,0,.8,1.393V59.173a3.957,3.957,0,0,0,2.748,3.762m.649-18.884v-7.73h.282a2.271,2.271,0,0,0-.092.637v.192a2.249,2.249,0,0,0,.409,1.294,2.254,2.254,0,0,0-.409,1.295v.192a2.252,2.252,0,0,0,.409,1.3,2.25,2.25,0,0,0-.409,1.295v.192a2.246,2.246,0,0,0,.442,1.338Zm2.973-1.338a.327.327,0,0,1-.323.323h-.194a.328.328,0,0,1-.324-.323v-.192a.328.328,0,0,1,.324-.324h.194a.328.328,0,0,1,.323.324Zm0-2.782a.328.328,0,0,1-.323.324h-.194a.328.328,0,0,1-.324-.324v-.192a.329.329,0,0,1,.324-.324h.194a.328.328,0,0,1,.323.324Zm0-2.781a.328.328,0,0,1-.323.324h-.194a.328.328,0,0,1-.324-.324v-.192a.328.328,0,0,1,.324-.323h.194a.327.327,0,0,1,.323.323Zm.324-2.771H34.12V28.7h5.009Zm16.37,0H53.8v-.714a.971.971,0,1,0-1.942,0V40.7l-10.79-7.176V29.553l10.79-7.176v6.756a.971.971,0,0,0,1.942,0V28.7h1.7Z"/>
          <path id="Trazado_136586" data-name="Trazado 136586" d="M62.081,26.74a.971.971,0,0,0-1.373,1.374,4.463,4.463,0,0,1,0,6.3.971.971,0,1,0,1.373,1.373,6.408,6.408,0,0,0,0-9.051"/>
        </g>
      </g>
      <g id="Grupo_159408" data-name="Grupo 159408">
        <g id="Grupo_159407" data-name="Grupo 159407" clip-path="url(#clip-path)">
          <path id="Trazado_136587" data-name="Trazado 136587" d="M59.811,28.613a.971.971,0,0,0-1.373,1.373,1.809,1.809,0,0,1,0,2.559.971.971,0,0,0,1.373,1.374,3.752,3.752,0,0,0,0-5.306"/>
        </g>
      </g>
    </g>
    <path id="Trazado_137111" data-name="Trazado 137111" d="M42.5,0A42.5,42.5,0,1,1,0,42.5,42.5,42.5,0,0,1,42.5,0Z" transform="translate(549 3937)" fill="#fff" opacity="0.25"/>
    <g id="Grupo_159416" data-name="Grupo 159416" transform="translate(558 3947)">
      <g id="Grupo_159411" data-name="Grupo 159411">
        <g id="Grupo_159410" data-name="Grupo 159410" clip-path="url(#clip-path-4)">
          <path id="Trazado_136588" data-name="Trazado 136588" d="M53.843,32.635H37.652a2.173,2.173,0,0,0-1.539.639l-8.671,8.7a2.951,2.951,0,0,0-.868,2.036,2.713,2.713,0,0,0,2.735,2.8,2.929,2.929,0,0,0,2.084-.872L34.315,43a4.992,4.992,0,0,0,6.641-.388l1.135-1.139,8.275,8.3,3.477-1.961Z" fill="#ffef9b"/>
          <path id="Trazado_136589" data-name="Trazado 136589" d="M50.762,50.174l-8.406-8.433-.265-.265-1.135,1.139A4.993,4.993,0,0,1,34.315,43l-2.922,2.931a2.929,2.929,0,0,1-2.084.872,2.713,2.713,0,0,1-2.735-2.8,2.953,2.953,0,0,1,.868-2.036l7.572-7.6-.79-.794a3.642,3.642,0,0,0-2.209-.951H12.45V47.766l3.2,2.292a2.538,2.538,0,0,1,.64-1.082l.43-.431a2.4,2.4,0,1,1,3.386,3.4,2.4,2.4,0,1,1,3.386,3.4,2.388,2.388,0,0,1,3.743,2.943l.095.1a2.375,2.375,0,0,1,3.291,3.3l.1.1a2.586,2.586,0,0,0,3.656,0l.295-.294a2.609,2.609,0,0,0,0-3.669l1.451,1.456a2.586,2.586,0,0,0,3.656,0l.295-.3a2.609,2.609,0,0,0,0-3.668l1.655,1.661a2.588,2.588,0,0,0,3.656,0l.294-.295a2.608,2.608,0,0,0,0-3.668l1.129,1.133a2.589,2.589,0,0,0,3.657,0l.294-.3a2.607,2.607,0,0,0,0-3.667" fill="#e3b075"/>
          <path id="Trazado_136590" data-name="Trazado 136590" d="M26.385,62.629a2.462,2.462,0,0,1,.065-3.462l.431-.431a2.4,2.4,0,1,1,3.385,3.4l-.43.431a2.443,2.443,0,0,1-3.451.066" fill="#ffef9b"/>
          <path id="Trazado_136591" data-name="Trazado 136591" d="M23,59.232a2.462,2.462,0,0,1,.065-3.462l.431-.432a2.4,2.4,0,1,1,3.385,3.4l-.43.431A2.443,2.443,0,0,1,23,59.232" fill="#ffef9b"/>
          <path id="Trazado_136592" data-name="Trazado 136592" d="M19.614,55.835a2.462,2.462,0,0,1,.065-3.462l.431-.43a2.4,2.4,0,1,1,3.385,3.4l-.43.432a2.444,2.444,0,0,1-3.451.064" fill="#ffef9b"/>
          <path id="Trazado_136593" data-name="Trazado 136593" d="M16.228,52.439a2.462,2.462,0,0,1,.065-3.462l.431-.431a2.4,2.4,0,1,1,3.385,3.4l-.43.431a2.443,2.443,0,0,1-3.451.066" fill="#ffef9b"/>
          <path id="Trazado_136594" data-name="Trazado 136594" d="M11.8,29.012H8.035V51.088H11.8a.65.65,0,0,0,.647-.648V29.659a.649.649,0,0,0-.647-.647" fill="#bae2f5"/>
          <path id="Rectángulo_38793" data-name="Rectángulo 38793" d="M.647,0H6.416a.647.647,0,0,1,.647.647v24.94a.648.648,0,0,1-.648.648H.648A.648.648,0,0,1,0,25.587V.647A.647.647,0,0,1,.647,0Z" transform="translate(0.971 26.932)" fill="#584998"/>
          <path id="Trazado_136595" data-name="Trazado 136595" d="M58.259,29.012H54.491a.649.649,0,0,0-.648.647V50.44a.65.65,0,0,0,.648.648h3.768Z" fill="#bae2f5"/>
          <path id="Rectángulo_38794" data-name="Rectángulo 38794" d="M.647,0H6.416a.647.647,0,0,1,.647.647v24.94a.648.648,0,0,1-.648.648H.647A.647.647,0,0,1,0,25.588V.647A.647.647,0,0,1,.647,0Z" transform="translate(58.259 26.932)" fill="#892a81"/>
          <path id="Trazado_136596" data-name="Trazado 136596" d="M43.291,19.024A10.145,10.145,0,1,0,33.146,29.2,10.161,10.161,0,0,0,43.291,19.024" fill="#fec700"/>
          <path id="Trazado_136597" data-name="Trazado 136597" d="M54.977,6.646a5.657,5.657,0,1,0-5.657,5.675,5.666,5.666,0,0,0,5.657-5.675" fill="#8cc9a4"/>
          <path id="Trazado_136598" data-name="Trazado 136598" d="M17.134,16.215a.747.747,0,0,1-.349-.086l-2.249-1.182-2.248,1.182a.753.753,0,0,1-.791-.057.754.754,0,0,1-.3-.735l.43-2.5L9.809,11.061a.752.752,0,0,1,.416-1.282l2.514-.365,1.124-2.278a.751.751,0,0,1,1.347,0l1.124,2.278,2.514.365a.751.751,0,0,1,.416,1.282l-1.818,1.772.429,2.5a.751.751,0,0,1-.741.878" fill="#f39200"/>
          <path id="Trazado_136599" data-name="Trazado 136599" d="M4.5,50.458a.971.971,0,1,0,0-1.942.971.971,0,1,0,0,1.942"/>
          <path id="Trazado_136600" data-name="Trazado 136600" d="M64.675,25.961H58.906a1.62,1.62,0,0,0-1.618,1.619v.461h-2.8a1.62,1.62,0,0,0-1.618,1.618v2H37.651a3.121,3.121,0,0,0-2.226.925L35.014,33l-.1-.1a4.592,4.592,0,0,0-2.9-1.238H13.421v-2A1.621,1.621,0,0,0,11.8,28.04h-2.8v-.461a1.62,1.62,0,0,0-1.618-1.618H1.618A1.62,1.62,0,0,0,0,27.579V52.52a1.62,1.62,0,0,0,1.618,1.618H7.387A1.619,1.619,0,0,0,9.005,52.52v-.461h2.8a1.621,1.621,0,0,0,1.618-1.619v-.784l1.168.835a3.3,3.3,0,0,0,3.3,3.6l.07,0a3.3,3.3,0,0,0,3.316,3.4l.07,0a3.3,3.3,0,0,0,3.315,3.4l.07,0a3.3,3.3,0,0,0,3.316,3.4,3.472,3.472,0,0,0,2.473-1.033l.229-.23a3.563,3.563,0,0,0,4.314-.556l.295-.3a3.546,3.546,0,0,0,.915-1.588,3.562,3.562,0,0,0,4.192-.624l.294-.3a3.535,3.535,0,0,0,.9-1.514,3.56,3.56,0,0,0,4.416-.493l.294-.295a3.542,3.542,0,0,0,.953-1.744,3.566,3.566,0,0,0,3.833-.791l.294-.3a3.575,3.575,0,0,0,.443-4.5l.98-.553v.962a1.62,1.62,0,0,0,1.618,1.619h2.8v.461a1.62,1.62,0,0,0,1.618,1.619h5.769a1.62,1.62,0,0,0,1.618-1.619V27.58a1.62,1.62,0,0,0-1.618-1.619M7.063,52.2H1.942V27.9H7.063Zm10.831-.046a1.37,1.37,0,0,1-.978-.4,1.486,1.486,0,0,1,.065-2.091l.43-.432a1.546,1.546,0,0,1,1.1-.461,1.37,1.37,0,0,1,.978.4,1.484,1.484,0,0,1-.065,2.09l-.431.432a1.539,1.539,0,0,1-1.1.462m3.386,3.4a1.366,1.366,0,0,1-.978-.4,1.484,1.484,0,0,1,.065-2.09l.431-.432a1.539,1.539,0,0,1,1.1-.462,1.37,1.37,0,0,1,.978.4,1.486,1.486,0,0,1-.066,2.091l-.43.432a1.538,1.538,0,0,1-1.1.461m3.385,3.4a1.37,1.37,0,0,1-.978-.4,1.487,1.487,0,0,1,.065-2.091h0l.43-.432h0a1.542,1.542,0,0,1,1.1-.461,1.364,1.364,0,0,1,.977.4,1.485,1.485,0,0,1-.065,2.091l-.43.431a1.543,1.543,0,0,1-1.1.462m4.483,2.935a1.543,1.543,0,0,1-1.1.462,1.366,1.366,0,0,1-.978-.4,1.486,1.486,0,0,1,.065-2.09l.431-.432a1.543,1.543,0,0,1,1.1-.462,1.366,1.366,0,0,1,.978.4,1.487,1.487,0,0,1-.066,2.091Zm20.926-8.721-.3.295a1.615,1.615,0,0,1-2.28,0L39.91,45.837a.971.971,0,1,0-1.375,1.371l6.459,6.482a1.63,1.63,0,0,1,0,2.3l-.294.3a1.616,1.616,0,0,1-2.281,0l-7.464-7.488a.971.971,0,0,0-1.376,1.371l5.776,5.795.033.033a1.629,1.629,0,0,1,0,2.3l-.294.295a1.616,1.616,0,0,1-2.281,0l-8.136-8.162A.971.971,0,1,0,27.3,51.793L33.986,58.5a1.629,1.629,0,0,1,0,2.3l-.294.295a1.618,1.618,0,0,1-1.871.3,3.369,3.369,0,0,0-.8-3.4,3.3,3.3,0,0,0-2.353-.967H28.6a3.3,3.3,0,0,0-3.316-3.4h-.07a3.3,3.3,0,0,0-3.316-3.4h-.07a3.3,3.3,0,0,0-3.316-3.4,3.472,3.472,0,0,0-2.473,1.033l-.43.432a3.481,3.481,0,0,0-.291.331l-1.894-1.355V44.959a.971.971,0,1,0-1.942,0v5.157H9.005V29.983h2.474V40.3a.971.971,0,1,0,1.942,0V33.6H32.013a2.709,2.709,0,0,1,1.522.666l.108.108-6.889,6.911a3.921,3.921,0,0,0-1.152,2.7,3.686,3.686,0,0,0,3.707,3.788,3.888,3.888,0,0,0,2.771-1.158l2.356-2.364a5.994,5.994,0,0,0,2.982.8A5.925,5.925,0,0,0,41.643,43.3l.448-.45,7.983,8.009a1.63,1.63,0,0,1,0,2.3m4.74-3.041V41.2a.971.971,0,0,0-1.942,0v6.044l-2.34,1.32-7.07-7.092,1.053-1.056a.971.971,0,0,0-1.375-1.371L40.267,41.93a3.991,3.991,0,0,1-2.849,1.184,4.033,4.033,0,0,1-2.5-.87.973.973,0,0,0-1.292.074L30.7,45.25a1.963,1.963,0,0,1-1.4.587,1.744,1.744,0,0,1-1.765-1.81,1.99,1.99,0,0,1,.585-1.369l8.672-8.7a1.192,1.192,0,0,1,.85-.354H52.872v2.937a.971.971,0,1,0,1.942,0v-6.56h2.474V50.116Zm9.537,2.08H59.23V27.9h5.121Z"/>
          <path id="Trazado_136601" data-name="Trazado 136601" d="M61.791,50.458a.975.975,0,1,0-.687-.285.977.977,0,0,0,.687.285"/>
          <path id="Trazado_136602" data-name="Trazado 136602" d="M33.146,30.172a11.086,11.086,0,0,0,5.677-1.561.971.971,0,1,0-1-1.668,9.211,9.211,0,1,1,3.2-3.2.971.971,0,0,0,1.668.995,11.111,11.111,0,1,0-9.545,5.432"/>
          <path id="Trazado_136603" data-name="Trazado 136603" d="M29.8,17.555V16.508a.971.971,0,1,0-1.942,0v1.047a.971.971,0,0,0,1.942,0"/>
          <path id="Trazado_136604" data-name="Trazado 136604" d="M38.437,17.555V16.508a.971.971,0,1,0-1.942,0v1.047a.971.971,0,0,0,1.942,0"/>
        </g>
      </g>
      <g id="Grupo_159413" data-name="Grupo 159413">
        <g id="Grupo_159412" data-name="Grupo 159412" clip-path="url(#clip-path-4)">
          <path id="Trazado_136605" data-name="Trazado 136605" d="M33.146,24.817a4.044,4.044,0,0,0,4.2-3.857.971.971,0,0,0-1.942,0,2.29,2.29,0,0,1-4.518,0,.971.971,0,0,0-1.942,0,4.044,4.044,0,0,0,4.2,3.857"/>
          <path id="Trazado_136606" data-name="Trazado 136606" d="M49.32,13.292a6.644,6.644,0,0,0,6.021-9.419l.832-.834A.971.971,0,1,0,54.8,1.668l-.544.545A6.635,6.635,0,1,0,49.32,13.292m0-11.35a4.671,4.671,0,0,1,3.56,1.65L49.32,7.163,47.252,5.087a.972.972,0,0,0-1.376,1.372l2.482,2.489a1.357,1.357,0,0,0,1.924,0l3.552-3.563A4.684,4.684,0,1,1,49.32,1.942"/>
        </g>
      </g>
      <g id="Grupo_159415" data-name="Grupo 159415">
        <g id="Grupo_159414" data-name="Grupo 159414" clip-path="url(#clip-path-4)">
          <path id="Trazado_136607" data-name="Trazado 136607" d="M10.584,13.171l-.343,2a1.722,1.722,0,0,0,1.7,2.013,1.732,1.732,0,0,0,.8-.2l1.8-.945,1.8.945a1.738,1.738,0,0,0,.8.2,1.722,1.722,0,0,0,1.7-2.013l-.343-2,1.453-1.417a1.722,1.722,0,0,0-.955-2.938l-2.008-.292-.9-1.82a1.722,1.722,0,0,0-3.089,0l-.9,1.819-2.008.292a1.723,1.723,0,0,0-.954,2.938Zm2.294-2.8a.971.971,0,0,0,.731-.532l.927-1.878.927,1.878a.972.972,0,0,0,.731.532l2.074.3-1.5,1.462a.971.971,0,0,0-.279.86l.354,2.065-1.854-.976a.976.976,0,0,0-.9,0l-1.854.976L12.584,13a.971.971,0,0,0-.279-.86l-1.5-1.462Z"/>
        </g>
      </g>
    </g>
    <path id="Trazado_137112" data-name="Trazado 137112" d="M42.5,0A42.5,42.5,0,1,1,0,42.5,42.5,42.5,0,0,1,42.5,0Z" transform="translate(759 3937)" fill="#fff" opacity="0.25"/>
    <g id="Grupo_159423" data-name="Grupo 159423" transform="translate(769 3951)">
      <g id="Grupo_159418" data-name="Grupo 159418">
        <g id="Grupo_159417" data-name="Grupo 159417" clip-path="url(#clip-path-7)">
          <path id="Trazado_136608" data-name="Trazado 136608" d="M3.9,8.242v9.674a8.639,8.639,0,0,1,5.747-2.184h2.331a8.685,8.685,0,0,1,8.675,8.675V36.189a.648.648,0,0,1-.648.648H15.227a5.564,5.564,0,0,1-1.769.838h0v1.461h15.8v-.22a.557.557,0,0,1,.556-.556h1.26a1.042,1.042,0,0,1,.826.486l.449.807a1.044,1.044,0,0,0,.826.486h1.657a.559.559,0,0,1,.556.557v.964a.558.558,0,0,1-.556.556H19.886v5.461H61.747a.649.649,0,0,0,.647-.647V8.242Z" fill="#bae2f5"/>
          <path id="Trazado_136609" data-name="Trazado 136609" d="M6.747,8.242v7.989a8.646,8.646,0,0,1,2.9-.5h2.33a8.685,8.685,0,0,1,8.675,8.675V36.189a.647.647,0,0,1-.647.648H15.226a5.548,5.548,0,0,1-1.768.838v1.461h15.8v-.22a.558.558,0,0,1,.556-.556h1.261a1.042,1.042,0,0,1,.826.486l.448.807a1.046,1.046,0,0,0,.827.486h1.656a.558.558,0,0,1,.556.557v.964a.557.557,0,0,1-.556.556H19.885v2.612H58.9a.649.649,0,0,0,.647-.647V8.242Z" fill="#fff"/>
          <path id="Trazado_136610" data-name="Trazado 136610" d="M35,54.435a1.853,1.853,0,1,1-1.853-1.853A1.853,1.853,0,0,1,35,54.435" fill="#a58abf"/>
          <path id="Trazado_136611" data-name="Trazado 136611" d="M8.165,37.675A5.545,5.545,0,0,1,6.4,36.836H3.9v2.3H8.164Z" fill="#bae2f5"/>
          <path id="Trazado_136612" data-name="Trazado 136612" d="M64.675,3.122H44.328V4.25a.65.65,0,0,1-.648.647H22.614a.65.65,0,0,1-.648-.647V3.122H1.619a.649.649,0,0,0-.647.647V7.595a.649.649,0,0,0,.647.647H64.675a.649.649,0,0,0,.647-.647V3.769a.649.649,0,0,0-.647-.647" fill="#a58abf"/>
          <rect id="Rectángulo_38798" data-name="Rectángulo 38798" width="22.361" height="3.926" rx="0.647" transform="translate(21.966 0.971)" fill="#bae2f5"/>
          <path id="Trazado_136613" data-name="Trazado 136613" d="M31.69,24V16.41A7.588,7.588,0,1,0,39.211,24Z" fill="#009fe3"/>
          <path id="Trazado_136614" data-name="Trazado 136614" d="M31.69,24v7.587A7.554,7.554,0,0,0,39.211,24Z" fill="#f39200"/>
          <path id="Trazado_136615" data-name="Trazado 136615" d="M41.3,21.285a6.921,6.921,0,0,0-6.891-6.951v6.951Z" fill="#8cc9a4"/>
          <path id="Trazado_136616" data-name="Trazado 136616" d="M11.977,15.732H9.646A8.685,8.685,0,0,0,.971,24.407V36.19a.648.648,0,0,0,.648.647H6.4a5.572,5.572,0,0,1-2.332-4.216H3.05a1.613,1.613,0,0,1-1.61-1.608V29.084a1.614,1.614,0,0,1,1.61-1.608h1V26.4a.647.647,0,0,1,.647-.647H9.62a2.832,2.832,0,0,0,2.162-.99.65.65,0,0,1,.985,0,2.836,2.836,0,0,0,2.162.99h1.993a.648.648,0,0,1,.648.647v1.072h1a1.614,1.614,0,0,1,1.61,1.608v1.929a1.613,1.613,0,0,1-1.61,1.608H17.56a5.573,5.573,0,0,1-2.333,4.216H20a.647.647,0,0,0,.647-.647V24.407a8.684,8.684,0,0,0-8.675-8.675" fill="#f39200"/>
          <path id="Trazado_136617" data-name="Trazado 136617" d="M29.262,41.66V39.136H16.035L10.812,49.279,5.588,39.136H3.708A1.972,1.972,0,0,0,1.737,41.1V55.851a.439.439,0,0,0,.439.437H19.447a.438.438,0,0,0,.439-.437V42.216h9.932a.557.557,0,0,1-.556-.556" fill="#fec700"/>
          <path id="Trazado_136618" data-name="Trazado 136618" d="M13.459,37.675a5.59,5.59,0,0,1-1.467.2H9.632a5.585,5.585,0,0,1-1.467-.2v1.461H5.588l5.224,10.142,5.223-10.142H13.459Z" fill="#ffef9b"/>
          <path id="Trazado_136619" data-name="Trazado 136619" d="M18.573,27.476h-1V26.4a.648.648,0,0,0-.648-.647H14.928a2.832,2.832,0,0,1-2.161-.99.648.648,0,0,0-.985,0,2.836,2.836,0,0,1-2.162.99H4.7a.648.648,0,0,0-.648.647v1.072h-1A1.613,1.613,0,0,0,1.44,29.084v1.929a1.613,1.613,0,0,0,1.609,1.608H4.063a5.584,5.584,0,0,0,5.568,5.252h2.36a5.582,5.582,0,0,0,5.568-5.252h1.015a1.613,1.613,0,0,0,1.609-1.608V29.084a1.614,1.614,0,0,0-1.61-1.608" fill="#ffef9b"/>
          <path id="Trazado_136620" data-name="Trazado 136620" d="M10.811,35.63A2.465,2.465,0,0,1,8.237,33.3a.348.348,0,0,1,.348-.348h4.452a.348.348,0,0,1,.348.348,2.465,2.465,0,0,1-2.574,2.33" fill="#e07c3e"/>
          <path id="Trazado_136621" data-name="Trazado 136621" d="M10.811,49.278l3.874-7.521H6.937Z" fill="#fff"/>
        </g>
      </g>
      <g id="Grupo_159420" data-name="Grupo 159420">
        <g id="Grupo_159419" data-name="Grupo 159419" clip-path="url(#clip-path-7)">
          <path id="Trazado_136622" data-name="Trazado 136622" d="M34.835,40.139H33.179a1.045,1.045,0,0,1-.826-.486l-.449-.807a1.042,1.042,0,0,0-.826-.486H29.817a.558.558,0,0,0-.556.556v2.743a.559.559,0,0,0,.556.557h5.018a.558.558,0,0,0,.556-.557v-.964a.557.557,0,0,0-.556-.556" fill="#ffef9b"/>
          <path id="Trazado_136623" data-name="Trazado 136623" d="M64.675,2.151H45.3V1.618A1.62,1.62,0,0,0,43.68,0H40.4a.971.971,0,1,0,0,1.942h2.959V3.926H22.937V1.942h12.8a.971.971,0,1,0,0-1.942H22.613A1.62,1.62,0,0,0,21,1.618v.533H1.619A1.62,1.62,0,0,0,0,3.77V7.595A1.62,1.62,0,0,0,1.619,9.213H2.928v8.281A9.617,9.617,0,0,0,0,24.407V36.189a1.62,1.62,0,0,0,1.619,1.619H2.928v.462A2.945,2.945,0,0,0,.766,41.1V55.851a1.411,1.411,0,0,0,1.41,1.408H19.447a1.411,1.411,0,0,0,1.41-1.408V53.878a.971.971,0,0,0-1.942,0v1.438H5.159V44.864a.972.972,0,0,0-1.943,0V55.316H2.708V41.1a1,1,0,0,1,1-1H5l4.952,9.616a.972.972,0,0,0,1.727,0l4.953-9.616H28.291v1.138H19.886a.971.971,0,0,0-.971.971v7.259a.971.971,0,1,0,1.942,0v-.827H32.176v3.136a2.823,2.823,0,1,0,1.942,0V48.648H61.747a1.62,1.62,0,0,0,1.618-1.619V9.213h1.31a1.62,1.62,0,0,0,1.618-1.618V3.77a1.62,1.62,0,0,0-1.618-1.619M1.942,35.866V33.339a2.573,2.573,0,0,0,1.107.253h.162a6.512,6.512,0,0,0,.933,2.274Zm.469-4.853V29.084a.647.647,0,0,1,.638-.637h.033v3.2H3.049a.646.646,0,0,1-.638-.636M3.082,26.4v.1H3.049a2.558,2.558,0,0,0-1.107.253V24.407a7.713,7.713,0,0,1,7.7-7.7h2.331a7.713,7.713,0,0,1,7.7,7.7v2.351a2.559,2.559,0,0,0-1.108-.253h-.032v-.1a1.62,1.62,0,0,0-1.619-1.619H14.929a1.864,1.864,0,0,1-1.424-.649,1.619,1.619,0,0,0-2.462,0,1.864,1.864,0,0,1-1.423.649H4.7A1.619,1.619,0,0,0,3.082,26.4M4.87,16.031V9.213h.907v6.36a9.869,9.869,0,0,0-.907.458m13.7,17.561a2.574,2.574,0,0,0,1.108-.253v2.527h-2.2a6.5,6.5,0,0,0,.933-2.274Zm-.032-1.943v-3.2h.032a.647.647,0,0,1,.639.637v1.929a.646.646,0,0,1-.639.636ZM16.6,26.727V32.3a4.61,4.61,0,0,1-4.607,4.6H9.632a4.609,4.609,0,0,1-4.607-4.6V26.727h4.6a3.814,3.814,0,0,0,2.654-1.067,3.811,3.811,0,0,0,2.654,1.067ZM5.588,38.165H4.87v-.357H6.1a6.6,6.6,0,0,0,.629.357Zm5.224,8.993L8.53,42.728h4.563Zm3.281-6.372H7.53l-.35-.679h.984a.972.972,0,0,0,.972-.971v-.313c.163.012.328.021.5.021h2.36c.166,0,.331-.008.5-.021v.313a.971.971,0,0,0,.971.971h.984Zm19.054,14.53a.881.881,0,1,1,.881-.881.883.883,0,0,1-.881.881m28.276-8.611H20.857V45.8H58.9a1.62,1.62,0,0,0,1.619-1.618V29.8a.971.971,0,1,0-1.942,0V43.857H20.857v-.67H34.835a1.529,1.529,0,0,0,1.528-1.527V40.7a1.53,1.53,0,0,0-1.528-1.528H33.216l-.032-.018-.43-.776a2.028,2.028,0,0,0-1.676-.986h-1.26a1.529,1.529,0,0,0-1.329.777h-13.6a6.56,6.56,0,0,0,.628-.357H20a1.62,1.62,0,0,0,1.618-1.619V24.407a9.656,9.656,0,0,0-9.646-9.646H9.646a9.636,9.636,0,0,0-1.927.193V9.213H58.575v16.05a.971.971,0,1,0,1.942,0V9.213h.906Zm-31.19-5.46V39.331h.809a.2.2,0,0,1,.031.019l.431.775a2.026,2.026,0,0,0,1.676.985h1.241v.135ZM64.351,7.271H1.942V4.093H21V4.25a1.619,1.619,0,0,0,1.618,1.618H43.68A1.619,1.619,0,0,0,45.3,4.25V4.093H64.351Z"/>
        </g>
      </g>
      <g id="Grupo_159422" data-name="Grupo 159422">
        <g id="Grupo_159421" data-name="Grupo 159421" clip-path="url(#clip-path-7)">
          <path id="Trazado_136624" data-name="Trazado 136624" d="M39.211,23.027h-6.55V16.41a.971.971,0,0,0-.971-.971A8.559,8.559,0,1,0,40.182,24a.971.971,0,0,0-.971-.971m-8.492,7.514a6.627,6.627,0,0,1,0-13.087Zm1.942,0V24.969h5.508a6.6,6.6,0,0,1-5.508,5.571"/>
          <path id="Trazado_136625" data-name="Trazado 136625" d="M34.412,13.363a.971.971,0,0,0-.971.971v6.951a.971.971,0,0,0,.971.971H41.3a.971.971,0,0,0,.971-.971,7.9,7.9,0,0,0-7.862-7.922m.971,6.951V15.386a5.964,5.964,0,0,1,4.87,4.928Z"/>
          <path id="Trazado_136626" data-name="Trazado 136626" d="M8.457,29.429V28.143a.971.971,0,0,0-1.942,0v1.286a.971.971,0,0,0,1.942,0"/>
          <path id="Trazado_136627" data-name="Trazado 136627" d="M14.137,27.172a.971.971,0,0,0-.971.971v1.286a.971.971,0,0,0,1.942,0V28.143a.971.971,0,0,0-.971-.971"/>
          <path id="Trazado_136628" data-name="Trazado 136628" d="M11.133,31.575h.644a.971.971,0,0,0,0-1.942h-.316v-.695a.971.971,0,1,0-1.942,0v1.019a1.618,1.618,0,0,0,1.614,1.618"/>
          <path id="Trazado_136629" data-name="Trazado 136629" d="M13.037,31.981H8.585A1.321,1.321,0,0,0,7.266,33.3a3.433,3.433,0,0,0,3.545,3.3,3.433,3.433,0,0,0,3.545-3.3,1.321,1.321,0,0,0-1.319-1.32m-2.226,2.678a1.659,1.659,0,0,1-1.424-.735h2.848a1.659,1.659,0,0,1-1.424.735"/>
          <path id="Trazado_136630" data-name="Trazado 136630" d="M55.864,26.621h-.821V18.788a.972.972,0,0,0-1.943,0v7.833H52.085V14.386a.971.971,0,1,0-1.942,0V26.621H49.127V18.042a.971.971,0,1,0-1.942,0v8.579H46.169V23.772a.971.971,0,1,0-1.942,0v2.849H43.4a.971.971,0,1,0,0,1.942H55.864a.971.971,0,1,0,0-1.942"/>
          <path id="Trazado_136631" data-name="Trazado 136631" d="M44.152,31.075H43.4a.971.971,0,1,0,0,1.942h.747a.971.971,0,1,0,0-1.942"/>
          <path id="Trazado_136632" data-name="Trazado 136632" d="M44.152,33.664H43.4a.971.971,0,1,0,0,1.942h.747a.971.971,0,1,0,0-1.942"/>
          <path id="Trazado_136633" data-name="Trazado 136633" d="M44.152,36.254H43.4a.971.971,0,1,0,0,1.942h.747a.971.971,0,1,0,0-1.942"/>
          <path id="Trazado_136634" data-name="Trazado 136634" d="M44.152,38.844H43.4a.971.971,0,1,0,0,1.942h.747a.971.971,0,1,0,0-1.942"/>
          <path id="Trazado_136635" data-name="Trazado 136635" d="M55.864,31.075h-9.2a.971.971,0,1,0,0,1.942h9.2a.971.971,0,1,0,0-1.942"/>
          <path id="Trazado_136636" data-name="Trazado 136636" d="M55.864,33.664h-9.2a.971.971,0,1,0,0,1.942h9.2a.971.971,0,1,0,0-1.942"/>
          <path id="Trazado_136637" data-name="Trazado 136637" d="M55.864,36.254h-9.2a.971.971,0,1,0,0,1.942h9.2a.971.971,0,1,0,0-1.942"/>
          <path id="Trazado_136638" data-name="Trazado 136638" d="M55.864,38.844h-9.2a.971.971,0,1,0,0,1.942h9.2a.971.971,0,1,0,0-1.942"/>
          <path id="Trazado_136639" data-name="Trazado 136639" d="M57.1,6.653a.971.971,0,1,0-.686-.284.979.979,0,0,0,.686.284"/>
          <path id="Trazado_136640" data-name="Trazado 136640" d="M59.583,6.653a.971.971,0,1,0-.686-.284.979.979,0,0,0,.686.284"/>
          <path id="Trazado_136641" data-name="Trazado 136641" d="M62.067,6.653a.97.97,0,1,0-.687-.284.979.979,0,0,0,.687.284"/>
          <path id="Trazado_136642" data-name="Trazado 136642" d="M6.474,4.711H4.12a.971.971,0,1,0,0,1.942H6.474a.971.971,0,1,0,0-1.942"/>
        </g>
      </g>
    </g>
    <path id="Trazado_137113" data-name="Trazado 137113" d="M42.5,0A42.5,42.5,0,1,1,0,42.5,42.5,42.5,0,0,1,42.5,0Z" transform="translate(964 3937)" fill="#fff" opacity="0.25"/>
    <g id="Grupo_159425" data-name="Grupo 159425" transform="translate(975 3946)">
      <g id="Grupo_159424" data-name="Grupo 159424" clip-path="url(#clip-path-10)">
        <path id="Trazado_136643" data-name="Trazado 136643" d="M49.11,33.146A17.033,17.033,0,1,1,32.076,16.112,17.035,17.035,0,0,1,49.11,33.146" fill="#bae2f5"/>
        <path id="Trazado_136644" data-name="Trazado 136644" d="M37.282,42.914H34.611a2.535,2.535,0,1,1-5.069,0H26.87a3.712,3.712,0,0,0-3.706,3.71v1.04a17.042,17.042,0,0,0,17.824,0v-1.04a3.712,3.712,0,0,0-3.706-3.71" fill="#8cc9a4"/>
        <path id="Trazado_136645" data-name="Trazado 136645" d="M24.009,31.466h1.043V30.195a.441.441,0,0,1,.441-.442h4.951a4,4,0,0,0,3.339-1.784.44.44,0,0,1,.734,0,4,4,0,0,0,3.339,1.784h.8a.442.442,0,0,1,.442.442v1.271h1.043a1.677,1.677,0,0,1,1.506.953V27.484a6.806,6.806,0,0,0-6.794-6.8H29.3a6.806,6.806,0,0,0-6.794,6.8v4.934a1.676,1.676,0,0,1,1.506-.952" fill="#e3b075"/>
        <path id="Trazado_136646" data-name="Trazado 136646" d="M40.145,36.819H39.038A5.811,5.811,0,0,1,36.19,41h5.019a.441.441,0,0,0,.441-.441V35.867a1.674,1.674,0,0,1-1.505.952" fill="#e3b075"/>
        <path id="Trazado_136647" data-name="Trazado 136647" d="M25.115,36.819H24.009a1.676,1.676,0,0,1-1.506-.951v4.688a.441.441,0,0,0,.441.441h5.018a5.81,5.81,0,0,1-2.847-4.178" fill="#e3b075"/>
        <path id="Trazado_136648" data-name="Trazado 136648" d="M40.145,31.466H39.1V30.195a.442.442,0,0,0-.441-.442h-.805a4,4,0,0,1-3.338-1.784.441.441,0,0,0-.735,0,4,4,0,0,1-3.338,1.784H25.493a.442.442,0,0,0-.441.442v1.271H24.01a1.677,1.677,0,0,0-1.673,1.673v2.008a1.677,1.677,0,0,0,1.673,1.672h1.1a5.814,5.814,0,0,0,4.426,4.8v1.248a2.537,2.537,0,1,0,5.072,0V41.62a5.813,5.813,0,0,0,4.425-4.8h1.107a1.677,1.677,0,0,0,1.672-1.672V33.139a1.679,1.679,0,0,0-1.672-1.673" fill="#ffef9b"/>
        <path id="Trazado_136649" data-name="Trazado 136649" d="M38.295,7.216a6.219,6.219,0,1,0-6.219,6.245,6.232,6.232,0,0,0,6.219-6.245" fill="#f39200"/>
        <path id="Rectángulo_38802" data-name="Rectángulo 38802" d="M.647,0H11.766a.648.648,0,0,1,.648.648V11.082a.648.648,0,0,1-.648.648H.647A.647.647,0,0,1,0,11.083V.647A.647.647,0,0,1,.647,0Z" transform="translate(49.831 44.536)" fill="#fec700"/>
        <path id="Trazado_136650" data-name="Trazado 136650" d="M14.208,47.514a6.619,6.619,0,1,0-6.619,6.652,6.636,6.636,0,0,0,6.619-6.652" fill="#fec700"/>
        <path id="Trazado_136651" data-name="Trazado 136651" d="M13.03,21.38a.649.649,0,0,1-.647.647H1.983a.65.65,0,0,1-.648-.647V14.048a.65.65,0,0,1,.648-.647h10.4a.649.649,0,0,1,.647.647V21.38Z" fill="#009fe3"/>
        <path id="Trazado_136652" data-name="Trazado 136652" d="M1.848,13.8c-.282-.218-.512-.1-.512.252V21.38a.649.649,0,0,0,.647.647h10.4a.65.65,0,0,0,.648-.647V14.048c0-.356-.231-.47-.513-.252L7.7,17.514a.885.885,0,0,1-1.025,0Z" fill="#009fe3"/>
        <path id="Trazado_136653" data-name="Trazado 136653" d="M32.076,65.322a6.275,6.275,0,1,1,6.245-6.275,6.267,6.267,0,0,1-6.245,6.275" fill="#bae2f5"/>
        <path id="Trazado_136654" data-name="Trazado 136654" d="M55.334,22.673a.384.384,0,0,1-.271-.11L49.876,17.51a2.735,2.735,0,0,1,0-3.94,2.912,2.912,0,0,1,4.043,0l1.415,1.378,1.415-1.378a2.913,2.913,0,0,1,4.044,0,2.737,2.737,0,0,1,0,3.94L55.6,22.563a.388.388,0,0,1-.271.11" fill="#e07c3e"/>
        <path id="Trazado_136655" data-name="Trazado 136655" d="M32.077,17.084a16.007,16.007,0,0,1,8.715,2.567.971.971,0,1,0,1.055-1.63A18.008,18.008,0,1,0,45.461,21.1a.971.971,0,0,0-1.444,1.3A16.053,16.053,0,0,1,41.9,45.85a4.687,4.687,0,0,0-4.128-3.881h3.442a1.415,1.415,0,0,0,1.413-1.413v-4.5a2.614,2.614,0,0,0,.166-.914V33.139a2.636,2.636,0,0,0-.166-.913V27.484a7.778,7.778,0,0,0-7.766-7.772H29.3a7.778,7.778,0,0,0-7.766,7.772v4.74a2.624,2.624,0,0,0-.167.915v2.007a2.616,2.616,0,0,0,.167.915v4.495a1.414,1.414,0,0,0,1.412,1.412h3.443a4.687,4.687,0,0,0-4.128,3.882,16.057,16.057,0,0,1,9.818-28.766m8.6,22.943H38.721a6.761,6.761,0,0,0,1.1-2.236h.323a2.624,2.624,0,0,0,.535-.055Zm.166-4.88a.7.7,0,0,1-.7.7h-.073V32.437h.073a.7.7,0,0,1,.7.7ZM23.308,33.139a.7.7,0,0,1,.7-.7h.071v3.411H24.01a.7.7,0,0,1-.7-.7Zm.166,6.888V37.736a2.627,2.627,0,0,0,.536.055h.322a6.761,6.761,0,0,0,1.1,2.236Zm.607-9.832v.3h-.072a2.7,2.7,0,0,0-.535.055V27.484a5.834,5.834,0,0,1,5.824-5.83h5.558a5.833,5.833,0,0,1,5.824,5.83V30.55a2.7,2.7,0,0,0-.535-.055h-.073v-.3a1.414,1.414,0,0,0-1.412-1.413h-.8a3.03,3.03,0,0,1-2.529-1.35,1.413,1.413,0,0,0-2.352,0,3.032,3.032,0,0,1-2.53,1.352H25.494a1.415,1.415,0,0,0-1.413,1.413m1.943,5.777V30.724h4.421a4.972,4.972,0,0,0,3.705-1.648,4.972,4.972,0,0,0,3.706,1.648h.274v5.248A4.832,4.832,0,0,1,33.3,40.8H30.851a4.832,4.832,0,0,1-4.827-4.827m7.619,6.761v.136a1.567,1.567,0,1,1-3.132,0v-.136c.113.006.226.009.34.009H33.3c.114,0,.227,0,.34-.009m-9.507,3.891a2.74,2.74,0,0,1,2.735-2.739h1.845a3.492,3.492,0,0,0,6.723,0h1.844a2.74,2.74,0,0,1,2.735,2.739v.48a16.034,16.034,0,0,1-15.882,0Z"/>
        <path id="Trazado_136656" data-name="Trazado 136656" d="M28.62,34.183a.971.971,0,0,0,.971-.971V31.874a.971.971,0,1,0-1.942,0v1.338a.971.971,0,0,0,.971.971"/>
        <path id="Trazado_136657" data-name="Trazado 136657" d="M35.533,34.183a.971.971,0,0,0,.971-.971V31.874a.971.971,0,1,0-1.942,0v1.338a.971.971,0,0,0,.971.971"/>
        <path id="Trazado_136658" data-name="Trazado 136658" d="M32.389,35.669h.69a.971.971,0,1,0,0-1.942h-.366v-.794a.971.971,0,0,0-1.942,0v1.118a1.619,1.619,0,0,0,1.618,1.618"/>
        <path id="Trazado_136659" data-name="Trazado 136659" d="M29.225,37.248a2.858,2.858,0,0,0,5.7,0,.972.972,0,0,0-1.943,0,.93.93,0,0,1-1.819,0,.971.971,0,1,0-1.942,0"/>
        <path id="Trazado_136660" data-name="Trazado 136660" d="M30.4,6.289V5.646a.971.971,0,1,0-1.942,0v.643a.971.971,0,1,0,1.942,0"/>
        <path id="Trazado_136661" data-name="Trazado 136661" d="M34.724,4.675a.971.971,0,0,0-.971.971v.643a.971.971,0,0,0,1.942,0V5.646a.971.971,0,0,0-.971-.971"/>
        <path id="Trazado_136662" data-name="Trazado 136662" d="M34.057,7.739a.97.97,0,0,0-.971.971,1.037,1.037,0,0,1-2.019,0,.971.971,0,1,0-1.942,0,2.96,2.96,0,0,0,5.9,0,.97.97,0,0,0-.971-.971"/>
        <path id="Trazado_136663" data-name="Trazado 136663" d="M62.245,49.914a.971.971,0,0,0,.971-.971v-3.76A1.62,1.62,0,0,0,61.6,43.565H59.85V41.34a3.534,3.534,0,0,0-.738-2.165V20.5l2.359-2.3a3.706,3.706,0,0,0,0-5.331,3.885,3.885,0,0,0-5.4,0l-.738.718-.737-.718a3.892,3.892,0,0,0-4.6-.6L39.166,6.022a7.184,7.184,0,0,0-14.179,0L13.34,12.746a1.607,1.607,0,0,0-.957-.317H1.983A1.62,1.62,0,0,0,.364,14.048v7.331A1.62,1.62,0,0,0,1.983,23H5.041v4.969a.971.971,0,1,0,1.942,0V23h5.4A1.62,1.62,0,0,0,14,21.379V14.608L24.965,8.277a7.186,7.186,0,0,0,14.223,0l9.375,5.413A3.7,3.7,0,0,0,49.2,18.2l5.188,5.054a1.358,1.358,0,0,0,1.9,0l.887-.864V37.9a3.506,3.506,0,0,0-.863-.108H55.77a3.551,3.551,0,0,0-3.543,3.551v2.225H50.479a1.62,1.62,0,0,0-1.619,1.618v7.248L39.216,58a7.211,7.211,0,0,0-14.279,0l-10.983-6.34A7.625,7.625,0,0,0,7.59,39.889c-.2,0-.406.011-.607.027V32.628a.971.971,0,0,0-1.942,0v7.705a7.628,7.628,0,0,0,2.549,14.8,7.535,7.535,0,0,0,5.088-1.973l12.285,7.093a7.21,7.21,0,0,0,14.228,0l9.669-5.583v.945a1.62,1.62,0,0,0,1.619,1.618H61.6a1.62,1.62,0,0,0,1.618-1.618V53.6a.971.971,0,0,0-1.942,0v1.691H50.8V45.507h1.425v1.207a.971.971,0,1,0,1.942,0V45.507h3.739v1.207a.971.971,0,1,0,1.942,0V45.507h1.424v3.436a.971.971,0,0,0,.971.971M10.18,14.371l-3,2.312-3-2.312Zm1.879,6.685H2.306V15.375l3.771,2.908a1.857,1.857,0,0,0,2.211,0l3.77-2.908v5.681ZM32.076,12.49a5.274,5.274,0,1,1,5.248-5.274,5.267,5.267,0,0,1-5.248,5.274M7.59,53.195a5.682,5.682,0,1,1,5.647-5.682A5.671,5.671,0,0,1,7.59,53.195M32.822,64.3a.97.97,0,0,0-.7-1.645h-.1a.97.97,0,0,0-.7,1.645,5.3,5.3,0,0,1-4.467-4.442.97.97,0,0,0,1.573-.761V59a.971.971,0,0,0-1.573-.762A5.3,5.3,0,0,1,31.331,53.8a.97.97,0,0,0,.7,1.644h.1a.97.97,0,0,0,.7-1.644A5.3,5.3,0,0,1,37.29,58.24.97.97,0,0,0,35.717,59v.093a.97.97,0,0,0,1.573.761A5.3,5.3,0,0,1,32.822,64.3M57.169,43.565h-3V41.34a1.607,1.607,0,0,1,1.6-1.609h.536a1.585,1.585,0,0,1,.863.256ZM55.334,21.471l-4.78-4.657a1.763,1.763,0,0,1,0-2.548,1.942,1.942,0,0,1,2.689,0l1.414,1.378a.971.971,0,0,0,1.356,0l1.415-1.378a1.942,1.942,0,0,1,2.689,0,1.765,1.765,0,0,1,0,2.548Z"/>
        <path id="Trazado_136664" data-name="Trazado 136664" d="M8.59,46.474h-2a.4.4,0,0,1,0-.8H9.147a.971.971,0,0,0,0-1.942H8.561v-.366a.971.971,0,1,0-1.942,0v.366H6.591a2.343,2.343,0,0,0,0,4.685h2a.4.4,0,0,1,0,.8H5.562a.971.971,0,0,0,0,1.942H6.619v.088a.971.971,0,1,0,1.942,0v-.088H8.59a2.343,2.343,0,0,0,0-4.685"/>
        <path id="Trazado_136665" data-name="Trazado 136665" d="M35.7,55.692a.971.971,0,0,0-1.372-.062L32.1,57.659l-1.229-1.222a.971.971,0,0,0-1.369,1.377l1.885,1.875a.971.971,0,0,0,1.34.029l2.906-2.654a.971.971,0,0,0,.062-1.372"/>
      </g>
    </g>
    <path id="Trazado_137114" data-name="Trazado 137114" d="M42.5,0A42.5,42.5,0,1,1,0,42.5,42.5,42.5,0,0,1,42.5,0Z" transform="translate(1179 3937)" fill="#fff" opacity="0.25"/>
    <g id="Grupo_159427" data-name="Grupo 159427" transform="translate(1191 3946)">
      <g id="Grupo_159426" data-name="Grupo 159426" clip-path="url(#clip-path-11)">
        <path id="Trazado_136666" data-name="Trazado 136666" d="M43.187,41.582H38.12V43.35a2.6,2.6,0,0,1-2.59,2.59H32.889a2.6,2.6,0,0,1-2.59-2.59V41.582H25.232a6.379,6.379,0,0,0-6.39,6.354V62H49.577V47.936a6.379,6.379,0,0,0-6.39-6.354" fill="#e07c3e"/>
        <path id="Trazado_136667" data-name="Trazado 136667" d="M38.119,41.582V43.35a2.6,2.6,0,0,1-2.59,2.59H32.888A2.6,2.6,0,0,1,30.3,43.35V41.582H25.877L34.209,59.21l8.332-17.628Z" fill="#fff293"/>
        <path id="Trazado_136668" data-name="Trazado 136668" d="M34.209,50.316a21.853,21.853,0,0,1-4.416-.449l4.416,9.343,4.416-9.343a21.853,21.853,0,0,1-4.416.449" fill="#fff"/>
        <path id="Trazado_136669" data-name="Trazado 136669" d="M36.857,39.607c-.176.01-.354.016-.533.016h-4.23a10.012,10.012,0,0,1-1.8-.164v3.89a2.6,2.6,0,0,0,2.589,2.59h2.641a2.6,2.6,0,0,0,2.59-2.59V41.09a2.021,2.021,0,0,1-1.262-1.483" fill="#ffef9b"/>
        <path id="Trazado_136670" data-name="Trazado 136670" d="M42.758,39.207a2.024,2.024,0,0,1-2.029,2.019H38.846a2.02,2.02,0,1,1,0-4.039h1.883a2.024,2.024,0,0,1,2.029,2.02" fill="#a58abf"/>
        <path id="Trazado_136671" data-name="Trazado 136671" d="M30.692,7.337h7.033a8.745,8.745,0,0,1,2.458.352,4.09,4.09,0,0,0,.894-2.553A4.211,4.211,0,0,0,36.823.971H31.594A4.211,4.211,0,0,0,27.34,5.136a4.1,4.1,0,0,0,.894,2.553,8.739,8.739,0,0,1,2.458-.352" fill="#f39200"/>
        <path id="Trazado_136672" data-name="Trazado 136672" d="M49.36,20.364H46.323v8.971H49.36a1.3,1.3,0,0,0,1.295-1.293V21.66a1.3,1.3,0,0,0-1.295-1.3" fill="#a58abf"/>
        <path id="Trazado_136673" data-name="Trazado 136673" d="M22.1,20.364H19.059a1.3,1.3,0,0,0-1.3,1.3v6.382a1.3,1.3,0,0,0,1.3,1.293H22.1Z" fill="#a58abf"/>
        <path id="Trazado_136674" data-name="Trazado 136674" d="M37.726,7.337H30.693a8.512,8.512,0,0,0-8.6,8.4v4.052a.758.758,0,0,1,.761-.753H31.4a6.915,6.915,0,0,0,5.758-3.058.762.762,0,0,1,1.265,0,6.913,6.913,0,0,0,5.758,3.058h1.386a.759.759,0,0,1,.761.756V15.741a8.512,8.512,0,0,0-8.6-8.4" fill="#f39200"/>
        <path id="Trazado_136675" data-name="Trazado 136675" d="M45.561,19.04H44.175a6.916,6.916,0,0,1-5.758-3.057.763.763,0,0,0-1.266,0,6.913,6.913,0,0,1-5.757,3.057H22.856a.759.759,0,0,0-.761.757v9.894a9.976,9.976,0,0,0,10,9.932h4.229c.18,0,.358-.005.534-.014a2.053,2.053,0,0,1-.04-.4,2.024,2.024,0,0,1,2.028-2.02h1.884a2.026,2.026,0,0,1,1.414.573,9.9,9.9,0,0,0,4.179-8.069V19.8a.759.759,0,0,0-.761-.757" fill="#ffef9b"/>
        <path id="Trazado_136676" data-name="Trazado 136676" d="M34.209,36.18a4.792,4.792,0,0,1-5.014-4.52.728.728,0,0,1,.731-.726h8.567a.728.728,0,0,1,.731.726,4.793,4.793,0,0,1-5.015,4.52" fill="#e07c3e"/>
        <path id="Trazado_136677" data-name="Trazado 136677" d="M42.758,39.207a2.024,2.024,0,0,1-2.029,2.019H38.846a2.02,2.02,0,1,1,0-4.039h1.883a2.024,2.024,0,0,1,2.029,2.02" fill="#a58abf"/>
        <path id="Trazado_136678" data-name="Trazado 136678" d="M30.9,62V59.394a1.3,1.3,0,0,0-1.3-1.3H26.231a1.3,1.3,0,0,0-1.3,1.3V62Z" fill="#ffef9b"/>
        <path id="Trazado_136679" data-name="Trazado 136679" d="M43.482,62V59.394a1.3,1.3,0,0,0-1.295-1.3H38.816a1.3,1.3,0,0,0-1.3,1.3V62Z" fill="#ffef9b"/>
        <rect id="Rectángulo_38804" data-name="Rectángulo 38804" width="37.461" height="3.318" rx="0.647" transform="translate(15.479 62.003)" fill="#e3b075"/>
        <path id="Trazado_136680" data-name="Trazado 136680" d="M.971,7.51a.649.649,0,0,1,.647-.647H15.694a.649.649,0,0,1,.647.647V18.076a.649.649,0,0,1-.647.647h-1.62a.649.649,0,0,0-.647.647v2.068c0,.356-.228.466-.507.244L9.71,19.126a2.166,2.166,0,0,0-1.153-.4H1.618a.649.649,0,0,1-.647-.647Z" fill="#fec700"/>
        <path id="Trazado_136681" data-name="Trazado 136681" d="M29.22,24.963V22.671a.971.971,0,0,0-1.942,0v2.292a.971.971,0,1,0,1.942,0"/>
        <path id="Trazado_136682" data-name="Trazado 136682" d="M40.17,25.934a.971.971,0,0,0,.971-.971V22.671a.971.971,0,1,0-1.942,0v2.292a.971.971,0,0,0,.971.971"/>
        <path id="Trazado_136683" data-name="Trazado 136683" d="M34.279,28.481h1.66a.971.971,0,1,0,0-1.942H34.6V24.486a.971.971,0,1,0-1.942,0v2.377a1.619,1.619,0,0,0,1.618,1.618"/>
        <path id="Trazado_136684" data-name="Trazado 136684" d="M40.195,31.66a1.7,1.7,0,0,0-1.7-1.7H29.925a1.7,1.7,0,0,0-1.7,1.7,5.761,5.761,0,0,0,5.986,5.49,5.761,5.761,0,0,0,5.986-5.49m-10.02.244h8.068a3.869,3.869,0,0,1-4.034,3.3,3.869,3.869,0,0,1-4.034-3.3"/>
        <path id="Trazado_136685" data-name="Trazado 136685" d="M60.689,64.351H53.91v-1.7a1.62,1.62,0,0,0-1.618-1.619H50.548V55.287a.971.971,0,0,0-1.942,0v5.745H44.453V59.945h1.14a.972.972,0,0,0,.971-.972V49.6a.971.971,0,1,0-1.942,0V58h-.65a2.265,2.265,0,0,0-1.784-.873H38.816A2.269,2.269,0,0,0,36.55,59.4v1.637H31.868V59.4A2.268,2.268,0,0,0,29.6,57.129H26.231A2.262,2.262,0,0,0,24.447,58H23.8V49.6a.971.971,0,0,0-1.942,0v9.378a.972.972,0,0,0,.971.972h1.139v1.087H19.812v-13.1a5.407,5.407,0,0,1,5.42-5.382h.03l8.069,17.072a.971.971,0,0,0,1.756,0l8.069-17.072h.03a5.407,5.407,0,0,1,5.42,5.382v2.821a.971.971,0,0,0,1.942,0V47.935a7.349,7.349,0,0,0-7.174-7.32,2.936,2.936,0,0,0,.237-.582h4.314a2.268,2.268,0,0,0,2.266-2.266v-7.62a2.268,2.268,0,0,0,1.434-2.106V21.659a2.268,2.268,0,0,0-1.434-2.106V15.741A12.3,12.3,0,0,0,41.961,4.21,5.208,5.208,0,0,0,36.823,0H31.595a5.209,5.209,0,0,0-5.138,4.21,12.3,12.3,0,0,0-8.23,11.531v3.813a2.267,2.267,0,0,0-1.434,2.1v6.382a2.268,2.268,0,0,0,2.266,2.266h2.084a10.943,10.943,0,0,0,8.185,9.936v.368h-4.1a7.351,7.351,0,0,0-7.362,7.324v13.1H16.126a1.62,1.62,0,0,0-1.618,1.619v1.7H7.729a.971.971,0,0,0,0,1.942h52.96a.971.971,0,0,0,0-1.942m-26.48-7.414-2.75-5.817a22.726,22.726,0,0,0,5.5,0Zm6.52-16.682H38.846a1.049,1.049,0,1,1,0-2.1h1.883a1.049,1.049,0,1,1,0,2.1m7.52-2.488a.328.328,0,0,1-.324.324H43.511c-.017-.043-.035-.086-.055-.128a10.856,10.856,0,0,0,3.819-7.656h.974Zm1.434-16.108v6.382a.328.328,0,0,1-.323.324H47.294V21.336H49.36a.327.327,0,0,1,.323.323M41.917,6.279a10.328,10.328,0,0,1,6.332,9.462v3.652h-.955V15.741a9.382,9.382,0,0,0-5.678-8.562,4.93,4.93,0,0,0,.3-.9M31.595,1.942h5.228a3.3,3.3,0,0,1,2.9,1.7,12.63,12.63,0,0,0-2-.158H30.693a12.621,12.621,0,0,0-2,.158,3.3,3.3,0,0,1,2.9-1.7m-.9,3.481h7.033a10.715,10.715,0,0,1,2.331.258,3.1,3.1,0,0,1-.307.9,9.713,9.713,0,0,0-2.024-.214H30.693a9.715,9.715,0,0,0-2.025.214,3.125,3.125,0,0,1-.307-.9,10.717,10.717,0,0,1,2.332-.258M21.125,28.365H19.059a.328.328,0,0,1-.324-.324V21.659a.328.328,0,0,1,.324-.323h2.066Zm0-12.624v3.652h-.956V15.741A10.329,10.329,0,0,1,26.5,6.279a5.007,5.007,0,0,0,.3.9,9.381,9.381,0,0,0-5.677,8.562m1.942,13.95v-9.68h3.879a.971.971,0,1,0,0-1.942H23.067V15.741a7.54,7.54,0,0,1,7.626-7.433h7.033a7.54,7.54,0,0,1,7.625,7.433v2.328H44.176a5.946,5.946,0,0,1-4.952-2.627,1.733,1.733,0,0,0-2.878,0A5.945,5.945,0,0,1,31.4,18.069a.971.971,0,1,0,0,1.942,7.885,7.885,0,0,0,6.39-3.239,7.884,7.884,0,0,0,6.391,3.239h1.175v9.68a8.915,8.915,0,0,1-3.235,6.864,3,3,0,0,0-1.386-.339H38.846A3,3,0,0,0,35.9,38.652h-3.8a9,9,0,0,1-9.027-8.961m14.081,11.98V43.35a1.621,1.621,0,0,1-1.618,1.619H32.889A1.621,1.621,0,0,1,31.27,43.35V40.56c.272.02.547.034.824.034h4.1a3.008,3.008,0,0,0,.958,1.077m-7.82.882v.8a3.565,3.565,0,0,0,3.561,3.561H35.53a3.565,3.565,0,0,0,3.56-3.561v-.8h1.918l-3.051,6.454a21.072,21.072,0,0,1-7.5,0L27.41,42.553ZM38.492,59.4a.328.328,0,0,1,.324-.324h3.371a.328.328,0,0,1,.324.324v1.637H38.492Zm-12.585,0a.328.328,0,0,1,.324-.324H29.6a.328.328,0,0,1,.323.324v1.637H25.907Zm26.061,4.956H16.449V62.975H51.968Z"/>
        <path id="Trazado_136686" data-name="Trazado 136686" d="M9.106,19.885l3.21,2.557a1.4,1.4,0,0,0,.873.325,1.181,1.181,0,0,0,.511-.115,1.3,1.3,0,0,0,.7-1.214V19.694h1.3a1.621,1.621,0,0,0,1.62-1.618V7.509a1.62,1.62,0,0,0-1.62-1.618H14.257a.971.971,0,1,0,0,1.942H15.37v9.918h-1.3a1.622,1.622,0,0,0-1.62,1.619v.7l-2.139-1.7a3.138,3.138,0,0,0-1.76-.616H1.943V7.833H9.6a.971.971,0,0,0,0-1.942H1.619A1.619,1.619,0,0,0,0,7.509V18.076a1.62,1.62,0,0,0,1.618,1.618H8.556a1.284,1.284,0,0,1,.55.191"/>
        <path id="Trazado_136687" data-name="Trazado 136687" d="M12.835,9.079H4.477a.971.971,0,1,0,0,1.942h8.359a.971.971,0,1,0,0-1.942"/>
        <path id="Trazado_136688" data-name="Trazado 136688" d="M13.806,12.793a.971.971,0,0,0-.971-.971H4.476a.971.971,0,0,0,0,1.942h8.359a.971.971,0,0,0,.971-.971"/>
        <path id="Trazado_136689" data-name="Trazado 136689" d="M4.477,14.564a.971.971,0,1,0,0,1.942H8.212a.971.971,0,0,0,0-1.942Z"/>
      </g>
    </g>
  </g>
</svg>
