<svg xmlns="http://www.w3.org/2000/svg" xmlns:xlink="http://www.w3.org/1999/xlink" width="628" height="229" viewBox="0 0 628 229">
  <defs>
    <filter id="Trazado_137086" x="0" y="0" width="272" height="229" filterUnits="userSpaceOnUse">
      <feOffset dy="3" input="SourceAlpha"/>
      <feGaussianBlur stdDeviation="3" result="blur"/>
      <feFlood flood-opacity="0.161"/>
      <feComposite operator="in" in2="blur"/>
      <feComposite in="SourceGraphic"/>
    </filter>
    <filter id="Trazado_137087" x="63.041" y="27.555" width="142.502" height="36.397" filterUnits="userSpaceOnUse">
      <feOffset dy="3" input="SourceAlpha"/>
      <feGaussianBlur stdDeviation="3" result="blur-2"/>
      <feFlood flood-opacity="0.161"/>
      <feComposite operator="in" in2="blur-2"/>
      <feComposite in="SourceGraphic"/>
    </filter>
    <filter id="Trazado_137088" x="315" y="0" width="313" height="54" filterUnits="userSpaceOnUse">
      <feOffset dy="3" input="SourceAlpha"/>
      <feGaussianBlur stdDeviation="3" result="blur-3"/>
      <feFlood flood-opacity="0.161"/>
      <feComposite operator="in" in2="blur-3"/>
      <feComposite in="SourceGraphic"/>
    </filter>
    <filter id="Trazado_137089" x="315" y="88" width="313" height="54" filterUnits="userSpaceOnUse">
      <feOffset dy="3" input="SourceAlpha"/>
      <feGaussianBlur stdDeviation="3" result="blur-4"/>
      <feFlood flood-opacity="0.161"/>
      <feComposite operator="in" in2="blur-4"/>
      <feComposite in="SourceGraphic"/>
    </filter>
    <filter id="Trazado_137090" x="315" y="44" width="313" height="54" filterUnits="userSpaceOnUse">
      <feOffset dy="3" input="SourceAlpha"/>
      <feGaussianBlur stdDeviation="3" result="blur-5"/>
      <feFlood flood-opacity="0.161"/>
      <feComposite operator="in" in2="blur-5"/>
      <feComposite in="SourceGraphic"/>
    </filter>
    <filter id="Trazado_137091" x="315" y="131" width="313" height="54" filterUnits="userSpaceOnUse">
      <feOffset dy="3" input="SourceAlpha"/>
      <feGaussianBlur stdDeviation="3" result="blur-6"/>
      <feFlood flood-opacity="0.161"/>
      <feComposite operator="in" in2="blur-6"/>
      <feComposite in="SourceGraphic"/>
    </filter>
    <filter id="Trazado_137092" x="315" y="175" width="313" height="54" filterUnits="userSpaceOnUse">
      <feOffset dy="3" input="SourceAlpha"/>
      <feGaussianBlur stdDeviation="3" result="blur-7"/>
      <feFlood flood-opacity="0.161"/>
      <feComposite operator="in" in2="blur-7"/>
      <feComposite in="SourceGraphic"/>
    </filter>
    <clipPath id="clip-path">
      <rect id="Rectángulo_38789" data-name="Rectángulo 38789" width="114.592" height="109.276" fill="none"/>
    </clipPath>
  </defs>
  <g id="Grupo_159657" data-name="Grupo 159657" transform="translate(-486 -3659)">
    <path id="Trazado_136513" data-name="Trazado 136513" d="M-6351-7877h-32.438v175H-6351" transform="translate(7161 11560)" fill="none" stroke="#a9a9a9" stroke-linecap="round" stroke-linejoin="round" stroke-width="2" stroke-dasharray="0 4"/>
    <path id="Trazado_137083" data-name="Trazado 137083" d="M78,0H0" transform="translate(738.5 3771.5)" fill="none" stroke="#a9a9a9" stroke-linecap="round" stroke-width="2" stroke-dasharray="0 4"/>
    <path id="Trazado_137084" data-name="Trazado 137084" d="M46.938,0H0" transform="translate(777.5 3727.5)" fill="none" stroke="#a9a9a9" stroke-linecap="round" stroke-width="2" stroke-dasharray="0 4"/>
    <path id="Trazado_137085" data-name="Trazado 137085" d="M48.938,0H0" transform="translate(777.5 3814.5)" fill="none" stroke="#a9a9a9" stroke-linecap="round" stroke-width="2" stroke-dasharray="0 4"/>
    <g transform="matrix(1, 0, 0, 1, 486, 3659)" filter="url(#Trazado_137086)">
      <g id="Trazado_137086-2" data-name="Trazado 137086" transform="translate(9 6)" fill="#1169e3">
        <path d="M 248 209.5 L 6 209.5 C 3.518699884414673 209.5 1.5 207.4812927246094 1.5 205 L 1.5 6 C 1.5 3.518699884414673 3.518699884414673 1.5 6 1.5 L 248 1.5 C 250.4812927246094 1.5 252.5 3.518699884414673 252.5 6 L 252.5 205 C 252.5 207.4812927246094 250.4812927246094 209.5 248 209.5 Z" stroke="none"/>
        <path d="M 6 3 C 4.345779418945312 3 3 4.345779418945312 3 6 L 3 205 C 3 206.6542205810547 4.345779418945312 208 6 208 L 248 208 C 249.6542205810547 208 251 206.6542205810547 251 205 L 251 6 C 251 4.345779418945312 249.6542205810547 3 248 3 L 6 3 M 6 0 L 248 0 C 251.313720703125 0 254 2.686279296875 254 6 L 254 205 C 254 208.313720703125 251.313720703125 211 248 211 L 6 211 C 2.686279296875 211 0 208.313720703125 0 205 L 0 6 C 0 2.686279296875 2.686279296875 0 6 0 Z" stroke="none" fill="#fff"/>
      </g>
    </g>
    <g transform="matrix(1, 0, 0, 1, 486, 3659)" filter="url(#Trazado_137087)">
      <path id="Trazado_137087-2" data-name="Trazado 137087" d="M44.824,17.764h5.91V20H42.041V6.492h2.783ZM55.048,20H52.367V9.962h2.681ZM54.26,5.889h2.922l-2.57,2.876h-2.18Zm5.566,4.073.083,1.16a3.5,3.5,0,0,1,2.885-1.345,2.913,2.913,0,0,1,2.375.937,4.372,4.372,0,0,1,.8,2.8V20H63.286V13.58a1.739,1.739,0,0,0-.371-1.239,1.661,1.661,0,0,0-1.234-.385,1.844,1.844,0,0,0-1.7.965V20H57.3V9.962ZM72.619,20.186a4.928,4.928,0,0,1-3.595-1.354,4.815,4.815,0,0,1-1.387-3.609v-.26a6.064,6.064,0,0,1,.584-2.7,4.289,4.289,0,0,1,1.656-1.837,4.648,4.648,0,0,1,2.445-.645,4.166,4.166,0,0,1,3.242,1.3,5.278,5.278,0,0,1,1.183,3.683v1.095H70.356a2.491,2.491,0,0,0,.784,1.577,2.37,2.37,0,0,0,1.656.594A2.894,2.894,0,0,0,75.217,16.9l1.317,1.475A4.025,4.025,0,0,1,74.9,19.708,5.357,5.357,0,0,1,72.619,20.186Zm-.306-8.248a1.675,1.675,0,0,0-1.294.54,2.8,2.8,0,0,0-.635,1.547h3.729v-.214a2,2,0,0,0-.482-1.384A1.729,1.729,0,0,0,72.313,11.938ZM84.086,20a2.977,2.977,0,0,1-.269-.9,3.244,3.244,0,0,1-2.533,1.085,3.564,3.564,0,0,1-2.445-.854,2.745,2.745,0,0,1-.969-2.152,2.837,2.837,0,0,1,1.183-2.449,5.837,5.837,0,0,1,3.419-.863h1.234v-.575a1.654,1.654,0,0,0-.357-1.113,1.405,1.405,0,0,0-1.127-.417,1.6,1.6,0,0,0-1.062.325,1.1,1.1,0,0,0-.385.891H78.093a2.693,2.693,0,0,1,.538-1.614A3.557,3.557,0,0,1,80.153,10.2a5.545,5.545,0,0,1,2.208-.422,4.381,4.381,0,0,1,2.946.932A3.262,3.262,0,0,1,86.4,13.33v4.351a4.8,4.8,0,0,0,.4,2.162V20Zm-2.217-1.865a2.309,2.309,0,0,0,1.095-.264,1.737,1.737,0,0,0,.742-.71V15.436h-1q-2.013,0-2.143,1.392l-.009.158a1.073,1.073,0,0,0,.353.826A1.369,1.369,0,0,0,81.869,18.135Zm10.9-3.229a6.049,6.049,0,0,1,1.053-3.739A3.417,3.417,0,0,1,96.7,9.776a3.074,3.074,0,0,1,2.421,1.095V5.75h2.69V20H99.394l-.13-1.067a3.155,3.155,0,0,1-2.579,1.252,3.407,3.407,0,0,1-2.844-1.4A6.244,6.244,0,0,1,92.77,14.907Zm2.681.2a3.963,3.963,0,0,0,.492,2.165,1.6,1.6,0,0,0,1.429.753,1.794,1.794,0,0,0,1.753-1.05V13.006a1.768,1.768,0,0,0-1.735-1.05Q95.451,11.957,95.451,15.106Zm13.063,5.079a4.928,4.928,0,0,1-3.595-1.354,4.815,4.815,0,0,1-1.387-3.609v-.26a6.064,6.064,0,0,1,.584-2.7,4.289,4.289,0,0,1,1.656-1.837,4.648,4.648,0,0,1,2.445-.645,4.166,4.166,0,0,1,3.242,1.3,5.278,5.278,0,0,1,1.183,3.683v1.095H106.25a2.491,2.491,0,0,0,.784,1.577,2.37,2.37,0,0,0,1.656.594,2.894,2.894,0,0,0,2.421-1.123l1.317,1.475a4.025,4.025,0,0,1-1.633,1.331A5.357,5.357,0,0,1,108.513,20.186Zm-.306-8.248a1.675,1.675,0,0,0-1.294.54,2.8,2.8,0,0,0-.635,1.547h3.729v-.214a2,2,0,0,0-.482-1.384A1.729,1.729,0,0,0,108.207,11.938ZM119.628,20V11.929h-1.494V9.962h1.494V9.108a3.465,3.465,0,0,1,.969-2.621,3.755,3.755,0,0,1,2.714-.932,6.268,6.268,0,0,1,1.364.186l-.028,2.078a3.418,3.418,0,0,0-.816-.083q-1.512,0-1.512,1.419v.807h1.995v1.967h-1.995V20Zm12.088-1.021a3.362,3.362,0,0,1-2.746,1.206,3.171,3.171,0,0,1-2.463-.928,3.96,3.96,0,0,1-.867-2.718V9.962h2.681v6.492q0,1.57,1.429,1.57a1.936,1.936,0,0,0,1.874-.947V9.962h2.69V20H131.79Zm9.24,1.206a4.928,4.928,0,0,1-3.595-1.354,4.815,4.815,0,0,1-1.387-3.609v-.26a6.064,6.064,0,0,1,.584-2.7,4.289,4.289,0,0,1,1.656-1.837,4.648,4.648,0,0,1,2.445-.645,4.166,4.166,0,0,1,3.242,1.3,5.278,5.278,0,0,1,1.183,3.683v1.095h-6.392a2.491,2.491,0,0,0,.784,1.577,2.37,2.37,0,0,0,1.656.594,2.894,2.894,0,0,0,2.421-1.123l1.317,1.475a4.025,4.025,0,0,1-1.633,1.331A5.357,5.357,0,0,1,140.956,20.186Zm-.306-8.248a1.675,1.675,0,0,0-1.294.54,2.8,2.8,0,0,0-.635,1.547h3.729v-.214a2,2,0,0,0-.482-1.384A1.729,1.729,0,0,0,140.65,11.938Zm5.566,2.969a5.883,5.883,0,0,1,1.1-3.72,3.562,3.562,0,0,1,2.964-1.41,3.124,3.124,0,0,1,2.57,1.132l.111-.946h2.431v9.7a4.29,4.29,0,0,1-.6,2.292,3.843,3.843,0,0,1-1.684,1.484,5.919,5.919,0,0,1-2.542.51,5.5,5.5,0,0,1-2.152-.441,3.82,3.82,0,0,1-1.586-1.136l1.188-1.633a3.141,3.141,0,0,0,2.431,1.123,2.3,2.3,0,0,0,1.661-.571,2.14,2.14,0,0,0,.594-1.619v-.538a3.1,3.1,0,0,1-2.44,1.048,3.553,3.553,0,0,1-2.927-1.415,5.881,5.881,0,0,1-1.118-3.753Zm2.681.2a3.663,3.663,0,0,0,.547,2.142,1.741,1.741,0,0,0,1.5.776,1.862,1.862,0,0,0,1.753-.92V12.876a1.857,1.857,0,0,0-1.735-.92,1.752,1.752,0,0,0-1.517.79A4.129,4.129,0,0,0,148.9,15.106Zm8.136-.218a5.953,5.953,0,0,1,.575-2.663,4.211,4.211,0,0,1,1.656-1.809,4.831,4.831,0,0,1,2.51-.64,4.571,4.571,0,0,1,3.317,1.243,4.989,4.989,0,0,1,1.433,3.377l.019.687a5.247,5.247,0,0,1-1.29,3.706,5,5,0,0,1-6.926,0,5.339,5.339,0,0,1-1.294-3.785Zm2.681.19a3.752,3.752,0,0,0,.538,2.188,1.933,1.933,0,0,0,3.062.009,4.106,4.106,0,0,0,.547-2.393,3.715,3.715,0,0,0-.547-2.174,1.779,1.779,0,0,0-1.54-.771,1.75,1.75,0,0,0-1.521.767A4.175,4.175,0,0,0,159.715,15.079Z" transform="translate(30 28)" fill="#fff"/>
    </g>
    <g transform="matrix(1, 0, 0, 1, 486, 3659)" filter="url(#Trazado_137088)">
      <g id="Trazado_137088-2" data-name="Trazado 137088" transform="translate(324 6)" fill="#d2e1f1">
        <path d="M 292 35.5 L 3 35.5 C 1.621500015258789 35.5 0.5 34.37850189208984 0.5 33 L 0.5 3 C 0.5 1.621500015258789 1.621500015258789 0.5 3 0.5 L 292 0.5 C 293.3785095214844 0.5 294.5 1.621500015258789 294.5 3 L 294.5 33 C 294.5 34.37850189208984 293.3785095214844 35.5 292 35.5 Z" stroke="none"/>
        <path d="M 3 1 C 1.897186279296875 1 1 1.897193908691406 1 3 L 1 33 C 1 34.10280609130859 1.897186279296875 35 3 35 L 292 35 C 293.1028137207031 35 294 34.10280609130859 294 33 L 294 3 C 294 1.897193908691406 293.1028137207031 1 292 1 L 3 1 M 3 0 L 292 0 C 293.6568603515625 0 295 1.343154907226562 295 3 L 295 33 C 295 34.65684509277344 293.6568603515625 36 292 36 L 3 36 C 1.3431396484375 36 0 34.65684509277344 0 33 L 0 3 C 0 1.343154907226562 1.3431396484375 0 3 0 Z" stroke="none" fill="#fff"/>
      </g>
    </g>
    <path id="Trazado_137093" data-name="Trazado 137093" d="M92.223,15.563a4.068,4.068,0,0,1-1.789,1.176,7.492,7.492,0,0,1-2.562.418,5.076,5.076,0,0,1-2.59-.645,4.3,4.3,0,0,1-1.719-1.871,6.585,6.585,0,0,1-.621-2.883v-.773a6.994,6.994,0,0,1,.574-2.949,4.248,4.248,0,0,1,1.656-1.906,5.453,5.453,0,0,1,5.7.3,4.123,4.123,0,0,1,1.352,2.809H89.941a2.268,2.268,0,0,0-.691-1.43,2.208,2.208,0,0,0-1.473-.453,2.078,2.078,0,0,0-1.82.9,4.724,4.724,0,0,0-.633,2.672v.727a4.5,4.5,0,0,0,.68,2.7A2.327,2.327,0,0,0,88,15.273a2.6,2.6,0,0,0,1.883-.562V12.75H87.746V11.023h4.477Zm5.641,1.594a4.15,4.15,0,0,1-3.027-1.141,4.054,4.054,0,0,1-1.168-3.039v-.219a5.106,5.106,0,0,1,.492-2.277,3.612,3.612,0,0,1,1.395-1.547,3.914,3.914,0,0,1,2.059-.543,3.508,3.508,0,0,1,2.73,1.094,4.444,4.444,0,0,1,1,3.1v.922H95.957a2.1,2.1,0,0,0,.66,1.328,2,2,0,0,0,1.395.5,2.437,2.437,0,0,0,2.039-.945l1.109,1.242a3.389,3.389,0,0,1-1.375,1.121A4.511,4.511,0,0,1,97.863,17.156Zm-.258-6.945a1.411,1.411,0,0,0-1.09.455,2.357,2.357,0,0,0-.535,1.3h3.141v-.181a1.681,1.681,0,0,0-.406-1.165A1.456,1.456,0,0,0,97.605,10.211Zm9.766.453a6.134,6.134,0,0,0-.812-.062,1.654,1.654,0,0,0-1.68.867V17h-2.258V8.547h2.133l.063,1.008A2.092,2.092,0,0,1,106.7,8.391a2.366,2.366,0,0,1,.7.1Zm4.977,6.492a4.15,4.15,0,0,1-3.027-1.141,4.054,4.054,0,0,1-1.168-3.039v-.219a5.106,5.106,0,0,1,.492-2.277,3.612,3.612,0,0,1,1.395-1.547,3.914,3.914,0,0,1,2.059-.543,3.508,3.508,0,0,1,2.73,1.094,4.444,4.444,0,0,1,1,3.1v.922h-5.383a2.1,2.1,0,0,0,.66,1.328,2,2,0,0,0,1.395.5,2.437,2.437,0,0,0,2.039-.945l1.109,1.242a3.389,3.389,0,0,1-1.375,1.121A4.511,4.511,0,0,1,112.348,17.156Zm-.258-6.945a1.411,1.411,0,0,0-1.09.455,2.357,2.357,0,0,0-.535,1.3h3.141v-.181a1.681,1.681,0,0,0-.406-1.165A1.456,1.456,0,0,0,112.09,10.211Zm7.094-1.664.07.977a2.951,2.951,0,0,1,2.43-1.133,2.453,2.453,0,0,1,2,.789,3.682,3.682,0,0,1,.672,2.359V17H122.1V11.594a1.465,1.465,0,0,0-.312-1.043,1.4,1.4,0,0,0-1.039-.324,1.553,1.553,0,0,0-1.43.813V17h-2.258V8.547Zm9.586-2.078V8.547h1.445V10.2H128.77v4.219a1.007,1.007,0,0,0,.18.672.9.9,0,0,0,.688.2,3.6,3.6,0,0,0,.664-.055v1.711a4.648,4.648,0,0,1-1.367.2,2.156,2.156,0,0,1-2.422-2.4V10.2h-1.234V8.547h1.234V6.469Zm6.594,10.688a4.15,4.15,0,0,1-3.027-1.141,4.054,4.054,0,0,1-1.168-3.039v-.219a5.106,5.106,0,0,1,.492-2.277,3.612,3.612,0,0,1,1.395-1.547,3.914,3.914,0,0,1,2.059-.543,3.508,3.508,0,0,1,2.73,1.094,4.444,4.444,0,0,1,1,3.1v.922h-5.383a2.1,2.1,0,0,0,.66,1.328,2,2,0,0,0,1.395.5,2.437,2.437,0,0,0,2.039-.945l1.109,1.242a3.389,3.389,0,0,1-1.375,1.121A4.511,4.511,0,0,1,135.363,17.156Zm-.258-6.945a1.411,1.411,0,0,0-1.09.455,2.357,2.357,0,0,0-.535,1.3h3.141v-.181a1.681,1.681,0,0,0-.406-1.165A1.456,1.456,0,0,0,135.105,10.211Zm8.648,2.5a5.094,5.094,0,0,1,.887-3.148,2.877,2.877,0,0,1,2.426-1.172,2.589,2.589,0,0,1,2.039.922V5h2.266V17h-2.039l-.109-.9a2.657,2.657,0,0,1-2.172,1.055,2.869,2.869,0,0,1-2.395-1.176A5.258,5.258,0,0,1,143.754,12.711Zm2.258.168a3.337,3.337,0,0,0,.414,1.823,1.349,1.349,0,0,0,1.2.634,1.511,1.511,0,0,0,1.477-.884V11.111a1.489,1.489,0,0,0-1.461-.884Q146.012,10.227,146.012,12.879Zm11,4.277a4.15,4.15,0,0,1-3.027-1.141,4.054,4.054,0,0,1-1.168-3.039v-.219a5.106,5.106,0,0,1,.492-2.277A3.612,3.612,0,0,1,154.7,8.934a3.914,3.914,0,0,1,2.059-.543,3.508,3.508,0,0,1,2.73,1.094,4.444,4.444,0,0,1,1,3.1v.922h-5.383a2.1,2.1,0,0,0,.66,1.328,2,2,0,0,0,1.395.5,2.437,2.437,0,0,0,2.039-.945l1.109,1.242a3.389,3.389,0,0,1-1.375,1.121A4.511,4.511,0,0,1,157.012,17.156Zm-.258-6.945a1.411,1.411,0,0,0-1.09.455,2.357,2.357,0,0,0-.535,1.3h3.141v-.181a1.681,1.681,0,0,0-.406-1.165A1.456,1.456,0,0,0,156.754,10.211Zm12.164,4.031,1.57-5.7h2.359L170,17H167.84l-2.852-8.453h2.359Zm8.813,2.914a4.15,4.15,0,0,1-3.027-1.141,4.054,4.054,0,0,1-1.168-3.039v-.219a5.106,5.106,0,0,1,.492-2.277,3.612,3.612,0,0,1,1.395-1.547,3.914,3.914,0,0,1,2.059-.543,3.508,3.508,0,0,1,2.73,1.094,4.444,4.444,0,0,1,1,3.1v.922h-5.383a2.1,2.1,0,0,0,.66,1.328,2,2,0,0,0,1.395.5,2.437,2.437,0,0,0,2.039-.945l1.109,1.242a3.389,3.389,0,0,1-1.375,1.121A4.511,4.511,0,0,1,177.73,17.156Zm-.258-6.945a1.411,1.411,0,0,0-1.09.455,2.357,2.357,0,0,0-.535,1.3h3.141v-.181a1.681,1.681,0,0,0-.406-1.165A1.456,1.456,0,0,0,177.473,10.211Zm7.094-1.664.07.977a2.951,2.951,0,0,1,2.43-1.133,2.453,2.453,0,0,1,2,.789,3.682,3.682,0,0,1,.672,2.359V17H187.48V11.594a1.465,1.465,0,0,0-.312-1.043,1.4,1.4,0,0,0-1.039-.324,1.553,1.553,0,0,0-1.43.813V17h-2.258V8.547Zm9.586-2.078V8.547H195.6V10.2h-1.445v4.219a1.007,1.007,0,0,0,.18.672.9.9,0,0,0,.688.2,3.6,3.6,0,0,0,.664-.055v1.711a4.648,4.648,0,0,1-1.367.2,2.156,2.156,0,0,1-2.422-2.4V10.2H190.66V8.547h1.234V6.469ZM201.754,17a2.507,2.507,0,0,1-.227-.758,2.732,2.732,0,0,1-2.133.914,3,3,0,0,1-2.059-.719,2.312,2.312,0,0,1-.816-1.812,2.389,2.389,0,0,1,1-2.062,4.915,4.915,0,0,1,2.879-.727h1.039v-.484a1.393,1.393,0,0,0-.3-.937,1.183,1.183,0,0,0-.949-.352,1.345,1.345,0,0,0-.895.273.929.929,0,0,0-.324.75h-2.258a2.268,2.268,0,0,1,.453-1.359,3,3,0,0,1,1.281-.98,4.669,4.669,0,0,1,1.859-.355,3.689,3.689,0,0,1,2.48.785,2.747,2.747,0,0,1,.918,2.207v3.664a4.041,4.041,0,0,0,.336,1.82V17Zm-1.867-1.57a1.945,1.945,0,0,0,.922-.223,1.462,1.462,0,0,0,.625-.6V13.156h-.844q-1.7,0-1.8,1.172l-.008.133a.9.9,0,0,0,.3.7A1.153,1.153,0,0,0,199.887,15.43Zm10.125-.766a.727.727,0,0,0-.41-.652,4.659,4.659,0,0,0-1.316-.426q-3.016-.633-3.016-2.562a2.323,2.323,0,0,1,.934-1.879,3.766,3.766,0,0,1,2.441-.754,4.053,4.053,0,0,1,2.574.758,2.388,2.388,0,0,1,.965,1.969h-2.258a1.092,1.092,0,0,0-.312-.8,1.322,1.322,0,0,0-.977-.316,1.351,1.351,0,0,0-.883.258.814.814,0,0,0-.312.656.7.7,0,0,0,.355.605,3.657,3.657,0,0,0,1.2.4,9.8,9.8,0,0,1,1.422.379,2.336,2.336,0,0,1,1.789,2.273,2.205,2.205,0,0,1-.992,1.871,4.28,4.28,0,0,1-2.562.715,4.47,4.47,0,0,1-1.887-.379,3.166,3.166,0,0,1-1.293-1.039A2.414,2.414,0,0,1,205,14.313h2.141a1.179,1.179,0,0,0,.445.922,1.766,1.766,0,0,0,1.109.32,1.635,1.635,0,0,0,.98-.246A.766.766,0,0,0,210.012,14.664Z" transform="translate(810 3674)" fill="#12263f"/>
    <g transform="matrix(1, 0, 0, 1, 486, 3659)" filter="url(#Trazado_137089)">
      <g id="Trazado_137089-2" data-name="Trazado 137089" transform="translate(324 94)" fill="#d2e1f1">
        <path d="M 292 35.5 L 3 35.5 C 1.621500015258789 35.5 0.5 34.37850189208984 0.5 33 L 0.5 3 C 0.5 1.621500015258789 1.621500015258789 0.5 3 0.5 L 292 0.5 C 293.3785095214844 0.5 294.5 1.621500015258789 294.5 3 L 294.5 33 C 294.5 34.37850189208984 293.3785095214844 35.5 292 35.5 Z" stroke="none"/>
        <path d="M 3 1 C 1.897186279296875 1 1 1.897193908691406 1 3 L 1 33 C 1 34.10280609130859 1.897186279296875 35 3 35 L 292 35 C 293.1028137207031 35 294 34.10280609130859 294 33 L 294 3 C 294 1.897193908691406 293.1028137207031 1 292 1 L 3 1 M 3 0 L 292 0 C 293.6568603515625 0 295 1.343154907226562 295 3 L 295 33 C 295 34.65684509277344 293.6568603515625 36 292 36 L 3 36 C 1.3431396484375 36 0 34.65684509277344 0 33 L 0 3 C 0 1.343154907226562 1.3431396484375 0 3 0 Z" stroke="none" fill="#fff"/>
      </g>
    </g>
    <path id="Trazado_137094" data-name="Trazado 137094" d="M82.2,15.563a4.068,4.068,0,0,1-1.789,1.176,7.492,7.492,0,0,1-2.562.418,5.076,5.076,0,0,1-2.59-.645,4.3,4.3,0,0,1-1.719-1.871,6.585,6.585,0,0,1-.621-2.883v-.773a6.994,6.994,0,0,1,.574-2.949,4.248,4.248,0,0,1,1.656-1.906,5.453,5.453,0,0,1,5.7.3A4.123,4.123,0,0,1,82.2,9.242H79.918a2.268,2.268,0,0,0-.691-1.43,2.208,2.208,0,0,0-1.473-.453,2.078,2.078,0,0,0-1.82.9A4.724,4.724,0,0,0,75.3,10.93v.727a4.5,4.5,0,0,0,.68,2.7,2.327,2.327,0,0,0,1.992.914,2.6,2.6,0,0,0,1.883-.562V12.75H77.723V11.023H82.2Zm5.641,1.594a4.15,4.15,0,0,1-3.027-1.141,4.054,4.054,0,0,1-1.168-3.039v-.219a5.106,5.106,0,0,1,.492-2.277,3.612,3.612,0,0,1,1.395-1.547,3.914,3.914,0,0,1,2.059-.543,3.508,3.508,0,0,1,2.73,1.094,4.444,4.444,0,0,1,1,3.1v.922H85.934a2.1,2.1,0,0,0,.66,1.328,2,2,0,0,0,1.395.5,2.437,2.437,0,0,0,2.039-.945l1.109,1.242a3.389,3.389,0,0,1-1.375,1.121A4.511,4.511,0,0,1,87.84,17.156Zm-.258-6.945a1.411,1.411,0,0,0-1.09.455,2.357,2.357,0,0,0-.535,1.3H89.1v-.181a1.681,1.681,0,0,0-.406-1.165A1.456,1.456,0,0,0,87.582,10.211Zm9.766.453a6.134,6.134,0,0,0-.812-.062,1.654,1.654,0,0,0-1.68.867V17H92.6V8.547H94.73l.063,1.008a2.092,2.092,0,0,1,1.883-1.164,2.366,2.366,0,0,1,.7.1Zm4.977,6.492A4.15,4.15,0,0,1,99.3,16.016a4.054,4.054,0,0,1-1.168-3.039v-.219a5.106,5.106,0,0,1,.492-2.277,3.612,3.612,0,0,1,1.395-1.547,3.914,3.914,0,0,1,2.059-.543,3.508,3.508,0,0,1,2.73,1.094,4.444,4.444,0,0,1,1,3.1v.922h-5.383a2.1,2.1,0,0,0,.66,1.328,2,2,0,0,0,1.395.5,2.437,2.437,0,0,0,2.039-.945l1.109,1.242a3.389,3.389,0,0,1-1.375,1.121A4.511,4.511,0,0,1,102.324,17.156Zm-.258-6.945a1.411,1.411,0,0,0-1.09.455,2.357,2.357,0,0,0-.535,1.3h3.141v-.181a1.681,1.681,0,0,0-.406-1.165A1.456,1.456,0,0,0,102.066,10.211Zm7.094-1.664.07.977a2.951,2.951,0,0,1,2.43-1.133,2.453,2.453,0,0,1,2,.789,3.682,3.682,0,0,1,.672,2.359V17h-2.258V11.594a1.465,1.465,0,0,0-.312-1.043,1.4,1.4,0,0,0-1.039-.324,1.553,1.553,0,0,0-1.43.813V17h-2.258V8.547Zm9.586-2.078V8.547h1.445V10.2h-1.445v4.219a1.007,1.007,0,0,0,.18.672.9.9,0,0,0,.688.2,3.6,3.6,0,0,0,.664-.055v1.711a4.648,4.648,0,0,1-1.367.2,2.156,2.156,0,0,1-2.422-2.4V10.2h-1.234V8.547h1.234V6.469Zm6.594,10.688a4.15,4.15,0,0,1-3.027-1.141,4.054,4.054,0,0,1-1.168-3.039v-.219a5.106,5.106,0,0,1,.492-2.277,3.612,3.612,0,0,1,1.395-1.547,3.914,3.914,0,0,1,2.059-.543,3.508,3.508,0,0,1,2.73,1.094,4.444,4.444,0,0,1,1,3.1v.922h-5.383a2.1,2.1,0,0,0,.66,1.328,2,2,0,0,0,1.395.5,2.437,2.437,0,0,0,2.039-.945l1.109,1.242a3.389,3.389,0,0,1-1.375,1.121A4.511,4.511,0,0,1,125.34,17.156Zm-.258-6.945a1.411,1.411,0,0,0-1.09.455,2.357,2.357,0,0,0-.535,1.3H126.6v-.181a1.681,1.681,0,0,0-.406-1.165A1.456,1.456,0,0,0,125.082,10.211Zm8.648,2.5a5.094,5.094,0,0,1,.887-3.148,2.877,2.877,0,0,1,2.426-1.172,2.589,2.589,0,0,1,2.039.922V5h2.266V17h-2.039l-.109-.9a2.657,2.657,0,0,1-2.172,1.055,2.869,2.869,0,0,1-2.395-1.176A5.258,5.258,0,0,1,133.73,12.711Zm2.258.168A3.337,3.337,0,0,0,136.4,14.7a1.349,1.349,0,0,0,1.2.634,1.511,1.511,0,0,0,1.477-.884V11.111a1.489,1.489,0,0,0-1.461-.884Q135.988,10.227,135.988,12.879Zm11,4.277a4.15,4.15,0,0,1-3.027-1.141,4.054,4.054,0,0,1-1.168-3.039v-.219a5.106,5.106,0,0,1,.492-2.277,3.612,3.612,0,0,1,1.395-1.547,3.914,3.914,0,0,1,2.059-.543,3.508,3.508,0,0,1,2.73,1.094,4.444,4.444,0,0,1,1,3.1v.922h-5.383a2.1,2.1,0,0,0,.66,1.328,2,2,0,0,0,1.395.5,2.437,2.437,0,0,0,2.039-.945l1.109,1.242a3.389,3.389,0,0,1-1.375,1.121A4.511,4.511,0,0,1,146.988,17.156Zm-.258-6.945a1.411,1.411,0,0,0-1.09.455,2.357,2.357,0,0,0-.535,1.3h3.141v-.181a1.681,1.681,0,0,0-.406-1.165A1.456,1.456,0,0,0,146.73,10.211Zm12.516,5.125a1.481,1.481,0,0,0,1.016-.344,1.2,1.2,0,0,0,.406-.914h2.117a2.9,2.9,0,0,1-.469,1.574,3.093,3.093,0,0,1-1.262,1.109,3.949,3.949,0,0,1-1.77.395A3.67,3.67,0,0,1,156.426,16a4.56,4.56,0,0,1-1.047-3.184v-.148a4.508,4.508,0,0,1,1.039-3.117,3.627,3.627,0,0,1,2.852-1.164,3.555,3.555,0,0,1,2.543.9,3.2,3.2,0,0,1,.973,2.4h-2.117a1.551,1.551,0,0,0-.406-1.072,1.51,1.51,0,0,0-2.223.163,3.333,3.333,0,0,0-.4,1.866v.235a3.375,3.375,0,0,0,.4,1.878A1.377,1.377,0,0,0,159.246,15.336ZM168.973,17a2.507,2.507,0,0,1-.227-.758,2.732,2.732,0,0,1-2.133.914,3,3,0,0,1-2.059-.719,2.312,2.312,0,0,1-.816-1.812,2.389,2.389,0,0,1,1-2.062,4.915,4.915,0,0,1,2.879-.727h1.039v-.484a1.393,1.393,0,0,0-.3-.937,1.183,1.183,0,0,0-.949-.352,1.345,1.345,0,0,0-.895.273.929.929,0,0,0-.324.75h-2.258a2.268,2.268,0,0,1,.453-1.359,3,3,0,0,1,1.281-.98,4.669,4.669,0,0,1,1.859-.355,3.689,3.689,0,0,1,2.48.785,2.747,2.747,0,0,1,.918,2.207v3.664a4.041,4.041,0,0,0,.336,1.82V17Zm-1.867-1.57a1.945,1.945,0,0,0,.922-.223,1.462,1.462,0,0,0,.625-.6V13.156h-.844q-1.7,0-1.8,1.172l-.008.133a.9.9,0,0,0,.3.7A1.153,1.153,0,0,0,167.105,15.43Zm8.25-8.961V8.547H176.8V10.2h-1.445v4.219a1.007,1.007,0,0,0,.18.672.9.9,0,0,0,.688.2,3.6,3.6,0,0,0,.664-.055v1.711a4.648,4.648,0,0,1-1.367.2,2.156,2.156,0,0,1-2.422-2.4V10.2h-1.234V8.547H173.1V6.469Zm6.594,10.688a4.15,4.15,0,0,1-3.027-1.141,4.054,4.054,0,0,1-1.168-3.039v-.219a5.106,5.106,0,0,1,.492-2.277,3.612,3.612,0,0,1,1.395-1.547,3.914,3.914,0,0,1,2.059-.543,3.508,3.508,0,0,1,2.73,1.094,4.444,4.444,0,0,1,1,3.1v.922h-5.383a2.1,2.1,0,0,0,.66,1.328,2,2,0,0,0,1.395.5,2.437,2.437,0,0,0,2.039-.945l1.109,1.242a3.389,3.389,0,0,1-1.375,1.121A4.511,4.511,0,0,1,181.949,17.156Zm-.258-6.945a1.411,1.411,0,0,0-1.09.455,2.357,2.357,0,0,0-.535,1.3h3.141v-.181a1.681,1.681,0,0,0-.406-1.165A1.456,1.456,0,0,0,181.691,10.211Zm4.688,2.5a4.954,4.954,0,0,1,.926-3.133,3,3,0,0,1,2.5-1.187,2.631,2.631,0,0,1,2.164.953l.094-.8h2.047v8.172a3.613,3.613,0,0,1-.5,1.93,3.236,3.236,0,0,1-1.418,1.25,4.985,4.985,0,0,1-2.141.43,4.635,4.635,0,0,1-1.812-.371A3.217,3.217,0,0,1,186.895,19l1-1.375a2.645,2.645,0,0,0,2.047.945,1.936,1.936,0,0,0,1.4-.48,1.8,1.8,0,0,0,.5-1.363v-.453a2.612,2.612,0,0,1-2.055.883,2.992,2.992,0,0,1-2.465-1.191,4.953,4.953,0,0,1-.941-3.16Zm2.258.168a3.085,3.085,0,0,0,.461,1.8,1.466,1.466,0,0,0,1.266.653,1.568,1.568,0,0,0,1.477-.775V11a1.564,1.564,0,0,0-1.461-.775,1.476,1.476,0,0,0-1.277.665A3.477,3.477,0,0,0,188.637,12.879Zm6.852-.184a5.013,5.013,0,0,1,.484-2.242,3.546,3.546,0,0,1,1.395-1.523,4.069,4.069,0,0,1,2.113-.539,3.849,3.849,0,0,1,2.793,1.047,4.2,4.2,0,0,1,1.207,2.844l.016.578a4.418,4.418,0,0,1-1.086,3.121,4.209,4.209,0,0,1-5.832,0,4.5,4.5,0,0,1-1.09-3.187Zm2.258.16A3.16,3.16,0,0,0,198.2,14.7a1.628,1.628,0,0,0,2.578.008,3.457,3.457,0,0,0,.461-2.015,3.128,3.128,0,0,0-.461-1.831,1.5,1.5,0,0,0-1.3-.649,1.474,1.474,0,0,0-1.281.646A3.516,3.516,0,0,0,197.746,12.856Zm11.891-2.192a6.134,6.134,0,0,0-.812-.062,1.654,1.654,0,0,0-1.68.867V17h-2.258V8.547h2.133l.063,1.008a2.092,2.092,0,0,1,1.883-1.164,2.366,2.366,0,0,1,.7.1ZM213.16,17H210.9V8.547h2.258ZM212.5,5.117h2.461l-2.164,2.422h-1.836ZM220,17a2.507,2.507,0,0,1-.227-.758,2.732,2.732,0,0,1-2.133.914,3,3,0,0,1-2.059-.719,2.312,2.312,0,0,1-.816-1.812,2.389,2.389,0,0,1,1-2.062,4.915,4.915,0,0,1,2.879-.727h1.039v-.484a1.393,1.393,0,0,0-.3-.937,1.183,1.183,0,0,0-.949-.352,1.345,1.345,0,0,0-.895.273.929.929,0,0,0-.324.75h-2.258a2.268,2.268,0,0,1,.453-1.359,3,3,0,0,1,1.281-.98,4.669,4.669,0,0,1,1.859-.355,3.689,3.689,0,0,1,2.48.785,2.747,2.747,0,0,1,.918,2.207v3.664a4.041,4.041,0,0,0,.336,1.82V17Zm-1.867-1.57a1.945,1.945,0,0,0,.922-.223,1.462,1.462,0,0,0,.625-.6V13.156h-.844q-1.7,0-1.8,1.172l-.008.133a.9.9,0,0,0,.3.7A1.153,1.153,0,0,0,218.137,15.43Z" transform="translate(810 3762)" fill="#12263f"/>
    <g transform="matrix(1, 0, 0, 1, 486, 3659)" filter="url(#Trazado_137090)">
      <g id="Trazado_137090-2" data-name="Trazado 137090" transform="translate(324 50)" fill="#d2e1f1">
        <path d="M 292 35.5 L 3 35.5 C 1.621500015258789 35.5 0.5 34.37850189208984 0.5 33 L 0.5 3 C 0.5 1.621500015258789 1.621500015258789 0.5 3 0.5 L 292 0.5 C 293.3785095214844 0.5 294.5 1.621500015258789 294.5 3 L 294.5 33 C 294.5 34.37850189208984 293.3785095214844 35.5 292 35.5 Z" stroke="none"/>
        <path d="M 3 1 C 1.897186279296875 1 1 1.897193908691406 1 3 L 1 33 C 1 34.10280609130859 1.897186279296875 35 3 35 L 292 35 C 293.1028137207031 35 294 34.10280609130859 294 33 L 294 3 C 294 1.897193908691406 293.1028137207031 1 292 1 L 3 1 M 3 0 L 292 0 C 293.6568603515625 0 295 1.343154907226562 295 3 L 295 33 C 295 34.65684509277344 293.6568603515625 36 292 36 L 3 36 C 1.3431396484375 36 0 34.65684509277344 0 33 L 0 3 C 0 1.343154907226562 1.3431396484375 0 3 0 Z" stroke="none" fill="#fff"/>
      </g>
    </g>
    <path id="Trazado_137095" data-name="Trazado 137095" d="M66.734,15.563a4.068,4.068,0,0,1-1.789,1.176,7.492,7.492,0,0,1-2.562.418,5.076,5.076,0,0,1-2.59-.645,4.3,4.3,0,0,1-1.719-1.871,6.585,6.585,0,0,1-.621-2.883v-.773a6.994,6.994,0,0,1,.574-2.949,4.248,4.248,0,0,1,1.656-1.906,5.453,5.453,0,0,1,5.7.3,4.123,4.123,0,0,1,1.352,2.809H64.453a2.268,2.268,0,0,0-.691-1.43,2.208,2.208,0,0,0-1.473-.453,2.078,2.078,0,0,0-1.82.9,4.724,4.724,0,0,0-.633,2.672v.727a4.5,4.5,0,0,0,.68,2.7,2.327,2.327,0,0,0,1.992.914,2.6,2.6,0,0,0,1.883-.562V12.75H62.258V11.023h4.477Zm5.641,1.594a4.15,4.15,0,0,1-3.027-1.141,4.054,4.054,0,0,1-1.168-3.039v-.219a5.106,5.106,0,0,1,.492-2.277,3.612,3.612,0,0,1,1.395-1.547,3.914,3.914,0,0,1,2.059-.543,3.508,3.508,0,0,1,2.73,1.094,4.444,4.444,0,0,1,1,3.1v.922H70.469a2.1,2.1,0,0,0,.66,1.328,2,2,0,0,0,1.395.5,2.437,2.437,0,0,0,2.039-.945l1.109,1.242A3.389,3.389,0,0,1,74.3,16.754,4.511,4.511,0,0,1,72.375,17.156Zm-.258-6.945a1.411,1.411,0,0,0-1.09.455,2.357,2.357,0,0,0-.535,1.3h3.141v-.181a1.681,1.681,0,0,0-.406-1.165A1.456,1.456,0,0,0,72.117,10.211Zm9.766.453a6.134,6.134,0,0,0-.812-.062,1.654,1.654,0,0,0-1.68.867V17H77.133V8.547h2.133l.063,1.008a2.092,2.092,0,0,1,1.883-1.164,2.366,2.366,0,0,1,.7.1Zm4.977,6.492a4.15,4.15,0,0,1-3.027-1.141,4.054,4.054,0,0,1-1.168-3.039v-.219a5.106,5.106,0,0,1,.492-2.277,3.612,3.612,0,0,1,1.395-1.547,3.914,3.914,0,0,1,2.059-.543,3.508,3.508,0,0,1,2.73,1.094,4.444,4.444,0,0,1,1,3.1v.922H84.953a2.1,2.1,0,0,0,.66,1.328,2,2,0,0,0,1.395.5,2.437,2.437,0,0,0,2.039-.945l1.109,1.242a3.389,3.389,0,0,1-1.375,1.121A4.511,4.511,0,0,1,86.859,17.156ZM86.6,10.211a1.411,1.411,0,0,0-1.09.455,2.357,2.357,0,0,0-.535,1.3h3.141v-.181a1.681,1.681,0,0,0-.406-1.165A1.456,1.456,0,0,0,86.6,10.211ZM93.7,8.547l.07.977A2.951,2.951,0,0,1,96.2,8.391a2.453,2.453,0,0,1,2,.789,3.682,3.682,0,0,1,.672,2.359V17H96.609V11.594a1.465,1.465,0,0,0-.312-1.043,1.4,1.4,0,0,0-1.039-.324,1.553,1.553,0,0,0-1.43.813V17H91.57V8.547Zm9.586-2.078V8.547h1.445V10.2h-1.445v4.219a1.007,1.007,0,0,0,.18.672.9.9,0,0,0,.688.2,3.6,3.6,0,0,0,.664-.055v1.711a4.648,4.648,0,0,1-1.367.2,2.156,2.156,0,0,1-2.422-2.4V10.2H99.789V8.547h1.234V6.469Zm6.594,10.688a4.15,4.15,0,0,1-3.027-1.141,4.054,4.054,0,0,1-1.168-3.039v-.219a5.106,5.106,0,0,1,.492-2.277,3.612,3.612,0,0,1,1.395-1.547,3.914,3.914,0,0,1,2.059-.543,3.508,3.508,0,0,1,2.73,1.094,4.444,4.444,0,0,1,1,3.1v.922h-5.383a2.1,2.1,0,0,0,.66,1.328,2,2,0,0,0,1.395.5,2.437,2.437,0,0,0,2.039-.945l1.109,1.242a3.389,3.389,0,0,1-1.375,1.121A4.511,4.511,0,0,1,109.875,17.156Zm-.258-6.945a1.411,1.411,0,0,0-1.09.455,2.357,2.357,0,0,0-.535,1.3h3.141v-.181a1.681,1.681,0,0,0-.406-1.165A1.456,1.456,0,0,0,109.617,10.211Zm8.648,2.5a5.094,5.094,0,0,1,.887-3.148,2.877,2.877,0,0,1,2.426-1.172,2.589,2.589,0,0,1,2.039.922V5h2.266V17h-2.039l-.109-.9a2.657,2.657,0,0,1-2.172,1.055,2.869,2.869,0,0,1-2.395-1.176A5.258,5.258,0,0,1,118.266,12.711Zm2.258.168a3.337,3.337,0,0,0,.414,1.823,1.349,1.349,0,0,0,1.2.634,1.511,1.511,0,0,0,1.477-.884V11.111a1.489,1.489,0,0,0-1.461-.884Q120.523,10.227,120.523,12.879Zm11,4.277a4.15,4.15,0,0,1-3.027-1.141,4.054,4.054,0,0,1-1.168-3.039v-.219a5.106,5.106,0,0,1,.492-2.277,3.612,3.612,0,0,1,1.395-1.547,3.914,3.914,0,0,1,2.059-.543A3.508,3.508,0,0,1,134,9.484a4.444,4.444,0,0,1,1,3.1v.922h-5.383a2.1,2.1,0,0,0,.66,1.328,2,2,0,0,0,1.395.5,2.437,2.437,0,0,0,2.039-.945l1.109,1.242a3.389,3.389,0,0,1-1.375,1.121A4.511,4.511,0,0,1,131.523,17.156Zm-.258-6.945a1.411,1.411,0,0,0-1.09.455,2.357,2.357,0,0,0-.535,1.3h3.141v-.181a1.681,1.681,0,0,0-.406-1.165A1.456,1.456,0,0,0,131.266,10.211Zm12.516,5.125a1.481,1.481,0,0,0,1.016-.344,1.2,1.2,0,0,0,.406-.914h2.117a2.9,2.9,0,0,1-.469,1.574,3.093,3.093,0,0,1-1.262,1.109,3.949,3.949,0,0,1-1.77.395A3.67,3.67,0,0,1,140.961,16a4.56,4.56,0,0,1-1.047-3.184v-.148a4.508,4.508,0,0,1,1.039-3.117A3.627,3.627,0,0,1,143.8,8.391a3.555,3.555,0,0,1,2.543.9,3.2,3.2,0,0,1,.973,2.4H145.2a1.551,1.551,0,0,0-.406-1.072,1.51,1.51,0,0,0-2.223.163,3.333,3.333,0,0,0-.4,1.866v.235a3.375,3.375,0,0,0,.4,1.878A1.377,1.377,0,0,0,143.781,15.336Zm9.891.8a2.831,2.831,0,0,1-2.312,1.016,2.67,2.67,0,0,1-2.074-.781,3.335,3.335,0,0,1-.73-2.289V8.547h2.258v5.467q0,1.322,1.2,1.322a1.63,1.63,0,0,0,1.578-.8V8.547h2.266V17h-2.125Zm7.781,1.016a4.15,4.15,0,0,1-3.027-1.141,4.054,4.054,0,0,1-1.168-3.039v-.219a5.106,5.106,0,0,1,.492-2.277,3.612,3.612,0,0,1,1.395-1.547,3.914,3.914,0,0,1,2.059-.543,3.508,3.508,0,0,1,2.73,1.094,4.444,4.444,0,0,1,1,3.1v.922h-5.383a2.1,2.1,0,0,0,.66,1.328,2,2,0,0,0,1.395.5,2.437,2.437,0,0,0,2.039-.945l1.109,1.242a3.389,3.389,0,0,1-1.375,1.121A4.511,4.511,0,0,1,161.453,17.156Zm-.258-6.945a1.411,1.411,0,0,0-1.09.455,2.357,2.357,0,0,0-.535,1.3h3.141v-.181a1.681,1.681,0,0,0-.406-1.165A1.456,1.456,0,0,0,161.2,10.211Zm7.094-1.664.07.977a2.951,2.951,0,0,1,2.43-1.133,2.453,2.453,0,0,1,2,.789,3.682,3.682,0,0,1,.672,2.359V17H171.2V11.594a1.465,1.465,0,0,0-.312-1.043,1.4,1.4,0,0,0-1.039-.324,1.553,1.553,0,0,0-1.43.813V17h-2.258V8.547Zm9.586-2.078V8.547h1.445V10.2h-1.445v4.219a1.007,1.007,0,0,0,.18.672.9.9,0,0,0,.688.2,3.6,3.6,0,0,0,.664-.055v1.711a4.648,4.648,0,0,1-1.367.2,2.156,2.156,0,0,1-2.422-2.4V10.2h-1.234V8.547h1.234V6.469ZM185.477,17a2.507,2.507,0,0,1-.227-.758,2.732,2.732,0,0,1-2.133.914,3,3,0,0,1-2.059-.719,2.312,2.312,0,0,1-.816-1.812,2.389,2.389,0,0,1,1-2.062,4.915,4.915,0,0,1,2.879-.727h1.039v-.484a1.393,1.393,0,0,0-.3-.937,1.183,1.183,0,0,0-.949-.352,1.345,1.345,0,0,0-.895.273.929.929,0,0,0-.324.75H180.43a2.268,2.268,0,0,1,.453-1.359,3,3,0,0,1,1.281-.98,4.669,4.669,0,0,1,1.859-.355,3.689,3.689,0,0,1,2.48.785,2.747,2.747,0,0,1,.918,2.207v3.664a4.041,4.041,0,0,0,.336,1.82V17Zm-1.867-1.57a1.945,1.945,0,0,0,.922-.223,1.462,1.462,0,0,0,.625-.6V13.156h-.844q-1.7,0-1.8,1.172l-.008.133a.9.9,0,0,0,.3.7A1.153,1.153,0,0,0,183.609,15.43Zm10.125-.766a.727.727,0,0,0-.41-.652,4.659,4.659,0,0,0-1.316-.426q-3.016-.633-3.016-2.562a2.323,2.323,0,0,1,.934-1.879,3.766,3.766,0,0,1,2.441-.754,4.053,4.053,0,0,1,2.574.758,2.388,2.388,0,0,1,.965,1.969h-2.258a1.092,1.092,0,0,0-.312-.8,1.322,1.322,0,0,0-.977-.316,1.351,1.351,0,0,0-.883.258.814.814,0,0,0-.312.656.7.7,0,0,0,.355.605,3.657,3.657,0,0,0,1.2.4,9.8,9.8,0,0,1,1.422.379,2.336,2.336,0,0,1,1.789,2.273,2.205,2.205,0,0,1-.992,1.871,4.28,4.28,0,0,1-2.562.715,4.47,4.47,0,0,1-1.887-.379,3.166,3.166,0,0,1-1.293-1.039,2.414,2.414,0,0,1-.469-1.426h2.141a1.179,1.179,0,0,0,.445.922,1.766,1.766,0,0,0,1.109.32,1.635,1.635,0,0,0,.98-.246A.766.766,0,0,0,193.734,14.664Zm11.148.672a1.481,1.481,0,0,0,1.016-.344,1.2,1.2,0,0,0,.406-.914h2.117a2.9,2.9,0,0,1-.469,1.574,3.093,3.093,0,0,1-1.262,1.109,3.949,3.949,0,0,1-1.77.395A3.67,3.67,0,0,1,202.063,16a4.56,4.56,0,0,1-1.047-3.184v-.148a4.508,4.508,0,0,1,1.039-3.117,3.627,3.627,0,0,1,2.852-1.164,3.555,3.555,0,0,1,2.543.9,3.2,3.2,0,0,1,.973,2.4H206.3a1.551,1.551,0,0,0-.406-1.072,1.51,1.51,0,0,0-2.223.163,3.333,3.333,0,0,0-.4,1.866v.235a3.375,3.375,0,0,0,.4,1.878A1.377,1.377,0,0,0,204.883,15.336ZM212.094,17h-2.266V5h2.266Zm6.758,0a2.507,2.507,0,0,1-.227-.758,2.732,2.732,0,0,1-2.133.914,3,3,0,0,1-2.059-.719,2.312,2.312,0,0,1-.816-1.812,2.389,2.389,0,0,1,1-2.062,4.915,4.915,0,0,1,2.879-.727h1.039v-.484a1.393,1.393,0,0,0-.3-.937,1.183,1.183,0,0,0-.949-.352,1.345,1.345,0,0,0-.895.273.929.929,0,0,0-.324.75H213.8a2.268,2.268,0,0,1,.453-1.359,3,3,0,0,1,1.281-.98,4.669,4.669,0,0,1,1.859-.355,3.689,3.689,0,0,1,2.48.785,2.747,2.747,0,0,1,.918,2.207v3.664a4.041,4.041,0,0,0,.336,1.82V17Zm-1.867-1.57a1.945,1.945,0,0,0,.922-.223,1.462,1.462,0,0,0,.625-.6V13.156h-.844q-1.7,0-1.8,1.172l-.008.133a.9.9,0,0,0,.3.7A1.153,1.153,0,0,0,216.984,15.43Zm8.594-1.187,1.57-5.7h2.359L226.656,17H224.5l-2.852-8.453h2.359Zm8.813,2.914a4.15,4.15,0,0,1-3.027-1.141,4.054,4.054,0,0,1-1.168-3.039v-.219a5.106,5.106,0,0,1,.492-2.277,3.612,3.612,0,0,1,1.395-1.547,3.914,3.914,0,0,1,2.059-.543,3.508,3.508,0,0,1,2.73,1.094,4.444,4.444,0,0,1,1,3.1v.922h-5.383a2.1,2.1,0,0,0,.66,1.328,2,2,0,0,0,1.395.5,2.437,2.437,0,0,0,2.039-.945l1.109,1.242a3.389,3.389,0,0,1-1.375,1.121A4.511,4.511,0,0,1,234.391,17.156Zm-.258-6.945a1.411,1.411,0,0,0-1.09.455,2.357,2.357,0,0,0-.535,1.3h3.141v-.181a1.681,1.681,0,0,0-.406-1.165A1.456,1.456,0,0,0,234.133,10.211Z" transform="translate(810 3718)" fill="#12263f"/>
    <g transform="matrix(1, 0, 0, 1, 486, 3659)" filter="url(#Trazado_137091)">
      <g id="Trazado_137091-2" data-name="Trazado 137091" transform="translate(324 137)" fill="#d2e1f1">
        <path d="M 292 35.5 L 3 35.5 C 1.621500015258789 35.5 0.5 34.37850189208984 0.5 33 L 0.5 3 C 0.5 1.621500015258789 1.621500015258789 0.5 3 0.5 L 292 0.5 C 293.3785095214844 0.5 294.5 1.621500015258789 294.5 3 L 294.5 33 C 294.5 34.37850189208984 293.3785095214844 35.5 292 35.5 Z" stroke="none"/>
        <path d="M 3 1 C 1.897186279296875 1 1 1.897193908691406 1 3 L 1 33 C 1 34.10280609130859 1.897186279296875 35 3 35 L 292 35 C 293.1028137207031 35 294 34.10280609130859 294 33 L 294 3 C 294 1.897193908691406 293.1028137207031 1 292 1 L 3 1 M 3 0 L 292 0 C 293.6568603515625 0 295 1.343154907226562 295 3 L 295 33 C 295 34.65684509277344 293.6568603515625 36 292 36 L 3 36 C 1.3431396484375 36 0 34.65684509277344 0 33 L 0 3 C 0 1.343154907226562 1.3431396484375 0 3 0 Z" stroke="none" fill="#fff"/>
      </g>
    </g>
    <path id="Trazado_137096" data-name="Trazado 137096" d="M90.582,15.563a4.068,4.068,0,0,1-1.789,1.176,7.492,7.492,0,0,1-2.562.418,5.076,5.076,0,0,1-2.59-.645,4.3,4.3,0,0,1-1.719-1.871,6.585,6.585,0,0,1-.621-2.883v-.773a6.994,6.994,0,0,1,.574-2.949,4.248,4.248,0,0,1,1.656-1.906,5.453,5.453,0,0,1,5.7.3,4.123,4.123,0,0,1,1.352,2.809H88.3a2.268,2.268,0,0,0-.691-1.43,2.208,2.208,0,0,0-1.473-.453,2.078,2.078,0,0,0-1.82.9,4.724,4.724,0,0,0-.633,2.672v.727a4.5,4.5,0,0,0,.68,2.7,2.327,2.327,0,0,0,1.992.914,2.6,2.6,0,0,0,1.883-.562V12.75H86.105V11.023h4.477Zm5.641,1.594A4.15,4.15,0,0,1,93.2,16.016a4.054,4.054,0,0,1-1.168-3.039v-.219a5.106,5.106,0,0,1,.492-2.277,3.612,3.612,0,0,1,1.395-1.547,3.914,3.914,0,0,1,2.059-.543A3.508,3.508,0,0,1,98.7,9.484a4.444,4.444,0,0,1,1,3.1v.922H94.316a2.1,2.1,0,0,0,.66,1.328,2,2,0,0,0,1.395.5,2.437,2.437,0,0,0,2.039-.945l1.109,1.242a3.389,3.389,0,0,1-1.375,1.121A4.511,4.511,0,0,1,96.223,17.156Zm-.258-6.945a1.411,1.411,0,0,0-1.09.455,2.357,2.357,0,0,0-.535,1.3H97.48v-.181a1.681,1.681,0,0,0-.406-1.165A1.456,1.456,0,0,0,95.965,10.211Zm9.766.453a6.134,6.134,0,0,0-.812-.062,1.654,1.654,0,0,0-1.68.867V17H100.98V8.547h2.133l.063,1.008a2.092,2.092,0,0,1,1.883-1.164,2.366,2.366,0,0,1,.7.1Zm4.977,6.492a4.15,4.15,0,0,1-3.027-1.141,4.054,4.054,0,0,1-1.168-3.039v-.219A5.106,5.106,0,0,1,107,10.48,3.612,3.612,0,0,1,108.4,8.934a3.914,3.914,0,0,1,2.059-.543,3.508,3.508,0,0,1,2.73,1.094,4.444,4.444,0,0,1,1,3.1v.922H108.8a2.1,2.1,0,0,0,.66,1.328,2,2,0,0,0,1.395.5,2.437,2.437,0,0,0,2.039-.945L114,15.633a3.389,3.389,0,0,1-1.375,1.121A4.511,4.511,0,0,1,110.707,17.156Zm-.258-6.945a1.411,1.411,0,0,0-1.09.455,2.357,2.357,0,0,0-.535,1.3h3.141v-.181a1.681,1.681,0,0,0-.406-1.165A1.456,1.456,0,0,0,110.449,10.211Zm7.094-1.664.07.977a2.951,2.951,0,0,1,2.43-1.133,2.453,2.453,0,0,1,2,.789,3.682,3.682,0,0,1,.672,2.359V17h-2.258V11.594a1.465,1.465,0,0,0-.312-1.043,1.4,1.4,0,0,0-1.039-.324,1.553,1.553,0,0,0-1.43.813V17h-2.258V8.547Zm9.586-2.078V8.547h1.445V10.2h-1.445v4.219a1.007,1.007,0,0,0,.18.672.9.9,0,0,0,.688.2,3.6,3.6,0,0,0,.664-.055v1.711a4.648,4.648,0,0,1-1.367.2,2.156,2.156,0,0,1-2.422-2.4V10.2h-1.234V8.547h1.234V6.469Zm6.594,10.688a4.15,4.15,0,0,1-3.027-1.141,4.054,4.054,0,0,1-1.168-3.039v-.219a5.106,5.106,0,0,1,.492-2.277,3.612,3.612,0,0,1,1.395-1.547,3.914,3.914,0,0,1,2.059-.543,3.508,3.508,0,0,1,2.73,1.094,4.444,4.444,0,0,1,1,3.1v.922h-5.383a2.1,2.1,0,0,0,.66,1.328,2,2,0,0,0,1.395.5,2.437,2.437,0,0,0,2.039-.945l1.109,1.242a3.389,3.389,0,0,1-1.375,1.121A4.511,4.511,0,0,1,133.723,17.156Zm-.258-6.945a1.411,1.411,0,0,0-1.09.455,2.357,2.357,0,0,0-.535,1.3h3.141v-.181a1.681,1.681,0,0,0-.406-1.165A1.456,1.456,0,0,0,133.465,10.211Zm8.648,2.5A5.094,5.094,0,0,1,143,9.563a2.877,2.877,0,0,1,2.426-1.172,2.589,2.589,0,0,1,2.039.922V5h2.266V17h-2.039l-.109-.9a2.657,2.657,0,0,1-2.172,1.055,2.869,2.869,0,0,1-2.395-1.176A5.258,5.258,0,0,1,142.113,12.711Zm2.258.168a3.337,3.337,0,0,0,.414,1.823,1.349,1.349,0,0,0,1.2.634,1.511,1.511,0,0,0,1.477-.884V11.111A1.489,1.489,0,0,0,146,10.227Q144.371,10.227,144.371,12.879Zm11,4.277a4.15,4.15,0,0,1-3.027-1.141,4.054,4.054,0,0,1-1.168-3.039v-.219a5.106,5.106,0,0,1,.492-2.277,3.612,3.612,0,0,1,1.395-1.547,3.914,3.914,0,0,1,2.059-.543,3.508,3.508,0,0,1,2.73,1.094,4.444,4.444,0,0,1,1,3.1v.922h-5.383a2.1,2.1,0,0,0,.66,1.328,2,2,0,0,0,1.395.5,2.437,2.437,0,0,0,2.039-.945l1.109,1.242a3.389,3.389,0,0,1-1.375,1.121A4.511,4.511,0,0,1,155.371,17.156Zm-.258-6.945a1.411,1.411,0,0,0-1.09.455,2.357,2.357,0,0,0-.535,1.3h3.141v-.181a1.681,1.681,0,0,0-.406-1.165A1.456,1.456,0,0,0,155.113,10.211Zm8.648,2.5a5.094,5.094,0,0,1,.887-3.148,2.877,2.877,0,0,1,2.426-1.172,2.589,2.589,0,0,1,2.039.922V5h2.266V17H169.34l-.109-.9a2.657,2.657,0,0,1-2.172,1.055,2.869,2.869,0,0,1-2.395-1.176A5.258,5.258,0,0,1,163.762,12.711Zm2.258.168a3.337,3.337,0,0,0,.414,1.823,1.349,1.349,0,0,0,1.2.634,1.511,1.511,0,0,0,1.477-.884V11.111a1.489,1.489,0,0,0-1.461-.884Q166.02,10.227,166.02,12.879ZM175.512,17h-2.266V8.547h2.266Zm-2.4-10.641a1.112,1.112,0,0,1,.34-.836,1.465,1.465,0,0,1,1.848,0,1.105,1.105,0,0,1,.344.836,1.109,1.109,0,0,1-.348.844,1.448,1.448,0,0,1-1.836,0A1.109,1.109,0,0,1,173.113,6.359Zm8.836,8.3a.727.727,0,0,0-.41-.652,4.659,4.659,0,0,0-1.316-.426q-3.016-.633-3.016-2.562a2.323,2.323,0,0,1,.934-1.879,3.766,3.766,0,0,1,2.441-.754,4.053,4.053,0,0,1,2.574.758,2.388,2.388,0,0,1,.965,1.969h-2.258a1.092,1.092,0,0,0-.312-.8,1.322,1.322,0,0,0-.977-.316,1.351,1.351,0,0,0-.883.258.814.814,0,0,0-.312.656.7.7,0,0,0,.355.605,3.657,3.657,0,0,0,1.2.4,9.8,9.8,0,0,1,1.422.379,2.336,2.336,0,0,1,1.789,2.273,2.205,2.205,0,0,1-.992,1.871,4.28,4.28,0,0,1-2.562.715,4.47,4.47,0,0,1-1.887-.379,3.166,3.166,0,0,1-1.293-1.039,2.414,2.414,0,0,1-.469-1.426h2.141a1.179,1.179,0,0,0,.445.922,1.766,1.766,0,0,0,1.109.32,1.635,1.635,0,0,0,.98-.246A.766.766,0,0,0,181.949,14.664Zm6.352-8.2V8.547h1.445V10.2H188.3v4.219a1.007,1.007,0,0,0,.18.672.9.9,0,0,0,.688.2,3.6,3.6,0,0,0,.664-.055v1.711a4.648,4.648,0,0,1-1.367.2,2.156,2.156,0,0,1-2.422-2.4V10.2h-1.234V8.547h1.234V6.469Zm7.453,4.2a6.134,6.134,0,0,0-.812-.062,1.654,1.654,0,0,0-1.68.867V17H191V8.547h2.133l.063,1.008a2.092,2.092,0,0,1,1.883-1.164,2.366,2.366,0,0,1,.7.1ZM199.223,17h-2.266V8.547h2.266Zm-2.4-10.641a1.112,1.112,0,0,1,.34-.836,1.465,1.465,0,0,1,1.848,0,1.105,1.105,0,0,1,.344.836,1.109,1.109,0,0,1-.348.844,1.448,1.448,0,0,1-1.836,0A1.109,1.109,0,0,1,196.824,6.359Zm6.961.109V8.547h1.445V10.2h-1.445v4.219a1.007,1.007,0,0,0,.18.672.9.9,0,0,0,.688.2,3.6,3.6,0,0,0,.664-.055v1.711a4.648,4.648,0,0,1-1.367.2,2.156,2.156,0,0,1-2.422-2.4V10.2h-1.234V8.547h1.234V6.469ZM205.9,12.7a5.013,5.013,0,0,1,.484-2.242,3.546,3.546,0,0,1,1.395-1.523,4.069,4.069,0,0,1,2.113-.539,3.849,3.849,0,0,1,2.793,1.047,4.2,4.2,0,0,1,1.207,2.844l.016.578a4.418,4.418,0,0,1-1.086,3.121,4.209,4.209,0,0,1-5.832,0A4.5,4.5,0,0,1,205.9,12.8Zm2.258.16a3.16,3.16,0,0,0,.453,1.843,1.628,1.628,0,0,0,2.578.008,3.457,3.457,0,0,0,.461-2.015,3.128,3.128,0,0,0-.461-1.831,1.5,1.5,0,0,0-1.3-.649,1.474,1.474,0,0,0-1.281.646A3.516,3.516,0,0,0,208.16,12.856Z" transform="translate(810 3805)" fill="#12263f"/>
    <g transform="matrix(1, 0, 0, 1, 486, 3659)" filter="url(#Trazado_137092)">
      <g id="Trazado_137092-2" data-name="Trazado 137092" transform="translate(324 181)" fill="#d2e1f1">
        <path d="M 292 35.5 L 3 35.5 C 1.621500015258789 35.5 0.5 34.37850189208984 0.5 33 L 0.5 3 C 0.5 1.621500015258789 1.621500015258789 0.5 3 0.5 L 292 0.5 C 293.3785095214844 0.5 294.5 1.621500015258789 294.5 3 L 294.5 33 C 294.5 34.37850189208984 293.3785095214844 35.5 292 35.5 Z" stroke="none"/>
        <path d="M 3 1 C 1.897186279296875 1 1 1.897193908691406 1 3 L 1 33 C 1 34.10280609130859 1.897186279296875 35 3 35 L 292 35 C 293.1028137207031 35 294 34.10280609130859 294 33 L 294 3 C 294 1.897193908691406 293.1028137207031 1 292 1 L 3 1 M 3 0 L 292 0 C 293.6568603515625 0 295 1.343154907226562 295 3 L 295 33 C 295 34.65684509277344 293.6568603515625 36 292 36 L 3 36 C 1.3431396484375 36 0 34.65684509277344 0 33 L 0 3 C 0 1.343154907226562 1.3431396484375 0 3 0 Z" stroke="none" fill="#fff"/>
      </g>
    </g>
    <path id="Trazado_137097" data-name="Trazado 137097" d="M78.715,14.016A1.2,1.2,0,0,0,78.246,13a6.148,6.148,0,0,0-1.687-.75,11.963,11.963,0,0,1-1.93-.777,3.153,3.153,0,0,1-1.937-2.82A2.747,2.747,0,0,1,73.211,7,3.389,3.389,0,0,1,74.7,5.875a5.616,5.616,0,0,1,2.184-.406,5.112,5.112,0,0,1,2.172.441,3.458,3.458,0,0,1,1.48,1.246,3.261,3.261,0,0,1,.527,1.828H78.723A1.534,1.534,0,0,0,78.23,7.77a2.023,2.023,0,0,0-1.383-.434,2.162,2.162,0,0,0-1.336.363,1.146,1.146,0,0,0-.477.957,1.1,1.1,0,0,0,.559.93,6.311,6.311,0,0,0,1.645.7,7.106,7.106,0,0,1,2.914,1.492A2.972,2.972,0,0,1,81.066,14a2.737,2.737,0,0,1-1.117,2.316,4.891,4.891,0,0,1-3.008.84,5.808,5.808,0,0,1-2.391-.48,3.783,3.783,0,0,1-1.645-1.316,3.371,3.371,0,0,1-.566-1.937h2.352q0,1.883,2.25,1.883a2.189,2.189,0,0,0,1.3-.34A1.106,1.106,0,0,0,78.715,14.016Zm8.852,2.125a2.831,2.831,0,0,1-2.312,1.016,2.67,2.67,0,0,1-2.074-.781,3.335,3.335,0,0,1-.73-2.289V8.547h2.258v5.467q0,1.322,1.2,1.322a1.63,1.63,0,0,0,1.578-.8V8.547h2.266V17H87.629Zm11.5-3.289a5.07,5.07,0,0,1-.887,3.129,2.843,2.843,0,0,1-2.395,1.176,2.633,2.633,0,0,1-2.07-.891V20.25H91.457V8.547h2.094l.078.828a2.654,2.654,0,0,1,2.141-.984A2.862,2.862,0,0,1,98.2,9.547a5.207,5.207,0,0,1,.867,3.188Zm-2.258-.164a3.327,3.327,0,0,0-.418-1.82,1.361,1.361,0,0,0-1.215-.641,1.478,1.478,0,0,0-1.461.813V14.5a1.5,1.5,0,0,0,1.477.836Q96.809,15.336,96.809,12.688Zm7.547,4.469a4.15,4.15,0,0,1-3.027-1.141,4.054,4.054,0,0,1-1.168-3.039v-.219a5.106,5.106,0,0,1,.492-2.277,3.612,3.612,0,0,1,1.395-1.547,3.914,3.914,0,0,1,2.059-.543,3.508,3.508,0,0,1,2.73,1.094,4.444,4.444,0,0,1,1,3.1v.922h-5.383a2.1,2.1,0,0,0,.66,1.328,2,2,0,0,0,1.395.5,2.437,2.437,0,0,0,2.039-.945l1.109,1.242a3.389,3.389,0,0,1-1.375,1.121A4.511,4.511,0,0,1,104.355,17.156Zm-.258-6.945a1.411,1.411,0,0,0-1.09.455,2.357,2.357,0,0,0-.535,1.3h3.141v-.181a1.681,1.681,0,0,0-.406-1.165A1.456,1.456,0,0,0,104.1,10.211Zm9.766.453a6.134,6.134,0,0,0-.812-.062,1.654,1.654,0,0,0-1.68.867V17h-2.258V8.547h2.133l.063,1.008a2.092,2.092,0,0,1,1.883-1.164,2.366,2.366,0,0,1,.7.1Zm4.391,3.578,1.57-5.7h2.359L119.332,17h-2.156l-2.852-8.453h2.359Zm7.3,2.758h-2.266V8.547h2.266Zm-2.4-10.641a1.112,1.112,0,0,1,.34-.836,1.465,1.465,0,0,1,1.848,0,1.105,1.105,0,0,1,.344.836,1.108,1.108,0,0,1-.348.844,1.448,1.448,0,0,1-1.836,0A1.108,1.108,0,0,1,123.16,6.359Zm8.836,8.3a.727.727,0,0,0-.41-.652,4.659,4.659,0,0,0-1.316-.426q-3.016-.633-3.016-2.562a2.323,2.323,0,0,1,.934-1.879,3.766,3.766,0,0,1,2.441-.754,4.053,4.053,0,0,1,2.574.758,2.388,2.388,0,0,1,.965,1.969H131.91a1.092,1.092,0,0,0-.312-.8,1.322,1.322,0,0,0-.977-.316,1.351,1.351,0,0,0-.883.258.814.814,0,0,0-.312.656.7.7,0,0,0,.355.605,3.657,3.657,0,0,0,1.2.4,9.8,9.8,0,0,1,1.422.379,2.336,2.336,0,0,1,1.789,2.273,2.205,2.205,0,0,1-.992,1.871,4.28,4.28,0,0,1-2.562.715,4.47,4.47,0,0,1-1.887-.379,3.166,3.166,0,0,1-1.293-1.039,2.414,2.414,0,0,1-.469-1.426h2.141a1.179,1.179,0,0,0,.445.922,1.766,1.766,0,0,0,1.109.32,1.635,1.635,0,0,0,.98-.246A.766.766,0,0,0,132,14.664Zm3.3-1.969a5.013,5.013,0,0,1,.484-2.242,3.546,3.546,0,0,1,1.395-1.523,4.069,4.069,0,0,1,2.113-.539,3.849,3.849,0,0,1,2.793,1.047,4.2,4.2,0,0,1,1.207,2.844l.016.578a4.418,4.418,0,0,1-1.086,3.121,4.209,4.209,0,0,1-5.832,0,4.5,4.5,0,0,1-1.09-3.187Zm2.258.16A3.16,3.16,0,0,0,138,14.7a1.628,1.628,0,0,0,2.578.008,3.457,3.457,0,0,0,.461-2.015,3.128,3.128,0,0,0-.461-1.831,1.5,1.5,0,0,0-1.3-.649,1.474,1.474,0,0,0-1.281.646A3.516,3.516,0,0,0,137.551,12.856Zm11.891-2.192a6.134,6.134,0,0,0-.812-.062,1.654,1.654,0,0,0-1.68.867V17h-2.258V8.547h2.133l.063,1.008a2.092,2.092,0,0,1,1.883-1.164,2.366,2.366,0,0,1,.7.1Zm4.719,2.047a5.094,5.094,0,0,1,.887-3.148,2.877,2.877,0,0,1,2.426-1.172,2.589,2.589,0,0,1,2.039.922V5h2.266V17h-2.039l-.109-.9a2.657,2.657,0,0,1-2.172,1.055,2.869,2.869,0,0,1-2.395-1.176A5.258,5.258,0,0,1,154.16,12.711Zm2.258.168a3.337,3.337,0,0,0,.414,1.823,1.349,1.349,0,0,0,1.2.634,1.511,1.511,0,0,0,1.477-.884V11.111a1.489,1.489,0,0,0-1.461-.884Q156.418,10.227,156.418,12.879Zm11,4.277a4.15,4.15,0,0,1-3.027-1.141,4.054,4.054,0,0,1-1.168-3.039v-.219a5.106,5.106,0,0,1,.492-2.277,3.612,3.612,0,0,1,1.395-1.547,3.914,3.914,0,0,1,2.059-.543,3.508,3.508,0,0,1,2.73,1.094,4.444,4.444,0,0,1,1,3.1v.922h-5.383a2.1,2.1,0,0,0,.66,1.328,2,2,0,0,0,1.395.5,2.437,2.437,0,0,0,2.039-.945l1.109,1.242a3.389,3.389,0,0,1-1.375,1.121A4.511,4.511,0,0,1,167.418,17.156Zm-.258-6.945a1.411,1.411,0,0,0-1.09.455,2.357,2.357,0,0,0-.535,1.3h3.141v-.181a1.681,1.681,0,0,0-.406-1.165A1.456,1.456,0,0,0,167.16,10.211Zm12.164,4.031,1.57-5.7h2.359L180.4,17h-2.156l-2.852-8.453h2.359Zm8.813,2.914a4.15,4.15,0,0,1-3.027-1.141,4.054,4.054,0,0,1-1.168-3.039v-.219a5.106,5.106,0,0,1,.492-2.277,3.612,3.612,0,0,1,1.395-1.547,3.914,3.914,0,0,1,2.059-.543,3.508,3.508,0,0,1,2.73,1.094,4.444,4.444,0,0,1,1,3.1v.922H186.23a2.1,2.1,0,0,0,.66,1.328,2,2,0,0,0,1.395.5,2.437,2.437,0,0,0,2.039-.945l1.109,1.242a3.389,3.389,0,0,1-1.375,1.121A4.511,4.511,0,0,1,188.137,17.156Zm-.258-6.945a1.411,1.411,0,0,0-1.09.455,2.357,2.357,0,0,0-.535,1.3h3.141v-.181a1.681,1.681,0,0,0-.406-1.165A1.456,1.456,0,0,0,187.879,10.211Zm7.094-1.664.07.977a2.951,2.951,0,0,1,2.43-1.133,2.453,2.453,0,0,1,2,.789,3.682,3.682,0,0,1,.672,2.359V17h-2.258V11.594a1.465,1.465,0,0,0-.312-1.043,1.4,1.4,0,0,0-1.039-.324,1.553,1.553,0,0,0-1.43.813V17h-2.258V8.547Zm9.586-2.078V8.547H206V10.2h-1.445v4.219a1.007,1.007,0,0,0,.18.672.9.9,0,0,0,.688.2,3.6,3.6,0,0,0,.664-.055v1.711a4.648,4.648,0,0,1-1.367.2,2.156,2.156,0,0,1-2.422-2.4V10.2h-1.234V8.547H202.3V6.469ZM212.16,17a2.507,2.507,0,0,1-.227-.758,2.732,2.732,0,0,1-2.133.914,3,3,0,0,1-2.059-.719,2.312,2.312,0,0,1-.816-1.812,2.389,2.389,0,0,1,1-2.062,4.915,4.915,0,0,1,2.879-.727h1.039v-.484a1.393,1.393,0,0,0-.3-.937,1.183,1.183,0,0,0-.949-.352,1.345,1.345,0,0,0-.895.273.929.929,0,0,0-.324.75h-2.258a2.268,2.268,0,0,1,.453-1.359,3,3,0,0,1,1.281-.98,4.669,4.669,0,0,1,1.859-.355,3.689,3.689,0,0,1,2.48.785,2.747,2.747,0,0,1,.918,2.207v3.664a4.041,4.041,0,0,0,.336,1.82V17Zm-1.867-1.57a1.945,1.945,0,0,0,.922-.223,1.462,1.462,0,0,0,.625-.6V13.156H211q-1.7,0-1.8,1.172l-.008.133a.9.9,0,0,0,.3.7A1.153,1.153,0,0,0,210.293,15.43Zm10.125-.766a.727.727,0,0,0-.41-.652,4.659,4.659,0,0,0-1.316-.426q-3.016-.633-3.016-2.562a2.323,2.323,0,0,1,.934-1.879,3.766,3.766,0,0,1,2.441-.754,4.053,4.053,0,0,1,2.574.758,2.388,2.388,0,0,1,.965,1.969h-2.258a1.092,1.092,0,0,0-.312-.8,1.322,1.322,0,0,0-.977-.316,1.351,1.351,0,0,0-.883.258.814.814,0,0,0-.312.656.7.7,0,0,0,.355.605,3.657,3.657,0,0,0,1.2.4,9.8,9.8,0,0,1,1.422.379,2.336,2.336,0,0,1,1.789,2.273,2.205,2.205,0,0,1-.992,1.871,4.28,4.28,0,0,1-2.562.715,4.47,4.47,0,0,1-1.887-.379,3.166,3.166,0,0,1-1.293-1.039,2.414,2.414,0,0,1-.469-1.426h2.141a1.179,1.179,0,0,0,.445.922,1.766,1.766,0,0,0,1.109.32,1.635,1.635,0,0,0,.98-.246A.766.766,0,0,0,220.418,14.664Z" transform="translate(810 3849)" fill="#12263f"/>
    <g id="Grupo_159401" data-name="Grupo 159401" transform="translate(565 3730.724)" clip-path="url(#clip-path)">
      <path id="Trazado_136514" data-name="Trazado 136514" d="M32.423,92.153A15.372,15.372,0,1,0,17.051,107.6,15.408,15.408,0,0,0,32.423,92.153" fill="#e07c3e"/>
      <path id="Trazado_136515" data-name="Trazado 136515" d="M21.4,97.736a7.408,7.408,0,0,1-8.69,0,8.77,8.77,0,0,0-4.37,7.139,15.306,15.306,0,0,0,17.429,0A8.771,8.771,0,0,0,21.4,97.736" fill="#009fe3"/>
      <path id="Trazado_136516" data-name="Trazado 136516" d="M24.5,91.662a7.446,7.446,0,1,0-7.446,7.481A7.464,7.464,0,0,0,24.5,91.662" fill="#ffef9b"/>
      <path id="Trazado_136517" data-name="Trazado 136517" d="M112.913,91.575A15.372,15.372,0,1,0,97.541,107.02a15.408,15.408,0,0,0,15.372-15.445" fill="#bae2f5"/>
      <path id="Trazado_136518" data-name="Trazado 136518" d="M112.913,91.575A15.372,15.372,0,1,0,97.541,107.02a15.408,15.408,0,0,0,15.372-15.445" fill="#bae2f5"/>
      <path id="Trazado_136519" data-name="Trazado 136519" d="M101.886,97.158a7.408,7.408,0,0,1-8.69,0,8.766,8.766,0,0,0-4.369,7.138,15.3,15.3,0,0,0,17.428,0,8.771,8.771,0,0,0-4.369-7.138" fill="#8cc9a4"/>
      <path id="Trazado_136520" data-name="Trazado 136520" d="M104.987,91.084a7.446,7.446,0,1,0-7.446,7.481,7.464,7.464,0,0,0,7.446-7.481" fill="#ffef9b"/>
      <path id="Trazado_136521" data-name="Trazado 136521" d="M89.433,50.123A31.684,31.684,0,1,0,57.75,81.956,31.758,31.758,0,0,0,89.433,50.123" fill="#c9f0ee"/>
      <path id="Trazado_136522" data-name="Trazado 136522" d="M73.353,45.422H71.335V38.033a.843.843,0,0,0-.843-.844H45.007a.844.844,0,0,0-.844.844v7.389H42.144A3.251,3.251,0,0,0,38.91,48.67v3.9a3.25,3.25,0,0,0,3.234,3.247h2.039A11.247,11.247,0,0,0,55.377,66.422h4.744A11.246,11.246,0,0,0,71.315,55.814h2.038a3.251,3.251,0,0,0,3.235-3.247v-3.9a3.251,3.251,0,0,0-3.235-3.248" fill="#ffef9b"/>
      <path id="Trazado_136523" data-name="Trazado 136523" d="M72.032,67.777H66.305V72.23c0,.616-.426.851-.947.522l-6.662-4.2a1.946,1.946,0,0,0-1.894,0l-6.661,4.2c-.52.329-.946.094-.946-.522V67.777H43.468a3.973,3.973,0,0,0-3.961,3.976v4.4a31.569,31.569,0,0,0,36.484,0v-4.4a3.972,3.972,0,0,0-3.959-3.976" fill="#e07c3e"/>
      <path id="Trazado_136524" data-name="Trazado 136524" d="M42.145,45.422h2.019V38.033a.843.843,0,0,1,.843-.844H70.492a.844.844,0,0,1,.844.844v7.389h2.018a3.2,3.2,0,0,1,1.48.365V32.972a6.394,6.394,0,0,0-6.372-6.379H47.036a6.4,6.4,0,0,0-6.372,6.379V45.787a3.206,3.206,0,0,1,1.481-.365" fill="#009fe3"/>
      <path id="Trazado_136525" data-name="Trazado 136525" d="M60.121,66.422H55.377a11.118,11.118,0,0,1-6.182-1.872v7.681c0,.615.425.85.946.522l6.661-4.2a1.946,1.946,0,0,1,1.894,0l6.661,4.2c.521.328.948.093.948-.522V64.55a11.121,11.121,0,0,1-6.183,1.872" fill="#e30613"/>
      <path id="Trazado_136526" data-name="Trazado 136526" d="M109.34,25.8a9.96,9.96,0,1,0-9.961,9.962A9.962,9.962,0,0,0,109.34,25.8" fill="#c9dc92"/>
      <path id="Trazado_136527" data-name="Trazado 136527" d="M102.192,29.4a4.8,4.8,0,0,1-5.624,0,5.658,5.658,0,0,0-2.835,4.607,9.952,9.952,0,0,0,11.293,0,5.657,5.657,0,0,0-2.834-4.607" fill="#e07c3e"/>
      <path id="Trazado_136528" data-name="Trazado 136528" d="M104.2,25.483a4.825,4.825,0,1,0-4.825,4.826,4.825,4.825,0,0,0,4.825-4.826" fill="#ffef9b"/>
      <path id="Trazado_136529" data-name="Trazado 136529" d="M28.254,18.739a9.96,9.96,0,1,0-9.96,9.963,9.961,9.961,0,0,0,9.96-9.963" fill="#bae2f5"/>
      <path id="Trazado_136530" data-name="Trazado 136530" d="M21.107,22.339a4.8,4.8,0,0,1-5.623,0,5.653,5.653,0,0,0-2.835,4.607,9.955,9.955,0,0,0,11.292,0,5.654,5.654,0,0,0-2.834-4.607" fill="#f39200"/>
      <path id="Trazado_136531" data-name="Trazado 136531" d="M23.12,18.422A4.825,4.825,0,1,0,18.3,23.248a4.825,4.825,0,0,0,4.825-4.826" fill="#ffef9b"/>
      <path id="Trazado_136532" data-name="Trazado 136532" d="M30.868,11.579a1.674,1.674,0,0,0,.939-.288c.719-.487,1.462-.959,2.206-1.4a1.679,1.679,0,0,0-1.722-2.882c-.8.476-1.594.982-2.365,1.5a1.679,1.679,0,0,0,.942,3.069"/>
      <path id="Trazado_136533" data-name="Trazado 136533" d="M7.926,47.379c-.049.909-.073,1.833-.073,2.743v.056a1.679,1.679,0,1,0,3.357,0v-.056c0-.851.023-1.714.069-2.563a1.679,1.679,0,0,0-3.353-.18"/>
      <path id="Trazado_136534" data-name="Trazado 136534" d="M11.44,36.478A1.681,1.681,0,0,0,9.4,37.692c-.229.9-.435,1.822-.614,2.736A1.678,1.678,0,0,0,10.112,42.4a1.7,1.7,0,0,0,.324.031,1.68,1.68,0,0,0,1.645-1.356c.167-.854.359-1.712.573-2.553a1.678,1.678,0,0,0-1.214-2.041"/>
      <path id="Trazado_136535" data-name="Trazado 136535" d="M39.931,93.34c-.8-.335-1.606-.7-2.388-1.076a1.678,1.678,0,0,0-1.465,3.02c.838.407,1.7.8,2.562,1.154a1.652,1.652,0,0,0,.645.13,1.679,1.679,0,0,0,.646-3.228"/>
      <path id="Trazado_136536" data-name="Trazado 136536" d="M48.678,96c-.852-.169-1.71-.365-2.549-.581a1.678,1.678,0,1,0-.84,3.25c.9.232,1.821.443,2.735.624A1.679,1.679,0,1,0,48.678,96"/>
      <path id="Trazado_136537" data-name="Trazado 136537" d="M39.192,7.075a1.68,1.68,0,0,0,.649-.131c.8-.335,1.617-.651,2.434-.941a1.679,1.679,0,1,0-1.121-3.165c-.876.311-1.755.65-2.612,1.009a1.679,1.679,0,0,0,.65,3.228"/>
      <path id="Trazado_136538" data-name="Trazado 136538" d="M48.24,4.3a1.722,1.722,0,0,0,.332-.033c.851-.171,1.718-.319,2.578-.443A1.678,1.678,0,0,0,50.676.5c-.923.131-1.853.291-2.765.474A1.679,1.679,0,0,0,48.24,4.3"/>
      <path id="Trazado_136539" data-name="Trazado 136539" d="M105.485,44.938a1.584,1.584,0,0,0,.237-.017,1.678,1.678,0,0,0,1.427-1.9c-.13-.922-.288-1.852-.47-2.764a1.678,1.678,0,0,0-3.292.654c.169.85.316,1.719.438,2.58a1.68,1.68,0,0,0,1.66,1.444"/>
      <path id="Trazado_136540" data-name="Trazado 136540" d="M11.641,69.313a1.679,1.679,0,0,0,3.1-1.281c-.333-.8-.646-1.627-.931-2.445a1.679,1.679,0,0,0-3.17,1.105c.306.877.641,1.759,1,2.621"/>
      <path id="Trazado_136541" data-name="Trazado 136541" d="M12.1,59.279c-.169-.851-.315-1.718-.435-2.58a1.679,1.679,0,0,0-3.325.466c.129.922.286,1.853.466,2.765a1.68,1.68,0,0,0,1.645,1.354,1.657,1.657,0,0,0,.327-.033A1.679,1.679,0,0,0,12.1,59.279"/>
      <path id="Trazado_136542" data-name="Trazado 136542" d="M83.578,11.213c.72.484,1.438,1,2.13,1.52a1.679,1.679,0,0,0,2.026-2.678c-.743-.561-1.511-1.109-2.285-1.628a1.678,1.678,0,1,0-1.871,2.786"/>
      <path id="Trazado_136543" data-name="Trazado 136543" d="M100.773,67.987c-.331.805-.689,1.61-1.065,2.4a1.679,1.679,0,1,0,3.028,1.45c.4-.841.787-1.7,1.141-2.567a1.678,1.678,0,1,0-3.1-1.278"/>
      <path id="Trazado_136544" data-name="Trazado 136544" d="M107.57,52.924c.05-.927.076-1.869.076-2.8v-.11a1.679,1.679,0,1,0-3.357,0v.11c0,.871-.024,1.751-.072,2.616a1.679,1.679,0,0,0,1.584,1.768c.033,0,.063,0,.1,0a1.679,1.679,0,0,0,1.674-1.587"/>
      <path id="Trazado_136545" data-name="Trazado 136545" d="M104.46,63.874a1.679,1.679,0,0,0,1.625-1.264c.23-.9.438-1.823.618-2.736a1.679,1.679,0,0,0-3.3-.647c-.168.852-.361,1.71-.576,2.552a1.679,1.679,0,0,0,1.212,2.042,1.707,1.707,0,0,0,.416.053"/>
      <path id="Trazado_136546" data-name="Trazado 136546" d="M66.768,4.234c.852.168,1.71.363,2.551.579a1.679,1.679,0,0,0,.835-3.252c-.9-.231-1.822-.44-2.736-.62a1.678,1.678,0,0,0-.65,3.293"/>
      <path id="Trazado_136547" data-name="Trazado 136547" d="M57.777,96.889h-.028c-.862,0-1.733-.024-2.589-.071a1.679,1.679,0,1,0-.184,3.352c.917.051,1.85.076,2.773.076h.028a1.679,1.679,0,1,0,0-3.357"/>
      <path id="Trazado_136548" data-name="Trazado 136548" d="M57.666,3.357h.083c.844,0,1.7.023,2.535.068l.092,0A1.679,1.679,0,0,0,60.465.072C59.567.024,58.652,0,57.742,0h-.077a1.679,1.679,0,1,0,0,3.357"/>
      <path id="Trazado_136549" data-name="Trazado 136549" d="M66.875,95.991c-.853.17-1.72.318-2.578.44a1.678,1.678,0,0,0,.232,3.34,1.716,1.716,0,0,0,.237-.016c.922-.131,1.852-.289,2.765-.472a1.678,1.678,0,1,0-.656-3.292"/>
      <path id="Trazado_136550" data-name="Trazado 136550" d="M75.519,6.886c.8.333,1.605.694,2.389,1.073A1.679,1.679,0,1,0,79.37,4.937c-.841-.406-1.7-.794-2.563-1.151a1.678,1.678,0,1,0-1.288,3.1"/>
      <path id="Trazado_136551" data-name="Trazado 136551" d="M75.609,93.323c-.8.334-1.618.65-2.436.937a1.679,1.679,0,0,0,1.118,3.167c.876-.31,1.755-.649,2.613-1.006a1.679,1.679,0,0,0-1.295-3.1"/>
      <path id="Trazado_136552" data-name="Trazado 136552" d="M97.541,74.451A16.944,16.944,0,0,0,86.1,78.893l-4.926-4.927a33.577,33.577,0,0,0,6.894-37.831l2.924-2.284a11.637,11.637,0,1,0,2.885-18.3c-.285-.3-.569-.6-.859-.886a1.679,1.679,0,1,0-2.378,2.37c.176.176.348.358.521.537a11.614,11.614,0,0,0-2.123,13.549L86.481,33.11a33.279,33.279,0,0,0-55.139-3.482l-3.814-3.814a11.636,11.636,0,1,0-14.972,3.047c-.334.716-.657,1.442-.956,2.172a1.68,1.68,0,0,0,.915,2.191,1.7,1.7,0,0,0,.637.126A1.677,1.677,0,0,0,14.7,32.307c.307-.746.639-1.493.985-2.225a11.584,11.584,0,0,0,9.434-1.925L29.4,32.433a33.41,33.41,0,0,0-4.78,13.728,1.678,1.678,0,1,0,3.334.391,30.013,30.013,0,1,1,49.718,26.1v-.9A5.654,5.654,0,0,0,72.032,66.1H67.983v-.691A12.954,12.954,0,0,0,72.8,57.492h.553a4.924,4.924,0,0,0,4.913-4.925v-3.9A4.92,4.92,0,0,0,76.513,44.9V32.973a8.063,8.063,0,0,0-8.051-8.058H47.036a8.064,8.064,0,0,0-8.051,8.058V44.9a4.917,4.917,0,0,0-1.753,3.768v3.9a4.925,4.925,0,0,0,4.913,4.926H42.7a12.959,12.959,0,0,0,4.818,7.914V66.1H43.468a5.652,5.652,0,0,0-5.639,5.654v.917A30.161,30.161,0,0,1,28.044,54.4a1.679,1.679,0,0,0-3.324.47,33.516,33.516,0,0,0,8.313,17.758l-5.8,5.8a16.917,16.917,0,0,0-8.848-3.342c-.251-.4-.5-.8-.736-1.206A1.677,1.677,0,0,0,14.6,75.209,17.1,17.1,0,1,0,29.715,80.7l5.691-5.693c.126.114.252.228.381.341a33.21,33.21,0,0,0,42.878.862l5.179,5.179a17.146,17.146,0,0,0,9.272,26.726,1.677,1.677,0,0,0,2.057-1.185,1.677,1.677,0,0,0-1.184-2.057,13.561,13.561,0,0,1-3.373-1.421,7.07,7.07,0,0,1,2.615-4.3,9.073,9.073,0,0,0,8.62,0,7.076,7.076,0,0,1,2.615,4.3,13.572,13.572,0,0,1-3.3,1.4,1.678,1.678,0,1,0,.89,3.236,17.134,17.134,0,0,0-4.515-33.639m1.838-40.368a8.244,8.244,0,0,1-3.8-.927A3.958,3.958,0,0,1,96.672,31.4a6.49,6.49,0,0,0,5.416,0,3.958,3.958,0,0,1,1.094,1.761,8.249,8.249,0,0,1-3.8.927m-3.145-8.6a3.146,3.146,0,1,1,3.145,3.147,3.149,3.149,0,0,1-3.145-3.147m3.145-7.967a8.277,8.277,0,0,1,6.5,13.4,7.332,7.332,0,0,0-1.2-1.679,6.5,6.5,0,1,0-10.608,0,7.28,7.28,0,0,0-1.2,1.679,8.276,8.276,0,0,1,6.5-13.4M18.3,27.023a8.218,8.218,0,0,1-3.8-.928,3.943,3.943,0,0,1,1.094-1.761,6.482,6.482,0,0,0,5.417,0A3.959,3.959,0,0,1,22.1,26.095a8.221,8.221,0,0,1-3.8.928m-3.146-8.6A3.146,3.146,0,1,1,18.3,21.57a3.15,3.15,0,0,1-3.146-3.148M24.8,23.859a7.355,7.355,0,0,0-1.2-1.677,6.5,6.5,0,1,0-10.6,0,7.329,7.329,0,0,0-1.2,1.677,8.281,8.281,0,1,1,13.006,0m-7.747,82.06a13.545,13.545,0,0,1-6.924-1.9,7.073,7.073,0,0,1,2.614-4.289,9.068,9.068,0,0,0,8.621,0,7.071,7.071,0,0,1,2.613,4.29,13.554,13.554,0,0,1-6.924,1.9M11.283,91.662a5.768,5.768,0,1,1,5.768,5.8,5.792,5.792,0,0,1-5.768-5.8m19.461.491a13.755,13.755,0,0,1-3.913,9.622,10.427,10.427,0,0,0-2.82-4.2,9.125,9.125,0,1,0-13.921,0,10.44,10.44,0,0,0-2.82,4.2,13.726,13.726,0,1,1,23.474-9.622M74.91,48.67v3.9a1.565,1.565,0,0,1-1.556,1.569h-.34V47.1h.34A1.564,1.564,0,0,1,74.91,48.67M42.485,54.136h-.34a1.565,1.565,0,0,1-1.556-1.569v-3.9A1.564,1.564,0,0,1,42.145,47.1h.34Zm3.357,1.029v-16.3H58.863a1.678,1.678,0,0,0,0-3.357H45.007a2.525,2.525,0,0,0-2.522,2.522v5.711h-.142V32.974a4.7,4.7,0,0,1,4.693-4.7H68.462a4.7,4.7,0,0,1,4.694,4.7v10.77h-.142V38.033a2.525,2.525,0,0,0-2.522-2.522H66.92a1.678,1.678,0,1,0,0,3.357h2.737v16.3a9.568,9.568,0,0,1-9.535,9.578H55.378a9.568,9.568,0,0,1-9.536-9.578M64.626,67.284v3.023l-3.564-2.245a12.759,12.759,0,0,0,3.564-.778m-10.19.778-3.562,2.245V67.284a12.745,12.745,0,0,0,3.562.778m19.877,7.192a29.85,29.85,0,0,1-33.127.014V71.753a2.293,2.293,0,0,1,2.282-2.3h4.048v2.776A2.22,2.22,0,0,0,49.7,74.58a2.521,2.521,0,0,0,1.337-.407L57.665,70a.682.682,0,0,1,.169,0l6.629,4.177a2.521,2.521,0,0,0,1.337.407,2.22,2.22,0,0,0,2.183-2.349V69.456h4.049a2.292,2.292,0,0,1,2.281,2.3ZM97.541,96.887a5.8,5.8,0,1,1,5.767-5.8,5.792,5.792,0,0,1-5.767,5.8m9.782,4.316A10.438,10.438,0,0,0,104.5,97,9.125,9.125,0,1,0,90.58,97a10.444,10.444,0,0,0-2.823,4.207,13.7,13.7,0,1,1,19.566,0"/>
      <path id="Trazado_136553" data-name="Trazado 136553" d="M51.064,49.4a1.679,1.679,0,0,0,1.679-1.679v-2.6a1.679,1.679,0,0,0-3.358,0v2.6A1.679,1.679,0,0,0,51.064,49.4"/>
      <path id="Trazado_136554" data-name="Trazado 136554" d="M64.434,49.4a1.679,1.679,0,0,0,1.679-1.679v-2.6a1.679,1.679,0,0,0-3.358,0v2.6A1.679,1.679,0,0,0,64.434,49.4"/>
      <path id="Trazado_136555" data-name="Trazado 136555" d="M58.222,54.2h1.469a1.678,1.678,0,0,0,0-3.357h-.909V47.762a1.679,1.679,0,0,0-3.358,0v3.644a2.8,2.8,0,0,0,2.8,2.8"/>
      <path id="Trazado_136556" data-name="Trazado 136556" d="M51.071,56.535a6.7,6.7,0,0,0,13.357,0,1.679,1.679,0,1,0-3.357,0,3.371,3.371,0,0,1-6.643,0,1.679,1.679,0,1,0-3.357,0"/>
    </g>
  </g>
</svg>
