<svg id="Grupo_159057" data-name="Grupo 159057" xmlns="http://www.w3.org/2000/svg" xmlns:xlink="http://www.w3.org/1999/xlink" width="275" height="184" viewBox="0 0 275 184">
  <defs>
    <clipPath id="clip-path">
      <rect id="Rectángulo_38327" data-name="Rectángulo 38327" width="275" height="184" fill="none"/>
    </clipPath>
    <clipPath id="clip-path-3">
      <rect id="Rectángulo_38324" data-name="Rectángulo 38324" width="16.209" height="16.542" transform="translate(163.229 141.851)" fill="none"/>
    </clipPath>
    <clipPath id="clip-path-4">
      <rect id="Rectángulo_38325" data-name="Rectángulo 38325" width="16.882" height="17.354" transform="translate(160.894 143.328)" fill="none"/>
    </clipPath>
  </defs>
  <g id="Grupo_159056" data-name="Grupo 159056" clip-path="url(#clip-path)">
    <g id="Grupo_159055" data-name="Grupo 159055">
      <g id="Grupo_159054" data-name="Grupo 159054" clip-path="url(#clip-path)">
        <path id="Trazado_133867" data-name="Trazado 133867" d="M137.5,19.327A72.673,72.673,0,1,1,64.827,92,72.673,72.673,0,0,1,137.5,19.327" fill="#b0c8cb"/>
        <path id="Trazado_133868" data-name="Trazado 133868" d="M193.628,129.791c.242,2.523-1.957,4.569-4.913,4.569h-121c-2.956,0-5.549-2.046-5.792-4.569l-7.335-76.3c-.242-2.524,1.957-4.57,4.914-4.57h121c2.956,0,5.549,2.046,5.791,4.57Z" fill="#064679"/>
        <path id="Trazado_133869" data-name="Trazado 133869" d="M139,157.72l-1.859-2.561h-45.2l.593,6.165,2.779,3.171.8-3.022,41.622-.149-.226-2.349,1.67.6Z" fill="#064679"/>
        <path id="Trazado_133870" data-name="Trazado 133870" d="M137.3,161.83H107.172a2.308,2.308,0,0,1-2.275-2.4l1.512-58.825a2.383,2.383,0,0,1,2.337-2.41H124.59A3.054,3.054,0,0,1,127.4,100.6l11.749,58.821a1.9,1.9,0,0,1-1.853,2.41" fill="#064679"/>
        <path id="Trazado_133871" data-name="Trazado 133871" d="M141.549,161.83H111.42a2.308,2.308,0,0,1-2.275-2.4l1.512-58.825a2.383,2.383,0,0,1,2.337-2.41h15.844a3.054,3.054,0,0,1,2.815,2.409L143.4,159.42a1.9,1.9,0,0,1-1.853,2.41" fill="#6787b2"/>
        <path id="Trazado_133872" data-name="Trazado 133872" d="M197.853,129.791c.242,2.523-1.957,4.569-4.913,4.569h-121c-2.956,0-5.549-2.046-5.792-4.569l-7.335-76.3c-.242-2.524,1.957-4.57,4.914-4.57h121c2.956,0,5.549,2.046,5.791,4.57Z" fill="#6787b2"/>
        <path id="Trazado_133873" data-name="Trazado 133873" d="M157.6,158.227H94.715l.6,6.268H158.2Z" fill="#064679"/>
        <path id="Trazado_133874" data-name="Trazado 133874" d="M192.938,126.479c.221,2.3-1.827,4.172-4.578,4.172H75.806c-2.75,0-5.159-1.868-5.38-4.172l-6.7-69.673c-.222-2.305,1.828-4.173,4.578-4.173H180.86c2.751,0,5.159,1.868,5.38,4.173Z" fill="#e8edbc"/>
        <path id="Trazado_133875" data-name="Trazado 133875" d="M70.34,126.487l-6.7-69.673a3.551,3.551,0,0,1,.932-2.753,5.006,5.006,0,0,1,3.732-1.515H180.86c2.789,0,5.241,1.907,5.466,4.251l6.7,69.673-.086.008.086-.008a3.548,3.548,0,0,1-.932,2.752,5.006,5.006,0,0,1-3.732,1.515H75.806c-2.789,0-5.241-1.907-5.466-4.25M68.306,52.719a4.837,4.837,0,0,0-3.6,1.458,3.38,3.38,0,0,0-.888,2.62l6.7,69.673c.217,2.257,2.592,4.094,5.294,4.094H188.36a4.834,4.834,0,0,0,3.6-1.459,3.378,3.378,0,0,0,.888-2.618l-6.7-69.673c-.217-2.258-2.592-4.095-5.294-4.095Z" fill="#6787b2"/>
        <path id="Trazado_133876" data-name="Trazado 133876" d="M188.369,130.741H75.815c-2.8,0-5.253-1.912-5.479-4.262l-6.7-69.673c-.226-2.351,1.864-4.263,4.66-4.263H180.852c2.795,0,5.252,1.912,5.478,4.263l6.7,69.673c.226,2.35-1.864,4.262-4.659,4.262M68.315,52.723c-2.7,0-4.713,1.832-4.5,4.083l6.7,69.673c.216,2.251,2.586,4.082,5.282,4.082H188.352c2.695,0,4.712-1.831,4.5-4.082l-6.7-69.673c-.216-2.251-2.585-4.083-5.281-4.083Z" fill="#e8edbc"/>
        <path id="Trazado_133877" data-name="Trazado 133877" d="M70.25,126.487l-6.7-69.673A3.629,3.629,0,0,1,64.506,54,5.086,5.086,0,0,1,68.3,52.456H180.851c2.839,0,5.335,1.948,5.565,4.341l6.7,69.673-.086.008.086-.008a3.628,3.628,0,0,1-.954,2.813,5.086,5.086,0,0,1-3.791,1.544H75.815c-2.839,0-5.335-1.947-5.565-4.34M186.236,56.8l6.7,69.673a3.465,3.465,0,0,1-.913,2.686,4.923,4.923,0,0,1-3.67,1.491H75.8a5.989,5.989,0,0,1-3.449-1.086,6.016,6.016,0,0,0,3.466,1.093H188.369a4.913,4.913,0,0,0,3.663-1.487,3.458,3.458,0,0,0,.91-2.68l-6.7-69.673a3.985,3.985,0,0,0-.827-2.035,3.951,3.951,0,0,1,.819,2.018M68.315,52.809a4.752,4.752,0,0,0-3.542,1.434A3.294,3.294,0,0,0,63.9,56.8l6.7,69.673c.212,2.208,2.543,4,5.2,4H188.351a4.749,4.749,0,0,0,3.542-1.434,3.3,3.3,0,0,0,.869-2.553l-6.7-69.673c-.212-2.208-2.543-4.005-5.195-4.005Zm115.994.908a6.006,6.006,0,0,0-3.458-1.088H68.3a4.915,4.915,0,0,0-3.663,1.487,3.46,3.46,0,0,0-.91,2.681l6.7,69.673a3.988,3.988,0,0,0,.841,2.054,3.966,3.966,0,0,1-.833-2.037l-6.7-69.673a3.468,3.468,0,0,1,.913-2.687,4.919,4.919,0,0,1,3.67-1.491H180.869a5.986,5.986,0,0,1,3.44,1.081" fill="#6787b2"/>
        <path id="Trazado_133878" data-name="Trazado 133878" d="M178.94,69.834a31.426,31.426,0,0,1,7.79,17.57H164.816v.018l-5.586,1.411-1.1-1.429Z" fill="#28649e"/>
        <path id="Trazado_133879" data-name="Trazado 133879" d="M172.058,68.849,154.866,83.371l-1.67,5.038-1.941-1.988-2.861-28.595a31.853,31.853,0,0,1,23.664,11.023" fill="#28649e"/>
        <path id="Trazado_133880" data-name="Trazado 133880" d="M144.984,62.227l1.637,1.787-1.374.855,2.6,25.952h28.6l1.638,1.787-1.5,1.709c-.31,14.143-11.263,25.1-25.872,25.1-15.793,0-29.874-12.8-31.454-28.6s9.941-28.594,25.734-28.594" fill="#28649e"/>
        <path id="Trazado_133881" data-name="Trazado 133881" d="M120.887,92.608c1.58,15.792,15.662,28.594,31.455,28.594s27.315-12.8,25.735-28.594h-28.6l-2.86-28.594c-15.792,0-27.314,12.8-25.734,28.594" fill="#4c7bb1"/>
        <path id="Trazado_133882" data-name="Trazado 133882" d="M159.23,88.833h28.6a31.439,31.439,0,0,0-7.79-17.57Z" fill="#6787b2"/>
        <path id="Trazado_133883" data-name="Trazado 133883" d="M150.336,59.814l2.86,28.594L174,70.837a31.853,31.853,0,0,0-23.664-11.023" fill="#6787b2"/>
        <path id="Trazado_133884" data-name="Trazado 133884" d="M84.2,122.224h26.727a4.961,4.961,0,0,0,5.023-5.581L114.1,98.15a6.311,6.311,0,0,0-6.139-5.582H81.235a4.96,4.96,0,0,0-5.023,5.582l1.85,18.493a6.311,6.311,0,0,0,6.139,5.581" fill="#6787b2"/>
        <path id="Trazado_133885" data-name="Trazado 133885" d="M85.508,118.253h23.008a3.24,3.24,0,0,0,3.281-3.646L110.3,99.681a4.123,4.123,0,0,0-4.011-3.646H83.286A3.241,3.241,0,0,0,80,99.681L81.5,114.607a4.123,4.123,0,0,0,4.011,3.646" fill="#fff"/>
        <path id="Trazado_133886" data-name="Trazado 133886" d="M87.117,114.815a7.832,7.832,0,0,0,4.051,1.155,6.466,6.466,0,0,0,6.547-7.275H93.4a2.628,2.628,0,0,1-2.661,2.957,3.182,3.182,0,0,1-1.644-.468Z" fill="#064679"/>
        <path id="Trazado_133887" data-name="Trazado 133887" d="M82.816,108.484a8.214,8.214,0,0,0,3.952,6.12l1.975-3.631a3.336,3.336,0,0,1-1.609-2.489,2.883,2.883,0,0,1,.025-.774L82.874,106.6a7.115,7.115,0,0,0-.058,1.886" fill="#064679"/>
        <path id="Trazado_133888" data-name="Trazado 133888" d="M82.954,106.222l4.285,1.113a2.612,2.612,0,0,1,2.636-2.184l-.432-4.317a6.426,6.426,0,0,0-6.489,5.388" fill="#064679"/>
        <path id="Trazado_133889" data-name="Trazado 133889" d="M87.748,114.732a7.832,7.832,0,0,0,4.051,1.155,6.466,6.466,0,0,0,6.547-7.275H94.028a2.628,2.628,0,0,1-2.661,2.957,3.182,3.182,0,0,1-1.644-.468Z" fill="#6787b2"/>
        <path id="Trazado_133890" data-name="Trazado 133890" d="M83.447,108.4a8.214,8.214,0,0,0,3.952,6.12l1.975-3.631a3.336,3.336,0,0,1-1.609-2.489,2.883,2.883,0,0,1,.025-.774L83.5,106.515a7.115,7.115,0,0,0-.058,1.886" fill="#6787b2"/>
        <path id="Trazado_133891" data-name="Trazado 133891" d="M83.585,106.14l4.285,1.113a2.612,2.612,0,0,1,2.636-2.184l-.432-4.317a6.426,6.426,0,0,0-6.489,5.388" fill="#6787b2"/>
        <path id="Trazado_133892" data-name="Trazado 133892" d="M90.363,98.162l.026.263a11.376,11.376,0,0,1,10.067,9.678l-.006-.054.825.007.108.125-.892.221H94.544a4.605,4.605,0,0,0-4.479-4.073l-.6-5.946Z" fill="#064679"/>
        <path id="Trazado_133893" data-name="Trazado 133893" d="M90.363,98.162l.6,5.947a4.6,4.6,0,0,1,4.479,4.072h5.946a11.328,11.328,0,0,0-11.02-10.019" fill="#28649e"/>
        <path id="Trazado_133894" data-name="Trazado 133894" d="M103.122,104.034l-1.054.006-.032-.491.969-1.3.505,0,.086,1.321h.262l.03.463-.261,0,.026.4-.5,0Zm-.03-.463-.044-.677-.513.68Z" fill="#6f6c67"/>
        <path id="Trazado_133895" data-name="Trazado 133895" d="M104.556,102.9l-.554-.1a.659.659,0,0,1,.235-.415.864.864,0,0,1,.54-.147.939.939,0,0,1,.6.154.536.536,0,0,1,.208.393.437.437,0,0,1-.057.253.59.59,0,0,1-.211.2.7.7,0,0,1,.19.071.511.511,0,0,1,.173.173.566.566,0,0,1,.074.257.716.716,0,0,1-.071.36.587.587,0,0,1-.257.267.983.983,0,0,1-.464.1,1.225,1.225,0,0,1-.453-.066.73.73,0,0,1-.284-.2,1,1,0,0,1-.184-.333l.573-.083a.5.5,0,0,0,.122.25.27.27,0,0,0,.187.069.236.236,0,0,0,.189-.09.33.33,0,0,0,.062-.235.358.358,0,0,0-.09-.231.281.281,0,0,0-.208-.081.668.668,0,0,0-.185.036v-.427a.527.527,0,0,0,.076.007.24.24,0,0,0,.185-.076.245.245,0,0,0,0-.334.22.22,0,0,0-.16-.058.214.214,0,0,0-.162.065.369.369,0,0,0-.072.224" fill="#6f6c67"/>
        <path id="Trazado_133896" data-name="Trazado 133896" d="M105.951,102.8a.638.638,0,0,1,.045-.285.416.416,0,0,1,.179-.209.6.6,0,0,1,.3-.074.578.578,0,0,1,.422.152.59.59,0,0,1,.178.409.534.534,0,0,1-.124.413.515.515,0,0,1-.4.157.653.653,0,0,1-.312-.071.492.492,0,0,1-.207-.207.694.694,0,0,1-.082-.285m.4,0a.489.489,0,0,0,.074.264.131.131,0,0,0,.111.054.11.11,0,0,0,.1-.055.452.452,0,0,0,.04-.264.5.5,0,0,0-.074-.264.127.127,0,0,0-.11-.052.115.115,0,0,0-.105.053.461.461,0,0,0-.039.264m1.332-.575.3,0-1.053,2.3-.3,0Zm-.153,1.729a.635.635,0,0,1,.043-.285.414.414,0,0,1,.18-.209.6.6,0,0,1,.3-.075.587.587,0,0,1,.424.152.6.6,0,0,1,.177.411.535.535,0,0,1-.123.412.52.52,0,0,1-.4.157.64.64,0,0,1-.311-.071.492.492,0,0,1-.207-.207.678.678,0,0,1-.081-.285m.4,0a.5.5,0,0,0,.074.264.129.129,0,0,0,.11.052.115.115,0,0,0,.105-.054.459.459,0,0,0,.039-.264.5.5,0,0,0-.074-.265.13.13,0,0,0-.111-.052.111.111,0,0,0-.1.055.461.461,0,0,0-.039.264" fill="#6f6c67"/>
        <path id="Trazado_133897" data-name="Trazado 133897" d="M104.521,112.193l-1.736.01a1.083,1.083,0,0,1,.148-.5,2.275,2.275,0,0,1,.531-.555,1.56,1.56,0,0,0,.306-.3.323.323,0,0,0,.059-.193.246.246,0,0,0-.082-.167.257.257,0,0,0-.181-.069.233.233,0,0,0-.177.073.435.435,0,0,0-.078.254l-.583-.045a.92.92,0,0,1,.1-.394.533.533,0,0,1,.242-.219,1.092,1.092,0,0,1,.453-.078,1.3,1.3,0,0,1,.48.069.635.635,0,0,1,.4.553.663.663,0,0,1-.087.376,1.419,1.419,0,0,1-.38.395c-.111.084-.185.142-.222.176s-.08.077-.13.131l.9,0Z" fill="#6f6c67"/>
        <path id="Trazado_133898" data-name="Trazado 133898" d="M104.7,111.108a1.266,1.266,0,0,1,.157-.859.773.773,0,0,1,.636-.249.945.945,0,0,1,.348.052.684.684,0,0,1,.23.138.776.776,0,0,1,.146.179,1,1,0,0,1,.093.221,2.175,2.175,0,0,1,.092.5,1.456,1.456,0,0,1-.136.857.709.709,0,0,1-.643.276.943.943,0,0,1-.43-.085.764.764,0,0,1-.283-.252,1.05,1.05,0,0,1-.138-.324,2.344,2.344,0,0,1-.072-.455m.574,0a1.561,1.561,0,0,0,.107.561.24.24,0,0,0,.214.149.2.2,0,0,0,.149-.065.375.375,0,0,0,.081-.2,2.083,2.083,0,0,0,0-.43,1.6,1.6,0,0,0-.108-.575.242.242,0,0,0-.221-.146.2.2,0,0,0-.2.151,1.594,1.594,0,0,0-.027.557" fill="#6f6c67"/>
        <path id="Trazado_133899" data-name="Trazado 133899" d="M106.624,110.559a.638.638,0,0,1,.045-.285.416.416,0,0,1,.179-.209.6.6,0,0,1,.3-.074.578.578,0,0,1,.422.152.59.59,0,0,1,.178.409.534.534,0,0,1-.124.413.515.515,0,0,1-.4.157.653.653,0,0,1-.312-.071.492.492,0,0,1-.207-.207.7.7,0,0,1-.082-.285m.4,0a.489.489,0,0,0,.074.264.131.131,0,0,0,.111.054.11.11,0,0,0,.1-.055.451.451,0,0,0,.04-.264.5.5,0,0,0-.074-.264.127.127,0,0,0-.11-.052.115.115,0,0,0-.1.053.461.461,0,0,0-.039.264m1.332-.575.3,0-1.053,2.3-.3,0Zm-.153,1.729a.649.649,0,0,1,.043-.285.414.414,0,0,1,.18-.209.6.6,0,0,1,.3-.075.585.585,0,0,1,.424.152.6.6,0,0,1,.177.411.534.534,0,0,1-.123.412.52.52,0,0,1-.4.157.64.64,0,0,1-.311-.071.487.487,0,0,1-.207-.207.678.678,0,0,1-.081-.285m.4,0a.5.5,0,0,0,.074.264.129.129,0,0,0,.11.052.114.114,0,0,0,.1-.054.459.459,0,0,0,.039-.264.5.5,0,0,0-.074-.265.132.132,0,0,0-.111-.052.109.109,0,0,0-.1.055.452.452,0,0,0-.04.264" fill="#6f6c67"/>
        <path id="Trazado_133900" data-name="Trazado 133900" d="M80.811,88.338h26.727a4.961,4.961,0,0,0,5.023-5.581l-1.85-18.493a6.311,6.311,0,0,0-6.139-5.582H77.845a4.96,4.96,0,0,0-5.023,5.582l1.85,18.493a6.311,6.311,0,0,0,6.139,5.581" fill="#6787b2"/>
        <path id="Trazado_133901" data-name="Trazado 133901" d="M82.361,84.367h23.008a3.24,3.24,0,0,0,3.281-3.646l-1.493-14.926a4.122,4.122,0,0,0-4.011-3.646H80.139a3.24,3.24,0,0,0-3.282,3.646L78.35,80.721a4.123,4.123,0,0,0,4.011,3.646" fill="#fff"/>
        <rect id="Rectángulo_38299" data-name="Rectángulo 38299" width="0.865" height="8.203" transform="translate(102.276 71.19) rotate(-5.704)" fill="#6787b2"/>
        <rect id="Rectángulo_38300" data-name="Rectángulo 38300" width="0.865" height="5.479" transform="translate(100.751 73.9) rotate(-5.704)" fill="#f49c68"/>
        <rect id="Rectángulo_38301" data-name="Rectángulo 38301" width="0.865" height="1.298" transform="translate(98.685 78.06) rotate(-5.704)" fill="#6787b2"/>
        <rect id="Rectángulo_38302" data-name="Rectángulo 38302" width="0.865" height="6.224" transform="translate(96.47 73.159) rotate(-5.704)" fill="#6787b2"/>
        <rect id="Rectángulo_38303" data-name="Rectángulo 38303" width="0.865" height="8.298" transform="translate(92.97 71.095) rotate(-5.704)" fill="#6787b2"/>
        <rect id="Rectángulo_38304" data-name="Rectángulo 38304" width="0.865" height="5.305" transform="translate(91.503 74.073) rotate(-5.704)" fill="#6787b2"/>
        <rect id="Rectángulo_38305" data-name="Rectángulo 38305" width="0.865" height="2.74" transform="translate(88.89 76.626) rotate(-5.704)" fill="#f49c68"/>
        <rect id="Rectángulo_38306" data-name="Rectángulo 38306" width="0.865" height="2.74" transform="translate(84.021 76.626) rotate(-5.704)" fill="#f49c68"/>
        <rect id="Rectángulo_38307" data-name="Rectángulo 38307" width="0.865" height="9.723" transform="translate(86.384 69.677) rotate(-5.704)" fill="#6787b2"/>
        <rect id="Rectángulo_38308" data-name="Rectángulo 38308" width="0.865" height="8.188" transform="translate(81.762 71.205) rotate(-5.704)" fill="#6787b2"/>
        <rect id="Rectángulo_38309" data-name="Rectángulo 38309" width="24.991" height="0.692" transform="translate(80.874 79.073)" fill="#e8edbc"/>
        <path id="Trazado_133902" data-name="Trazado 133902" d="M102.077,81.282h1.749l-.077-.768H102Z" fill="#e8edbc"/>
        <path id="Trazado_133903" data-name="Trazado 133903" d="M90.909,66.156h13.484l-.076-.768H90.832Z" fill="#90b193"/>
        <path id="Trazado_133904" data-name="Trazado 133904" d="M100.086,68.106h4.5l-.077-.768h-4.5Z" fill="#90b193"/>
        <path id="Trazado_133905" data-name="Trazado 133905" d="M97.325,81.282h1.749L99,80.514H97.248Z" fill="#e8edbc"/>
        <path id="Trazado_133906" data-name="Trazado 133906" d="M92.573,81.282h1.749l-.077-.768H92.5Z" fill="#e8edbc"/>
        <path id="Trazado_133907" data-name="Trazado 133907" d="M87.82,81.282h1.749l-.077-.768H87.743Z" fill="#e8edbc"/>
        <path id="Trazado_133908" data-name="Trazado 133908" d="M83.068,81.282h1.749l-.077-.768H82.991Z" fill="#e8edbc"/>
        <path id="Trazado_133909" data-name="Trazado 133909" d="M87,145.433l-1.483-.109a14.405,14.405,0,0,0,3.613-2.411,4.848,4.848,0,0,0,1.534-3.92,2.537,2.537,0,0,1-1.553.066,12.045,12.045,0,0,0,3.319-3.838,11.431,11.431,0,0,0,.534-5.776,6.217,6.217,0,0,0-.392-1.944,2.187,2.187,0,0,0-1.408-1.307,2.5,2.5,0,0,0-2.551,1.554c-.486.959-.931,2.4-1.442,3.362-.251-.826-.309-2.356-.646-3.176a22.117,22.117,0,0,0-5.776,4.978,3.06,3.06,0,0,0-.839,1.356,3.284,3.284,0,0,0,.122,1.439q.533,2.232,1.063,4.466l-2.082-2.937a7.713,7.713,0,0,1-.486,1.112q-.219.565-.388,1.148a14.623,14.623,0,0,0-.491,2.45,15.056,15.056,0,0,0,.263,4.977,14.41,14.41,0,0,0,.765,2.417c.124.3.217.723.6.7.314-.019.608-.4.829-.586a11.515,11.515,0,0,1,3.4-1.706A6.78,6.78,0,0,0,87,145.433" fill="#fbc387"/>
        <path id="Trazado_133910" data-name="Trazado 133910" d="M77.6,159.072a79.666,79.666,0,0,1,12.5-29.016l-.266-.185a79.6,79.6,0,0,0-12.546,29.135Z" fill="#ef7e6b"/>
        <path id="Trazado_133911" data-name="Trazado 133911" d="M90.053,134.05a3.927,3.927,0,0,0,2.34-1.643l-.271-.178a3.588,3.588,0,0,1-2.144,1.506Z" fill="#ef7e6b"/>
        <path id="Trazado_133912" data-name="Trazado 133912" d="M88.2,136.373a4.527,4.527,0,0,0,2.6-.815l-.186-.264a4.268,4.268,0,0,1-3.544.6l-.088.311a4.438,4.438,0,0,0,1.221.17" fill="#ef7e6b"/>
        <path id="Trazado_133913" data-name="Trazado 133913" d="M84.8,137.33l.28-.161a7.5,7.5,0,0,1-1-3.918l-.324-.008A7.826,7.826,0,0,0,84.8,137.33" fill="#ef7e6b"/>
        <path id="Trazado_133914" data-name="Trazado 133914" d="M83.529,139.718l.235-.222a2.25,2.25,0,0,1-.538-2.043l-.314-.077a2.581,2.581,0,0,0,.617,2.342" fill="#ef7e6b"/>
        <path id="Trazado_133915" data-name="Trazado 133915" d="M82.163,146.4a3.121,3.121,0,0,0,1.587-.436l-.166-.278a2.792,2.792,0,0,1-1.639.382l-.026.322c.081.007.163.01.244.01" fill="#ef7e6b"/>
        <path id="Trazado_133916" data-name="Trazado 133916" d="M67.662,142.523l1.477.176a14.336,14.336,0,0,1-3.085-3.057A4.844,4.844,0,0,1,65.3,135.5a2.54,2.54,0,0,0,1.512.362,12.048,12.048,0,0,1-2.524-4.4,11.434,11.434,0,0,1,.581-5.772,6.245,6.245,0,0,1,.757-1.833,2.186,2.186,0,0,1,1.632-1.013,2.5,2.5,0,0,1,2.207,2.013c.293,1.034.454,2.536.772,3.576.4-.762.754-2.253,1.242-2.994a22.111,22.111,0,0,1,4.716,5.991,3.067,3.067,0,0,1,.565,1.492,3.3,3.3,0,0,1-.4,1.389q-.95,2.09-1.9,4.18l2.605-2.484a7.507,7.507,0,0,0,.264,1.184q.106.6.162,1.2a14.791,14.791,0,0,1,.013,2.5,15.066,15.066,0,0,1-1.211,4.835,14.456,14.456,0,0,1-1.214,2.226c-.178.268-.35.668-.726.571-.305-.078-.521-.508-.7-.733a11.491,11.491,0,0,0-3.014-2.326,6.793,6.793,0,0,1-2.981-2.94" fill="#fbc387"/>
        <path id="Trazado_133917" data-name="Trazado 133917" d="M74.282,157.709l.324,0a79.522,79.522,0,0,0-1.81-15.838,79.494,79.494,0,0,0-4.93-15.16l-.3.131a79.678,79.678,0,0,1,6.712,30.871" fill="#ef7e6b"/>
        <path id="Trazado_133918" data-name="Trazado 133918" d="M66.844,130.766l.134-.3a3.592,3.592,0,0,1-1.817-1.888l-.3.123a3.918,3.918,0,0,0,1.982,2.06" fill="#ef7e6b"/>
        <path id="Trazado_133919" data-name="Trazado 133919" d="M69.07,133.483c.125,0,.25-.005.376-.016l-.028-.322a4.262,4.262,0,0,1-3.363-1.266l-.234.224a4.536,4.536,0,0,0,3.249,1.38" fill="#ef7e6b"/>
        <path id="Trazado_133920" data-name="Trazado 133920" d="M71.375,134.991a7.806,7.806,0,0,0,1.8-3.812l-.319-.055a7.491,7.491,0,0,1-1.729,3.655Z" fill="#ef7e6b"/>
        <path id="Trazado_133921" data-name="Trazado 133921" d="M72.163,137.577a2.582,2.582,0,0,0,1.054-2.181l-.324.017a2.251,2.251,0,0,1-.918,1.9Z" fill="#ef7e6b"/>
        <path id="Trazado_133922" data-name="Trazado 133922" d="M72.466,144.436l.036-.322a2.78,2.78,0,0,1-1.535-.688l-.216.241a3.11,3.11,0,0,0,1.715.769" fill="#ef7e6b"/>
        <path id="Trazado_133923" data-name="Trazado 133923" d="M74.138,114.634a8.886,8.886,0,0,1-1.174-1.781,1.871,1.871,0,0,0-1.747-1.008,2.064,2.064,0,0,0-1.168.9,15.361,15.361,0,0,0-2.293,4.988,15.719,15.719,0,0,0-.762,5.127,7.611,7.611,0,0,0,1.816,4.771l-1.266-.148a12.631,12.631,0,0,0,3.766,8.892c-.942-.285-1.965-.386-2.907-.672a12.245,12.245,0,0,0,3.182,4.916,25.113,25.113,0,0,1,3.8,4.515,16.065,16.065,0,0,0,3.994-6.813,26.5,26.5,0,0,0,.9-7.859,6.63,6.63,0,0,0-2.985,2.559,8.458,8.458,0,0,1,3.411-6.094,19.2,19.2,0,0,0-5-10.488,14.8,14.8,0,0,1-1.69,2.579,8.818,8.818,0,0,1,.117-4.381" fill="#ef7e6b"/>
        <path id="Trazado_133924" data-name="Trazado 133924" d="M73.723,158.07a74.094,74.094,0,0,0,.4-30.164c-.212-1.083-.453-2.179-.685-3.24a60.914,60.914,0,0,1-1.363-7.831l-.323.027a61.107,61.107,0,0,0,1.37,7.874c.232,1.058.472,2.153.683,3.232A73.768,73.768,0,0,1,73.407,158Z" fill="#fbc387"/>
        <path id="Trazado_133925" data-name="Trazado 133925" d="M74.79,140.707l.065-.317a2.5,2.5,0,0,1-1.835-1.659l-.309.1a2.8,2.8,0,0,0,2.079,1.879" fill="#fbc387"/>
        <path id="Trazado_133926" data-name="Trazado 133926" d="M74.88,131.478a4.854,4.854,0,0,0,1.924-2.969l-.317-.064a4.525,4.525,0,0,1-1.795,2.769Z" fill="#ef7e6b"/>
        <path id="Trazado_133927" data-name="Trazado 133927" d="M75.13,128.235a11.2,11.2,0,0,0,1.531-3.824l-.317-.064a10.886,10.886,0,0,1-1.487,3.715Z" fill="#fbc387"/>
        <path id="Trazado_133928" data-name="Trazado 133928" d="M73.383,125.875l.015-.323a3.264,3.264,0,0,1-2.267-1.1l-.244.213a3.594,3.594,0,0,0,2.5,1.21" fill="#fbc387"/>
        <path id="Trazado_133929" data-name="Trazado 133929" d="M71.692,120.409l.189-.263a3.409,3.409,0,0,1-1.322-1.99l-.315.072a3.734,3.734,0,0,0,1.448,2.181" fill="#fbc387"/>
        <path id="Trazado_133930" data-name="Trazado 133930" d="M86.832,153.792a3.576,3.576,0,0,0-.483-.994H67.017a3.608,3.608,0,0,0-.483.994,11,11,0,0,0-.329,2.7,10.559,10.559,0,0,0,4.662,8.705,10.06,10.06,0,0,0,2.216.244h7.2a10.06,10.06,0,0,0,2.216-.244,10.557,10.557,0,0,0,4.662-8.705,10.994,10.994,0,0,0-.329-2.7" fill="#90b193"/>
        <path id="Trazado_133931" data-name="Trazado 133931" d="M78.6,165.438H73.084a10.06,10.06,0,0,1-2.216-.244,10.558,10.558,0,0,1-4.663-8.705,10.949,10.949,0,0,1,.33-2.7,3.607,3.607,0,0,1,.482-.994h.212a10.562,10.562,0,0,0-.119,1.59A11.273,11.273,0,0,0,78.6,165.438" fill="#e8edbc"/>
        <path id="Trazado_133932" data-name="Trazado 133932" d="M80.6,165.434a9.1,9.1,0,0,0,1.9-.239,10.559,10.559,0,0,0,4.662-8.705,10.943,10.943,0,0,0-.33-2.7,3.589,3.589,0,0,0-.482-.994H82.186c1.5.185,6.147,9.284-1.59,12.635" fill="#6787b2"/>
        <path id="Trazado_133933" data-name="Trazado 133933" d="M126.88,18.562l17.165,23.047H104.164l15.185-23.047Z" fill="#064679"/>
        <path id="Trazado_133934" data-name="Trazado 133934" d="M119.35,18.562l2.377,3.128,15.142,19.919H101.83Z" fill="#4d6c8e"/>
        <path id="Trazado_133935" data-name="Trazado 133935" d="M133.267,41.609V55.718h10.49v3.417H117.371V41.609Z" fill="#064679"/>
        <rect id="Rectángulo_38310" data-name="Rectángulo 38310" width="15.896" height="17.921" transform="translate(110.42 41.213)" fill="#4d6c8e"/>
        <path id="Trazado_133936" data-name="Trazado 133936" d="M126.656,145.1v3.56a.68.68,0,0,0,.012.129.739.739,0,0,0,.728.612h21.989l.047,0a.738.738,0,0,0,.681-.61.68.68,0,0,0,.012-.129V145.1a.739.739,0,0,0-.74-.74H127.4a.739.739,0,0,0-.74.74" fill="#ef7e6b"/>
        <path id="Trazado_133937" data-name="Trazado 133937" d="M141.8,144.355v5.04h7.7a.628.628,0,0,0,.628-.611v-3.8a.629.629,0,0,0-.629-.629Z" fill="#f49c68"/>
        <path id="Trazado_133938" data-name="Trazado 133938" d="M137.033,149.394h1.549v-5.039h-1.549v5.039Z" fill="#f49c68"/>
        <rect id="Rectángulo_38311" data-name="Rectángulo 38311" width="2.457" height="5.041" transform="translate(145.912 144.355)" fill="#fbc387"/>
        <path id="Trazado_133939" data-name="Trazado 133939" d="M127.314,149.4h.52v-5.041h-.52a.659.659,0,0,0-.658.658v3.725a.658.658,0,0,0,.658.658" fill="#f49c68"/>
        <path id="Trazado_133940" data-name="Trazado 133940" d="M126.668,148.785a.742.742,0,0,0,.729.612h22.118a.611.611,0,0,0,.61-.612Z" fill="#ec7724"/>
        <path id="Trazado_133941" data-name="Trazado 133941" d="M128.4,150.136v3.56a.8.8,0,0,0,.011.13.742.742,0,0,0,.691.611H151.13a.562.562,0,0,0,.058,0,.74.74,0,0,0,.671-.609.7.7,0,0,0,.011-.13v-3.56a.737.737,0,0,0-.74-.74H129.141a.737.737,0,0,0-.739.74" fill="#ef7e6b"/>
        <path id="Trazado_133942" data-name="Trazado 133942" d="M143.541,149.4v5.04h7.7a.629.629,0,0,0,.628-.61v-3.8a.629.629,0,0,0-.629-.629Z" fill="#f49c68"/>
        <path id="Trazado_133943" data-name="Trazado 133943" d="M138.779,154.436h1.549V149.4h-1.549v5.039Z" fill="#f49c68"/>
        <rect id="Rectángulo_38312" data-name="Rectángulo 38312" width="2.457" height="5.041" transform="translate(147.657 149.396)" fill="#fbc387"/>
        <path id="Trazado_133944" data-name="Trazado 133944" d="M129.059,154.437h.52V149.4h-.52a.659.659,0,0,0-.658.658v3.725a.658.658,0,0,0,.658.658" fill="#f49c68"/>
        <path id="Trazado_133945" data-name="Trazado 133945" d="M128.413,153.826a.744.744,0,0,0,.69.611H151.26a.613.613,0,0,0,.61-.612Z" fill="#ec7724"/>
        <path id="Trazado_133946" data-name="Trazado 133946" d="M126.073,155.178v3.56a.681.681,0,0,0,.012.129.739.739,0,0,0,.728.612H148.8l.047,0a.738.738,0,0,0,.681-.61.681.681,0,0,0,.012-.129v-3.56a.739.739,0,0,0-.74-.74H126.813a.739.739,0,0,0-.74.74" fill="#ef7e6b"/>
        <path id="Trazado_133947" data-name="Trazado 133947" d="M141.213,154.438v5.04h7.7a.628.628,0,0,0,.628-.611v-3.8a.629.629,0,0,0-.629-.629Z" fill="#f49c68"/>
        <path id="Trazado_133948" data-name="Trazado 133948" d="M136.45,159.477H138v-5.039H136.45v5.039Z" fill="#f49c68"/>
        <rect id="Rectángulo_38313" data-name="Rectángulo 38313" width="2.456" height="5.041" transform="translate(145.329 154.438)" fill="#fbc387"/>
        <path id="Trazado_133949" data-name="Trazado 133949" d="M126.731,159.479h.52v-5.041h-.52a.659.659,0,0,0-.658.658v3.725a.658.658,0,0,0,.658.658" fill="#f49c68"/>
        <path id="Trazado_133950" data-name="Trazado 133950" d="M126.085,158.867a.742.742,0,0,0,.729.612h22.118a.611.611,0,0,0,.61-.612Z" fill="#ec7724"/>
        <path id="Trazado_133951" data-name="Trazado 133951" d="M126.656,160.219v3.56a.7.7,0,0,0,.012.13.742.742,0,0,0,.69.611h22.027a.543.543,0,0,0,.057,0,.74.74,0,0,0,.671-.609.7.7,0,0,0,.012-.13v-3.56a.739.739,0,0,0-.74-.74H127.4a.739.739,0,0,0-.74.74" fill="#ef7e6b"/>
        <path id="Trazado_133952" data-name="Trazado 133952" d="M141.8,159.479v5.04h7.7a.629.629,0,0,0,.628-.61v-3.8a.629.629,0,0,0-.629-.629Z" fill="#f49c68"/>
        <path id="Trazado_133953" data-name="Trazado 133953" d="M137.033,164.519h1.549V159.48h-1.549v5.039Z" fill="#f49c68"/>
        <rect id="Rectángulo_38314" data-name="Rectángulo 38314" width="2.456" height="5.041" transform="translate(145.913 159.479)" fill="#fbc387"/>
        <path id="Trazado_133954" data-name="Trazado 133954" d="M127.314,164.52h.52v-5.041h-.52a.659.659,0,0,0-.658.658v3.725a.658.658,0,0,0,.658.658" fill="#f49c68"/>
        <path id="Trazado_133955" data-name="Trazado 133955" d="M126.668,163.909a.744.744,0,0,0,.69.611h22.157a.613.613,0,0,0,.61-.612Z" fill="#ec7724"/>
        <path id="Trazado_133956" data-name="Trazado 133956" d="M144.428,155.077v3.79a.638.638,0,0,0,.6.61l.041,0h.583a.639.639,0,0,0-.639.639v3.791a.638.638,0,0,0,.6.609l.04,0h5.985a.613.613,0,0,0,.611-.612h0v-3.8a.63.63,0,0,0-.63-.629h-.564a.611.611,0,0,0,.61-.612v-3.8a.628.628,0,0,0-.629-.629h2.348a.613.613,0,0,0,.61-.612h0v-3.8a.629.629,0,0,0-.629-.629h-1.727a.611.611,0,0,0,.611-.612h0v-3.8a.629.629,0,0,0-.63-.629H145.65a.639.639,0,0,0-.639.639v3.79a.64.64,0,0,0,.6.611H147.4a.639.639,0,0,0-.639.639v3.791a.64.64,0,0,0,.6.61h-2.288a.639.639,0,0,0-.639.639" fill="#d4524c"/>
        <path id="Trazado_133957" data-name="Trazado 133957" d="M160.406,150.137v3.56a.688.688,0,0,0,.012.129.739.739,0,0,0,.728.612h21.989a.739.739,0,0,0,.728-.612.785.785,0,0,0,.012-.129v-3.56a.741.741,0,0,0-.74-.741H161.146a.741.741,0,0,0-.74.741" fill="#ef7e6b"/>
        <path id="Trazado_133958" data-name="Trazado 133958" d="M175.546,154.436h7.7a.629.629,0,0,0,.629-.629v-3.781a.629.629,0,0,0-.629-.629h-7.7v5.039Z" fill="#f49c68"/>
        <path id="Trazado_133959" data-name="Trazado 133959" d="M170.783,154.436h1.549V149.4h-1.549v5.039Z" fill="#f49c68"/>
        <rect id="Rectángulo_38315" data-name="Rectángulo 38315" width="2.456" height="5.041" transform="translate(179.663 149.396)" fill="#fbc387"/>
        <path id="Trazado_133960" data-name="Trazado 133960" d="M161.064,154.437h.52V149.4h-.52a.659.659,0,0,0-.658.658v3.725a.658.658,0,0,0,.658.658" fill="#f49c68"/>
        <path id="Trazado_133961" data-name="Trazado 133961" d="M160.418,153.826a.739.739,0,0,0,.728.612h22.118a.613.613,0,0,0,.611-.612Z" fill="#ec7724"/>
        <path id="Trazado_133962" data-name="Trazado 133962" d="M163.812,155.178v3.56a.687.687,0,0,0,.012.129.739.739,0,0,0,.728.612h21.989a.739.739,0,0,0,.728-.612.783.783,0,0,0,.012-.129v-3.56a.741.741,0,0,0-.74-.741H164.552a.741.741,0,0,0-.74.741" fill="#ef7e6b"/>
        <path id="Trazado_133963" data-name="Trazado 133963" d="M178.952,159.477h7.7a.63.63,0,0,0,.629-.629v-3.781a.629.629,0,0,0-.629-.629h-7.7v5.039Z" fill="#f49c68"/>
        <path id="Trazado_133964" data-name="Trazado 133964" d="M174.189,159.477h1.549v-5.039h-1.549v5.039Z" fill="#f49c68"/>
        <rect id="Rectángulo_38316" data-name="Rectángulo 38316" width="2.456" height="5.041" transform="translate(183.068 154.438)" fill="#fbc387"/>
        <path id="Trazado_133965" data-name="Trazado 133965" d="M164.47,159.479h.52v-5.041h-.52a.659.659,0,0,0-.658.658v3.725a.658.658,0,0,0,.658.658" fill="#f49c68"/>
        <path id="Trazado_133966" data-name="Trazado 133966" d="M163.824,158.868a.739.739,0,0,0,.728.612H186.67a.613.613,0,0,0,.611-.612Z" fill="#ec7724"/>
        <path id="Trazado_133967" data-name="Trazado 133967" d="M162.746,160.219v3.561a.7.7,0,0,0,.012.129.739.739,0,0,0,.728.612h21.989a.739.739,0,0,0,.728-.612.793.793,0,0,0,.012-.129v-3.561a.741.741,0,0,0-.74-.74H163.486a.741.741,0,0,0-.74.74" fill="#ef7e6b"/>
        <path id="Trazado_133968" data-name="Trazado 133968" d="M177.886,164.519h7.7a.629.629,0,0,0,.629-.629v-3.781a.629.629,0,0,0-.629-.629h-7.7v5.039Z" fill="#f49c68"/>
        <path id="Trazado_133969" data-name="Trazado 133969" d="M173.123,164.519h1.549V159.48h-1.549v5.039Z" fill="#f49c68"/>
        <rect id="Rectángulo_38317" data-name="Rectángulo 38317" width="2.456" height="5.041" transform="translate(182.002 159.479)" fill="#fbc387"/>
        <path id="Trazado_133970" data-name="Trazado 133970" d="M163.4,164.52h.52v-5.041h-.52a.659.659,0,0,0-.658.658v3.725a.658.658,0,0,0,.658.658" fill="#f49c68"/>
        <path id="Trazado_133971" data-name="Trazado 133971" d="M162.758,163.909a.739.739,0,0,0,.728.612H185.6a.613.613,0,0,0,.611-.612Z" fill="#ec7724"/>
        <path id="Trazado_133972" data-name="Trazado 133972" d="M146.947,140.054v3.56a.688.688,0,0,0,.012.129.739.739,0,0,0,.728.612h21.989a.739.739,0,0,0,.728-.612.784.784,0,0,0,.012-.129v-3.56a.741.741,0,0,0-.74-.741H147.687a.741.741,0,0,0-.74.741" fill="#ef7e6b"/>
        <path id="Trazado_133973" data-name="Trazado 133973" d="M162.087,144.353h7.7a.629.629,0,0,0,.629-.629v-3.781a.629.629,0,0,0-.629-.629h-7.7v5.039Z" fill="#f49c68"/>
        <path id="Trazado_133974" data-name="Trazado 133974" d="M157.324,144.353h1.549v-5.039h-1.549v5.039Z" fill="#f49c68"/>
        <rect id="Rectángulo_38318" data-name="Rectángulo 38318" width="2.456" height="5.041" transform="translate(166.203 139.313)" fill="#fbc387"/>
        <path id="Trazado_133975" data-name="Trazado 133975" d="M147.6,144.354h.52v-5.04h-.52a.659.659,0,0,0-.658.658V143.7a.657.657,0,0,0,.658.657" fill="#f49c68"/>
        <path id="Trazado_133976" data-name="Trazado 133976" d="M146.958,143.743a.739.739,0,0,0,.728.612H169.8a.613.613,0,0,0,.611-.612Z" fill="#ec7724"/>
        <path id="Trazado_133977" data-name="Trazado 133977" d="M148.864,135.013v3.56a.687.687,0,0,0,.012.129.739.739,0,0,0,.728.612h21.989a.739.739,0,0,0,.728-.612.783.783,0,0,0,.012-.129v-3.56a.741.741,0,0,0-.74-.741H149.6a.741.741,0,0,0-.74.741" fill="#ef7e6b"/>
        <path id="Trazado_133978" data-name="Trazado 133978" d="M164,139.312h7.7a.629.629,0,0,0,.629-.629V134.9a.629.629,0,0,0-.629-.629H164v5.039Z" fill="#f49c68"/>
        <path id="Trazado_133979" data-name="Trazado 133979" d="M159.241,139.312h1.549v-5.039h-1.549v5.039Z" fill="#f49c68"/>
        <rect id="Rectángulo_38319" data-name="Rectángulo 38319" width="2.456" height="5.041" transform="translate(168.12 134.272)" fill="#fbc387"/>
        <path id="Trazado_133980" data-name="Trazado 133980" d="M149.522,139.313h.52v-5.041h-.52a.659.659,0,0,0-.658.658v3.725a.658.658,0,0,0,.658.658" fill="#f49c68"/>
        <path id="Trazado_133981" data-name="Trazado 133981" d="M148.876,138.7a.739.739,0,0,0,.728.612h22.118a.613.613,0,0,0,.611-.612Z" fill="#ec7724"/>
        <path id="Trazado_133982" data-name="Trazado 133982" d="M146.756,145.1v3.56a.687.687,0,0,0,.012.129.739.739,0,0,0,.728.612h21.989a.739.739,0,0,0,.728-.612.783.783,0,0,0,.012-.129V145.1a.741.741,0,0,0-.74-.741H147.5a.741.741,0,0,0-.74.741" fill="#ef7e6b"/>
        <path id="Trazado_133983" data-name="Trazado 133983" d="M161.9,149.394h7.7a.629.629,0,0,0,.629-.629v-3.781a.629.629,0,0,0-.629-.629h-7.7v5.039Z" fill="#f49c68"/>
        <path id="Trazado_133984" data-name="Trazado 133984" d="M157.132,149.394h1.549v-5.039h-1.549v5.039Z" fill="#f49c68"/>
        <rect id="Rectángulo_38320" data-name="Rectángulo 38320" width="2.456" height="5.041" transform="translate(166.012 144.355)" fill="#fbc387"/>
        <path id="Trazado_133985" data-name="Trazado 133985" d="M147.413,149.4h.52v-5.041h-.52a.659.659,0,0,0-.658.658v3.725a.658.658,0,0,0,.658.658" fill="#f49c68"/>
        <path id="Trazado_133986" data-name="Trazado 133986" d="M146.767,148.785a.739.739,0,0,0,.728.612h22.118a.613.613,0,0,0,.611-.612Z" fill="#ec7724"/>
        <path id="Trazado_133987" data-name="Trazado 133987" d="M148.5,150.137v3.56a.688.688,0,0,0,.012.129.739.739,0,0,0,.728.612H171.23a.739.739,0,0,0,.728-.612.783.783,0,0,0,.012-.129v-3.56a.741.741,0,0,0-.74-.741H149.241a.741.741,0,0,0-.74.741" fill="#ef7e6b"/>
        <path id="Trazado_133988" data-name="Trazado 133988" d="M163.641,154.436h7.7a.629.629,0,0,0,.629-.629v-3.781a.629.629,0,0,0-.629-.629h-7.7v5.039Z" fill="#f49c68"/>
        <path id="Trazado_133989" data-name="Trazado 133989" d="M158.878,154.436h1.549V149.4h-1.549v5.039Z" fill="#f49c68"/>
        <rect id="Rectángulo_38321" data-name="Rectángulo 38321" width="2.456" height="5.041" transform="translate(167.757 149.396)" fill="#fbc387"/>
        <path id="Trazado_133990" data-name="Trazado 133990" d="M149.158,154.437h.52V149.4h-.52a.659.659,0,0,0-.658.658v3.725a.658.658,0,0,0,.658.658" fill="#f49c68"/>
        <path id="Trazado_133991" data-name="Trazado 133991" d="M148.513,153.826a.739.739,0,0,0,.728.612h22.118a.613.613,0,0,0,.611-.612Z" fill="#ec7724"/>
        <path id="Trazado_133992" data-name="Trazado 133992" d="M146.172,155.178v3.56a.687.687,0,0,0,.012.129.739.739,0,0,0,.728.612H168.9a.739.739,0,0,0,.728-.612.783.783,0,0,0,.012-.129v-3.56a.741.741,0,0,0-.74-.741H146.912a.741.741,0,0,0-.74.741" fill="#ef7e6b"/>
        <path id="Trazado_133993" data-name="Trazado 133993" d="M161.312,159.477h7.7a.63.63,0,0,0,.629-.629v-3.781a.629.629,0,0,0-.629-.629h-7.7v5.039Z" fill="#f49c68"/>
        <path id="Trazado_133994" data-name="Trazado 133994" d="M156.549,159.477H158.1v-5.039h-1.549v5.039Z" fill="#f49c68"/>
        <rect id="Rectángulo_38322" data-name="Rectángulo 38322" width="2.456" height="5.041" transform="translate(165.429 154.438)" fill="#fbc387"/>
        <path id="Trazado_133995" data-name="Trazado 133995" d="M146.83,159.479h.52v-5.041h-.52a.659.659,0,0,0-.658.658v3.725a.658.658,0,0,0,.658.658" fill="#f49c68"/>
        <path id="Trazado_133996" data-name="Trazado 133996" d="M146.184,158.868a.739.739,0,0,0,.728.612H169.03a.613.613,0,0,0,.611-.612Z" fill="#ec7724"/>
        <path id="Trazado_133997" data-name="Trazado 133997" d="M146.756,160.219v3.561a.7.7,0,0,0,.012.129.739.739,0,0,0,.728.612h21.989a.739.739,0,0,0,.728-.612.793.793,0,0,0,.012-.129v-3.561a.741.741,0,0,0-.74-.74H147.5a.741.741,0,0,0-.74.74" fill="#ef7e6b"/>
        <path id="Trazado_133998" data-name="Trazado 133998" d="M161.9,164.519h7.7a.629.629,0,0,0,.629-.629v-3.781a.629.629,0,0,0-.629-.629h-7.7v5.039Z" fill="#f49c68"/>
        <path id="Trazado_133999" data-name="Trazado 133999" d="M157.132,164.519h1.549V159.48h-1.549v5.039Z" fill="#f49c68"/>
        <rect id="Rectángulo_38323" data-name="Rectángulo 38323" width="2.456" height="5.041" transform="translate(166.012 159.479)" fill="#fbc387"/>
        <path id="Trazado_134000" data-name="Trazado 134000" d="M147.413,164.52h.52v-5.041h-.52a.659.659,0,0,0-.658.658v3.725a.658.658,0,0,0,.658.658" fill="#f49c68"/>
        <path id="Trazado_134001" data-name="Trazado 134001" d="M146.767,163.909a.739.739,0,0,0,.728.612h22.118a.613.613,0,0,0,.611-.612Z" fill="#ec7724"/>
        <path id="Trazado_134002" data-name="Trazado 134002" d="M154.715,153.983a11.252,11.252,0,1,0,10.759-11.724,11.252,11.252,0,0,0-10.759,11.724" fill="#d4524c"/>
        <path id="Trazado_134003" data-name="Trazado 134003" d="M156.432,153.172c.157,15.218,22.408,15.48,23,.367-.129-15.135-22.353-15.572-23-.367" fill="#fbc387"/>
        <path id="Trazado_134004" data-name="Trazado 134004" d="M156.9,153.179c.016,14.5,21.58,14.843,22.057.352-.016-14.5-21.58-14.842-22.057-.352" fill="#f49c68"/>
        <path id="Trazado_134005" data-name="Trazado 134005" d="M170.956,153.617c-.846-1.264-3.412-1.336-4.527-1.967-1.256-1.8,3.045-2.209,2.9-.289.042.6,1.168.283,1.523.344a.4.4,0,0,0,.435-.419,3.293,3.293,0,0,0-3.69-3.191c-2.722-.2-4.484,3.13-2.574,5.05.638.838,3.37,1.161,4.185,1.652,1.522,1.54-1.52,2.547-2.634,1.539-1.179-.962.192-1.821-2.13-1.577a.428.428,0,0,0-.316.121c-.666,6.041,10.13,4.5,6.829-1.263" fill="#ef7e6b"/>
        <path id="Trazado_134006" data-name="Trazado 134006" d="M168.346,146.876c-1.825-.035-1.166.04-1.259,1.6l1.494-.024c-.071-.187.162-1.626-.235-1.573" fill="#ef7e6b"/>
        <path id="Trazado_134007" data-name="Trazado 134007" d="M167.478,159.83c1.825.035,1.166-.04,1.259-1.6l-1.494.024c.071.187-.162,1.626.235,1.573" fill="#ef7e6b"/>
        <g id="Grupo_159050" data-name="Grupo 159050" opacity="0.42">
          <g id="Grupo_159049" data-name="Grupo 159049">
            <g id="Grupo_159048" data-name="Grupo 159048" clip-path="url(#clip-path-3)">
              <path id="Trazado_134008" data-name="Trazado 134008" d="M163.229,142.854l15.05,15.538a11.536,11.536,0,0,0,1.145-5.59l-10.571-10.913a11.535,11.535,0,0,0-5.624.965" fill="#fff"/>
            </g>
          </g>
        </g>
        <g id="Grupo_159053" data-name="Grupo 159053" opacity="0.42">
          <g id="Grupo_159052" data-name="Grupo 159052">
            <g id="Grupo_159051" data-name="Grupo 159051" clip-path="url(#clip-path-4)">
              <path id="Trazado_134009" data-name="Trazado 134009" d="M160.894,144.257,176.8,160.681a11.412,11.412,0,0,0,.975-1.368l-15.484-15.985a11.426,11.426,0,0,0-1.4.929" fill="#fff"/>
            </g>
          </g>
        </g>
        <path id="Trazado_134010" data-name="Trazado 134010" d="M158.736,144.412c1.913.045,2.333.484,2.294,2.4.039-1.913.478-2.332,2.391-2.288-1.913-.044-2.334-.484-2.295-2.4-.039,1.913-.477,2.333-2.39,2.288" fill="#fff"/>
        <path id="Trazado_134011" data-name="Trazado 134011" d="M194.609,63.371a5.191,5.191,0,0,1-.722,4.022,7.586,7.586,0,0,1-3.162,2.687,13.258,13.258,0,0,1-2.632.908,1.935,1.935,0,0,1-2.168-.99,20.363,20.363,0,0,1-2.03-4.792,7.1,7.1,0,0,1,.131-3.794,5.321,5.321,0,0,1,1.738-2.5c.133-.1.44-.4.617-.364s.449.4.588.52q.639.561,1.324,1.067a21.742,21.742,0,0,0,6.316,3.24" fill="#f49c68"/>
        <path id="Trazado_134012" data-name="Trazado 134012" d="M193.671,66.567a10.493,10.493,0,0,0,1,4.351,43.9,43.9,0,0,0,2.229,4.828c-1.73,2.928-3.346,5.91-5.075,8.839l-.129-.173c-1.615-2.163-1.8-5.224-2.659-7.782.235-.163.18-.151.219-.435a3.164,3.164,0,0,0-.072-.865c-.327-2.336-.623-4.659-.95-6.994a51.485,51.485,0,0,0,5.441-1.769" fill="#f49c68"/>
        <path id="Trazado_134013" data-name="Trazado 134013" d="M193.775,67.562a5.6,5.6,0,0,1-.752,1.833,7.578,7.578,0,0,1-3.162,2.686,10.878,10.878,0,0,1-1.045.436q-.117-.828-.232-1.655a12.573,12.573,0,0,0,2.141-.782,7.668,7.668,0,0,0,3.05-2.518" fill="#f0836e"/>
        <path id="Trazado_134014" data-name="Trazado 134014" d="M179.859,70.611l.012-.089a8.851,8.851,0,0,1,1.5-3.323,8.9,8.9,0,0,0,1.555-3.76c.122-1.374-.373-2.763-.141-4.122a5.092,5.092,0,0,1,2.722-3.46,9.857,9.857,0,0,1,7.635-.564,5.221,5.221,0,0,1,3.564,3.751,4.562,4.562,0,0,0,3.078,3.382c1.069.389,2.328.428,3.153,1.212,1.06,1.009.949,2.844,2.014,3.849.719.679,1.826.824,2.533,1.515a3.148,3.148,0,0,1,.793,2.337c-.017.847-.227,1.676-.328,2.516a4.129,4.129,0,0,0,.327,2.476c.543.991,1.237,1.932,1.106,3.054a5.334,5.334,0,0,1-1.4,2.485,5.905,5.905,0,0,1-1.18,1.009q-.748.582-1.5,1.163l-2.176-6.349c-.267-.779-1.227-.638-1.823-1.206a8.558,8.558,0,0,0-3.237-1.817,18.7,18.7,0,0,1-2.2-.856s-1.5-3.512-1.839-4.664c-.086-.294-.174-.626-.245-.984a1,1,0,0,1-.017-.6,4.057,4.057,0,0,0,.529-1.02,3.66,3.66,0,0,0-.384-2.53,6.044,6.044,0,0,1-4.355-1.134,6.489,6.489,0,0,1-2.574-3.893,6.212,6.212,0,0,0-2.885,4.526c-.176,1.733.212,2.776.952,4.683a7.053,7.053,0,0,0,1.313,2.372,2.247,2.247,0,0,0,2.212.3c.008.052.167,1.212.188,1.342s.115.82.115.82.049,1.509-.091,1.548a7.2,7.2,0,0,0-2.146,1.377c-.529.367-3.22.912-3.41,1.169-.233-.187-.535-.3-.783-.479a6.408,6.408,0,0,1-.815-.711,6.881,6.881,0,0,1-1.211-1.736,6.523,6.523,0,0,1-.572-3.581" fill="#7d2345"/>
        <path id="Trazado_134015" data-name="Trazado 134015" d="M183.815,59.773a3.931,3.931,0,0,1,2.54-1.91,7.817,7.817,0,0,1,3.412-.059,7.35,7.35,0,0,1,1.707.493,4.6,4.6,0,0,1,2.272,1.995,9.361,9.361,0,0,1,.985,3.345,9.221,9.221,0,0,0-.5-4.333,4.052,4.052,0,0,0-2.368-2.086,9.815,9.815,0,0,0-3.1-.65,6.45,6.45,0,0,0-2.891.36,3.3,3.3,0,0,0-1.332,1.2,7.884,7.884,0,0,0-.725,1.642" fill="#e8edbc"/>
        <path id="Trazado_134016" data-name="Trazado 134016" d="M170.55,84.422q.024-.3.069-.584c-1.967-1.3-4.147-2.716-6.03-4.067-.332,1.038-2.867.506-3.031.669,2.32,2.443,6.219,7.841,9.048,9.619a2.825,2.825,0,0,0,1.235.494,10.464,10.464,0,0,1-1.291-6.131" fill="#f49c68"/>
        <path id="Trazado_134017" data-name="Trazado 134017" d="M212.643,158.345a11.434,11.434,0,0,0,1.494,1.2,11.522,11.522,0,0,0,3.368,1.564,11.042,11.042,0,0,1,1.164.258.67.67,0,0,1-.263.646,1.84,1.84,0,0,1-.668.3,17.615,17.615,0,0,1-10.378-.248,1.774,1.774,0,0,1-.949-.585,1.967,1.967,0,0,1,.05-1.692,20.347,20.347,0,0,0,.932-4.562q.051-.58.069-1.164c.009-.3-.092-.61.255-.671a5.459,5.459,0,0,1,1.159.067l1.142.07c.542.033,1.011.01,1.126.624.132.706.263,1.412.447,2.108a3.2,3.2,0,0,0,.653,1.684q.195.205.4.4" fill="#f49c68"/>
        <path id="Trazado_134018" data-name="Trazado 134018" d="M205.436,161.693l-.459,1.2a.467.467,0,0,0,.306.615,32.983,32.983,0,0,0,5.823,1.174,20.827,20.827,0,0,0,3.962.094c1.28-.116,2.864-.222,3.863-1.029-1.126.314-2.628-.251-3.792-.359l-7.665-.713a4.5,4.5,0,0,1-1.166-.213,1.539,1.539,0,0,1-.872-.771" fill="#064679"/>
        <path id="Trazado_134019" data-name="Trazado 134019" d="M206.012,159.3c-.264,1.013-.42,1.535-.852,3.116a5.624,5.624,0,0,0,2.93,1.021,41.387,41.387,0,0,0,6.754.865,8.909,8.909,0,0,0,4.359-.68,2.437,2.437,0,0,0,1.006-.859,1.349,1.349,0,0,0,.1-1.279,1.564,1.564,0,0,0-1.537-.712,9.009,9.009,0,0,0-1.735.452,6.265,6.265,0,0,1-2.727.144Z" fill="#064679"/>
        <path id="Trazado_134020" data-name="Trazado 134020" d="M189.149,157.826a11.434,11.434,0,0,1-1.494,1.2,11.65,11.65,0,0,1-2.191,1.165,11.385,11.385,0,0,1-1.177.4,11.284,11.284,0,0,0-1.164.259.67.67,0,0,0,.263.646,1.84,1.84,0,0,0,.668.3,17.615,17.615,0,0,0,10.378-.248,1.774,1.774,0,0,0,.949-.585,1.967,1.967,0,0,0-.05-1.692,20.347,20.347,0,0,1-.932-4.562q-.051-.58-.069-1.164c-.009-.3.092-.61-.255-.671a5.46,5.46,0,0,0-1.159.067l-1.142.07c-.542.033-1.011.01-1.126.624-.132.706-.263,1.412-.447,2.108a3.2,3.2,0,0,1-.653,1.684q-.2.205-.4.4" fill="#f49c68"/>
        <path id="Trazado_134021" data-name="Trazado 134021" d="M196.356,161.174l.459,1.2a.467.467,0,0,1-.306.615,32.983,32.983,0,0,1-5.823,1.174,20.827,20.827,0,0,1-3.962.094c-1.28-.116-2.864-.222-3.863-1.029,1.126.314,2.628-.251,3.792-.359l7.665-.713a4.454,4.454,0,0,0,1.166-.213,1.539,1.539,0,0,0,.872-.771" fill="#064679"/>
        <path id="Trazado_134022" data-name="Trazado 134022" d="M195.78,158.78c.264,1.013.42,1.535.852,3.116a5.633,5.633,0,0,1-2.93,1.021,41.387,41.387,0,0,1-6.754.865,8.909,8.909,0,0,1-4.359-.68,2.437,2.437,0,0,1-1.006-.859,1.349,1.349,0,0,1-.1-1.279,1.564,1.564,0,0,1,1.537-.712,9.011,9.011,0,0,1,1.735.452,6.265,6.265,0,0,0,2.727.144Z" fill="#064679"/>
        <path id="Trazado_134023" data-name="Trazado 134023" d="M214.334,156.141l-8.989,1.047q-3.255-12.438-6.511-24.874a113.085,113.085,0,0,0-4.577-14.782q-.464-1.119-.98-2.216l-.317,17.83a26.266,26.266,0,0,1,3.184,11.5,81.9,81.9,0,0,1,.055,12.273l-2.74-.086-4.686-.146a356.025,356.025,0,0,0-6.9-40.813,37.131,37.131,0,0,1-1.05-12.854,10.738,10.738,0,0,0,5.391,2.807,24.451,24.451,0,0,0,4.632.51h0c.5.017,1,.025,1.5.034a27.763,27.763,0,0,0,4.91-.222,9.9,9.9,0,0,0,4.518-1.822q.518,2.4,1.074,4.826c1.378,6.048,2.878,12.165,4.172,18.165.8,3.732,1.607,7.464,2.459,11.186,1.364,5.961,3.257,11.741,4.862,17.641" fill="#064679"/>
        <path id="Trazado_134024" data-name="Trazado 134024" d="M196.2,156.915l-2.741-.085a1.394,1.394,0,0,1-.083-.281,37.05,37.05,0,0,1-.036-5.239,41.82,41.82,0,0,0-1.347-10c-.535-1.9-1.263-3.747-1.763-5.658-1.63-6.222.389-24.248.389-24.248s1.821.463,2.329,1.241.389,1.2.329,2.667l-.227,12.8a21.789,21.789,0,0,0,1.377,8.125,29.147,29.147,0,0,1,1.719,8.4,82.029,82.029,0,0,1,.054,12.273" fill="#064679"/>
        <path id="Trazado_134025" data-name="Trazado 134025" d="M202.841,109.149q-.578-.025-1.156-.059a32.934,32.934,0,0,1-6.013-.779,16.146,16.146,0,0,1-3.223-1.147,14.309,14.309,0,0,1-1.607-.831c.5.016,1,.025,1.5.034a27.759,27.759,0,0,0,4.91-.222,9.893,9.893,0,0,0,4.518-1.822q.519,2.4,1.074,4.826" fill="#064679"/>
        <path id="Trazado_134026" data-name="Trazado 134026" d="M205.525,79.142l-2.436,7.79c-.219-.219-.437-.435-.649-.651q-.193-.2-.379-.393h0l-.1-.111v.01l.051,2.533.039,1.932.283,13.949A14.024,14.024,0,0,1,199,105.887a24.111,24.111,0,0,1-18.532-2.094,64.868,64.868,0,0,1,.681-14.972q.357-2.214.871-4.4l-.234.286-5.816,7.115a2.4,2.4,0,0,1-1.217.543,3.127,3.127,0,0,1-1.844-.307,9.387,9.387,0,0,1-1.592-1.029l-6.578-5.567c.327-.258.542-.651.87-.91a16.1,16.1,0,0,0,2.9-2.709L171.5,84.6a1.4,1.4,0,0,0,1.094.577,3.017,3.017,0,0,0,1.2-.361,14.6,14.6,0,0,0,4.841-4.489,25.063,25.063,0,0,1,4.415-4.962,10.92,10.92,0,0,1,5.844-2.258c.02.664.11.917.371,1.166a2.855,2.855,0,0,0,1.1.594,6.941,6.941,0,0,0,3.412.324,2.3,2.3,0,0,0,1.328-.554,5.26,5.26,0,0,0,.7-1.072s1.56.014,1.844.067a9.42,9.42,0,0,1,4.225,2.29,44.644,44.644,0,0,1,3.651,3.216" fill="#e8edbc"/>
        <path id="Trazado_134027" data-name="Trazado 134027" d="M201.9,100.38a5.957,5.957,0,0,0-.468.651,2.629,2.629,0,0,0-.319.943,3.225,3.225,0,0,0,.031.8,2.76,2.76,0,0,0,.123.746.651.651,0,0,0,.373.385c.187.062.409.009.577.112a.468.468,0,0,1,.2.332,1.235,1.235,0,0,1-.02.4,8.538,8.538,0,0,1-.342,1.353,2.028,2.028,0,0,0-.227,1.2.752.752,0,0,0,.776.618,1.066,1.066,0,0,0,.579-.422c0-.184.5-.591.6-.779s.14-.4.256-.584c.38-.62.853-1.2,1.275-1.795a1.086,1.086,0,0,0,.289-.83c-.081-.339-.457-.513-.654-.8a1.1,1.1,0,0,1-.087-.968,2.537,2.537,0,0,1,.543-.841,7.54,7.54,0,0,1,2.485-1.834,11.191,11.191,0,0,1-.762-.9c-.22-.323-.324-.65-.672-.871a2.08,2.08,0,0,0-.974-.262,1.722,1.722,0,0,0-1.3.276A7.941,7.941,0,0,0,202.868,99q-.408.576-.81,1.158c-.051.074-.1.147-.16.219" fill="#f49c68"/>
        <path id="Trazado_134028" data-name="Trazado 134028" d="M212.046,87.456a48.7,48.7,0,0,0-6.521-8.313l-2.436,7.79c1.41,1.4,2.855,2.884,2.921,4.773a3.338,3.338,0,0,1-.539,1.643c-.682,1.268-1.407,2.591-2.089,3.86a17.928,17.928,0,0,1,3.4,2.852,39.369,39.369,0,0,0,6.671-8.865,7.508,7.508,0,0,0-1.412-3.74" fill="#e8edbc"/>
        <path id="Trazado_134029" data-name="Trazado 134029" d="M181.152,88.821q.359-2.215.87-4.4l-.234.287q1.125-1.536,2.206-3.1.375-.54.744-1.085a8.7,8.7,0,0,1,.867-1.065,25.393,25.393,0,0,1-4.453,9.363" fill="#90b193"/>
        <path id="Trazado_134030" data-name="Trazado 134030" d="M202.047,90.251a14.974,14.974,0,0,1-3.4-4.725c-.311-.9-1.035-4.652-1.172-4.832a44.806,44.806,0,0,0,4.483,5.092l.051,2.532Z" fill="#90b193"/>
        <path id="Trazado_134031" data-name="Trazado 134031" d="M202.44,86.281q-.193-.2-.379-.393c.13.127.262.254.379.393" fill="#6787b2"/>
        <path id="Trazado_134032" data-name="Trazado 134032" d="M163.939,76.584a4.728,4.728,0,0,1,.83,2.3,2.972,2.972,0,0,1-.1,1.494,2.249,2.249,0,0,1-1.051,1.1,2.917,2.917,0,0,1-2.326.195,3.564,3.564,0,0,1-1.622-1.3c-.321-.439-.942-1.264-.607-1.824a1.792,1.792,0,0,1,.6-.534,1.379,1.379,0,0,1,.734-.292c.151,0,.3.055.448.062a.377.377,0,0,0,.379-.19.486.486,0,0,0-.138-.443c-.74-.983-1.628-1.857-2.278-2.9a.867.867,0,0,1-.153-.859.615.615,0,0,1,.769-.177,1.794,1.794,0,0,1,.631.577l1.794,2.272a3.288,3.288,0,0,0,.474.518,1.047,1.047,0,0,0,.566.262c.194.006.347-.136.517-.218s.412-.192.533-.035" fill="#f49c68"/>
        <path id="Trazado_134033" data-name="Trazado 134033" d="M160.644,80.715h0a.538.538,0,0,1-.749-.125l-1.146-1.6a.537.537,0,0,1,.873-.624l1.147,1.605a.537.537,0,0,1-.125.749" fill="#f0836e"/>
        <path id="Trazado_134034" data-name="Trazado 134034" d="M161.517,80.091h0a.538.538,0,0,1-.749-.125l-1.146-1.605a.537.537,0,0,1,.873-.624l1.147,1.605a.537.537,0,0,1-.125.749" fill="#f0836e"/>
        <path id="Trazado_134035" data-name="Trazado 134035" d="M162.391,79.467h0a.539.539,0,0,1-.75-.125l-1.146-1.605a.537.537,0,0,1,.873-.624l1.148,1.605a.537.537,0,0,1-.125.749" fill="#f0836e"/>
        <path id="Trazado_134036" data-name="Trazado 134036" d="M160.909,79.612l-.355.234a.066.066,0,0,0-.018.091l.132.192a.255.255,0,0,0,.325.041.3.3,0,0,0,.151-.285.508.508,0,0,0-.1-.192L161,79.631a.065.065,0,0,0-.09-.019" fill="#fff"/>
        <path id="Trazado_134037" data-name="Trazado 134037" d="M161.23,79.291l-.356.234a.066.066,0,0,0-.017.091l.131.192a.256.256,0,0,0,.326.041.3.3,0,0,0,.15-.285.494.494,0,0,0-.1-.192l-.041-.062a.065.065,0,0,0-.09-.019" fill="#fff"/>
        <path id="Trazado_134038" data-name="Trazado 134038" d="M162.2,78.7l-.355.234a.066.066,0,0,0-.018.091l.132.192a.255.255,0,0,0,.325.041.3.3,0,0,0,.152-.285.523.523,0,0,0-.1-.192l-.041-.062a.065.065,0,0,0-.09-.019" fill="#fff"/>
        <path id="Trazado_134039" data-name="Trazado 134039" d="M162.737,79.288l-.446-.207a.3.3,0,0,1-.148-.4l1.027-2.217a.305.305,0,0,1,.406-.149l.446.206a.306.306,0,0,1,.149.406l-1.028,2.217a.306.306,0,0,1-.406.149" fill="#f0836e"/>
        <path id="Trazado_134040" data-name="Trazado 134040" d="M163.06,78.557l-.4-.212a.069.069,0,0,0-.094.031l-.111.224a.272.272,0,0,0,.129.326.324.324,0,0,0,.347-.006.549.549,0,0,0,.126-.2l.037-.071a.07.07,0,0,0-.029-.094" fill="#fff"/>
      </g>
    </g>
  </g>
</svg>
