<svg id="Grupo_158823" data-name="Grupo 158823" xmlns="http://www.w3.org/2000/svg" xmlns:xlink="http://www.w3.org/1999/xlink" width="80.419" height="68.772" viewBox="0 0 80.419 68.772">
  <defs>
    <clipPath id="clip-path">
      <rect id="Rect치ngulo_38221" data-name="Rect치ngulo 38221" width="80.419" height="68.772" fill="none"/>
    </clipPath>
    <clipPath id="clip-path-3">
      <rect id="Rect치ngulo_38219" data-name="Rect치ngulo 38219" width="30.357" height="21.314" fill="none"/>
    </clipPath>
  </defs>
  <g id="Grupo_158822" data-name="Grupo 158822" clip-path="url(#clip-path)">
    <g id="Grupo_158821" data-name="Grupo 158821">
      <g id="Grupo_158820" data-name="Grupo 158820" clip-path="url(#clip-path)">
        <path id="Trazado_133789" data-name="Trazado 133789" d="M68.772,34.385A34.386,34.386,0,1,1,34.386,0,34.386,34.386,0,0,1,68.772,34.385" transform="translate(0 0.001)" fill="#ee1c25"/>
        <path id="Trazado_133790" data-name="Trazado 133790" d="M75.47,47.517A27.952,27.952,0,1,1,47.518,19.565,27.952,27.952,0,0,1,75.47,47.517" transform="translate(-13.132 -13.131)" fill="#fff"/>
        <path id="Trazado_133791" data-name="Trazado 133791" d="M83.028,62.337a20.691,20.691,0,1,1-20.69-20.69,20.691,20.691,0,0,1,20.69,20.69" transform="translate(-27.952 -27.952)" fill="#ee1c25"/>
        <path id="Trazado_133792" data-name="Trazado 133792" d="M90.066,76.136a13.93,13.93,0,1,1-13.93-13.929,13.93,13.93,0,0,1,13.93,13.929" transform="translate(-41.751 -41.751)" fill="#fff"/>
        <path id="Trazado_133793" data-name="Trazado 133793" d="M95.449,86.69a8.759,8.759,0,1,1-8.759-8.759,8.759,8.759,0,0,1,8.759,8.759" transform="translate(-52.305 -52.304)" fill="#ee1c25"/>
        <g id="Grupo_158819" data-name="Grupo 158819" transform="translate(34.132 32.147)" style="mix-blend-mode: multiply;isolation: isolate">
          <g id="Grupo_158818" data-name="Grupo 158818">
            <g id="Grupo_158817" data-name="Grupo 158817" clip-path="url(#clip-path-3)">
              <path id="Trazado_133794" data-name="Trazado 133794" d="M134.151,116.625,105.458,97.757c-1.493.3-1.86.887-1.573,2.393l28.776,18.922q.794-1.189,1.49-2.447" transform="translate(-103.794 -97.757)" fill="#bcbec0"/>
            </g>
          </g>
        </g>
        <path id="Trazado_133795" data-name="Trazado 133795" d="M182.191,19.485l4.682-9.47,9.27-5.923-1.85,8.4,8.4,1.852-9.271,5.923-10.56.271Z" transform="translate(-122.279 -2.746)" fill="#0053b3"/>
        <path id="Trazado_133796" data-name="Trazado 133796" d="M186.873,10.016l-4.682,9.47.4.62,11.729-7.712,1.828-8.3Z" transform="translate(-122.279 -2.747)" fill="#006fed"/>
        <path id="Trazado_133797" data-name="Trazado 133797" d="M144.435,24.492l-38.977,25.63c-1.493-.3-1.86-.887-1.573-2.393L142.861,22.1c1.455.4,1.761.992,1.573,2.392" transform="translate(-69.662 -14.833)" fill="#cda349"/>
        <path id="Trazado_133798" data-name="Trazado 133798" d="M103.984,49.341l40.248-26.465a2.3,2.3,0,0,0-1.369-.774L103.886,47.73a2.3,2.3,0,0,0,.1,1.61" transform="translate(-69.664 -14.833)" fill="#e2c675"/>
      </g>
    </g>
  </g>
</svg>
