<svg xmlns="http://www.w3.org/2000/svg" xmlns:xlink="http://www.w3.org/1999/xlink" width="67.343" height="67.343" viewBox="0 0 67.343 67.343">
  <defs>
    <linearGradient id="linear-gradient" x1="0.5" x2="0.5" y2="1" gradientUnits="objectBoundingBox">
      <stop offset="0" stop-color="#3b9af8"/>
      <stop offset="1" stop-color="#207cd8"/>
    </linearGradient>
    <filter id="Trazado_116475" x="0" y="0" width="67.343" height="67.343" filterUnits="userSpaceOnUse">
      <feOffset dx="5" dy="8" input="SourceAlpha"/>
      <feGaussianBlur stdDeviation="4.5" result="blur"/>
      <feFlood flood-opacity="0.243"/>
      <feComposite operator="in" in2="blur"/>
      <feComposite in="SourceGraphic"/>
    </filter>
    <filter id="Trazado_116477" x="12.68" y="5.688" width="31.982" height="31.982" filterUnits="userSpaceOnUse">
      <feOffset dy="3" input="SourceAlpha"/>
      <feGaussianBlur stdDeviation="3" result="blur-2"/>
      <feFlood flood-opacity="0.161"/>
      <feComposite operator="in" in2="blur-2"/>
      <feComposite in="SourceGraphic"/>
    </filter>
    <filter id="Trazado_116478" x="12.234" y="25.694" width="32.873" height="21.38" filterUnits="userSpaceOnUse">
      <feOffset input="SourceAlpha"/>
      <feGaussianBlur stdDeviation="1" result="blur-3"/>
      <feFlood flood-opacity="0.161"/>
      <feComposite operator="in" in2="blur-3"/>
      <feComposite in="SourceGraphic"/>
    </filter>
  </defs>
  <g id="Grupo_86235" data-name="Grupo 86235" transform="translate(12029.695 10277.619)">
    <g transform="matrix(1, 0, 0, 1, -12029.7, -10277.62)" filter="url(#Trazado_116475)">
      <path id="Trazado_116475-2" data-name="Trazado 116475" d="M20.172,0A20.172,20.172,0,1,1,0,20.172,20.172,20.172,0,0,1,20.172,0Z" transform="translate(8.5 5.5)" fill="url(#linear-gradient)"/>
    </g>
    <path id="Trazado_116476" data-name="Trazado 116476" d="M19.992,39.617A19.624,19.624,0,1,1,39.615,19.992,19.646,19.646,0,0,1,19.992,39.617" transform="translate(-12021.018 -10271.941)" fill="#0c487b"/>
    <g id="Grupo_86210" data-name="Grupo 86210" transform="translate(-12014.461 -10265.932)">
      <g transform="matrix(1, 0, 0, 1, -15.23, -11.69)" filter="url(#Trazado_116477)">
        <path id="Trazado_116477-2" data-name="Trazado 116477" d="M22.865,11.162a6.991,6.991,0,1,1-6.991-6.991,6.992,6.992,0,0,1,6.991,6.991" transform="translate(12.8 7.52)" fill="#fff"/>
      </g>
      <g transform="matrix(1, 0, 0, 1, -15.23, -11.69)" filter="url(#Trazado_116478)">
        <path id="Trazado_116478-2" data-name="Trazado 116478" d="M17.975,31.013a18.328,18.328,0,0,0,13.436-5.856,14.24,14.24,0,0,0-26.873,0,18.328,18.328,0,0,0,13.436,5.856" transform="translate(10.7 13.06)" fill="#fff"/>
      </g>
    </g>
  </g>
</svg>
