<svg id="Grupo_159113" data-name="Grupo 159113" xmlns="http://www.w3.org/2000/svg" xmlns:xlink="http://www.w3.org/1999/xlink" width="275" height="184" viewBox="0 0 275 184">
  <defs>
    <clipPath id="clip-path">
      <rect id="Rectángulo_38521" data-name="Rectángulo 38521" width="275" height="184" fill="none"/>
    </clipPath>
  </defs>
  <g id="Grupo_159112" data-name="Grupo 159112" clip-path="url(#clip-path)">
    <path id="Trazado_134987" data-name="Trazado 134987" d="M137.5,19.327A72.673,72.673,0,1,1,64.827,92,72.673,72.673,0,0,1,137.5,19.327" fill="#b0c8cb"/>
    <path id="Trazado_134988" data-name="Trazado 134988" d="M98.573,153.753l5.64-15.654.68.123-5.64,15.654Z" fill="#e8edbc"/>
    <path id="Trazado_134989" data-name="Trazado 134989" d="M134.219,153.753l-5.877-16.313-.68.123,5.877,16.313Z" fill="#e8edbc"/>
    <rect id="Rectángulo_38494" data-name="Rectángulo 38494" width="0.702" height="21.783" transform="translate(116.045 132.745)" fill="#e8edbc"/>
    <path id="Trazado_134990" data-name="Trazado 134990" d="M101.372,147.369l15.1-5.187-.306-.448-15.1,5.187Z" fill="#e8edbc"/>
    <path id="Trazado_134991" data-name="Trazado 134991" d="M131.3,147.344l-15.024-5.161.306-.448L131.6,146.9Z" fill="#e8edbc"/>
    <rect id="Rectángulo_38495" data-name="Rectángulo 38495" width="69.466" height="79.34" transform="translate(81.513 32.959)" fill="#e8edbc"/>
    <path id="Trazado_134992" data-name="Trazado 134992" d="M151.064,112.384H81.427V32.873h69.637ZM81.6,112.213h69.3V33.044H81.6Z" fill="#6787b2"/>
    <rect id="Rectángulo_38496" data-name="Rectángulo 38496" width="73.792" height="2.556" transform="translate(79.35 30.91)" fill="#e8edbc"/>
    <path id="Trazado_134993" data-name="Trazado 134993" d="M153.227,33.552H79.264V30.825h73.963Zm-73.792-.171h73.621V31H79.435Z" fill="#6787b2"/>
    <rect id="Rectángulo_38497" data-name="Rectángulo 38497" width="8.088" height="1.903" transform="translate(112.48 29.008)" fill="#28649e"/>
    <rect id="Rectángulo_38498" data-name="Rectángulo 38498" width="3.742" height="1.489" transform="translate(114.653 27.519)" fill="#28649e"/>
    <rect id="Rectángulo_38499" data-name="Rectángulo 38499" width="13.911" height="1.439" transform="translate(109.588 113.976)" fill="#28649e"/>
    <rect id="Rectángulo_38500" data-name="Rectángulo 38500" width="2.029" height="21.499" transform="translate(115.381 115.231)" fill="#28649e"/>
    <path id="Trazado_134994" data-name="Trazado 134994" d="M103.583,137.944l8.635-23.968,1.966.356L105.549,138.3Z" fill="#28649e"/>
    <path id="Trazado_134995" data-name="Trazado 134995" d="M129.109,137.669l-8.536-23.694-1.966.357,8.536,23.693Z" fill="#28649e"/>
    <rect id="Rectángulo_38501" data-name="Rectángulo 38501" width="73.792" height="2.556" transform="translate(79.35 111.42)" fill="#e8edbc"/>
    <path id="Trazado_134996" data-name="Trazado 134996" d="M153.227,114.061H79.264v-2.727h73.963Zm-73.792-.171h73.621V111.5H79.435Z" fill="#6787b2"/>
    <rect id="Rectángulo_38502" data-name="Rectángulo 38502" width="0.513" height="31.144" transform="translate(88.463 76.602)" fill="#6787b2"/>
    <rect id="Rectángulo_38503" data-name="Rectángulo 38503" width="0.513" height="31.144" transform="translate(94.59 76.602)" fill="#6787b2"/>
    <rect id="Rectángulo_38504" data-name="Rectángulo 38504" width="0.513" height="31.144" transform="translate(100.716 76.602)" fill="#6787b2"/>
    <rect id="Rectángulo_38505" data-name="Rectángulo 38505" width="0.513" height="31.144" transform="translate(106.843 76.602)" fill="#6787b2"/>
    <rect id="Rectángulo_38506" data-name="Rectángulo 38506" width="0.513" height="31.144" transform="translate(112.97 76.602)" fill="#6787b2"/>
    <rect id="Rectángulo_38507" data-name="Rectángulo 38507" width="0.513" height="31.144" transform="translate(119.096 76.602)" fill="#6787b2"/>
    <rect id="Rectángulo_38508" data-name="Rectángulo 38508" width="0.513" height="31.144" transform="translate(125.223 76.602)" fill="#6787b2"/>
    <rect id="Rectángulo_38509" data-name="Rectángulo 38509" width="0.513" height="31.144" transform="translate(131.35 76.602)" fill="#6787b2"/>
    <rect id="Rectángulo_38510" data-name="Rectángulo 38510" width="0.513" height="31.144" transform="translate(137.477 76.602)" fill="#6787b2"/>
    <rect id="Rectángulo_38511" data-name="Rectángulo 38511" width="0.513" height="31.144" transform="translate(143.603 76.602)" fill="#6787b2"/>
    <rect id="Rectángulo_38512" data-name="Rectángulo 38512" width="60.331" height="0.513" transform="translate(86.08 82.218)" fill="#6787b2"/>
    <rect id="Rectángulo_38513" data-name="Rectángulo 38513" width="60.331" height="0.513" transform="translate(86.08 89.014)" fill="#6787b2"/>
    <rect id="Rectángulo_38514" data-name="Rectángulo 38514" width="60.331" height="0.513" transform="translate(86.08 95.81)" fill="#6787b2"/>
    <rect id="Rectángulo_38515" data-name="Rectángulo 38515" width="60.331" height="0.513" transform="translate(86.08 102.607)" fill="#6787b2"/>
    <path id="Trazado_134997" data-name="Trazado 134997" d="M87.934,103.353a1.14,1.14,0,0,1-.164-.011,1.282,1.282,0,0,1-1.109-1.434c.062-.483.183-.6,1.336-1.742.512-.507,1.224-1.2,2.115-2.067,1.516-1.47,3.049-2.942,3.064-2.957a1.282,1.282,0,0,1,1.545-.176l6.273,3.745,6.785-8.946a1.282,1.282,0,0,1,1.882-.176l6.267,5.671,5.267-9.137a1.28,1.28,0,0,1,1.831-.42l5.49,3.735,5.7-7.058-2.909.417a1.282,1.282,0,0,1-.364-2.538l6.137-.879a1.282,1.282,0,0,1,1.179,2.074l-8.49,10.513a1.282,1.282,0,0,1-1.718.255L122.726,88.6l-5.37,9.316a1.28,1.28,0,0,1-1.97.311l-6.409-5.8-6.633,8.746a1.283,1.283,0,0,1-1.679.326l-6.418-3.831c-2.415,2.324-4.885,4.727-5.278,5.157a1.283,1.283,0,0,1-1.035.527m1.27-1.115h0m0,0h0" fill="#064679"/>
    <path id="Trazado_134998" data-name="Trazado 134998" d="M138.074,87.825a1.282,1.282,0,0,1-1.268-1.107l-.814-5.894a1.282,1.282,0,0,1,2.54-.351l.813,5.895a1.282,1.282,0,0,1-1.094,1.445,1.339,1.339,0,0,1-.177.012" fill="#064679"/>
    <path id="Trazado_134999" data-name="Trazado 134999" d="M91.131,44.687a14.02,14.02,0,0,0-2.97,8.65H98.95v.009l2.82.695.469-.7Z" fill="#4c7bb1"/>
    <path id="Trazado_135000" data-name="Trazado 135000" d="M94.471,44.2l9.18,7.15,1.07,2.48.858-.979V38.775A14.056,14.056,0,0,0,94.471,44.2" fill="#4c7bb1"/>
    <path id="Trazado_135001" data-name="Trazado 135001" d="M107.474,40.941l-.718.88.718.421V55.019H93.395l-.718.88.823.841a14.079,14.079,0,1,0,13.974-15.8" fill="#4c7bb1"/>
    <path id="Trazado_135002" data-name="Trazado 135002" d="M120.834,55.9a14.078,14.078,0,0,1-28.157,0h14.079V41.821A14.078,14.078,0,0,1,120.834,55.9" fill="#6787b2"/>
    <path id="Trazado_135003" data-name="Trazado 135003" d="M101.77,54.041H87.691a14.02,14.02,0,0,1,2.97-8.65Z" fill="#4c7bb1"/>
    <path id="Trazado_135004" data-name="Trazado 135004" d="M104.72,39.754V53.832L93.612,45.181a14.057,14.057,0,0,1,11.108-5.427" fill="#6787b2"/>
    <path id="Trazado_135005" data-name="Trazado 135005" d="M141.338,59.949a6.867,6.867,0,0,1-10.579-5.775h4.075a2.791,2.791,0,0,0,4.3,2.349Z" fill="#064679"/>
    <path id="Trazado_135006" data-name="Trazado 135006" d="M144.8,53.975a6.861,6.861,0,0,1-3.152,5.775l-2.206-3.426a2.788,2.788,0,0,0,1.283-2.349,2.748,2.748,0,0,0-.1-.73l3.939-1.05a6.873,6.873,0,0,1,.233,1.78" fill="#064679"/>
    <path id="Trazado_135007" data-name="Trazado 135007" d="M144.456,51.84l-3.938,1.05a2.792,2.792,0,0,0-2.694-2.06V46.755a6.867,6.867,0,0,1,6.632,5.085" fill="#064679"/>
    <path id="Trazado_135008" data-name="Trazado 135008" d="M140.735,59.871A6.867,6.867,0,0,1,130.156,54.1h4.075a2.791,2.791,0,0,0,4.3,2.349Z" fill="#6787b2"/>
    <path id="Trazado_135009" data-name="Trazado 135009" d="M144.2,53.9a6.862,6.862,0,0,1-3.153,5.775l-2.205-3.426a2.79,2.79,0,0,0,1.282-2.349,2.707,2.707,0,0,0-.1-.73l3.94-1.05a6.916,6.916,0,0,1,.233,1.78" fill="#6787b2"/>
    <path id="Trazado_135010" data-name="Trazado 135010" d="M143.853,51.762l-3.938,1.05a2.792,2.792,0,0,0-2.694-2.06V46.677a6.867,6.867,0,0,1,6.632,5.085" fill="#6787b2"/>
    <path id="Trazado_135011" data-name="Trazado 135011" d="M136.7,44.234v.248a9.454,9.454,0,0,0-8.586,9.133v-.052l-.778.007-.09.118.863.209h5.612a3.843,3.843,0,0,1,3.842-3.843V44.443Z" fill="#064679"/>
    <path id="Trazado_135012" data-name="Trazado 135012" d="M136.7,44.234v5.612a3.843,3.843,0,0,0-3.843,3.843h-5.611a9.454,9.454,0,0,1,9.454-9.455" fill="#4c7bb1"/>
    <path id="Trazado_135013" data-name="Trazado 135013" d="M157.271,115.685s1.349-.032,2.8-.05c1.985-.025,4.394-.163,5.932-1.427,2.042-1.677,2.524-6.1,2.779-8.674.376-3.795,1.171-12.265,1.281-17.21s.23-9.13.23-9.13a3.521,3.521,0,0,1,3.511-3.511h27.827v32.292a8.8,8.8,0,0,1-8.795,8.8H173.886s-5.338,4.959-9.531,5.535l-5.815-1.348c-1.931,0-1.269-3.342-1.269-5.273" fill="#6787b2"/>
    <path id="Trazado_135014" data-name="Trazado 135014" d="M158.531,121.034a1.191,1.191,0,0,1-.9-.363c-.666-.706-.572-2.316-.489-3.737.026-.45.051-.875.051-1.249v-.074l.074,0c.014,0,1.366-.031,2.805-.05,2.2-.028,4.435-.218,5.885-1.409,2.065-1.7,2.529-6.375,2.751-8.623.433-4.37,1.175-12.416,1.281-17.205.108-4.886.229-9.088.23-9.128a3.591,3.591,0,0,1,3.587-3.587h27.9v32.368a8.882,8.882,0,0,1-8.871,8.872H173.916c-.381.348-5.519,4.981-9.551,5.534l-.013,0Zm15.277-45.275a3.439,3.439,0,0,0-3.435,3.437c0,.042-.122,4.243-.23,9.129-.106,4.8-.849,12.845-1.282,17.217-.224,2.268-.692,6.988-2.806,8.725-1.486,1.221-3.752,1.416-5.979,1.444-1.247.016-2.428.042-2.729.048,0,.36-.027.761-.052,1.184-.081,1.39-.173,2.965.448,3.623a1.035,1.035,0,0,0,.8.317h.009l5.81,1.346c4.119-.575,9.422-5.464,9.476-5.513l.021-.021H192.84a8.729,8.729,0,0,0,8.719-8.72V75.759Z" fill="#6787b2"/>
    <path id="Trazado_135015" data-name="Trazado 135015" d="M184.4,122.534v-6.961H153.5a3.48,3.48,0,0,0,0,6.961Z" fill="#e8edbc"/>
    <path id="Trazado_135016" data-name="Trazado 135016" d="M149.942,119.054A3.56,3.56,0,0,1,153.5,115.5h30.978v7.113H153.5a3.561,3.561,0,0,1-3.556-3.557m34.382-3.4H153.5a3.4,3.4,0,0,0,0,6.809h30.826Z" fill="#6787b2"/>
    <path id="Trazado_135017" data-name="Trazado 135017" d="M181.723,115.574h4.133c.5-.011,1.447-.03,2.449-.042,1.985-.025,4.394-.163,5.933-1.427,2.041-1.677,2.523-6.1,2.778-8.674.377-3.795.978-11.531,1.179-16.548.2-4.94.332-9.793.332-9.793a3.521,3.521,0,0,1,3.511-3.51h.079a3.521,3.521,0,0,1,3.511,3.51s-.739,15.379-.849,17.921a100.375,100.375,0,0,1-1.192,11.462c-.675,4.083-1.026,5.707-2.3,8.073a12.08,12.08,0,0,1-8.7,5.657l-3.243.287c-.337.03-.678.045-1.018.045h-6.6a3.481,3.481,0,1,1,0-6.961" fill="#4c7bb1"/>
    <path id="Trazado_135018" data-name="Trazado 135018" d="M178.167,119.054a3.56,3.56,0,0,1,3.556-3.556h4.132c.594-.013,1.5-.031,2.45-.043,2.2-.028,4.435-.218,5.885-1.409,2.066-1.7,2.529-6.375,2.751-8.623.363-3.667.975-11.457,1.179-16.544.2-4.883.331-9.743.332-9.789a3.591,3.591,0,0,1,3.587-3.587h.078a3.592,3.592,0,0,1,3.587,3.591c-.008.153-.741,15.407-.848,17.92a101.531,101.531,0,0,1-1.193,11.47c-.673,4.074-1.024,5.712-2.311,8.1a10.759,10.759,0,0,1-3.279,3.526,12.564,12.564,0,0,1-5.48,2.171l-3.243.287c-.339.03-.684.045-1.026.045h-6.6a3.56,3.56,0,0,1-3.556-3.556m23.872-43.4a3.439,3.439,0,0,0-3.435,3.437c0,.049-.136,4.909-.332,9.793-.2,5.09-.816,12.884-1.18,16.553-.224,2.268-.692,6.988-2.806,8.725-1.486,1.221-3.752,1.416-5.979,1.444-.948.012-1.855.03-2.45.042h-4.134a3.4,3.4,0,1,0,0,6.809h6.6c.337,0,.678-.015,1.013-.045l3.239-.286a12.077,12.077,0,0,0,8.642-5.618c1.276-2.365,1.625-4,2.295-8.049A101.278,101.278,0,0,0,204.7,97.007c.107-2.513.841-17.767.848-17.917a3.439,3.439,0,0,0-3.435-3.435Z" fill="#6787b2"/>
    <path id="Trazado_135019" data-name="Trazado 135019" d="M167.364,124.919h15.824a1.362,1.362,0,0,0,1.363-1.362v-1.022H166v1.022a1.362,1.362,0,0,0,1.362,1.362" fill="#064679"/>
    <rect id="Rectángulo_38516" data-name="Rectángulo 38516" width="5.016" height="16.98" transform="translate(172.818 124.918)" fill="#4c7bb1"/>
    <path id="Trazado_135020" data-name="Trazado 135020" d="M172.742,124.843h5.167v17.131h-5.167Zm5.016.152h-4.864v16.828h4.864Z" fill="#6787b2"/>
    <path id="Trazado_135021" data-name="Trazado 135021" d="M195.139,148.62a.977.977,0,0,0,.785-1.556c-1.617-2.192-5.6-3.666-11.854-4.381a72.59,72.59,0,0,0-8.689-.444.976.976,0,0,0,.019,1.952h.018a72.648,72.648,0,0,1,8.449.434c5.518.634,9.241,1.912,10.485,3.6a.975.975,0,0,0,.787.4" fill="#4c7bb1"/>
    <path id="Trazado_135022" data-name="Trazado 135022" d="M194.292,148.269c-1.232-1.67-4.937-2.937-10.433-3.568a73.271,73.271,0,0,0-8.439-.434h-.02a1.053,1.053,0,0,1-.02-2.105,72.181,72.181,0,0,1,8.7.445c6.271.718,10.277,2.2,11.906,4.411a1.052,1.052,0,0,1-1.693,1.25m-18.909-5.954a.9.9,0,0,0,.017,1.8h.021a71.563,71.563,0,0,1,8.455.434c5.539.636,9.281,1.925,10.538,3.628a.9.9,0,1,0,1.449-1.069c-1.6-2.174-5.574-3.637-11.8-4.351a74.5,74.5,0,0,0-8.056-.447c-.391,0-.613,0-.622,0" fill="#6787b2"/>
    <path id="Trazado_135023" data-name="Trazado 135023" d="M180.724,150.686a.988.988,0,0,0,.267-.037.976.976,0,0,0,.673-1.206,10.494,10.494,0,0,0-5.512-6.964.977.977,0,0,0-.737,1.809,6.633,6.633,0,0,1,1.728,1.208,9.584,9.584,0,0,1,2.642,4.48.977.977,0,0,0,.939.71" fill="#4c7bb1"/>
    <path id="Trazado_135024" data-name="Trazado 135024" d="M179.712,150a9.506,9.506,0,0,0-2.621-4.445,6.571,6.571,0,0,0-1.705-1.194,1.052,1.052,0,0,1,.794-1.949,10.572,10.572,0,0,1,5.557,7.014,1.052,1.052,0,0,1-1.013,1.339,1.057,1.057,0,0,1-1.012-.765m-4.278-7.441a.9.9,0,0,0,.011,1.662,6.751,6.751,0,0,1,1.75,1.223,9.664,9.664,0,0,1,2.663,4.514.907.907,0,0,0,.866.656.892.892,0,0,0,.246-.035.9.9,0,0,0,.621-1.112,10.412,10.412,0,0,0-5.468-6.914.895.895,0,0,0-.689.006" fill="#6787b2"/>
    <path id="Trazado_135025" data-name="Trazado 135025" d="M192.486,151.036a2.894,2.894,0,1,0,2.894-2.894,2.894,2.894,0,0,0-2.894,2.894" fill="#064679"/>
    <path id="Trazado_135026" data-name="Trazado 135026" d="M198.863,150.532a3.483,3.483,0,1,0-6.966,0Z" fill="#064679"/>
    <path id="Trazado_135027" data-name="Trazado 135027" d="M177.866,153.545a2.894,2.894,0,1,0,2.894-2.894,2.894,2.894,0,0,0-2.894,2.894" fill="#064679"/>
    <path id="Trazado_135028" data-name="Trazado 135028" d="M184.242,153.041a3.483,3.483,0,1,0-6.966,0Z" fill="#064679"/>
    <path id="Trazado_135029" data-name="Trazado 135029" d="M153.292,148.62a.975.975,0,0,0,.787-.4c1.244-1.686,4.967-2.964,10.485-3.6a72.64,72.64,0,0,1,8.449-.434h.018a.976.976,0,0,0,.019-1.952,72.59,72.59,0,0,0-8.689.444c-6.249.715-10.237,2.189-11.854,4.381a.977.977,0,0,0,.785,1.556" fill="#4c7bb1"/>
    <path id="Trazado_135030" data-name="Trazado 135030" d="M152.668,148.49a1.053,1.053,0,0,1-.223-1.471c1.63-2.21,5.636-3.694,11.907-4.412a72.052,72.052,0,0,1,8.7-.444,1.052,1.052,0,0,1-.02,2.1h-.023a72.854,72.854,0,0,0-8.436.433c-5.5.632-9.2,1.9-10.433,3.568a1.056,1.056,0,0,1-.848.428,1.04,1.04,0,0,1-.623-.206m20.346-4.375h.017a.9.9,0,0,0,.017-1.8,73.576,73.576,0,0,0-8.679.444c-6.227.713-10.2,2.177-11.8,4.351a.9.9,0,0,0,.723,1.435.905.905,0,0,0,.726-.366c1.257-1.7,5-2.992,10.537-3.629a72.782,72.782,0,0,1,7.871-.438c.3,0,.508,0,.589,0" fill="#6787b2"/>
    <path id="Trazado_135031" data-name="Trazado 135031" d="M167.706,150.686a.977.977,0,0,0,.939-.71,9.584,9.584,0,0,1,2.642-4.48,6.6,6.6,0,0,1,1.729-1.208.977.977,0,0,0-.738-1.809,10.494,10.494,0,0,0-5.512,6.964.976.976,0,0,0,.673,1.206.988.988,0,0,0,.267.037" fill="#4c7bb1"/>
    <path id="Trazado_135032" data-name="Trazado 135032" d="M167.419,150.722a1.054,1.054,0,0,1-.726-1.3,10.575,10.575,0,0,1,5.557-7.014,1.052,1.052,0,0,1,.795,1.949,6.561,6.561,0,0,0-1.706,1.194A9.506,9.506,0,0,0,168.718,150a1.057,1.057,0,0,1-1.012.765,1.041,1.041,0,0,1-.287-.04m4.888-8.172a10.409,10.409,0,0,0-5.468,6.914.9.9,0,0,0,1.733.491,9.664,9.664,0,0,1,2.663-4.514,6.628,6.628,0,0,1,1.752-1.223.9.9,0,0,0,.011-1.663.922.922,0,0,0-.352-.071.9.9,0,0,0-.339.066" fill="#6787b2"/>
    <path id="Trazado_135033" data-name="Trazado 135033" d="M170.355,153.588a2.894,2.894,0,1,1-2.894-2.894,2.894,2.894,0,0,1,2.894,2.894" fill="#064679"/>
    <path id="Trazado_135034" data-name="Trazado 135034" d="M163.979,153.084a3.482,3.482,0,1,1,6.965,0Z" fill="#064679"/>
    <path id="Trazado_135035" data-name="Trazado 135035" d="M171.313,144.532h8.174a.692.692,0,0,0,.692-.692v-1.249a.692.692,0,0,0-.692-.692h-8.174a.692.692,0,0,0-.692.692v1.249a.692.692,0,0,0,.692.692" fill="#064679"/>
    <path id="Trazado_135036" data-name="Trazado 135036" d="M150.555,151.036a2.894,2.894,0,1,0,2.894-2.894,2.894,2.894,0,0,0-2.894,2.894" fill="#064679"/>
    <path id="Trazado_135037" data-name="Trazado 135037" d="M156.932,150.532a3.483,3.483,0,1,0-6.966,0Z" fill="#064679"/>
    <path id="Trazado_135038" data-name="Trazado 135038" d="M140.347,140.581a15.582,15.582,0,0,1-4.3-.025,6.366,6.366,0,0,1-.249,4.491l1.735-.206c.466-.055.933-.111,1.4-.147.237-.018.475-.031.712-.036a1.987,1.987,0,0,0,.617-.023c.185-.074.133-.218.1-.383-.043-.228-.077-.457-.1-.687a10.244,10.244,0,0,1,.087-2.984" fill="#f49c68"/>
    <path id="Trazado_135039" data-name="Trazado 135039" d="M134.816,133.831c.015.554.191,7.889.051,7.889l5.722.137c-.207,0,.044-6.221.048-6.877,0-.169,0-.336,0-.5a31.9,31.9,0,0,1,.655-6.691,15.335,15.335,0,0,1,2.772-6.083l.015-.02a9.21,9.21,0,0,1,5.308-3.422l.218-.044c8.258-1.786,12.481-1.194,15.629-1.237,1.061-.015,2.121.12,3.194.021a26.607,26.607,0,0,0,3.457-.61,6.5,6.5,0,0,0,2.321-.854c.089-.062.175-.128.257-.2a4,4,0,0,0,1.185-1.82,5.959,5.959,0,0,0,.207-2.5,6.1,6.1,0,0,0-.155-.856,16.047,16.047,0,0,0-.938-3.239c-.392-.482-.694.919-1.226.6a4.967,4.967,0,0,1-.474-.327c-.67-.513-1.434-1.283-2.222-2.032a8.266,8.266,0,0,0-3.226-2.251c-1.317-.271-10.955,2.957-12.99,3.39a75.4,75.4,0,0,0-10.463,3.49c-6.248,2.107-8.382,9.621-9.074,15.489a58.807,58.807,0,0,0-.275,8.549" fill="#064679"/>
    <path id="Trazado_135040" data-name="Trazado 135040" d="M140.381,134.773a3.835,3.835,0,0,0,.261-.3,31.765,31.765,0,0,1,.654-6.691,15.321,15.321,0,0,1,2.772-6.083l.015-.02.142-.186c.1-.124.2-.245.3-.364s.207-.234.315-.348l.164-.169a9.152,9.152,0,0,1,.7-.63c.062-.05.125-.1.189-.148a8.684,8.684,0,0,1,3.5-1.577l.218-.044c8.258-1.786,12.48-1.194,15.628-1.237,1.062-.015,2.122.12,3.195.021a26.652,26.652,0,0,0,3.456-.61,6.5,6.5,0,0,0,2.321-.854,3.147,3.147,0,0,0,.258-.2,4.023,4.023,0,0,0,1.185-1.82,5.975,5.975,0,0,0,.205-2.5,5.82,5.82,0,0,0-.154-.856c-1.113.743-1.572-1.24-2.637-2.966a4.527,4.527,0,0,0-2.224-2.032,3.728,3.728,0,0,0-1.854-.15,60.243,60.243,0,0,0-19.054,7.267c-7.332,4.25-11.166,16.484-9.554,22.492" fill="#064679"/>
    <path id="Trazado_135041" data-name="Trazado 135041" d="M140.682,144.206a6.668,6.668,0,0,1,.1,2.682,11.844,11.844,0,0,1-5.181,3.051,10.738,10.738,0,0,1-5.719-.04c-.331-.094-.7-.246-.806-.574a.77.77,0,0,1,.279-.776,2.555,2.555,0,0,1,.774-.4,12.341,12.341,0,0,0,5.934-4.9,17.353,17.353,0,0,0,4.617.954" fill="#064679"/>
    <path id="Trazado_135042" data-name="Trazado 135042" d="M140.835,146.506a2.07,2.07,0,0,1-.885,1.1,13.217,13.217,0,0,1-4.48,2.275,9.651,9.651,0,0,1-5.268-.075,1.96,1.96,0,0,1-.6-.3.691.691,0,0,1-.353-.7c.035-.1.136-.258.131-.281-.143-.005-.292.2-.336.284a3.055,3.055,0,0,0-.2.995,1.314,1.314,0,0,0,.883,1.345,10.5,10.5,0,0,0,1.089.323,11.511,11.511,0,0,0,2.251.319,13.134,13.134,0,0,0,2.39-.21,6.175,6.175,0,0,0,2.266-.929l2.995-1.886a4.861,4.861,0,0,0,.117-2.261" fill="#064679"/>
    <path id="Trazado_135043" data-name="Trazado 135043" d="M151.807,139.987a15.611,15.611,0,0,1-4.246.7,6.362,6.362,0,0,1,.5,4.469l1.676-.494c.451-.132.9-.265,1.358-.379.231-.057.463-.11.7-.155a1.948,1.948,0,0,0,.6-.126c.17-.1.1-.237.037-.394q-.12-.327-.218-.661a10.344,10.344,0,0,1-.413-2.956" fill="#f49c68"/>
    <path id="Trazado_135044" data-name="Trazado 135044" d="M145.652,131.032a35.806,35.806,0,0,0,1.163,4.468c.184.537,1.25,6.247,1.348,6.247a9.715,9.715,0,0,1,4.2-.342,19.553,19.553,0,0,1-.539-4.143A19.854,19.854,0,0,1,167.1,117.369c2.008-.476,4.075-.637,6.118-.928a17.826,17.826,0,0,0,5.921-1.7,8.156,8.156,0,0,0,3.826-4.048q.091-.232.164-.475a5.6,5.6,0,0,0,.1-2.809,4.9,4.9,0,0,0-.962-2.028c-.289-.356-1-1.184-1.47-.971-.3.137-.274.977-.786.777-1.775-.693-4.7-3.485-6.608-3.553-1.344-.048-2.95,2.444-4.886,3.211a75.74,75.74,0,0,0-9.732,5.192c-2.312,1.243-11.915,6.192-12.811,9.536a24.9,24.9,0,0,0-.318,11.457" fill="#064679"/>
    <path id="Trazado_135045" data-name="Trazado 135045" d="M151.822,137.262A19.854,19.854,0,0,1,167.1,117.369c2.008-.476,4.075-.637,6.119-.928a17.827,17.827,0,0,0,5.92-1.7,8.156,8.156,0,0,0,3.826-4.048q.091-.232.164-.475a5.613,5.613,0,0,0,.1-2.809c-.354.067-.609.091-.642.019a26.634,26.634,0,0,1-9.73,5.9c-2.99.983-7.358.694-15.2,3.836-7.606,2.831-6.283,17.013-5.831,20.1" fill="#064679"/>
    <path id="Trazado_135046" data-name="Trazado 135046" d="M152.567,143.239a6.665,6.665,0,0,1,.549,2.628,11.841,11.841,0,0,1-4.6,3.874,10.734,10.734,0,0,1-5.645.918,1.074,1.074,0,0,1-.89-.432.766.766,0,0,1,.144-.812,2.566,2.566,0,0,1,.7-.519,12.34,12.34,0,0,0,5.029-5.825,17.35,17.35,0,0,0,4.712.168" fill="#064679"/>
    <path id="Trazado_135047" data-name="Trazado 135047" d="M153.1,145.481a2.075,2.075,0,0,1-.688,1.237,13.22,13.22,0,0,1-4.036,2.992,9.645,9.645,0,0,1-5.206.808,2.01,2.01,0,0,1-.639-.2.694.694,0,0,1-.466-.634c.019-.1.091-.278.083-.3-.142.018-.255.245-.284.336a3.039,3.039,0,0,0-.034,1.015,1.316,1.316,0,0,0,1.1,1.179,10.451,10.451,0,0,0,1.127.135,11.432,11.432,0,0,0,2.273-.062,13.06,13.06,0,0,0,2.321-.607,6.146,6.146,0,0,0,2.079-1.295l2.637-2.361a4.875,4.875,0,0,0-.263-2.248" fill="#064679"/>
    <path id="Trazado_135048" data-name="Trazado 135048" d="M171.335,72.051c-.454,2.255-3.167,3.189-5.243,2.86a9.346,9.346,0,0,1-3.231-1.265,9.573,9.573,0,0,0,.277-7.384,6.311,6.311,0,0,0,5.608-1.172c1.069,2.282,1.721,4.643,2.589,6.961" fill="#f49c68"/>
    <path id="Trazado_135049" data-name="Trazado 135049" d="M169.539,66.813a3.886,3.886,0,0,1-.908,1.726,10.81,10.81,0,0,1-4.934,1.829,12.218,12.218,0,0,0-.018-1.624c1.994-.28,4.287-.674,5.8-2.094-.006-.013.049.127.062.163" fill="#f0836e"/>
    <path id="Trazado_135050" data-name="Trazado 135050" d="M159.109,56.928a4.4,4.4,0,0,0,.8,4.443,4.07,4.07,0,0,1,.047-1.006,5.35,5.35,0,0,0,1.3-2.09c.182-.534,1.058-3.643.173-3.643a4.005,4.005,0,0,0-2.322,2.3" fill="#7d2345"/>
    <path id="Trazado_135051" data-name="Trazado 135051" d="M171.1,60.858c-.331,11.117-10.925,10.663-11.236-.2-.05-10.619,11.93-10.576,11.236.2" fill="#f49c68"/>
    <path id="Trazado_135052" data-name="Trazado 135052" d="M165.484,69.2c-3.816-.205-5.611-4.855-5.715-8.545-.683-5.815,6.312-11.675,10.134-5.591,1.848,3.033,1.669,8.69-.353,11.654a4.745,4.745,0,0,1-4.066,2.482m.005-.186c6.964-.214,7.633-15.779.538-16.3-8.55.079-7.322,16.021-.538,16.3" fill="#f49c68"/>
    <path id="Trazado_135053" data-name="Trazado 135053" d="M159.911,61.372s-2.982-4.784,1.64-6.451a12.018,12.018,0,0,0,3.422,2.3,8.025,8.025,0,0,1,2.156.984c1.54,1.463,1.842,3.868,1.891,5.9.26-.707,1.1-.717,1.738-.62a4.968,4.968,0,0,0-.834,2.866,5.76,5.76,0,0,0,2.688-2.571c.725-1.093.75-2.467,1.539-3.5,2.1-2.268,2.208-4.376-.086-6.511a10.552,10.552,0,0,0-2.053-1.136c-.9-.628-1.136-1.908-1.983-2.611-1.705-1.352-4.024.074-5.94-.327-.727-.151-1.383-.545-2.1-.728a3.764,3.764,0,0,0-4.335,2.1c-.556,1.474.376,2.992.483,4.443a14.047,14.047,0,0,1-.355,2.005,3.659,3.659,0,0,0,2.132,3.852" fill="#7d2345"/>
    <path id="Trazado_135054" data-name="Trazado 135054" d="M168.309,60.088a11.192,11.192,0,0,1,.555,2.235c-1.546-5.3-3.51-2.746-8.142-6.272a3.887,3.887,0,0,1,.661-1.067l.168-.063c3.143,3.15,5.631,1.783,6.758,5.167" fill="#f0836e"/>
    <path id="Trazado_135055" data-name="Trazado 135055" d="M157.95,54.09c-2.93-4.256,2.356-8.22,5.855-3.886l-.166.149c-3.354-4.149-8.268-.373-5.51,3.6Z" fill="#7d2345"/>
    <path id="Trazado_135056" data-name="Trazado 135056" d="M173.331,60.163l-.222-.016c.263-1.546,1.975-1.371,2.826-2.256.756-.87.544-2.01.005-3.12A2.578,2.578,0,0,0,173.251,53a2.471,2.471,0,0,1-2.019-.687c-.445-.585-.3-1.386-.584-2.027-1.261-2.167-4.458-.413-6.3-.118l-.056-.216c2-.326,5.157-2.124,6.557.242.291.62.15,1.437.557,1.983a2.3,2.3,0,0,0,1.848.6,2.8,2.8,0,0,1,2.884,1.9c.5.881.808,2.563-.044,3.369-.808.9-2.472.694-2.766,2.118" fill="#7d2345"/>
    <path id="Trazado_135057" data-name="Trazado 135057" d="M160.176,71.106a106.511,106.511,0,0,0,5.049,23.983c-1.417,3.449-3.142,5.535-3.593,9.216,4.554,1.335,9.053,4.633,13.858,5.187,2.775.51,6.067.556,8.338-1.3a64.855,64.855,0,0,0-.854-21.333,13.686,13.686,0,0,0,2.489-1.327q-1.708-4.651-3.416-9.3a8.967,8.967,0,0,0-1.6-3.056c-2.473-2.4-6.53-2.429-9.747-3.082a8.676,8.676,0,0,1-1.98,1.795c-1.829,1.152-4.789.556-5.263-1.758-.964.309-2.617.278-3.285.975" fill="#e8edbc"/>
    <path id="Trazado_135058" data-name="Trazado 135058" d="M159.941,88.678a5.047,5.047,0,0,0-4.866-.718,18.682,18.682,0,0,0,.372-2.776c1.7.99,3.324,2.26,5.024,3.25-.043.19-.086.379-.131.569a3.976,3.976,0,0,0-.4-.325" fill="#f0836e"/>
    <path id="Trazado_135059" data-name="Trazado 135059" d="M165.225,95.089q-.189.41-.37.827c2.366.875,7.564,2.962,9.794,1.529,1.335-1.124,1.542-6.463,2.1-8.47.765-2.291-1.889-3.69-1.478-5.829-1.869,2.207.5,2.926.192,4.112-4.441,8.941.968,9.809-10.431,7.249q.1.291.2.582" fill="#90b193"/>
    <path id="Trazado_135060" data-name="Trazado 135060" d="M177.273,85.787c3.431,7.554.9,16.239-1.782,23.706,2.774.509,6.067.555,8.338-1.3a64.909,64.909,0,0,0-.854-21.333,13.738,13.738,0,0,0,2.309-1.208,70.741,70.741,0,0,0-8.011.134" fill="#90b193"/>
    <path id="Trazado_135061" data-name="Trazado 135061" d="M160.538,97.008a6.088,6.088,0,0,0,1.15-2.775,34.648,34.648,0,0,0,10.786,2.449,23.516,23.516,0,0,0,4.257-10.83,40.139,40.139,0,0,0,6.71-.469c-1.786,6.073-2.839,19.428-11.882,17.243-3.885-1.1-7.268-3.525-10.843-5.35-.226-.116-.3-.146-.178-.268" fill="#f49c68"/>
    <path id="Trazado_135062" data-name="Trazado 135062" d="M177.331,85.862c2.185,4.526,1.936,9.977.886,14.842,3.083-4.5,4.027-10.078,5.291-15.305a38.08,38.08,0,0,1-6.177.463" fill="#f0836e"/>
    <path id="Trazado_135063" data-name="Trazado 135063" d="M146.314,94.814q.011-.653.02-1.3a3.873,3.873,0,0,0-.271-1.158,40.266,40.266,0,0,0,5.275.745,23.528,23.528,0,0,0,4.258-10.83A40.225,40.225,0,0,0,162.3,81.8c-1.786,6.072-2.838,19.426-11.881,17.242a25.262,25.262,0,0,1-4.955-2.088,5.035,5.035,0,0,0,.845-2.139" fill="#f49c68"/>
    <path id="Trazado_135064" data-name="Trazado 135064" d="M156.2,82.277c2.185,4.526,1.936,9.977.886,14.842,3.083-4.5,4.027-10.078,5.291-15.305a38.08,38.08,0,0,1-6.177.463" fill="#f0836e"/>
    <path id="Trazado_135065" data-name="Trazado 135065" d="M185.463,85.534a12.04,12.04,0,0,1-9.513,1.74,12.411,12.411,0,0,1-.421-5.523" fill="#e8edbc"/>
    <path id="Trazado_135066" data-name="Trazado 135066" d="M159.941,88.678a5.36,5.36,0,0,0-2.5-1.023c-.951-.9-3.235-2.9-3.22-2.86,0,0,2.065-6.24,2.782-8.569s1.494-4.351,3.662-5.462l2.215,15.929c-.519.9-1.373,2.1-1.931,3.034a3.786,3.786,0,0,0-1-1.049" fill="#e8edbc"/>
    <path id="Trazado_135067" data-name="Trazado 135067" d="M159.142,76.545c.129,3.849,1.918,8,2.728,11.734.349-.551.539-.821.951-1.5-1.193-4.441-2.878-8.889-2.993-13.523a6.553,6.553,0,0,0-.686,3.289" fill="#90b193"/>
    <path id="Trazado_135068" data-name="Trazado 135068" d="M158.007,85.915s2.821-1.783,2.205-4.884-3.937-2.948-3.937-2.948-2.72,1.166-2.837,3.1Z" fill="#90b193"/>
    <path id="Trazado_135069" data-name="Trazado 135069" d="M156.981,81.777l4.755,19.18a1.113,1.113,0,0,1-.909,1.368l-12.774,1.994a1.114,1.114,0,0,1-1.264-.881l-3.805-18.977a1.112,1.112,0,0,1,.888-1.313l11.825-2.2a1.114,1.114,0,0,1,1.284.827" fill="#e8edbc"/>
    <path id="Trazado_135070" data-name="Trazado 135070" d="M156.11,81.939l4.755,19.18a1.113,1.113,0,0,1-.909,1.368l-12.774,1.994a1.114,1.114,0,0,1-1.264-.881l-3.8-18.977A1.111,1.111,0,0,1,143,83.31l11.825-2.2a1.114,1.114,0,0,1,1.284.827" fill="#6787b2"/>
    <path id="Trazado_135071" data-name="Trazado 135071" d="M151.6,95.064q1.643-.006,3.28-.159a.147.147,0,0,0,.027-.287,2.5,2.5,0,0,0-.916-.089c-.482.034-1.014,0-1.5.027a4.9,4.9,0,0,1-1.4-.075.31.31,0,0,1,.007-.6,9.647,9.647,0,0,1,2.247-.033c.654.02,1.073.013,1.922-.029.054,0,.12-.01.192-.021a.149.149,0,0,0,.012-.292c-.6-.13-1.443-.18-1.888-.262a4.791,4.791,0,0,1-1.368-.358.344.344,0,0,1,.073-.637,2.8,2.8,0,0,1,1.045,0l4.681.649c.358.05.819.049.954-.3a.531.531,0,0,0,0-.352,2.551,2.551,0,0,0-.436-.651,3.176,3.176,0,0,1-.53-1.241.233.233,0,0,1,.384-.207,7.892,7.892,0,0,1,1.584,2.168,4.745,4.745,0,0,0,1.3,1.7,9.333,9.333,0,0,0,.84.428c.042.021.086.041.129.061-.047.1-.1.205-.141.309q-.378,1.323-.754,2.648a10.015,10.015,0,0,0-5.945-.639,8.626,8.626,0,0,1-1.579.157,1.537,1.537,0,0,1-.817-.12.256.256,0,0,1,.046-.473,18.667,18.667,0,0,1,1.885-.3.147.147,0,0,0-.011-.291,5.46,5.46,0,0,0-1.024.052,8.914,8.914,0,0,1-1.617-.021,2.1,2.1,0,0,1-.82-.243.272.272,0,0,1,.131-.51" fill="#f49c68"/>
    <path id="Trazado_135072" data-name="Trazado 135072" d="M143.076,94.546c-.123,1.111.276,2.067.892,2.135s1.214-.777,1.337-1.888-.276-2.067-.892-2.135-1.214.777-1.337,1.888" fill="#f49c68"/>
    <path id="Trazado_135073" data-name="Trazado 135073" d="M143.189,93.424l1.585.207a.517.517,0,1,0,.134-1.026l-1.585-.207a.517.517,0,1,0-.134,1.026" fill="#f49c68"/>
    <path id="Trazado_135074" data-name="Trazado 135074" d="M143,94.537l2.082.231a.548.548,0,0,0,.121-1.09l-2.082-.23A.548.548,0,0,0,143,94.537" fill="#f49c68"/>
    <path id="Trazado_135075" data-name="Trazado 135075" d="M143.125,95.675l2.016.223a.55.55,0,1,0,.121-1.093l-2.016-.223a.55.55,0,0,0-.121,1.093" fill="#f49c68"/>
    <path id="Trazado_135076" data-name="Trazado 135076" d="M143.594,96.758l1.526.114a.5.5,0,1,0,.074-1l-1.525-.115a.5.5,0,1,0-.075,1" fill="#f49c68"/>
    <path id="Trazado_135077" data-name="Trazado 135077" d="M156.275,78.083s-6.085,3.16-.352,12.207l-14.311,4.355a16.526,16.526,0,0,1-2.141-9.854s.572-3.651,7.728-4.926Z" fill="#fff"/>
    <path id="Trazado_135078" data-name="Trazado 135078" d="M208.733,102.279l4.783,53.283H210.35l-6.6-53.283Z" fill="#ef7e6b"/>
    <path id="Trazado_135079" data-name="Trazado 135079" d="M213.609,155.648h-3.334l-.009-.075-6.614-53.38h5.159l.007.078Zm-3.183-.171h3l-4.767-53.113h-4.81Z" fill="#ec7724"/>
    <path id="Trazado_135080" data-name="Trazado 135080" d="M196.159,102.279l4.783,53.283h-3.166l-6.6-53.283Z" fill="#fbc387"/>
    <path id="Trazado_135081" data-name="Trazado 135081" d="M201.035,155.648H197.7l-.009-.075-6.614-53.38h5.16l.007.078Zm-3.184-.171h3l-4.767-53.113h-4.81Z" fill="#ec7724"/>
    <path id="Trazado_135082" data-name="Trazado 135082" d="M118.625,102.279l-4.783,53.283h3.166l6.6-53.283Z" fill="#fbc387"/>
    <path id="Trazado_135083" data-name="Trazado 135083" d="M117.084,155.648h-3.335l.008-.093,4.79-53.362h5.16l-.012.1Zm-3.148-.171h3l6.58-53.113H118.7Z" fill="#ec7724"/>
    <path id="Trazado_135084" data-name="Trazado 135084" d="M131.2,102.279l-4.783,53.283h3.166l6.6-53.283Z" fill="#ef7e6b"/>
    <path id="Trazado_135085" data-name="Trazado 135085" d="M129.658,155.648h-3.335l.008-.093,4.79-53.362h5.16l-.012.1Zm-3.148-.171h3l6.58-53.113h-4.81Z" fill="#ec7724"/>
    <rect id="Rectángulo_38517" data-name="Rectángulo 38517" width="73.986" height="3.91" transform="translate(114.381 101.377)" fill="#fbc387"/>
    <path id="Trazado_135086" data-name="Trazado 135086" d="M188.453,105.373H114.3v-4.081h74.157Zm-73.986-.171h73.815v-3.739H114.467Z" fill="#ec7724"/>
    <rect id="Rectángulo_38518" data-name="Rectángulo 38518" width="22.342" height="3.91" transform="translate(188.367 101.377)" fill="#ef7e6b"/>
    <path id="Trazado_135087" data-name="Trazado 135087" d="M210.795,105.373H188.282v-4.081h22.513Zm-22.342-.171h22.171v-3.739H188.453Z" fill="#ec7724"/>
    <path id="Trazado_135088" data-name="Trazado 135088" d="M72.771,132.334c.4-2.174,2.223-4.435,3.678-6.1a7.718,7.718,0,0,0-1.186-2.041,5.384,5.384,0,0,0,.733-.466l.947-.944a4.353,4.353,0,0,0,.85-1.645,12.146,12.146,0,0,1,4.417.775,16.4,16.4,0,0,1-.717,6.13,15,15,0,0,1-1.784,3.093c-1.1,1.577-2.247,3.12-3.395,4.661-1.552,2.085-3.344,3.877-4.792,6.2-.356-.4-1.035-2.265-1.949-2.44.9-1.728,1.538-2.778,2.016-3.852a14.917,14.917,0,0,0,1.182-3.371" fill="#f49c68"/>
    <path id="Trazado_135089" data-name="Trazado 135089" d="M84.827,124.931c.045,1.208,1.167,2.822,1.212,4.031.021.57.042,1.141.07,1.711a26.508,26.508,0,0,0,2.553,11.358l3.4-.232c.281-7.277-.622-11.18-1.1-17.939Z" fill="#f49c68"/>
    <path id="Trazado_135090" data-name="Trazado 135090" d="M95.623,153.671a11.842,11.842,0,0,1-1.065-1.56,25.292,25.292,0,0,1-1.274-3.068h0c-.057-.132-.116-.264-.172-.4l-.056-.132L93,148.382c-.055-.132-.107-.263-.157-.4v0c-.151-.392-.286-.788-.4-1.188a8.555,8.555,0,0,1-.334-2.16q-.025-1.419-.052-2.838-1.7.117-3.4.231c.01.044.021.088.031.131.57,2.457.787,5.15-.349,7.4a4.752,4.752,0,0,1,1.82,1.524l0,0,.009.012c.032.04.064.081.095.122.086.111.167.223.247.334.054.076.107.151.159.226a11.226,11.226,0,0,0,1.641,2.08l.064.056c.1.084.2.164.308.238a3.883,3.883,0,0,0,3.195.557l0,0c-.063-.025.442-.3.459-.432a3.251,3.251,0,0,1-.716-.608" fill="#f49c68"/>
    <path id="Trazado_135091" data-name="Trazado 135091" d="M95.895,154.788a3.888,3.888,0,0,1-3.2-.556c-.107-.075-.209-.155-.308-.239l-.064-.056a11.126,11.126,0,0,1-1.646-2.08l-.154-.226c-.076-.111-.156-.223-.247-.334a.659.659,0,0,0-.1-.121l0-.035h0c.524.057,1.009.238,1.519.309a1.305,1.305,0,0,0,1.36-.5,1.656,1.656,0,0,0,.08-.983c-.082-.65-.149-1.284-.286-1.9H92.84v0c.056.133.111.265.166.4.016.044.038.088.057.132s.039.088.057.132c.056.132.117.264.174.4a25.293,25.293,0,0,0,1.274,3.068,11.843,11.843,0,0,0,1.065,1.56c-.125.357-.14.658.137.828-.018.135.037.2.12.213h0" fill="#f0836e"/>
    <path id="Trazado_135092" data-name="Trazado 135092" d="M90.364,151.867s-.756-.2-.74.157l.708,3.944-.346.119a24.242,24.242,0,0,0-1.195-4.55c-.535-.861-.954-1.09-.765-1.541s2.338,1.871,2.338,1.871" fill="#064679"/>
    <path id="Trazado_135093" data-name="Trazado 135093" d="M90.443,156.034l-.535.184-.02-.114a24.315,24.315,0,0,0-1.182-4.514c-.167-.271-.326-.481-.453-.65-.283-.374-.469-.622-.319-.982a.188.188,0,0,1,.144-.116c.436-.078,1.915,1.478,2.358,1.957l.232.252-.33-.088a.946.946,0,0,0-.591-.009.066.066,0,0,0-.025.06Zm-.38-.079.156-.053-.695-3.874a.267.267,0,0,1,.1-.229.678.678,0,0,1,.464-.082c-.848-.891-1.794-1.736-1.976-1.679-.1.239,0,.388.3.782.129.173.291.388.463.665a22.233,22.233,0,0,1,1.189,4.47" fill="#064679"/>
    <path id="Trazado_135094" data-name="Trazado 135094" d="M88.785,147.889s-.218-.011-.428.318a3.414,3.414,0,0,0-.47,2.008c.153.635,2.01,1.259,2.993,2.28,1.134,1.179,1.8,2.734,2.253,2.942a8,8,0,0,0,2.26-.11c.426-.048,2.409-.28,2.768-.82.246-.371.256-.753-.066-.879s-2.336-.616-2.336-.616a1.362,1.362,0,0,1-1.477.764c-1.087-.164-2.764-2.164-3.4-3.041-.575-.787-2.092-2.846-2.092-2.846" fill="#6787b2"/>
    <path id="Trazado_135095" data-name="Trazado 135095" d="M97.566,154.99a10.213,10.213,0,0,1-2.162.436l-.314.037a5.606,5.606,0,0,1-2,.064,3.254,3.254,0,0,1-.879-1.086,12.279,12.279,0,0,0-1.406-1.877,8.14,8.14,0,0,0-1.684-1.207c-.694-.415-1.243-.743-1.333-1.118a3.491,3.491,0,0,1,.483-2.085c.233-.367.488-.365.516-.364l.047,0,.028.037s1.516,2.059,2.092,2.847c.71.971,2.321,2.848,3.34,3a1.253,1.253,0,0,0,1.371-.7l.033-.078.081.02c.083.02,2.025.493,2.349.62a.461.461,0,0,1,.285.295.894.894,0,0,1-.173.731,1.385,1.385,0,0,1-.677.428M88.72,148a.6.6,0,0,0-.279.258,3.337,3.337,0,0,0-.458,1.932c.071.295.64.635,1.243.995a8.344,8.344,0,0,1,1.725,1.24,12.421,12.421,0,0,1,1.429,1.906,3.515,3.515,0,0,0,.794,1.014,6.537,6.537,0,0,0,1.892-.08l.316-.038c1.477-.168,2.485-.458,2.7-.776a.713.713,0,0,0,.149-.562.265.265,0,0,0-.168-.171c-.277-.108-1.878-.5-2.248-.593a1.459,1.459,0,0,1-1.544.747c-1.353-.2-3.384-2.963-3.469-3.08-.524-.717-1.827-2.486-2.058-2.8l-.02.007" fill="#6787b2"/>
    <path id="Trazado_135096" data-name="Trazado 135096" d="M69.8,151.372a11.947,11.947,0,0,1-.078-1.887,25.123,25.123,0,0,1,.544-3.278c.022-.142.041-.286.064-.427.007-.047.015-.1.022-.142l.024-.141c.024-.14.049-.28.076-.418v0c.08-.413.175-.819.293-1.218a8.555,8.555,0,0,1,.86-2.01l1.458-2.435c-1-.534-1.447-1.267-2.449-1.8-.015.043-.365.671-.386.71-1.222,2.309-2.273,4.4-4.428,5.711a4.742,4.742,0,0,1,.737,2.256v.018c.006.051.011.1.016.154.014.139.024.277.033.414.006.092.01.185.015.275a11.22,11.22,0,0,0,.291,2.634c.009.027.017.054.025.081.039.123.084.246.135.366a3.885,3.885,0,0,0,2.416,2.163l0,0c-.04-.055.532-.019.619-.124a3.24,3.24,0,0,1-.286-.9" fill="#f49c68"/>
    <path id="Trazado_135097" data-name="Trazado 135097" d="M69.442,152.463a3.885,3.885,0,0,1-2.416-2.163q-.077-.18-.135-.366l-.024-.081a11.083,11.083,0,0,1-.3-2.636c0-.09-.008-.181-.011-.273-.006-.135-.014-.272-.033-.414a.626.626,0,0,0-.024-.158l.016-.031h0c.415.326.73.736,1.125,1.066a1.307,1.307,0,0,0,1.422.292,1.658,1.658,0,0,0,.587-.792c.276-.6.553-1.168.763-1.762l-.006-.005v0c-.022.143-.046.284-.07.425-.008.047-.013.1-.021.143s-.013.1-.021.142c-.022.142-.04.286-.062.428a25.292,25.292,0,0,0-.544,3.278,11.946,11.946,0,0,0,.078,1.887c-.3.236-.467.484-.322.774-.087.106-.072.186-.011.245l0,0" fill="#f0836e"/>
    <path id="Trazado_135098" data-name="Trazado 135098" d="M66.3,147.057s-.535-.572-.711-.259L64.1,150.519l-.356-.082a24.176,24.176,0,0,0,1.394-4.493c0-1.013-.232-1.429.167-1.712s.993,2.825.993,2.825" fill="#064679"/>
    <path id="Trazado_135099" data-name="Trazado 135099" d="M64.158,150.634l-.551-.127.043-.107a24.3,24.3,0,0,0,1.387-4.456c0-.318-.022-.58-.041-.791-.041-.468-.068-.776.25-1a.188.188,0,0,1,.183-.022c.411.165.842,2.269.964,2.909l.064.336-.233-.25c-.133-.141-.375-.334-.5-.32a.066.066,0,0,0-.053.038Zm-.282-.268.161.037L65.5,146.75a.266.266,0,0,1,.206-.142.675.675,0,0,1,.437.175,6.958,6.958,0,0,0-.787-2.471c-.208.153-.2.331-.161.823.019.215.043.483.042.809a22.139,22.139,0,0,1-1.359,4.422" fill="#064679"/>
    <path id="Trazado_135100" data-name="Trazado 135100" d="M67.062,142.846s-.18-.125-.531.044a3.408,3.408,0,0,0-1.463,1.454c-.206.619,1.04,2.132,1.333,3.519.338,1.6.076,3.269.355,3.688a7.985,7.985,0,0,0,1.975,1.1c.386.184,2.192,1.037,2.782.769.4-.184.616-.5.41-.781s-1.657-1.759-1.657-1.759a1.36,1.36,0,0,1-1.657-.134c-.835-.714-1.2-3.3-1.279-4.381-.071-.974-.268-3.523-.268-3.523" fill="#6787b2"/>
    <path id="Trazado_135101" data-name="Trazado 135101" d="M70.752,153.518a10.2,10.2,0,0,1-2.064-.774l-.287-.135a5.631,5.631,0,0,1-1.728-1,3.244,3.244,0,0,1-.17-1.386,12.35,12.35,0,0,0-.2-2.337,8.2,8.2,0,0,0-.79-1.916c-.37-.72-.661-1.288-.54-1.655a3.492,3.492,0,0,1,1.514-1.512.632.632,0,0,1,.631-.036l.038.027,0,.047s.2,2.55.268,3.523c.088,1.2.462,3.644,1.244,4.314a1.253,1.253,0,0,0,1.536.128l.069-.048.059.06c.059.06,1.457,1.49,1.665,1.769a.46.46,0,0,1,.085.4.893.893,0,0,1-.533.529,1.39,1.39,0,0,1-.8,0m-3.805-10.611a.589.589,0,0,0-.373.072,3.324,3.324,0,0,0-1.412,1.4c-.1.287.207.877.528,1.5a8.391,8.391,0,0,1,.808,1.965,12.571,12.571,0,0,1,.2,2.374,3.484,3.484,0,0,0,.137,1.28,6.542,6.542,0,0,0,1.647.934l.288.135c1.342.639,2.351.927,2.7.769a.722.722,0,0,0,.424-.4.268.268,0,0,0-.053-.234c-.178-.238-1.327-1.421-1.593-1.693a1.461,1.461,0,0,1-1.706-.184c-1.039-.889-1.3-4.3-1.312-4.449-.065-.886-.234-3.077-.264-3.464l-.021-.005" fill="#6787b2"/>
    <path id="Trazado_135102" data-name="Trazado 135102" d="M73.105,97.24a33.061,33.061,0,0,0-1.971,7.516,20.137,20.137,0,0,0,.771,8.533c.914,2.717,2.566,5.186,2.952,8.04.241,1.779-.037,3.61-1.493,4.546,1.315,1.238,3.225,1.4,4.987,1.48q5.994.268,12,.192c1.34-.017,4.084-.291,4.084-.291s-3.094-5.726-3.276-11.05c-.125-3.635.707-7.372.459-11s-1.157-7.341-3.389-10.116c-4.834.962-9.777,1.914-14.526.563a14.235,14.235,0,0,0-.594,1.587" fill="#064679"/>
    <path id="Trazado_135103" data-name="Trazado 135103" d="M74.858,121.33c.241,1.779-.038,3.61-1.493,4.546a5.9,5.9,0,0,0,3.509,1.374l-.019-.02c1.455-1.023,1.734-3.024,1.493-4.968-.386-3.121-2.039-5.819-2.953-8.79a23.984,23.984,0,0,1-.771-9.327A37.339,37.339,0,0,1,76.513,96.2a17.184,17.184,0,0,1-2.813-.546,14.04,14.04,0,0,0-.594,1.587,33.068,33.068,0,0,0-1.972,7.515,20.134,20.134,0,0,0,.771,8.533c.915,2.718,2.566,5.187,2.953,8.041" fill="#064679"/>
    <path id="Trazado_135104" data-name="Trazado 135104" d="M81.648,68.523a15.568,15.568,0,0,0,.869,5.261c-1.748-.347-4.648.116-6.425.248.359-2.473,1.126-6.128.995-8.624a6.511,6.511,0,0,0,4.561,3.115" fill="#f49c68"/>
    <path id="Trazado_135105" data-name="Trazado 135105" d="M77,65.263a1.036,1.036,0,0,0,.319.244.445.445,0,0,0,.39,0,.666.666,0,0,0,.261-.5,6.288,6.288,0,0,0,.066-1.661,2.812,2.812,0,0,0-.179-.816,1.339,1.339,0,0,0-.518-.64.885.885,0,0,0-.8-.075c-.468.206-.447.813-.437,1.247a3.329,3.329,0,0,0,.385,1.478,3.171,3.171,0,0,0,.516.717" fill="#f49c68"/>
    <path id="Trazado_135106" data-name="Trazado 135106" d="M77.436,63.259a1.083,1.083,0,0,0-.125-.351.4.4,0,0,0-.3-.2.25.25,0,0,0-.264.21.452.452,0,0,0,.145.293.318.318,0,0,1,.091.305c-.029.067-.1.112-.117.183a.216.216,0,0,0,.089.2,1.434,1.434,0,0,1,.181.147.561.561,0,0,1,.1.237.485.485,0,0,0,.155.308.12.12,0,0,0,.188-.061,1.257,1.257,0,0,0-.007-.4c-.01-.137-.027-.274-.048-.41-.024-.157-.054-.312-.089-.466" fill="#ef7e6b"/>
    <path id="Trazado_135107" data-name="Trazado 135107" d="M77,66.54a7.753,7.753,0,0,0,3.117,2.472,3.832,3.832,0,0,0,3.8-.481,4.013,4.013,0,0,0,1.159-1.911,11.938,11.938,0,0,0,.376-2.228q.2-1.906.4-3.81a3.957,3.957,0,0,0-.451-2.906,3.49,3.49,0,0,0-2.652-1,7.247,7.247,0,0,0-2.465.236,3.63,3.63,0,0,0-2,1.4,10.016,10.016,0,0,0-.738,1.67,1.322,1.322,0,0,1-.586.743,2.506,2.506,0,0,1-.91.087,1.767,1.767,0,0,0-1.435.927,1.947,1.947,0,0,0,.45,2.234c.661.843,1.254,1.739,1.933,2.568" fill="#f49c68"/>
    <path id="Trazado_135108" data-name="Trazado 135108" d="M81.65,69.3l-.083.025a4.207,4.207,0,0,1-2.667-.13,6.1,6.1,0,0,1-1.775-1.08q.014-.711,0-1.419a7.554,7.554,0,0,0,2.987,2.316,4.382,4.382,0,0,0,1.456.285.757.757,0,0,0,.082,0" fill="#f0836e"/>
    <path id="Trazado_135109" data-name="Trazado 135109" d="M79.329,52.325a4.3,4.3,0,0,0-1.929-2.18,3.943,3.943,0,0,0-3.477.186,8.038,8.038,0,0,0-2.634,2.427,23.192,23.192,0,0,0-3.768,9,32.163,32.163,0,0,0-.736,5.983q-.291,7.821-.583,15.642a7.85,7.85,0,0,0,3.675,1.7,15.124,15.124,0,0,1,.719-6.547,38.539,38.539,0,0,0,.352,5.889,19.286,19.286,0,0,1,3.5-.2,128.573,128.573,0,0,1-.922-19.175c.331,1.068.814,2.587,3.61,3.082.147-.6.425-2.039.573-2.638a1.839,1.839,0,0,1-1.727-1.582A2.3,2.3,0,0,1,77,61.757a1.8,1.8,0,0,1,1.007-.342,1.106,1.106,0,0,1,.922.471c-.084-.131.389-.934.459-1.075a1.539,1.539,0,0,1,.619-.593,7.19,7.19,0,0,1,1.886-.889,7.4,7.4,0,0,1,2.36-.317,7.832,7.832,0,0,1,1.239.147c.407.079.457-.081.475-.471a4.847,4.847,0,0,0-1.529-3.654A6.425,6.425,0,0,0,80.2,53.368c-.21-.387-.687-.641-.867-1.043" fill="#7d2345"/>
    <path id="Trazado_135110" data-name="Trazado 135110" d="M79.7,51.736a7.631,7.631,0,0,0-3.335.532,3.479,3.479,0,0,0-1.732,1.227,12.293,12.293,0,0,0,.9,1.847,3.861,3.861,0,0,1,2.045-1.473,12.394,12.394,0,0,1,2.618-.453,2.71,2.71,0,0,0-.493-1.68" fill="#f49c68"/>
    <path id="Trazado_135111" data-name="Trazado 135111" d="M84.5,78.559l1.66-3.66L92.2,83.546a6.7,6.7,0,0,0,2.133-1.3,31.533,31.533,0,0,0,5.4-5.783c.147-.238.662-.792.777-.962a6.67,6.67,0,0,0,1.285,1.55,2.934,2.934,0,0,0,.54.354c-.276.43-.422.726-.614,1.034-.134.214-.259.433-.373.657A34.764,34.764,0,0,1,96.459,86.1a9.99,9.99,0,0,1-2.036,1.878,2.635,2.635,0,0,1-1.9.38,6.2,6.2,0,0,1-3.141-1.23c-1.145-.9-4.84-4.081-5.984-4.986Z" fill="#f49c68"/>
    <path id="Trazado_135112" data-name="Trazado 135112" d="M73.619,87.955a45.6,45.6,0,0,1-.25,6.191c-.037.531-.069,1.079-.132,1.6a11.891,11.891,0,0,1-.434,1.623c5.525.148,11.138.286,16.48-1.128A6.757,6.757,0,0,1,88.4,94.11q-.357-1.3-.713-2.593-.705-2.566-1.41-5.134a16.854,16.854,0,0,1-.642-3.074,5.65,5.65,0,0,1,.523-3.06,9.55,9.55,0,0,0,1.03-1.94,3.8,3.8,0,0,0-.583-2.664,12.726,12.726,0,0,0-3.034-3.672.814.814,0,0,0-1.059.009,4.449,4.449,0,0,1-2.754,1.183,4.814,4.814,0,0,1-1.958-.36,4.327,4.327,0,0,1-.867-.478c-.319-.228-.433-.405-.824-.449a25.908,25.908,0,0,0-4.253,0,11.588,11.588,0,0,1,1.534,5.009,4.913,4.913,0,0,1-.226,2.091,2.45,2.45,0,0,1-1.469,1.484,4.246,4.246,0,0,1,1.518,2.82c.066.4.115.8.154,1.206.048.492.082.986.113,1.48.034.537.066,1.073.112,1.6.012.127.021.254.029.381" fill="#e8edbc"/>
    <path id="Trazado_135113" data-name="Trazado 135113" d="M73.366,84.49c.047.492.081.986.113,1.48.033.537.065,1.073.111,1.6.013.127.021.254.029.381a39.548,39.548,0,0,0,12.075-7.136A95.46,95.46,0,0,1,73.366,84.49" fill="#90b193"/>
    <path id="Trazado_135114" data-name="Trazado 135114" d="M61.391,86.177a3.575,3.575,0,0,0,1.151,2.785,5.211,5.211,0,0,0,1.961.892A40.972,40.972,0,0,0,80.6,91.139c-.1-.826-.181-1.6-.279-2.429a28.57,28.57,0,0,1-12.921-2,14.443,14.443,0,0,1,2.039-4.361,5.272,5.272,0,0,1,1.7-1.7c.3-.165.6-.153.942-.353A2.575,2.575,0,0,0,73.17,78.98a4.929,4.929,0,0,0,.227-2.091,11.593,11.593,0,0,0-1.512-4.97l-.057-.046a17.319,17.319,0,0,0-4.533,3.906,29.19,29.19,0,0,0-5.126,7.4,7.648,7.648,0,0,0-.778,2.993" fill="#f49c68"/>
    <path id="Trazado_135115" data-name="Trazado 135115" d="M105.271,71.736c-.536-.015-.993.794-1.021,1.807s.382,1.846.918,1.861.992-.794,1.021-1.806-.382-1.847-.918-1.862" fill="#f0836e"/>
    <path id="Trazado_135116" data-name="Trazado 135116" d="M103.256,76.186l.354-.455a2,2,0,0,0,1.176-.648s.391-.481.78-1.021a.837.837,0,0,0,.157-.395.46.46,0,0,0-.05-.3L104.305,71.8a1.218,1.218,0,0,0-1.762-.078.933.933,0,0,0-.25.412l-.6,2.026-1.536,1.729s2.07,1.71,2.081,1.695,1.016-1.4,1.016-1.4" fill="#f49c68"/>
    <path id="Trazado_135117" data-name="Trazado 135117" d="M103.527,74.808a1.113,1.113,0,0,0-.046-.169l-.17.008a.423.423,0,0,0,.107-.271.213.213,0,0,0-.01-.042.131.131,0,0,0-.138-.078l.181-.017-.268-.111a.726.726,0,0,0,.228-.01.3.3,0,0,0,.12-.06.182.182,0,0,0,.044-.052.16.16,0,0,0,.009-.066.853.853,0,0,0-.458-.768.53.53,0,0,0,.5-.087l-.121-.1.279-.181-.115-.07c.013.007.075-.028.088-.034a.454.454,0,0,0,.087-.058.487.487,0,0,0,.127-.158c.067-.135.016-.3.078-.436a.487.487,0,0,1,.391-.259,1.426,1.426,0,0,1,.485.051.371.371,0,0,1-.065.4,1.653,1.653,0,0,0-.249.348,1.844,1.844,0,0,0-.026.562c-.019.353-.257.665-.289,1.017-.011.125,0,.25,0,.375a.644.644,0,0,1-.06.28.2.2,0,0,1-.094.1A.185.185,0,0,1,104,74.9a.4.4,0,0,0-.254.044.505.505,0,0,0-.2.173,1.134,1.134,0,0,0-.017-.313" fill="#f0836e"/>
    <path id="Trazado_135118" data-name="Trazado 135118" d="M120.3,58.591a.113.113,0,0,1,0,.165L106.277,72.295l-3.207,2.964-.728-.788,3.239-2.994,14.568-12.889a.114.114,0,0,1,.151,0l0,0" fill="#064679"/>
    <path id="Trazado_135119" data-name="Trazado 135119" d="M103.853,74.356h0a.412.412,0,0,0,.159.559l1.127.629a.411.411,0,1,0,.4-.718l-1.128-.629a.413.413,0,0,0-.559.159" fill="#f49c68"/>
    <path id="Trazado_135120" data-name="Trazado 135120" d="M104.383,73.274h0a.427.427,0,0,0,.344.493l1.537.274a.425.425,0,1,0,.15-.836l-1.538-.275a.427.427,0,0,0-.493.344" fill="#f49c68"/>
    <path id="Trazado_135121" data-name="Trazado 135121" d="M104.256,73.849h0a.379.379,0,0,0,.219.49l1.343.513a.38.38,0,0,0,.272-.71l-1.345-.513a.38.38,0,0,0-.489.22" fill="#f49c68"/>
    <path id="Trazado_135122" data-name="Trazado 135122" d="M104.54,72.539h0a.412.412,0,0,0,.386.434l1.375.081a.41.41,0,1,0,.048-.819l-1.375-.081a.411.411,0,0,0-.434.385" fill="#f49c68"/>
    <path id="Trazado_135123" data-name="Trazado 135123" d="M105.174,72.375l-.015.444a.076.076,0,0,1-.09.062l-.31-.022a.323.323,0,0,1-.276-.275.29.29,0,0,1,.216-.285.841.841,0,0,1,.291,0l.1.005a.082.082,0,0,1,.085.073" fill="#e8edbc"/>
    <path id="Trazado_135124" data-name="Trazado 135124" d="M102.158,72.556l.316-.763s.1-.194.945-.6a1.259,1.259,0,0,1,.66-.13,6.075,6.075,0,0,1,1.838.423s.176.093.008.388a4.488,4.488,0,0,0-.26,1.088,1.058,1.058,0,0,1-.17-.015.811.811,0,0,1-.334-.13.536.536,0,0,1-.218-.352.782.782,0,0,1-.01-.137.708.708,0,0,0,.011-.151c-.025-.112-.194-.176-.292-.182a.565.565,0,0,0-.346.107,1.674,1.674,0,0,0-.273.246l-.425.445a.863.863,0,0,1-.364.263.47.47,0,0,1-.244-.035,1.623,1.623,0,0,1-.253-.1,1.816,1.816,0,0,0-.332-.154,1.208,1.208,0,0,0-.224-.031l-.08-.005c.016-.058.032-.115.047-.173" fill="#f49c68"/>
    <path id="Trazado_135125" data-name="Trazado 135125" d="M104.965,72.073a.964.964,0,0,1,.516-.568l-.607.315.116-.323a1.538,1.538,0,0,0-.361.62,3.336,3.336,0,0,0-.41-.636,1.951,1.951,0,0,1,.223.554l-.4-.278.475.637c.016,0,.074-.041.145-.077s.176-.042.23-.076a.154.154,0,0,0,.067-.128Z" fill="#f0836e"/>
    <path id="Trazado_135126" data-name="Trazado 135126" d="M104.507,74.482l-.226.382a.078.078,0,0,1-.11.012l-.26-.169a.323.323,0,0,1-.11-.374.289.289,0,0,1,.326-.145.834.834,0,0,1,.256.137l.085.053a.081.081,0,0,1,.039.1" fill="#e8edbc"/>
    <path id="Trazado_135127" data-name="Trazado 135127" d="M104.967,73.865l-.152.417a.077.077,0,0,1-.105.032l-.287-.118a.322.322,0,0,1-.177-.346.289.289,0,0,1,.293-.2.843.843,0,0,1,.277.088l.093.036a.081.081,0,0,1,.058.1" fill="#e8edbc"/>
    <path id="Trazado_135128" data-name="Trazado 135128" d="M105.152,73.15l-.066.5a.088.088,0,0,1-.109.061l-.346-.061a.364.364,0,0,1-.28-.34.328.328,0,0,1,.275-.3.94.94,0,0,1,.328.03l.111.017a.091.091,0,0,1,.087.091" fill="#e8edbc"/>
    <path id="Trazado_135129" data-name="Trazado 135129" d="M105.639,73.012a.159.159,0,0,0,.061-.083.506.506,0,0,0,.019-.1c.014-.129.027-.259.041-.388a.135.135,0,0,0-.005-.072.128.128,0,0,0-.1-.055.268.268,0,0,0-.109,0,.181.181,0,0,0-.109.087.4.4,0,0,0-.045.136,1.122,1.122,0,0,0-.018.217.331.331,0,0,0,.027.143.3.3,0,0,0,.112.113.105.105,0,0,0,.124.01" fill="#e8edbc"/>
    <rect id="Rectángulo_38519" data-name="Rectángulo 38519" width="4.865" height="6.615" transform="translate(78.49 76.758) rotate(-3.842)" fill="#e8edbc"/>
    <path id="Trazado_135130" data-name="Trazado 135130" d="M78.853,83.449,78.4,76.678l5.025-.337.454,6.771Zm-.272-6.612.431,6.43,4.684-.314-.431-6.43Z" fill="#6787b2"/>
    <rect id="Rectángulo_38520" data-name="Rectángulo 38520" width="4.707" height="1.937" transform="matrix(0.998, -0.067, 0.067, 0.998, 78.578, 76.834)" fill="#6787b2"/>
    <path id="Trazado_135131" data-name="Trazado 135131" d="M80.961,77.633a.128.128,0,0,1-.09-.037l-5.683-5.632a.128.128,0,1,1,.18-.182L80.9,77.264l1.679-5.5a.128.128,0,1,1,.245.075l-1.74,5.7a.13.13,0,0,1-.092.087.11.11,0,0,1-.031,0" fill="#6787b2"/>
    <path id="Trazado_135132" data-name="Trazado 135132" d="M79.232,80.255a.745.745,0,0,1-.173-.023.086.086,0,0,1-.061,0l-.066-.032a.085.085,0,0,1,.06-.159.554.554,0,0,0,.341.03.16.16,0,0,0,.07-.057l0,0a.085.085,0,0,1-.044-.052.183.183,0,0,1,.071-.2.085.085,0,0,1,.11.011.232.232,0,0,1,.064.145,1.485,1.485,0,0,0,.9.044.211.211,0,0,1,.045-.039.154.154,0,0,1,.184,0,.081.081,0,0,1,.032.079.076.076,0,0,1-.024.048l.062.011c.049.008.1.016.147.021a.436.436,0,0,0,.321-.068.189.189,0,0,0,.062-.141.164.164,0,0,0,0-.036.327.327,0,0,1-.051-.076.085.085,0,0,1,.131-.1.238.238,0,0,1,.065.083.209.209,0,0,0,.191.046.338.338,0,0,1,.02-.137.258.258,0,0,1,.187-.17.084.084,0,0,1,.067.014.082.082,0,0,1,.035.059.375.375,0,0,1-.111.308l0,0a.4.4,0,0,0,.323.11.364.364,0,0,0,.214-.06.139.139,0,0,0,.053-.133l-.008-.02a.085.085,0,0,1,.157-.066l.008.019a.081.081,0,0,0,.071.038.077.077,0,0,0,.062-.062.086.086,0,0,1,.17.02.247.247,0,0,1-.214.212.244.244,0,0,1-.093-.009.315.315,0,0,1-.1.135.519.519,0,0,1-.314.1.542.542,0,0,1-.463-.176l-.013-.018h0a.365.365,0,0,1-.217,0,.372.372,0,0,1-.115.2.585.585,0,0,1-.449.108c-.053-.005-.105-.014-.158-.023a1.408,1.408,0,0,0-.235-.026.085.085,0,0,1-.082-.059,1.666,1.666,0,0,1-.893-.062.332.332,0,0,1-.167.149.446.446,0,0,1-.163.029" fill="#6787b2"/>
    <path id="Trazado_135133" data-name="Trazado 135133" d="M80.131,82.227a.508.508,0,0,1-.312-.112.5.5,0,0,1-.193-.334l-.01-.01a.085.085,0,1,1,.12-.121l.011.01a.133.133,0,0,1,.059.028.114.114,0,0,1,.027.155l-.01.013a.354.354,0,0,0,.1.125.3.3,0,0,0,.472-.088.344.344,0,0,0,.049-.154.249.249,0,0,1-.014-.159.086.086,0,0,1,.08-.063.083.083,0,0,1,.084.059.425.425,0,0,1,.022.117l0,0a.135.135,0,0,0,.107.048.234.234,0,0,0,.177-.155.541.541,0,0,1-.029-.1.414.414,0,0,1,.061-.314.085.085,0,0,1,.155.039,1.026,1.026,0,0,1,0,.358.365.365,0,0,0,.111.12.737.737,0,0,0,.522.076.362.362,0,0,1,.016-.284.259.259,0,0,1,.185-.142.212.212,0,0,1,.165.049.253.253,0,0,1,.092.175.322.322,0,0,1-.151.278L82,81.862a.2.2,0,0,0,.052.022.4.4,0,0,0,.4-.171.813.813,0,0,0,.125-.487.086.086,0,0,1,.085-.086.087.087,0,0,1,.086.085.98.98,0,0,1-.157.587.565.565,0,0,1-.582.237.419.419,0,0,1-.2-.121l-.049.009a.912.912,0,0,1-.662-.1.478.478,0,0,1-.1-.084.372.372,0,0,1-.265.161.283.283,0,0,1-.153-.03.6.6,0,0,1-.045.1.494.494,0,0,1-.33.24.447.447,0,0,1-.082.007m1.817-.713h0a.091.091,0,0,0-.057.052.192.192,0,0,0,0,.163.321.321,0,0,0,.045-.024.154.154,0,0,0,.075-.125.081.081,0,0,0-.029-.054.048.048,0,0,0-.029-.012" fill="#6787b2"/>
    <path id="Trazado_135134" data-name="Trazado 135134" d="M78.61,91.249a5.267,5.267,0,0,0-.091-1.967,4.538,4.538,0,0,0-.194-.495c.337.052.706-.007,1.04.058a4.171,4.171,0,0,1,1.224-1.066,2.343,2.343,0,0,0,1-.484,1.532,1.532,0,0,1,.276-.205.36.36,0,0,1,.33-.014.376.376,0,0,1,.166.334,3.651,3.651,0,0,1-.046.389.191.191,0,0,0,.028.141c.032.037.124.068.14.021a4.193,4.193,0,0,1,1.547-.015,2.1,2.1,0,0,1,.495.192c.34.185.627.464.982.619a1.2,1.2,0,0,1,.31.16.272.272,0,0,1,.092.311.264.264,0,0,1-.272.121.915.915,0,0,1-.294-.115,3.531,3.531,0,0,0-1.617-.352,2.927,2.927,0,0,1,1.39.627,4.65,4.65,0,0,1,.808.964.872.872,0,0,0,.233.232.6.6,0,0,1,.209.25.231.231,0,0,1-.1.286.346.346,0,0,1-.253-.024l-.6-.217.641.606a.36.36,0,0,1,.151.268c-.011.12-.137.195-.254.226a.921.921,0,0,1-.723-.117.159.159,0,0,1-.095.229.285.285,0,0,1-.266-.025,1.326,1.326,0,0,1-.213-.177,2.482,2.482,0,0,0-1.806-.465,7.964,7.964,0,0,1-1.907.034,3.62,3.62,0,0,1-1.246-.432c-.307.092-.774.022-1.085.1" fill="#f49c68"/>
  </g>
</svg>
