<svg id="Grupo_159111" data-name="Grupo 159111" xmlns="http://www.w3.org/2000/svg" xmlns:xlink="http://www.w3.org/1999/xlink" width="275" height="184" viewBox="0 0 275 184">
  <defs>
    <clipPath id="clip-path">
      <rect id="Rectángulo_38493" data-name="Rectángulo 38493" width="275" height="184" fill="none"/>
    </clipPath>
  </defs>
  <g id="Grupo_159110" data-name="Grupo 159110" clip-path="url(#clip-path)">
    <path id="Trazado_134869" data-name="Trazado 134869" d="M137.5,19.327A72.673,72.673,0,1,1,64.827,92,72.673,72.673,0,0,1,137.5,19.327" fill="#b0c8cb"/>
    <path id="Trazado_134870" data-name="Trazado 134870" d="M152.586,45.047a25.53,25.53,0,1,0,27.25-23.686,25.53,25.53,0,0,0-27.25,23.686" fill="#28649e"/>
    <path id="Trazado_134871" data-name="Trazado 134871" d="M157.031,53.243V52.65a7.192,7.192,0,0,1,3.381-6.323c2.029-1.514,2.4-1.862,2.4-2.7,0-.614-.174-.983-.676-.983-.6,0-.773.491-.792,1.7h-4.522c.058-1.719.7-4.932,5.739-4.932,4.019,0,5.487,2.046,5.487,4.441,0,1.616-.541,2.66-2.917,4.215a7.536,7.536,0,0,0-1.952,1.6H168.3l-.58,3.58Z" fill="#064679"/>
    <path id="Trazado_134872" data-name="Trazado 134872" d="M175.1,53.243V50.562h-5.661V47.513l4.173-7.818h6.318V47.1h1.411l-.348,3.458h-1.063v2.681Zm0-6.917c0-.757.019-1.821.077-2.763-.309.9-.889,2.231-1.487,3.541h1.41Z" fill="#064679"/>
    <path id="Trazado_134873" data-name="Trazado 134873" d="M182.014,54l3.69-15H188.8L185.1,54Z" fill="#064679"/>
    <path id="Trazado_134874" data-name="Trazado 134874" d="M200.5,39.7v3.233a25.143,25.143,0,0,0-4.058,10.315h-5.6a20.974,20.974,0,0,1,4.541-9.8h-5.546V39.7Z" fill="#064679"/>
    <path id="Trazado_134875" data-name="Trazado 134875" d="M178.612,128.682c.2,2.091-1.622,3.786-4.072,3.786H74.254c-2.45,0-4.6-1.7-4.8-3.786l-6.08-63.236c-.2-2.093,1.622-3.788,4.073-3.788H167.733c2.45,0,4.6,1.695,4.8,3.788Z" fill="#064679"/>
    <path id="Trazado_134876" data-name="Trazado 134876" d="M133.339,151.829l-1.541-2.123H94.337l.491,5.11,2.3,2.628.662-2.5,34.5-.124-.187-1.947,1.385.5Z" fill="#064679"/>
    <path id="Trazado_134877" data-name="Trazado 134877" d="M131.928,155.236H106.957a1.914,1.914,0,0,1-1.886-1.993l1.253-48.755a1.976,1.976,0,0,1,1.937-2h13.132a2.532,2.532,0,0,1,2.333,2l9.737,48.752a1.57,1.57,0,0,1-1.535,2" fill="#064679"/>
    <path id="Trazado_134878" data-name="Trazado 134878" d="M135.449,155.236H110.478a1.914,1.914,0,0,1-1.886-1.993l1.253-48.755a1.976,1.976,0,0,1,1.937-2h13.132a2.532,2.532,0,0,1,2.333,2l9.737,48.752a1.57,1.57,0,0,1-1.535,2" fill="#77607d"/>
    <path id="Trazado_134879" data-name="Trazado 134879" d="M182.114,128.682c.2,2.091-1.622,3.786-4.072,3.786H77.756c-2.45,0-4.6-1.7-4.8-3.786l-6.08-63.236c-.2-2.093,1.622-3.788,4.073-3.788H171.235c2.45,0,4.6,1.695,4.8,3.788Z" fill="#6787b2"/>
    <path id="Trazado_134880" data-name="Trazado 134880" d="M148.75,152.249H96.632l.5,5.2h52.118Z" fill="#064679"/>
    <path id="Trazado_134881" data-name="Trazado 134881" d="M178.041,125.937c.184,1.909-1.515,3.458-3.794,3.458H80.961c-2.28,0-4.276-1.549-4.459-3.458L70.95,68.191c-.183-1.91,1.515-3.458,3.8-3.458h93.286c2.279,0,4.275,1.548,4.459,3.458Z" fill="#e8edbc"/>
    <path id="Trazado_134882" data-name="Trazado 134882" d="M174.254,129.469H80.968c-2.317,0-4.354-1.585-4.541-3.532L70.876,68.191c-.188-1.948,1.545-3.533,3.862-3.533h93.286c2.316,0,4.353,1.585,4.54,3.533l5.552,57.746c.187,1.947-1.545,3.532-3.862,3.532m-99.5-64.662c-2.235,0-3.907,1.518-3.727,3.384l5.551,57.746c.179,1.865,2.143,3.383,4.378,3.383H174.24c2.234,0,3.906-1.518,3.726-3.383l-5.551-57.746c-.179-1.866-2.143-3.384-4.377-3.384Z" fill="#e8edbc"/>
    <path id="Trazado_134883" data-name="Trazado 134883" d="M79.614,141.646l-1.229-.091a11.874,11.874,0,0,0,2.994-2,4.015,4.015,0,0,0,1.272-3.249,2.1,2.1,0,0,1-1.287.055,9.984,9.984,0,0,0,2.751-3.181,9.476,9.476,0,0,0,.442-4.787,5.145,5.145,0,0,0-.325-1.611,1.807,1.807,0,0,0-1.167-1.083,2.067,2.067,0,0,0-2.114,1.288c-.4.794-.771,1.99-1.195,2.786-.208-.684-.257-1.953-.536-2.633a18.345,18.345,0,0,0-4.787,4.126,2.549,2.549,0,0,0-.695,1.124,2.725,2.725,0,0,0,.1,1.193q.441,1.851.881,3.7l-1.726-2.433a6.255,6.255,0,0,1-.4.921c-.12.312-.228.63-.321.951a12.116,12.116,0,0,0-.407,2.031,12.461,12.461,0,0,0,.218,4.125,12.013,12.013,0,0,0,.634,2c.1.247.18.6.5.581.261-.016.5-.331.687-.486a9.539,9.539,0,0,1,2.82-1.414,5.626,5.626,0,0,0,2.892-1.919" fill="#fbc387"/>
    <path id="Trazado_134884" data-name="Trazado 134884" d="M71.82,152.95A66.022,66.022,0,0,1,82.176,128.9l-.22-.153a65.948,65.948,0,0,0-10.4,24.147Z" fill="#ef7e6b"/>
    <path id="Trazado_134885" data-name="Trazado 134885" d="M82.144,132.212a3.25,3.25,0,0,0,1.939-1.362l-.224-.147a2.983,2.983,0,0,1-1.777,1.248Z" fill="#ef7e6b"/>
    <path id="Trazado_134886" data-name="Trazado 134886" d="M80.611,134.137a3.751,3.751,0,0,0,2.152-.675l-.154-.22a3.532,3.532,0,0,1-2.937.5L79.6,134a3.658,3.658,0,0,0,1.012.141" fill="#ef7e6b"/>
    <path id="Trazado_134887" data-name="Trazado 134887" d="M77.788,134.93l.232-.134a6.209,6.209,0,0,1-.827-3.247l-.268-.006a6.475,6.475,0,0,0,.863,3.387" fill="#ef7e6b"/>
    <path id="Trazado_134888" data-name="Trazado 134888" d="M76.737,136.909l.195-.184a1.864,1.864,0,0,1-.446-1.693l-.26-.064a2.139,2.139,0,0,0,.511,1.941" fill="#ef7e6b"/>
    <path id="Trazado_134889" data-name="Trazado 134889" d="M75.605,142.448a2.579,2.579,0,0,0,1.315-.362l-.138-.23a2.313,2.313,0,0,1-1.357.317l-.022.267c.067.005.135.008.2.008" fill="#ef7e6b"/>
    <path id="Trazado_134890" data-name="Trazado 134890" d="M63.586,139.234l1.224.146a11.887,11.887,0,0,1-2.557-2.534,4.014,4.014,0,0,1-.626-3.432,2.1,2.1,0,0,0,1.253.3,9.969,9.969,0,0,1-2.092-3.649,9.473,9.473,0,0,1,.482-4.783,5.148,5.148,0,0,1,.627-1.519,1.809,1.809,0,0,1,1.353-.84,2.067,2.067,0,0,1,1.828,1.669c.244.856.377,2.1.64,2.963.336-.632.626-1.867,1.03-2.481a18.351,18.351,0,0,1,3.909,4.965,2.551,2.551,0,0,1,.468,1.236,2.732,2.732,0,0,1-.328,1.152q-.787,1.732-1.573,3.464l2.159-2.058a6.307,6.307,0,0,0,.22.981c.058.33.1.662.133,1a12.138,12.138,0,0,1,.011,2.071,12.493,12.493,0,0,1-1,4.007,12.032,12.032,0,0,1-1.006,1.845c-.148.222-.291.553-.6.473-.253-.065-.432-.421-.582-.608a9.514,9.514,0,0,0-2.5-1.927,5.629,5.629,0,0,1-2.471-2.437" fill="#fbc387"/>
    <path id="Trazado_134891" data-name="Trazado 134891" d="M69.073,151.821l.268,0a65.891,65.891,0,0,0-1.5-13.127,65.842,65.842,0,0,0-4.085-12.564l-.246.108a66.027,66.027,0,0,1,5.563,25.586" fill="#ef7e6b"/>
    <path id="Trazado_134892" data-name="Trazado 134892" d="M62.908,129.49l.111-.244a2.982,2.982,0,0,1-1.506-1.565l-.248.1a3.249,3.249,0,0,0,1.643,1.708" fill="#ef7e6b"/>
    <path id="Trazado_134893" data-name="Trazado 134893" d="M64.753,131.742c.1,0,.207,0,.311-.013l-.023-.268a3.53,3.53,0,0,1-2.787-1.048l-.194.185a3.759,3.759,0,0,0,2.693,1.144" fill="#ef7e6b"/>
    <path id="Trazado_134894" data-name="Trazado 134894" d="M66.663,132.991a6.466,6.466,0,0,0,1.495-3.16l-.264-.045a6.209,6.209,0,0,1-1.433,3.029Z" fill="#ef7e6b"/>
    <path id="Trazado_134895" data-name="Trazado 134895" d="M67.316,135.135a2.139,2.139,0,0,0,.873-1.808l-.268.014a1.864,1.864,0,0,1-.761,1.576Z" fill="#ef7e6b"/>
    <path id="Trazado_134896" data-name="Trazado 134896" d="M67.567,140.819l.03-.267a2.3,2.3,0,0,1-1.272-.57l-.179.2a2.576,2.576,0,0,0,1.421.637" fill="#ef7e6b"/>
    <path id="Trazado_134897" data-name="Trazado 134897" d="M68.953,116.119a7.31,7.31,0,0,1-.973-1.476,1.549,1.549,0,0,0-1.448-.835,1.711,1.711,0,0,0-.968.743,12.725,12.725,0,0,0-1.9,4.134,13.009,13.009,0,0,0-.632,4.249,6.313,6.313,0,0,0,1.505,3.954l-1.049-.122a10.468,10.468,0,0,0,3.121,7.37c-.78-.237-1.629-.32-2.409-.557a10.154,10.154,0,0,0,2.637,4.074,20.841,20.841,0,0,1,3.149,3.742,13.31,13.31,0,0,0,3.31-5.647,22.01,22.01,0,0,0,.749-6.513,5.491,5.491,0,0,0-2.474,2.121,7.012,7.012,0,0,1,2.826-5.051,15.911,15.911,0,0,0-4.14-8.693,12.227,12.227,0,0,1-1.4,2.138,7.293,7.293,0,0,1,.1-3.631" fill="#ef7e6b"/>
    <path id="Trazado_134898" data-name="Trazado 134898" d="M68.61,152.12a61.4,61.4,0,0,0,.328-25c-.176-.9-.375-1.807-.568-2.685a50.432,50.432,0,0,1-1.129-6.491l-.268.023a50.863,50.863,0,0,0,1.135,6.525c.193.877.392,1.785.567,2.679a61.138,61.138,0,0,1-.327,24.891Z" fill="#fbc387"/>
    <path id="Trazado_134899" data-name="Trazado 134899" d="M69.494,137.729l.054-.263a2.076,2.076,0,0,1-1.521-1.375l-.256.08a2.32,2.32,0,0,0,1.723,1.558" fill="#fbc387"/>
    <path id="Trazado_134900" data-name="Trazado 134900" d="M69.569,130.08a4.027,4.027,0,0,0,1.6-2.461l-.263-.053a3.754,3.754,0,0,1-1.488,2.3Z" fill="#ef7e6b"/>
    <path id="Trazado_134901" data-name="Trazado 134901" d="M69.775,127.392a9.283,9.283,0,0,0,1.269-3.17l-.263-.052a9.011,9.011,0,0,1-1.233,3.078Z" fill="#fbc387"/>
    <path id="Trazado_134902" data-name="Trazado 134902" d="M68.327,125.436l.013-.268a2.707,2.707,0,0,1-1.88-.911l-.2.176a2.979,2.979,0,0,0,2.069,1" fill="#fbc387"/>
    <path id="Trazado_134903" data-name="Trazado 134903" d="M66.926,120.9l.156-.218a2.829,2.829,0,0,1-1.1-1.649l-.261.06a3.1,3.1,0,0,0,1.2,1.807" fill="#fbc387"/>
    <path id="Trazado_134904" data-name="Trazado 134904" d="M79.475,148.574a2.986,2.986,0,0,0-.4-.824H63.052a2.986,2.986,0,0,0-.4.824,9.11,9.11,0,0,0-.273,2.236,8.75,8.75,0,0,0,3.864,7.214,8.321,8.321,0,0,0,1.837.2h5.967a8.321,8.321,0,0,0,1.837-.2,8.75,8.75,0,0,0,3.864-7.214,9.11,9.11,0,0,0-.273-2.236" fill="#90b193"/>
    <path id="Trazado_134905" data-name="Trazado 134905" d="M72.648,158.227H68.079a8.3,8.3,0,0,1-1.836-.2,8.748,8.748,0,0,1-3.864-7.215,9.06,9.06,0,0,1,.273-2.235,2.954,2.954,0,0,1,.4-.824h.175a8.682,8.682,0,0,0-.1,1.318,9.344,9.344,0,0,0,9.52,9.158" fill="#e8edbc"/>
    <path id="Trazado_134906" data-name="Trazado 134906" d="M74.306,158.223a7.557,7.557,0,0,0,1.578-.2,8.751,8.751,0,0,0,3.864-7.215,9.108,9.108,0,0,0-.273-2.235,2.986,2.986,0,0,0-.4-.824H75.624c1.242.154,5.094,7.694-1.318,10.472" fill="#6787b2"/>
    <path id="Trazado_134907" data-name="Trazado 134907" d="M128.046,79.779h14.727a.517.517,0,0,0,.524-.585l-.184-1.771a.665.665,0,0,0-.646-.585H127.74a.517.517,0,0,0-.524.585l.184,1.771a.665.665,0,0,0,.646.585" fill="#fff"/>
    <path id="Trazado_134908" data-name="Trazado 134908" d="M128.763,86.665H143.49a.517.517,0,0,0,.524-.585l-.184-1.771a.665.665,0,0,0-.646-.585H128.457a.517.517,0,0,0-.524.585l.184,1.771a.665.665,0,0,0,.646.585" fill="#fff"/>
    <path id="Trazado_134909" data-name="Trazado 134909" d="M152.263,79.779H166.99a.517.517,0,0,0,.524-.585l-.184-1.771a.665.665,0,0,0-.646-.585H151.957a.517.517,0,0,0-.524.585l.184,1.771a.665.665,0,0,0,.646.585" fill="#fff"/>
    <path id="Trazado_134910" data-name="Trazado 134910" d="M152.979,86.665h14.727a.517.517,0,0,0,.524-.585l-.184-1.771a.665.665,0,0,0-.646-.585H152.673a.517.517,0,0,0-.524.585l.184,1.771a.665.665,0,0,0,.646.585" fill="#fff"/>
    <path id="Trazado_134911" data-name="Trazado 134911" d="M133.453,121.82h36.883l-2.509-24.107H130.943Z" fill="#e8edbc"/>
    <path id="Trazado_134912" data-name="Trazado 134912" d="M150.352,104.056h13.266a1.164,1.164,0,0,0,1.179-1.315l-.033-.311a1.494,1.494,0,0,0-1.452-1.315H150.046a1.164,1.164,0,0,0-1.179,1.315l.033.311a1.5,1.5,0,0,0,1.452,1.315" fill="#fff"/>
    <path id="Trazado_134913" data-name="Trazado 134913" d="M151.781,117.783h9.35a1.163,1.163,0,0,0,1.178-1.315l-.032-.311a1.5,1.5,0,0,0-1.453-1.315h-9.349a1.164,1.164,0,0,0-1.179,1.315l.033.311a1.5,1.5,0,0,0,1.452,1.315" fill="#fff"/>
    <path id="Trazado_134914" data-name="Trazado 134914" d="M138.6,117.783h6.94a1.164,1.164,0,0,0,1.179-1.315l-.033-.311a1.5,1.5,0,0,0-1.452-1.315h-6.94a1.164,1.164,0,0,0-1.179,1.315l.033.311a1.5,1.5,0,0,0,1.452,1.315" fill="#fff"/>
    <path id="Trazado_134915" data-name="Trazado 134915" d="M160.8,110.406h3.48a1.164,1.164,0,0,0,1.179-1.315l-.033-.311a1.494,1.494,0,0,0-1.452-1.315h-3.48a1.164,1.164,0,0,0-1.179,1.315l.033.311a1.5,1.5,0,0,0,1.452,1.315" fill="#fff"/>
    <path id="Trazado_134916" data-name="Trazado 134916" d="M146.139,110.406h9.036a1.164,1.164,0,0,0,1.179-1.315l-.033-.311a1.5,1.5,0,0,0-1.452-1.315h-9.036a1.164,1.164,0,0,0-1.179,1.315l.033.311a1.5,1.5,0,0,0,1.452,1.315" fill="#fff"/>
    <path id="Trazado_134917" data-name="Trazado 134917" d="M136.568,110.406h4.7a1.163,1.163,0,0,0,1.178-1.315l-.032-.311a1.5,1.5,0,0,0-1.453-1.315h-4.7a1.164,1.164,0,0,0-1.179,1.315l.033.311a1.5,1.5,0,0,0,1.452,1.315" fill="#fff"/>
    <path id="Trazado_134918" data-name="Trazado 134918" d="M137.915,104.056h5.72a1.163,1.163,0,0,0,1.179-1.315l-.033-.311a1.493,1.493,0,0,0-1.452-1.315h-5.721a1.163,1.163,0,0,0-1.178,1.315l.032.311a1.5,1.5,0,0,0,1.453,1.315" fill="#fff"/>
    <path id="Trazado_134919" data-name="Trazado 134919" d="M118.523,81.366a4.906,4.906,0,0,1-1.967,1.855c4.177,5.768,5.282,13.28,2.231,19.522-4.369,8.937-15.6,11.886-25.09,6.587a21.828,21.828,0,0,1-6.232-5.207,5.389,5.389,0,0,1-2.656.419,5.755,5.755,0,0,1-1.251-.042,25.9,25.9,0,0,0,8.661,7.854c11.261,6.289,24.593,2.789,29.778-7.818,3.737-7.643,2.222-16.891-3.13-23.816q-.159.333-.344.646" fill="#064679"/>
    <path id="Trazado_134920" data-name="Trazado 134920" d="M108.591,75.614c9.488,5.3,13.638,16.84,9.269,25.776s-15.6,11.886-25.09,6.587S79.131,91.138,83.5,82.2s15.6-11.886,25.091-6.587" fill="#6787b2"/>
    <path id="Trazado_134921" data-name="Trazado 134921" d="M80.289,80.408c-5.185,10.606-.259,24.3,11,30.593s24.593,2.788,29.778-7.818.26-24.3-11-30.593-24.6-2.789-29.78,7.818M117.86,101.39c-4.369,8.937-15.6,11.886-25.09,6.587S79.131,91.138,83.5,82.2s15.6-11.886,25.091-6.586,13.637,16.84,9.269,25.776" fill="#4c7bb1"/>
    <path id="Trazado_134922" data-name="Trazado 134922" d="M98.18,102.542a4.113,4.113,0,0,0,2.853,1.919,5.681,5.681,0,0,0,3.57-.372,8.707,8.707,0,0,0,2.8-2.211,8.307,8.307,0,0,1-1.019-1.176,10.2,10.2,0,0,1-1.272-2.431,14.351,14.351,0,0,1-.614-2.122,10.166,10.166,0,0,1-.208-1.907c-2.025,1.156-3.766,1.136-6.147.318a38.957,38.957,0,0,0-.058,4.164c.031,1.1.078,2.177.093,3.242,0,.193,0,.385,0,.576" fill="#f49c68"/>
    <path id="Trazado_134923" data-name="Trazado 134923" d="M98.055,96.771a4.908,4.908,0,0,0,1.585,1.554,4.792,4.792,0,0,0,1.552.458,15.542,15.542,0,0,0,4.161.1c-.087-.2-.168-.4-.244-.608-.134-.365-.255-.729-.36-1.094a15.422,15.422,0,0,1-4.9.008,4.8,4.8,0,0,1-1.552-.458c-.081-.044-.237-.143-.237-.143s0,.022,0,.114v.062s0,.007,0,.011" fill="#f0836e"/>
    <path id="Trazado_134924" data-name="Trazado 134924" d="M89.665,105.858a21.834,21.834,0,0,0,3.1,2.1c8.2,4.58,17.7,3,22.953-3.283a30.682,30.682,0,0,0-9.989-4.933,3.889,3.889,0,0,1-.876,2.175,3.153,3.153,0,0,1-1.7.861,3.927,3.927,0,0,1-2.781-.377,18.211,18.211,0,0,1-2.334-2.526s-2.986,1.363-4.24,2.081a16.579,16.579,0,0,0-2.09,1.409,4.192,4.192,0,0,0-1.466,1.572q-.294.464-.577.922" fill="#e8edbc"/>
    <path id="Trazado_134925" data-name="Trazado 134925" d="M104.978,82.988a4.913,4.913,0,0,1,1.194,3.667c-.023.149-.28,1.332-.28,1.332a5.013,5.013,0,0,0-.446-1.067,6.9,6.9,0,0,1-2.181-1.878,14.356,14.356,0,0,1-1.5-2.455,3.444,3.444,0,0,1-.3-.726c-.056-.227-.135-.691.181-.683a3.528,3.528,0,0,1,.9.182,5.137,5.137,0,0,1,1.668.88,4.958,4.958,0,0,1,.764.748" fill="#7d2345"/>
    <path id="Trazado_134926" data-name="Trazado 134926" d="M94,90.6c1.854,4.717,5.748,8.282,9.116,7.279s4.121-5.883,2.542-10.672c-1.744-5.284-6.242-7.884-9.61-6.881S92.15,85.879,94,90.6" fill="#f49c68"/>
    <path id="Trazado_134927" data-name="Trazado 134927" d="M105.892,87.987s1.228-5.981-4.257-6.466a11.482,11.482,0,0,1-2.668,3.438A7.639,7.639,0,0,0,97.1,86.625a4.433,4.433,0,0,0-.516,2.443,13.014,13.014,0,0,0,.867,4.429,1.234,1.234,0,0,0-.991-.456,2.961,2.961,0,0,0-1.069.282c.316.407.735.715,1.079,1.1a5.4,5.4,0,0,1,.923,1.742,5.065,5.065,0,0,1-2.073-.71,14.9,14.9,0,0,1-1.749-1.291c-1.189-.97-1.756-2.438-2.988-3.323-1.185-.851-2.664-1.76-3.021-3.134a5.218,5.218,0,0,1,.543-3.884,6.293,6.293,0,0,1,.828-1.007,9.569,9.569,0,0,0,.869-.793c.7-.93.435-2.37,1.042-3.365a3.687,3.687,0,0,1,2.838-1.386,9.322,9.322,0,0,0,3.239-.643c.7-.369,1.229-.977,1.909-1.376a4.065,4.065,0,0,1,3.131-.356,4.743,4.743,0,0,1,2.227,1.389,4.989,4.989,0,0,1,.875,2.184,17.9,17.9,0,0,0,.372,2.724,17.662,17.662,0,0,0,1.162,2.053,3.856,3.856,0,0,1-.708,4.74" fill="#7d2345"/>
    <path id="Trazado_134928" data-name="Trazado 134928" d="M96.6,89.084a12.876,12.876,0,0,0,.313,2.555,12.957,12.957,0,0,1-.038-1.792,4.384,4.384,0,0,1,.717-2.373,7.8,7.8,0,0,1,2.035-1.493,17.993,17.993,0,0,0,3.17-3.337,7.423,7.423,0,0,0-1.254-1.076h0a11.285,11.285,0,0,1-2.614,3.422A7.449,7.449,0,0,0,97.1,86.647a4.443,4.443,0,0,0-.5,2.437" fill="#f0836e"/>
    <path id="Trazado_134929" data-name="Trazado 134929" d="M105.069,79.611a4.317,4.317,0,0,0-3.778-5.664,3.39,3.39,0,0,0-2.463.951,6.031,6.031,0,0,0-1.408,2.193l.232.114a5.82,5.82,0,0,1,1.356-2.118,3.176,3.176,0,0,1,2.295-.893,4.044,4.044,0,0,1,3.527,5.324Z" fill="#7d2345"/>
    <path id="Trazado_134930" data-name="Trazado 134930" d="M91.4,90.481l.226-.081a2.411,2.411,0,0,0-1.854-1.155c-.163-.028-.33-.049-.49-.07a3.883,3.883,0,0,1-1.5-.4,2.575,2.575,0,0,1-1.1-1.491,4.826,4.826,0,0,1-.131-1.859,3.053,3.053,0,0,1,.811-2.08,3.534,3.534,0,0,1,1.3-.584c.127-.038.254-.076.378-.117a2,2,0,0,0,1.46-1.191,2.689,2.689,0,0,0-.066-1.364,3.625,3.625,0,0,1-.124-.978,1.963,1.963,0,0,1,1.345-1.606,6.642,6.642,0,0,1,2.338-.286l2.849-.014-.027-.248-2.849.014a6.927,6.927,0,0,0-2.421.3,2.179,2.179,0,0,0-1.483,1.8,3.813,3.813,0,0,0,.129,1.047,2.486,2.486,0,0,1,.071,1.241c-.143.462-.575.805-1.321,1.05-.123.041-.248.078-.373.116a3.7,3.7,0,0,0-1.378.626A3.246,3.246,0,0,0,86.3,85.38a5.2,5.2,0,0,0,.141,1.954,2.853,2.853,0,0,0,1.234,1.652,4.131,4.131,0,0,0,1.6.434c.158.021.322.042.48.069a2.149,2.149,0,0,1,1.645.992" fill="#7d2345"/>
    <path id="Trazado_134931" data-name="Trazado 134931" d="M103.473,80.652a5.237,5.237,0,0,0-4.191-.61A8.956,8.956,0,0,0,95.539,82.2a8.47,8.47,0,0,0-1.478,1.7,5.874,5.874,0,0,0-.963,3.856,7.454,7.454,0,0,0,1.131,3.734c-.193.1-.326.571-.517.667A42.81,42.81,0,0,1,91.83,86.9a5.186,5.186,0,0,1,1-4.027,11.215,11.215,0,0,1,2.871-2.8,7.489,7.489,0,0,1,3.4-1.462,4.51,4.51,0,0,1,2.349.559,12.069,12.069,0,0,1,2.022,1.478" fill="#4c7bb1"/>
    <path id="Trazado_134932" data-name="Trazado 134932" d="M97.308,94.168a1.364,1.364,0,0,1-1.746.735,2.28,2.28,0,0,1-.909-.859,8.406,8.406,0,0,1-.94-1.791c-.145-.384-.232-.889.091-1.142a.914.914,0,0,1,.744-.093c1.13.23,3.3,1.734,2.76,3.15" fill="#4c7bb1"/>
    <path id="Trazado_134933" data-name="Trazado 134933" d="M103.57,94.587a1.047,1.047,0,1,0,1.657.141,1.2,1.2,0,0,0-1.657-.141" fill="#4c7bb1"/>
    <path id="Trazado_134934" data-name="Trazado 134934" d="M97.031,93.25a4.414,4.414,0,0,0,2.3,1.836,5.464,5.464,0,0,0,1.6.39,3.79,3.79,0,0,0,.574.006l.681-.049c.423-.031.846-.058,1.269-.093a.493.493,0,0,1,.321.074,1.655,1.655,0,0,0,.256.12c.033.011.225.087.25.063a1.394,1.394,0,0,1-.393.269.561.561,0,0,1-.156.031c-.075.012-.15.042-.225.06a5.49,5.49,0,0,1-1.344.171,9.574,9.574,0,0,1-1.354-.043,4.819,4.819,0,0,1-.606-.123c-.209-.056-.414-.1-.625-.153a4.625,4.625,0,0,1-1.2-.452,5.086,5.086,0,0,1-1.655-1.512c-.033-.047-.067-.094-.1-.141.1-.09.185-.187.273-.285.05-.055.093-.114.142-.169" fill="#4c7bb1"/>
    <path id="Trazado_134935" data-name="Trazado 134935" d="M126.409,87.987a7.91,7.91,0,1,1-7.91-7.91,7.91,7.91,0,0,1,7.91,7.91" fill="#f49c68"/>
    <path id="Trazado_134936" data-name="Trazado 134936" d="M117.1,92.887,112.52,88.31l1.278-1.278,3.3,3.3,6.029-6.028,1.277,1.278Z" fill="#fff"/>
    <path id="Trazado_134937" data-name="Trazado 134937" d="M79.176,28A15.12,15.12,0,0,0,76.3,30.944l-3.6-.9L71.717,31.8l2.668,2.619a15.277,15.277,0,0,0-.939,3.7l-3.608.982c0,.5,0,1.515,0,2.016l3.635.983a15.032,15.032,0,0,0,1.145,3.909l-2.6,2.679,1.023,1.736,3.635-.984A15.1,15.1,0,0,0,79.371,52.1l-.984,3.688c.433.253,1.307.762,1.739,1.012l2.725-2.709a15.271,15.271,0,0,0,3.886,1l1.037,3.7,2.015-.016.982-3.738a15.151,15.151,0,0,0,3.841-1.1l2.781,2.674,1.728-1.037L98.07,51.848a15.114,15.114,0,0,0,2.636-2.718l3.733.945c.246-.438.743-1.32.989-1.756l-2.749-2.707a15.324,15.324,0,0,0,.971-3.814l3.682-1.055c-.007-.5-.021-1.515-.028-2.015l-3.7-.95a15.069,15.069,0,0,0-1.1-3.849l2.622-2.741-1.041-1.726L100.442,30.5a15.091,15.091,0,0,0-2.713-2.648l.933-3.635-1.754-.995-2.641,2.665a15.357,15.357,0,0,0-3.833-1l-.995-3.59-2.015.011-.957,3.6a15.083,15.083,0,0,0-3.879,1.074l-2.646-2.6L78.2,24.4Z" fill="#6787b2"/>
    <path id="Trazado_134938" data-name="Trazado 134938" d="M83.581,31.523c11.3-6.4,21.109,10.244,10.032,17.026-11.3,6.4-21.109-10.244-10.032-17.026" fill="#4c7bb1"/>
    <path id="Trazado_134939" data-name="Trazado 134939" d="M111.957,40.3a8.2,8.2,0,0,0-1.557,1.6l-1.95-.49-.279.5-.255.455,1.445,1.419a8.351,8.351,0,0,0-.509,2.005l-1.954.532v1.092l1.969.533a8.19,8.19,0,0,0,.62,2.118L108.08,51.51l.29.492.265.449,1.969-.533a8.189,8.189,0,0,0,1.459,1.442l-.533,2,.491.287.451.261,1.476-1.467a8.282,8.282,0,0,0,2.106.541l.561,2.005.571,0,.521,0,.532-2.025a8.187,8.187,0,0,0,2.081-.6l1.507,1.449.489-.294.447-.268-.57-2.018a8.185,8.185,0,0,0,1.429-1.473l2.022.512.28-.5.256-.455-1.489-1.466a8.326,8.326,0,0,0,.526-2.067l1.995-.571-.008-.57-.007-.522L125.19,45.6a8.18,8.18,0,0,0-.6-2.086l1.421-1.485-.295-.488-.269-.447-1.973.562a8.206,8.206,0,0,0-1.47-1.435l.5-1.969-.5-.282-.454-.257-1.431,1.444a8.293,8.293,0,0,0-2.076-.541l-.539-1.946-.571,0-.522,0-.518,1.951a8.184,8.184,0,0,0-2.1.582L112.372,37.8l-.492.288-.45.263Z" fill="#6787b2"/>
    <path id="Trazado_134940" data-name="Trazado 134940" d="M114.344,42.211a5.353,5.353,0,1,1-1.9,7.33,5.353,5.353,0,0,1,1.9-7.33" fill="#4c7bb1"/>
    <path id="Trazado_134941" data-name="Trazado 134941" d="M157.643,145.372h-8.507q-.036-1.84-.035-2.243a14.912,14.912,0,0,1,1.374-6.827,20.807,20.807,0,0,1,5.491-6.024,41.11,41.11,0,0,0,4.922-4.385,5.865,5.865,0,0,0,1.238-3.615,6.037,6.037,0,0,0-2.2-4.677,8.629,8.629,0,0,0-5.931-1.947,9,9,0,0,0-6.015,2.044,10.872,10.872,0,0,0-3.327,6.233l-8.622-1.092a14.341,14.341,0,0,1,5.108-10.183q4.738-4.187,12.442-4.187,8.106,0,12.9,4.229a12.8,12.8,0,0,1,4.79,9.847,10.844,10.844,0,0,1-1.758,5.891q-1.756,2.778-7.514,7.564a14.326,14.326,0,0,0-3.7,3.983,13.343,13.343,0,0,0-.653,5.389m-4.685,3.65h.862a4.254,4.254,0,1,1,0,8.507h-.862a4.254,4.254,0,1,1,0-8.507" fill="#ef7e6b"/>
    <path id="Trazado_134942" data-name="Trazado 134942" d="M154.932,145.372h-8.507q-.036-1.84-.035-2.243a14.912,14.912,0,0,1,1.374-6.827,20.807,20.807,0,0,1,5.491-6.024,41.11,41.11,0,0,0,4.922-4.385,5.865,5.865,0,0,0,1.238-3.615,6.037,6.037,0,0,0-2.2-4.677,8.629,8.629,0,0,0-5.931-1.947,9,9,0,0,0-6.015,2.044,10.872,10.872,0,0,0-3.327,6.233l-8.622-1.092a14.341,14.341,0,0,1,5.108-10.183q4.738-4.187,12.442-4.187,8.106,0,12.9,4.229a12.8,12.8,0,0,1,4.79,9.847,10.844,10.844,0,0,1-1.758,5.891q-1.756,2.778-7.514,7.564a14.326,14.326,0,0,0-3.7,3.983,13.343,13.343,0,0,0-.653,5.389m-4.685,3.65h.862a4.254,4.254,0,1,1,0,8.507h-.862a4.254,4.254,0,1,1,0-8.507" fill="#f49c68"/>
    <path id="Trazado_134943" data-name="Trazado 134943" d="M186.376,150.137a14.766,14.766,0,0,1-3.98.832,6.015,6.015,0,0,1,.663,4.2c.519-.179,1.041-.357,1.56-.535.42-.144.841-.288,1.266-.414.217-.064.432-.123.651-.176a1.848,1.848,0,0,0,.566-.143c.155-.1.08-.228.017-.374q-.126-.3-.232-.614a9.691,9.691,0,0,1-.341-1.285,9.551,9.551,0,0,1-.17-1.488" fill="#f49c68"/>
    <path id="Trazado_134944" data-name="Trazado 134944" d="M182.942,155.3l.032-.148a5.94,5.94,0,0,0-.652-4.136l-.069-.12.138-.009a14.666,14.666,0,0,0,3.955-.827l.111-.04,0,.118a9.523,9.523,0,0,0,.17,1.474,9.64,9.64,0,0,0,.338,1.274c.07.205.147.41.23.609l.019.043c.055.127.131.3-.069.435a1.066,1.066,0,0,1-.428.127c-.06.009-.117.018-.165.029-.2.049-.414.106-.646.174-.424.126-.85.272-1.262.413Zm-.4-4.251a6.116,6.116,0,0,1,.634,3.99l1.419-.486c.415-.142.843-.288,1.27-.415.235-.07.45-.127.655-.177.055-.013.115-.022.179-.032a.945.945,0,0,0,.358-.1c.074-.05.068-.082.007-.223l-.02-.046c-.084-.2-.163-.411-.234-.619a9.835,9.835,0,0,1-.345-1.3,9.958,9.958,0,0,1-.167-1.384,14.762,14.762,0,0,1-3.756.788" fill="#f49c68"/>
    <path id="Trazado_134945" data-name="Trazado 134945" d="M187.4,153.418a6.305,6.305,0,0,1,.627,2.457,11.186,11.186,0,0,1-4.179,3.846,10.135,10.135,0,0,1-5.289,1.1,1.013,1.013,0,0,1-.858-.37.722.722,0,0,1,.1-.772,2.432,2.432,0,0,1,.636-.52,11.649,11.649,0,0,0,4.506-5.7,16.4,16.4,0,0,0,4.454-.036" fill="#064679"/>
    <path id="Trazado_134946" data-name="Trazado 134946" d="M188,155.512a1.957,1.957,0,0,1-.6,1.2,12.479,12.479,0,0,1-3.686,2.991,9.1,9.1,0,0,1-4.879.977,1.869,1.869,0,0,1-.611-.158.654.654,0,0,1-.466-.579c.013-.1.074-.266.065-.286-.133.024-.23.242-.254.329a2.842,2.842,0,0,0,.011.959,1.24,1.24,0,0,0,1.082,1.067,9.753,9.753,0,0,0,1.07.082,10.884,10.884,0,0,0,2.142-.152,12.472,12.472,0,0,0,2.166-.669,5.814,5.814,0,0,0,1.908-1.308l2.391-2.337a4.6,4.6,0,0,0-.341-2.111" fill="#064679"/>
    <path id="Trazado_134947" data-name="Trazado 134947" d="M195.774,152.357a14.7,14.7,0,0,1-4.061-.172,6.007,6.007,0,0,1-.391,4.231l1.645-.135c.443-.036.886-.072,1.329-.09.225-.009.449-.013.674-.01a1.868,1.868,0,0,0,.583,0c.177-.063.133-.2.11-.358-.032-.216-.057-.434-.074-.652a9.522,9.522,0,0,1-.015-1.33,9.625,9.625,0,0,1,.2-1.484" fill="#f49c68"/>
    <path id="Trazado_134948" data-name="Trazado 134948" d="M191.178,156.514l.067-.136a5.94,5.94,0,0,0,.385-4.169l-.038-.133.136.024a14.572,14.572,0,0,0,4.037.171l.118-.011-.025.115a9.616,9.616,0,0,0-.184,2.789c.017.216.042.434.074.647l.007.046c.023.137.053.325-.174.4a1.071,1.071,0,0,1-.445.018c-.061-.006-.118-.012-.168-.012-.208,0-.427,0-.669.01-.44.017-.888.054-1.32.089Zm.653-4.22a6.121,6.121,0,0,1-.367,4.024l1.5-.123c.439-.035.889-.072,1.333-.09.245-.009.466-.013.678-.01.057,0,.117.007.181.013a.971.971,0,0,0,.372-.008c.084-.03.086-.063.061-.215l-.008-.049c-.032-.217-.057-.438-.075-.658a9.829,9.829,0,0,1,.163-2.724,14.747,14.747,0,0,1-3.834-.16" fill="#f49c68"/>
    <path id="Trazado_134949" data-name="Trazado 134949" d="M182.463,152.185c1.542-.25,3.179-.535,4.72-.787a118.659,118.659,0,0,1,.7-16.5c.174-1.534.377-3.03.607-4.468q.031-.207.06-.414c.618-4.5.146-9.258.6-14.055.277-3.007.725-6.026.972-9.1a4.028,4.028,0,0,0-.11-1.681c-.054-.15-.344-.315-.74-.466a8.7,8.7,0,0,0-1.565-.412,2.366,2.366,0,0,0-1.4.022c-1.5,1.1-6.015,11.626-6.352,22.549-.757,10.953,1.76,21.867,2.5,25.315" fill="#064679"/>
    <path id="Trazado_134950" data-name="Trazado 134950" d="M199,105.406a36.534,36.534,0,0,1-.07,8.973c-.438,2.941-1.631,6.789-1.222,14.759.212,8-1.285,18.979-1.379,24.28-3.786-.164-5.324-.268-5.324-.268s-1.573-17.769-1.977-20.215c-1.648-8.572-1.243-17.309-1.355-19.632-.218-1.526,1.188-9.822,3.03-11.009,2.3,1.266,5.65,2.989,8.3,3.112" fill="#064679"/>
    <path id="Trazado_134951" data-name="Trazado 134951" d="M185.962,113.3c.112,2.322-.292,11.06,1.355,19.631a9.037,9.037,0,0,0,.568,1.961c.174-1.533.377-3.03.608-4.468q.032-.207.06-.414a127.026,127.026,0,0,1-.869-16.71,28.451,28.451,0,0,1,1.593-8.593c.014-.04.029-.08.044-.121a8.315,8.315,0,0,1,.813-1.68c-.4-.211-.784-.419-1.142-.615a4.287,4.287,0,0,0-1.244,1.913c-.012.03-.025.06-.037.091a28.435,28.435,0,0,0-1.749,9.005" fill="#064679"/>
    <path id="Trazado_134952" data-name="Trazado 134952" d="M196.469,114.086c.012-.092.29-2.616.3-2.708a4.107,4.107,0,0,0,1.264.073,8.926,8.926,0,0,0,1.169-.073c-.029.271-.233,2.732-.269,3-.438,2.941-1.631,6.788-1.222,14.759.044,1.663-.376,11.558-.484,12.011-1.8-1.55-1.921-9.973-1.983-12.3-.408-7.97.785-11.818,1.223-14.759" fill="#064679"/>
    <path id="Trazado_134953" data-name="Trazado 134953" d="M195.965,155.791a6.3,6.3,0,0,1,0,2.536,11.191,11.191,0,0,1-4.995,2.7,10.145,10.145,0,0,1-5.4-.236c-.309-.1-.653-.256-.74-.569a.725.725,0,0,1,.289-.724,2.453,2.453,0,0,1,.745-.347,11.655,11.655,0,0,0,5.77-4.421,16.423,16.423,0,0,0,4.326,1.06" fill="#064679"/>
    <path id="Trazado_134954" data-name="Trazado 134954" d="M196.031,157.967a1.956,1.956,0,0,1-.874,1.012,12.476,12.476,0,0,1-4.307,1.992,9.114,9.114,0,0,1-4.971-.252,1.89,1.89,0,0,1-.553-.3.652.652,0,0,1-.309-.675c.036-.089.138-.24.134-.261-.135-.01-.283.177-.327.256a2.855,2.855,0,0,0-.226.932,1.241,1.241,0,0,0,.787,1.3,9.894,9.894,0,0,0,1.017.342,10.868,10.868,0,0,0,2.113.379,12.343,12.343,0,0,0,2.264-.116,5.8,5.8,0,0,0,2.171-.8l2.892-1.677a4.594,4.594,0,0,0,.189-2.13" fill="#064679"/>
    <path id="Trazado_134955" data-name="Trazado 134955" d="M194.038,84.461a3.076,3.076,0,0,1-2.278,1.647,5.027,5.027,0,0,1-3.1-.319,8.692,8.692,0,0,1-2.6-1.9,6.141,6.141,0,0,0,.77-1.01,7.8,7.8,0,0,0,.874-2.086,11.446,11.446,0,0,0,.337-1.821,8.6,8.6,0,0,0,.009-1.637,5.851,5.851,0,0,0,5.3.272,34.21,34.21,0,0,1,.422,3.575c.071.94.127,1.868.209,2.783.015.165.031.33.048.494" fill="#f49c68"/>
    <path id="Trazado_134956" data-name="Trazado 134956" d="M193.721,79.507a3.619,3.619,0,0,1-1.221,1.334,3.782,3.782,0,0,1-1.291.393,13.214,13.214,0,0,1-3.564.082q.085-.258.155-.521.124-.469.212-.939a13.236,13.236,0,0,0,4.209.006,3.769,3.769,0,0,0,1.291-.393c.067-.038.191-.122.191-.122l.011.1c0,.011,0,.034.006.052v.01" fill="#f0836e"/>
    <path id="Trazado_134957" data-name="Trazado 134957" d="M179.054,88.406c-1.481.452-4.066,1.267-5.9,2.045-.7-2.129-4.836-10.9-4.886-11.02a15.009,15.009,0,0,1-2.776,1.686c.079.2,2.378,10.061,3.391,12.9.183.512.456,1.089.987,1.207.274.341,9.005.4,12.031-1.176-1.169-1.915-1.448-3.888-2.851-5.638" fill="#f49c68"/>
    <path id="Trazado_134958" data-name="Trazado 134958" d="M172.439,95.5a9.257,9.257,0,0,1-2.6-.2c-.564-.136-.847-.743-1.032-1.258-.779-2.18-2.294-8.413-3.022-11.408-.2-.833-.349-1.434-.368-1.486l-.027-.076.074-.034a14.9,14.9,0,0,0,2.756-1.675l.089-.069.045.1c0,.015.084.182.191.413,3.268,6.99,4.347,9.589,4.666,10.524,1.357-.57,3.314-1.247,5.819-2.012l.056-.017.037.046a11.974,11.974,0,0,1,1.692,3.183A16.307,16.307,0,0,0,181.979,94l.047.079-.082.043c-1.743.91-5.186,1.217-7.083,1.318-.8.043-1.651.066-2.422.066M165.6,81.165c.045.169.15.6.351,1.428.727,2.993,2.241,9.219,3.017,11.391.171.478.43,1.042.925,1.151l.028.007.019.023c.378.289,8.791.357,11.843-1.156a16.964,16.964,0,0,1-1.131-2.409,11.958,11.958,0,0,0-1.63-3.1c-2.526.773-4.487,1.454-5.831,2.025l-.087.037-.028-.09c-.278-.848-1.316-3.375-4.689-10.593-.07-.149-.117-.252-.149-.319a15.312,15.312,0,0,1-2.638,1.6" fill="#f49c68"/>
    <path id="Trazado_134959" data-name="Trazado 134959" d="M201.346,89.5a18.254,18.254,0,0,1-.3,2.878c-.087.505-.57.556-.674,1.058-.307,1.47-.285,3.38-.592,4.85a54.163,54.163,0,0,0-.239,6.314c0,1.491.01,7.235.01,7.235a89.494,89.494,0,0,1-9.49.562,34.309,34.309,0,0,1-7.312-1.061s-.056-10.162-.115-11.278c-.016-.284-.033-.573-.052-.865a20.327,20.327,0,0,1,0-3.617c.052-.429.111-.857.171-1.283a11.229,11.229,0,0,1-1.829,1.329,17.732,17.732,0,0,1-1.994,1.01,33.863,33.863,0,0,1-1.754-9.043c2.344-2.784,10.041-5.553,10.041-5.553a3.845,3.845,0,0,0,.968,1.888,3.052,3.052,0,0,0,1.539.738,4.719,4.719,0,0,0,2.721-.466,4.127,4.127,0,0,0,1.466-2.029s2.628,1.174,3.768,1.79a16.417,16.417,0,0,1,1.92,1.209,3.619,3.619,0,0,1,1.564,1.714,6.965,6.965,0,0,1,.185,2.62" fill="#e8edbc"/>
    <path id="Trazado_134960" data-name="Trazado 134960" d="M200.145,95.777c.017,1.549-.592,3.451-.37,4.919a18.985,18.985,0,0,0-8.713-.318,8.2,8.2,0,0,1-3.923.183c-.255-.083-.547-.294-.466-.549a.548.548,0,0,1,.325-.284,12.219,12.219,0,0,1,3.78-1.086c2.214-.261,4.531.077,6.627-.681a.765.765,0,0,0,.414-.273c.176-.288-.06-.646-.289-.894-.923-1-1.946-1.9-2.817-2.944a9.2,9.2,0,0,1-1.282-1.959c-.069-.147-.409-.688-.111-.739.136-.023.667.614.778.715a31.434,31.434,0,0,0,3.468,2.748,15.247,15.247,0,0,0,2.579,1.162" fill="#90b193"/>
    <path id="Trazado_134961" data-name="Trazado 134961" d="M185.716,91.245a65.5,65.5,0,0,0-3.132,7.948,20.327,20.327,0,0,1,0-3.617c.053-.43.112-.857.171-1.283a11.324,11.324,0,0,1-1.828,1.329c.015-.13.1-.23.308-.394a39.89,39.89,0,0,0,4.485-3.983" fill="#90b193"/>
    <path id="Trazado_134962" data-name="Trazado 134962" d="M211.173,96.757c.075-.432-5.39-6.235-8.577-7.459-.663,2.144-1.493,3.074-1.878,5.285,1.319.811,3.641,2.21,5.434,3.069a95.1,95.1,0,0,0-4.44,9.066,18.4,18.4,0,0,0-.921,2.047,5.574,5.574,0,0,1,.759,1.218,5.7,5.7,0,0,1,.554,1l2.367-2.861s4.87-6.972,6.449-9.83a1.655,1.655,0,0,0,.253-1.538" fill="#f49c68"/>
    <path id="Trazado_134963" data-name="Trazado 134963" d="M202.081,111.15l-.056-.13a5.607,5.607,0,0,0-.545-.988l-.007-.013a5.523,5.523,0,0,0-.748-1.2l-.031-.038.016-.047a18.571,18.571,0,0,1,.926-2.056,95.516,95.516,0,0,1,4.4-8.99c-1.324-.64-3.126-1.66-5.357-3.033l-.05-.031.01-.057a12.053,12.053,0,0,1,1.025-3.106,18.5,18.5,0,0,0,.855-2.189l.027-.088.087.033c1.844.708,4.262,2.837,5.539,4.044a17.272,17.272,0,0,1,3.09,3.469A1.747,1.747,0,0,1,211,98.337c-1.563,2.829-6.4,9.768-6.454,9.837Zm-.455-1.209a5.71,5.71,0,0,1,.5.883l2.278-2.754c.045-.064,4.881-7,6.44-9.817A1.593,1.593,0,0,0,211.1,96.8l-.015-.027.005-.026A18.423,18.423,0,0,0,208,93.337a21.585,21.585,0,0,0-5.345-3.924,19.2,19.2,0,0,1-.834,2.119,11.971,11.971,0,0,0-1,3.008c2.251,1.383,4.06,2.4,5.376,3.034l.085.04-.048.081a94.667,94.667,0,0,0-4.435,9.057,18.614,18.614,0,0,0-.9,2,5.7,5.7,0,0,1,.737,1.193m9.462-13.193Z" fill="#f49c68"/>
    <path id="Trazado_134964" data-name="Trazado 134964" d="M195.177,90.727a25.9,25.9,0,0,0,6.478,5.95c2.751-1.838,3.871-2.472,5.4-5.409a41.971,41.971,0,0,0-6.644-5.489" fill="#e8edbc"/>
    <path id="Trazado_134965" data-name="Trazado 134965" d="M186.644,68.018a3.809,3.809,0,0,0-.678,3.061c.032.124.35,1.112.35,1.112a3.8,3.8,0,0,1,.279-.891,4.942,4.942,0,0,0,1.658-1.568,10.517,10.517,0,0,0,1.04-2.048,2.662,2.662,0,0,0,.186-.607c.026-.19.053-.576-.211-.57a2.756,2.756,0,0,0-.735.152,3.748,3.748,0,0,0-1.316.735,3.535,3.535,0,0,0-.573.624" fill="#7d2345"/>
    <path id="Trazado_134966" data-name="Trazado 134966" d="M196.465,74.369c-1.137,3.937-4.078,6.913-6.977,6.076s-3.951-4.911-3.049-8.908c1-4.411,4.525-6.581,7.424-5.744s3.739,4.639,2.6,8.576" fill="#f49c68"/>
    <path id="Trazado_134967" data-name="Trazado 134967" d="M186.315,72.191s-1.545-4.992,2.992-5.4a11.145,11.145,0,0,0,2.525,2.87,7.416,7.416,0,0,1,1.7,1.39,4,4,0,0,1,.643,2.04,10.389,10.389,0,0,1-.339,3.7.923.923,0,0,1,.788-.382,2.707,2.707,0,0,1,.916.236c-.228.339-.551.6-.805.918a4.014,4.014,0,0,0-.619,1.455,3.857,3.857,0,0,0,1.669-.593,10.813,10.813,0,0,0,1.348-1.078c.908-.809,1.254-2.035,2.205-2.774.915-.71,2.071-1.469,2.25-2.616a4.6,4.6,0,0,0-.791-3.242,6.07,6.07,0,0,0-.779-.84,9.533,9.533,0,0,1-.794-.662c-.663-.777-.569-1.978-1.162-2.809a3.448,3.448,0,0,0-2.489-1.157,8.248,8.248,0,0,1-2.76-.537c-.616-.307-1.111-.815-1.713-1.149a3.512,3.512,0,0,0-2.645-.3,3.456,3.456,0,0,0-1.738,1.159,3.8,3.8,0,0,0-.54,1.824,14.7,14.7,0,0,1-.075,2.274,12.909,12.909,0,0,1-.791,1.713,3.392,3.392,0,0,0,1,3.957" fill="#7d2345"/>
    <path id="Trazado_134968" data-name="Trazado 134968" d="M194.165,73.107a10.479,10.479,0,0,1-.039,2.132A10.792,10.792,0,0,0,194,73.744a4.034,4.034,0,0,0-.8-1.981,7.519,7.519,0,0,0-1.828-1.246,17.519,17.519,0,0,1-2.936-2.785,5.292,5.292,0,0,1,.953-.9,10.979,10.979,0,0,0,2.48,2.857,7.28,7.28,0,0,1,1.673,1.383,3.991,3.991,0,0,1,.626,2.034" fill="#f0836e"/>
    <path id="Trazado_134969" data-name="Trazado 134969" d="M186.274,65.2a3.688,3.688,0,0,1,.044-3.036,3.329,3.329,0,0,1,2.617-1.692,3.123,3.123,0,0,1,2.139.794A5.81,5.81,0,0,1,192.44,63.1l-.184.094a5.632,5.632,0,0,0-1.316-1.768,2.928,2.928,0,0,0-1.994-.745,3.115,3.115,0,0,0-2.445,1.581,3.482,3.482,0,0,0-.035,2.864Z" fill="#7d2345"/>
    <path id="Trazado_134970" data-name="Trazado 134970" d="M198.632,74.273l-.2-.067a1.765,1.765,0,0,1,1.447-.965c.133-.023.27-.041.4-.058a3.015,3.015,0,0,0,1.216-.333,1.869,1.869,0,0,0,.792-1.244,4,4,0,0,0-.052-1.552,2.844,2.844,0,0,0-.858-1.737,3.313,3.313,0,0,0-1.135-.487c-.109-.032-.218-.063-.326-.1a1.926,1.926,0,0,1-1.322-.994,2.253,2.253,0,0,1-.064-1.138,2.954,2.954,0,0,0,.019-.817,1.886,1.886,0,0,0-1.262-1.341,5.777,5.777,0,0,0-1.977-.239l-2.379-.011v-.207l2.379.012a5.979,5.979,0,0,1,2.047.251,2.094,2.094,0,0,1,1.4,1.5,3.165,3.165,0,0,1-.017.875,2.076,2.076,0,0,0,.049,1.036,1.738,1.738,0,0,0,1.194.876c.106.034.213.065.321.1a3.465,3.465,0,0,1,1.2.522,3.029,3.029,0,0,1,.934,1.861,4.3,4.3,0,0,1,.052,1.631,2.077,2.077,0,0,1-.886,1.379,3.2,3.2,0,0,1-1.3.363c-.131.017-.266.035-.395.057-.4.068-1.093.265-1.287.828" fill="#7d2345"/>
    <path id="Trazado_134971" data-name="Trazado 134971" d="M184.7,99.937a5.27,5.27,0,0,0-.435.623,3.776,3.776,0,0,0-.572,1.721,2.138,2.138,0,0,0,.045.568,1.57,1.57,0,0,0,.751,1.045A104.345,104.345,0,0,1,207,122.105a1.6,1.6,0,0,0,.133.128,1.511,1.511,0,0,0,1.037.373c.056,0,.114,0,.172-.01a3.486,3.486,0,0,0,1.937-1.013.282.282,0,0,0,.025-.024,5.364,5.364,0,0,0,.491-.533,4.284,4.284,0,0,0,1.035-2.393,2.049,2.049,0,0,0-.01-.306,1.628,1.628,0,0,0-.335-.861,1.513,1.513,0,0,0-.431-.368,104.4,104.4,0,0,1-22.524-18.2,1.6,1.6,0,0,0-1.378-.5,3.89,3.89,0,0,0-2.455,1.542" fill="#90b193"/>
    <path id="Trazado_134972" data-name="Trazado 134972" d="M184.026,103.515a1.546,1.546,0,0,0,.409.341,104.32,104.32,0,0,1,22.518,18.206,1.518,1.518,0,0,0,1.17.5A123.257,123.257,0,0,0,185.3,103.8c-.059.007-.118.013-.176.015a1.709,1.709,0,0,1-1.1-.3" fill="#6787b2"/>
    <path id="Trazado_134973" data-name="Trazado 134973" d="M185.3,103.8a123.222,123.222,0,0,1,22.826,18.763,3.317,3.317,0,0,0,2.107-1.021c-7.459-6.468-15.152-12.734-23-18.745l-.025.023a3.572,3.572,0,0,1-1.911.98" fill="#e8edbc"/>
    <path id="Trazado_134974" data-name="Trazado 134974" d="M187.7,102.295a4.88,4.88,0,0,1-.466.5c7.845,6.011,15.538,12.278,23,18.745a5.771,5.771,0,0,0,.516-.557,3.954,3.954,0,0,0,1.022-2.7,129.562,129.562,0,0,1-23.092-18.316,4.146,4.146,0,0,1-.978,2.323" fill="#fff"/>
    <path id="Trazado_134975" data-name="Trazado 134975" d="M188.377,98.75a1.9,1.9,0,0,1,.295.91,2.48,2.48,0,0,1,.005.312,129.517,129.517,0,0,0,23.092,18.316A1.54,1.54,0,0,0,211,117.06a104.4,104.4,0,0,1-22.519-18.2,1.348,1.348,0,0,0-.107-.107" fill="#e8edbc"/>
    <path id="Trazado_134976" data-name="Trazado 134976" d="M211.014,117.317a1.4,1.4,0,0,1,.557,1.022,3.729,3.729,0,0,1-.966,2.531,5.4,5.4,0,0,1-.491.53,3.118,3.118,0,0,1-1.963.957,1.36,1.36,0,0,1-.949-.345c-.036-.032-.071-.067-.1-.1a107.967,107.967,0,0,0-21.992-17.9c.059,0,.124-.008.191-.017a3.784,3.784,0,0,0,2.034-1.036l.029-.028a5.154,5.154,0,0,0,.483-.52,4.377,4.377,0,0,0,1.025-2.452,2.929,2.929,0,0,0-.005-.339c0-.019,0-.038-.005-.057a103.932,103.932,0,0,0,9.983,9.194,101.192,101.192,0,0,0,12.045,8.476,1.438,1.438,0,0,1,.129.085m.133-.164a1.7,1.7,0,0,0-.144-.094,98.531,98.531,0,0,1-12.045-8.449,100.155,100.155,0,0,1-10.474-9.754c-.034-.037-.069-.073-.107-.107a1.917,1.917,0,0,1,.3.91,2.708,2.708,0,0,1,0,.313,4.146,4.146,0,0,1-.978,2.323,4.88,4.88,0,0,1-.466.5l-.024.023a3.565,3.565,0,0,1-1.911.98c-.06.008-.118.013-.176.016a1.708,1.708,0,0,1-1.1-.3,1.5,1.5,0,0,0,.266.248,1.411,1.411,0,0,0,.143.094,98.687,98.687,0,0,1,12.008,8.42,100.185,100.185,0,0,1,10.509,9.785c.038.041.077.079.117.115a1.517,1.517,0,0,0,1.054.387,3.317,3.317,0,0,0,2.107-1.021,5.648,5.648,0,0,0,.516-.557,3.951,3.951,0,0,0,1.023-2.7,1.551,1.551,0,0,0-.623-1.135m-22.77-18.4h0" fill="#90b193"/>
    <path id="Trazado_134977" data-name="Trazado 134977" d="M184.647,106.74a7.235,7.235,0,0,0-.292.8,4.737,4.737,0,0,0-.2,1.992,2.283,2.283,0,0,0,.155.574,1.323,1.323,0,0,0,.927.817A83.271,83.271,0,0,1,210.4,121.792a1.153,1.153,0,0,0,.153.086,1.291,1.291,0,0,0,1.066.016c.053-.02.107-.044.162-.071a4.309,4.309,0,0,0,1.651-1.745.374.374,0,0,0,.019-.034,7.306,7.306,0,0,0,.364-.73,5.493,5.493,0,0,0,.512-2.856,2.586,2.586,0,0,0-.07-.314,1.5,1.5,0,0,0-.492-.774,1.245,1.245,0,0,0-.487-.229,83.288,83.288,0,0,1-25.17-10.85,1.379,1.379,0,0,0-1.419-.031,4.911,4.911,0,0,0-2.04,2.48" fill="#90b193"/>
    <path id="Trazado_134978" data-name="Trazado 134978" d="M184.718,110.7a1.239,1.239,0,0,0,.459.208,83.268,83.268,0,0,1,25.166,10.86,1.287,1.287,0,0,0,1.22.1,98.342,98.342,0,0,0-25.572-11.328c-.056.029-.111.056-.166.079a1.505,1.505,0,0,1-1.107.079" fill="#6787b2"/>
    <path id="Trazado_134979" data-name="Trazado 134979" d="M185.991,110.539a98.313,98.313,0,0,1,25.572,11.328,4.048,4.048,0,0,0,1.812-1.814c-8.424-4.051-17.031-7.809-25.733-11.248l-.018.032a4.4,4.4,0,0,1-1.633,1.7" fill="#e8edbc"/>
    <path id="Trazado_134980" data-name="Trazado 134980" d="M187.988,108.117a6.313,6.313,0,0,1-.346.688c8.7,3.439,17.309,7.2,25.733,11.248a7.541,7.541,0,0,0,.383-.763,5,5,0,0,0,.44-3.167,103.308,103.308,0,0,1-25.738-10.769,5.318,5.318,0,0,1-.472,2.763" fill="#fff"/>
    <path id="Trazado_134981" data-name="Trazado 134981" d="M187.929,104.191a1.81,1.81,0,0,1,.464.84,2.753,2.753,0,0,1,.066.323A103.342,103.342,0,0,0,214.2,116.122a1.332,1.332,0,0,0-.977-1,83.294,83.294,0,0,1-25.168-10.856,1.105,1.105,0,0,0-.123-.073" fill="#e8edbc"/>
    <path id="Trazado_134982" data-name="Trazado 134982" d="M213.282,115.384a1.232,1.232,0,0,1,.736.862,4.72,4.72,0,0,1-.419,2.976,7.564,7.564,0,0,1-.364.726,3.8,3.8,0,0,1-1.687,1.695,1.17,1.17,0,0,1-.976-.018c-.041-.021-.081-.045-.121-.07a86.088,86.088,0,0,0-24.6-10.728c.056-.023.117-.054.179-.086a4.676,4.676,0,0,0,1.739-1.8l.022-.041a6.583,6.583,0,0,0,.358-.712,5.6,5.6,0,0,0,.491-2.914,3.006,3.006,0,0,0-.072-.35c0-.019-.01-.039-.016-.057a82.981,82.981,0,0,0,11.381,5.981,80.693,80.693,0,0,0,13.21,4.5c.048.013.095.027.141.043m.094-.217a1.128,1.128,0,0,0-.156-.047,78.8,78.8,0,0,1-13.205-4.469,79.9,79.9,0,0,1-11.962-6.387,1.192,1.192,0,0,0-.124-.074,1.819,1.819,0,0,1,.464.841,2.709,2.709,0,0,1,.067.323,5.318,5.318,0,0,1-.472,2.763,6.313,6.313,0,0,1-.346.688l-.018.033a4.4,4.4,0,0,1-1.633,1.7,1.767,1.767,0,0,1-.165.079,1.508,1.508,0,0,1-1.108.079,1.2,1.2,0,0,0,.3.162,1.269,1.269,0,0,0,.155.047,78.587,78.587,0,0,1,13.163,4.451,80.247,80.247,0,0,1,12,6.407,1.266,1.266,0,0,0,1.219.1,4.043,4.043,0,0,0,1.812-1.814,7.437,7.437,0,0,0,.382-.763,5,5,0,0,0,.441-3.167,1.358,1.358,0,0,0-.822-.956M187.929,104.19h0" fill="#90b193"/>
    <path id="Trazado_134983" data-name="Trazado 134983" d="M201.621,106.9a6.3,6.3,0,0,1-1.972.913,2.491,2.491,0,0,0-1.108.682,1.858,1.858,0,0,1,.537.061.627.627,0,0,1,.4.338c.121.3-.09.623-.29.878l-2.317,2.951a1.207,1.207,0,0,0-.24.408.407.407,0,0,0,.118.433c.194.144.481,0,.614-.2l2.221-2.283a.6.6,0,0,1-.118.484,9.579,9.579,0,0,0-.964,1.355l-.934,1.43c-.086.108,0,.4.139.41a.518.518,0,0,0,.367-.161,5.385,5.385,0,0,0,.484-.5l1.577-1.758-1.05,2.156a.3.3,0,0,0-.044.222.205.205,0,0,0,.247.108.549.549,0,0,0,.241-.167,5.128,5.128,0,0,0,1.11-1.715l.1.052c.025.119-.074.224-.156.315s-.156.227-.084.326a.2.2,0,0,0,.228.049.559.559,0,0,0,.2-.153,11.653,11.653,0,0,0,2.159-3.254,4.712,4.712,0,0,1,.624-1.239" fill="#f49c68"/>
    <path id="Trazado_134984" data-name="Trazado 134984" d="M199.233,114.925a.276.276,0,0,1-.271-.174.385.385,0,0,1,.048-.287l.78-1.6-1.165,1.3a5.286,5.286,0,0,1-.492.5.592.592,0,0,1-.433.182.278.278,0,0,1-.212-.191.374.374,0,0,1,.015-.358l.925-1.417a3.277,3.277,0,0,1,.567-.837,4.891,4.891,0,0,0,.4-.523.9.9,0,0,0,.108-.228l-2.07,2.127a.68.68,0,0,1-.419.283.4.4,0,0,1-.314-.068.5.5,0,0,1-.15-.525,1.274,1.274,0,0,1,.256-.439l2.316-2.951c.2-.249.381-.538.279-.793a.541.541,0,0,0-.349-.288,1.788,1.788,0,0,0-.513-.056l-.183,0,.119-.14a2.529,2.529,0,0,1,1.146-.708l.132-.045a5.739,5.739,0,0,0,1.8-.838l.137.105a5.07,5.07,0,0,1-1.88.9l-.132.045a2.612,2.612,0,0,0-.94.52,1.451,1.451,0,0,1,.367.06.7.7,0,0,1,.456.388,1.024,1.024,0,0,1-.3.963l-2.316,2.952a1.125,1.125,0,0,0-.225.377.328.328,0,0,0,.086.341.224.224,0,0,0,.181.037.508.508,0,0,0,.309-.215l.011-.013,2.323-2.388.042.14a.688.688,0,0,1-.127.555,4.958,4.958,0,0,1-.415.543,3.084,3.084,0,0,0-.543.8l-.007.015-.935,1.431a.219.219,0,0,0,.005.191c.023.053.054.083.071.085a.443.443,0,0,0,.3-.141,5.186,5.186,0,0,0,.475-.486l1.989-2.217-1.32,2.71a.246.246,0,0,0-.039.157c.015.046.09.066.143.052a.48.48,0,0,0,.2-.144,5.051,5.051,0,0,0,1.091-1.687l.035-.089.223.116.008.04a.454.454,0,0,1-.17.382l-.007.008c-.063.069-.114.167-.078.217a.119.119,0,0,0,.128.02.507.507,0,0,0,.164-.132,11.5,11.5,0,0,0,2.143-3.23c.049-.11.093-.221.136-.328a3.177,3.177,0,0,1,.5-.931l.132.111a3.056,3.056,0,0,0-.473.884c-.043.108-.088.221-.139.334a11.636,11.636,0,0,1-2.175,3.278.65.65,0,0,1-.227.175.286.286,0,0,1-.329-.079.261.261,0,0,1-.027-.049,5.252,5.252,0,0,1-.813,1.081.633.633,0,0,1-.28.19.308.308,0,0,1-.08.01" fill="#f49c68"/>
    <path id="Trazado_134985" data-name="Trazado 134985" d="M165.708,81.96c-.046-.267-.211-.756-.252-1.024a9.833,9.833,0,0,0-3.593-5.068,8.522,8.522,0,0,1-1.191-1.038,1.525,1.525,0,0,1-.471-.674.254.254,0,0,1,.375-.289,18.674,18.674,0,0,1,1.5,1.159.147.147,0,0,0,.2-.207,5.486,5.486,0,0,0-.736-.706,8.879,8.879,0,0,1-1.089-1.187,2.09,2.09,0,0,1-.383-.76.271.271,0,0,1,.459-.253q1.125,1.187,2.353,2.27a.146.146,0,0,0,.227-.176,2.467,2.467,0,0,0-.561-.725c-.354-.327-.688-.739-1.04-1.067a4.879,4.879,0,0,1-.9-1.064.308.308,0,0,1,.442-.406,9.562,9.562,0,0,1,1.557,1.607c.432.488.723.786,1.333,1.373a1.734,1.734,0,0,0,.146.126.148.148,0,0,0,.219-.192c-.312-.52-.853-1.169-1.1-1.548a4.756,4.756,0,0,1-.673-1.235.342.342,0,0,1,.511-.382,2.775,2.775,0,0,1,.716.755l2.724,3.836c.208.294.523.627.87.486a.526.526,0,0,0,.255-.24,2.572,2.572,0,0,0,.175-.759,3.162,3.162,0,0,1,.538-1.232.232.232,0,0,1,.412.137,7.875,7.875,0,0,1-.491,2.629,4.717,4.717,0,0,0-.349,2.1c.035.268.184.59.263.9.145.465.438.941.618,1.418" fill="#f49c68"/>
    <path id="Trazado_134986" data-name="Trazado 134986" d="M165.623,81.975c-.021-.122-.071-.3-.118-.475-.054-.2-.11-.4-.133-.544a9.676,9.676,0,0,0-3.559-5.018,8.524,8.524,0,0,1-1.2-1.048l-.058-.059a1.46,1.46,0,0,1-.434-.65.331.331,0,0,1,.116-.362.34.34,0,0,1,.385-.026,7.19,7.19,0,0,1,.95.711c.182.153.371.311.563.453a.058.058,0,0,0,.079-.007.055.055,0,0,0,.005-.078,3.855,3.855,0,0,0-.557-.548l-.168-.146a9.079,9.079,0,0,1-1.1-1.2,2.19,2.19,0,0,1-.4-.793.358.358,0,0,1,.606-.333c.745.786,1.535,1.548,2.347,2.265a.057.057,0,0,0,.074,0,.061.061,0,0,0,.018-.078,2.373,2.373,0,0,0-.542-.7c-.182-.168-.361-.361-.534-.547s-.335-.361-.506-.52a4.919,4.919,0,0,1-.914-1.083.394.394,0,0,1,.565-.521,6.729,6.729,0,0,1,1.231,1.225c.113.133.226.266.342.4.427.482.712.776,1.327,1.368.035.033.082.074.14.12a.06.06,0,0,0,.08,0,.056.056,0,0,0,.012-.077c-.18-.3-.441-.648-.671-.956-.166-.221-.322-.429-.425-.589l-.12-.185a3.9,3.9,0,0,1-.564-1.075.427.427,0,0,1,.159-.459.418.418,0,0,1,.481-.018,2.853,2.853,0,0,1,.741.777l2.723,3.837c.281.395.539.549.767.456a.443.443,0,0,0,.212-.2,1.382,1.382,0,0,0,.129-.5c.01-.078.021-.16.037-.24a3.269,3.269,0,0,1,.556-1.268.318.318,0,0,1,.565.187,8.018,8.018,0,0,1-.5,2.66,4.651,4.651,0,0,0-.344,2.064,2.749,2.749,0,0,0,.14.5c.042.124.086.252.119.38v0a5.766,5.766,0,0,0,.33.776c.1.208.2.424.285.638l-.161.061c-.078-.207-.18-.419-.279-.624a7.231,7.231,0,0,1-.295-.666l-.009.009-.037-.147c-.032-.123-.075-.25-.117-.373a2.839,2.839,0,0,1-.148-.538,4.821,4.821,0,0,1,.352-2.142,7.849,7.849,0,0,0,.487-2.6.143.143,0,0,0-.1-.132.14.14,0,0,0-.158.046,3.084,3.084,0,0,0-.522,1.194c-.015.075-.025.15-.035.229a1.539,1.539,0,0,1-.148.555.616.616,0,0,1-.3.278c-.312.128-.639-.046-.973-.515L163.7,71.3a2.7,2.7,0,0,0-.692-.731.251.251,0,0,0-.287.011.254.254,0,0,0-.1.275,3.793,3.793,0,0,0,.543,1.026l.12.185c.1.155.254.361.418.58.233.311.5.663.681.97a.234.234,0,0,1-.347.3c-.063-.05-.114-.094-.152-.13-.62-.6-.907-.893-1.337-1.378-.117-.132-.231-.266-.344-.4a6.563,6.563,0,0,0-1.2-1.194.216.216,0,0,0-.277.023.211.211,0,0,0-.041.268,4.733,4.733,0,0,0,.883,1.045c.175.163.348.349.515.529s.347.374.524.537a2.535,2.535,0,0,1,.58.752.231.231,0,0,1-.069.289.226.226,0,0,1-.292-.011c-.816-.72-1.609-1.486-2.359-2.275a.176.176,0,0,0-.222-.034.178.178,0,0,0-.091.206,2,2,0,0,0,.368.729,8.8,8.8,0,0,0,1.078,1.175l.166.144a4.1,4.1,0,0,1,.581.574.233.233,0,0,1-.323.329c-.2-.145-.387-.305-.571-.46a7.113,7.113,0,0,0-.927-.695.169.169,0,0,0-.192.014.158.158,0,0,0-.057.176,1.3,1.3,0,0,0,.392.579l.059.06a8.368,8.368,0,0,0,1.179,1.027,9.861,9.861,0,0,1,3.626,5.113l0,.013a5.372,5.372,0,0,0,.129.531c.051.186.1.361.122.492Z" fill="#f49c68"/>
  </g>
</svg>
